M48
; DRILL file KiCad 10.0.3 date 2026-07-01T15:32:29
; FORMAT={-:-/ absolute / metric / decimal}
; #@! TF.CreationDate,2026-07-01T15:32:29+09:00
; #@! TF.GenerationSoftware,Kicad,Pcbnew,10.0.3
; #@! TF.FileFunction,Plated,1,2,PTH
FMAT,2
METRIC
; #@! TA.AperFunction,Plated,PTH,ComponentDrill
T1C0.400
; #@! TA.AperFunction,Plated,PTH,ComponentDrill
T2C0.600
; #@! TA.AperFunction,Plated,PTH,ComponentDrill
T3C0.762
; #@! TA.AperFunction,Plated,PTH,ComponentDrill
T4C0.800
; #@! TA.AperFunction,Plated,PTH,ComponentDrill
T5C0.813
; #@! TA.AperFunction,Plated,PTH,ComponentDrill
T6C1.300
; #@! TA.AperFunction,Plated,PTH,ComponentDrill
T7C3.050
%
G90
G05
T1
X85.368Y-124.756
X88.628Y-124.756
X96.478Y-94.646
X96.478Y-97.906
X96.978Y-56.282
X96.978Y-59.542
X96.978Y-75.459
X96.978Y-78.719
X96.978Y-113.146
X96.978Y-116.406
X115.978Y-55.646
X115.978Y-58.906
X115.978Y-75.256
X115.978Y-78.516
X115.978Y-113.432
X115.978Y-116.692
X115.978Y-128.146
X115.978Y-131.406
X116.478Y-93.646
X116.478Y-96.906
X122.868Y-80.256
X123.368Y-62.256
X123.368Y-100.256
X123.368Y-138.256
X126.128Y-80.256
X126.628Y-62.256
X126.628Y-100.256
X126.628Y-138.256
X134.978Y-105.146
X134.978Y-108.406
X134.978Y-126.046
X134.978Y-129.306
X135.978Y-53.646
X135.978Y-56.906
X141.868Y-98.756
X143.368Y-78.756
X145.128Y-98.756
X146.628Y-78.756
X153.978Y-74.546
X153.978Y-77.806
X153.978Y-90.424
X153.978Y-93.684
X161.368Y-81.256
X164.628Y-81.256
X172.478Y-74.256
X172.478Y-77.516
X173.478Y-91.256
X173.478Y-94.516
X173.478Y-108.646
X173.478Y-111.906
X173.978Y-57.146
X173.978Y-60.406
X175.167Y-121.401
X177.99Y-123.031
X180.768Y-64.256
X180.768Y-103.256
X184.028Y-64.256
X184.028Y-103.256
X187.153Y-133.185
X188.783Y-130.362
X189.978Y-116.646
X189.978Y-119.906
X191.478Y-100.146
X191.478Y-103.406
X192.478Y-73.646
X192.478Y-76.906
X192.478Y-87.146
X192.478Y-90.406
X202.549Y-156.931
X205.372Y-158.561
T3
X141.518Y-39.624
X146.518Y-39.624
T4
X81.918Y-124.756
X92.078Y-124.756
X96.478Y-91.196
X96.478Y-101.356
X96.978Y-52.832
X96.978Y-62.992
X96.978Y-72.009
X96.978Y-82.169
X96.978Y-109.696
X96.978Y-119.856
X115.978Y-52.196
X115.978Y-62.356
X115.978Y-71.806
X115.978Y-81.966
X115.978Y-109.982
X115.978Y-120.142
X115.978Y-124.696
X115.978Y-134.856
X116.478Y-90.196
X116.478Y-100.356
X119.418Y-80.256
X119.918Y-62.256
X119.918Y-100.256
X119.918Y-138.256
X129.578Y-80.256
X130.078Y-62.256
X130.078Y-100.256
X130.078Y-138.256
X134.978Y-101.696
X134.978Y-111.856
X134.978Y-122.596
X134.978Y-132.756
X135.978Y-50.196
X135.978Y-60.356
X138.418Y-98.756
X139.918Y-78.756
X148.578Y-98.756
X150.078Y-78.756
X153.978Y-71.096
X153.978Y-81.256
X153.978Y-86.974
X153.978Y-97.134
X157.918Y-81.256
X168.078Y-81.256
X172.179Y-119.676
X172.478Y-70.806
X172.478Y-80.966
X173.478Y-87.806
X173.478Y-97.966
X173.478Y-105.196
X173.478Y-115.356
X173.978Y-53.696
X173.978Y-63.856
X177.318Y-64.256
X177.318Y-103.256
X180.978Y-124.756
X185.428Y-136.173
X187.478Y-64.256
X187.478Y-103.256
X189.978Y-113.196
X189.978Y-123.356
X190.508Y-127.374
X191.478Y-96.696
X191.478Y-106.856
X192.478Y-70.196
X192.478Y-80.356
X192.478Y-83.696
X192.478Y-93.856
X199.561Y-155.206
X208.36Y-160.286
T5
X155.575Y-39.37
X155.575Y-41.91
X155.575Y-44.45
X155.575Y-46.99
X155.575Y-49.53
X155.575Y-52.07
X155.575Y-54.61
X155.575Y-57.15
X155.575Y-59.69
X155.575Y-62.23
X155.575Y-64.77
X155.575Y-67.31
X170.815Y-39.37
X170.815Y-41.91
X170.815Y-44.45
X170.815Y-46.99
X170.815Y-49.53
X170.815Y-52.07
X170.815Y-54.61
X170.815Y-57.15
X170.815Y-59.69
X170.815Y-62.23
X170.815Y-64.77
X170.815Y-67.31
T6
X140.518Y-42.124
X147.518Y-42.124
T7
X84.455Y-52.895
X84.455Y-71.945
X84.455Y-90.995
X84.455Y-110.045
X84.455Y-129.095
X90.805Y-55.435
X90.805Y-74.486
X90.805Y-93.535
X90.805Y-112.585
X90.805Y-131.636
X103.505Y-52.895
X103.505Y-71.945
X103.505Y-90.995
X103.505Y-110.045
X103.505Y-129.095
X109.855Y-55.435
X109.855Y-74.486
X109.855Y-93.535
X109.855Y-112.585
X109.855Y-131.636
X122.555Y-48.133
X122.555Y-67.183
X122.555Y-86.233
X122.555Y-105.283
X122.555Y-124.333
X128.905Y-50.673
X128.905Y-69.723
X128.905Y-88.773
X128.905Y-107.823
X128.905Y-126.873
X141.605Y-45.752
X141.605Y-64.802
X141.605Y-83.852
X141.605Y-102.902
X141.605Y-121.952
X147.955Y-48.292
X147.955Y-67.342
X147.955Y-86.392
X147.955Y-105.442
X147.955Y-124.492
X158.115Y-55.753
X158.115Y-74.803
X160.655Y-49.403
X160.655Y-68.453
X160.655Y-86.233
X160.655Y-105.283
X167.005Y-88.773
X167.005Y-107.823
X174.632Y-128.506
X178.862Y-133.881
X179.705Y-50.514
X179.705Y-69.564
X179.705Y-88.614
X179.705Y-107.664
X186.055Y-53.054
X186.055Y-72.104
X186.055Y-91.154
X186.055Y-110.204
X191.13Y-138.031
X195.36Y-143.406
X198.755Y-60.039
X198.755Y-79.089
X198.755Y-98.139
X200.61Y-131.772
X205.105Y-62.579
X205.105Y-81.629
X205.105Y-100.679
X205.984Y-127.543
X212.345Y-149.546
X217.72Y-145.317
T2
X191.072Y-56.054G85X191.072Y-56.954
G05
X195.072Y-47.554G85X195.072Y-48.454
G05
X195.072Y-50.554G85X195.072Y-51.454
G05
X195.072Y-54.554G85X195.072Y-55.454
G05
X199.072Y-56.054G85X199.072Y-56.954
G05
M30
