M48
; DRILL file KiCad 10.0.3 date 2026-06-13T18:59:17
; FORMAT={-:-/ absolute / metric / decimal}
; #@! TF.CreationDate,2026-06-13T18:59:17+09:00
; #@! TF.GenerationSoftware,Kicad,Pcbnew,10.0.3
; #@! TF.FileFunction,Plated,1,2,PTH
FMAT,2
METRIC
; #@! TA.AperFunction,Plated,PTH,ViaDrill
T1C0.400
; #@! TA.AperFunction,Plated,PTH,ComponentDrill
T2C0.400
; #@! TA.AperFunction,Plated,PTH,ComponentDrill
T3C0.600
; #@! TA.AperFunction,Plated,PTH,ComponentDrill
T4C0.762
; #@! TA.AperFunction,Plated,PTH,ComponentDrill
T5C0.800
; #@! TA.AperFunction,Plated,PTH,ComponentDrill
T6C0.813
; #@! TA.AperFunction,Plated,PTH,ComponentDrill
T7C1.300
; #@! TA.AperFunction,Plated,PTH,ComponentDrill
T8C3.050
%
G90
G05
T1
X117.872Y-81.256
X127.915Y-68.256
X131.071Y-68.156
X153.188Y-55.88
X159.872Y-55.756
X165.38Y-66.256
X166.872Y-59.256
X166.872Y-59.256
X167.73Y-75.12
X167.872Y-61.756
X170.466Y-78.678
X172.873Y-93.218
T2
X98.061Y-154.611
X100.884Y-152.981
X114.872Y-116.996
X114.872Y-120.256
X115.372Y-73.173
X115.372Y-76.433
X115.372Y-88.256
X115.372Y-91.516
X115.372Y-101.748
X115.372Y-105.008
X120.872Y-132.256
X122.372Y-64.256
X122.372Y-103.256
X122.502Y-135.079
X125.632Y-64.256
X125.632Y-103.256
X125.872Y-127.256
X128.695Y-125.626
X133.872Y-54.377
X133.872Y-57.637
X133.872Y-74.256
X133.872Y-77.516
X133.872Y-91.256
X133.872Y-94.516
X133.872Y-108.756
X133.872Y-112.016
X141.872Y-81.256
X145.132Y-81.256
X153.372Y-74.062
X153.372Y-77.322
X153.372Y-90.424
X153.372Y-93.684
X160.372Y-78.756
X160.372Y-98.256
X163.632Y-78.756
X163.632Y-98.256
X172.372Y-70.646
X172.372Y-73.906
X172.372Y-105.939
X172.372Y-109.199
X172.372Y-125.73
X172.372Y-128.99
X179.112Y-138.256
X179.372Y-100.256
X179.612Y-81.256
X179.822Y-62.256
X182.372Y-138.256
X182.632Y-100.256
X182.872Y-81.256
X183.082Y-62.256
X190.872Y-55.756
X190.872Y-59.016
X191.372Y-75.256
X191.372Y-78.516
X191.372Y-94.382
X191.372Y-97.642
X191.372Y-113.432
X191.372Y-116.692
X191.372Y-128.256
X191.372Y-131.516
X210.372Y-56.282
X210.372Y-59.542
X210.372Y-75.459
X210.372Y-78.719
X210.372Y-94.382
X210.372Y-97.642
X210.372Y-113.411
X210.372Y-116.671
X218.112Y-124.256
X221.372Y-124.256
T4
X141.036Y-39.624
X146.036Y-39.624
T5
X95.073Y-156.336
X103.872Y-151.256
X114.872Y-113.546
X114.872Y-123.706
X115.372Y-69.723
X115.372Y-79.883
X115.372Y-84.806
X115.372Y-94.966
X115.372Y-98.298
X115.372Y-108.458
X118.922Y-64.256
X118.922Y-103.256
X119.147Y-129.268
X122.884Y-128.981
X124.227Y-138.067
X129.082Y-64.256
X129.082Y-103.256
X131.683Y-123.901
X133.872Y-50.927
X133.872Y-61.087
X133.872Y-70.806
X133.872Y-80.966
X133.872Y-87.806
X133.872Y-97.966
X133.872Y-105.306
X133.872Y-115.466
X138.422Y-81.256
X148.582Y-81.256
X153.372Y-70.612
X153.372Y-80.772
X153.372Y-86.974
X153.372Y-97.134
X156.922Y-78.756
X156.922Y-98.256
X167.082Y-78.756
X167.082Y-98.256
X172.372Y-67.196
X172.372Y-77.356
X172.372Y-102.489
X172.372Y-112.649
X172.372Y-122.28
X172.372Y-132.44
X175.662Y-138.256
X175.922Y-100.256
X176.162Y-81.256
X176.372Y-62.256
X185.822Y-138.256
X186.082Y-100.256
X186.322Y-81.256
X186.532Y-62.256
X190.872Y-52.306
X190.872Y-62.466
X191.372Y-71.806
X191.372Y-81.966
X191.372Y-90.932
X191.372Y-101.092
X191.372Y-109.982
X191.372Y-120.142
X191.372Y-124.806
X191.372Y-134.966
X210.372Y-52.832
X210.372Y-62.992
X210.372Y-72.009
X210.372Y-82.169
X210.372Y-90.932
X210.372Y-101.092
X210.372Y-109.961
X210.372Y-120.121
X214.662Y-124.256
X224.822Y-124.256
T6
X154.585Y-39.37
X154.585Y-41.91
X154.585Y-44.45
X154.585Y-46.99
X154.585Y-49.53
X154.585Y-52.07
X154.585Y-54.61
X154.585Y-57.15
X154.585Y-59.69
X154.585Y-62.23
X154.585Y-64.77
X154.585Y-67.31
X169.825Y-39.37
X169.825Y-41.91
X169.825Y-44.45
X169.825Y-46.99
X169.825Y-49.53
X169.825Y-52.07
X169.825Y-54.61
X169.825Y-57.15
X169.825Y-59.69
X169.825Y-62.23
X169.825Y-64.77
X169.825Y-67.31
T7
X140.036Y-42.124
X147.036Y-42.124
T8
X97.429Y-140.237
X98.404Y-147.006
X101.931Y-125.173
X102.515Y-60.039
X102.515Y-79.089
X102.515Y-98.139
X102.906Y-131.942
X108.865Y-62.579
X108.865Y-81.629
X108.865Y-100.679
X111.456Y-141.671
X112.431Y-148.44
X121.565Y-50.514
X121.565Y-69.564
X121.565Y-88.614
X121.565Y-107.664
X127.915Y-53.054
X127.915Y-72.104
X127.915Y-91.154
X127.915Y-110.204
X135.188Y-129.436
X136.163Y-136.205
X140.615Y-48.133
X140.615Y-67.183
X140.615Y-86.233
X140.615Y-105.283
X146.965Y-50.673
X146.965Y-69.723
X146.965Y-88.773
X146.965Y-107.823
X157.125Y-53.372
X157.125Y-72.422
X159.665Y-47.022
X159.665Y-66.072
X159.665Y-83.852
X159.665Y-102.902
X159.665Y-121.952
X166.015Y-86.392
X166.015Y-105.442
X166.015Y-124.492
X178.715Y-48.133
X178.715Y-67.183
X178.715Y-86.233
X178.715Y-105.283
X178.715Y-124.333
X185.065Y-50.673
X185.065Y-69.723
X185.065Y-88.773
X185.065Y-107.823
X185.065Y-126.873
X197.765Y-52.895
X197.765Y-71.945
X197.765Y-90.995
X197.765Y-110.045
X197.765Y-129.095
X204.115Y-55.435
X204.115Y-74.486
X204.115Y-93.535
X204.115Y-112.585
X204.115Y-131.636
X216.815Y-52.895
X216.815Y-71.945
X216.815Y-90.995
X216.815Y-110.045
X216.815Y-129.095
X223.165Y-55.435
X223.165Y-74.486
X223.165Y-93.535
X223.165Y-112.585
X223.165Y-131.636
T3
X107.278Y-56.054G85X107.278Y-56.954
G05
X111.278Y-47.554G85X111.278Y-48.454
G05
X111.278Y-50.554G85X111.278Y-51.454
G05
X111.278Y-54.554G85X111.278Y-55.454
G05
X115.278Y-56.054G85X115.278Y-56.954
G05
M30
