G04 #@! TF.GenerationSoftware,KiCad,Pcbnew,10.0.3*
G04 #@! TF.CreationDate,2026-06-20T23:32:22+09:00*
G04 #@! TF.ProjectId,ergodash,6572676f-6461-4736-982e-6b696361645f,2.1*
G04 #@! TF.SameCoordinates,Original*
G04 #@! TF.FileFunction,Legend,Top*
G04 #@! TF.FilePolarity,Positive*
%FSLAX46Y46*%
G04 Gerber Fmt 4.6, Leading zero omitted, Abs format (unit mm)*
G04 Created by KiCad (PCBNEW 10.0.3) date 2026-06-20 23:32:22*
%MOMM*%
%LPD*%
G01*
G04 APERTURE LIST*
G04 Aperture macros list*
%AMRoundRect*
0 Rectangle with rounded corners*
0 $1 Rounding radius*
0 $2 $3 $4 $5 $6 $7 $8 $9 X,Y pos of 4 corners*
0 Add a 4 corners polygon primitive as box body*
4,1,4,$2,$3,$4,$5,$6,$7,$8,$9,$2,$3,0*
0 Add four circle primitives for the rounded corners*
1,1,$1+$1,$2,$3*
1,1,$1+$1,$4,$5*
1,1,$1+$1,$6,$7*
1,1,$1+$1,$8,$9*
0 Add four rect primitives between the rounded corners*
20,1,$1+$1,$2,$3,$4,$5,0*
20,1,$1+$1,$4,$5,$6,$7,0*
20,1,$1+$1,$6,$7,$8,$9,0*
20,1,$1+$1,$8,$9,$2,$3,0*%
%AMHorizOval*
0 Thick line with rounded ends*
0 $1 width*
0 $2 $3 position (X,Y) of the first rounded end (center of the circle)*
0 $4 $5 position (X,Y) of the second rounded end (center of the circle)*
0 Add line between two ends*
20,1,$1,$2,$3,$4,$5,0*
0 Add two circle primitives to create the rounded ends*
1,1,$1,$2,$3*
1,1,$1,$4,$5*%
%AMRotRect*
0 Rectangle, with rotation*
0 The origin of the aperture is its center*
0 $1 length*
0 $2 width*
0 $3 Rotation angle, in degrees counterclockwise*
0 Add horizontal line*
21,1,$1,$2,0,0,$3*%
G04 Aperture macros list end*
%ADD10C,0.150000*%
%ADD11C,0.270000*%
%ADD12C,0.300000*%
%ADD13C,0.000000*%
%ADD14C,0.120000*%
%ADD15C,1.210000*%
%ADD16O,1.300000X2.200000*%
%ADD17C,1.524000*%
%ADD18C,1.800000*%
%ADD19C,5.000000*%
%ADD20RotRect,1.600000X1.600000X330.000000*%
%ADD21RotRect,1.600000X1.200000X330.000000*%
%ADD22HorizOval,1.600000X0.000000X0.000000X0.000000X0.000000X0*%
%ADD23R,1.600000X1.600000*%
%ADD24R,1.200000X1.600000*%
%ADD25O,1.600000X1.600000*%
%ADD26R,1.600000X1.200000*%
%ADD27RotRect,1.600000X1.600000X150.000000*%
%ADD28RotRect,1.600000X1.200000X150.000000*%
%ADD29HorizOval,1.600000X0.000000X0.000000X0.000000X0.000000X0*%
%ADD30RotRect,1.600000X1.600000X60.000000*%
%ADD31RotRect,1.600000X1.200000X60.000000*%
%ADD32HorizOval,1.600000X0.000000X0.000000X0.000000X0.000000X0*%
%ADD33C,3.048000*%
%ADD34C,3.987800*%
%ADD35RoundRect,0.250000X1.025000X1.000000X-1.025000X1.000000X-1.025000X-1.000000X1.025000X-1.000000X0*%
%ADD36C,1.750000*%
%ADD37C,4.000000*%
%ADD38C,3.600000*%
%ADD39RoundRect,0.250000X-1.000000X1.025000X-1.000000X-1.025000X1.000000X-1.025000X1.000000X1.025000X0*%
%ADD40RoundRect,0.250000X-1.378525X0.387676X-0.353525X-1.387676X1.378525X-0.387676X0.353525X1.387676X0*%
%ADD41RoundRect,0.250000X1.378525X-0.387676X0.353525X1.387676X-1.378525X0.387676X-0.353525X-1.387676X0*%
%ADD42RoundRect,0.250000X0.387676X1.378525X-1.387676X0.353525X-0.387676X-1.378525X1.387676X-0.353525X0*%
G04 APERTURE END LIST*
D10*
X151171922Y-38625819D02*
X151743350Y-38625819D01*
X151457636Y-39625819D02*
X151457636Y-38625819D01*
X151981446Y-38625819D02*
X152648112Y-39625819D01*
X152648112Y-38625819D02*
X151981446Y-39625819D01*
X153219541Y-38625819D02*
X153314779Y-38625819D01*
X153314779Y-38625819D02*
X153410017Y-38673438D01*
X153410017Y-38673438D02*
X153457636Y-38721057D01*
X153457636Y-38721057D02*
X153505255Y-38816295D01*
X153505255Y-38816295D02*
X153552874Y-39006771D01*
X153552874Y-39006771D02*
X153552874Y-39244866D01*
X153552874Y-39244866D02*
X153505255Y-39435342D01*
X153505255Y-39435342D02*
X153457636Y-39530580D01*
X153457636Y-39530580D02*
X153410017Y-39578200D01*
X153410017Y-39578200D02*
X153314779Y-39625819D01*
X153314779Y-39625819D02*
X153219541Y-39625819D01*
X153219541Y-39625819D02*
X153124303Y-39578200D01*
X153124303Y-39578200D02*
X153076684Y-39530580D01*
X153076684Y-39530580D02*
X153029065Y-39435342D01*
X153029065Y-39435342D02*
X152981446Y-39244866D01*
X152981446Y-39244866D02*
X152981446Y-39006771D01*
X152981446Y-39006771D02*
X153029065Y-38816295D01*
X153029065Y-38816295D02*
X153076684Y-38721057D01*
X153076684Y-38721057D02*
X153124303Y-38673438D01*
X153124303Y-38673438D02*
X153219541Y-38625819D01*
X151886207Y-42125819D02*
X151552874Y-41649628D01*
X151314779Y-42125819D02*
X151314779Y-41125819D01*
X151314779Y-41125819D02*
X151695731Y-41125819D01*
X151695731Y-41125819D02*
X151790969Y-41173438D01*
X151790969Y-41173438D02*
X151838588Y-41221057D01*
X151838588Y-41221057D02*
X151886207Y-41316295D01*
X151886207Y-41316295D02*
X151886207Y-41459152D01*
X151886207Y-41459152D02*
X151838588Y-41554390D01*
X151838588Y-41554390D02*
X151790969Y-41602009D01*
X151790969Y-41602009D02*
X151695731Y-41649628D01*
X151695731Y-41649628D02*
X151314779Y-41649628D01*
X152219541Y-41125819D02*
X152886207Y-42125819D01*
X152886207Y-41125819D02*
X152219541Y-42125819D01*
X153790969Y-42125819D02*
X153219541Y-42125819D01*
X153505255Y-42125819D02*
X153505255Y-41125819D01*
X153505255Y-41125819D02*
X153410017Y-41268676D01*
X153410017Y-41268676D02*
X153314779Y-41363914D01*
X153314779Y-41363914D02*
X153219541Y-41411533D01*
X151838588Y-44173438D02*
X151743350Y-44125819D01*
X151743350Y-44125819D02*
X151600493Y-44125819D01*
X151600493Y-44125819D02*
X151457636Y-44173438D01*
X151457636Y-44173438D02*
X151362398Y-44268676D01*
X151362398Y-44268676D02*
X151314779Y-44363914D01*
X151314779Y-44363914D02*
X151267160Y-44554390D01*
X151267160Y-44554390D02*
X151267160Y-44697247D01*
X151267160Y-44697247D02*
X151314779Y-44887723D01*
X151314779Y-44887723D02*
X151362398Y-44982961D01*
X151362398Y-44982961D02*
X151457636Y-45078200D01*
X151457636Y-45078200D02*
X151600493Y-45125819D01*
X151600493Y-45125819D02*
X151695731Y-45125819D01*
X151695731Y-45125819D02*
X151838588Y-45078200D01*
X151838588Y-45078200D02*
X151886207Y-45030580D01*
X151886207Y-45030580D02*
X151886207Y-44697247D01*
X151886207Y-44697247D02*
X151695731Y-44697247D01*
X152314779Y-45125819D02*
X152314779Y-44125819D01*
X152314779Y-44125819D02*
X152886207Y-45125819D01*
X152886207Y-45125819D02*
X152886207Y-44125819D01*
X153362398Y-45125819D02*
X153362398Y-44125819D01*
X153362398Y-44125819D02*
X153600493Y-44125819D01*
X153600493Y-44125819D02*
X153743350Y-44173438D01*
X153743350Y-44173438D02*
X153838588Y-44268676D01*
X153838588Y-44268676D02*
X153886207Y-44363914D01*
X153886207Y-44363914D02*
X153933826Y-44554390D01*
X153933826Y-44554390D02*
X153933826Y-44697247D01*
X153933826Y-44697247D02*
X153886207Y-44887723D01*
X153886207Y-44887723D02*
X153838588Y-44982961D01*
X153838588Y-44982961D02*
X153743350Y-45078200D01*
X153743350Y-45078200D02*
X153600493Y-45125819D01*
X153600493Y-45125819D02*
X153362398Y-45125819D01*
X172886207Y-40125819D02*
X172552874Y-39649628D01*
X172314779Y-40125819D02*
X172314779Y-39125819D01*
X172314779Y-39125819D02*
X172695731Y-39125819D01*
X172695731Y-39125819D02*
X172790969Y-39173438D01*
X172790969Y-39173438D02*
X172838588Y-39221057D01*
X172838588Y-39221057D02*
X172886207Y-39316295D01*
X172886207Y-39316295D02*
X172886207Y-39459152D01*
X172886207Y-39459152D02*
X172838588Y-39554390D01*
X172838588Y-39554390D02*
X172790969Y-39602009D01*
X172790969Y-39602009D02*
X172695731Y-39649628D01*
X172695731Y-39649628D02*
X172314779Y-39649628D01*
X173267160Y-39840104D02*
X173743350Y-39840104D01*
X173171922Y-40125819D02*
X173505255Y-39125819D01*
X173505255Y-39125819D02*
X173838588Y-40125819D01*
X174076684Y-39125819D02*
X174314779Y-40125819D01*
X174314779Y-40125819D02*
X174505255Y-39411533D01*
X174505255Y-39411533D02*
X174695731Y-40125819D01*
X174695731Y-40125819D02*
X174933827Y-39125819D01*
X173338588Y-41673438D02*
X173243350Y-41625819D01*
X173243350Y-41625819D02*
X173100493Y-41625819D01*
X173100493Y-41625819D02*
X172957636Y-41673438D01*
X172957636Y-41673438D02*
X172862398Y-41768676D01*
X172862398Y-41768676D02*
X172814779Y-41863914D01*
X172814779Y-41863914D02*
X172767160Y-42054390D01*
X172767160Y-42054390D02*
X172767160Y-42197247D01*
X172767160Y-42197247D02*
X172814779Y-42387723D01*
X172814779Y-42387723D02*
X172862398Y-42482961D01*
X172862398Y-42482961D02*
X172957636Y-42578200D01*
X172957636Y-42578200D02*
X173100493Y-42625819D01*
X173100493Y-42625819D02*
X173195731Y-42625819D01*
X173195731Y-42625819D02*
X173338588Y-42578200D01*
X173338588Y-42578200D02*
X173386207Y-42530580D01*
X173386207Y-42530580D02*
X173386207Y-42197247D01*
X173386207Y-42197247D02*
X173195731Y-42197247D01*
X173814779Y-42625819D02*
X173814779Y-41625819D01*
X173814779Y-41625819D02*
X174386207Y-42625819D01*
X174386207Y-42625819D02*
X174386207Y-41625819D01*
X174862398Y-42625819D02*
X174862398Y-41625819D01*
X174862398Y-41625819D02*
X175100493Y-41625819D01*
X175100493Y-41625819D02*
X175243350Y-41673438D01*
X175243350Y-41673438D02*
X175338588Y-41768676D01*
X175338588Y-41768676D02*
X175386207Y-41863914D01*
X175386207Y-41863914D02*
X175433826Y-42054390D01*
X175433826Y-42054390D02*
X175433826Y-42197247D01*
X175433826Y-42197247D02*
X175386207Y-42387723D01*
X175386207Y-42387723D02*
X175338588Y-42482961D01*
X175338588Y-42482961D02*
X175243350Y-42578200D01*
X175243350Y-42578200D02*
X175100493Y-42625819D01*
X175100493Y-42625819D02*
X174862398Y-42625819D01*
X173386207Y-45125819D02*
X173052874Y-44649628D01*
X172814779Y-45125819D02*
X172814779Y-44125819D01*
X172814779Y-44125819D02*
X173195731Y-44125819D01*
X173195731Y-44125819D02*
X173290969Y-44173438D01*
X173290969Y-44173438D02*
X173338588Y-44221057D01*
X173338588Y-44221057D02*
X173386207Y-44316295D01*
X173386207Y-44316295D02*
X173386207Y-44459152D01*
X173386207Y-44459152D02*
X173338588Y-44554390D01*
X173338588Y-44554390D02*
X173290969Y-44602009D01*
X173290969Y-44602009D02*
X173195731Y-44649628D01*
X173195731Y-44649628D02*
X172814779Y-44649628D01*
X173767160Y-45078200D02*
X173910017Y-45125819D01*
X173910017Y-45125819D02*
X174148112Y-45125819D01*
X174148112Y-45125819D02*
X174243350Y-45078200D01*
X174243350Y-45078200D02*
X174290969Y-45030580D01*
X174290969Y-45030580D02*
X174338588Y-44935342D01*
X174338588Y-44935342D02*
X174338588Y-44840104D01*
X174338588Y-44840104D02*
X174290969Y-44744866D01*
X174290969Y-44744866D02*
X174243350Y-44697247D01*
X174243350Y-44697247D02*
X174148112Y-44649628D01*
X174148112Y-44649628D02*
X173957636Y-44602009D01*
X173957636Y-44602009D02*
X173862398Y-44554390D01*
X173862398Y-44554390D02*
X173814779Y-44506771D01*
X173814779Y-44506771D02*
X173767160Y-44411533D01*
X173767160Y-44411533D02*
X173767160Y-44316295D01*
X173767160Y-44316295D02*
X173814779Y-44221057D01*
X173814779Y-44221057D02*
X173862398Y-44173438D01*
X173862398Y-44173438D02*
X173957636Y-44125819D01*
X173957636Y-44125819D02*
X174195731Y-44125819D01*
X174195731Y-44125819D02*
X174338588Y-44173438D01*
X174624303Y-44125819D02*
X175195731Y-44125819D01*
X174910017Y-45125819D02*
X174910017Y-44125819D01*
D11*
X139509428Y-138126868D02*
X140109428Y-138126868D01*
X140366571Y-139069725D02*
X139509428Y-139069725D01*
X139509428Y-139069725D02*
X139509428Y-137269725D01*
X139509428Y-137269725D02*
X140366571Y-137269725D01*
X141137999Y-139069725D02*
X141137999Y-137869725D01*
X141137999Y-138212582D02*
X141223713Y-138041153D01*
X141223713Y-138041153D02*
X141309428Y-137955439D01*
X141309428Y-137955439D02*
X141480856Y-137869725D01*
X141480856Y-137869725D02*
X141652285Y-137869725D01*
X143023714Y-137869725D02*
X143023714Y-139326868D01*
X143023714Y-139326868D02*
X142937999Y-139498296D01*
X142937999Y-139498296D02*
X142852285Y-139584011D01*
X142852285Y-139584011D02*
X142680856Y-139669725D01*
X142680856Y-139669725D02*
X142423714Y-139669725D01*
X142423714Y-139669725D02*
X142252285Y-139584011D01*
X143023714Y-138984011D02*
X142852285Y-139069725D01*
X142852285Y-139069725D02*
X142509428Y-139069725D01*
X142509428Y-139069725D02*
X142337999Y-138984011D01*
X142337999Y-138984011D02*
X142252285Y-138898296D01*
X142252285Y-138898296D02*
X142166571Y-138726868D01*
X142166571Y-138726868D02*
X142166571Y-138212582D01*
X142166571Y-138212582D02*
X142252285Y-138041153D01*
X142252285Y-138041153D02*
X142337999Y-137955439D01*
X142337999Y-137955439D02*
X142509428Y-137869725D01*
X142509428Y-137869725D02*
X142852285Y-137869725D01*
X142852285Y-137869725D02*
X143023714Y-137955439D01*
X144137999Y-139069725D02*
X143966570Y-138984011D01*
X143966570Y-138984011D02*
X143880856Y-138898296D01*
X143880856Y-138898296D02*
X143795142Y-138726868D01*
X143795142Y-138726868D02*
X143795142Y-138212582D01*
X143795142Y-138212582D02*
X143880856Y-138041153D01*
X143880856Y-138041153D02*
X143966570Y-137955439D01*
X143966570Y-137955439D02*
X144137999Y-137869725D01*
X144137999Y-137869725D02*
X144395142Y-137869725D01*
X144395142Y-137869725D02*
X144566570Y-137955439D01*
X144566570Y-137955439D02*
X144652285Y-138041153D01*
X144652285Y-138041153D02*
X144737999Y-138212582D01*
X144737999Y-138212582D02*
X144737999Y-138726868D01*
X144737999Y-138726868D02*
X144652285Y-138898296D01*
X144652285Y-138898296D02*
X144566570Y-138984011D01*
X144566570Y-138984011D02*
X144395142Y-139069725D01*
X144395142Y-139069725D02*
X144137999Y-139069725D01*
X145509427Y-139069725D02*
X145509427Y-137269725D01*
X145509427Y-137269725D02*
X145937998Y-137269725D01*
X145937998Y-137269725D02*
X146195141Y-137355439D01*
X146195141Y-137355439D02*
X146366570Y-137526868D01*
X146366570Y-137526868D02*
X146452284Y-137698296D01*
X146452284Y-137698296D02*
X146537998Y-138041153D01*
X146537998Y-138041153D02*
X146537998Y-138298296D01*
X146537998Y-138298296D02*
X146452284Y-138641153D01*
X146452284Y-138641153D02*
X146366570Y-138812582D01*
X146366570Y-138812582D02*
X146195141Y-138984011D01*
X146195141Y-138984011D02*
X145937998Y-139069725D01*
X145937998Y-139069725D02*
X145509427Y-139069725D01*
X148080856Y-139069725D02*
X148080856Y-138126868D01*
X148080856Y-138126868D02*
X147995141Y-137955439D01*
X147995141Y-137955439D02*
X147823713Y-137869725D01*
X147823713Y-137869725D02*
X147480856Y-137869725D01*
X147480856Y-137869725D02*
X147309427Y-137955439D01*
X148080856Y-138984011D02*
X147909427Y-139069725D01*
X147909427Y-139069725D02*
X147480856Y-139069725D01*
X147480856Y-139069725D02*
X147309427Y-138984011D01*
X147309427Y-138984011D02*
X147223713Y-138812582D01*
X147223713Y-138812582D02*
X147223713Y-138641153D01*
X147223713Y-138641153D02*
X147309427Y-138469725D01*
X147309427Y-138469725D02*
X147480856Y-138384011D01*
X147480856Y-138384011D02*
X147909427Y-138384011D01*
X147909427Y-138384011D02*
X148080856Y-138298296D01*
X148852284Y-138984011D02*
X149023712Y-139069725D01*
X149023712Y-139069725D02*
X149366569Y-139069725D01*
X149366569Y-139069725D02*
X149537998Y-138984011D01*
X149537998Y-138984011D02*
X149623712Y-138812582D01*
X149623712Y-138812582D02*
X149623712Y-138726868D01*
X149623712Y-138726868D02*
X149537998Y-138555439D01*
X149537998Y-138555439D02*
X149366569Y-138469725D01*
X149366569Y-138469725D02*
X149109427Y-138469725D01*
X149109427Y-138469725D02*
X148937998Y-138384011D01*
X148937998Y-138384011D02*
X148852284Y-138212582D01*
X148852284Y-138212582D02*
X148852284Y-138126868D01*
X148852284Y-138126868D02*
X148937998Y-137955439D01*
X148937998Y-137955439D02*
X149109427Y-137869725D01*
X149109427Y-137869725D02*
X149366569Y-137869725D01*
X149366569Y-137869725D02*
X149537998Y-137955439D01*
X150395141Y-139069725D02*
X150395141Y-137269725D01*
X151166570Y-139069725D02*
X151166570Y-138126868D01*
X151166570Y-138126868D02*
X151080855Y-137955439D01*
X151080855Y-137955439D02*
X150909427Y-137869725D01*
X150909427Y-137869725D02*
X150652284Y-137869725D01*
X150652284Y-137869725D02*
X150480855Y-137955439D01*
X150480855Y-137955439D02*
X150395141Y-138041153D01*
X154423712Y-139069725D02*
X153823712Y-138212582D01*
X153395141Y-139069725D02*
X153395141Y-137269725D01*
X153395141Y-137269725D02*
X154080855Y-137269725D01*
X154080855Y-137269725D02*
X154252284Y-137355439D01*
X154252284Y-137355439D02*
X154337998Y-137441153D01*
X154337998Y-137441153D02*
X154423712Y-137612582D01*
X154423712Y-137612582D02*
X154423712Y-137869725D01*
X154423712Y-137869725D02*
X154337998Y-138041153D01*
X154337998Y-138041153D02*
X154252284Y-138126868D01*
X154252284Y-138126868D02*
X154080855Y-138212582D01*
X154080855Y-138212582D02*
X153395141Y-138212582D01*
X155880855Y-138984011D02*
X155709427Y-139069725D01*
X155709427Y-139069725D02*
X155366570Y-139069725D01*
X155366570Y-139069725D02*
X155195141Y-138984011D01*
X155195141Y-138984011D02*
X155109427Y-138812582D01*
X155109427Y-138812582D02*
X155109427Y-138126868D01*
X155109427Y-138126868D02*
X155195141Y-137955439D01*
X155195141Y-137955439D02*
X155366570Y-137869725D01*
X155366570Y-137869725D02*
X155709427Y-137869725D01*
X155709427Y-137869725D02*
X155880855Y-137955439D01*
X155880855Y-137955439D02*
X155966570Y-138126868D01*
X155966570Y-138126868D02*
X155966570Y-138298296D01*
X155966570Y-138298296D02*
X155109427Y-138469725D01*
X156566569Y-137869725D02*
X156995141Y-139069725D01*
X156995141Y-139069725D02*
X157423712Y-137869725D01*
X158109427Y-138898296D02*
X158195141Y-138984011D01*
X158195141Y-138984011D02*
X158109427Y-139069725D01*
X158109427Y-139069725D02*
X158023713Y-138984011D01*
X158023713Y-138984011D02*
X158109427Y-138898296D01*
X158109427Y-138898296D02*
X158109427Y-139069725D01*
X161280856Y-139069725D02*
X160252285Y-139069725D01*
X160766570Y-139069725D02*
X160766570Y-137269725D01*
X160766570Y-137269725D02*
X160595142Y-137526868D01*
X160595142Y-137526868D02*
X160423713Y-137698296D01*
X160423713Y-137698296D02*
X160252285Y-137784011D01*
X162052285Y-138898296D02*
X162137999Y-138984011D01*
X162137999Y-138984011D02*
X162052285Y-139069725D01*
X162052285Y-139069725D02*
X161966571Y-138984011D01*
X161966571Y-138984011D02*
X162052285Y-138898296D01*
X162052285Y-138898296D02*
X162052285Y-139069725D01*
X162823714Y-137441153D02*
X162909428Y-137355439D01*
X162909428Y-137355439D02*
X163080857Y-137269725D01*
X163080857Y-137269725D02*
X163509428Y-137269725D01*
X163509428Y-137269725D02*
X163680857Y-137355439D01*
X163680857Y-137355439D02*
X163766571Y-137441153D01*
X163766571Y-137441153D02*
X163852285Y-137612582D01*
X163852285Y-137612582D02*
X163852285Y-137784011D01*
X163852285Y-137784011D02*
X163766571Y-138041153D01*
X163766571Y-138041153D02*
X162737999Y-139069725D01*
X162737999Y-139069725D02*
X163852285Y-139069725D01*
X139380858Y-141881910D02*
X139638001Y-141967624D01*
X139638001Y-141967624D02*
X140066572Y-141967624D01*
X140066572Y-141967624D02*
X140238001Y-141881910D01*
X140238001Y-141881910D02*
X140323715Y-141796195D01*
X140323715Y-141796195D02*
X140409429Y-141624767D01*
X140409429Y-141624767D02*
X140409429Y-141453338D01*
X140409429Y-141453338D02*
X140323715Y-141281910D01*
X140323715Y-141281910D02*
X140238001Y-141196195D01*
X140238001Y-141196195D02*
X140066572Y-141110481D01*
X140066572Y-141110481D02*
X139723715Y-141024767D01*
X139723715Y-141024767D02*
X139552286Y-140939052D01*
X139552286Y-140939052D02*
X139466572Y-140853338D01*
X139466572Y-140853338D02*
X139380858Y-140681910D01*
X139380858Y-140681910D02*
X139380858Y-140510481D01*
X139380858Y-140510481D02*
X139466572Y-140339052D01*
X139466572Y-140339052D02*
X139552286Y-140253338D01*
X139552286Y-140253338D02*
X139723715Y-140167624D01*
X139723715Y-140167624D02*
X140152286Y-140167624D01*
X140152286Y-140167624D02*
X140409429Y-140253338D01*
X141438001Y-141967624D02*
X141266572Y-141881910D01*
X141266572Y-141881910D02*
X141180858Y-141796195D01*
X141180858Y-141796195D02*
X141095144Y-141624767D01*
X141095144Y-141624767D02*
X141095144Y-141110481D01*
X141095144Y-141110481D02*
X141180858Y-140939052D01*
X141180858Y-140939052D02*
X141266572Y-140853338D01*
X141266572Y-140853338D02*
X141438001Y-140767624D01*
X141438001Y-140767624D02*
X141695144Y-140767624D01*
X141695144Y-140767624D02*
X141866572Y-140853338D01*
X141866572Y-140853338D02*
X141952287Y-140939052D01*
X141952287Y-140939052D02*
X142038001Y-141110481D01*
X142038001Y-141110481D02*
X142038001Y-141624767D01*
X142038001Y-141624767D02*
X141952287Y-141796195D01*
X141952287Y-141796195D02*
X141866572Y-141881910D01*
X141866572Y-141881910D02*
X141695144Y-141967624D01*
X141695144Y-141967624D02*
X141438001Y-141967624D01*
X143580858Y-141881910D02*
X143409429Y-141967624D01*
X143409429Y-141967624D02*
X143066572Y-141967624D01*
X143066572Y-141967624D02*
X142895143Y-141881910D01*
X142895143Y-141881910D02*
X142809429Y-141796195D01*
X142809429Y-141796195D02*
X142723715Y-141624767D01*
X142723715Y-141624767D02*
X142723715Y-141110481D01*
X142723715Y-141110481D02*
X142809429Y-140939052D01*
X142809429Y-140939052D02*
X142895143Y-140853338D01*
X142895143Y-140853338D02*
X143066572Y-140767624D01*
X143066572Y-140767624D02*
X143409429Y-140767624D01*
X143409429Y-140767624D02*
X143580858Y-140853338D01*
X144352286Y-141967624D02*
X144352286Y-140167624D01*
X144523715Y-141281910D02*
X145038000Y-141967624D01*
X145038000Y-140767624D02*
X144352286Y-141453338D01*
X146495143Y-141881910D02*
X146323715Y-141967624D01*
X146323715Y-141967624D02*
X145980858Y-141967624D01*
X145980858Y-141967624D02*
X145809429Y-141881910D01*
X145809429Y-141881910D02*
X145723715Y-141710481D01*
X145723715Y-141710481D02*
X145723715Y-141024767D01*
X145723715Y-141024767D02*
X145809429Y-140853338D01*
X145809429Y-140853338D02*
X145980858Y-140767624D01*
X145980858Y-140767624D02*
X146323715Y-140767624D01*
X146323715Y-140767624D02*
X146495143Y-140853338D01*
X146495143Y-140853338D02*
X146580858Y-141024767D01*
X146580858Y-141024767D02*
X146580858Y-141196195D01*
X146580858Y-141196195D02*
X145723715Y-141367624D01*
X147095143Y-140767624D02*
X147780857Y-140767624D01*
X147352286Y-140167624D02*
X147352286Y-141710481D01*
X147352286Y-141710481D02*
X147438000Y-141881910D01*
X147438000Y-141881910D02*
X147609429Y-141967624D01*
X147609429Y-141967624D02*
X147780857Y-141967624D01*
X149066571Y-141881910D02*
X148895143Y-141967624D01*
X148895143Y-141967624D02*
X148552286Y-141967624D01*
X148552286Y-141967624D02*
X148380857Y-141881910D01*
X148380857Y-141881910D02*
X148295143Y-141710481D01*
X148295143Y-141710481D02*
X148295143Y-141024767D01*
X148295143Y-141024767D02*
X148380857Y-140853338D01*
X148380857Y-140853338D02*
X148552286Y-140767624D01*
X148552286Y-140767624D02*
X148895143Y-140767624D01*
X148895143Y-140767624D02*
X149066571Y-140853338D01*
X149066571Y-140853338D02*
X149152286Y-141024767D01*
X149152286Y-141024767D02*
X149152286Y-141196195D01*
X149152286Y-141196195D02*
X148295143Y-141367624D01*
X150695143Y-141967624D02*
X150695143Y-140167624D01*
X150695143Y-141881910D02*
X150523714Y-141967624D01*
X150523714Y-141967624D02*
X150180857Y-141967624D01*
X150180857Y-141967624D02*
X150009428Y-141881910D01*
X150009428Y-141881910D02*
X149923714Y-141796195D01*
X149923714Y-141796195D02*
X149838000Y-141624767D01*
X149838000Y-141624767D02*
X149838000Y-141110481D01*
X149838000Y-141110481D02*
X149923714Y-140939052D01*
X149923714Y-140939052D02*
X150009428Y-140853338D01*
X150009428Y-140853338D02*
X150180857Y-140767624D01*
X150180857Y-140767624D02*
X150523714Y-140767624D01*
X150523714Y-140767624D02*
X150695143Y-140853338D01*
X152923714Y-141967624D02*
X152923714Y-140167624D01*
X152923714Y-140853338D02*
X153095143Y-140767624D01*
X153095143Y-140767624D02*
X153438000Y-140767624D01*
X153438000Y-140767624D02*
X153609428Y-140853338D01*
X153609428Y-140853338D02*
X153695143Y-140939052D01*
X153695143Y-140939052D02*
X153780857Y-141110481D01*
X153780857Y-141110481D02*
X153780857Y-141624767D01*
X153780857Y-141624767D02*
X153695143Y-141796195D01*
X153695143Y-141796195D02*
X153609428Y-141881910D01*
X153609428Y-141881910D02*
X153438000Y-141967624D01*
X153438000Y-141967624D02*
X153095143Y-141967624D01*
X153095143Y-141967624D02*
X152923714Y-141881910D01*
X154380856Y-140767624D02*
X154809428Y-141967624D01*
X155237999Y-140767624D02*
X154809428Y-141967624D01*
X154809428Y-141967624D02*
X154637999Y-142396195D01*
X154637999Y-142396195D02*
X154552285Y-142481910D01*
X154552285Y-142481910D02*
X154380856Y-142567624D01*
X157038000Y-140767624D02*
X157723714Y-140767624D01*
X157295143Y-140167624D02*
X157295143Y-141710481D01*
X157295143Y-141710481D02*
X157380857Y-141881910D01*
X157380857Y-141881910D02*
X157552286Y-141967624D01*
X157552286Y-141967624D02*
X157723714Y-141967624D01*
X158238000Y-141881910D02*
X158409428Y-141967624D01*
X158409428Y-141967624D02*
X158752285Y-141967624D01*
X158752285Y-141967624D02*
X158923714Y-141881910D01*
X158923714Y-141881910D02*
X159009428Y-141710481D01*
X159009428Y-141710481D02*
X159009428Y-141624767D01*
X159009428Y-141624767D02*
X158923714Y-141453338D01*
X158923714Y-141453338D02*
X158752285Y-141367624D01*
X158752285Y-141367624D02*
X158495143Y-141367624D01*
X158495143Y-141367624D02*
X158323714Y-141281910D01*
X158323714Y-141281910D02*
X158238000Y-141110481D01*
X158238000Y-141110481D02*
X158238000Y-141024767D01*
X158238000Y-141024767D02*
X158323714Y-140853338D01*
X158323714Y-140853338D02*
X158495143Y-140767624D01*
X158495143Y-140767624D02*
X158752285Y-140767624D01*
X158752285Y-140767624D02*
X158923714Y-140853338D01*
X160552286Y-140767624D02*
X160552286Y-141967624D01*
X159780857Y-140767624D02*
X159780857Y-141710481D01*
X159780857Y-141710481D02*
X159866571Y-141881910D01*
X159866571Y-141881910D02*
X160038000Y-141967624D01*
X160038000Y-141967624D02*
X160295143Y-141967624D01*
X160295143Y-141967624D02*
X160466571Y-141881910D01*
X160466571Y-141881910D02*
X160552286Y-141796195D01*
X161409428Y-141967624D02*
X161409428Y-140167624D01*
X161409428Y-140853338D02*
X161580857Y-140767624D01*
X161580857Y-140767624D02*
X161923714Y-140767624D01*
X161923714Y-140767624D02*
X162095142Y-140853338D01*
X162095142Y-140853338D02*
X162180857Y-140939052D01*
X162180857Y-140939052D02*
X162266571Y-141110481D01*
X162266571Y-141110481D02*
X162266571Y-141624767D01*
X162266571Y-141624767D02*
X162180857Y-141796195D01*
X162180857Y-141796195D02*
X162095142Y-141881910D01*
X162095142Y-141881910D02*
X161923714Y-141967624D01*
X161923714Y-141967624D02*
X161580857Y-141967624D01*
X161580857Y-141967624D02*
X161409428Y-141881910D01*
X163809428Y-140767624D02*
X163809428Y-141967624D01*
X163037999Y-140767624D02*
X163037999Y-141710481D01*
X163037999Y-141710481D02*
X163123713Y-141881910D01*
X163123713Y-141881910D02*
X163295142Y-141967624D01*
X163295142Y-141967624D02*
X163552285Y-141967624D01*
X163552285Y-141967624D02*
X163723713Y-141881910D01*
X163723713Y-141881910D02*
X163809428Y-141796195D01*
D12*
X105239904Y-138618694D02*
X105239904Y-136618694D01*
X105239904Y-136618694D02*
X105716094Y-136618694D01*
X105716094Y-136618694D02*
X106001809Y-136713932D01*
X106001809Y-136713932D02*
X106192285Y-136904408D01*
X106192285Y-136904408D02*
X106287523Y-137094884D01*
X106287523Y-137094884D02*
X106382761Y-137475836D01*
X106382761Y-137475836D02*
X106382761Y-137761551D01*
X106382761Y-137761551D02*
X106287523Y-138142503D01*
X106287523Y-138142503D02*
X106192285Y-138332979D01*
X106192285Y-138332979D02*
X106001809Y-138523456D01*
X106001809Y-138523456D02*
X105716094Y-138618694D01*
X105716094Y-138618694D02*
X105239904Y-138618694D01*
X108001809Y-138523456D02*
X107811333Y-138618694D01*
X107811333Y-138618694D02*
X107430380Y-138618694D01*
X107430380Y-138618694D02*
X107239904Y-138523456D01*
X107239904Y-138523456D02*
X107144666Y-138332979D01*
X107144666Y-138332979D02*
X107144666Y-137571075D01*
X107144666Y-137571075D02*
X107239904Y-137380598D01*
X107239904Y-137380598D02*
X107430380Y-137285360D01*
X107430380Y-137285360D02*
X107811333Y-137285360D01*
X107811333Y-137285360D02*
X108001809Y-137380598D01*
X108001809Y-137380598D02*
X108097047Y-137571075D01*
X108097047Y-137571075D02*
X108097047Y-137761551D01*
X108097047Y-137761551D02*
X107144666Y-137952027D01*
X108858952Y-138523456D02*
X109049428Y-138618694D01*
X109049428Y-138618694D02*
X109430380Y-138618694D01*
X109430380Y-138618694D02*
X109620857Y-138523456D01*
X109620857Y-138523456D02*
X109716095Y-138332979D01*
X109716095Y-138332979D02*
X109716095Y-138237741D01*
X109716095Y-138237741D02*
X109620857Y-138047265D01*
X109620857Y-138047265D02*
X109430380Y-137952027D01*
X109430380Y-137952027D02*
X109144666Y-137952027D01*
X109144666Y-137952027D02*
X108954190Y-137856789D01*
X108954190Y-137856789D02*
X108858952Y-137666313D01*
X108858952Y-137666313D02*
X108858952Y-137571075D01*
X108858952Y-137571075D02*
X108954190Y-137380598D01*
X108954190Y-137380598D02*
X109144666Y-137285360D01*
X109144666Y-137285360D02*
X109430380Y-137285360D01*
X109430380Y-137285360D02*
X109620857Y-137380598D01*
X110573238Y-138618694D02*
X110573238Y-137285360D01*
X110573238Y-136618694D02*
X110478000Y-136713932D01*
X110478000Y-136713932D02*
X110573238Y-136809170D01*
X110573238Y-136809170D02*
X110668476Y-136713932D01*
X110668476Y-136713932D02*
X110573238Y-136618694D01*
X110573238Y-136618694D02*
X110573238Y-136809170D01*
X112382762Y-137285360D02*
X112382762Y-138904408D01*
X112382762Y-138904408D02*
X112287524Y-139094884D01*
X112287524Y-139094884D02*
X112192286Y-139190122D01*
X112192286Y-139190122D02*
X112001809Y-139285360D01*
X112001809Y-139285360D02*
X111716095Y-139285360D01*
X111716095Y-139285360D02*
X111525619Y-139190122D01*
X112382762Y-138523456D02*
X112192286Y-138618694D01*
X112192286Y-138618694D02*
X111811333Y-138618694D01*
X111811333Y-138618694D02*
X111620857Y-138523456D01*
X111620857Y-138523456D02*
X111525619Y-138428217D01*
X111525619Y-138428217D02*
X111430381Y-138237741D01*
X111430381Y-138237741D02*
X111430381Y-137666313D01*
X111430381Y-137666313D02*
X111525619Y-137475836D01*
X111525619Y-137475836D02*
X111620857Y-137380598D01*
X111620857Y-137380598D02*
X111811333Y-137285360D01*
X111811333Y-137285360D02*
X112192286Y-137285360D01*
X112192286Y-137285360D02*
X112382762Y-137380598D01*
X113335143Y-137285360D02*
X113335143Y-138618694D01*
X113335143Y-137475836D02*
X113430381Y-137380598D01*
X113430381Y-137380598D02*
X113620857Y-137285360D01*
X113620857Y-137285360D02*
X113906572Y-137285360D01*
X113906572Y-137285360D02*
X114097048Y-137380598D01*
X114097048Y-137380598D02*
X114192286Y-137571075D01*
X114192286Y-137571075D02*
X114192286Y-138618694D01*
X115906572Y-138523456D02*
X115716096Y-138618694D01*
X115716096Y-138618694D02*
X115335143Y-138618694D01*
X115335143Y-138618694D02*
X115144667Y-138523456D01*
X115144667Y-138523456D02*
X115049429Y-138332979D01*
X115049429Y-138332979D02*
X115049429Y-137571075D01*
X115049429Y-137571075D02*
X115144667Y-137380598D01*
X115144667Y-137380598D02*
X115335143Y-137285360D01*
X115335143Y-137285360D02*
X115716096Y-137285360D01*
X115716096Y-137285360D02*
X115906572Y-137380598D01*
X115906572Y-137380598D02*
X116001810Y-137571075D01*
X116001810Y-137571075D02*
X116001810Y-137761551D01*
X116001810Y-137761551D02*
X115049429Y-137952027D01*
X117716096Y-138618694D02*
X117716096Y-136618694D01*
X117716096Y-138523456D02*
X117525620Y-138618694D01*
X117525620Y-138618694D02*
X117144667Y-138618694D01*
X117144667Y-138618694D02*
X116954191Y-138523456D01*
X116954191Y-138523456D02*
X116858953Y-138428217D01*
X116858953Y-138428217D02*
X116763715Y-138237741D01*
X116763715Y-138237741D02*
X116763715Y-137666313D01*
X116763715Y-137666313D02*
X116858953Y-137475836D01*
X116858953Y-137475836D02*
X116954191Y-137380598D01*
X116954191Y-137380598D02*
X117144667Y-137285360D01*
X117144667Y-137285360D02*
X117525620Y-137285360D01*
X117525620Y-137285360D02*
X117716096Y-137380598D01*
X104668475Y-141838582D02*
X104668475Y-139838582D01*
X104668475Y-140600486D02*
X104858951Y-140505248D01*
X104858951Y-140505248D02*
X105239904Y-140505248D01*
X105239904Y-140505248D02*
X105430380Y-140600486D01*
X105430380Y-140600486D02*
X105525618Y-140695724D01*
X105525618Y-140695724D02*
X105620856Y-140886201D01*
X105620856Y-140886201D02*
X105620856Y-141457629D01*
X105620856Y-141457629D02*
X105525618Y-141648105D01*
X105525618Y-141648105D02*
X105430380Y-141743344D01*
X105430380Y-141743344D02*
X105239904Y-141838582D01*
X105239904Y-141838582D02*
X104858951Y-141838582D01*
X104858951Y-141838582D02*
X104668475Y-141743344D01*
X106287523Y-140505248D02*
X106763713Y-141838582D01*
X107239904Y-140505248D02*
X106763713Y-141838582D01*
X106763713Y-141838582D02*
X106573237Y-142314772D01*
X106573237Y-142314772D02*
X106477999Y-142410010D01*
X106477999Y-142410010D02*
X106287523Y-142505248D01*
X109811333Y-141838582D02*
X109620857Y-141743344D01*
X109620857Y-141743344D02*
X109525619Y-141648105D01*
X109525619Y-141648105D02*
X109430381Y-141457629D01*
X109430381Y-141457629D02*
X109430381Y-140886201D01*
X109430381Y-140886201D02*
X109525619Y-140695724D01*
X109525619Y-140695724D02*
X109620857Y-140600486D01*
X109620857Y-140600486D02*
X109811333Y-140505248D01*
X109811333Y-140505248D02*
X110097048Y-140505248D01*
X110097048Y-140505248D02*
X110287524Y-140600486D01*
X110287524Y-140600486D02*
X110382762Y-140695724D01*
X110382762Y-140695724D02*
X110478000Y-140886201D01*
X110478000Y-140886201D02*
X110478000Y-141457629D01*
X110478000Y-141457629D02*
X110382762Y-141648105D01*
X110382762Y-141648105D02*
X110287524Y-141743344D01*
X110287524Y-141743344D02*
X110097048Y-141838582D01*
X110097048Y-141838582D02*
X109811333Y-141838582D01*
X111335143Y-141838582D02*
X111335143Y-140505248D01*
X111335143Y-140695724D02*
X111430381Y-140600486D01*
X111430381Y-140600486D02*
X111620857Y-140505248D01*
X111620857Y-140505248D02*
X111906572Y-140505248D01*
X111906572Y-140505248D02*
X112097048Y-140600486D01*
X112097048Y-140600486D02*
X112192286Y-140790963D01*
X112192286Y-140790963D02*
X112192286Y-141838582D01*
X112192286Y-140790963D02*
X112287524Y-140600486D01*
X112287524Y-140600486D02*
X112478000Y-140505248D01*
X112478000Y-140505248D02*
X112763714Y-140505248D01*
X112763714Y-140505248D02*
X112954191Y-140600486D01*
X112954191Y-140600486D02*
X113049429Y-140790963D01*
X113049429Y-140790963D02*
X113049429Y-141838582D01*
X114001810Y-141838582D02*
X114001810Y-139838582D01*
X114192286Y-141076677D02*
X114763715Y-141838582D01*
X114763715Y-140505248D02*
X114001810Y-141267153D01*
X115620858Y-141838582D02*
X115620858Y-139838582D01*
X115620858Y-140600486D02*
X115811334Y-140505248D01*
X115811334Y-140505248D02*
X116192287Y-140505248D01*
X116192287Y-140505248D02*
X116382763Y-140600486D01*
X116382763Y-140600486D02*
X116478001Y-140695724D01*
X116478001Y-140695724D02*
X116573239Y-140886201D01*
X116573239Y-140886201D02*
X116573239Y-141457629D01*
X116573239Y-141457629D02*
X116478001Y-141648105D01*
X116478001Y-141648105D02*
X116382763Y-141743344D01*
X116382763Y-141743344D02*
X116192287Y-141838582D01*
X116192287Y-141838582D02*
X115811334Y-141838582D01*
X115811334Y-141838582D02*
X115620858Y-141743344D01*
X118287525Y-141838582D02*
X118287525Y-139838582D01*
X118287525Y-141743344D02*
X118097049Y-141838582D01*
X118097049Y-141838582D02*
X117716096Y-141838582D01*
X117716096Y-141838582D02*
X117525620Y-141743344D01*
X117525620Y-141743344D02*
X117430382Y-141648105D01*
X117430382Y-141648105D02*
X117335144Y-141457629D01*
X117335144Y-141457629D02*
X117335144Y-140886201D01*
X117335144Y-140886201D02*
X117430382Y-140695724D01*
X117430382Y-140695724D02*
X117525620Y-140600486D01*
X117525620Y-140600486D02*
X117716096Y-140505248D01*
X117716096Y-140505248D02*
X118097049Y-140505248D01*
X118097049Y-140505248D02*
X118287525Y-140600486D01*
D10*
X133858095Y-79242819D02*
X133858095Y-80052342D01*
X133858095Y-80052342D02*
X133905714Y-80147580D01*
X133905714Y-80147580D02*
X133953333Y-80195200D01*
X133953333Y-80195200D02*
X134048571Y-80242819D01*
X134048571Y-80242819D02*
X134239047Y-80242819D01*
X134239047Y-80242819D02*
X134334285Y-80195200D01*
X134334285Y-80195200D02*
X134381904Y-80147580D01*
X134381904Y-80147580D02*
X134429523Y-80052342D01*
X134429523Y-80052342D02*
X134429523Y-79242819D01*
X135429523Y-80242819D02*
X134858095Y-80242819D01*
X135143809Y-80242819D02*
X135143809Y-79242819D01*
X135143809Y-79242819D02*
X135048571Y-79385676D01*
X135048571Y-79385676D02*
X134953333Y-79480914D01*
X134953333Y-79480914D02*
X134858095Y-79528533D01*
X191008095Y-62478819D02*
X191008095Y-63288342D01*
X191008095Y-63288342D02*
X191055714Y-63383580D01*
X191055714Y-63383580D02*
X191103333Y-63431200D01*
X191103333Y-63431200D02*
X191198571Y-63478819D01*
X191198571Y-63478819D02*
X191389047Y-63478819D01*
X191389047Y-63478819D02*
X191484285Y-63431200D01*
X191484285Y-63431200D02*
X191531904Y-63383580D01*
X191531904Y-63383580D02*
X191579523Y-63288342D01*
X191579523Y-63288342D02*
X191579523Y-62478819D01*
X192008095Y-62574057D02*
X192055714Y-62526438D01*
X192055714Y-62526438D02*
X192150952Y-62478819D01*
X192150952Y-62478819D02*
X192389047Y-62478819D01*
X192389047Y-62478819D02*
X192484285Y-62526438D01*
X192484285Y-62526438D02*
X192531904Y-62574057D01*
X192531904Y-62574057D02*
X192579523Y-62669295D01*
X192579523Y-62669295D02*
X192579523Y-62764533D01*
X192579523Y-62764533D02*
X192531904Y-62907390D01*
X192531904Y-62907390D02*
X191960476Y-63478819D01*
X191960476Y-63478819D02*
X192579523Y-63478819D01*
X185039095Y-122168819D02*
X185039095Y-122978342D01*
X185039095Y-122978342D02*
X185086714Y-123073580D01*
X185086714Y-123073580D02*
X185134333Y-123121200D01*
X185134333Y-123121200D02*
X185229571Y-123168819D01*
X185229571Y-123168819D02*
X185420047Y-123168819D01*
X185420047Y-123168819D02*
X185515285Y-123121200D01*
X185515285Y-123121200D02*
X185562904Y-123073580D01*
X185562904Y-123073580D02*
X185610523Y-122978342D01*
X185610523Y-122978342D02*
X185610523Y-122168819D01*
X186515285Y-122502152D02*
X186515285Y-123168819D01*
X186277190Y-122121200D02*
X186039095Y-122835485D01*
X186039095Y-122835485D02*
X186658142Y-122835485D01*
X95758095Y-65018819D02*
X95758095Y-65828342D01*
X95758095Y-65828342D02*
X95805714Y-65923580D01*
X95805714Y-65923580D02*
X95853333Y-65971200D01*
X95853333Y-65971200D02*
X95948571Y-66018819D01*
X95948571Y-66018819D02*
X96139047Y-66018819D01*
X96139047Y-66018819D02*
X96234285Y-65971200D01*
X96234285Y-65971200D02*
X96281904Y-65923580D01*
X96281904Y-65923580D02*
X96329523Y-65828342D01*
X96329523Y-65828342D02*
X96329523Y-65018819D01*
X97281904Y-65018819D02*
X96805714Y-65018819D01*
X96805714Y-65018819D02*
X96758095Y-65495009D01*
X96758095Y-65495009D02*
X96805714Y-65447390D01*
X96805714Y-65447390D02*
X96900952Y-65399771D01*
X96900952Y-65399771D02*
X97139047Y-65399771D01*
X97139047Y-65399771D02*
X97234285Y-65447390D01*
X97234285Y-65447390D02*
X97281904Y-65495009D01*
X97281904Y-65495009D02*
X97329523Y-65590247D01*
X97329523Y-65590247D02*
X97329523Y-65828342D01*
X97329523Y-65828342D02*
X97281904Y-65923580D01*
X97281904Y-65923580D02*
X97234285Y-65971200D01*
X97234285Y-65971200D02*
X97139047Y-66018819D01*
X97139047Y-66018819D02*
X96900952Y-66018819D01*
X96900952Y-66018819D02*
X96805714Y-65971200D01*
X96805714Y-65971200D02*
X96758095Y-65923580D01*
X95758095Y-122422819D02*
X95758095Y-123232342D01*
X95758095Y-123232342D02*
X95805714Y-123327580D01*
X95805714Y-123327580D02*
X95853333Y-123375200D01*
X95853333Y-123375200D02*
X95948571Y-123422819D01*
X95948571Y-123422819D02*
X96139047Y-123422819D01*
X96139047Y-123422819D02*
X96234285Y-123375200D01*
X96234285Y-123375200D02*
X96281904Y-123327580D01*
X96281904Y-123327580D02*
X96329523Y-123232342D01*
X96329523Y-123232342D02*
X96329523Y-122422819D01*
X96710476Y-122422819D02*
X97377142Y-122422819D01*
X97377142Y-122422819D02*
X96948571Y-123422819D01*
X134366095Y-114802819D02*
X134366095Y-115612342D01*
X134366095Y-115612342D02*
X134413714Y-115707580D01*
X134413714Y-115707580D02*
X134461333Y-115755200D01*
X134461333Y-115755200D02*
X134556571Y-115802819D01*
X134556571Y-115802819D02*
X134747047Y-115802819D01*
X134747047Y-115802819D02*
X134842285Y-115755200D01*
X134842285Y-115755200D02*
X134889904Y-115707580D01*
X134889904Y-115707580D02*
X134937523Y-115612342D01*
X134937523Y-115612342D02*
X134937523Y-114802819D01*
X135556571Y-115231390D02*
X135461333Y-115183771D01*
X135461333Y-115183771D02*
X135413714Y-115136152D01*
X135413714Y-115136152D02*
X135366095Y-115040914D01*
X135366095Y-115040914D02*
X135366095Y-114993295D01*
X135366095Y-114993295D02*
X135413714Y-114898057D01*
X135413714Y-114898057D02*
X135461333Y-114850438D01*
X135461333Y-114850438D02*
X135556571Y-114802819D01*
X135556571Y-114802819D02*
X135747047Y-114802819D01*
X135747047Y-114802819D02*
X135842285Y-114850438D01*
X135842285Y-114850438D02*
X135889904Y-114898057D01*
X135889904Y-114898057D02*
X135937523Y-114993295D01*
X135937523Y-114993295D02*
X135937523Y-115040914D01*
X135937523Y-115040914D02*
X135889904Y-115136152D01*
X135889904Y-115136152D02*
X135842285Y-115183771D01*
X135842285Y-115183771D02*
X135747047Y-115231390D01*
X135747047Y-115231390D02*
X135556571Y-115231390D01*
X135556571Y-115231390D02*
X135461333Y-115279009D01*
X135461333Y-115279009D02*
X135413714Y-115326628D01*
X135413714Y-115326628D02*
X135366095Y-115421866D01*
X135366095Y-115421866D02*
X135366095Y-115612342D01*
X135366095Y-115612342D02*
X135413714Y-115707580D01*
X135413714Y-115707580D02*
X135461333Y-115755200D01*
X135461333Y-115755200D02*
X135556571Y-115802819D01*
X135556571Y-115802819D02*
X135747047Y-115802819D01*
X135747047Y-115802819D02*
X135842285Y-115755200D01*
X135842285Y-115755200D02*
X135889904Y-115707580D01*
X135889904Y-115707580D02*
X135937523Y-115612342D01*
X135937523Y-115612342D02*
X135937523Y-115421866D01*
X135937523Y-115421866D02*
X135889904Y-115326628D01*
X135889904Y-115326628D02*
X135842285Y-115279009D01*
X135842285Y-115279009D02*
X135747047Y-115231390D01*
X127635095Y-40126819D02*
X127635095Y-40936342D01*
X127635095Y-40936342D02*
X127682714Y-41031580D01*
X127682714Y-41031580D02*
X127730333Y-41079200D01*
X127730333Y-41079200D02*
X127825571Y-41126819D01*
X127825571Y-41126819D02*
X128016047Y-41126819D01*
X128016047Y-41126819D02*
X128111285Y-41079200D01*
X128111285Y-41079200D02*
X128158904Y-41031580D01*
X128158904Y-41031580D02*
X128206523Y-40936342D01*
X128206523Y-40936342D02*
X128206523Y-40126819D01*
X128730333Y-41126819D02*
X128920809Y-41126819D01*
X128920809Y-41126819D02*
X129016047Y-41079200D01*
X129016047Y-41079200D02*
X129063666Y-41031580D01*
X129063666Y-41031580D02*
X129158904Y-40888723D01*
X129158904Y-40888723D02*
X129206523Y-40698247D01*
X129206523Y-40698247D02*
X129206523Y-40317295D01*
X129206523Y-40317295D02*
X129158904Y-40222057D01*
X129158904Y-40222057D02*
X129111285Y-40174438D01*
X129111285Y-40174438D02*
X129016047Y-40126819D01*
X129016047Y-40126819D02*
X128825571Y-40126819D01*
X128825571Y-40126819D02*
X128730333Y-40174438D01*
X128730333Y-40174438D02*
X128682714Y-40222057D01*
X128682714Y-40222057D02*
X128635095Y-40317295D01*
X128635095Y-40317295D02*
X128635095Y-40555390D01*
X128635095Y-40555390D02*
X128682714Y-40650628D01*
X128682714Y-40650628D02*
X128730333Y-40698247D01*
X128730333Y-40698247D02*
X128825571Y-40745866D01*
X128825571Y-40745866D02*
X129016047Y-40745866D01*
X129016047Y-40745866D02*
X129111285Y-40698247D01*
X129111285Y-40698247D02*
X129158904Y-40650628D01*
X129158904Y-40650628D02*
X129206523Y-40555390D01*
X137448427Y-81788000D02*
G75*
G02*
X131791573Y-81788000I-2828427J0D01*
G01*
X131791573Y-81788000D02*
G75*
G02*
X137448427Y-81788000I2828427J0D01*
G01*
X194598427Y-65024000D02*
G75*
G02*
X188941573Y-65024000I-2828427J0D01*
G01*
X188941573Y-65024000D02*
G75*
G02*
X194598427Y-65024000I2828427J0D01*
G01*
X188629427Y-124714000D02*
G75*
G02*
X182972573Y-124714000I-2828427J0D01*
G01*
X182972573Y-124714000D02*
G75*
G02*
X188629427Y-124714000I2828427J0D01*
G01*
X99348427Y-67564000D02*
G75*
G02*
X93691573Y-67564000I-2828427J0D01*
G01*
X93691573Y-67564000D02*
G75*
G02*
X99348427Y-67564000I2828427J0D01*
G01*
X99348427Y-124968000D02*
G75*
G02*
X93691573Y-124968000I-2828427J0D01*
G01*
X93691573Y-124968000D02*
G75*
G02*
X99348427Y-124968000I2828427J0D01*
G01*
X189992000Y-44704000D02*
X189992000Y-57404000D01*
X189992000Y-57404000D02*
X196342000Y-57404000D01*
X191262000Y-43434000D02*
X191262000Y-44704000D01*
X191262000Y-44704000D02*
X189992000Y-44704000D01*
X195072000Y-43434000D02*
X191262000Y-43434000D01*
X195072000Y-44704000D02*
X195072000Y-43434000D01*
X196342000Y-44704000D02*
X195072000Y-44704000D01*
X196342000Y-57404000D02*
X196342000Y-44704000D01*
X137956427Y-117348000D02*
G75*
G02*
X132299573Y-117348000I-2828427J0D01*
G01*
X132299573Y-117348000D02*
G75*
G02*
X137956427Y-117348000I2828427J0D01*
G01*
X131225427Y-42672000D02*
G75*
G02*
X125568573Y-42672000I-2828427J0D01*
G01*
X125568573Y-42672000D02*
G75*
G02*
X131225427Y-42672000I2828427J0D01*
G01*
X154305000Y-38100000D02*
X156845000Y-38100000D01*
X154305000Y-68580000D02*
X154305000Y-38100000D01*
X156845000Y-38100000D02*
X156845000Y-68580000D01*
X156845000Y-68580000D02*
X154305000Y-68580000D01*
X169545000Y-38100000D02*
X172085000Y-38100000D01*
X169545000Y-68580000D02*
X169545000Y-38100000D01*
X172085000Y-38100000D02*
X172085000Y-68580000D01*
X172085000Y-68580000D02*
X169545000Y-68580000D01*
X203577852Y-151391000D02*
X204417897Y-151876000D01*
X206077076Y-153642218D02*
X206777076Y-152429782D01*
X206427076Y-153036000D02*
X207677742Y-152949782D01*
X206977742Y-154162218D02*
X206427076Y-153036000D01*
X207677742Y-152949782D02*
X206977742Y-154162218D01*
X209336921Y-154716000D02*
X210176966Y-155201000D01*
X96278000Y-57392000D02*
X97678000Y-57392000D01*
X96978000Y-55072000D02*
X96978000Y-54102000D01*
X96978000Y-58432000D02*
X96278000Y-57392000D01*
X96978000Y-61722000D02*
X96978000Y-60752000D01*
X97678000Y-57392000D02*
X96978000Y-58432000D01*
X97678000Y-58432000D02*
X96278000Y-58432000D01*
X96278000Y-76569000D02*
X97678000Y-76569000D01*
X96978000Y-74249000D02*
X96978000Y-73279000D01*
X96978000Y-77609000D02*
X96278000Y-76569000D01*
X96978000Y-80899000D02*
X96978000Y-79929000D01*
X97678000Y-76569000D02*
X96978000Y-77609000D01*
X97678000Y-77609000D02*
X96278000Y-77609000D01*
X95778000Y-95756000D02*
X97178000Y-95756000D01*
X96478000Y-93436000D02*
X96478000Y-92466000D01*
X96478000Y-96796000D02*
X95778000Y-95756000D01*
X96478000Y-100086000D02*
X96478000Y-99116000D01*
X97178000Y-95756000D02*
X96478000Y-96796000D01*
X97178000Y-96796000D02*
X95778000Y-96796000D01*
X96278000Y-114256000D02*
X97678000Y-114256000D01*
X96978000Y-111936000D02*
X96978000Y-110966000D01*
X96978000Y-115296000D02*
X96278000Y-114256000D01*
X96978000Y-118586000D02*
X96978000Y-117616000D01*
X97678000Y-114256000D02*
X96978000Y-115296000D01*
X97678000Y-115296000D02*
X96278000Y-115296000D01*
X115278000Y-56756000D02*
X116678000Y-56756000D01*
X115978000Y-54436000D02*
X115978000Y-53466000D01*
X115978000Y-57796000D02*
X115278000Y-56756000D01*
X115978000Y-61086000D02*
X115978000Y-60116000D01*
X116678000Y-56756000D02*
X115978000Y-57796000D01*
X116678000Y-57796000D02*
X115278000Y-57796000D01*
X115278000Y-76366000D02*
X116678000Y-76366000D01*
X115978000Y-74046000D02*
X115978000Y-73076000D01*
X115978000Y-77406000D02*
X115278000Y-76366000D01*
X115978000Y-80696000D02*
X115978000Y-79726000D01*
X116678000Y-76366000D02*
X115978000Y-77406000D01*
X116678000Y-77406000D02*
X115278000Y-77406000D01*
X115778000Y-94756000D02*
X117178000Y-94756000D01*
X116478000Y-92436000D02*
X116478000Y-91466000D01*
X116478000Y-95796000D02*
X115778000Y-94756000D01*
X116478000Y-99086000D02*
X116478000Y-98116000D01*
X117178000Y-94756000D02*
X116478000Y-95796000D01*
X117178000Y-95796000D02*
X115778000Y-95796000D01*
X115278000Y-114542000D02*
X116678000Y-114542000D01*
X115978000Y-112222000D02*
X115978000Y-111252000D01*
X115978000Y-115582000D02*
X115278000Y-114542000D01*
X115978000Y-118872000D02*
X115978000Y-117902000D01*
X116678000Y-114542000D02*
X115978000Y-115582000D01*
X116678000Y-115582000D02*
X115278000Y-115582000D01*
X121088000Y-62256000D02*
X122058000Y-62256000D01*
X124378000Y-62256000D02*
X125418000Y-61556000D01*
X124378000Y-62956000D02*
X124378000Y-61556000D01*
X125418000Y-61556000D02*
X125418000Y-62956000D01*
X125418000Y-62956000D02*
X124378000Y-62256000D01*
X127738000Y-62256000D02*
X128708000Y-62256000D01*
X120748000Y-81256000D02*
X121718000Y-81256000D01*
X124038000Y-81256000D02*
X125078000Y-80556000D01*
X124038000Y-81956000D02*
X124038000Y-80556000D01*
X125078000Y-80556000D02*
X125078000Y-81956000D01*
X125078000Y-81956000D02*
X124038000Y-81256000D01*
X127398000Y-81256000D02*
X128368000Y-81256000D01*
X121538000Y-100256000D02*
X122508000Y-100256000D01*
X124828000Y-100256000D02*
X125868000Y-99556000D01*
X124828000Y-100956000D02*
X124828000Y-99556000D01*
X125868000Y-99556000D02*
X125868000Y-100956000D01*
X125868000Y-100956000D02*
X124828000Y-100256000D01*
X128188000Y-100256000D02*
X129158000Y-100256000D01*
X134278000Y-106256000D02*
X135678000Y-106256000D01*
X134978000Y-103936000D02*
X134978000Y-102966000D01*
X134978000Y-107296000D02*
X134278000Y-106256000D01*
X134978000Y-110586000D02*
X134978000Y-109616000D01*
X135678000Y-106256000D02*
X134978000Y-107296000D01*
X135678000Y-107296000D02*
X134278000Y-107296000D01*
X135278000Y-54756000D02*
X136678000Y-54756000D01*
X135978000Y-52436000D02*
X135978000Y-51466000D01*
X135978000Y-55796000D02*
X135278000Y-54756000D01*
X135978000Y-59086000D02*
X135978000Y-58116000D01*
X136678000Y-54756000D02*
X135978000Y-55796000D01*
X136678000Y-55796000D02*
X135278000Y-55796000D01*
X153278000Y-75656000D02*
X154678000Y-75656000D01*
X153978000Y-73336000D02*
X153978000Y-72366000D01*
X153978000Y-76696000D02*
X153278000Y-75656000D01*
X153978000Y-79986000D02*
X153978000Y-79016000D01*
X154678000Y-75656000D02*
X153978000Y-76696000D01*
X154678000Y-76696000D02*
X153278000Y-76696000D01*
X140538000Y-98756000D02*
X141508000Y-98756000D01*
X143828000Y-98756000D02*
X144868000Y-98056000D01*
X143828000Y-99456000D02*
X143828000Y-98056000D01*
X144868000Y-98056000D02*
X144868000Y-99456000D01*
X144868000Y-99456000D02*
X143828000Y-98756000D01*
X147188000Y-98756000D02*
X148158000Y-98756000D01*
X173278000Y-58256000D02*
X174678000Y-58256000D01*
X173978000Y-55936000D02*
X173978000Y-54966000D01*
X173978000Y-59296000D02*
X173278000Y-58256000D01*
X173978000Y-62586000D02*
X173978000Y-61616000D01*
X174678000Y-58256000D02*
X173978000Y-59296000D01*
X174678000Y-59296000D02*
X173278000Y-59296000D01*
X153278000Y-91534000D02*
X154678000Y-91534000D01*
X153978000Y-89214000D02*
X153978000Y-88244000D01*
X153978000Y-92574000D02*
X153278000Y-91534000D01*
X153978000Y-95864000D02*
X153978000Y-94894000D01*
X154678000Y-91534000D02*
X153978000Y-92574000D01*
X154678000Y-92574000D02*
X153278000Y-92574000D01*
X172778000Y-109756000D02*
X174178000Y-109756000D01*
X173478000Y-107436000D02*
X173478000Y-106466000D01*
X173478000Y-110796000D02*
X172778000Y-109756000D01*
X173478000Y-114086000D02*
X173478000Y-113116000D01*
X174178000Y-109756000D02*
X173478000Y-110796000D01*
X174178000Y-110796000D02*
X172778000Y-110796000D01*
X178538000Y-64256000D02*
X179508000Y-64256000D01*
X181828000Y-64256000D02*
X182868000Y-63556000D01*
X181828000Y-64956000D02*
X181828000Y-63556000D01*
X182868000Y-63556000D02*
X182868000Y-64956000D01*
X182868000Y-64956000D02*
X181828000Y-64256000D01*
X185188000Y-64256000D02*
X186158000Y-64256000D01*
X171778000Y-75366000D02*
X173178000Y-75366000D01*
X172478000Y-73046000D02*
X172478000Y-72076000D01*
X172478000Y-76406000D02*
X171778000Y-75366000D01*
X172478000Y-79696000D02*
X172478000Y-78726000D01*
X173178000Y-75366000D02*
X172478000Y-76406000D01*
X173178000Y-76406000D02*
X171778000Y-76406000D01*
X172778000Y-92366000D02*
X174178000Y-92366000D01*
X173478000Y-90046000D02*
X173478000Y-89076000D01*
X173478000Y-93406000D02*
X172778000Y-92366000D01*
X173478000Y-96696000D02*
X173478000Y-95726000D01*
X174178000Y-92366000D02*
X173478000Y-93406000D01*
X174178000Y-93406000D02*
X172778000Y-93406000D01*
X178748000Y-103256000D02*
X179718000Y-103256000D01*
X182038000Y-103256000D02*
X183078000Y-102556000D01*
X182038000Y-103956000D02*
X182038000Y-102556000D01*
X183078000Y-102556000D02*
X183078000Y-103956000D01*
X183078000Y-103956000D02*
X182038000Y-103256000D01*
X185398000Y-103256000D02*
X186368000Y-103256000D01*
X191278000Y-74756000D02*
X192678000Y-74756000D01*
X191978000Y-72436000D02*
X191978000Y-71466000D01*
X191978000Y-75796000D02*
X191278000Y-74756000D01*
X191978000Y-79086000D02*
X191978000Y-78116000D01*
X192678000Y-74756000D02*
X191978000Y-75796000D01*
X192678000Y-75796000D02*
X191278000Y-75796000D01*
X192278000Y-89256000D02*
X193678000Y-89256000D01*
X192978000Y-86936000D02*
X192978000Y-85966000D01*
X192978000Y-90296000D02*
X192278000Y-89256000D01*
X192978000Y-93586000D02*
X192978000Y-92616000D01*
X193678000Y-89256000D02*
X192978000Y-90296000D01*
X193678000Y-90296000D02*
X192278000Y-90296000D01*
X191778000Y-102858000D02*
X193178000Y-102858000D01*
X192478000Y-100538000D02*
X192478000Y-99568000D01*
X192478000Y-103898000D02*
X191778000Y-102858000D01*
X192478000Y-107188000D02*
X192478000Y-106218000D01*
X193178000Y-102858000D02*
X192478000Y-103898000D01*
X193178000Y-103898000D02*
X191778000Y-103898000D01*
X189278000Y-117756000D02*
X190678000Y-117756000D01*
X189978000Y-115436000D02*
X189978000Y-114466000D01*
X189978000Y-118796000D02*
X189278000Y-117756000D01*
X189978000Y-122086000D02*
X189978000Y-121116000D01*
X190678000Y-117756000D02*
X189978000Y-118796000D01*
X190678000Y-118796000D02*
X189278000Y-118796000D01*
X82798000Y-124256000D02*
X83768000Y-124256000D01*
X86088000Y-124256000D02*
X87128000Y-123556000D01*
X86088000Y-124956000D02*
X86088000Y-123556000D01*
X87128000Y-123556000D02*
X87128000Y-124956000D01*
X87128000Y-124956000D02*
X86088000Y-124256000D01*
X89448000Y-124256000D02*
X90418000Y-124256000D01*
X115278000Y-129256000D02*
X116678000Y-129256000D01*
X115978000Y-126936000D02*
X115978000Y-125966000D01*
X115978000Y-130296000D02*
X115278000Y-129256000D01*
X115978000Y-133586000D02*
X115978000Y-132616000D01*
X116678000Y-129256000D02*
X115978000Y-130296000D01*
X116678000Y-130296000D02*
X115278000Y-130296000D01*
X121648000Y-137256000D02*
X122618000Y-137256000D01*
X124938000Y-137256000D02*
X125978000Y-136556000D01*
X124938000Y-137956000D02*
X124938000Y-136556000D01*
X125978000Y-136556000D02*
X125978000Y-137956000D01*
X125978000Y-137956000D02*
X124938000Y-137256000D01*
X128298000Y-137256000D02*
X129268000Y-137256000D01*
X174119079Y-120796000D02*
X173279034Y-120311000D01*
X175778258Y-122562218D02*
X176478258Y-121349782D01*
X176478258Y-121349782D02*
X177028924Y-122476000D01*
X177028924Y-122476000D02*
X175778258Y-122562218D01*
X177378924Y-121869782D02*
X176678924Y-123082218D01*
X179878148Y-124121000D02*
X179038103Y-123636000D01*
X186063000Y-135072878D02*
X186548000Y-134232833D01*
X187621782Y-130972988D02*
X188834218Y-131672988D01*
X187708000Y-132223654D02*
X187621782Y-130972988D01*
X188314218Y-132573654D02*
X187101782Y-131873654D01*
X188834218Y-131672988D02*
X187708000Y-132223654D01*
X189388000Y-129313809D02*
X189873000Y-128473764D01*
X134778000Y-126840000D02*
X136178000Y-126840000D01*
X135478000Y-124520000D02*
X135478000Y-123550000D01*
X135478000Y-127880000D02*
X134778000Y-126840000D01*
X135478000Y-131170000D02*
X135478000Y-130200000D01*
X136178000Y-126840000D02*
X135478000Y-127880000D01*
X136178000Y-127880000D02*
X134778000Y-127880000D01*
X140538000Y-78756000D02*
X141508000Y-78756000D01*
X143828000Y-78756000D02*
X144868000Y-78056000D01*
X143828000Y-79456000D02*
X143828000Y-78056000D01*
X144868000Y-78056000D02*
X144868000Y-79456000D01*
X144868000Y-79456000D02*
X143828000Y-78756000D01*
X147188000Y-78756000D02*
X148158000Y-78756000D01*
X159038000Y-81256000D02*
X160008000Y-81256000D01*
X162328000Y-81256000D02*
X163368000Y-80556000D01*
X162328000Y-81956000D02*
X162328000Y-80556000D01*
X163368000Y-80556000D02*
X163368000Y-81956000D01*
X163368000Y-81956000D02*
X162328000Y-81256000D01*
X165688000Y-81256000D02*
X166658000Y-81256000D01*
D13*
G36*
X156728987Y-123418486D02*
G01*
X156738045Y-123466767D01*
X156720687Y-123537255D01*
X156695499Y-123554370D01*
X156657339Y-123520091D01*
X156652953Y-123493062D01*
X156678883Y-123420625D01*
X156695499Y-123405459D01*
X156728987Y-123418486D01*
G37*
G36*
X162684698Y-123559699D02*
G01*
X162686812Y-123639462D01*
X162684163Y-123760936D01*
X162668627Y-123802817D01*
X162635565Y-123770203D01*
X162609402Y-123724554D01*
X162587137Y-123615757D01*
X162609402Y-123554370D01*
X162651607Y-123485841D01*
X162674721Y-123485435D01*
X162684698Y-123559699D01*
G37*
G36*
X162331268Y-123521094D02*
G01*
X162355186Y-123603432D01*
X162370257Y-123706211D01*
X162383853Y-123866780D01*
X162379360Y-123954359D01*
X162357932Y-123965521D01*
X162320727Y-123896842D01*
X162312770Y-123876596D01*
X162273228Y-123708192D01*
X162285246Y-123565164D01*
X162306011Y-123519377D01*
X162331268Y-123521094D01*
G37*
G36*
X156468344Y-123421587D02*
G01*
X156482401Y-123513554D01*
X156482769Y-123533097D01*
X156479238Y-123640829D01*
X156464176Y-123677849D01*
X156430882Y-123658398D01*
X156426041Y-123653644D01*
X156402729Y-123592722D01*
X156398622Y-123502308D01*
X156411732Y-123420198D01*
X156440070Y-123384187D01*
X156440223Y-123384186D01*
X156468344Y-123421587D01*
G37*
G36*
X160148188Y-123774665D02*
G01*
X160256573Y-123796662D01*
X160310368Y-123829056D01*
X160341975Y-123906571D01*
X160304676Y-123952872D01*
X160235744Y-123951945D01*
X160150906Y-123966614D01*
X160080281Y-124019759D01*
X159976037Y-124095307D01*
X159880350Y-124094303D01*
X159808687Y-124017929D01*
X159800309Y-123998334D01*
X159787081Y-123958558D01*
X159971546Y-123958558D01*
X159992819Y-123979831D01*
X160014092Y-123958558D01*
X159992819Y-123937285D01*
X159971546Y-123958558D01*
X159787081Y-123958558D01*
X159769411Y-123905426D01*
X159758816Y-123854385D01*
X159796428Y-123811738D01*
X159891563Y-123783422D01*
X160017668Y-123770658D01*
X160148188Y-123774665D01*
G37*
G36*
X159416104Y-124228154D02*
G01*
X159417153Y-124264604D01*
X159456709Y-124366202D01*
X159554688Y-124447724D01*
X159684422Y-124488942D01*
X159715100Y-124490594D01*
X159819239Y-124476379D01*
X159958945Y-124440169D01*
X160024110Y-124418593D01*
X160147484Y-124377825D01*
X160229885Y-124369442D01*
X160309955Y-124395791D01*
X160394037Y-124441056D01*
X160563911Y-124507103D01*
X160708838Y-124494228D01*
X160840868Y-124400139D01*
X160886469Y-124347332D01*
X160953197Y-124267320D01*
X160983730Y-124250612D01*
X160991982Y-124291737D01*
X160992180Y-124305781D01*
X160955492Y-124406988D01*
X160861804Y-124506330D01*
X160737145Y-124583320D01*
X160607542Y-124617470D01*
X160595836Y-124617741D01*
X160463446Y-124593270D01*
X160336160Y-124535280D01*
X160243889Y-124483716D01*
X160166953Y-124478761D01*
X160065051Y-124514288D01*
X159886008Y-124565383D01*
X159711539Y-124574859D01*
X159556045Y-124548279D01*
X159433928Y-124491205D01*
X159359589Y-124409200D01*
X159347430Y-124307826D01*
X159372013Y-124246602D01*
X159405386Y-124198748D01*
X159416104Y-124228154D01*
G37*
G36*
X160162219Y-119090992D02*
G01*
X160565054Y-119128350D01*
X160822467Y-119173011D01*
X160992171Y-119211160D01*
X161200137Y-119261898D01*
X161431512Y-119321144D01*
X161671442Y-119384819D01*
X161905074Y-119448844D01*
X162117552Y-119509139D01*
X162294024Y-119561625D01*
X162419635Y-119602222D01*
X162479531Y-119626851D01*
X162481764Y-119628720D01*
X162463467Y-119637623D01*
X162396672Y-119625675D01*
X162134482Y-119561784D01*
X161838773Y-119494241D01*
X161525513Y-119426254D01*
X161210674Y-119361031D01*
X160910224Y-119301780D01*
X160640134Y-119251710D01*
X160416374Y-119214028D01*
X160254914Y-119191944D01*
X160222812Y-119188974D01*
X159799959Y-119178943D01*
X159372540Y-119209586D01*
X158956014Y-119277184D01*
X158565837Y-119378013D01*
X158217466Y-119508354D01*
X157926360Y-119664484D01*
X157774839Y-119778328D01*
X157685277Y-119850735D01*
X157652865Y-119860507D01*
X157663242Y-119831589D01*
X157800597Y-119659773D01*
X158010384Y-119505923D01*
X158281388Y-119372375D01*
X158602398Y-119261467D01*
X158962199Y-119175538D01*
X159349579Y-119116924D01*
X159753323Y-119087963D01*
X160162219Y-119090992D01*
G37*
G36*
X167437035Y-125277362D02*
G01*
X167514125Y-125336163D01*
X167517863Y-125425643D01*
X167447798Y-125538831D01*
X167313183Y-125661423D01*
X167173149Y-125745269D01*
X166973982Y-125835158D01*
X166740383Y-125922546D01*
X166497051Y-125998892D01*
X166268688Y-126055654D01*
X166093652Y-126083180D01*
X165962326Y-126092640D01*
X165879892Y-126094146D01*
X165864176Y-126087410D01*
X165920139Y-126068300D01*
X166039758Y-126031581D01*
X166204793Y-125982746D01*
X166374729Y-125933648D01*
X166707730Y-125829121D01*
X166984324Y-125723028D01*
X167198137Y-125618641D01*
X167342797Y-125519231D01*
X167411932Y-125428070D01*
X167417107Y-125398530D01*
X167386282Y-125356716D01*
X167290789Y-125343979D01*
X167126102Y-125360530D01*
X166887693Y-125406583D01*
X166794156Y-125427804D01*
X166546372Y-125492291D01*
X166336791Y-125559941D01*
X166177448Y-125625923D01*
X166080377Y-125685404D01*
X166055633Y-125724338D01*
X166029693Y-125751937D01*
X166012972Y-125745421D01*
X165986349Y-125693157D01*
X166029310Y-125623812D01*
X166130967Y-125547959D01*
X166280431Y-125476171D01*
X166296681Y-125469961D01*
X166519939Y-125397156D01*
X166767869Y-125333381D01*
X167010224Y-125285164D01*
X167216757Y-125259033D01*
X167287041Y-125256213D01*
X167437035Y-125277362D01*
G37*
G36*
X162404232Y-121069945D02*
G01*
X162529070Y-121118044D01*
X162566460Y-121136784D01*
X162693213Y-121218867D01*
X162793719Y-121312646D01*
X162821453Y-121351713D01*
X162860608Y-121439014D01*
X162847141Y-121499592D01*
X162794705Y-121558496D01*
X162667010Y-121633798D01*
X162497166Y-121670944D01*
X162375162Y-121676260D01*
X162332115Y-121660935D01*
X162365636Y-121629294D01*
X162473335Y-121585659D01*
X162558851Y-121559381D01*
X162674278Y-121518889D01*
X162724421Y-121474666D01*
X162729036Y-121416088D01*
X162685159Y-121336377D01*
X162592719Y-121254135D01*
X162566856Y-121237764D01*
X162420815Y-121180610D01*
X162245404Y-121153863D01*
X162059493Y-121154773D01*
X161881955Y-121180589D01*
X161731662Y-121228560D01*
X161627486Y-121295936D01*
X161588297Y-121379964D01*
X161588296Y-121380404D01*
X161605527Y-121455554D01*
X161667169Y-121515328D01*
X161788143Y-121570434D01*
X161907392Y-121609342D01*
X162120122Y-121673484D01*
X161928665Y-121672978D01*
X161793770Y-121668427D01*
X161685897Y-121657632D01*
X161662174Y-121652904D01*
X161589365Y-121602883D01*
X161529021Y-121519565D01*
X161494481Y-121379877D01*
X161538435Y-121259443D01*
X161655611Y-121162554D01*
X161840738Y-121093503D01*
X162088543Y-121056583D01*
X162098510Y-121055911D01*
X162273684Y-121051475D01*
X162404232Y-121069945D01*
G37*
G36*
X158535866Y-121183038D02*
G01*
X158704182Y-121218358D01*
X158813657Y-121280945D01*
X158857968Y-121364249D01*
X158830794Y-121461720D01*
X158725813Y-121566809D01*
X158702614Y-121583060D01*
X158500191Y-121687601D01*
X158254916Y-121767482D01*
X157998684Y-121815679D01*
X157763391Y-121825165D01*
X157660533Y-121812595D01*
X157534462Y-121771783D01*
X157436497Y-121714176D01*
X157426530Y-121704743D01*
X157404545Y-121678181D01*
X157567025Y-121678181D01*
X157569809Y-121685767D01*
X157629862Y-121713101D01*
X157750262Y-121723740D01*
X157908113Y-121718619D01*
X158080518Y-121698675D01*
X158244579Y-121664846D01*
X158272618Y-121657014D01*
X158434458Y-121600692D01*
X158585092Y-121533271D01*
X158704336Y-121465451D01*
X158772005Y-121407935D01*
X158780256Y-121387880D01*
X158742298Y-121341791D01*
X158646270Y-121298439D01*
X158518942Y-121267116D01*
X158402919Y-121256883D01*
X158258940Y-121271483D01*
X158096350Y-121307902D01*
X158051533Y-121321889D01*
X157921267Y-121379067D01*
X157789074Y-121457343D01*
X157673563Y-121542658D01*
X157593343Y-121620957D01*
X157567025Y-121678181D01*
X157404545Y-121678181D01*
X157382959Y-121652101D01*
X157401546Y-121644487D01*
X157418782Y-121649220D01*
X157485655Y-121628912D01*
X157566943Y-121544860D01*
X157579778Y-121526808D01*
X157740196Y-121365752D01*
X157964582Y-121251363D01*
X158242866Y-121188370D01*
X158315031Y-121181534D01*
X158535866Y-121183038D01*
G37*
G36*
X156526847Y-119530231D02*
G01*
X156488772Y-119559266D01*
X156399381Y-119602964D01*
X156267969Y-119655837D01*
X156132146Y-119703248D01*
X155676283Y-119880651D01*
X155200862Y-120116866D01*
X154720467Y-120401196D01*
X154249682Y-120722942D01*
X153803091Y-121071407D01*
X153395276Y-121435892D01*
X153040822Y-121805699D01*
X152754313Y-122170130D01*
X152739154Y-122192250D01*
X152513830Y-122561542D01*
X152352639Y-122909204D01*
X152259186Y-123226687D01*
X152238299Y-123380539D01*
X152237003Y-123637949D01*
X152279527Y-123839535D01*
X152372755Y-124006128D01*
X152484053Y-124124235D01*
X152712306Y-124278511D01*
X152972179Y-124367143D01*
X153240528Y-124383718D01*
X153357071Y-124366143D01*
X153558685Y-124298501D01*
X153804890Y-124179530D01*
X154080260Y-124018223D01*
X154369371Y-123823573D01*
X154639939Y-123618189D01*
X154848278Y-123452021D01*
X154992748Y-123340431D01*
X155074397Y-123282988D01*
X155094277Y-123279259D01*
X155053437Y-123328813D01*
X154952929Y-123431219D01*
X154849884Y-123531939D01*
X154499091Y-123844784D01*
X154154735Y-124099872D01*
X153824647Y-124292650D01*
X153516659Y-124418568D01*
X153238603Y-124473074D01*
X153229698Y-124473621D01*
X153071552Y-124475834D01*
X152933141Y-124466279D01*
X152866353Y-124453149D01*
X152578132Y-124330320D01*
X152365353Y-124173231D01*
X152223016Y-123975358D01*
X152146118Y-123730177D01*
X152128377Y-123490551D01*
X152166279Y-123145607D01*
X152277376Y-122792561D01*
X152463579Y-122427979D01*
X152726799Y-122048431D01*
X153068948Y-121650483D01*
X153266298Y-121447430D01*
X153828894Y-120931612D01*
X154406368Y-120485882D01*
X154993291Y-120113537D01*
X155584234Y-119817871D01*
X156173769Y-119602180D01*
X156411878Y-119538093D01*
X156504314Y-119521344D01*
X156526847Y-119530231D01*
G37*
G36*
X158094443Y-126156462D02*
G01*
X158101388Y-126275031D01*
X158099145Y-126475762D01*
X158087700Y-126757437D01*
X158086704Y-126777218D01*
X158070242Y-127220028D01*
X158068476Y-127603993D01*
X158080984Y-127924733D01*
X158107348Y-128177868D01*
X158147148Y-128359019D01*
X158199967Y-128463805D01*
X158250614Y-128489713D01*
X158318310Y-128473116D01*
X158429676Y-128431089D01*
X158488424Y-128405556D01*
X158651336Y-128355835D01*
X158856397Y-128326363D01*
X159069678Y-128318992D01*
X159257248Y-128335576D01*
X159345862Y-128358743D01*
X159426560Y-128417364D01*
X159517511Y-128523165D01*
X159562697Y-128591963D01*
X159672462Y-128749864D01*
X159784307Y-128837882D01*
X159912332Y-128858124D01*
X160070633Y-128812697D01*
X160273311Y-128703706D01*
X160280644Y-128699218D01*
X160396185Y-128630934D01*
X160480829Y-128585744D01*
X160509221Y-128574806D01*
X160516498Y-128596642D01*
X160468591Y-128652866D01*
X160380357Y-128729550D01*
X160266655Y-128812765D01*
X160229129Y-128837348D01*
X160030844Y-128931200D01*
X159847577Y-128955934D01*
X159692549Y-128910795D01*
X159639237Y-128871005D01*
X159558986Y-128775722D01*
X159478162Y-128649660D01*
X159462953Y-128621193D01*
X159385307Y-128507775D01*
X159299463Y-128438381D01*
X159282096Y-128431940D01*
X159074570Y-128404802D01*
X158836170Y-128416273D01*
X158609969Y-128462863D01*
X158526293Y-128493205D01*
X158376807Y-128550541D01*
X158257918Y-128575102D01*
X158166000Y-128559942D01*
X158097428Y-128498112D01*
X158048577Y-128382668D01*
X158015819Y-128206662D01*
X157995530Y-127963147D01*
X157984084Y-127645177D01*
X157980411Y-127447335D01*
X157977938Y-127015821D01*
X157984711Y-126668885D01*
X158000730Y-126406515D01*
X158025997Y-126228701D01*
X158060511Y-126135432D01*
X158078326Y-126121273D01*
X158094443Y-126156462D01*
G37*
G36*
X164561878Y-119870389D02*
G01*
X164745236Y-119947008D01*
X164949435Y-120045555D01*
X165376136Y-120293069D01*
X165811264Y-120608583D01*
X166239781Y-120978305D01*
X166646649Y-121388443D01*
X167016829Y-121825203D01*
X167268301Y-122172311D01*
X167454697Y-122481668D01*
X167609261Y-122800631D01*
X167726560Y-123113306D01*
X167801159Y-123403799D01*
X167827623Y-123656217D01*
X167818405Y-123781178D01*
X167742944Y-123989602D01*
X167597520Y-124166536D01*
X167392743Y-124307837D01*
X167139227Y-124409366D01*
X166847584Y-124466982D01*
X166528426Y-124476544D01*
X166192367Y-124433912D01*
X166161998Y-124427449D01*
X165978569Y-124379993D01*
X165770360Y-124315846D01*
X165630173Y-124266530D01*
X165403954Y-124169343D01*
X165135421Y-124035750D01*
X164842908Y-123876625D01*
X164544753Y-123702846D01*
X164259293Y-123525289D01*
X164004864Y-123354830D01*
X163799803Y-123202346D01*
X163715600Y-123130895D01*
X163651207Y-123070871D01*
X163620818Y-123037191D01*
X163630720Y-123033049D01*
X163687198Y-123061636D01*
X163796538Y-123126148D01*
X163965028Y-123229775D01*
X164198953Y-123375712D01*
X164204879Y-123379421D01*
X164701034Y-123679400D01*
X165142517Y-123922899D01*
X165536124Y-124112281D01*
X165888654Y-124249906D01*
X166206903Y-124338135D01*
X166497669Y-124379329D01*
X166767748Y-124375849D01*
X166975841Y-124341944D01*
X167263545Y-124254561D01*
X167474663Y-124139615D01*
X167615106Y-123990399D01*
X167690784Y-123800206D01*
X167707608Y-123562327D01*
X167704892Y-123514605D01*
X167645158Y-123189308D01*
X167516113Y-122837046D01*
X167325520Y-122466921D01*
X167081139Y-122088032D01*
X166790731Y-121709482D01*
X166462058Y-121340371D01*
X166102880Y-120989799D01*
X165720960Y-120666867D01*
X165324057Y-120380676D01*
X164919934Y-120140327D01*
X164757978Y-120059050D01*
X164572051Y-119978374D01*
X164446704Y-119943459D01*
X164371853Y-119952659D01*
X164341381Y-119991137D01*
X164312916Y-120022866D01*
X164265204Y-119990833D01*
X164231922Y-119938253D01*
X164265754Y-119880408D01*
X164276784Y-119869089D01*
X164338711Y-119834330D01*
X164430056Y-119833797D01*
X164561878Y-119870389D01*
G37*
G36*
X156463946Y-121819523D02*
G01*
X156442654Y-121854392D01*
X156372400Y-121936592D01*
X156264516Y-122053410D01*
X156145682Y-122176551D01*
X155827104Y-122559440D01*
X155568220Y-122994171D01*
X155378453Y-123463933D01*
X155330921Y-123630325D01*
X155280419Y-123844243D01*
X155256125Y-124005900D01*
X155257394Y-124143780D01*
X155283579Y-124286365D01*
X155313575Y-124394790D01*
X155436292Y-124664580D01*
X155636556Y-124921445D01*
X155907202Y-125160504D01*
X156241067Y-125376881D01*
X156630986Y-125565697D01*
X157069795Y-125722073D01*
X157385921Y-125805885D01*
X157993304Y-125924369D01*
X158662258Y-126014997D01*
X159373300Y-126075808D01*
X160106944Y-126104839D01*
X160377404Y-126107134D01*
X161051342Y-126089275D01*
X161649196Y-126035568D01*
X162172146Y-125945817D01*
X162621372Y-125819828D01*
X162953087Y-125680617D01*
X163224671Y-125507671D01*
X163501608Y-125263297D01*
X163772522Y-124959499D01*
X164026038Y-124608281D01*
X164132590Y-124435958D01*
X164235982Y-124262428D01*
X164323951Y-124119274D01*
X164387692Y-124020502D01*
X164418402Y-123980122D01*
X164419239Y-123979831D01*
X164420300Y-124013908D01*
X164386571Y-124105513D01*
X164326197Y-124238708D01*
X164247322Y-124397555D01*
X164158090Y-124566115D01*
X164066645Y-124728449D01*
X163981131Y-124868619D01*
X163919223Y-124958390D01*
X163790086Y-125111684D01*
X163625050Y-125283857D01*
X163447413Y-125452599D01*
X163280472Y-125595600D01*
X163167483Y-125678274D01*
X162874305Y-125829401D01*
X162507244Y-125957219D01*
X162074575Y-126060562D01*
X161584574Y-126138267D01*
X161045517Y-126189168D01*
X160465681Y-126212103D01*
X159853342Y-126205905D01*
X159524812Y-126190782D01*
X158746484Y-126128230D01*
X158046612Y-126035482D01*
X157423967Y-125912188D01*
X156877319Y-125758001D01*
X156405439Y-125572569D01*
X156007098Y-125355546D01*
X155681066Y-125106581D01*
X155670158Y-125096552D01*
X155420778Y-124820105D01*
X155255268Y-124530043D01*
X155173445Y-124225994D01*
X155163841Y-124075040D01*
X155186319Y-123842922D01*
X155248903Y-123564137D01*
X155344316Y-123262697D01*
X155465281Y-122962615D01*
X155559431Y-122769676D01*
X155646362Y-122628342D01*
X155763337Y-122469435D01*
X155898980Y-122304904D01*
X156041918Y-122146696D01*
X156180776Y-122006761D01*
X156304180Y-121897046D01*
X156400755Y-121829500D01*
X156459128Y-121816071D01*
X156463946Y-121819523D01*
G37*
G36*
X162014182Y-122289503D02*
G01*
X162101206Y-122321795D01*
X162202887Y-122418423D01*
X162277112Y-122570472D01*
X162310818Y-122749500D01*
X162311580Y-122779901D01*
X162297174Y-122901656D01*
X162242724Y-123006779D01*
X162157800Y-123104014D01*
X161991631Y-123247211D01*
X161824530Y-123324655D01*
X161645260Y-123350087D01*
X161535989Y-123364513D01*
X161509623Y-123395854D01*
X161566550Y-123443192D01*
X161598933Y-123459897D01*
X161642066Y-123492231D01*
X161620747Y-123506590D01*
X161554689Y-123497543D01*
X161513328Y-123483476D01*
X161449767Y-123430084D01*
X161368690Y-123327957D01*
X161288671Y-123205417D01*
X161228285Y-123090789D01*
X161206022Y-123014879D01*
X161224918Y-122906215D01*
X161235714Y-122872423D01*
X161447736Y-122872423D01*
X161452632Y-122937904D01*
X161498950Y-122997017D01*
X161591925Y-123070745D01*
X161677103Y-123078208D01*
X161759693Y-123043168D01*
X161817902Y-122983928D01*
X161801138Y-122920903D01*
X161717644Y-122868086D01*
X161644830Y-122848186D01*
X161514001Y-122840273D01*
X161447736Y-122872423D01*
X161235714Y-122872423D01*
X161272168Y-122758316D01*
X161300691Y-122690087D01*
X161471990Y-122690087D01*
X161498008Y-122729001D01*
X161596549Y-122754901D01*
X161617569Y-122757390D01*
X161726108Y-122769933D01*
X161791366Y-122779855D01*
X161796984Y-122781389D01*
X161785342Y-122759997D01*
X161735513Y-122701576D01*
X161646838Y-122642313D01*
X161551920Y-122630789D01*
X161482985Y-122668408D01*
X161471990Y-122690087D01*
X161300691Y-122690087D01*
X161335538Y-122606732D01*
X161350126Y-122578272D01*
X161752072Y-122578272D01*
X161784464Y-122660283D01*
X161829859Y-122753091D01*
X161891963Y-122889253D01*
X161912783Y-122977465D01*
X161897193Y-123041263D01*
X161891561Y-123050913D01*
X161870889Y-123113438D01*
X161902403Y-123130900D01*
X161966578Y-123104039D01*
X162033490Y-123045519D01*
X162087077Y-122930467D01*
X162078939Y-122796984D01*
X162020679Y-122669811D01*
X161923895Y-122573693D01*
X161800191Y-122533372D01*
X161793316Y-122533265D01*
X161755974Y-122541655D01*
X161752072Y-122578272D01*
X161350126Y-122578272D01*
X161368910Y-122541624D01*
X161467332Y-122432248D01*
X161653887Y-122432248D01*
X161706833Y-122445153D01*
X161782974Y-122447521D01*
X161958921Y-122484447D01*
X162088401Y-122592005D01*
X162168199Y-122767268D01*
X162193627Y-122843152D01*
X162211794Y-122838895D01*
X162217667Y-122817085D01*
X162220876Y-122711344D01*
X162210629Y-122646054D01*
X162138348Y-122504902D01*
X162017222Y-122406295D01*
X161871220Y-122360960D01*
X161724310Y-122379623D01*
X161673389Y-122405626D01*
X161653887Y-122432248D01*
X161467332Y-122432248D01*
X161483208Y-122414605D01*
X161647980Y-122324503D01*
X161834536Y-122279932D01*
X162014182Y-122289503D01*
G37*
G36*
X158402843Y-122140089D02*
G01*
X158443990Y-122176565D01*
X158524326Y-122319425D01*
X158582440Y-122513005D01*
X158608799Y-122723881D01*
X158609431Y-122756631D01*
X158601889Y-122885997D01*
X158567219Y-122981045D01*
X158488869Y-123078928D01*
X158446536Y-123122262D01*
X158292453Y-123238693D01*
X158115057Y-123315068D01*
X157936112Y-123347517D01*
X157777382Y-123332173D01*
X157660632Y-123265165D01*
X157658091Y-123262410D01*
X157595965Y-123156647D01*
X157682740Y-123156647D01*
X157748514Y-123210594D01*
X157835335Y-123247404D01*
X157920249Y-123242236D01*
X158028319Y-123189658D01*
X158118644Y-123130388D01*
X158228444Y-123046082D01*
X158252589Y-123022544D01*
X158397342Y-123022544D01*
X158418615Y-123043817D01*
X158439888Y-123022544D01*
X158418615Y-123001271D01*
X158397342Y-123022544D01*
X158252589Y-123022544D01*
X158306429Y-122970058D01*
X158327068Y-122938930D01*
X158328582Y-122913234D01*
X158456360Y-122913234D01*
X158473140Y-122928849D01*
X158484637Y-122914070D01*
X158513816Y-122827183D01*
X158524328Y-122728267D01*
X158517180Y-122643956D01*
X158499289Y-122633016D01*
X158477946Y-122685658D01*
X158460440Y-122792094D01*
X158458190Y-122817076D01*
X158456360Y-122913234D01*
X158328582Y-122913234D01*
X158330378Y-122882742D01*
X158289696Y-122882582D01*
X158228964Y-122935276D01*
X158137834Y-122999918D01*
X157993992Y-123055837D01*
X157829763Y-123091220D01*
X157791060Y-123095331D01*
X157695792Y-123116628D01*
X157682740Y-123156647D01*
X157595965Y-123156647D01*
X157571170Y-123114437D01*
X157524528Y-122925724D01*
X157525817Y-122819355D01*
X157720086Y-122819355D01*
X157731990Y-122894906D01*
X157793203Y-122948462D01*
X157903248Y-122951007D01*
X158042651Y-122902275D01*
X158048550Y-122899262D01*
X158165005Y-122821877D01*
X158246839Y-122747753D01*
X158300044Y-122677656D01*
X158293479Y-122635941D01*
X158268012Y-122616411D01*
X158154732Y-122579473D01*
X158009341Y-122600163D01*
X157906097Y-122637709D01*
X157771574Y-122719944D01*
X157720086Y-122819355D01*
X157525817Y-122819355D01*
X157526756Y-122741845D01*
X157582168Y-122583248D01*
X157620462Y-122528017D01*
X157765451Y-122528017D01*
X157778104Y-122558622D01*
X157847794Y-122549099D01*
X157849846Y-122548366D01*
X157953986Y-122526221D01*
X158096758Y-122513534D01*
X158153840Y-122512337D01*
X158279728Y-122506471D01*
X158337464Y-122484684D01*
X158344930Y-122448518D01*
X158297670Y-122402530D01*
X158196027Y-122376785D01*
X158068747Y-122373349D01*
X157944575Y-122394289D01*
X157890149Y-122415822D01*
X157804558Y-122474633D01*
X157765451Y-122528017D01*
X157620462Y-122528017D01*
X157686175Y-122433240D01*
X157823569Y-122301195D01*
X157979141Y-122196485D01*
X158137682Y-122128482D01*
X158283986Y-122106559D01*
X158402843Y-122140089D01*
G37*
G36*
X164944059Y-125152230D02*
G01*
X165146246Y-125218425D01*
X165260886Y-125283414D01*
X165419141Y-125436018D01*
X165569426Y-125660724D01*
X165707118Y-125944609D01*
X165827594Y-126274748D01*
X165926232Y-126638219D01*
X165998407Y-127022096D01*
X166039499Y-127413457D01*
X166042532Y-127468608D01*
X166051508Y-127686649D01*
X166052062Y-127841204D01*
X166042032Y-127953645D01*
X166019256Y-128045348D01*
X165981568Y-128137687D01*
X165972945Y-128156215D01*
X165840282Y-128362433D01*
X165662646Y-128503945D01*
X165431231Y-128586154D01*
X165231186Y-128611386D01*
X165040941Y-128613313D01*
X164810657Y-128602636D01*
X164584079Y-128581597D01*
X164540581Y-128576006D01*
X164357402Y-128551983D01*
X164235581Y-128541921D01*
X164152177Y-128548212D01*
X164084245Y-128573247D01*
X164008842Y-128619414D01*
X163987482Y-128633640D01*
X163858943Y-128747763D01*
X163754496Y-128888411D01*
X163739879Y-128916358D01*
X163659435Y-129045925D01*
X163544627Y-129186679D01*
X163474917Y-129257157D01*
X163312827Y-129378593D01*
X163174422Y-129424038D01*
X163063829Y-129392368D01*
X163043372Y-129374672D01*
X163001695Y-129291631D01*
X162995013Y-129236397D01*
X162999791Y-129178604D01*
X163016019Y-129196548D01*
X163036188Y-129244906D01*
X163101885Y-129325372D01*
X163198972Y-129334001D01*
X163319167Y-129274238D01*
X163454191Y-129149526D01*
X163548421Y-129031911D01*
X163620320Y-128927438D01*
X163665351Y-128851965D01*
X163673054Y-128831560D01*
X163634634Y-128825235D01*
X163532627Y-128833614D01*
X163386909Y-128854839D01*
X163343322Y-128862410D01*
X163200591Y-128879765D01*
X163005619Y-128891642D01*
X162770033Y-128898426D01*
X162505459Y-128900505D01*
X162223524Y-128898264D01*
X161935852Y-128892091D01*
X161654072Y-128882371D01*
X161389808Y-128869492D01*
X161154688Y-128853840D01*
X160960338Y-128835801D01*
X160818383Y-128815762D01*
X160740451Y-128794109D01*
X160732283Y-128775610D01*
X160791944Y-128762042D01*
X160935894Y-128756061D01*
X161163668Y-128757664D01*
X161474803Y-128766849D01*
X161809030Y-128780826D01*
X162247729Y-128797910D01*
X162612742Y-128804735D01*
X162914912Y-128800800D01*
X163165083Y-128785601D01*
X163374100Y-128758634D01*
X163552806Y-128719396D01*
X163630303Y-128696283D01*
X163738459Y-128649176D01*
X163808545Y-128597025D01*
X163813442Y-128590061D01*
X163875977Y-128538126D01*
X163904308Y-128532260D01*
X163981822Y-128513695D01*
X164072010Y-128474744D01*
X164146496Y-128446231D01*
X164236334Y-128438593D01*
X164366578Y-128451695D01*
X164491698Y-128472506D01*
X164798139Y-128513946D01*
X165086756Y-128527899D01*
X165334278Y-128513984D01*
X165467125Y-128488443D01*
X165633635Y-128403089D01*
X165783330Y-128255719D01*
X165895660Y-128069327D01*
X165931283Y-127969083D01*
X165963856Y-127744673D01*
X165960550Y-127464905D01*
X165925748Y-127147647D01*
X165863835Y-126810766D01*
X165779193Y-126472131D01*
X165676206Y-126149610D01*
X165559259Y-125861070D01*
X165432734Y-125624380D01*
X165319632Y-125475949D01*
X165152906Y-125328770D01*
X164984007Y-125246032D01*
X164779400Y-125213231D01*
X164706908Y-125210970D01*
X164575306Y-125207546D01*
X164519180Y-125198948D01*
X164528941Y-125182027D01*
X164566521Y-125164892D01*
X164740066Y-125132551D01*
X164944059Y-125152230D01*
G37*
D14*
X87195000Y-55275500D02*
X82095000Y-55275500D01*
X91095000Y-51075500D02*
X85995000Y-51075500D01*
X87195000Y-55275500D02*
G75*
G02*
X89195000Y-57275500I1J-1999999D01*
G01*
X91095000Y-51075500D02*
G75*
G02*
X93095000Y-53075500I1J-1999999D01*
G01*
X87195000Y-74325500D02*
X82095000Y-74325500D01*
X91095000Y-70125500D02*
X85995000Y-70125500D01*
X87195000Y-74325500D02*
G75*
G02*
X89195000Y-76325500I1J-1999999D01*
G01*
X91095000Y-70125500D02*
G75*
G02*
X93095000Y-72125500I1J-1999999D01*
G01*
X87195000Y-93375500D02*
X82095000Y-93375500D01*
X91095000Y-89175500D02*
X85995000Y-89175500D01*
X87195000Y-93375500D02*
G75*
G02*
X89195000Y-95375500I1J-1999999D01*
G01*
X91095000Y-89175500D02*
G75*
G02*
X93095000Y-91175500I1J-1999999D01*
G01*
X87195000Y-112425500D02*
X82095000Y-112425500D01*
X91095000Y-108225500D02*
X85995000Y-108225500D01*
X87195000Y-112425500D02*
G75*
G02*
X89195000Y-114425500I1J-1999999D01*
G01*
X91095000Y-108225500D02*
G75*
G02*
X93095000Y-110225500I1J-1999999D01*
G01*
X106245000Y-55275500D02*
X101145000Y-55275500D01*
X110145000Y-51075500D02*
X105045000Y-51075500D01*
X106245000Y-55275500D02*
G75*
G02*
X108245000Y-57275500I1J-1999999D01*
G01*
X110145000Y-51075500D02*
G75*
G02*
X112145000Y-53075500I1J-1999999D01*
G01*
X106245000Y-74325500D02*
X101145000Y-74325500D01*
X110145000Y-70125500D02*
X105045000Y-70125500D01*
X106245000Y-74325500D02*
G75*
G02*
X108245000Y-76325500I1J-1999999D01*
G01*
X110145000Y-70125500D02*
G75*
G02*
X112145000Y-72125500I1J-1999999D01*
G01*
X106245000Y-93375500D02*
X101145000Y-93375500D01*
X110145000Y-89175500D02*
X105045000Y-89175500D01*
X106245000Y-93375500D02*
G75*
G02*
X108245000Y-95375500I1J-1999999D01*
G01*
X110145000Y-89175500D02*
G75*
G02*
X112145000Y-91175500I1J-1999999D01*
G01*
X106245000Y-112425500D02*
X101145000Y-112425500D01*
X110145000Y-108225500D02*
X105045000Y-108225500D01*
X106245000Y-112425500D02*
G75*
G02*
X108245000Y-114425500I1J-1999999D01*
G01*
X110145000Y-108225500D02*
G75*
G02*
X112145000Y-110225500I1J-1999999D01*
G01*
X125295000Y-50513000D02*
X120195000Y-50513000D01*
X129195000Y-46313000D02*
X124095000Y-46313000D01*
X125295000Y-50513000D02*
G75*
G02*
X127295000Y-52513000I1J-1999999D01*
G01*
X129195000Y-46313000D02*
G75*
G02*
X131195000Y-48313000I1J-1999999D01*
G01*
X125295000Y-69563000D02*
X120195000Y-69563000D01*
X129195000Y-65363000D02*
X124095000Y-65363000D01*
X125295000Y-69563000D02*
G75*
G02*
X127295000Y-71563000I1J-1999999D01*
G01*
X129195000Y-65363000D02*
G75*
G02*
X131195000Y-67363000I1J-1999999D01*
G01*
X125295000Y-88613000D02*
X120195000Y-88613000D01*
X129195000Y-84413000D02*
X124095000Y-84413000D01*
X125295000Y-88613000D02*
G75*
G02*
X127295000Y-90613000I1J-1999999D01*
G01*
X129195000Y-84413000D02*
G75*
G02*
X131195000Y-86413000I1J-1999999D01*
G01*
X125295000Y-107663000D02*
X120195000Y-107663000D01*
X129195000Y-103463000D02*
X124095000Y-103463000D01*
X125295000Y-107663000D02*
G75*
G02*
X127295000Y-109663000I1J-1999999D01*
G01*
X129195000Y-103463000D02*
G75*
G02*
X131195000Y-105463000I1J-1999999D01*
G01*
X144345000Y-48131750D02*
X139245000Y-48131750D01*
X148245000Y-43931750D02*
X143145000Y-43931750D01*
X144345000Y-48131750D02*
G75*
G02*
X146345000Y-50131750I1J-1999999D01*
G01*
X148245000Y-43931750D02*
G75*
G02*
X150245000Y-45931750I1J-1999999D01*
G01*
X144345000Y-67181750D02*
X139245000Y-67181750D01*
X148245000Y-62981750D02*
X143145000Y-62981750D01*
X144345000Y-67181750D02*
G75*
G02*
X146345000Y-69181750I1J-1999999D01*
G01*
X148245000Y-62981750D02*
G75*
G02*
X150245000Y-64981750I1J-1999999D01*
G01*
X144345000Y-86231750D02*
X139245000Y-86231750D01*
X148245000Y-82031750D02*
X143145000Y-82031750D01*
X144345000Y-86231750D02*
G75*
G02*
X146345000Y-88231750I1J-1999999D01*
G01*
X148245000Y-82031750D02*
G75*
G02*
X150245000Y-84031750I1J-1999999D01*
G01*
X144345000Y-105281750D02*
X139245000Y-105281750D01*
X148245000Y-101081750D02*
X143145000Y-101081750D01*
X144345000Y-105281750D02*
G75*
G02*
X146345000Y-107281750I1J-1999999D01*
G01*
X148245000Y-101081750D02*
G75*
G02*
X150245000Y-103081750I1J-1999999D01*
G01*
X156295000Y-49113000D02*
X156295000Y-54213000D01*
X160495000Y-53013000D02*
X160495000Y-58113000D01*
X156295000Y-49113000D02*
G75*
G02*
X158295000Y-47113000I1999999J1D01*
G01*
X160495000Y-53013000D02*
G75*
G02*
X162495000Y-51013000I1999999J1D01*
G01*
X156295000Y-68163000D02*
X156295000Y-73263000D01*
X160495000Y-72063000D02*
X160495000Y-77163000D01*
X156295000Y-68163000D02*
G75*
G02*
X158295000Y-66163000I1999999J1D01*
G01*
X160495000Y-72063000D02*
G75*
G02*
X162495000Y-70063000I1999999J1D01*
G01*
X163395000Y-88613000D02*
X158295000Y-88613000D01*
X167295000Y-84413000D02*
X162195000Y-84413000D01*
X163395000Y-88613000D02*
G75*
G02*
X165395000Y-90613000I1J-1999999D01*
G01*
X167295000Y-84413000D02*
G75*
G02*
X169295000Y-86413000I1J-1999999D01*
G01*
X163395000Y-107663000D02*
X158295000Y-107663000D01*
X167295000Y-103463000D02*
X162195000Y-103463000D01*
X163395000Y-107663000D02*
G75*
G02*
X165395000Y-109663000I1J-1999999D01*
G01*
X167295000Y-103463000D02*
G75*
G02*
X169295000Y-105463000I1J-1999999D01*
G01*
X182445000Y-52894250D02*
X177345000Y-52894250D01*
X186345000Y-48694250D02*
X181245000Y-48694250D01*
X182445000Y-52894250D02*
G75*
G02*
X184445000Y-54894250I1J-1999999D01*
G01*
X186345000Y-48694250D02*
G75*
G02*
X188345000Y-50694250I1J-1999999D01*
G01*
X182445000Y-71944250D02*
X177345000Y-71944250D01*
X186345000Y-67744250D02*
X181245000Y-67744250D01*
X182445000Y-71944250D02*
G75*
G02*
X184445000Y-73944250I1J-1999999D01*
G01*
X186345000Y-67744250D02*
G75*
G02*
X188345000Y-69744250I1J-1999999D01*
G01*
X182445000Y-90994250D02*
X177345000Y-90994250D01*
X186345000Y-86794250D02*
X181245000Y-86794250D01*
X182445000Y-90994250D02*
G75*
G02*
X184445000Y-92994250I1J-1999999D01*
G01*
X186345000Y-86794250D02*
G75*
G02*
X188345000Y-88794250I1J-1999999D01*
G01*
X182445000Y-110044250D02*
X177345000Y-110044250D01*
X186345000Y-105844250D02*
X181245000Y-105844250D01*
X182445000Y-110044250D02*
G75*
G02*
X184445000Y-112044250I1J-1999999D01*
G01*
X186345000Y-105844250D02*
G75*
G02*
X188345000Y-107844250I1J-1999999D01*
G01*
X201495000Y-62419250D02*
X196395000Y-62419250D01*
X205395000Y-58219250D02*
X200295000Y-58219250D01*
X201495000Y-62419250D02*
G75*
G02*
X203495000Y-64419250I1J-1999999D01*
G01*
X205395000Y-58219250D02*
G75*
G02*
X207395000Y-60219250I1J-1999999D01*
G01*
X201495000Y-81469250D02*
X196395000Y-81469250D01*
X205395000Y-77269250D02*
X200295000Y-77269250D01*
X201495000Y-81469250D02*
G75*
G02*
X203495000Y-83469250I1J-1999999D01*
G01*
X205395000Y-77269250D02*
G75*
G02*
X207395000Y-79269250I1J-1999999D01*
G01*
X201495000Y-100519250D02*
X196395000Y-100519250D01*
X205395000Y-96319250D02*
X200295000Y-96319250D01*
X201495000Y-100519250D02*
G75*
G02*
X203495000Y-102519250I1J-1999999D01*
G01*
X205395000Y-96319250D02*
G75*
G02*
X207395000Y-98319250I1J-1999999D01*
G01*
X192289425Y-127101596D02*
X194839425Y-131518325D01*
X197876731Y-128379095D02*
X200426731Y-132795824D01*
X192289425Y-127101596D02*
G75*
G02*
X193021476Y-124369545I1732051J1000000D01*
G01*
X197876731Y-128379095D02*
G75*
G02*
X198608782Y-125647044I1732050J1000000D01*
G01*
X87195000Y-131475500D02*
X82095000Y-131475500D01*
X91095000Y-127275500D02*
X85995000Y-127275500D01*
X87195000Y-131475500D02*
G75*
G02*
X89195000Y-133475500I1J-1999999D01*
G01*
X91095000Y-127275500D02*
G75*
G02*
X93095000Y-129275500I1J-1999999D01*
G01*
X106245000Y-131475500D02*
X101145000Y-131475500D01*
X110145000Y-127275500D02*
X105045000Y-127275500D01*
X106245000Y-131475500D02*
G75*
G02*
X108245000Y-133475500I1J-1999999D01*
G01*
X110145000Y-127275500D02*
G75*
G02*
X112145000Y-129275500I1J-1999999D01*
G01*
X125295000Y-126713000D02*
X120195000Y-126713000D01*
X129195000Y-122513000D02*
X124095000Y-122513000D01*
X125295000Y-126713000D02*
G75*
G02*
X127295000Y-128713000I1J-1999999D01*
G01*
X129195000Y-122513000D02*
G75*
G02*
X131195000Y-124513000I1J-1999999D01*
G01*
X144345000Y-124331750D02*
X139245000Y-124331750D01*
X148245000Y-120131750D02*
X143145000Y-120131750D01*
X144345000Y-124331750D02*
G75*
G02*
X146345000Y-126331750I1J-1999999D01*
G01*
X148245000Y-120131750D02*
G75*
G02*
X150245000Y-122131750I1J-1999999D01*
G01*
X176730269Y-132998455D02*
X174180269Y-128581726D01*
X182317575Y-134275954D02*
X179767575Y-129859225D01*
X176730269Y-132998455D02*
G75*
G02*
X175998218Y-135730506I-1732050J-1000000D01*
G01*
X182317575Y-134275954D02*
G75*
G02*
X181585524Y-137008005I-1732051J-1000000D01*
G01*
X189613205Y-141262031D02*
X185196476Y-143812031D01*
X190890704Y-135674725D02*
X186473975Y-138224725D01*
X189613205Y-141262031D02*
G75*
G02*
X192345256Y-141994082I1000000J-1732050D01*
G01*
X190890704Y-135674725D02*
G75*
G02*
X193622755Y-136406776I1000000J-1732051D01*
G01*
X204024925Y-144875596D02*
X206574925Y-149292325D01*
X209612231Y-146153095D02*
X212162231Y-150569824D01*
X204024925Y-144875596D02*
G75*
G02*
X204756976Y-142143545I1732051J1000000D01*
G01*
X209612231Y-146153095D02*
G75*
G02*
X210344282Y-143421044I1732050J1000000D01*
G01*
D15*
X197072000Y-46204000D03*
X193072000Y-46204000D03*
X197072000Y-53204000D03*
X193072000Y-53204000D03*
D16*
X195072000Y-55004000D03*
X195072000Y-48004000D03*
X195072000Y-51004000D03*
X191072000Y-56504000D03*
X199072000Y-56504000D03*
D17*
X155575000Y-39370000D03*
X155575000Y-41910000D03*
X155575000Y-44450000D03*
X155575000Y-46990000D03*
X155575000Y-49530000D03*
X155575000Y-52070000D03*
X155575000Y-54610000D03*
X155575000Y-57150000D03*
X155575000Y-59690000D03*
X155575000Y-62230000D03*
X155575000Y-64770000D03*
X155575000Y-67310000D03*
X170815000Y-67310000D03*
X170815000Y-64770000D03*
X170815000Y-62230000D03*
X170815000Y-59690000D03*
X170815000Y-57150000D03*
X170815000Y-54610000D03*
X170815000Y-52070000D03*
X170815000Y-49530000D03*
X170815000Y-46990000D03*
X170815000Y-44450000D03*
X170815000Y-41910000D03*
X170815000Y-39370000D03*
%LPC*%
X141518000Y-39624000D03*
X146518000Y-39624000D03*
D18*
X140518000Y-42124000D03*
X147518000Y-42124000D03*
D19*
X134620000Y-81788000D03*
X191770000Y-65024000D03*
X185801000Y-124714000D03*
X96520000Y-67564000D03*
X96520000Y-124968000D03*
D15*
X197072000Y-46204000D03*
X193072000Y-46204000D03*
X197072000Y-53204000D03*
X193072000Y-53204000D03*
D16*
X195072000Y-55004000D03*
X195072000Y-48004000D03*
X195072000Y-51004000D03*
X191072000Y-56504000D03*
X199072000Y-56504000D03*
D19*
X135128000Y-117348000D03*
X128397000Y-42672000D03*
D17*
X155575000Y-39370000D03*
X155575000Y-41910000D03*
X155575000Y-44450000D03*
X155575000Y-46990000D03*
X155575000Y-49530000D03*
X155575000Y-52070000D03*
X155575000Y-54610000D03*
X155575000Y-57150000D03*
X155575000Y-59690000D03*
X155575000Y-62230000D03*
X155575000Y-64770000D03*
X155575000Y-67310000D03*
X170815000Y-67310000D03*
X170815000Y-64770000D03*
X170815000Y-62230000D03*
X170815000Y-59690000D03*
X170815000Y-57150000D03*
X170815000Y-54610000D03*
X170815000Y-52070000D03*
X170815000Y-49530000D03*
X170815000Y-46990000D03*
X170815000Y-44450000D03*
X170815000Y-41910000D03*
X170815000Y-39370000D03*
D20*
X202478000Y-150756000D03*
D21*
X205465788Y-152481000D03*
X208289030Y-154111000D03*
D22*
X211276818Y-155836000D03*
D23*
X96978000Y-62992000D03*
D24*
X96978000Y-59542000D03*
X96978000Y-56282000D03*
D25*
X96978000Y-52832000D03*
D23*
X96978000Y-82169000D03*
D24*
X96978000Y-78719000D03*
X96978000Y-75459000D03*
D25*
X96978000Y-72009000D03*
D23*
X96478000Y-101356000D03*
D24*
X96478000Y-97906000D03*
X96478000Y-94646000D03*
D25*
X96478000Y-91196000D03*
D23*
X96978000Y-119856000D03*
D24*
X96978000Y-116406000D03*
X96978000Y-113146000D03*
D25*
X96978000Y-109696000D03*
D23*
X115978000Y-62356000D03*
D24*
X115978000Y-58906000D03*
X115978000Y-55646000D03*
D25*
X115978000Y-52196000D03*
D23*
X115978000Y-81966000D03*
D24*
X115978000Y-78516000D03*
X115978000Y-75256000D03*
D25*
X115978000Y-71806000D03*
D23*
X116478000Y-100356000D03*
D24*
X116478000Y-96906000D03*
X116478000Y-93646000D03*
D25*
X116478000Y-90196000D03*
D23*
X115978000Y-120142000D03*
D24*
X115978000Y-116692000D03*
X115978000Y-113432000D03*
D25*
X115978000Y-109982000D03*
D23*
X119818000Y-62256000D03*
D26*
X123268000Y-62256000D03*
X126528000Y-62256000D03*
D25*
X129978000Y-62256000D03*
D23*
X119478000Y-81256000D03*
D26*
X122928000Y-81256000D03*
X126188000Y-81256000D03*
D25*
X129638000Y-81256000D03*
D23*
X120268000Y-100256000D03*
D26*
X123718000Y-100256000D03*
X126978000Y-100256000D03*
D25*
X130428000Y-100256000D03*
D23*
X134978000Y-111856000D03*
D24*
X134978000Y-108406000D03*
X134978000Y-105146000D03*
D25*
X134978000Y-101696000D03*
D23*
X135978000Y-60356000D03*
D24*
X135978000Y-56906000D03*
X135978000Y-53646000D03*
D25*
X135978000Y-50196000D03*
D23*
X153978000Y-81256000D03*
D24*
X153978000Y-77806000D03*
X153978000Y-74546000D03*
D25*
X153978000Y-71096000D03*
D23*
X139268000Y-98756000D03*
D26*
X142718000Y-98756000D03*
X145978000Y-98756000D03*
D25*
X149428000Y-98756000D03*
D23*
X173978000Y-63856000D03*
D24*
X173978000Y-60406000D03*
X173978000Y-57146000D03*
D25*
X173978000Y-53696000D03*
D23*
X153978000Y-97134000D03*
D24*
X153978000Y-93684000D03*
X153978000Y-90424000D03*
D25*
X153978000Y-86974000D03*
D23*
X173478000Y-115356000D03*
D24*
X173478000Y-111906000D03*
X173478000Y-108646000D03*
D25*
X173478000Y-105196000D03*
D23*
X177268000Y-64256000D03*
D26*
X180718000Y-64256000D03*
X183978000Y-64256000D03*
D25*
X187428000Y-64256000D03*
D23*
X172478000Y-80966000D03*
D24*
X172478000Y-77516000D03*
X172478000Y-74256000D03*
D25*
X172478000Y-70806000D03*
D23*
X173478000Y-97966000D03*
D24*
X173478000Y-94516000D03*
X173478000Y-91256000D03*
D25*
X173478000Y-87806000D03*
D23*
X177478000Y-103256000D03*
D26*
X180928000Y-103256000D03*
X184188000Y-103256000D03*
D25*
X187638000Y-103256000D03*
D23*
X191978000Y-80356000D03*
D24*
X191978000Y-76906000D03*
X191978000Y-73646000D03*
D25*
X191978000Y-70196000D03*
D23*
X192978000Y-94856000D03*
D24*
X192978000Y-91406000D03*
X192978000Y-88146000D03*
D25*
X192978000Y-84696000D03*
D23*
X192478000Y-108458000D03*
D24*
X192478000Y-105008000D03*
X192478000Y-101748000D03*
D25*
X192478000Y-98298000D03*
D23*
X189978000Y-123356000D03*
D24*
X189978000Y-119906000D03*
X189978000Y-116646000D03*
D25*
X189978000Y-113196000D03*
D23*
X81528000Y-124256000D03*
D26*
X84978000Y-124256000D03*
X88238000Y-124256000D03*
D25*
X91688000Y-124256000D03*
D23*
X115978000Y-134856000D03*
D24*
X115978000Y-131406000D03*
X115978000Y-128146000D03*
D25*
X115978000Y-124696000D03*
D23*
X120378000Y-137256000D03*
D26*
X123828000Y-137256000D03*
X127088000Y-137256000D03*
D25*
X130538000Y-137256000D03*
D27*
X180978000Y-124756000D03*
D28*
X177990212Y-123031000D03*
X175166970Y-121401000D03*
D29*
X172179182Y-119676000D03*
D30*
X185428000Y-136172730D03*
D31*
X187153000Y-133184942D03*
X188783000Y-130361700D03*
D32*
X190508000Y-127373912D03*
D33*
X224068687Y-138130189D03*
D34*
X210870460Y-130510189D03*
D33*
X212130687Y-158807411D03*
D34*
X198932460Y-151187411D03*
D23*
X135478000Y-132440000D03*
D24*
X135478000Y-128990000D03*
X135478000Y-125730000D03*
D25*
X135478000Y-122280000D03*
D23*
X139268000Y-78756000D03*
D26*
X142718000Y-78756000D03*
X145978000Y-78756000D03*
D25*
X149428000Y-78756000D03*
D23*
X157768000Y-81256000D03*
D26*
X161218000Y-81256000D03*
X164478000Y-81256000D03*
D25*
X167928000Y-81256000D03*
D35*
X94080000Y-55435500D03*
D36*
X92075000Y-57975500D03*
D37*
X86995000Y-57975500D03*
D36*
X81915000Y-57975500D03*
D35*
X81153000Y-52895500D03*
D38*
X90805000Y-55435500D03*
X84455000Y-52895500D03*
D35*
X94080000Y-74485500D03*
D36*
X92075000Y-77025500D03*
D37*
X86995000Y-77025500D03*
D36*
X81915000Y-77025500D03*
D35*
X81153000Y-71945500D03*
D38*
X90805000Y-74485500D03*
X84455000Y-71945500D03*
D35*
X94080000Y-93535500D03*
D36*
X92075000Y-96075500D03*
D37*
X86995000Y-96075500D03*
D36*
X81915000Y-96075500D03*
D35*
X81153000Y-90995500D03*
D38*
X90805000Y-93535500D03*
X84455000Y-90995500D03*
D35*
X94080000Y-112585500D03*
D36*
X92075000Y-115125500D03*
D37*
X86995000Y-115125500D03*
D36*
X81915000Y-115125500D03*
D35*
X81153000Y-110045500D03*
D38*
X90805000Y-112585500D03*
X84455000Y-110045500D03*
D35*
X113130000Y-55435500D03*
D36*
X111125000Y-57975500D03*
D37*
X106045000Y-57975500D03*
D36*
X100965000Y-57975500D03*
D35*
X100203000Y-52895500D03*
D38*
X109855000Y-55435500D03*
X103505000Y-52895500D03*
D35*
X113130000Y-74485500D03*
D36*
X111125000Y-77025500D03*
D37*
X106045000Y-77025500D03*
D36*
X100965000Y-77025500D03*
D35*
X100203000Y-71945500D03*
D38*
X109855000Y-74485500D03*
X103505000Y-71945500D03*
D35*
X113130000Y-93535500D03*
D36*
X111125000Y-96075500D03*
D37*
X106045000Y-96075500D03*
D36*
X100965000Y-96075500D03*
D35*
X100203000Y-90995500D03*
D38*
X109855000Y-93535500D03*
X103505000Y-90995500D03*
D35*
X113130000Y-112585500D03*
D36*
X111125000Y-115125500D03*
D37*
X106045000Y-115125500D03*
D36*
X100965000Y-115125500D03*
D35*
X100203000Y-110045500D03*
D38*
X109855000Y-112585500D03*
X103505000Y-110045500D03*
D35*
X132180000Y-50673000D03*
D36*
X130175000Y-53213000D03*
D37*
X125095000Y-53213000D03*
D36*
X120015000Y-53213000D03*
D35*
X119253000Y-48133000D03*
D38*
X128905000Y-50673000D03*
X122555000Y-48133000D03*
D35*
X132180000Y-69723000D03*
D36*
X130175000Y-72263000D03*
D37*
X125095000Y-72263000D03*
D36*
X120015000Y-72263000D03*
D35*
X119253000Y-67183000D03*
D38*
X128905000Y-69723000D03*
X122555000Y-67183000D03*
D35*
X132180000Y-88773000D03*
D36*
X130175000Y-91313000D03*
D37*
X125095000Y-91313000D03*
D36*
X120015000Y-91313000D03*
D35*
X119253000Y-86233000D03*
D38*
X128905000Y-88773000D03*
X122555000Y-86233000D03*
D35*
X132180000Y-107823000D03*
D36*
X130175000Y-110363000D03*
D37*
X125095000Y-110363000D03*
D36*
X120015000Y-110363000D03*
D35*
X119253000Y-105283000D03*
D38*
X128905000Y-107823000D03*
X122555000Y-105283000D03*
D35*
X151230000Y-48291750D03*
D36*
X149225000Y-50831750D03*
D37*
X144145000Y-50831750D03*
D36*
X139065000Y-50831750D03*
D35*
X138303000Y-45751750D03*
D38*
X147955000Y-48291750D03*
X141605000Y-45751750D03*
D35*
X151230000Y-67341750D03*
D36*
X149225000Y-69881750D03*
D37*
X144145000Y-69881750D03*
D36*
X139065000Y-69881750D03*
D35*
X138303000Y-64801750D03*
D38*
X147955000Y-67341750D03*
X141605000Y-64801750D03*
D35*
X151230000Y-86391750D03*
D36*
X149225000Y-88931750D03*
D37*
X144145000Y-88931750D03*
D36*
X139065000Y-88931750D03*
D35*
X138303000Y-83851750D03*
D38*
X147955000Y-86391750D03*
X141605000Y-83851750D03*
D35*
X151230000Y-105441750D03*
D36*
X149225000Y-107981750D03*
D37*
X144145000Y-107981750D03*
D36*
X139065000Y-107981750D03*
D35*
X138303000Y-102901750D03*
D38*
X147955000Y-105441750D03*
X141605000Y-102901750D03*
D39*
X160655000Y-46128000D03*
D36*
X163195000Y-48133000D03*
D37*
X163195000Y-53213000D03*
D36*
X163195000Y-58293000D03*
D39*
X158115000Y-59055000D03*
D38*
X160655000Y-49403000D03*
X158115000Y-55753000D03*
D39*
X160655000Y-65178000D03*
D36*
X163195000Y-67183000D03*
D37*
X163195000Y-72263000D03*
D36*
X163195000Y-77343000D03*
D39*
X158115000Y-78105000D03*
D38*
X160655000Y-68453000D03*
X158115000Y-74803000D03*
D35*
X170280000Y-88773000D03*
D36*
X168275000Y-91313000D03*
D37*
X163195000Y-91313000D03*
D36*
X158115000Y-91313000D03*
D35*
X157353000Y-86233000D03*
D38*
X167005000Y-88773000D03*
X160655000Y-86233000D03*
D35*
X170280000Y-107823000D03*
D36*
X168275000Y-110363000D03*
D37*
X163195000Y-110363000D03*
D36*
X158115000Y-110363000D03*
D35*
X157353000Y-105283000D03*
D38*
X167005000Y-107823000D03*
X160655000Y-105283000D03*
D35*
X189330000Y-53054250D03*
D36*
X187325000Y-55594250D03*
D37*
X182245000Y-55594250D03*
D36*
X177165000Y-55594250D03*
D35*
X176403000Y-50514250D03*
D38*
X186055000Y-53054250D03*
X179705000Y-50514250D03*
D35*
X189330000Y-72104250D03*
D36*
X187325000Y-74644250D03*
D37*
X182245000Y-74644250D03*
D36*
X177165000Y-74644250D03*
D35*
X176403000Y-69564250D03*
D38*
X186055000Y-72104250D03*
X179705000Y-69564250D03*
D35*
X189330000Y-91154250D03*
D36*
X187325000Y-93694250D03*
D37*
X182245000Y-93694250D03*
D36*
X177165000Y-93694250D03*
D35*
X176403000Y-88614250D03*
D38*
X186055000Y-91154250D03*
X179705000Y-88614250D03*
D35*
X189330000Y-110204250D03*
D36*
X187325000Y-112744250D03*
D37*
X182245000Y-112744250D03*
D36*
X177165000Y-112744250D03*
D35*
X176403000Y-107664250D03*
D38*
X186055000Y-110204250D03*
X179705000Y-107664250D03*
D35*
X208380000Y-62579250D03*
D36*
X206375000Y-65119250D03*
D37*
X201295000Y-65119250D03*
D36*
X196215000Y-65119250D03*
D35*
X195453000Y-60039250D03*
D38*
X205105000Y-62579250D03*
X198755000Y-60039250D03*
D35*
X208380000Y-81629250D03*
D36*
X206375000Y-84169250D03*
D37*
X201295000Y-84169250D03*
D36*
X196215000Y-84169250D03*
D35*
X195453000Y-79089250D03*
D38*
X205105000Y-81629250D03*
X198755000Y-79089250D03*
D35*
X208380000Y-100679250D03*
D36*
X206375000Y-103219250D03*
D37*
X201295000Y-103219250D03*
D36*
X196215000Y-103219250D03*
D35*
X195453000Y-98139250D03*
D38*
X205105000Y-100679250D03*
X198755000Y-98139250D03*
D40*
X194572795Y-122336510D03*
D36*
X197775000Y-122802891D03*
D37*
X200315000Y-127202300D03*
D36*
X202855000Y-131601709D03*
D40*
X198836591Y-134801620D03*
D38*
X196210295Y-125172743D03*
X197185591Y-131942005D03*
D35*
X94080000Y-131635500D03*
D36*
X92075000Y-134175500D03*
D37*
X86995000Y-134175500D03*
D36*
X81915000Y-134175500D03*
D35*
X81153000Y-129095500D03*
D38*
X90805000Y-131635500D03*
X84455000Y-129095500D03*
D35*
X113130000Y-131635500D03*
D36*
X111125000Y-134175500D03*
D37*
X106045000Y-134175500D03*
D36*
X100965000Y-134175500D03*
D35*
X100203000Y-129095500D03*
D38*
X109855000Y-131635500D03*
X103505000Y-129095500D03*
D35*
X132180000Y-126873000D03*
D36*
X130175000Y-129413000D03*
D37*
X125095000Y-129413000D03*
D36*
X120015000Y-129413000D03*
D35*
X119253000Y-124333000D03*
D38*
X128905000Y-126873000D03*
X122555000Y-124333000D03*
D35*
X151230000Y-124491750D03*
D36*
X149225000Y-127031750D03*
D37*
X144145000Y-127031750D03*
D36*
X139065000Y-127031750D03*
D35*
X138303000Y-121951750D03*
D38*
X147955000Y-124491750D03*
X141605000Y-121951750D03*
D41*
X180034205Y-139041040D03*
D36*
X176832000Y-138574659D03*
D37*
X174292000Y-134175250D03*
D36*
X171752000Y-129775841D03*
D41*
X175770409Y-126575930D03*
D38*
X178396705Y-136204807D03*
X177421409Y-129435545D03*
D42*
X195655790Y-137958095D03*
D36*
X195189409Y-141160300D03*
D37*
X190790000Y-143700300D03*
D36*
X186390591Y-146240300D03*
D42*
X183190680Y-142221891D03*
D38*
X192819557Y-139595595D03*
X186050295Y-140570891D03*
D40*
X206308295Y-140110510D03*
D36*
X209510500Y-140576891D03*
D37*
X212050500Y-144976300D03*
D36*
X214590500Y-149375709D03*
D40*
X210572091Y-152575620D03*
D38*
X207945795Y-142946743D03*
X208921091Y-149716005D03*
%LPD*%
M02*
