G04 #@! TF.GenerationSoftware,KiCad,Pcbnew,10.0.3*
G04 #@! TF.CreationDate,2026-06-13T18:49:48+09:00*
G04 #@! TF.ProjectId,ergodash,6572676f-6461-4736-982e-6b696361645f,2.0*
G04 #@! TF.SameCoordinates,Original*
G04 #@! TF.FileFunction,Legend,Top*
G04 #@! TF.FilePolarity,Positive*
%FSLAX46Y46*%
G04 Gerber Fmt 4.6, Leading zero omitted, Abs format (unit mm)*
G04 Created by KiCad (PCBNEW 10.0.3) date 2026-06-13 18:49:48*
%MOMM*%
%LPD*%
G01*
G04 APERTURE LIST*
G04 Aperture macros list*
%AMRoundRect*
0 Rectangle with rounded corners*
0 $1 Rounding radius*
0 $2 $3 $4 $5 $6 $7 $8 $9 X,Y pos of 4 corners*
0 Add a 4 corners polygon primitive as box body*
4,1,4,$2,$3,$4,$5,$6,$7,$8,$9,$2,$3,0*
0 Add four circle primitives for the rounded corners*
1,1,$1+$1,$2,$3*
1,1,$1+$1,$4,$5*
1,1,$1+$1,$6,$7*
1,1,$1+$1,$8,$9*
0 Add four rect primitives between the rounded corners*
20,1,$1+$1,$2,$3,$4,$5,0*
20,1,$1+$1,$4,$5,$6,$7,0*
20,1,$1+$1,$6,$7,$8,$9,0*
20,1,$1+$1,$8,$9,$2,$3,0*%
%AMHorizOval*
0 Thick line with rounded ends*
0 $1 width*
0 $2 $3 position (X,Y) of the first rounded end (center of the circle)*
0 $4 $5 position (X,Y) of the second rounded end (center of the circle)*
0 Add line between two ends*
20,1,$1,$2,$3,$4,$5,0*
0 Add two circle primitives to create the rounded ends*
1,1,$1,$2,$3*
1,1,$1,$4,$5*%
%AMRotRect*
0 Rectangle, with rotation*
0 The origin of the aperture is its center*
0 $1 length*
0 $2 width*
0 $3 Rotation angle, in degrees counterclockwise*
0 Add horizontal line*
21,1,$1,$2,0,0,$3*%
G04 Aperture macros list end*
%ADD10C,0.270000*%
%ADD11C,0.300000*%
%ADD12C,0.000000*%
%ADD13C,0.150000*%
%ADD14C,0.120000*%
%ADD15C,1.524000*%
%ADD16C,1.800000*%
%ADD17C,5.000000*%
%ADD18C,1.210000*%
%ADD19O,1.300000X2.200000*%
%ADD20RotRect,1.600000X1.600000X210.000000*%
%ADD21RotRect,1.600000X1.200000X210.000000*%
%ADD22HorizOval,1.600000X0.000000X0.000000X0.000000X0.000000X0*%
%ADD23RoundRect,0.250000X1.025000X1.000000X-1.025000X1.000000X-1.025000X-1.000000X1.025000X-1.000000X0*%
%ADD24C,1.750000*%
%ADD25C,4.000000*%
%ADD26C,3.600000*%
%ADD27RoundRect,0.250000X-1.000000X1.025000X-1.000000X-1.025000X1.000000X-1.025000X1.000000X1.025000X0*%
%ADD28RoundRect,0.250000X-1.378525X0.387676X-0.353525X-1.387676X1.378525X-0.387676X0.353525X1.387676X0*%
%ADD29RoundRect,0.250000X1.378525X-0.387676X0.353525X1.387676X-1.378525X0.387676X-0.353525X-1.387676X0*%
%ADD30R,1.600000X1.600000*%
%ADD31R,1.200000X1.600000*%
%ADD32O,1.600000X1.600000*%
%ADD33R,1.600000X1.200000*%
%ADD34RotRect,1.600000X1.600000X30.000000*%
%ADD35RotRect,1.600000X1.200000X30.000000*%
%ADD36HorizOval,1.600000X0.000000X0.000000X0.000000X0.000000X0*%
%ADD37RotRect,1.600000X1.600000X120.000000*%
%ADD38RotRect,1.600000X1.200000X120.000000*%
%ADD39HorizOval,1.600000X0.000000X0.000000X0.000000X0.000000X0*%
%ADD40C,3.987800*%
%ADD41C,3.048000*%
G04 APERTURE END LIST*
D10*
X142583660Y-138126868D02*
X143183660Y-138126868D01*
X143440803Y-139069725D02*
X142583660Y-139069725D01*
X142583660Y-139069725D02*
X142583660Y-137269725D01*
X142583660Y-137269725D02*
X143440803Y-137269725D01*
X144212231Y-139069725D02*
X144212231Y-137869725D01*
X144212231Y-138212582D02*
X144297945Y-138041153D01*
X144297945Y-138041153D02*
X144383660Y-137955439D01*
X144383660Y-137955439D02*
X144555088Y-137869725D01*
X144555088Y-137869725D02*
X144726517Y-137869725D01*
X146097946Y-137869725D02*
X146097946Y-139326868D01*
X146097946Y-139326868D02*
X146012231Y-139498296D01*
X146012231Y-139498296D02*
X145926517Y-139584011D01*
X145926517Y-139584011D02*
X145755088Y-139669725D01*
X145755088Y-139669725D02*
X145497946Y-139669725D01*
X145497946Y-139669725D02*
X145326517Y-139584011D01*
X146097946Y-138984011D02*
X145926517Y-139069725D01*
X145926517Y-139069725D02*
X145583660Y-139069725D01*
X145583660Y-139069725D02*
X145412231Y-138984011D01*
X145412231Y-138984011D02*
X145326517Y-138898296D01*
X145326517Y-138898296D02*
X145240803Y-138726868D01*
X145240803Y-138726868D02*
X145240803Y-138212582D01*
X145240803Y-138212582D02*
X145326517Y-138041153D01*
X145326517Y-138041153D02*
X145412231Y-137955439D01*
X145412231Y-137955439D02*
X145583660Y-137869725D01*
X145583660Y-137869725D02*
X145926517Y-137869725D01*
X145926517Y-137869725D02*
X146097946Y-137955439D01*
X147212231Y-139069725D02*
X147040802Y-138984011D01*
X147040802Y-138984011D02*
X146955088Y-138898296D01*
X146955088Y-138898296D02*
X146869374Y-138726868D01*
X146869374Y-138726868D02*
X146869374Y-138212582D01*
X146869374Y-138212582D02*
X146955088Y-138041153D01*
X146955088Y-138041153D02*
X147040802Y-137955439D01*
X147040802Y-137955439D02*
X147212231Y-137869725D01*
X147212231Y-137869725D02*
X147469374Y-137869725D01*
X147469374Y-137869725D02*
X147640802Y-137955439D01*
X147640802Y-137955439D02*
X147726517Y-138041153D01*
X147726517Y-138041153D02*
X147812231Y-138212582D01*
X147812231Y-138212582D02*
X147812231Y-138726868D01*
X147812231Y-138726868D02*
X147726517Y-138898296D01*
X147726517Y-138898296D02*
X147640802Y-138984011D01*
X147640802Y-138984011D02*
X147469374Y-139069725D01*
X147469374Y-139069725D02*
X147212231Y-139069725D01*
X148583659Y-139069725D02*
X148583659Y-137269725D01*
X148583659Y-137269725D02*
X149012230Y-137269725D01*
X149012230Y-137269725D02*
X149269373Y-137355439D01*
X149269373Y-137355439D02*
X149440802Y-137526868D01*
X149440802Y-137526868D02*
X149526516Y-137698296D01*
X149526516Y-137698296D02*
X149612230Y-138041153D01*
X149612230Y-138041153D02*
X149612230Y-138298296D01*
X149612230Y-138298296D02*
X149526516Y-138641153D01*
X149526516Y-138641153D02*
X149440802Y-138812582D01*
X149440802Y-138812582D02*
X149269373Y-138984011D01*
X149269373Y-138984011D02*
X149012230Y-139069725D01*
X149012230Y-139069725D02*
X148583659Y-139069725D01*
X151155088Y-139069725D02*
X151155088Y-138126868D01*
X151155088Y-138126868D02*
X151069373Y-137955439D01*
X151069373Y-137955439D02*
X150897945Y-137869725D01*
X150897945Y-137869725D02*
X150555088Y-137869725D01*
X150555088Y-137869725D02*
X150383659Y-137955439D01*
X151155088Y-138984011D02*
X150983659Y-139069725D01*
X150983659Y-139069725D02*
X150555088Y-139069725D01*
X150555088Y-139069725D02*
X150383659Y-138984011D01*
X150383659Y-138984011D02*
X150297945Y-138812582D01*
X150297945Y-138812582D02*
X150297945Y-138641153D01*
X150297945Y-138641153D02*
X150383659Y-138469725D01*
X150383659Y-138469725D02*
X150555088Y-138384011D01*
X150555088Y-138384011D02*
X150983659Y-138384011D01*
X150983659Y-138384011D02*
X151155088Y-138298296D01*
X151926516Y-138984011D02*
X152097944Y-139069725D01*
X152097944Y-139069725D02*
X152440801Y-139069725D01*
X152440801Y-139069725D02*
X152612230Y-138984011D01*
X152612230Y-138984011D02*
X152697944Y-138812582D01*
X152697944Y-138812582D02*
X152697944Y-138726868D01*
X152697944Y-138726868D02*
X152612230Y-138555439D01*
X152612230Y-138555439D02*
X152440801Y-138469725D01*
X152440801Y-138469725D02*
X152183659Y-138469725D01*
X152183659Y-138469725D02*
X152012230Y-138384011D01*
X152012230Y-138384011D02*
X151926516Y-138212582D01*
X151926516Y-138212582D02*
X151926516Y-138126868D01*
X151926516Y-138126868D02*
X152012230Y-137955439D01*
X152012230Y-137955439D02*
X152183659Y-137869725D01*
X152183659Y-137869725D02*
X152440801Y-137869725D01*
X152440801Y-137869725D02*
X152612230Y-137955439D01*
X153469373Y-139069725D02*
X153469373Y-137269725D01*
X154240802Y-139069725D02*
X154240802Y-138126868D01*
X154240802Y-138126868D02*
X154155087Y-137955439D01*
X154155087Y-137955439D02*
X153983659Y-137869725D01*
X153983659Y-137869725D02*
X153726516Y-137869725D01*
X153726516Y-137869725D02*
X153555087Y-137955439D01*
X153555087Y-137955439D02*
X153469373Y-138041153D01*
X157497944Y-139069725D02*
X156897944Y-138212582D01*
X156469373Y-139069725D02*
X156469373Y-137269725D01*
X156469373Y-137269725D02*
X157155087Y-137269725D01*
X157155087Y-137269725D02*
X157326516Y-137355439D01*
X157326516Y-137355439D02*
X157412230Y-137441153D01*
X157412230Y-137441153D02*
X157497944Y-137612582D01*
X157497944Y-137612582D02*
X157497944Y-137869725D01*
X157497944Y-137869725D02*
X157412230Y-138041153D01*
X157412230Y-138041153D02*
X157326516Y-138126868D01*
X157326516Y-138126868D02*
X157155087Y-138212582D01*
X157155087Y-138212582D02*
X156469373Y-138212582D01*
X158955087Y-138984011D02*
X158783659Y-139069725D01*
X158783659Y-139069725D02*
X158440802Y-139069725D01*
X158440802Y-139069725D02*
X158269373Y-138984011D01*
X158269373Y-138984011D02*
X158183659Y-138812582D01*
X158183659Y-138812582D02*
X158183659Y-138126868D01*
X158183659Y-138126868D02*
X158269373Y-137955439D01*
X158269373Y-137955439D02*
X158440802Y-137869725D01*
X158440802Y-137869725D02*
X158783659Y-137869725D01*
X158783659Y-137869725D02*
X158955087Y-137955439D01*
X158955087Y-137955439D02*
X159040802Y-138126868D01*
X159040802Y-138126868D02*
X159040802Y-138298296D01*
X159040802Y-138298296D02*
X158183659Y-138469725D01*
X159640801Y-137869725D02*
X160069373Y-139069725D01*
X160069373Y-139069725D02*
X160497944Y-137869725D01*
X161183659Y-138898296D02*
X161269373Y-138984011D01*
X161269373Y-138984011D02*
X161183659Y-139069725D01*
X161183659Y-139069725D02*
X161097945Y-138984011D01*
X161097945Y-138984011D02*
X161183659Y-138898296D01*
X161183659Y-138898296D02*
X161183659Y-139069725D01*
X164355088Y-139069725D02*
X163326517Y-139069725D01*
X163840802Y-139069725D02*
X163840802Y-137269725D01*
X163840802Y-137269725D02*
X163669374Y-137526868D01*
X163669374Y-137526868D02*
X163497945Y-137698296D01*
X163497945Y-137698296D02*
X163326517Y-137784011D01*
X165126517Y-138898296D02*
X165212231Y-138984011D01*
X165212231Y-138984011D02*
X165126517Y-139069725D01*
X165126517Y-139069725D02*
X165040803Y-138984011D01*
X165040803Y-138984011D02*
X165126517Y-138898296D01*
X165126517Y-138898296D02*
X165126517Y-139069725D01*
X165897946Y-137441153D02*
X165983660Y-137355439D01*
X165983660Y-137355439D02*
X166155089Y-137269725D01*
X166155089Y-137269725D02*
X166583660Y-137269725D01*
X166583660Y-137269725D02*
X166755089Y-137355439D01*
X166755089Y-137355439D02*
X166840803Y-137441153D01*
X166840803Y-137441153D02*
X166926517Y-137612582D01*
X166926517Y-137612582D02*
X166926517Y-137784011D01*
X166926517Y-137784011D02*
X166840803Y-138041153D01*
X166840803Y-138041153D02*
X165812231Y-139069725D01*
X165812231Y-139069725D02*
X166926517Y-139069725D01*
X142455090Y-141881910D02*
X142712233Y-141967624D01*
X142712233Y-141967624D02*
X143140804Y-141967624D01*
X143140804Y-141967624D02*
X143312233Y-141881910D01*
X143312233Y-141881910D02*
X143397947Y-141796195D01*
X143397947Y-141796195D02*
X143483661Y-141624767D01*
X143483661Y-141624767D02*
X143483661Y-141453338D01*
X143483661Y-141453338D02*
X143397947Y-141281910D01*
X143397947Y-141281910D02*
X143312233Y-141196195D01*
X143312233Y-141196195D02*
X143140804Y-141110481D01*
X143140804Y-141110481D02*
X142797947Y-141024767D01*
X142797947Y-141024767D02*
X142626518Y-140939052D01*
X142626518Y-140939052D02*
X142540804Y-140853338D01*
X142540804Y-140853338D02*
X142455090Y-140681910D01*
X142455090Y-140681910D02*
X142455090Y-140510481D01*
X142455090Y-140510481D02*
X142540804Y-140339052D01*
X142540804Y-140339052D02*
X142626518Y-140253338D01*
X142626518Y-140253338D02*
X142797947Y-140167624D01*
X142797947Y-140167624D02*
X143226518Y-140167624D01*
X143226518Y-140167624D02*
X143483661Y-140253338D01*
X144512233Y-141967624D02*
X144340804Y-141881910D01*
X144340804Y-141881910D02*
X144255090Y-141796195D01*
X144255090Y-141796195D02*
X144169376Y-141624767D01*
X144169376Y-141624767D02*
X144169376Y-141110481D01*
X144169376Y-141110481D02*
X144255090Y-140939052D01*
X144255090Y-140939052D02*
X144340804Y-140853338D01*
X144340804Y-140853338D02*
X144512233Y-140767624D01*
X144512233Y-140767624D02*
X144769376Y-140767624D01*
X144769376Y-140767624D02*
X144940804Y-140853338D01*
X144940804Y-140853338D02*
X145026519Y-140939052D01*
X145026519Y-140939052D02*
X145112233Y-141110481D01*
X145112233Y-141110481D02*
X145112233Y-141624767D01*
X145112233Y-141624767D02*
X145026519Y-141796195D01*
X145026519Y-141796195D02*
X144940804Y-141881910D01*
X144940804Y-141881910D02*
X144769376Y-141967624D01*
X144769376Y-141967624D02*
X144512233Y-141967624D01*
X146655090Y-141881910D02*
X146483661Y-141967624D01*
X146483661Y-141967624D02*
X146140804Y-141967624D01*
X146140804Y-141967624D02*
X145969375Y-141881910D01*
X145969375Y-141881910D02*
X145883661Y-141796195D01*
X145883661Y-141796195D02*
X145797947Y-141624767D01*
X145797947Y-141624767D02*
X145797947Y-141110481D01*
X145797947Y-141110481D02*
X145883661Y-140939052D01*
X145883661Y-140939052D02*
X145969375Y-140853338D01*
X145969375Y-140853338D02*
X146140804Y-140767624D01*
X146140804Y-140767624D02*
X146483661Y-140767624D01*
X146483661Y-140767624D02*
X146655090Y-140853338D01*
X147426518Y-141967624D02*
X147426518Y-140167624D01*
X147597947Y-141281910D02*
X148112232Y-141967624D01*
X148112232Y-140767624D02*
X147426518Y-141453338D01*
X149569375Y-141881910D02*
X149397947Y-141967624D01*
X149397947Y-141967624D02*
X149055090Y-141967624D01*
X149055090Y-141967624D02*
X148883661Y-141881910D01*
X148883661Y-141881910D02*
X148797947Y-141710481D01*
X148797947Y-141710481D02*
X148797947Y-141024767D01*
X148797947Y-141024767D02*
X148883661Y-140853338D01*
X148883661Y-140853338D02*
X149055090Y-140767624D01*
X149055090Y-140767624D02*
X149397947Y-140767624D01*
X149397947Y-140767624D02*
X149569375Y-140853338D01*
X149569375Y-140853338D02*
X149655090Y-141024767D01*
X149655090Y-141024767D02*
X149655090Y-141196195D01*
X149655090Y-141196195D02*
X148797947Y-141367624D01*
X150169375Y-140767624D02*
X150855089Y-140767624D01*
X150426518Y-140167624D02*
X150426518Y-141710481D01*
X150426518Y-141710481D02*
X150512232Y-141881910D01*
X150512232Y-141881910D02*
X150683661Y-141967624D01*
X150683661Y-141967624D02*
X150855089Y-141967624D01*
X152140803Y-141881910D02*
X151969375Y-141967624D01*
X151969375Y-141967624D02*
X151626518Y-141967624D01*
X151626518Y-141967624D02*
X151455089Y-141881910D01*
X151455089Y-141881910D02*
X151369375Y-141710481D01*
X151369375Y-141710481D02*
X151369375Y-141024767D01*
X151369375Y-141024767D02*
X151455089Y-140853338D01*
X151455089Y-140853338D02*
X151626518Y-140767624D01*
X151626518Y-140767624D02*
X151969375Y-140767624D01*
X151969375Y-140767624D02*
X152140803Y-140853338D01*
X152140803Y-140853338D02*
X152226518Y-141024767D01*
X152226518Y-141024767D02*
X152226518Y-141196195D01*
X152226518Y-141196195D02*
X151369375Y-141367624D01*
X153769375Y-141967624D02*
X153769375Y-140167624D01*
X153769375Y-141881910D02*
X153597946Y-141967624D01*
X153597946Y-141967624D02*
X153255089Y-141967624D01*
X153255089Y-141967624D02*
X153083660Y-141881910D01*
X153083660Y-141881910D02*
X152997946Y-141796195D01*
X152997946Y-141796195D02*
X152912232Y-141624767D01*
X152912232Y-141624767D02*
X152912232Y-141110481D01*
X152912232Y-141110481D02*
X152997946Y-140939052D01*
X152997946Y-140939052D02*
X153083660Y-140853338D01*
X153083660Y-140853338D02*
X153255089Y-140767624D01*
X153255089Y-140767624D02*
X153597946Y-140767624D01*
X153597946Y-140767624D02*
X153769375Y-140853338D01*
X155997946Y-141967624D02*
X155997946Y-140167624D01*
X155997946Y-140853338D02*
X156169375Y-140767624D01*
X156169375Y-140767624D02*
X156512232Y-140767624D01*
X156512232Y-140767624D02*
X156683660Y-140853338D01*
X156683660Y-140853338D02*
X156769375Y-140939052D01*
X156769375Y-140939052D02*
X156855089Y-141110481D01*
X156855089Y-141110481D02*
X156855089Y-141624767D01*
X156855089Y-141624767D02*
X156769375Y-141796195D01*
X156769375Y-141796195D02*
X156683660Y-141881910D01*
X156683660Y-141881910D02*
X156512232Y-141967624D01*
X156512232Y-141967624D02*
X156169375Y-141967624D01*
X156169375Y-141967624D02*
X155997946Y-141881910D01*
X157455088Y-140767624D02*
X157883660Y-141967624D01*
X158312231Y-140767624D02*
X157883660Y-141967624D01*
X157883660Y-141967624D02*
X157712231Y-142396195D01*
X157712231Y-142396195D02*
X157626517Y-142481910D01*
X157626517Y-142481910D02*
X157455088Y-142567624D01*
X160112232Y-140767624D02*
X160797946Y-140767624D01*
X160369375Y-140167624D02*
X160369375Y-141710481D01*
X160369375Y-141710481D02*
X160455089Y-141881910D01*
X160455089Y-141881910D02*
X160626518Y-141967624D01*
X160626518Y-141967624D02*
X160797946Y-141967624D01*
X161312232Y-141881910D02*
X161483660Y-141967624D01*
X161483660Y-141967624D02*
X161826517Y-141967624D01*
X161826517Y-141967624D02*
X161997946Y-141881910D01*
X161997946Y-141881910D02*
X162083660Y-141710481D01*
X162083660Y-141710481D02*
X162083660Y-141624767D01*
X162083660Y-141624767D02*
X161997946Y-141453338D01*
X161997946Y-141453338D02*
X161826517Y-141367624D01*
X161826517Y-141367624D02*
X161569375Y-141367624D01*
X161569375Y-141367624D02*
X161397946Y-141281910D01*
X161397946Y-141281910D02*
X161312232Y-141110481D01*
X161312232Y-141110481D02*
X161312232Y-141024767D01*
X161312232Y-141024767D02*
X161397946Y-140853338D01*
X161397946Y-140853338D02*
X161569375Y-140767624D01*
X161569375Y-140767624D02*
X161826517Y-140767624D01*
X161826517Y-140767624D02*
X161997946Y-140853338D01*
X163626518Y-140767624D02*
X163626518Y-141967624D01*
X162855089Y-140767624D02*
X162855089Y-141710481D01*
X162855089Y-141710481D02*
X162940803Y-141881910D01*
X162940803Y-141881910D02*
X163112232Y-141967624D01*
X163112232Y-141967624D02*
X163369375Y-141967624D01*
X163369375Y-141967624D02*
X163540803Y-141881910D01*
X163540803Y-141881910D02*
X163626518Y-141796195D01*
X164483660Y-141967624D02*
X164483660Y-140167624D01*
X164483660Y-140853338D02*
X164655089Y-140767624D01*
X164655089Y-140767624D02*
X164997946Y-140767624D01*
X164997946Y-140767624D02*
X165169374Y-140853338D01*
X165169374Y-140853338D02*
X165255089Y-140939052D01*
X165255089Y-140939052D02*
X165340803Y-141110481D01*
X165340803Y-141110481D02*
X165340803Y-141624767D01*
X165340803Y-141624767D02*
X165255089Y-141796195D01*
X165255089Y-141796195D02*
X165169374Y-141881910D01*
X165169374Y-141881910D02*
X164997946Y-141967624D01*
X164997946Y-141967624D02*
X164655089Y-141967624D01*
X164655089Y-141967624D02*
X164483660Y-141881910D01*
X166883660Y-140767624D02*
X166883660Y-141967624D01*
X166112231Y-140767624D02*
X166112231Y-141710481D01*
X166112231Y-141710481D02*
X166197945Y-141881910D01*
X166197945Y-141881910D02*
X166369374Y-141967624D01*
X166369374Y-141967624D02*
X166626517Y-141967624D01*
X166626517Y-141967624D02*
X166797945Y-141881910D01*
X166797945Y-141881910D02*
X166883660Y-141796195D01*
D11*
X170445136Y-138618694D02*
X170445136Y-136618694D01*
X170445136Y-136618694D02*
X170921326Y-136618694D01*
X170921326Y-136618694D02*
X171207041Y-136713932D01*
X171207041Y-136713932D02*
X171397517Y-136904408D01*
X171397517Y-136904408D02*
X171492755Y-137094884D01*
X171492755Y-137094884D02*
X171587993Y-137475836D01*
X171587993Y-137475836D02*
X171587993Y-137761551D01*
X171587993Y-137761551D02*
X171492755Y-138142503D01*
X171492755Y-138142503D02*
X171397517Y-138332979D01*
X171397517Y-138332979D02*
X171207041Y-138523456D01*
X171207041Y-138523456D02*
X170921326Y-138618694D01*
X170921326Y-138618694D02*
X170445136Y-138618694D01*
X173207041Y-138523456D02*
X173016565Y-138618694D01*
X173016565Y-138618694D02*
X172635612Y-138618694D01*
X172635612Y-138618694D02*
X172445136Y-138523456D01*
X172445136Y-138523456D02*
X172349898Y-138332979D01*
X172349898Y-138332979D02*
X172349898Y-137571075D01*
X172349898Y-137571075D02*
X172445136Y-137380598D01*
X172445136Y-137380598D02*
X172635612Y-137285360D01*
X172635612Y-137285360D02*
X173016565Y-137285360D01*
X173016565Y-137285360D02*
X173207041Y-137380598D01*
X173207041Y-137380598D02*
X173302279Y-137571075D01*
X173302279Y-137571075D02*
X173302279Y-137761551D01*
X173302279Y-137761551D02*
X172349898Y-137952027D01*
X174064184Y-138523456D02*
X174254660Y-138618694D01*
X174254660Y-138618694D02*
X174635612Y-138618694D01*
X174635612Y-138618694D02*
X174826089Y-138523456D01*
X174826089Y-138523456D02*
X174921327Y-138332979D01*
X174921327Y-138332979D02*
X174921327Y-138237741D01*
X174921327Y-138237741D02*
X174826089Y-138047265D01*
X174826089Y-138047265D02*
X174635612Y-137952027D01*
X174635612Y-137952027D02*
X174349898Y-137952027D01*
X174349898Y-137952027D02*
X174159422Y-137856789D01*
X174159422Y-137856789D02*
X174064184Y-137666313D01*
X174064184Y-137666313D02*
X174064184Y-137571075D01*
X174064184Y-137571075D02*
X174159422Y-137380598D01*
X174159422Y-137380598D02*
X174349898Y-137285360D01*
X174349898Y-137285360D02*
X174635612Y-137285360D01*
X174635612Y-137285360D02*
X174826089Y-137380598D01*
X175778470Y-138618694D02*
X175778470Y-137285360D01*
X175778470Y-136618694D02*
X175683232Y-136713932D01*
X175683232Y-136713932D02*
X175778470Y-136809170D01*
X175778470Y-136809170D02*
X175873708Y-136713932D01*
X175873708Y-136713932D02*
X175778470Y-136618694D01*
X175778470Y-136618694D02*
X175778470Y-136809170D01*
X177587994Y-137285360D02*
X177587994Y-138904408D01*
X177587994Y-138904408D02*
X177492756Y-139094884D01*
X177492756Y-139094884D02*
X177397518Y-139190122D01*
X177397518Y-139190122D02*
X177207041Y-139285360D01*
X177207041Y-139285360D02*
X176921327Y-139285360D01*
X176921327Y-139285360D02*
X176730851Y-139190122D01*
X177587994Y-138523456D02*
X177397518Y-138618694D01*
X177397518Y-138618694D02*
X177016565Y-138618694D01*
X177016565Y-138618694D02*
X176826089Y-138523456D01*
X176826089Y-138523456D02*
X176730851Y-138428217D01*
X176730851Y-138428217D02*
X176635613Y-138237741D01*
X176635613Y-138237741D02*
X176635613Y-137666313D01*
X176635613Y-137666313D02*
X176730851Y-137475836D01*
X176730851Y-137475836D02*
X176826089Y-137380598D01*
X176826089Y-137380598D02*
X177016565Y-137285360D01*
X177016565Y-137285360D02*
X177397518Y-137285360D01*
X177397518Y-137285360D02*
X177587994Y-137380598D01*
X178540375Y-137285360D02*
X178540375Y-138618694D01*
X178540375Y-137475836D02*
X178635613Y-137380598D01*
X178635613Y-137380598D02*
X178826089Y-137285360D01*
X178826089Y-137285360D02*
X179111804Y-137285360D01*
X179111804Y-137285360D02*
X179302280Y-137380598D01*
X179302280Y-137380598D02*
X179397518Y-137571075D01*
X179397518Y-137571075D02*
X179397518Y-138618694D01*
X181111804Y-138523456D02*
X180921328Y-138618694D01*
X180921328Y-138618694D02*
X180540375Y-138618694D01*
X180540375Y-138618694D02*
X180349899Y-138523456D01*
X180349899Y-138523456D02*
X180254661Y-138332979D01*
X180254661Y-138332979D02*
X180254661Y-137571075D01*
X180254661Y-137571075D02*
X180349899Y-137380598D01*
X180349899Y-137380598D02*
X180540375Y-137285360D01*
X180540375Y-137285360D02*
X180921328Y-137285360D01*
X180921328Y-137285360D02*
X181111804Y-137380598D01*
X181111804Y-137380598D02*
X181207042Y-137571075D01*
X181207042Y-137571075D02*
X181207042Y-137761551D01*
X181207042Y-137761551D02*
X180254661Y-137952027D01*
X182921328Y-138618694D02*
X182921328Y-136618694D01*
X182921328Y-138523456D02*
X182730852Y-138618694D01*
X182730852Y-138618694D02*
X182349899Y-138618694D01*
X182349899Y-138618694D02*
X182159423Y-138523456D01*
X182159423Y-138523456D02*
X182064185Y-138428217D01*
X182064185Y-138428217D02*
X181968947Y-138237741D01*
X181968947Y-138237741D02*
X181968947Y-137666313D01*
X181968947Y-137666313D02*
X182064185Y-137475836D01*
X182064185Y-137475836D02*
X182159423Y-137380598D01*
X182159423Y-137380598D02*
X182349899Y-137285360D01*
X182349899Y-137285360D02*
X182730852Y-137285360D01*
X182730852Y-137285360D02*
X182921328Y-137380598D01*
X169873707Y-141838582D02*
X169873707Y-139838582D01*
X169873707Y-140600486D02*
X170064183Y-140505248D01*
X170064183Y-140505248D02*
X170445136Y-140505248D01*
X170445136Y-140505248D02*
X170635612Y-140600486D01*
X170635612Y-140600486D02*
X170730850Y-140695724D01*
X170730850Y-140695724D02*
X170826088Y-140886201D01*
X170826088Y-140886201D02*
X170826088Y-141457629D01*
X170826088Y-141457629D02*
X170730850Y-141648105D01*
X170730850Y-141648105D02*
X170635612Y-141743344D01*
X170635612Y-141743344D02*
X170445136Y-141838582D01*
X170445136Y-141838582D02*
X170064183Y-141838582D01*
X170064183Y-141838582D02*
X169873707Y-141743344D01*
X171492755Y-140505248D02*
X171968945Y-141838582D01*
X172445136Y-140505248D02*
X171968945Y-141838582D01*
X171968945Y-141838582D02*
X171778469Y-142314772D01*
X171778469Y-142314772D02*
X171683231Y-142410010D01*
X171683231Y-142410010D02*
X171492755Y-142505248D01*
X175016565Y-141838582D02*
X174826089Y-141743344D01*
X174826089Y-141743344D02*
X174730851Y-141648105D01*
X174730851Y-141648105D02*
X174635613Y-141457629D01*
X174635613Y-141457629D02*
X174635613Y-140886201D01*
X174635613Y-140886201D02*
X174730851Y-140695724D01*
X174730851Y-140695724D02*
X174826089Y-140600486D01*
X174826089Y-140600486D02*
X175016565Y-140505248D01*
X175016565Y-140505248D02*
X175302280Y-140505248D01*
X175302280Y-140505248D02*
X175492756Y-140600486D01*
X175492756Y-140600486D02*
X175587994Y-140695724D01*
X175587994Y-140695724D02*
X175683232Y-140886201D01*
X175683232Y-140886201D02*
X175683232Y-141457629D01*
X175683232Y-141457629D02*
X175587994Y-141648105D01*
X175587994Y-141648105D02*
X175492756Y-141743344D01*
X175492756Y-141743344D02*
X175302280Y-141838582D01*
X175302280Y-141838582D02*
X175016565Y-141838582D01*
X176540375Y-141838582D02*
X176540375Y-140505248D01*
X176540375Y-140695724D02*
X176635613Y-140600486D01*
X176635613Y-140600486D02*
X176826089Y-140505248D01*
X176826089Y-140505248D02*
X177111804Y-140505248D01*
X177111804Y-140505248D02*
X177302280Y-140600486D01*
X177302280Y-140600486D02*
X177397518Y-140790963D01*
X177397518Y-140790963D02*
X177397518Y-141838582D01*
X177397518Y-140790963D02*
X177492756Y-140600486D01*
X177492756Y-140600486D02*
X177683232Y-140505248D01*
X177683232Y-140505248D02*
X177968946Y-140505248D01*
X177968946Y-140505248D02*
X178159423Y-140600486D01*
X178159423Y-140600486D02*
X178254661Y-140790963D01*
X178254661Y-140790963D02*
X178254661Y-141838582D01*
X179207042Y-141838582D02*
X179207042Y-139838582D01*
X179397518Y-141076677D02*
X179968947Y-141838582D01*
X179968947Y-140505248D02*
X179207042Y-141267153D01*
X180826090Y-141838582D02*
X180826090Y-139838582D01*
X180826090Y-140600486D02*
X181016566Y-140505248D01*
X181016566Y-140505248D02*
X181397519Y-140505248D01*
X181397519Y-140505248D02*
X181587995Y-140600486D01*
X181587995Y-140600486D02*
X181683233Y-140695724D01*
X181683233Y-140695724D02*
X181778471Y-140886201D01*
X181778471Y-140886201D02*
X181778471Y-141457629D01*
X181778471Y-141457629D02*
X181683233Y-141648105D01*
X181683233Y-141648105D02*
X181587995Y-141743344D01*
X181587995Y-141743344D02*
X181397519Y-141838582D01*
X181397519Y-141838582D02*
X181016566Y-141838582D01*
X181016566Y-141838582D02*
X180826090Y-141743344D01*
X183492757Y-141838582D02*
X183492757Y-139838582D01*
X183492757Y-141743344D02*
X183302281Y-141838582D01*
X183302281Y-141838582D02*
X182921328Y-141838582D01*
X182921328Y-141838582D02*
X182730852Y-141743344D01*
X182730852Y-141743344D02*
X182635614Y-141648105D01*
X182635614Y-141648105D02*
X182540376Y-141457629D01*
X182540376Y-141457629D02*
X182540376Y-140886201D01*
X182540376Y-140886201D02*
X182635614Y-140695724D01*
X182635614Y-140695724D02*
X182730852Y-140600486D01*
X182730852Y-140600486D02*
X182921328Y-140505248D01*
X182921328Y-140505248D02*
X183302281Y-140505248D01*
X183302281Y-140505248D02*
X183492757Y-140600486D01*
D12*
G36*
X141502034Y-125173214D02*
G01*
X141511092Y-125221495D01*
X141493734Y-125291983D01*
X141468546Y-125309098D01*
X141430386Y-125274819D01*
X141426000Y-125247790D01*
X141451930Y-125175353D01*
X141468546Y-125160187D01*
X141502034Y-125173214D01*
G37*
G36*
X147457745Y-125314427D02*
G01*
X147459859Y-125394190D01*
X147457210Y-125515664D01*
X147441674Y-125557545D01*
X147408612Y-125524931D01*
X147382449Y-125479282D01*
X147360184Y-125370485D01*
X147382449Y-125309098D01*
X147424654Y-125240569D01*
X147447768Y-125240163D01*
X147457745Y-125314427D01*
G37*
G36*
X147104315Y-125275822D02*
G01*
X147128233Y-125358160D01*
X147143304Y-125460939D01*
X147156900Y-125621508D01*
X147152407Y-125709087D01*
X147130979Y-125720249D01*
X147093774Y-125651570D01*
X147085817Y-125631324D01*
X147046275Y-125462920D01*
X147058293Y-125319892D01*
X147079058Y-125274105D01*
X147104315Y-125275822D01*
G37*
G36*
X141241391Y-125176315D02*
G01*
X141255448Y-125268282D01*
X141255816Y-125287825D01*
X141252285Y-125395557D01*
X141237223Y-125432577D01*
X141203929Y-125413126D01*
X141199088Y-125408372D01*
X141175776Y-125347450D01*
X141171669Y-125257036D01*
X141184779Y-125174926D01*
X141213117Y-125138915D01*
X141213270Y-125138914D01*
X141241391Y-125176315D01*
G37*
G36*
X144921235Y-125529393D02*
G01*
X145029620Y-125551390D01*
X145083415Y-125583784D01*
X145115022Y-125661299D01*
X145077723Y-125707600D01*
X145008791Y-125706673D01*
X144923953Y-125721342D01*
X144853328Y-125774487D01*
X144749084Y-125850035D01*
X144653397Y-125849031D01*
X144581734Y-125772657D01*
X144573356Y-125753062D01*
X144560128Y-125713286D01*
X144744593Y-125713286D01*
X144765866Y-125734559D01*
X144787139Y-125713286D01*
X144765866Y-125692013D01*
X144744593Y-125713286D01*
X144560128Y-125713286D01*
X144542458Y-125660154D01*
X144531863Y-125609113D01*
X144569475Y-125566466D01*
X144664610Y-125538150D01*
X144790715Y-125525386D01*
X144921235Y-125529393D01*
G37*
G36*
X144189151Y-125982882D02*
G01*
X144190200Y-126019332D01*
X144229756Y-126120930D01*
X144327735Y-126202452D01*
X144457469Y-126243670D01*
X144488147Y-126245322D01*
X144592286Y-126231107D01*
X144731992Y-126194897D01*
X144797157Y-126173321D01*
X144920531Y-126132553D01*
X145002932Y-126124170D01*
X145083002Y-126150519D01*
X145167084Y-126195784D01*
X145336958Y-126261831D01*
X145481885Y-126248956D01*
X145613915Y-126154867D01*
X145659516Y-126102060D01*
X145726244Y-126022048D01*
X145756777Y-126005340D01*
X145765029Y-126046465D01*
X145765227Y-126060509D01*
X145728539Y-126161716D01*
X145634851Y-126261058D01*
X145510192Y-126338048D01*
X145380589Y-126372198D01*
X145368883Y-126372469D01*
X145236493Y-126347998D01*
X145109207Y-126290008D01*
X145016936Y-126238444D01*
X144940000Y-126233489D01*
X144838098Y-126269016D01*
X144659055Y-126320111D01*
X144484586Y-126329587D01*
X144329092Y-126303007D01*
X144206975Y-126245933D01*
X144132636Y-126163928D01*
X144120477Y-126062554D01*
X144145060Y-126001330D01*
X144178433Y-125953476D01*
X144189151Y-125982882D01*
G37*
G36*
X144935266Y-120845720D02*
G01*
X145338101Y-120883078D01*
X145595514Y-120927739D01*
X145765218Y-120965888D01*
X145973184Y-121016626D01*
X146204559Y-121075872D01*
X146444489Y-121139547D01*
X146678121Y-121203572D01*
X146890599Y-121263867D01*
X147067071Y-121316353D01*
X147192682Y-121356950D01*
X147252578Y-121381579D01*
X147254811Y-121383448D01*
X147236514Y-121392351D01*
X147169719Y-121380403D01*
X146907529Y-121316512D01*
X146611820Y-121248969D01*
X146298560Y-121180982D01*
X145983721Y-121115759D01*
X145683271Y-121056508D01*
X145413181Y-121006438D01*
X145189421Y-120968756D01*
X145027961Y-120946672D01*
X144995859Y-120943702D01*
X144573006Y-120933671D01*
X144145587Y-120964314D01*
X143729061Y-121031912D01*
X143338884Y-121132741D01*
X142990513Y-121263082D01*
X142699407Y-121419212D01*
X142547886Y-121533056D01*
X142458324Y-121605463D01*
X142425912Y-121615235D01*
X142436289Y-121586317D01*
X142573644Y-121414501D01*
X142783431Y-121260651D01*
X143054435Y-121127103D01*
X143375445Y-121016195D01*
X143735246Y-120930266D01*
X144122626Y-120871652D01*
X144526370Y-120842691D01*
X144935266Y-120845720D01*
G37*
G36*
X152210082Y-127032090D02*
G01*
X152287172Y-127090891D01*
X152290910Y-127180371D01*
X152220845Y-127293559D01*
X152086230Y-127416151D01*
X151946196Y-127499997D01*
X151747029Y-127589886D01*
X151513430Y-127677274D01*
X151270098Y-127753620D01*
X151041735Y-127810382D01*
X150866699Y-127837908D01*
X150735373Y-127847368D01*
X150652939Y-127848874D01*
X150637223Y-127842138D01*
X150693186Y-127823028D01*
X150812805Y-127786309D01*
X150977840Y-127737474D01*
X151147776Y-127688376D01*
X151480777Y-127583849D01*
X151757371Y-127477756D01*
X151971184Y-127373369D01*
X152115844Y-127273959D01*
X152184979Y-127182798D01*
X152190154Y-127153258D01*
X152159329Y-127111444D01*
X152063836Y-127098707D01*
X151899149Y-127115258D01*
X151660740Y-127161311D01*
X151567203Y-127182532D01*
X151319419Y-127247019D01*
X151109838Y-127314669D01*
X150950495Y-127380651D01*
X150853424Y-127440132D01*
X150828680Y-127479066D01*
X150802740Y-127506665D01*
X150786019Y-127500149D01*
X150759396Y-127447885D01*
X150802357Y-127378540D01*
X150904014Y-127302687D01*
X151053478Y-127230899D01*
X151069728Y-127224689D01*
X151292986Y-127151884D01*
X151540916Y-127088109D01*
X151783271Y-127039892D01*
X151989804Y-127013761D01*
X152060088Y-127010941D01*
X152210082Y-127032090D01*
G37*
G36*
X147177279Y-122824673D02*
G01*
X147302117Y-122872772D01*
X147339507Y-122891512D01*
X147466260Y-122973595D01*
X147566766Y-123067374D01*
X147594500Y-123106441D01*
X147633655Y-123193742D01*
X147620188Y-123254320D01*
X147567752Y-123313224D01*
X147440057Y-123388526D01*
X147270213Y-123425672D01*
X147148209Y-123430988D01*
X147105162Y-123415663D01*
X147138683Y-123384022D01*
X147246382Y-123340387D01*
X147331898Y-123314109D01*
X147447325Y-123273617D01*
X147497468Y-123229394D01*
X147502083Y-123170816D01*
X147458206Y-123091105D01*
X147365766Y-123008863D01*
X147339903Y-122992492D01*
X147193862Y-122935338D01*
X147018451Y-122908591D01*
X146832540Y-122909501D01*
X146655002Y-122935317D01*
X146504709Y-122983288D01*
X146400533Y-123050664D01*
X146361344Y-123134692D01*
X146361343Y-123135132D01*
X146378574Y-123210282D01*
X146440216Y-123270056D01*
X146561190Y-123325162D01*
X146680439Y-123364070D01*
X146893169Y-123428212D01*
X146701712Y-123427706D01*
X146566817Y-123423155D01*
X146458944Y-123412360D01*
X146435221Y-123407632D01*
X146362412Y-123357611D01*
X146302068Y-123274293D01*
X146267528Y-123134605D01*
X146311482Y-123014171D01*
X146428658Y-122917282D01*
X146613785Y-122848231D01*
X146861590Y-122811311D01*
X146871557Y-122810639D01*
X147046731Y-122806203D01*
X147177279Y-122824673D01*
G37*
G36*
X143308913Y-122937766D02*
G01*
X143477229Y-122973086D01*
X143586704Y-123035673D01*
X143631015Y-123118977D01*
X143603841Y-123216448D01*
X143498860Y-123321537D01*
X143475661Y-123337788D01*
X143273238Y-123442329D01*
X143027963Y-123522210D01*
X142771731Y-123570407D01*
X142536438Y-123579893D01*
X142433580Y-123567323D01*
X142307509Y-123526511D01*
X142209544Y-123468904D01*
X142199577Y-123459471D01*
X142177592Y-123432909D01*
X142340072Y-123432909D01*
X142342856Y-123440495D01*
X142402909Y-123467829D01*
X142523309Y-123478468D01*
X142681160Y-123473347D01*
X142853565Y-123453403D01*
X143017626Y-123419574D01*
X143045665Y-123411742D01*
X143207505Y-123355420D01*
X143358139Y-123287999D01*
X143477383Y-123220179D01*
X143545052Y-123162663D01*
X143553303Y-123142608D01*
X143515345Y-123096519D01*
X143419317Y-123053167D01*
X143291989Y-123021844D01*
X143175966Y-123011611D01*
X143031987Y-123026211D01*
X142869397Y-123062630D01*
X142824580Y-123076617D01*
X142694314Y-123133795D01*
X142562121Y-123212071D01*
X142446610Y-123297386D01*
X142366390Y-123375685D01*
X142340072Y-123432909D01*
X142177592Y-123432909D01*
X142156006Y-123406829D01*
X142174593Y-123399215D01*
X142191829Y-123403948D01*
X142258702Y-123383640D01*
X142339990Y-123299588D01*
X142352825Y-123281536D01*
X142513243Y-123120480D01*
X142737629Y-123006091D01*
X143015913Y-122943098D01*
X143088078Y-122936262D01*
X143308913Y-122937766D01*
G37*
G36*
X141299894Y-121284959D02*
G01*
X141261819Y-121313994D01*
X141172428Y-121357692D01*
X141041016Y-121410565D01*
X140905193Y-121457976D01*
X140449330Y-121635379D01*
X139973909Y-121871594D01*
X139493514Y-122155924D01*
X139022729Y-122477670D01*
X138576138Y-122826135D01*
X138168323Y-123190620D01*
X137813869Y-123560427D01*
X137527360Y-123924858D01*
X137512201Y-123946978D01*
X137286877Y-124316270D01*
X137125686Y-124663932D01*
X137032233Y-124981415D01*
X137011346Y-125135267D01*
X137010050Y-125392677D01*
X137052574Y-125594263D01*
X137145802Y-125760856D01*
X137257100Y-125878963D01*
X137485353Y-126033239D01*
X137745226Y-126121871D01*
X138013575Y-126138446D01*
X138130118Y-126120871D01*
X138331732Y-126053229D01*
X138577937Y-125934258D01*
X138853307Y-125772951D01*
X139142418Y-125578301D01*
X139412986Y-125372917D01*
X139621325Y-125206749D01*
X139765795Y-125095159D01*
X139847444Y-125037716D01*
X139867324Y-125033987D01*
X139826484Y-125083541D01*
X139725976Y-125185947D01*
X139622931Y-125286667D01*
X139272138Y-125599512D01*
X138927782Y-125854600D01*
X138597694Y-126047378D01*
X138289706Y-126173296D01*
X138011650Y-126227802D01*
X138002745Y-126228349D01*
X137844599Y-126230562D01*
X137706188Y-126221007D01*
X137639400Y-126207877D01*
X137351179Y-126085048D01*
X137138400Y-125927959D01*
X136996063Y-125730086D01*
X136919165Y-125484905D01*
X136901424Y-125245279D01*
X136939326Y-124900335D01*
X137050423Y-124547289D01*
X137236626Y-124182707D01*
X137499846Y-123803159D01*
X137841995Y-123405211D01*
X138039345Y-123202158D01*
X138601941Y-122686340D01*
X139179415Y-122240610D01*
X139766338Y-121868265D01*
X140357281Y-121572599D01*
X140946816Y-121356908D01*
X141184925Y-121292821D01*
X141277361Y-121276072D01*
X141299894Y-121284959D01*
G37*
G36*
X142867490Y-127911190D02*
G01*
X142874435Y-128029759D01*
X142872192Y-128230490D01*
X142860747Y-128512165D01*
X142859751Y-128531946D01*
X142843289Y-128974756D01*
X142841523Y-129358721D01*
X142854031Y-129679461D01*
X142880395Y-129932596D01*
X142920195Y-130113747D01*
X142973014Y-130218533D01*
X143023661Y-130244441D01*
X143091357Y-130227844D01*
X143202723Y-130185817D01*
X143261471Y-130160284D01*
X143424383Y-130110563D01*
X143629444Y-130081091D01*
X143842725Y-130073720D01*
X144030295Y-130090304D01*
X144118909Y-130113471D01*
X144199607Y-130172092D01*
X144290558Y-130277893D01*
X144335744Y-130346691D01*
X144445509Y-130504592D01*
X144557354Y-130592610D01*
X144685379Y-130612852D01*
X144843680Y-130567425D01*
X145046358Y-130458434D01*
X145053691Y-130453946D01*
X145169232Y-130385662D01*
X145253876Y-130340472D01*
X145282268Y-130329534D01*
X145289545Y-130351370D01*
X145241638Y-130407594D01*
X145153404Y-130484278D01*
X145039702Y-130567493D01*
X145002176Y-130592076D01*
X144803891Y-130685928D01*
X144620624Y-130710662D01*
X144465596Y-130665523D01*
X144412284Y-130625733D01*
X144332033Y-130530450D01*
X144251209Y-130404388D01*
X144236000Y-130375921D01*
X144158354Y-130262503D01*
X144072510Y-130193109D01*
X144055143Y-130186668D01*
X143847617Y-130159530D01*
X143609217Y-130171001D01*
X143383016Y-130217591D01*
X143299340Y-130247933D01*
X143149854Y-130305269D01*
X143030965Y-130329830D01*
X142939047Y-130314670D01*
X142870475Y-130252840D01*
X142821624Y-130137396D01*
X142788866Y-129961390D01*
X142768577Y-129717875D01*
X142757131Y-129399905D01*
X142753458Y-129202063D01*
X142750985Y-128770549D01*
X142757758Y-128423613D01*
X142773777Y-128161243D01*
X142799044Y-127983429D01*
X142833558Y-127890160D01*
X142851373Y-127876001D01*
X142867490Y-127911190D01*
G37*
G36*
X149334925Y-121625117D02*
G01*
X149518283Y-121701736D01*
X149722482Y-121800283D01*
X150149183Y-122047797D01*
X150584311Y-122363311D01*
X151012828Y-122733033D01*
X151419696Y-123143171D01*
X151789876Y-123579931D01*
X152041348Y-123927039D01*
X152227744Y-124236396D01*
X152382308Y-124555359D01*
X152499607Y-124868034D01*
X152574206Y-125158527D01*
X152600670Y-125410945D01*
X152591452Y-125535906D01*
X152515991Y-125744330D01*
X152370567Y-125921264D01*
X152165790Y-126062565D01*
X151912274Y-126164094D01*
X151620631Y-126221710D01*
X151301473Y-126231272D01*
X150965414Y-126188640D01*
X150935045Y-126182177D01*
X150751616Y-126134721D01*
X150543407Y-126070574D01*
X150403220Y-126021258D01*
X150177001Y-125924071D01*
X149908468Y-125790478D01*
X149615955Y-125631353D01*
X149317800Y-125457574D01*
X149032340Y-125280017D01*
X148777911Y-125109558D01*
X148572850Y-124957074D01*
X148488647Y-124885623D01*
X148424254Y-124825599D01*
X148393865Y-124791919D01*
X148403767Y-124787777D01*
X148460245Y-124816364D01*
X148569585Y-124880876D01*
X148738075Y-124984503D01*
X148972000Y-125130440D01*
X148977926Y-125134149D01*
X149474081Y-125434128D01*
X149915564Y-125677627D01*
X150309171Y-125867009D01*
X150661701Y-126004634D01*
X150979950Y-126092863D01*
X151270716Y-126134057D01*
X151540795Y-126130577D01*
X151748888Y-126096672D01*
X152036592Y-126009289D01*
X152247710Y-125894343D01*
X152388153Y-125745127D01*
X152463831Y-125554934D01*
X152480655Y-125317055D01*
X152477939Y-125269333D01*
X152418205Y-124944036D01*
X152289160Y-124591774D01*
X152098567Y-124221649D01*
X151854186Y-123842760D01*
X151563778Y-123464210D01*
X151235105Y-123095099D01*
X150875927Y-122744527D01*
X150494007Y-122421595D01*
X150097104Y-122135404D01*
X149692981Y-121895055D01*
X149531025Y-121813778D01*
X149345098Y-121733102D01*
X149219751Y-121698187D01*
X149144900Y-121707387D01*
X149114428Y-121745865D01*
X149085963Y-121777594D01*
X149038251Y-121745561D01*
X149004969Y-121692981D01*
X149038801Y-121635136D01*
X149049831Y-121623817D01*
X149111758Y-121589058D01*
X149203103Y-121588525D01*
X149334925Y-121625117D01*
G37*
G36*
X141236993Y-123574251D02*
G01*
X141215701Y-123609120D01*
X141145447Y-123691320D01*
X141037563Y-123808138D01*
X140918729Y-123931279D01*
X140600151Y-124314168D01*
X140341267Y-124748899D01*
X140151500Y-125218661D01*
X140103968Y-125385053D01*
X140053466Y-125598971D01*
X140029172Y-125760628D01*
X140030441Y-125898508D01*
X140056626Y-126041093D01*
X140086622Y-126149518D01*
X140209339Y-126419308D01*
X140409603Y-126676173D01*
X140680249Y-126915232D01*
X141014114Y-127131609D01*
X141404033Y-127320425D01*
X141842842Y-127476801D01*
X142158968Y-127560613D01*
X142766351Y-127679097D01*
X143435305Y-127769725D01*
X144146347Y-127830536D01*
X144879991Y-127859567D01*
X145150451Y-127861862D01*
X145824389Y-127844003D01*
X146422243Y-127790296D01*
X146945193Y-127700545D01*
X147394419Y-127574556D01*
X147726134Y-127435345D01*
X147997718Y-127262399D01*
X148274655Y-127018025D01*
X148545569Y-126714227D01*
X148799085Y-126363009D01*
X148905637Y-126190686D01*
X149009029Y-126017156D01*
X149096998Y-125874002D01*
X149160739Y-125775230D01*
X149191449Y-125734850D01*
X149192286Y-125734559D01*
X149193347Y-125768636D01*
X149159618Y-125860241D01*
X149099244Y-125993436D01*
X149020369Y-126152283D01*
X148931137Y-126320843D01*
X148839692Y-126483177D01*
X148754178Y-126623347D01*
X148692270Y-126713118D01*
X148563133Y-126866412D01*
X148398097Y-127038585D01*
X148220460Y-127207327D01*
X148053519Y-127350328D01*
X147940530Y-127433002D01*
X147647352Y-127584129D01*
X147280291Y-127711947D01*
X146847622Y-127815290D01*
X146357621Y-127892995D01*
X145818564Y-127943896D01*
X145238728Y-127966831D01*
X144626389Y-127960633D01*
X144297859Y-127945510D01*
X143519531Y-127882958D01*
X142819659Y-127790210D01*
X142197014Y-127666916D01*
X141650366Y-127512729D01*
X141178486Y-127327297D01*
X140780145Y-127110274D01*
X140454113Y-126861309D01*
X140443205Y-126851280D01*
X140193825Y-126574833D01*
X140028315Y-126284771D01*
X139946492Y-125980722D01*
X139936888Y-125829768D01*
X139959366Y-125597650D01*
X140021950Y-125318865D01*
X140117363Y-125017425D01*
X140238328Y-124717343D01*
X140332478Y-124524404D01*
X140419409Y-124383070D01*
X140536384Y-124224163D01*
X140672027Y-124059632D01*
X140814965Y-123901424D01*
X140953823Y-123761489D01*
X141077227Y-123651774D01*
X141173802Y-123584228D01*
X141232175Y-123570799D01*
X141236993Y-123574251D01*
G37*
G36*
X146787229Y-124044231D02*
G01*
X146874253Y-124076523D01*
X146975934Y-124173151D01*
X147050159Y-124325200D01*
X147083865Y-124504228D01*
X147084627Y-124534629D01*
X147070221Y-124656384D01*
X147015771Y-124761507D01*
X146930847Y-124858742D01*
X146764678Y-125001939D01*
X146597577Y-125079383D01*
X146418307Y-125104815D01*
X146309036Y-125119241D01*
X146282670Y-125150582D01*
X146339597Y-125197920D01*
X146371980Y-125214625D01*
X146415113Y-125246959D01*
X146393794Y-125261318D01*
X146327736Y-125252271D01*
X146286375Y-125238204D01*
X146222814Y-125184812D01*
X146141737Y-125082685D01*
X146061718Y-124960145D01*
X146001332Y-124845517D01*
X145979069Y-124769607D01*
X145997965Y-124660943D01*
X146008761Y-124627151D01*
X146220783Y-124627151D01*
X146225679Y-124692632D01*
X146271997Y-124751745D01*
X146364972Y-124825473D01*
X146450150Y-124832936D01*
X146532740Y-124797896D01*
X146590949Y-124738656D01*
X146574185Y-124675631D01*
X146490691Y-124622814D01*
X146417877Y-124602914D01*
X146287048Y-124595001D01*
X146220783Y-124627151D01*
X146008761Y-124627151D01*
X146045215Y-124513044D01*
X146073738Y-124444815D01*
X146245037Y-124444815D01*
X146271055Y-124483729D01*
X146369596Y-124509629D01*
X146390616Y-124512118D01*
X146499155Y-124524661D01*
X146564413Y-124534583D01*
X146570031Y-124536117D01*
X146558389Y-124514725D01*
X146508560Y-124456304D01*
X146419885Y-124397041D01*
X146324967Y-124385517D01*
X146256032Y-124423136D01*
X146245037Y-124444815D01*
X146073738Y-124444815D01*
X146108585Y-124361460D01*
X146123173Y-124333000D01*
X146525119Y-124333000D01*
X146557511Y-124415011D01*
X146602906Y-124507819D01*
X146665010Y-124643981D01*
X146685830Y-124732193D01*
X146670240Y-124795991D01*
X146664608Y-124805641D01*
X146643936Y-124868166D01*
X146675450Y-124885628D01*
X146739625Y-124858767D01*
X146806537Y-124800247D01*
X146860124Y-124685195D01*
X146851986Y-124551712D01*
X146793726Y-124424539D01*
X146696942Y-124328421D01*
X146573238Y-124288100D01*
X146566363Y-124287993D01*
X146529021Y-124296383D01*
X146525119Y-124333000D01*
X146123173Y-124333000D01*
X146141957Y-124296352D01*
X146240379Y-124186976D01*
X146426934Y-124186976D01*
X146479880Y-124199881D01*
X146556021Y-124202249D01*
X146731968Y-124239175D01*
X146861448Y-124346733D01*
X146941246Y-124521996D01*
X146966674Y-124597880D01*
X146984841Y-124593623D01*
X146990714Y-124571813D01*
X146993923Y-124466072D01*
X146983676Y-124400782D01*
X146911395Y-124259630D01*
X146790269Y-124161023D01*
X146644267Y-124115688D01*
X146497357Y-124134351D01*
X146446436Y-124160354D01*
X146426934Y-124186976D01*
X146240379Y-124186976D01*
X146256255Y-124169333D01*
X146421027Y-124079231D01*
X146607583Y-124034660D01*
X146787229Y-124044231D01*
G37*
G36*
X143175890Y-123894817D02*
G01*
X143217037Y-123931293D01*
X143297373Y-124074153D01*
X143355487Y-124267733D01*
X143381846Y-124478609D01*
X143382478Y-124511359D01*
X143374936Y-124640725D01*
X143340266Y-124735773D01*
X143261916Y-124833656D01*
X143219583Y-124876990D01*
X143065500Y-124993421D01*
X142888104Y-125069796D01*
X142709159Y-125102245D01*
X142550429Y-125086901D01*
X142433679Y-125019893D01*
X142431138Y-125017138D01*
X142369012Y-124911375D01*
X142455787Y-124911375D01*
X142521561Y-124965322D01*
X142608382Y-125002132D01*
X142693296Y-124996964D01*
X142801366Y-124944386D01*
X142891691Y-124885116D01*
X143001491Y-124800810D01*
X143025636Y-124777272D01*
X143170389Y-124777272D01*
X143191662Y-124798545D01*
X143212935Y-124777272D01*
X143191662Y-124755999D01*
X143170389Y-124777272D01*
X143025636Y-124777272D01*
X143079476Y-124724786D01*
X143100115Y-124693658D01*
X143101629Y-124667962D01*
X143229407Y-124667962D01*
X143246187Y-124683577D01*
X143257684Y-124668798D01*
X143286863Y-124581911D01*
X143297375Y-124482995D01*
X143290227Y-124398684D01*
X143272336Y-124387744D01*
X143250993Y-124440386D01*
X143233487Y-124546822D01*
X143231237Y-124571804D01*
X143229407Y-124667962D01*
X143101629Y-124667962D01*
X143103425Y-124637470D01*
X143062743Y-124637310D01*
X143002011Y-124690004D01*
X142910881Y-124754646D01*
X142767039Y-124810565D01*
X142602810Y-124845948D01*
X142564107Y-124850059D01*
X142468839Y-124871356D01*
X142455787Y-124911375D01*
X142369012Y-124911375D01*
X142344217Y-124869165D01*
X142297575Y-124680452D01*
X142298864Y-124574083D01*
X142493133Y-124574083D01*
X142505037Y-124649634D01*
X142566250Y-124703190D01*
X142676295Y-124705735D01*
X142815698Y-124657003D01*
X142821597Y-124653990D01*
X142938052Y-124576605D01*
X143019886Y-124502481D01*
X143073091Y-124432384D01*
X143066526Y-124390669D01*
X143041059Y-124371139D01*
X142927779Y-124334201D01*
X142782388Y-124354891D01*
X142679144Y-124392437D01*
X142544621Y-124474672D01*
X142493133Y-124574083D01*
X142298864Y-124574083D01*
X142299803Y-124496573D01*
X142355215Y-124337976D01*
X142393509Y-124282745D01*
X142538498Y-124282745D01*
X142551151Y-124313350D01*
X142620841Y-124303827D01*
X142622893Y-124303094D01*
X142727033Y-124280949D01*
X142869805Y-124268262D01*
X142926887Y-124267065D01*
X143052775Y-124261199D01*
X143110511Y-124239412D01*
X143117977Y-124203246D01*
X143070717Y-124157258D01*
X142969074Y-124131513D01*
X142841794Y-124128077D01*
X142717622Y-124149017D01*
X142663196Y-124170550D01*
X142577605Y-124229361D01*
X142538498Y-124282745D01*
X142393509Y-124282745D01*
X142459222Y-124187968D01*
X142596616Y-124055923D01*
X142752188Y-123951213D01*
X142910729Y-123883210D01*
X143057033Y-123861287D01*
X143175890Y-123894817D01*
G37*
G36*
X149717106Y-126906958D02*
G01*
X149919293Y-126973153D01*
X150033933Y-127038142D01*
X150192188Y-127190746D01*
X150342473Y-127415452D01*
X150480165Y-127699337D01*
X150600641Y-128029476D01*
X150699279Y-128392947D01*
X150771454Y-128776824D01*
X150812546Y-129168185D01*
X150815579Y-129223336D01*
X150824555Y-129441377D01*
X150825109Y-129595932D01*
X150815079Y-129708373D01*
X150792303Y-129800076D01*
X150754615Y-129892415D01*
X150745992Y-129910943D01*
X150613329Y-130117161D01*
X150435693Y-130258673D01*
X150204278Y-130340882D01*
X150004233Y-130366114D01*
X149813988Y-130368041D01*
X149583704Y-130357364D01*
X149357126Y-130336325D01*
X149313628Y-130330734D01*
X149130449Y-130306711D01*
X149008628Y-130296649D01*
X148925224Y-130302940D01*
X148857292Y-130327975D01*
X148781889Y-130374142D01*
X148760529Y-130388368D01*
X148631990Y-130502491D01*
X148527543Y-130643139D01*
X148512926Y-130671086D01*
X148432482Y-130800653D01*
X148317674Y-130941407D01*
X148247964Y-131011885D01*
X148085874Y-131133321D01*
X147947469Y-131178766D01*
X147836876Y-131147096D01*
X147816419Y-131129400D01*
X147774742Y-131046359D01*
X147768060Y-130991125D01*
X147772838Y-130933332D01*
X147789066Y-130951276D01*
X147809235Y-130999634D01*
X147874932Y-131080100D01*
X147972019Y-131088729D01*
X148092214Y-131028966D01*
X148227238Y-130904254D01*
X148321468Y-130786639D01*
X148393367Y-130682166D01*
X148438398Y-130606693D01*
X148446101Y-130586288D01*
X148407681Y-130579963D01*
X148305674Y-130588342D01*
X148159956Y-130609567D01*
X148116369Y-130617138D01*
X147973638Y-130634493D01*
X147778666Y-130646370D01*
X147543080Y-130653154D01*
X147278506Y-130655233D01*
X146996571Y-130652992D01*
X146708899Y-130646819D01*
X146427119Y-130637099D01*
X146162855Y-130624220D01*
X145927735Y-130608568D01*
X145733385Y-130590529D01*
X145591430Y-130570490D01*
X145513498Y-130548837D01*
X145505330Y-130530338D01*
X145564991Y-130516770D01*
X145708941Y-130510789D01*
X145936715Y-130512392D01*
X146247850Y-130521577D01*
X146582077Y-130535554D01*
X147020776Y-130552638D01*
X147385789Y-130559463D01*
X147687959Y-130555528D01*
X147938130Y-130540329D01*
X148147147Y-130513362D01*
X148325853Y-130474124D01*
X148403350Y-130451011D01*
X148511506Y-130403904D01*
X148581592Y-130351753D01*
X148586489Y-130344789D01*
X148649024Y-130292854D01*
X148677355Y-130286988D01*
X148754869Y-130268423D01*
X148845057Y-130229472D01*
X148919543Y-130200959D01*
X149009381Y-130193321D01*
X149139625Y-130206423D01*
X149264745Y-130227234D01*
X149571186Y-130268674D01*
X149859803Y-130282627D01*
X150107325Y-130268712D01*
X150240172Y-130243171D01*
X150406682Y-130157817D01*
X150556377Y-130010447D01*
X150668707Y-129824055D01*
X150704330Y-129723811D01*
X150736903Y-129499401D01*
X150733597Y-129219633D01*
X150698795Y-128902375D01*
X150636882Y-128565494D01*
X150552240Y-128226859D01*
X150449253Y-127904338D01*
X150332306Y-127615798D01*
X150205781Y-127379108D01*
X150092679Y-127230677D01*
X149925953Y-127083498D01*
X149757054Y-127000760D01*
X149552447Y-126967959D01*
X149479955Y-126965698D01*
X149348353Y-126962274D01*
X149292227Y-126953676D01*
X149301988Y-126936755D01*
X149339568Y-126919620D01*
X149513113Y-126887279D01*
X149717106Y-126906958D01*
G37*
D13*
X106198232Y-44704000D02*
X107468232Y-44704000D01*
X106198232Y-57404000D02*
X106198232Y-44704000D01*
X107468232Y-43434000D02*
X111278232Y-43434000D01*
X107468232Y-44704000D02*
X107468232Y-43434000D01*
X111278232Y-43434000D02*
X111278232Y-44704000D01*
X111278232Y-44704000D02*
X112548232Y-44704000D01*
X112548232Y-44704000D02*
X112548232Y-57404000D01*
X112548232Y-57404000D02*
X106198232Y-57404000D01*
X153315232Y-38100000D02*
X153315232Y-68580000D01*
X153315232Y-68580000D02*
X155855232Y-68580000D01*
X155855232Y-38100000D02*
X153315232Y-38100000D01*
X155855232Y-68580000D02*
X155855232Y-38100000D01*
X168555232Y-38100000D02*
X168555232Y-68580000D01*
X168555232Y-68580000D02*
X171095232Y-68580000D01*
X171095232Y-38100000D02*
X168555232Y-38100000D01*
X171095232Y-68580000D02*
X171095232Y-38100000D01*
X97013311Y-155216000D02*
X96173266Y-155701000D01*
X98672490Y-153449782D02*
X99372490Y-154662218D01*
X99372490Y-154662218D02*
X99923156Y-153536000D01*
X99923156Y-153536000D02*
X98672490Y-153449782D01*
X100273156Y-154142218D02*
X99573156Y-152929782D01*
X102772380Y-151891000D02*
X101932335Y-152376000D01*
D14*
X219555232Y-55275500D02*
X214455232Y-55275500D01*
X223455232Y-51075500D02*
X218355232Y-51075500D01*
X219555232Y-55275500D02*
G75*
G02*
X221555232Y-57275500I1J-1999999D01*
G01*
X223455232Y-51075500D02*
G75*
G02*
X225455232Y-53075500I1J-1999999D01*
G01*
X219555232Y-74325500D02*
X214455232Y-74325500D01*
X223455232Y-70125500D02*
X218355232Y-70125500D01*
X219555232Y-74325500D02*
G75*
G02*
X221555232Y-76325500I1J-1999999D01*
G01*
X223455232Y-70125500D02*
G75*
G02*
X225455232Y-72125500I1J-1999999D01*
G01*
X219555232Y-93375500D02*
X214455232Y-93375500D01*
X223455232Y-89175500D02*
X218355232Y-89175500D01*
X219555232Y-93375500D02*
G75*
G02*
X221555232Y-95375500I1J-1999999D01*
G01*
X223455232Y-89175500D02*
G75*
G02*
X225455232Y-91175500I1J-1999999D01*
G01*
X219555232Y-112425500D02*
X214455232Y-112425500D01*
X223455232Y-108225500D02*
X218355232Y-108225500D01*
X219555232Y-112425500D02*
G75*
G02*
X221555232Y-114425500I1J-1999999D01*
G01*
X223455232Y-108225500D02*
G75*
G02*
X225455232Y-110225500I1J-1999999D01*
G01*
X200505232Y-55275500D02*
X195405232Y-55275500D01*
X204405232Y-51075500D02*
X199305232Y-51075500D01*
X200505232Y-55275500D02*
G75*
G02*
X202505232Y-57275500I1J-1999999D01*
G01*
X204405232Y-51075500D02*
G75*
G02*
X206405232Y-53075500I1J-1999999D01*
G01*
X200505232Y-74325500D02*
X195405232Y-74325500D01*
X204405232Y-70125500D02*
X199305232Y-70125500D01*
X200505232Y-74325500D02*
G75*
G02*
X202505232Y-76325500I1J-1999999D01*
G01*
X204405232Y-70125500D02*
G75*
G02*
X206405232Y-72125500I1J-1999999D01*
G01*
X200505232Y-93375500D02*
X195405232Y-93375500D01*
X204405232Y-89175500D02*
X199305232Y-89175500D01*
X200505232Y-93375500D02*
G75*
G02*
X202505232Y-95375500I1J-1999999D01*
G01*
X204405232Y-89175500D02*
G75*
G02*
X206405232Y-91175500I1J-1999999D01*
G01*
X200505232Y-112425500D02*
X195405232Y-112425500D01*
X204405232Y-108225500D02*
X199305232Y-108225500D01*
X200505232Y-112425500D02*
G75*
G02*
X202505232Y-114425500I1J-1999999D01*
G01*
X204405232Y-108225500D02*
G75*
G02*
X206405232Y-110225500I1J-1999999D01*
G01*
X181455232Y-50513000D02*
X176355232Y-50513000D01*
X185355232Y-46313000D02*
X180255232Y-46313000D01*
X181455232Y-50513000D02*
G75*
G02*
X183455232Y-52513000I1J-1999999D01*
G01*
X185355232Y-46313000D02*
G75*
G02*
X187355232Y-48313000I1J-1999999D01*
G01*
X181455232Y-69563000D02*
X176355232Y-69563000D01*
X185355232Y-65363000D02*
X180255232Y-65363000D01*
X181455232Y-69563000D02*
G75*
G02*
X183455232Y-71563000I1J-1999999D01*
G01*
X185355232Y-65363000D02*
G75*
G02*
X187355232Y-67363000I1J-1999999D01*
G01*
X181455232Y-88613000D02*
X176355232Y-88613000D01*
X185355232Y-84413000D02*
X180255232Y-84413000D01*
X181455232Y-88613000D02*
G75*
G02*
X183455232Y-90613000I1J-1999999D01*
G01*
X185355232Y-84413000D02*
G75*
G02*
X187355232Y-86413000I1J-1999999D01*
G01*
X181455232Y-107663000D02*
X176355232Y-107663000D01*
X185355232Y-103463000D02*
X180255232Y-103463000D01*
X181455232Y-107663000D02*
G75*
G02*
X183455232Y-109663000I1J-1999999D01*
G01*
X185355232Y-103463000D02*
G75*
G02*
X187355232Y-105463000I1J-1999999D01*
G01*
X155305232Y-46731750D02*
X155305232Y-51831750D01*
X159505232Y-50631750D02*
X159505232Y-55731750D01*
X155305232Y-46731750D02*
G75*
G02*
X157305232Y-44731750I1999999J1D01*
G01*
X159505232Y-50631750D02*
G75*
G02*
X161505232Y-48631750I1999999J1D01*
G01*
X155305232Y-65781750D02*
X155305232Y-70881750D01*
X159505232Y-69681750D02*
X159505232Y-74781750D01*
X155305232Y-65781750D02*
G75*
G02*
X157305232Y-63781750I1999999J1D01*
G01*
X159505232Y-69681750D02*
G75*
G02*
X161505232Y-67681750I1999999J1D01*
G01*
X162405232Y-86231750D02*
X157305232Y-86231750D01*
X166305232Y-82031750D02*
X161205232Y-82031750D01*
X162405232Y-86231750D02*
G75*
G02*
X164405232Y-88231750I1J-1999999D01*
G01*
X166305232Y-82031750D02*
G75*
G02*
X168305232Y-84031750I1J-1999999D01*
G01*
X162405232Y-105281750D02*
X157305232Y-105281750D01*
X166305232Y-101081750D02*
X161205232Y-101081750D01*
X162405232Y-105281750D02*
G75*
G02*
X164405232Y-107281750I1J-1999999D01*
G01*
X166305232Y-101081750D02*
G75*
G02*
X168305232Y-103081750I1J-1999999D01*
G01*
X143355232Y-50513000D02*
X138255232Y-50513000D01*
X147255232Y-46313000D02*
X142155232Y-46313000D01*
X143355232Y-50513000D02*
G75*
G02*
X145355232Y-52513000I1J-1999999D01*
G01*
X147255232Y-46313000D02*
G75*
G02*
X149255232Y-48313000I1J-1999999D01*
G01*
X143355232Y-69563000D02*
X138255232Y-69563000D01*
X147255232Y-65363000D02*
X142155232Y-65363000D01*
X143355232Y-69563000D02*
G75*
G02*
X145355232Y-71563000I1J-1999999D01*
G01*
X147255232Y-65363000D02*
G75*
G02*
X149255232Y-67363000I1J-1999999D01*
G01*
X143355232Y-88613000D02*
X138255232Y-88613000D01*
X147255232Y-84413000D02*
X142155232Y-84413000D01*
X143355232Y-88613000D02*
G75*
G02*
X145355232Y-90613000I1J-1999999D01*
G01*
X147255232Y-84413000D02*
G75*
G02*
X149255232Y-86413000I1J-1999999D01*
G01*
X143355232Y-107663000D02*
X138255232Y-107663000D01*
X147255232Y-103463000D02*
X142155232Y-103463000D01*
X143355232Y-107663000D02*
G75*
G02*
X145355232Y-109663000I1J-1999999D01*
G01*
X147255232Y-103463000D02*
G75*
G02*
X149255232Y-105463000I1J-1999999D01*
G01*
X124305232Y-52894250D02*
X119205232Y-52894250D01*
X128205232Y-48694250D02*
X123105232Y-48694250D01*
X124305232Y-52894250D02*
G75*
G02*
X126305232Y-54894250I1J-1999999D01*
G01*
X128205232Y-48694250D02*
G75*
G02*
X130205232Y-50694250I1J-1999999D01*
G01*
X124305232Y-71944250D02*
X119205232Y-71944250D01*
X128205232Y-67744250D02*
X123105232Y-67744250D01*
X124305232Y-71944250D02*
G75*
G02*
X126305232Y-73944250I1J-1999999D01*
G01*
X128205232Y-67744250D02*
G75*
G02*
X130205232Y-69744250I1J-1999999D01*
G01*
X124305232Y-90994250D02*
X119205232Y-90994250D01*
X128205232Y-86794250D02*
X123105232Y-86794250D01*
X124305232Y-90994250D02*
G75*
G02*
X126305232Y-92994250I1J-1999999D01*
G01*
X128205232Y-86794250D02*
G75*
G02*
X130205232Y-88794250I1J-1999999D01*
G01*
X124305232Y-110044250D02*
X119205232Y-110044250D01*
X128205232Y-105844250D02*
X123105232Y-105844250D01*
X124305232Y-110044250D02*
G75*
G02*
X126305232Y-112044250I1J-1999999D01*
G01*
X128205232Y-105844250D02*
G75*
G02*
X130205232Y-107844250I1J-1999999D01*
G01*
X105255232Y-62419250D02*
X100155232Y-62419250D01*
X109155232Y-58219250D02*
X104055232Y-58219250D01*
X105255232Y-62419250D02*
G75*
G02*
X107255232Y-64419250I1J-1999999D01*
G01*
X109155232Y-58219250D02*
G75*
G02*
X111155232Y-60219250I1J-1999999D01*
G01*
X105255232Y-81469250D02*
X100155232Y-81469250D01*
X109155232Y-77269250D02*
X104055232Y-77269250D01*
X105255232Y-81469250D02*
G75*
G02*
X107255232Y-83469250I1J-1999999D01*
G01*
X109155232Y-77269250D02*
G75*
G02*
X111155232Y-79269250I1J-1999999D01*
G01*
X105255232Y-100519250D02*
X100155232Y-100519250D01*
X109155232Y-96319250D02*
X104055232Y-96319250D01*
X105255232Y-100519250D02*
G75*
G02*
X107255232Y-102519250I1J-1999999D01*
G01*
X109155232Y-96319250D02*
G75*
G02*
X111155232Y-98319250I1J-1999999D01*
G01*
X98009657Y-127101596D02*
X100559657Y-131518325D01*
X103596963Y-128379095D02*
X106146963Y-132795824D01*
X98009657Y-127101596D02*
G75*
G02*
X98741708Y-124369545I1732051J1000000D01*
G01*
X103596963Y-128379095D02*
G75*
G02*
X104329014Y-125647044I1732050J1000000D01*
G01*
X219555232Y-131475500D02*
X214455232Y-131475500D01*
X223455232Y-127275500D02*
X218355232Y-127275500D01*
X219555232Y-131475500D02*
G75*
G02*
X221555232Y-133475500I1J-1999999D01*
G01*
X223455232Y-127275500D02*
G75*
G02*
X225455232Y-129275500I1J-1999999D01*
G01*
X200505232Y-131475500D02*
X195405232Y-131475500D01*
X204405232Y-127275500D02*
X199305232Y-127275500D01*
X200505232Y-131475500D02*
G75*
G02*
X202505232Y-133475500I1J-1999999D01*
G01*
X204405232Y-127275500D02*
G75*
G02*
X206405232Y-129275500I1J-1999999D01*
G01*
X181455232Y-126713000D02*
X176355232Y-126713000D01*
X185355232Y-122513000D02*
X180255232Y-122513000D01*
X181455232Y-126713000D02*
G75*
G02*
X183455232Y-128713000I1J-1999999D01*
G01*
X185355232Y-122513000D02*
G75*
G02*
X187355232Y-124513000I1J-1999999D01*
G01*
X162405232Y-124331750D02*
X157305232Y-124331750D01*
X166305232Y-120131750D02*
X161205232Y-120131750D01*
X162405232Y-124331750D02*
G75*
G02*
X164405232Y-126331750I1J-1999999D01*
G01*
X166305232Y-120131750D02*
G75*
G02*
X168305232Y-122131750I1J-1999999D01*
G01*
X134496501Y-132998455D02*
X131946501Y-128581726D01*
X140083807Y-134275954D02*
X137533807Y-129859225D01*
X134496501Y-132998455D02*
G75*
G02*
X133764450Y-135730506I-1732050J-1000000D01*
G01*
X140083807Y-134275954D02*
G75*
G02*
X139351756Y-137008005I-1732051J-1000000D01*
G01*
X107534657Y-143599596D02*
X110084657Y-148016325D01*
X113121963Y-144877095D02*
X115671963Y-149293824D01*
X107534657Y-143599596D02*
G75*
G02*
X108266708Y-140867545I1732051J1000000D01*
G01*
X113121963Y-144877095D02*
G75*
G02*
X113854014Y-142145044I1732050J1000000D01*
G01*
X96738001Y-143799505D02*
X94188001Y-139382776D01*
X102325307Y-145077004D02*
X99775307Y-140660275D01*
X96738001Y-143799505D02*
G75*
G02*
X96005950Y-146531556I-1732050J-1000000D01*
G01*
X102325307Y-145077004D02*
G75*
G02*
X101593256Y-147809055I-1732051J-1000000D01*
G01*
D13*
X209673732Y-57391300D02*
X210359532Y-58420000D01*
X210372232Y-55079900D02*
X210372232Y-54102000D01*
X210372232Y-58432700D02*
X211070732Y-57391300D01*
X210372232Y-61722000D02*
X210372232Y-60756800D01*
X211070732Y-57391300D02*
X209673732Y-57391300D01*
X211083432Y-58432700D02*
X209673732Y-58432700D01*
X209673732Y-76568300D02*
X210359532Y-77597000D01*
X210372232Y-74256900D02*
X210372232Y-73279000D01*
X210372232Y-77609700D02*
X211070732Y-76568300D01*
X210372232Y-80899000D02*
X210372232Y-79933800D01*
X211070732Y-76568300D02*
X209673732Y-76568300D01*
X211083432Y-77609700D02*
X209673732Y-77609700D01*
X209673732Y-95491300D02*
X210359532Y-96520000D01*
X210372232Y-93179900D02*
X210372232Y-92202000D01*
X210372232Y-96532700D02*
X211070732Y-95491300D01*
X210372232Y-99822000D02*
X210372232Y-98856800D01*
X211070732Y-95491300D02*
X209673732Y-95491300D01*
X211083432Y-96532700D02*
X209673732Y-96532700D01*
X209673732Y-114520300D02*
X210359532Y-115549000D01*
X210372232Y-112208900D02*
X210372232Y-111231000D01*
X210372232Y-115561700D02*
X211070732Y-114520300D01*
X210372232Y-118851000D02*
X210372232Y-117885800D01*
X211070732Y-114520300D02*
X209673732Y-114520300D01*
X211083432Y-115561700D02*
X209673732Y-115561700D01*
X190173732Y-56865300D02*
X190859532Y-57894000D01*
X190872232Y-54553900D02*
X190872232Y-53576000D01*
X190872232Y-57906700D02*
X191570732Y-56865300D01*
X190872232Y-61196000D02*
X190872232Y-60230800D01*
X191570732Y-56865300D02*
X190173732Y-56865300D01*
X191583432Y-57906700D02*
X190173732Y-57906700D01*
X190673732Y-76365300D02*
X191359532Y-77394000D01*
X191372232Y-74053900D02*
X191372232Y-73076000D01*
X191372232Y-77406700D02*
X192070732Y-76365300D01*
X191372232Y-80696000D02*
X191372232Y-79730800D01*
X192070732Y-76365300D02*
X190673732Y-76365300D01*
X192083432Y-77406700D02*
X190673732Y-77406700D01*
X190673732Y-95491300D02*
X191359532Y-96520000D01*
X191372232Y-93179900D02*
X191372232Y-92202000D01*
X191372232Y-96532700D02*
X192070732Y-95491300D01*
X191372232Y-99822000D02*
X191372232Y-98856800D01*
X192070732Y-95491300D02*
X190673732Y-95491300D01*
X192083432Y-96532700D02*
X190673732Y-96532700D01*
X190673732Y-114541300D02*
X191359532Y-115570000D01*
X191372232Y-112229900D02*
X191372232Y-111252000D01*
X191372232Y-115582700D02*
X192070732Y-114541300D01*
X191372232Y-118872000D02*
X191372232Y-117906800D01*
X192070732Y-114541300D02*
X190673732Y-114541300D01*
X192083432Y-115582700D02*
X190673732Y-115582700D01*
X178620132Y-62256000D02*
X177642232Y-62256000D01*
X180931532Y-61557500D02*
X180931532Y-62954500D01*
X180931532Y-62954500D02*
X181960232Y-62268700D01*
X181972932Y-61544800D02*
X181972932Y-62954500D01*
X181972932Y-62256000D02*
X180931532Y-61557500D01*
X185262232Y-62256000D02*
X184297032Y-62256000D01*
X178410132Y-81256000D02*
X177432232Y-81256000D01*
X180721532Y-80557500D02*
X180721532Y-81954500D01*
X180721532Y-81954500D02*
X181750232Y-81268700D01*
X181762932Y-80544800D02*
X181762932Y-81954500D01*
X181762932Y-81256000D02*
X180721532Y-80557500D01*
X185052232Y-81256000D02*
X184087032Y-81256000D01*
X178170132Y-100256000D02*
X177192232Y-100256000D01*
X180481532Y-99557500D02*
X180481532Y-100954500D01*
X180481532Y-100954500D02*
X181510232Y-100268700D01*
X181522932Y-99544800D02*
X181522932Y-100954500D01*
X181522932Y-100256000D02*
X180481532Y-99557500D01*
X184812232Y-100256000D02*
X183847032Y-100256000D01*
X171673732Y-107048300D02*
X172359532Y-108077000D01*
X172372232Y-104736900D02*
X172372232Y-103759000D01*
X172372232Y-108089700D02*
X173070732Y-107048300D01*
X172372232Y-111379000D02*
X172372232Y-110413800D01*
X173070732Y-107048300D02*
X171673732Y-107048300D01*
X173083432Y-108089700D02*
X171673732Y-108089700D01*
X171673732Y-71755300D02*
X172359532Y-72784000D01*
X172372232Y-69443900D02*
X172372232Y-68466000D01*
X172372232Y-72796700D02*
X173070732Y-71755300D01*
X172372232Y-76086000D02*
X172372232Y-75120800D01*
X173070732Y-71755300D02*
X171673732Y-71755300D01*
X173083432Y-72796700D02*
X171673732Y-72796700D01*
X152673732Y-75171300D02*
X153359532Y-76200000D01*
X153372232Y-72859900D02*
X153372232Y-71882000D01*
X153372232Y-76212700D02*
X154070732Y-75171300D01*
X153372232Y-79502000D02*
X153372232Y-78536800D01*
X154070732Y-75171300D02*
X152673732Y-75171300D01*
X154083432Y-76212700D02*
X152673732Y-76212700D01*
X159170132Y-98256000D02*
X158192232Y-98256000D01*
X161481532Y-97557500D02*
X161481532Y-98954500D01*
X161481532Y-98954500D02*
X162510232Y-98268700D01*
X162522932Y-97544800D02*
X162522932Y-98954500D01*
X162522932Y-98256000D02*
X161481532Y-97557500D01*
X165812232Y-98256000D02*
X164847032Y-98256000D01*
X133173732Y-55486300D02*
X133859532Y-56515000D01*
X133872232Y-53174900D02*
X133872232Y-52197000D01*
X133872232Y-56527700D02*
X134570732Y-55486300D01*
X133872232Y-59817000D02*
X133872232Y-58851800D01*
X134570732Y-55486300D02*
X133173732Y-55486300D01*
X134583432Y-56527700D02*
X133173732Y-56527700D01*
X152673732Y-91533300D02*
X153359532Y-92562000D01*
X153372232Y-89221900D02*
X153372232Y-88244000D01*
X153372232Y-92574700D02*
X154070732Y-91533300D01*
X153372232Y-95864000D02*
X153372232Y-94898800D01*
X154070732Y-91533300D02*
X152673732Y-91533300D01*
X154083432Y-92574700D02*
X152673732Y-92574700D01*
X133173732Y-109865300D02*
X133859532Y-110894000D01*
X133872232Y-107553900D02*
X133872232Y-106576000D01*
X133872232Y-110906700D02*
X134570732Y-109865300D01*
X133872232Y-114196000D02*
X133872232Y-113230800D01*
X134570732Y-109865300D02*
X133173732Y-109865300D01*
X134583432Y-110906700D02*
X133173732Y-110906700D01*
X121170132Y-64256000D02*
X120192232Y-64256000D01*
X123481532Y-63557500D02*
X123481532Y-64954500D01*
X123481532Y-64954500D02*
X124510232Y-64268700D01*
X124522932Y-63544800D02*
X124522932Y-64954500D01*
X124522932Y-64256000D02*
X123481532Y-63557500D01*
X127812232Y-64256000D02*
X126847032Y-64256000D01*
X133173732Y-75365300D02*
X133859532Y-76394000D01*
X133872232Y-73053900D02*
X133872232Y-72076000D01*
X133872232Y-76406700D02*
X134570732Y-75365300D01*
X133872232Y-79696000D02*
X133872232Y-78730800D01*
X134570732Y-75365300D02*
X133173732Y-75365300D01*
X134583432Y-76406700D02*
X133173732Y-76406700D01*
X133173732Y-92365300D02*
X133859532Y-93394000D01*
X133872232Y-90053900D02*
X133872232Y-89076000D01*
X133872232Y-93406700D02*
X134570732Y-92365300D01*
X133872232Y-96696000D02*
X133872232Y-95730800D01*
X134570732Y-92365300D02*
X133173732Y-92365300D01*
X134583432Y-93406700D02*
X133173732Y-93406700D01*
X121170132Y-103256000D02*
X120192232Y-103256000D01*
X123481532Y-102557500D02*
X123481532Y-103954500D01*
X123481532Y-103954500D02*
X124510232Y-103268700D01*
X124522932Y-102544800D02*
X124522932Y-103954500D01*
X124522932Y-103256000D02*
X123481532Y-102557500D01*
X127812232Y-103256000D02*
X126847032Y-103256000D01*
X114673732Y-74282300D02*
X115359532Y-75311000D01*
X115372232Y-71970900D02*
X115372232Y-70993000D01*
X115372232Y-75323700D02*
X116070732Y-74282300D01*
X115372232Y-78613000D02*
X115372232Y-77647800D01*
X116070732Y-74282300D02*
X114673732Y-74282300D01*
X116083432Y-75323700D02*
X114673732Y-75323700D01*
X114673732Y-89365300D02*
X115359532Y-90394000D01*
X115372232Y-87053900D02*
X115372232Y-86076000D01*
X115372232Y-90406700D02*
X116070732Y-89365300D01*
X115372232Y-93696000D02*
X115372232Y-92730800D01*
X116070732Y-89365300D02*
X114673732Y-89365300D01*
X116083432Y-90406700D02*
X114673732Y-90406700D01*
X114673732Y-102857300D02*
X115359532Y-103886000D01*
X115372232Y-100545900D02*
X115372232Y-99568000D01*
X115372232Y-103898700D02*
X116070732Y-102857300D01*
X115372232Y-107188000D02*
X115372232Y-106222800D01*
X116070732Y-102857300D02*
X114673732Y-102857300D01*
X116083432Y-103898700D02*
X114673732Y-103898700D01*
X114173732Y-118105300D02*
X114859532Y-119134000D01*
X114872232Y-115793900D02*
X114872232Y-114816000D01*
X114872232Y-119146700D02*
X115570732Y-118105300D01*
X114872232Y-122436000D02*
X114872232Y-121470800D01*
X115570732Y-118105300D02*
X114173732Y-118105300D01*
X115583432Y-119146700D02*
X114173732Y-119146700D01*
X216910132Y-124256000D02*
X215932232Y-124256000D01*
X219221532Y-123557500D02*
X219221532Y-124954500D01*
X219221532Y-124954500D02*
X220250232Y-124268700D01*
X220262932Y-123544800D02*
X220262932Y-124954500D01*
X220262932Y-124256000D02*
X219221532Y-123557500D01*
X223552232Y-124256000D02*
X222587032Y-124256000D01*
X190673732Y-129365300D02*
X191359532Y-130394000D01*
X191372232Y-127053900D02*
X191372232Y-126076000D01*
X191372232Y-130406700D02*
X192070732Y-129365300D01*
X191372232Y-133696000D02*
X191372232Y-132730800D01*
X192070732Y-129365300D02*
X190673732Y-129365300D01*
X192083432Y-130406700D02*
X190673732Y-130406700D01*
X177910132Y-138256000D02*
X176932232Y-138256000D01*
X180221532Y-137557500D02*
X180221532Y-138954500D01*
X180221532Y-138954500D02*
X181250232Y-138268700D01*
X181262932Y-137544800D02*
X181262932Y-138954500D01*
X181262932Y-138256000D02*
X180221532Y-137557500D01*
X184552232Y-138256000D02*
X183587032Y-138256000D01*
X123984296Y-128346000D02*
X124820184Y-127863400D01*
X126832914Y-126701350D02*
X128084042Y-126785569D01*
X127188514Y-127317267D02*
X126483664Y-126096431D01*
X127385542Y-125575731D02*
X126837562Y-126684001D01*
X128084042Y-126785569D02*
X127385542Y-125575731D01*
X129736524Y-125024950D02*
X130583410Y-124536000D01*
X120271182Y-131214950D02*
X119782232Y-130368064D01*
X120821963Y-133565932D02*
X121930233Y-134113912D01*
X121947582Y-134118560D02*
X122031801Y-132867432D01*
X122031801Y-132867432D02*
X120821963Y-133565932D01*
X122563499Y-133762960D02*
X121342663Y-134467810D01*
X123592232Y-136967178D02*
X123109632Y-136131290D01*
X171673732Y-126839300D02*
X172359532Y-127868000D01*
X172372232Y-124527900D02*
X172372232Y-123550000D01*
X172372232Y-127880700D02*
X173070732Y-126839300D01*
X172372232Y-131170000D02*
X172372232Y-130204800D01*
X173070732Y-126839300D02*
X171673732Y-126839300D01*
X173083432Y-127880700D02*
X171673732Y-127880700D01*
X159170132Y-78756000D02*
X158192232Y-78756000D01*
X161481532Y-78057500D02*
X161481532Y-79454500D01*
X161481532Y-79454500D02*
X162510232Y-78768700D01*
X162522932Y-78044800D02*
X162522932Y-79454500D01*
X162522932Y-78756000D02*
X161481532Y-78057500D01*
X165812232Y-78756000D02*
X164847032Y-78756000D01*
X140670132Y-81256000D02*
X139692232Y-81256000D01*
X142981532Y-80557500D02*
X142981532Y-81954500D01*
X142981532Y-81954500D02*
X144010232Y-81268700D01*
X144022932Y-80544800D02*
X144022932Y-81954500D01*
X144022932Y-81256000D02*
X142981532Y-80557500D01*
X147312232Y-81256000D02*
X146347032Y-81256000D01*
%LPC*%
D15*
X146036232Y-39624000D03*
X141036232Y-39624000D03*
D16*
X147036232Y-42124000D03*
X140036232Y-42124000D03*
D17*
X171730232Y-81788000D03*
X114580232Y-65024000D03*
X120549232Y-124714000D03*
X209830232Y-67564000D03*
X209830232Y-124968000D03*
D18*
X113278232Y-46204000D03*
X109278232Y-46204000D03*
X113278232Y-53204000D03*
X109278232Y-53204000D03*
D19*
X111278232Y-55004000D03*
X111278232Y-48004000D03*
X111278232Y-51004000D03*
X115278232Y-56504000D03*
X107278232Y-56504000D03*
D17*
X171222232Y-117348000D03*
X177953232Y-42672000D03*
D15*
X169825232Y-39370000D03*
X169825232Y-41910000D03*
X169825232Y-44450000D03*
X169825232Y-46990000D03*
X169825232Y-49530000D03*
X169825232Y-52070000D03*
X169825232Y-54610000D03*
X169825232Y-57150000D03*
X169825232Y-59690000D03*
X169825232Y-62230000D03*
X169825232Y-64770000D03*
X169825232Y-67310000D03*
X154585232Y-67310000D03*
X154585232Y-64770000D03*
X154585232Y-62230000D03*
X154585232Y-59690000D03*
X154585232Y-57150000D03*
X154585232Y-54610000D03*
X154585232Y-52070000D03*
X154585232Y-49530000D03*
X154585232Y-46990000D03*
X154585232Y-44450000D03*
X154585232Y-41910000D03*
X154585232Y-39370000D03*
D20*
X103872232Y-151256000D03*
D21*
X100884444Y-152981000D03*
X98061202Y-154611000D03*
D22*
X95073414Y-156336000D03*
D23*
X226440232Y-55435500D03*
D24*
X224435232Y-57975500D03*
D25*
X219355232Y-57975500D03*
D24*
X214275232Y-57975500D03*
D23*
X213513232Y-52895500D03*
D26*
X223165232Y-55435500D03*
X216815232Y-52895500D03*
D23*
X226440232Y-74485500D03*
D24*
X224435232Y-77025500D03*
D25*
X219355232Y-77025500D03*
D24*
X214275232Y-77025500D03*
D23*
X213513232Y-71945500D03*
D26*
X223165232Y-74485500D03*
X216815232Y-71945500D03*
D23*
X226440232Y-93535500D03*
D24*
X224435232Y-96075500D03*
D25*
X219355232Y-96075500D03*
D24*
X214275232Y-96075500D03*
D23*
X213513232Y-90995500D03*
D26*
X223165232Y-93535500D03*
X216815232Y-90995500D03*
D23*
X226440232Y-112585500D03*
D24*
X224435232Y-115125500D03*
D25*
X219355232Y-115125500D03*
D24*
X214275232Y-115125500D03*
D23*
X213513232Y-110045500D03*
D26*
X223165232Y-112585500D03*
X216815232Y-110045500D03*
D23*
X207390232Y-55435500D03*
D24*
X205385232Y-57975500D03*
D25*
X200305232Y-57975500D03*
D24*
X195225232Y-57975500D03*
D23*
X194463232Y-52895500D03*
D26*
X204115232Y-55435500D03*
X197765232Y-52895500D03*
D23*
X207390232Y-74485500D03*
D24*
X205385232Y-77025500D03*
D25*
X200305232Y-77025500D03*
D24*
X195225232Y-77025500D03*
D23*
X194463232Y-71945500D03*
D26*
X204115232Y-74485500D03*
X197765232Y-71945500D03*
D23*
X207390232Y-93535500D03*
D24*
X205385232Y-96075500D03*
D25*
X200305232Y-96075500D03*
D24*
X195225232Y-96075500D03*
D23*
X194463232Y-90995500D03*
D26*
X204115232Y-93535500D03*
X197765232Y-90995500D03*
D23*
X207390232Y-112585500D03*
D24*
X205385232Y-115125500D03*
D25*
X200305232Y-115125500D03*
D24*
X195225232Y-115125500D03*
D23*
X194463232Y-110045500D03*
D26*
X204115232Y-112585500D03*
X197765232Y-110045500D03*
D23*
X188340232Y-50673000D03*
D24*
X186335232Y-53213000D03*
D25*
X181255232Y-53213000D03*
D24*
X176175232Y-53213000D03*
D23*
X175413232Y-48133000D03*
D26*
X185065232Y-50673000D03*
X178715232Y-48133000D03*
D23*
X188340232Y-69723000D03*
D24*
X186335232Y-72263000D03*
D25*
X181255232Y-72263000D03*
D24*
X176175232Y-72263000D03*
D23*
X175413232Y-67183000D03*
D26*
X185065232Y-69723000D03*
X178715232Y-67183000D03*
D23*
X188340232Y-88773000D03*
D24*
X186335232Y-91313000D03*
D25*
X181255232Y-91313000D03*
D24*
X176175232Y-91313000D03*
D23*
X175413232Y-86233000D03*
D26*
X185065232Y-88773000D03*
X178715232Y-86233000D03*
D23*
X188340232Y-107823000D03*
D24*
X186335232Y-110363000D03*
D25*
X181255232Y-110363000D03*
D24*
X176175232Y-110363000D03*
D23*
X175413232Y-105283000D03*
D26*
X185065232Y-107823000D03*
X178715232Y-105283000D03*
D27*
X159665232Y-43746750D03*
D24*
X162205232Y-45751750D03*
D25*
X162205232Y-50831750D03*
D24*
X162205232Y-55911750D03*
D27*
X157125232Y-56673750D03*
D26*
X159665232Y-47021750D03*
X157125232Y-53371750D03*
D27*
X159665232Y-62796750D03*
D24*
X162205232Y-64801750D03*
D25*
X162205232Y-69881750D03*
D24*
X162205232Y-74961750D03*
D27*
X157125232Y-75723750D03*
D26*
X159665232Y-66071750D03*
X157125232Y-72421750D03*
D23*
X169290232Y-86391750D03*
D24*
X167285232Y-88931750D03*
D25*
X162205232Y-88931750D03*
D24*
X157125232Y-88931750D03*
D23*
X156363232Y-83851750D03*
D26*
X166015232Y-86391750D03*
X159665232Y-83851750D03*
D23*
X169290232Y-105441750D03*
D24*
X167285232Y-107981750D03*
D25*
X162205232Y-107981750D03*
D24*
X157125232Y-107981750D03*
D23*
X156363232Y-102901750D03*
D26*
X166015232Y-105441750D03*
X159665232Y-102901750D03*
D23*
X150240232Y-50673000D03*
D24*
X148235232Y-53213000D03*
D25*
X143155232Y-53213000D03*
D24*
X138075232Y-53213000D03*
D23*
X137313232Y-48133000D03*
D26*
X146965232Y-50673000D03*
X140615232Y-48133000D03*
D23*
X150240232Y-69723000D03*
D24*
X148235232Y-72263000D03*
D25*
X143155232Y-72263000D03*
D24*
X138075232Y-72263000D03*
D23*
X137313232Y-67183000D03*
D26*
X146965232Y-69723000D03*
X140615232Y-67183000D03*
D23*
X150240232Y-88773000D03*
D24*
X148235232Y-91313000D03*
D25*
X143155232Y-91313000D03*
D24*
X138075232Y-91313000D03*
D23*
X137313232Y-86233000D03*
D26*
X146965232Y-88773000D03*
X140615232Y-86233000D03*
D23*
X150240232Y-107823000D03*
D24*
X148235232Y-110363000D03*
D25*
X143155232Y-110363000D03*
D24*
X138075232Y-110363000D03*
D23*
X137313232Y-105283000D03*
D26*
X146965232Y-107823000D03*
X140615232Y-105283000D03*
D23*
X131190232Y-53054250D03*
D24*
X129185232Y-55594250D03*
D25*
X124105232Y-55594250D03*
D24*
X119025232Y-55594250D03*
D23*
X118263232Y-50514250D03*
D26*
X127915232Y-53054250D03*
X121565232Y-50514250D03*
D23*
X131190232Y-72104250D03*
D24*
X129185232Y-74644250D03*
D25*
X124105232Y-74644250D03*
D24*
X119025232Y-74644250D03*
D23*
X118263232Y-69564250D03*
D26*
X127915232Y-72104250D03*
X121565232Y-69564250D03*
D23*
X131190232Y-91154250D03*
D24*
X129185232Y-93694250D03*
D25*
X124105232Y-93694250D03*
D24*
X119025232Y-93694250D03*
D23*
X118263232Y-88614250D03*
D26*
X127915232Y-91154250D03*
X121565232Y-88614250D03*
D23*
X131190232Y-110204250D03*
D24*
X129185232Y-112744250D03*
D25*
X124105232Y-112744250D03*
D24*
X119025232Y-112744250D03*
D23*
X118263232Y-107664250D03*
D26*
X127915232Y-110204250D03*
X121565232Y-107664250D03*
D23*
X112140232Y-62579250D03*
D24*
X110135232Y-65119250D03*
D25*
X105055232Y-65119250D03*
D24*
X99975232Y-65119250D03*
D23*
X99213232Y-60039250D03*
D26*
X108865232Y-62579250D03*
X102515232Y-60039250D03*
D23*
X112140232Y-81629250D03*
D24*
X110135232Y-84169250D03*
D25*
X105055232Y-84169250D03*
D24*
X99975232Y-84169250D03*
D23*
X99213232Y-79089250D03*
D26*
X108865232Y-81629250D03*
X102515232Y-79089250D03*
D23*
X112140232Y-100679250D03*
D24*
X110135232Y-103219250D03*
D25*
X105055232Y-103219250D03*
D24*
X99975232Y-103219250D03*
D23*
X99213232Y-98139250D03*
D26*
X108865232Y-100679250D03*
X102515232Y-98139250D03*
D28*
X100293027Y-122336510D03*
D24*
X103495232Y-122802891D03*
D25*
X106035232Y-127202300D03*
D24*
X108575232Y-131601709D03*
D28*
X104556823Y-134801620D03*
D26*
X101930527Y-125172743D03*
X102905823Y-131942005D03*
D23*
X226440232Y-131635500D03*
D24*
X224435232Y-134175500D03*
D25*
X219355232Y-134175500D03*
D24*
X214275232Y-134175500D03*
D23*
X213513232Y-129095500D03*
D26*
X223165232Y-131635500D03*
X216815232Y-129095500D03*
D23*
X207390232Y-131635500D03*
D24*
X205385232Y-134175500D03*
D25*
X200305232Y-134175500D03*
D24*
X195225232Y-134175500D03*
D23*
X194463232Y-129095500D03*
D26*
X204115232Y-131635500D03*
X197765232Y-129095500D03*
D23*
X188340232Y-126873000D03*
D24*
X186335232Y-129413000D03*
D25*
X181255232Y-129413000D03*
D24*
X176175232Y-129413000D03*
D23*
X175413232Y-124333000D03*
D26*
X185065232Y-126873000D03*
X178715232Y-124333000D03*
D23*
X169290232Y-124491750D03*
D24*
X167285232Y-127031750D03*
D25*
X162205232Y-127031750D03*
D24*
X157125232Y-127031750D03*
D23*
X156363232Y-121951750D03*
D26*
X166015232Y-124491750D03*
X159665232Y-121951750D03*
D29*
X137800437Y-139041040D03*
D24*
X134598232Y-138574659D03*
D25*
X132058232Y-134175250D03*
D24*
X129518232Y-129775841D03*
D29*
X133536641Y-126575930D03*
D26*
X136162937Y-136204807D03*
X135187641Y-129435545D03*
D28*
X109818027Y-138834510D03*
D24*
X113020232Y-139300891D03*
D25*
X115560232Y-143700300D03*
D24*
X118100232Y-148099709D03*
D28*
X114081823Y-151299620D03*
D26*
X111455527Y-141670743D03*
X112430823Y-148440005D03*
D29*
X100041937Y-149842090D03*
D24*
X96839732Y-149375709D03*
D25*
X94299732Y-144976300D03*
D24*
X91759732Y-140576891D03*
D29*
X95778141Y-137376980D03*
D26*
X98404437Y-147005857D03*
X97429141Y-140236595D03*
D30*
X210372232Y-62992000D03*
D31*
X210372232Y-59542000D03*
X210372232Y-56282000D03*
D32*
X210372232Y-52832000D03*
D30*
X210372232Y-82169000D03*
D31*
X210372232Y-78719000D03*
X210372232Y-75459000D03*
D32*
X210372232Y-72009000D03*
D30*
X210372232Y-101092000D03*
D31*
X210372232Y-97642000D03*
X210372232Y-94382000D03*
D32*
X210372232Y-90932000D03*
D30*
X210372232Y-120121000D03*
D31*
X210372232Y-116671000D03*
X210372232Y-113411000D03*
D32*
X210372232Y-109961000D03*
D30*
X190872232Y-62466000D03*
D31*
X190872232Y-59016000D03*
X190872232Y-55756000D03*
D32*
X190872232Y-52306000D03*
D30*
X191372232Y-81966000D03*
D31*
X191372232Y-78516000D03*
X191372232Y-75256000D03*
D32*
X191372232Y-71806000D03*
D30*
X191372232Y-101092000D03*
D31*
X191372232Y-97642000D03*
X191372232Y-94382000D03*
D32*
X191372232Y-90932000D03*
D30*
X191372232Y-120142000D03*
D31*
X191372232Y-116692000D03*
X191372232Y-113432000D03*
D32*
X191372232Y-109982000D03*
D30*
X186532232Y-62256000D03*
D33*
X183082232Y-62256000D03*
X179822232Y-62256000D03*
D32*
X176372232Y-62256000D03*
D30*
X186322232Y-81256000D03*
D33*
X182872232Y-81256000D03*
X179612232Y-81256000D03*
D32*
X176162232Y-81256000D03*
D30*
X186082232Y-100256000D03*
D33*
X182632232Y-100256000D03*
X179372232Y-100256000D03*
D32*
X175922232Y-100256000D03*
D30*
X172372232Y-112649000D03*
D31*
X172372232Y-109199000D03*
X172372232Y-105939000D03*
D32*
X172372232Y-102489000D03*
D30*
X172372232Y-77356000D03*
D31*
X172372232Y-73906000D03*
X172372232Y-70646000D03*
D32*
X172372232Y-67196000D03*
D30*
X153372232Y-80772000D03*
D31*
X153372232Y-77322000D03*
X153372232Y-74062000D03*
D32*
X153372232Y-70612000D03*
D30*
X167082232Y-98256000D03*
D33*
X163632232Y-98256000D03*
X160372232Y-98256000D03*
D32*
X156922232Y-98256000D03*
D30*
X133872232Y-61087000D03*
D31*
X133872232Y-57637000D03*
X133872232Y-54377000D03*
D32*
X133872232Y-50927000D03*
D30*
X153372232Y-97134000D03*
D31*
X153372232Y-93684000D03*
X153372232Y-90424000D03*
D32*
X153372232Y-86974000D03*
D30*
X133872232Y-115466000D03*
D31*
X133872232Y-112016000D03*
X133872232Y-108756000D03*
D32*
X133872232Y-105306000D03*
D30*
X129082232Y-64256000D03*
D33*
X125632232Y-64256000D03*
X122372232Y-64256000D03*
D32*
X118922232Y-64256000D03*
D30*
X133872232Y-80966000D03*
D31*
X133872232Y-77516000D03*
X133872232Y-74256000D03*
D32*
X133872232Y-70806000D03*
D30*
X133872232Y-97966000D03*
D31*
X133872232Y-94516000D03*
X133872232Y-91256000D03*
D32*
X133872232Y-87806000D03*
D30*
X129082232Y-103256000D03*
D33*
X125632232Y-103256000D03*
X122372232Y-103256000D03*
D32*
X118922232Y-103256000D03*
D30*
X115372232Y-79883000D03*
D31*
X115372232Y-76433000D03*
X115372232Y-73173000D03*
D32*
X115372232Y-69723000D03*
D30*
X115372232Y-94966000D03*
D31*
X115372232Y-91516000D03*
X115372232Y-88256000D03*
D32*
X115372232Y-84806000D03*
D30*
X115372232Y-108458000D03*
D31*
X115372232Y-105008000D03*
X115372232Y-101748000D03*
D32*
X115372232Y-98298000D03*
D30*
X114872232Y-123706000D03*
D31*
X114872232Y-120256000D03*
X114872232Y-116996000D03*
D32*
X114872232Y-113546000D03*
D30*
X224822232Y-124256000D03*
D33*
X221372232Y-124256000D03*
X218112232Y-124256000D03*
D32*
X214662232Y-124256000D03*
D30*
X191372232Y-134966000D03*
D31*
X191372232Y-131516000D03*
X191372232Y-128256000D03*
D32*
X191372232Y-124806000D03*
D30*
X185822232Y-138256000D03*
D33*
X182372232Y-138256000D03*
X179112232Y-138256000D03*
D32*
X175662232Y-138256000D03*
D34*
X122884444Y-128981000D03*
D35*
X125872232Y-127256000D03*
X128695474Y-125626000D03*
D36*
X131683262Y-123901000D03*
D37*
X124227232Y-138067030D03*
D38*
X122502232Y-135079242D03*
X120872232Y-132256000D03*
D39*
X119147232Y-129268212D03*
D40*
X95479772Y-130510189D03*
D41*
X82281545Y-138130189D03*
D40*
X107417772Y-151187411D03*
D41*
X94219545Y-158807411D03*
D30*
X172372232Y-132440000D03*
D31*
X172372232Y-128990000D03*
X172372232Y-125730000D03*
D32*
X172372232Y-122280000D03*
D30*
X167082232Y-78756000D03*
D33*
X163632232Y-78756000D03*
X160372232Y-78756000D03*
D32*
X156922232Y-78756000D03*
D30*
X148582232Y-81256000D03*
D33*
X145132232Y-81256000D03*
X141872232Y-81256000D03*
D32*
X138422232Y-81256000D03*
%LPD*%
M02*
