%TF.GenerationSoftware,KiCad,Pcbnew,10.0.3*%
%TF.CreationDate,2026-06-28T12:53:24+09:00*%
%TF.ProjectId,ergodash,6572676f-6461-4736-982e-6b696361645f,2.1*%
%TF.SameCoordinates,Original*%
%TF.FileFunction,Legend,Bot*%
%TF.FilePolarity,Positive*%
%FSLAX46Y46*%
G04 Gerber Fmt 4.6, Leading zero omitted, Abs format (unit mm)*
G04 Created by KiCad (PCBNEW 10.0.3) date 2026-06-28 12:53:24*
%MOMM*%
%LPD*%
G01*
G04 APERTURE LIST*
%ADD10C,0.150000*%
%ADD11C,0.270000*%
%ADD12C,0.300000*%
%ADD13C,0.120000*%
%ADD14C,0.000000*%
%ADD15C,1.524000*%
G04 APERTURE END LIST*
D10*
X153069792Y-39625819D02*
X153403125Y-39149628D01*
X153641220Y-39625819D02*
X153641220Y-38625819D01*
X153641220Y-38625819D02*
X153260268Y-38625819D01*
X153260268Y-38625819D02*
X153165030Y-38673438D01*
X153165030Y-38673438D02*
X153117411Y-38721057D01*
X153117411Y-38721057D02*
X153069792Y-38816295D01*
X153069792Y-38816295D02*
X153069792Y-38959152D01*
X153069792Y-38959152D02*
X153117411Y-39054390D01*
X153117411Y-39054390D02*
X153165030Y-39102009D01*
X153165030Y-39102009D02*
X153260268Y-39149628D01*
X153260268Y-39149628D02*
X153641220Y-39149628D01*
X152688839Y-39340104D02*
X152212649Y-39340104D01*
X152784077Y-39625819D02*
X152450744Y-38625819D01*
X152450744Y-38625819D02*
X152117411Y-39625819D01*
X151879315Y-38625819D02*
X151641220Y-39625819D01*
X151641220Y-39625819D02*
X151450744Y-38911533D01*
X151450744Y-38911533D02*
X151260268Y-39625819D01*
X151260268Y-39625819D02*
X151022173Y-38625819D01*
X153117411Y-41173438D02*
X153212649Y-41125819D01*
X153212649Y-41125819D02*
X153355506Y-41125819D01*
X153355506Y-41125819D02*
X153498363Y-41173438D01*
X153498363Y-41173438D02*
X153593601Y-41268676D01*
X153593601Y-41268676D02*
X153641220Y-41363914D01*
X153641220Y-41363914D02*
X153688839Y-41554390D01*
X153688839Y-41554390D02*
X153688839Y-41697247D01*
X153688839Y-41697247D02*
X153641220Y-41887723D01*
X153641220Y-41887723D02*
X153593601Y-41982961D01*
X153593601Y-41982961D02*
X153498363Y-42078200D01*
X153498363Y-42078200D02*
X153355506Y-42125819D01*
X153355506Y-42125819D02*
X153260268Y-42125819D01*
X153260268Y-42125819D02*
X153117411Y-42078200D01*
X153117411Y-42078200D02*
X153069792Y-42030580D01*
X153069792Y-42030580D02*
X153069792Y-41697247D01*
X153069792Y-41697247D02*
X153260268Y-41697247D01*
X152641220Y-42125819D02*
X152641220Y-41125819D01*
X152641220Y-41125819D02*
X152069792Y-42125819D01*
X152069792Y-42125819D02*
X152069792Y-41125819D01*
X151593601Y-42125819D02*
X151593601Y-41125819D01*
X151593601Y-41125819D02*
X151355506Y-41125819D01*
X151355506Y-41125819D02*
X151212649Y-41173438D01*
X151212649Y-41173438D02*
X151117411Y-41268676D01*
X151117411Y-41268676D02*
X151069792Y-41363914D01*
X151069792Y-41363914D02*
X151022173Y-41554390D01*
X151022173Y-41554390D02*
X151022173Y-41697247D01*
X151022173Y-41697247D02*
X151069792Y-41887723D01*
X151069792Y-41887723D02*
X151117411Y-41982961D01*
X151117411Y-41982961D02*
X151212649Y-42078200D01*
X151212649Y-42078200D02*
X151355506Y-42125819D01*
X151355506Y-42125819D02*
X151593601Y-42125819D01*
X153069792Y-44625819D02*
X153403125Y-44149628D01*
X153641220Y-44625819D02*
X153641220Y-43625819D01*
X153641220Y-43625819D02*
X153260268Y-43625819D01*
X153260268Y-43625819D02*
X153165030Y-43673438D01*
X153165030Y-43673438D02*
X153117411Y-43721057D01*
X153117411Y-43721057D02*
X153069792Y-43816295D01*
X153069792Y-43816295D02*
X153069792Y-43959152D01*
X153069792Y-43959152D02*
X153117411Y-44054390D01*
X153117411Y-44054390D02*
X153165030Y-44102009D01*
X153165030Y-44102009D02*
X153260268Y-44149628D01*
X153260268Y-44149628D02*
X153641220Y-44149628D01*
X152688839Y-44578200D02*
X152545982Y-44625819D01*
X152545982Y-44625819D02*
X152307887Y-44625819D01*
X152307887Y-44625819D02*
X152212649Y-44578200D01*
X152212649Y-44578200D02*
X152165030Y-44530580D01*
X152165030Y-44530580D02*
X152117411Y-44435342D01*
X152117411Y-44435342D02*
X152117411Y-44340104D01*
X152117411Y-44340104D02*
X152165030Y-44244866D01*
X152165030Y-44244866D02*
X152212649Y-44197247D01*
X152212649Y-44197247D02*
X152307887Y-44149628D01*
X152307887Y-44149628D02*
X152498363Y-44102009D01*
X152498363Y-44102009D02*
X152593601Y-44054390D01*
X152593601Y-44054390D02*
X152641220Y-44006771D01*
X152641220Y-44006771D02*
X152688839Y-43911533D01*
X152688839Y-43911533D02*
X152688839Y-43816295D01*
X152688839Y-43816295D02*
X152641220Y-43721057D01*
X152641220Y-43721057D02*
X152593601Y-43673438D01*
X152593601Y-43673438D02*
X152498363Y-43625819D01*
X152498363Y-43625819D02*
X152260268Y-43625819D01*
X152260268Y-43625819D02*
X152117411Y-43673438D01*
X151831696Y-43625819D02*
X151260268Y-43625819D01*
X151545982Y-44625819D02*
X151545982Y-43625819D01*
X174784077Y-39125819D02*
X174212649Y-39125819D01*
X174498363Y-40125819D02*
X174498363Y-39125819D01*
X173974553Y-39125819D02*
X173307887Y-40125819D01*
X173307887Y-39125819D02*
X173974553Y-40125819D01*
X172736458Y-39125819D02*
X172641220Y-39125819D01*
X172641220Y-39125819D02*
X172545982Y-39173438D01*
X172545982Y-39173438D02*
X172498363Y-39221057D01*
X172498363Y-39221057D02*
X172450744Y-39316295D01*
X172450744Y-39316295D02*
X172403125Y-39506771D01*
X172403125Y-39506771D02*
X172403125Y-39744866D01*
X172403125Y-39744866D02*
X172450744Y-39935342D01*
X172450744Y-39935342D02*
X172498363Y-40030580D01*
X172498363Y-40030580D02*
X172545982Y-40078200D01*
X172545982Y-40078200D02*
X172641220Y-40125819D01*
X172641220Y-40125819D02*
X172736458Y-40125819D01*
X172736458Y-40125819D02*
X172831696Y-40078200D01*
X172831696Y-40078200D02*
X172879315Y-40030580D01*
X172879315Y-40030580D02*
X172926934Y-39935342D01*
X172926934Y-39935342D02*
X172974553Y-39744866D01*
X172974553Y-39744866D02*
X172974553Y-39506771D01*
X172974553Y-39506771D02*
X172926934Y-39316295D01*
X172926934Y-39316295D02*
X172879315Y-39221057D01*
X172879315Y-39221057D02*
X172831696Y-39173438D01*
X172831696Y-39173438D02*
X172736458Y-39125819D01*
X174569792Y-42125819D02*
X174903125Y-41649628D01*
X175141220Y-42125819D02*
X175141220Y-41125819D01*
X175141220Y-41125819D02*
X174760268Y-41125819D01*
X174760268Y-41125819D02*
X174665030Y-41173438D01*
X174665030Y-41173438D02*
X174617411Y-41221057D01*
X174617411Y-41221057D02*
X174569792Y-41316295D01*
X174569792Y-41316295D02*
X174569792Y-41459152D01*
X174569792Y-41459152D02*
X174617411Y-41554390D01*
X174617411Y-41554390D02*
X174665030Y-41602009D01*
X174665030Y-41602009D02*
X174760268Y-41649628D01*
X174760268Y-41649628D02*
X175141220Y-41649628D01*
X174236458Y-41125819D02*
X173569792Y-42125819D01*
X173569792Y-41125819D02*
X174236458Y-42125819D01*
X172665030Y-42125819D02*
X173236458Y-42125819D01*
X172950744Y-42125819D02*
X172950744Y-41125819D01*
X172950744Y-41125819D02*
X173045982Y-41268676D01*
X173045982Y-41268676D02*
X173141220Y-41363914D01*
X173141220Y-41363914D02*
X173236458Y-41411533D01*
X174617411Y-44173438D02*
X174712649Y-44125819D01*
X174712649Y-44125819D02*
X174855506Y-44125819D01*
X174855506Y-44125819D02*
X174998363Y-44173438D01*
X174998363Y-44173438D02*
X175093601Y-44268676D01*
X175093601Y-44268676D02*
X175141220Y-44363914D01*
X175141220Y-44363914D02*
X175188839Y-44554390D01*
X175188839Y-44554390D02*
X175188839Y-44697247D01*
X175188839Y-44697247D02*
X175141220Y-44887723D01*
X175141220Y-44887723D02*
X175093601Y-44982961D01*
X175093601Y-44982961D02*
X174998363Y-45078200D01*
X174998363Y-45078200D02*
X174855506Y-45125819D01*
X174855506Y-45125819D02*
X174760268Y-45125819D01*
X174760268Y-45125819D02*
X174617411Y-45078200D01*
X174617411Y-45078200D02*
X174569792Y-45030580D01*
X174569792Y-45030580D02*
X174569792Y-44697247D01*
X174569792Y-44697247D02*
X174760268Y-44697247D01*
X174141220Y-45125819D02*
X174141220Y-44125819D01*
X174141220Y-44125819D02*
X173569792Y-45125819D01*
X173569792Y-45125819D02*
X173569792Y-44125819D01*
X173093601Y-45125819D02*
X173093601Y-44125819D01*
X173093601Y-44125819D02*
X172855506Y-44125819D01*
X172855506Y-44125819D02*
X172712649Y-44173438D01*
X172712649Y-44173438D02*
X172617411Y-44268676D01*
X172617411Y-44268676D02*
X172569792Y-44363914D01*
X172569792Y-44363914D02*
X172522173Y-44554390D01*
X172522173Y-44554390D02*
X172522173Y-44697247D01*
X172522173Y-44697247D02*
X172569792Y-44887723D01*
X172569792Y-44887723D02*
X172617411Y-44982961D01*
X172617411Y-44982961D02*
X172712649Y-45078200D01*
X172712649Y-45078200D02*
X172855506Y-45125819D01*
X172855506Y-45125819D02*
X173093601Y-45125819D01*
D11*
X163606571Y-137182868D02*
X163006571Y-137182868D01*
X162749428Y-138125725D02*
X163606571Y-138125725D01*
X163606571Y-138125725D02*
X163606571Y-136325725D01*
X163606571Y-136325725D02*
X162749428Y-136325725D01*
X161978000Y-138125725D02*
X161978000Y-136925725D01*
X161978000Y-137268582D02*
X161892286Y-137097153D01*
X161892286Y-137097153D02*
X161806572Y-137011439D01*
X161806572Y-137011439D02*
X161635143Y-136925725D01*
X161635143Y-136925725D02*
X161463714Y-136925725D01*
X160092286Y-136925725D02*
X160092286Y-138382868D01*
X160092286Y-138382868D02*
X160178000Y-138554296D01*
X160178000Y-138554296D02*
X160263714Y-138640011D01*
X160263714Y-138640011D02*
X160435143Y-138725725D01*
X160435143Y-138725725D02*
X160692286Y-138725725D01*
X160692286Y-138725725D02*
X160863714Y-138640011D01*
X160092286Y-138040011D02*
X160263714Y-138125725D01*
X160263714Y-138125725D02*
X160606571Y-138125725D01*
X160606571Y-138125725D02*
X160778000Y-138040011D01*
X160778000Y-138040011D02*
X160863714Y-137954296D01*
X160863714Y-137954296D02*
X160949428Y-137782868D01*
X160949428Y-137782868D02*
X160949428Y-137268582D01*
X160949428Y-137268582D02*
X160863714Y-137097153D01*
X160863714Y-137097153D02*
X160778000Y-137011439D01*
X160778000Y-137011439D02*
X160606571Y-136925725D01*
X160606571Y-136925725D02*
X160263714Y-136925725D01*
X160263714Y-136925725D02*
X160092286Y-137011439D01*
X158978000Y-138125725D02*
X159149429Y-138040011D01*
X159149429Y-138040011D02*
X159235143Y-137954296D01*
X159235143Y-137954296D02*
X159320857Y-137782868D01*
X159320857Y-137782868D02*
X159320857Y-137268582D01*
X159320857Y-137268582D02*
X159235143Y-137097153D01*
X159235143Y-137097153D02*
X159149429Y-137011439D01*
X159149429Y-137011439D02*
X158978000Y-136925725D01*
X158978000Y-136925725D02*
X158720857Y-136925725D01*
X158720857Y-136925725D02*
X158549429Y-137011439D01*
X158549429Y-137011439D02*
X158463715Y-137097153D01*
X158463715Y-137097153D02*
X158378000Y-137268582D01*
X158378000Y-137268582D02*
X158378000Y-137782868D01*
X158378000Y-137782868D02*
X158463715Y-137954296D01*
X158463715Y-137954296D02*
X158549429Y-138040011D01*
X158549429Y-138040011D02*
X158720857Y-138125725D01*
X158720857Y-138125725D02*
X158978000Y-138125725D01*
X157606572Y-138125725D02*
X157606572Y-136325725D01*
X157606572Y-136325725D02*
X157178001Y-136325725D01*
X157178001Y-136325725D02*
X156920858Y-136411439D01*
X156920858Y-136411439D02*
X156749429Y-136582868D01*
X156749429Y-136582868D02*
X156663715Y-136754296D01*
X156663715Y-136754296D02*
X156578001Y-137097153D01*
X156578001Y-137097153D02*
X156578001Y-137354296D01*
X156578001Y-137354296D02*
X156663715Y-137697153D01*
X156663715Y-137697153D02*
X156749429Y-137868582D01*
X156749429Y-137868582D02*
X156920858Y-138040011D01*
X156920858Y-138040011D02*
X157178001Y-138125725D01*
X157178001Y-138125725D02*
X157606572Y-138125725D01*
X155035144Y-138125725D02*
X155035144Y-137182868D01*
X155035144Y-137182868D02*
X155120858Y-137011439D01*
X155120858Y-137011439D02*
X155292286Y-136925725D01*
X155292286Y-136925725D02*
X155635144Y-136925725D01*
X155635144Y-136925725D02*
X155806572Y-137011439D01*
X155035144Y-138040011D02*
X155206572Y-138125725D01*
X155206572Y-138125725D02*
X155635144Y-138125725D01*
X155635144Y-138125725D02*
X155806572Y-138040011D01*
X155806572Y-138040011D02*
X155892286Y-137868582D01*
X155892286Y-137868582D02*
X155892286Y-137697153D01*
X155892286Y-137697153D02*
X155806572Y-137525725D01*
X155806572Y-137525725D02*
X155635144Y-137440011D01*
X155635144Y-137440011D02*
X155206572Y-137440011D01*
X155206572Y-137440011D02*
X155035144Y-137354296D01*
X154263715Y-138040011D02*
X154092287Y-138125725D01*
X154092287Y-138125725D02*
X153749430Y-138125725D01*
X153749430Y-138125725D02*
X153578001Y-138040011D01*
X153578001Y-138040011D02*
X153492287Y-137868582D01*
X153492287Y-137868582D02*
X153492287Y-137782868D01*
X153492287Y-137782868D02*
X153578001Y-137611439D01*
X153578001Y-137611439D02*
X153749430Y-137525725D01*
X153749430Y-137525725D02*
X154006573Y-137525725D01*
X154006573Y-137525725D02*
X154178001Y-137440011D01*
X154178001Y-137440011D02*
X154263715Y-137268582D01*
X154263715Y-137268582D02*
X154263715Y-137182868D01*
X154263715Y-137182868D02*
X154178001Y-137011439D01*
X154178001Y-137011439D02*
X154006573Y-136925725D01*
X154006573Y-136925725D02*
X153749430Y-136925725D01*
X153749430Y-136925725D02*
X153578001Y-137011439D01*
X152720858Y-138125725D02*
X152720858Y-136325725D01*
X151949430Y-138125725D02*
X151949430Y-137182868D01*
X151949430Y-137182868D02*
X152035144Y-137011439D01*
X152035144Y-137011439D02*
X152206572Y-136925725D01*
X152206572Y-136925725D02*
X152463715Y-136925725D01*
X152463715Y-136925725D02*
X152635144Y-137011439D01*
X152635144Y-137011439D02*
X152720858Y-137097153D01*
X148692287Y-138125725D02*
X149292287Y-137268582D01*
X149720858Y-138125725D02*
X149720858Y-136325725D01*
X149720858Y-136325725D02*
X149035144Y-136325725D01*
X149035144Y-136325725D02*
X148863715Y-136411439D01*
X148863715Y-136411439D02*
X148778001Y-136497153D01*
X148778001Y-136497153D02*
X148692287Y-136668582D01*
X148692287Y-136668582D02*
X148692287Y-136925725D01*
X148692287Y-136925725D02*
X148778001Y-137097153D01*
X148778001Y-137097153D02*
X148863715Y-137182868D01*
X148863715Y-137182868D02*
X149035144Y-137268582D01*
X149035144Y-137268582D02*
X149720858Y-137268582D01*
X147235144Y-138040011D02*
X147406572Y-138125725D01*
X147406572Y-138125725D02*
X147749430Y-138125725D01*
X147749430Y-138125725D02*
X147920858Y-138040011D01*
X147920858Y-138040011D02*
X148006572Y-137868582D01*
X148006572Y-137868582D02*
X148006572Y-137182868D01*
X148006572Y-137182868D02*
X147920858Y-137011439D01*
X147920858Y-137011439D02*
X147749430Y-136925725D01*
X147749430Y-136925725D02*
X147406572Y-136925725D01*
X147406572Y-136925725D02*
X147235144Y-137011439D01*
X147235144Y-137011439D02*
X147149430Y-137182868D01*
X147149430Y-137182868D02*
X147149430Y-137354296D01*
X147149430Y-137354296D02*
X148006572Y-137525725D01*
X146549430Y-136925725D02*
X146120858Y-138125725D01*
X146120858Y-138125725D02*
X145692287Y-136925725D01*
X145006572Y-137954296D02*
X144920858Y-138040011D01*
X144920858Y-138040011D02*
X145006572Y-138125725D01*
X145006572Y-138125725D02*
X145092286Y-138040011D01*
X145092286Y-138040011D02*
X145006572Y-137954296D01*
X145006572Y-137954296D02*
X145006572Y-138125725D01*
X141835143Y-138125725D02*
X142863714Y-138125725D01*
X142349429Y-138125725D02*
X142349429Y-136325725D01*
X142349429Y-136325725D02*
X142520857Y-136582868D01*
X142520857Y-136582868D02*
X142692286Y-136754296D01*
X142692286Y-136754296D02*
X142863714Y-136840011D01*
X141063714Y-137954296D02*
X140978000Y-138040011D01*
X140978000Y-138040011D02*
X141063714Y-138125725D01*
X141063714Y-138125725D02*
X141149428Y-138040011D01*
X141149428Y-138040011D02*
X141063714Y-137954296D01*
X141063714Y-137954296D02*
X141063714Y-138125725D01*
X140292285Y-136497153D02*
X140206571Y-136411439D01*
X140206571Y-136411439D02*
X140035143Y-136325725D01*
X140035143Y-136325725D02*
X139606571Y-136325725D01*
X139606571Y-136325725D02*
X139435143Y-136411439D01*
X139435143Y-136411439D02*
X139349428Y-136497153D01*
X139349428Y-136497153D02*
X139263714Y-136668582D01*
X139263714Y-136668582D02*
X139263714Y-136840011D01*
X139263714Y-136840011D02*
X139349428Y-137097153D01*
X139349428Y-137097153D02*
X140378000Y-138125725D01*
X140378000Y-138125725D02*
X139263714Y-138125725D01*
X163735141Y-140937910D02*
X163477999Y-141023624D01*
X163477999Y-141023624D02*
X163049427Y-141023624D01*
X163049427Y-141023624D02*
X162877999Y-140937910D01*
X162877999Y-140937910D02*
X162792284Y-140852195D01*
X162792284Y-140852195D02*
X162706570Y-140680767D01*
X162706570Y-140680767D02*
X162706570Y-140509338D01*
X162706570Y-140509338D02*
X162792284Y-140337910D01*
X162792284Y-140337910D02*
X162877999Y-140252195D01*
X162877999Y-140252195D02*
X163049427Y-140166481D01*
X163049427Y-140166481D02*
X163392284Y-140080767D01*
X163392284Y-140080767D02*
X163563713Y-139995052D01*
X163563713Y-139995052D02*
X163649427Y-139909338D01*
X163649427Y-139909338D02*
X163735141Y-139737910D01*
X163735141Y-139737910D02*
X163735141Y-139566481D01*
X163735141Y-139566481D02*
X163649427Y-139395052D01*
X163649427Y-139395052D02*
X163563713Y-139309338D01*
X163563713Y-139309338D02*
X163392284Y-139223624D01*
X163392284Y-139223624D02*
X162963713Y-139223624D01*
X162963713Y-139223624D02*
X162706570Y-139309338D01*
X161677998Y-141023624D02*
X161849427Y-140937910D01*
X161849427Y-140937910D02*
X161935141Y-140852195D01*
X161935141Y-140852195D02*
X162020855Y-140680767D01*
X162020855Y-140680767D02*
X162020855Y-140166481D01*
X162020855Y-140166481D02*
X161935141Y-139995052D01*
X161935141Y-139995052D02*
X161849427Y-139909338D01*
X161849427Y-139909338D02*
X161677998Y-139823624D01*
X161677998Y-139823624D02*
X161420855Y-139823624D01*
X161420855Y-139823624D02*
X161249427Y-139909338D01*
X161249427Y-139909338D02*
X161163713Y-139995052D01*
X161163713Y-139995052D02*
X161077998Y-140166481D01*
X161077998Y-140166481D02*
X161077998Y-140680767D01*
X161077998Y-140680767D02*
X161163713Y-140852195D01*
X161163713Y-140852195D02*
X161249427Y-140937910D01*
X161249427Y-140937910D02*
X161420855Y-141023624D01*
X161420855Y-141023624D02*
X161677998Y-141023624D01*
X159535142Y-140937910D02*
X159706570Y-141023624D01*
X159706570Y-141023624D02*
X160049427Y-141023624D01*
X160049427Y-141023624D02*
X160220856Y-140937910D01*
X160220856Y-140937910D02*
X160306570Y-140852195D01*
X160306570Y-140852195D02*
X160392284Y-140680767D01*
X160392284Y-140680767D02*
X160392284Y-140166481D01*
X160392284Y-140166481D02*
X160306570Y-139995052D01*
X160306570Y-139995052D02*
X160220856Y-139909338D01*
X160220856Y-139909338D02*
X160049427Y-139823624D01*
X160049427Y-139823624D02*
X159706570Y-139823624D01*
X159706570Y-139823624D02*
X159535142Y-139909338D01*
X158763713Y-141023624D02*
X158763713Y-139223624D01*
X158592285Y-140337910D02*
X158077999Y-141023624D01*
X158077999Y-139823624D02*
X158763713Y-140509338D01*
X156620856Y-140937910D02*
X156792284Y-141023624D01*
X156792284Y-141023624D02*
X157135142Y-141023624D01*
X157135142Y-141023624D02*
X157306570Y-140937910D01*
X157306570Y-140937910D02*
X157392284Y-140766481D01*
X157392284Y-140766481D02*
X157392284Y-140080767D01*
X157392284Y-140080767D02*
X157306570Y-139909338D01*
X157306570Y-139909338D02*
X157135142Y-139823624D01*
X157135142Y-139823624D02*
X156792284Y-139823624D01*
X156792284Y-139823624D02*
X156620856Y-139909338D01*
X156620856Y-139909338D02*
X156535142Y-140080767D01*
X156535142Y-140080767D02*
X156535142Y-140252195D01*
X156535142Y-140252195D02*
X157392284Y-140423624D01*
X156020856Y-139823624D02*
X155335142Y-139823624D01*
X155763713Y-139223624D02*
X155763713Y-140766481D01*
X155763713Y-140766481D02*
X155677999Y-140937910D01*
X155677999Y-140937910D02*
X155506570Y-141023624D01*
X155506570Y-141023624D02*
X155335142Y-141023624D01*
X154049428Y-140937910D02*
X154220856Y-141023624D01*
X154220856Y-141023624D02*
X154563714Y-141023624D01*
X154563714Y-141023624D02*
X154735142Y-140937910D01*
X154735142Y-140937910D02*
X154820856Y-140766481D01*
X154820856Y-140766481D02*
X154820856Y-140080767D01*
X154820856Y-140080767D02*
X154735142Y-139909338D01*
X154735142Y-139909338D02*
X154563714Y-139823624D01*
X154563714Y-139823624D02*
X154220856Y-139823624D01*
X154220856Y-139823624D02*
X154049428Y-139909338D01*
X154049428Y-139909338D02*
X153963714Y-140080767D01*
X153963714Y-140080767D02*
X153963714Y-140252195D01*
X153963714Y-140252195D02*
X154820856Y-140423624D01*
X152420857Y-141023624D02*
X152420857Y-139223624D01*
X152420857Y-140937910D02*
X152592285Y-141023624D01*
X152592285Y-141023624D02*
X152935142Y-141023624D01*
X152935142Y-141023624D02*
X153106571Y-140937910D01*
X153106571Y-140937910D02*
X153192285Y-140852195D01*
X153192285Y-140852195D02*
X153277999Y-140680767D01*
X153277999Y-140680767D02*
X153277999Y-140166481D01*
X153277999Y-140166481D02*
X153192285Y-139995052D01*
X153192285Y-139995052D02*
X153106571Y-139909338D01*
X153106571Y-139909338D02*
X152935142Y-139823624D01*
X152935142Y-139823624D02*
X152592285Y-139823624D01*
X152592285Y-139823624D02*
X152420857Y-139909338D01*
X150192285Y-141023624D02*
X150192285Y-139223624D01*
X150192285Y-139909338D02*
X150020857Y-139823624D01*
X150020857Y-139823624D02*
X149677999Y-139823624D01*
X149677999Y-139823624D02*
X149506571Y-139909338D01*
X149506571Y-139909338D02*
X149420857Y-139995052D01*
X149420857Y-139995052D02*
X149335142Y-140166481D01*
X149335142Y-140166481D02*
X149335142Y-140680767D01*
X149335142Y-140680767D02*
X149420857Y-140852195D01*
X149420857Y-140852195D02*
X149506571Y-140937910D01*
X149506571Y-140937910D02*
X149677999Y-141023624D01*
X149677999Y-141023624D02*
X150020857Y-141023624D01*
X150020857Y-141023624D02*
X150192285Y-140937910D01*
X148735143Y-139823624D02*
X148306571Y-141023624D01*
X147878000Y-139823624D02*
X148306571Y-141023624D01*
X148306571Y-141023624D02*
X148478000Y-141452195D01*
X148478000Y-141452195D02*
X148563714Y-141537910D01*
X148563714Y-141537910D02*
X148735143Y-141623624D01*
X146077999Y-139823624D02*
X145392285Y-139823624D01*
X145820856Y-139223624D02*
X145820856Y-140766481D01*
X145820856Y-140766481D02*
X145735142Y-140937910D01*
X145735142Y-140937910D02*
X145563713Y-141023624D01*
X145563713Y-141023624D02*
X145392285Y-141023624D01*
X144877999Y-140937910D02*
X144706571Y-141023624D01*
X144706571Y-141023624D02*
X144363714Y-141023624D01*
X144363714Y-141023624D02*
X144192285Y-140937910D01*
X144192285Y-140937910D02*
X144106571Y-140766481D01*
X144106571Y-140766481D02*
X144106571Y-140680767D01*
X144106571Y-140680767D02*
X144192285Y-140509338D01*
X144192285Y-140509338D02*
X144363714Y-140423624D01*
X144363714Y-140423624D02*
X144620857Y-140423624D01*
X144620857Y-140423624D02*
X144792285Y-140337910D01*
X144792285Y-140337910D02*
X144877999Y-140166481D01*
X144877999Y-140166481D02*
X144877999Y-140080767D01*
X144877999Y-140080767D02*
X144792285Y-139909338D01*
X144792285Y-139909338D02*
X144620857Y-139823624D01*
X144620857Y-139823624D02*
X144363714Y-139823624D01*
X144363714Y-139823624D02*
X144192285Y-139909338D01*
X142563714Y-139823624D02*
X142563714Y-141023624D01*
X143335142Y-139823624D02*
X143335142Y-140766481D01*
X143335142Y-140766481D02*
X143249428Y-140937910D01*
X143249428Y-140937910D02*
X143077999Y-141023624D01*
X143077999Y-141023624D02*
X142820856Y-141023624D01*
X142820856Y-141023624D02*
X142649428Y-140937910D01*
X142649428Y-140937910D02*
X142563714Y-140852195D01*
X141706571Y-141023624D02*
X141706571Y-139223624D01*
X141706571Y-139909338D02*
X141535143Y-139823624D01*
X141535143Y-139823624D02*
X141192285Y-139823624D01*
X141192285Y-139823624D02*
X141020857Y-139909338D01*
X141020857Y-139909338D02*
X140935143Y-139995052D01*
X140935143Y-139995052D02*
X140849428Y-140166481D01*
X140849428Y-140166481D02*
X140849428Y-140680767D01*
X140849428Y-140680767D02*
X140935143Y-140852195D01*
X140935143Y-140852195D02*
X141020857Y-140937910D01*
X141020857Y-140937910D02*
X141192285Y-141023624D01*
X141192285Y-141023624D02*
X141535143Y-141023624D01*
X141535143Y-141023624D02*
X141706571Y-140937910D01*
X139306572Y-139823624D02*
X139306572Y-141023624D01*
X140078000Y-139823624D02*
X140078000Y-140766481D01*
X140078000Y-140766481D02*
X139992286Y-140937910D01*
X139992286Y-140937910D02*
X139820857Y-141023624D01*
X139820857Y-141023624D02*
X139563714Y-141023624D01*
X139563714Y-141023624D02*
X139392286Y-140937910D01*
X139392286Y-140937910D02*
X139306572Y-140852195D01*
D12*
X117716095Y-138555694D02*
X117716095Y-136555694D01*
X117716095Y-136555694D02*
X117239905Y-136555694D01*
X117239905Y-136555694D02*
X116954190Y-136650932D01*
X116954190Y-136650932D02*
X116763714Y-136841408D01*
X116763714Y-136841408D02*
X116668476Y-137031884D01*
X116668476Y-137031884D02*
X116573238Y-137412836D01*
X116573238Y-137412836D02*
X116573238Y-137698551D01*
X116573238Y-137698551D02*
X116668476Y-138079503D01*
X116668476Y-138079503D02*
X116763714Y-138269979D01*
X116763714Y-138269979D02*
X116954190Y-138460456D01*
X116954190Y-138460456D02*
X117239905Y-138555694D01*
X117239905Y-138555694D02*
X117716095Y-138555694D01*
X114954190Y-138460456D02*
X115144666Y-138555694D01*
X115144666Y-138555694D02*
X115525619Y-138555694D01*
X115525619Y-138555694D02*
X115716095Y-138460456D01*
X115716095Y-138460456D02*
X115811333Y-138269979D01*
X115811333Y-138269979D02*
X115811333Y-137508075D01*
X115811333Y-137508075D02*
X115716095Y-137317598D01*
X115716095Y-137317598D02*
X115525619Y-137222360D01*
X115525619Y-137222360D02*
X115144666Y-137222360D01*
X115144666Y-137222360D02*
X114954190Y-137317598D01*
X114954190Y-137317598D02*
X114858952Y-137508075D01*
X114858952Y-137508075D02*
X114858952Y-137698551D01*
X114858952Y-137698551D02*
X115811333Y-137889027D01*
X114097047Y-138460456D02*
X113906571Y-138555694D01*
X113906571Y-138555694D02*
X113525619Y-138555694D01*
X113525619Y-138555694D02*
X113335142Y-138460456D01*
X113335142Y-138460456D02*
X113239904Y-138269979D01*
X113239904Y-138269979D02*
X113239904Y-138174741D01*
X113239904Y-138174741D02*
X113335142Y-137984265D01*
X113335142Y-137984265D02*
X113525619Y-137889027D01*
X113525619Y-137889027D02*
X113811333Y-137889027D01*
X113811333Y-137889027D02*
X114001809Y-137793789D01*
X114001809Y-137793789D02*
X114097047Y-137603313D01*
X114097047Y-137603313D02*
X114097047Y-137508075D01*
X114097047Y-137508075D02*
X114001809Y-137317598D01*
X114001809Y-137317598D02*
X113811333Y-137222360D01*
X113811333Y-137222360D02*
X113525619Y-137222360D01*
X113525619Y-137222360D02*
X113335142Y-137317598D01*
X112382761Y-138555694D02*
X112382761Y-137222360D01*
X112382761Y-136555694D02*
X112477999Y-136650932D01*
X112477999Y-136650932D02*
X112382761Y-136746170D01*
X112382761Y-136746170D02*
X112287523Y-136650932D01*
X112287523Y-136650932D02*
X112382761Y-136555694D01*
X112382761Y-136555694D02*
X112382761Y-136746170D01*
X110573237Y-137222360D02*
X110573237Y-138841408D01*
X110573237Y-138841408D02*
X110668475Y-139031884D01*
X110668475Y-139031884D02*
X110763713Y-139127122D01*
X110763713Y-139127122D02*
X110954190Y-139222360D01*
X110954190Y-139222360D02*
X111239904Y-139222360D01*
X111239904Y-139222360D02*
X111430380Y-139127122D01*
X110573237Y-138460456D02*
X110763713Y-138555694D01*
X110763713Y-138555694D02*
X111144666Y-138555694D01*
X111144666Y-138555694D02*
X111335142Y-138460456D01*
X111335142Y-138460456D02*
X111430380Y-138365217D01*
X111430380Y-138365217D02*
X111525618Y-138174741D01*
X111525618Y-138174741D02*
X111525618Y-137603313D01*
X111525618Y-137603313D02*
X111430380Y-137412836D01*
X111430380Y-137412836D02*
X111335142Y-137317598D01*
X111335142Y-137317598D02*
X111144666Y-137222360D01*
X111144666Y-137222360D02*
X110763713Y-137222360D01*
X110763713Y-137222360D02*
X110573237Y-137317598D01*
X109620856Y-137222360D02*
X109620856Y-138555694D01*
X109620856Y-137412836D02*
X109525618Y-137317598D01*
X109525618Y-137317598D02*
X109335142Y-137222360D01*
X109335142Y-137222360D02*
X109049427Y-137222360D01*
X109049427Y-137222360D02*
X108858951Y-137317598D01*
X108858951Y-137317598D02*
X108763713Y-137508075D01*
X108763713Y-137508075D02*
X108763713Y-138555694D01*
X107049427Y-138460456D02*
X107239903Y-138555694D01*
X107239903Y-138555694D02*
X107620856Y-138555694D01*
X107620856Y-138555694D02*
X107811332Y-138460456D01*
X107811332Y-138460456D02*
X107906570Y-138269979D01*
X107906570Y-138269979D02*
X107906570Y-137508075D01*
X107906570Y-137508075D02*
X107811332Y-137317598D01*
X107811332Y-137317598D02*
X107620856Y-137222360D01*
X107620856Y-137222360D02*
X107239903Y-137222360D01*
X107239903Y-137222360D02*
X107049427Y-137317598D01*
X107049427Y-137317598D02*
X106954189Y-137508075D01*
X106954189Y-137508075D02*
X106954189Y-137698551D01*
X106954189Y-137698551D02*
X107906570Y-137889027D01*
X105239903Y-138555694D02*
X105239903Y-136555694D01*
X105239903Y-138460456D02*
X105430379Y-138555694D01*
X105430379Y-138555694D02*
X105811332Y-138555694D01*
X105811332Y-138555694D02*
X106001808Y-138460456D01*
X106001808Y-138460456D02*
X106097046Y-138365217D01*
X106097046Y-138365217D02*
X106192284Y-138174741D01*
X106192284Y-138174741D02*
X106192284Y-137603313D01*
X106192284Y-137603313D02*
X106097046Y-137412836D01*
X106097046Y-137412836D02*
X106001808Y-137317598D01*
X106001808Y-137317598D02*
X105811332Y-137222360D01*
X105811332Y-137222360D02*
X105430379Y-137222360D01*
X105430379Y-137222360D02*
X105239903Y-137317598D01*
X118287524Y-141775582D02*
X118287524Y-139775582D01*
X118287524Y-140537486D02*
X118097048Y-140442248D01*
X118097048Y-140442248D02*
X117716095Y-140442248D01*
X117716095Y-140442248D02*
X117525619Y-140537486D01*
X117525619Y-140537486D02*
X117430381Y-140632724D01*
X117430381Y-140632724D02*
X117335143Y-140823201D01*
X117335143Y-140823201D02*
X117335143Y-141394629D01*
X117335143Y-141394629D02*
X117430381Y-141585105D01*
X117430381Y-141585105D02*
X117525619Y-141680344D01*
X117525619Y-141680344D02*
X117716095Y-141775582D01*
X117716095Y-141775582D02*
X118097048Y-141775582D01*
X118097048Y-141775582D02*
X118287524Y-141680344D01*
X116668476Y-140442248D02*
X116192286Y-141775582D01*
X115716095Y-140442248D02*
X116192286Y-141775582D01*
X116192286Y-141775582D02*
X116382762Y-142251772D01*
X116382762Y-142251772D02*
X116478000Y-142347010D01*
X116478000Y-142347010D02*
X116668476Y-142442248D01*
X113144666Y-141775582D02*
X113335142Y-141680344D01*
X113335142Y-141680344D02*
X113430380Y-141585105D01*
X113430380Y-141585105D02*
X113525618Y-141394629D01*
X113525618Y-141394629D02*
X113525618Y-140823201D01*
X113525618Y-140823201D02*
X113430380Y-140632724D01*
X113430380Y-140632724D02*
X113335142Y-140537486D01*
X113335142Y-140537486D02*
X113144666Y-140442248D01*
X113144666Y-140442248D02*
X112858951Y-140442248D01*
X112858951Y-140442248D02*
X112668475Y-140537486D01*
X112668475Y-140537486D02*
X112573237Y-140632724D01*
X112573237Y-140632724D02*
X112477999Y-140823201D01*
X112477999Y-140823201D02*
X112477999Y-141394629D01*
X112477999Y-141394629D02*
X112573237Y-141585105D01*
X112573237Y-141585105D02*
X112668475Y-141680344D01*
X112668475Y-141680344D02*
X112858951Y-141775582D01*
X112858951Y-141775582D02*
X113144666Y-141775582D01*
X111620856Y-141775582D02*
X111620856Y-140442248D01*
X111620856Y-140632724D02*
X111525618Y-140537486D01*
X111525618Y-140537486D02*
X111335142Y-140442248D01*
X111335142Y-140442248D02*
X111049427Y-140442248D01*
X111049427Y-140442248D02*
X110858951Y-140537486D01*
X110858951Y-140537486D02*
X110763713Y-140727963D01*
X110763713Y-140727963D02*
X110763713Y-141775582D01*
X110763713Y-140727963D02*
X110668475Y-140537486D01*
X110668475Y-140537486D02*
X110477999Y-140442248D01*
X110477999Y-140442248D02*
X110192285Y-140442248D01*
X110192285Y-140442248D02*
X110001808Y-140537486D01*
X110001808Y-140537486D02*
X109906570Y-140727963D01*
X109906570Y-140727963D02*
X109906570Y-141775582D01*
X108954189Y-141775582D02*
X108954189Y-139775582D01*
X108763713Y-141013677D02*
X108192284Y-141775582D01*
X108192284Y-140442248D02*
X108954189Y-141204153D01*
X107335141Y-141775582D02*
X107335141Y-139775582D01*
X107335141Y-140537486D02*
X107144665Y-140442248D01*
X107144665Y-140442248D02*
X106763712Y-140442248D01*
X106763712Y-140442248D02*
X106573236Y-140537486D01*
X106573236Y-140537486D02*
X106477998Y-140632724D01*
X106477998Y-140632724D02*
X106382760Y-140823201D01*
X106382760Y-140823201D02*
X106382760Y-141394629D01*
X106382760Y-141394629D02*
X106477998Y-141585105D01*
X106477998Y-141585105D02*
X106573236Y-141680344D01*
X106573236Y-141680344D02*
X106763712Y-141775582D01*
X106763712Y-141775582D02*
X107144665Y-141775582D01*
X107144665Y-141775582D02*
X107335141Y-141680344D01*
X104668474Y-141775582D02*
X104668474Y-139775582D01*
X104668474Y-141680344D02*
X104858950Y-141775582D01*
X104858950Y-141775582D02*
X105239903Y-141775582D01*
X105239903Y-141775582D02*
X105430379Y-141680344D01*
X105430379Y-141680344D02*
X105525617Y-141585105D01*
X105525617Y-141585105D02*
X105620855Y-141394629D01*
X105620855Y-141394629D02*
X105620855Y-140823201D01*
X105620855Y-140823201D02*
X105525617Y-140632724D01*
X105525617Y-140632724D02*
X105430379Y-140537486D01*
X105430379Y-140537486D02*
X105239903Y-140442248D01*
X105239903Y-140442248D02*
X104858950Y-140442248D01*
X104858950Y-140442248D02*
X104668474Y-140537486D01*
D10*
X88328332Y-50382700D02*
X88185475Y-50430319D01*
X88185475Y-50430319D02*
X87947380Y-50430319D01*
X87947380Y-50430319D02*
X87852142Y-50382700D01*
X87852142Y-50382700D02*
X87804523Y-50335080D01*
X87804523Y-50335080D02*
X87756904Y-50239842D01*
X87756904Y-50239842D02*
X87756904Y-50144604D01*
X87756904Y-50144604D02*
X87804523Y-50049366D01*
X87804523Y-50049366D02*
X87852142Y-50001747D01*
X87852142Y-50001747D02*
X87947380Y-49954128D01*
X87947380Y-49954128D02*
X88137856Y-49906509D01*
X88137856Y-49906509D02*
X88233094Y-49858890D01*
X88233094Y-49858890D02*
X88280713Y-49811271D01*
X88280713Y-49811271D02*
X88328332Y-49716033D01*
X88328332Y-49716033D02*
X88328332Y-49620795D01*
X88328332Y-49620795D02*
X88280713Y-49525557D01*
X88280713Y-49525557D02*
X88233094Y-49477938D01*
X88233094Y-49477938D02*
X88137856Y-49430319D01*
X88137856Y-49430319D02*
X87899761Y-49430319D01*
X87899761Y-49430319D02*
X87756904Y-49477938D01*
X87423570Y-49430319D02*
X87185475Y-50430319D01*
X87185475Y-50430319D02*
X86994999Y-49716033D01*
X86994999Y-49716033D02*
X86804523Y-50430319D01*
X86804523Y-50430319D02*
X86566428Y-49430319D01*
X85661666Y-50430319D02*
X86233094Y-50430319D01*
X85947380Y-50430319D02*
X85947380Y-49430319D01*
X85947380Y-49430319D02*
X86042618Y-49573176D01*
X86042618Y-49573176D02*
X86137856Y-49668414D01*
X86137856Y-49668414D02*
X86233094Y-49716033D01*
X88328332Y-69432700D02*
X88185475Y-69480319D01*
X88185475Y-69480319D02*
X87947380Y-69480319D01*
X87947380Y-69480319D02*
X87852142Y-69432700D01*
X87852142Y-69432700D02*
X87804523Y-69385080D01*
X87804523Y-69385080D02*
X87756904Y-69289842D01*
X87756904Y-69289842D02*
X87756904Y-69194604D01*
X87756904Y-69194604D02*
X87804523Y-69099366D01*
X87804523Y-69099366D02*
X87852142Y-69051747D01*
X87852142Y-69051747D02*
X87947380Y-69004128D01*
X87947380Y-69004128D02*
X88137856Y-68956509D01*
X88137856Y-68956509D02*
X88233094Y-68908890D01*
X88233094Y-68908890D02*
X88280713Y-68861271D01*
X88280713Y-68861271D02*
X88328332Y-68766033D01*
X88328332Y-68766033D02*
X88328332Y-68670795D01*
X88328332Y-68670795D02*
X88280713Y-68575557D01*
X88280713Y-68575557D02*
X88233094Y-68527938D01*
X88233094Y-68527938D02*
X88137856Y-68480319D01*
X88137856Y-68480319D02*
X87899761Y-68480319D01*
X87899761Y-68480319D02*
X87756904Y-68527938D01*
X87423570Y-68480319D02*
X87185475Y-69480319D01*
X87185475Y-69480319D02*
X86994999Y-68766033D01*
X86994999Y-68766033D02*
X86804523Y-69480319D01*
X86804523Y-69480319D02*
X86566428Y-68480319D01*
X86233094Y-68575557D02*
X86185475Y-68527938D01*
X86185475Y-68527938D02*
X86090237Y-68480319D01*
X86090237Y-68480319D02*
X85852142Y-68480319D01*
X85852142Y-68480319D02*
X85756904Y-68527938D01*
X85756904Y-68527938D02*
X85709285Y-68575557D01*
X85709285Y-68575557D02*
X85661666Y-68670795D01*
X85661666Y-68670795D02*
X85661666Y-68766033D01*
X85661666Y-68766033D02*
X85709285Y-68908890D01*
X85709285Y-68908890D02*
X86280713Y-69480319D01*
X86280713Y-69480319D02*
X85661666Y-69480319D01*
X88328332Y-88482700D02*
X88185475Y-88530319D01*
X88185475Y-88530319D02*
X87947380Y-88530319D01*
X87947380Y-88530319D02*
X87852142Y-88482700D01*
X87852142Y-88482700D02*
X87804523Y-88435080D01*
X87804523Y-88435080D02*
X87756904Y-88339842D01*
X87756904Y-88339842D02*
X87756904Y-88244604D01*
X87756904Y-88244604D02*
X87804523Y-88149366D01*
X87804523Y-88149366D02*
X87852142Y-88101747D01*
X87852142Y-88101747D02*
X87947380Y-88054128D01*
X87947380Y-88054128D02*
X88137856Y-88006509D01*
X88137856Y-88006509D02*
X88233094Y-87958890D01*
X88233094Y-87958890D02*
X88280713Y-87911271D01*
X88280713Y-87911271D02*
X88328332Y-87816033D01*
X88328332Y-87816033D02*
X88328332Y-87720795D01*
X88328332Y-87720795D02*
X88280713Y-87625557D01*
X88280713Y-87625557D02*
X88233094Y-87577938D01*
X88233094Y-87577938D02*
X88137856Y-87530319D01*
X88137856Y-87530319D02*
X87899761Y-87530319D01*
X87899761Y-87530319D02*
X87756904Y-87577938D01*
X87423570Y-87530319D02*
X87185475Y-88530319D01*
X87185475Y-88530319D02*
X86994999Y-87816033D01*
X86994999Y-87816033D02*
X86804523Y-88530319D01*
X86804523Y-88530319D02*
X86566428Y-87530319D01*
X86280713Y-87530319D02*
X85661666Y-87530319D01*
X85661666Y-87530319D02*
X85994999Y-87911271D01*
X85994999Y-87911271D02*
X85852142Y-87911271D01*
X85852142Y-87911271D02*
X85756904Y-87958890D01*
X85756904Y-87958890D02*
X85709285Y-88006509D01*
X85709285Y-88006509D02*
X85661666Y-88101747D01*
X85661666Y-88101747D02*
X85661666Y-88339842D01*
X85661666Y-88339842D02*
X85709285Y-88435080D01*
X85709285Y-88435080D02*
X85756904Y-88482700D01*
X85756904Y-88482700D02*
X85852142Y-88530319D01*
X85852142Y-88530319D02*
X86137856Y-88530319D01*
X86137856Y-88530319D02*
X86233094Y-88482700D01*
X86233094Y-88482700D02*
X86280713Y-88435080D01*
X88328332Y-107532700D02*
X88185475Y-107580319D01*
X88185475Y-107580319D02*
X87947380Y-107580319D01*
X87947380Y-107580319D02*
X87852142Y-107532700D01*
X87852142Y-107532700D02*
X87804523Y-107485080D01*
X87804523Y-107485080D02*
X87756904Y-107389842D01*
X87756904Y-107389842D02*
X87756904Y-107294604D01*
X87756904Y-107294604D02*
X87804523Y-107199366D01*
X87804523Y-107199366D02*
X87852142Y-107151747D01*
X87852142Y-107151747D02*
X87947380Y-107104128D01*
X87947380Y-107104128D02*
X88137856Y-107056509D01*
X88137856Y-107056509D02*
X88233094Y-107008890D01*
X88233094Y-107008890D02*
X88280713Y-106961271D01*
X88280713Y-106961271D02*
X88328332Y-106866033D01*
X88328332Y-106866033D02*
X88328332Y-106770795D01*
X88328332Y-106770795D02*
X88280713Y-106675557D01*
X88280713Y-106675557D02*
X88233094Y-106627938D01*
X88233094Y-106627938D02*
X88137856Y-106580319D01*
X88137856Y-106580319D02*
X87899761Y-106580319D01*
X87899761Y-106580319D02*
X87756904Y-106627938D01*
X87423570Y-106580319D02*
X87185475Y-107580319D01*
X87185475Y-107580319D02*
X86994999Y-106866033D01*
X86994999Y-106866033D02*
X86804523Y-107580319D01*
X86804523Y-107580319D02*
X86566428Y-106580319D01*
X85756904Y-106913652D02*
X85756904Y-107580319D01*
X85994999Y-106532700D02*
X86233094Y-107246985D01*
X86233094Y-107246985D02*
X85614047Y-107246985D01*
X107378332Y-50382700D02*
X107235475Y-50430319D01*
X107235475Y-50430319D02*
X106997380Y-50430319D01*
X106997380Y-50430319D02*
X106902142Y-50382700D01*
X106902142Y-50382700D02*
X106854523Y-50335080D01*
X106854523Y-50335080D02*
X106806904Y-50239842D01*
X106806904Y-50239842D02*
X106806904Y-50144604D01*
X106806904Y-50144604D02*
X106854523Y-50049366D01*
X106854523Y-50049366D02*
X106902142Y-50001747D01*
X106902142Y-50001747D02*
X106997380Y-49954128D01*
X106997380Y-49954128D02*
X107187856Y-49906509D01*
X107187856Y-49906509D02*
X107283094Y-49858890D01*
X107283094Y-49858890D02*
X107330713Y-49811271D01*
X107330713Y-49811271D02*
X107378332Y-49716033D01*
X107378332Y-49716033D02*
X107378332Y-49620795D01*
X107378332Y-49620795D02*
X107330713Y-49525557D01*
X107330713Y-49525557D02*
X107283094Y-49477938D01*
X107283094Y-49477938D02*
X107187856Y-49430319D01*
X107187856Y-49430319D02*
X106949761Y-49430319D01*
X106949761Y-49430319D02*
X106806904Y-49477938D01*
X106473570Y-49430319D02*
X106235475Y-50430319D01*
X106235475Y-50430319D02*
X106044999Y-49716033D01*
X106044999Y-49716033D02*
X105854523Y-50430319D01*
X105854523Y-50430319D02*
X105616428Y-49430319D01*
X104759285Y-49430319D02*
X105235475Y-49430319D01*
X105235475Y-49430319D02*
X105283094Y-49906509D01*
X105283094Y-49906509D02*
X105235475Y-49858890D01*
X105235475Y-49858890D02*
X105140237Y-49811271D01*
X105140237Y-49811271D02*
X104902142Y-49811271D01*
X104902142Y-49811271D02*
X104806904Y-49858890D01*
X104806904Y-49858890D02*
X104759285Y-49906509D01*
X104759285Y-49906509D02*
X104711666Y-50001747D01*
X104711666Y-50001747D02*
X104711666Y-50239842D01*
X104711666Y-50239842D02*
X104759285Y-50335080D01*
X104759285Y-50335080D02*
X104806904Y-50382700D01*
X104806904Y-50382700D02*
X104902142Y-50430319D01*
X104902142Y-50430319D02*
X105140237Y-50430319D01*
X105140237Y-50430319D02*
X105235475Y-50382700D01*
X105235475Y-50382700D02*
X105283094Y-50335080D01*
X107378332Y-69432700D02*
X107235475Y-69480319D01*
X107235475Y-69480319D02*
X106997380Y-69480319D01*
X106997380Y-69480319D02*
X106902142Y-69432700D01*
X106902142Y-69432700D02*
X106854523Y-69385080D01*
X106854523Y-69385080D02*
X106806904Y-69289842D01*
X106806904Y-69289842D02*
X106806904Y-69194604D01*
X106806904Y-69194604D02*
X106854523Y-69099366D01*
X106854523Y-69099366D02*
X106902142Y-69051747D01*
X106902142Y-69051747D02*
X106997380Y-69004128D01*
X106997380Y-69004128D02*
X107187856Y-68956509D01*
X107187856Y-68956509D02*
X107283094Y-68908890D01*
X107283094Y-68908890D02*
X107330713Y-68861271D01*
X107330713Y-68861271D02*
X107378332Y-68766033D01*
X107378332Y-68766033D02*
X107378332Y-68670795D01*
X107378332Y-68670795D02*
X107330713Y-68575557D01*
X107330713Y-68575557D02*
X107283094Y-68527938D01*
X107283094Y-68527938D02*
X107187856Y-68480319D01*
X107187856Y-68480319D02*
X106949761Y-68480319D01*
X106949761Y-68480319D02*
X106806904Y-68527938D01*
X106473570Y-68480319D02*
X106235475Y-69480319D01*
X106235475Y-69480319D02*
X106044999Y-68766033D01*
X106044999Y-68766033D02*
X105854523Y-69480319D01*
X105854523Y-69480319D02*
X105616428Y-68480319D01*
X104806904Y-68480319D02*
X104997380Y-68480319D01*
X104997380Y-68480319D02*
X105092618Y-68527938D01*
X105092618Y-68527938D02*
X105140237Y-68575557D01*
X105140237Y-68575557D02*
X105235475Y-68718414D01*
X105235475Y-68718414D02*
X105283094Y-68908890D01*
X105283094Y-68908890D02*
X105283094Y-69289842D01*
X105283094Y-69289842D02*
X105235475Y-69385080D01*
X105235475Y-69385080D02*
X105187856Y-69432700D01*
X105187856Y-69432700D02*
X105092618Y-69480319D01*
X105092618Y-69480319D02*
X104902142Y-69480319D01*
X104902142Y-69480319D02*
X104806904Y-69432700D01*
X104806904Y-69432700D02*
X104759285Y-69385080D01*
X104759285Y-69385080D02*
X104711666Y-69289842D01*
X104711666Y-69289842D02*
X104711666Y-69051747D01*
X104711666Y-69051747D02*
X104759285Y-68956509D01*
X104759285Y-68956509D02*
X104806904Y-68908890D01*
X104806904Y-68908890D02*
X104902142Y-68861271D01*
X104902142Y-68861271D02*
X105092618Y-68861271D01*
X105092618Y-68861271D02*
X105187856Y-68908890D01*
X105187856Y-68908890D02*
X105235475Y-68956509D01*
X105235475Y-68956509D02*
X105283094Y-69051747D01*
X107378332Y-88482700D02*
X107235475Y-88530319D01*
X107235475Y-88530319D02*
X106997380Y-88530319D01*
X106997380Y-88530319D02*
X106902142Y-88482700D01*
X106902142Y-88482700D02*
X106854523Y-88435080D01*
X106854523Y-88435080D02*
X106806904Y-88339842D01*
X106806904Y-88339842D02*
X106806904Y-88244604D01*
X106806904Y-88244604D02*
X106854523Y-88149366D01*
X106854523Y-88149366D02*
X106902142Y-88101747D01*
X106902142Y-88101747D02*
X106997380Y-88054128D01*
X106997380Y-88054128D02*
X107187856Y-88006509D01*
X107187856Y-88006509D02*
X107283094Y-87958890D01*
X107283094Y-87958890D02*
X107330713Y-87911271D01*
X107330713Y-87911271D02*
X107378332Y-87816033D01*
X107378332Y-87816033D02*
X107378332Y-87720795D01*
X107378332Y-87720795D02*
X107330713Y-87625557D01*
X107330713Y-87625557D02*
X107283094Y-87577938D01*
X107283094Y-87577938D02*
X107187856Y-87530319D01*
X107187856Y-87530319D02*
X106949761Y-87530319D01*
X106949761Y-87530319D02*
X106806904Y-87577938D01*
X106473570Y-87530319D02*
X106235475Y-88530319D01*
X106235475Y-88530319D02*
X106044999Y-87816033D01*
X106044999Y-87816033D02*
X105854523Y-88530319D01*
X105854523Y-88530319D02*
X105616428Y-87530319D01*
X105330713Y-87530319D02*
X104664047Y-87530319D01*
X104664047Y-87530319D02*
X105092618Y-88530319D01*
X107378332Y-107532700D02*
X107235475Y-107580319D01*
X107235475Y-107580319D02*
X106997380Y-107580319D01*
X106997380Y-107580319D02*
X106902142Y-107532700D01*
X106902142Y-107532700D02*
X106854523Y-107485080D01*
X106854523Y-107485080D02*
X106806904Y-107389842D01*
X106806904Y-107389842D02*
X106806904Y-107294604D01*
X106806904Y-107294604D02*
X106854523Y-107199366D01*
X106854523Y-107199366D02*
X106902142Y-107151747D01*
X106902142Y-107151747D02*
X106997380Y-107104128D01*
X106997380Y-107104128D02*
X107187856Y-107056509D01*
X107187856Y-107056509D02*
X107283094Y-107008890D01*
X107283094Y-107008890D02*
X107330713Y-106961271D01*
X107330713Y-106961271D02*
X107378332Y-106866033D01*
X107378332Y-106866033D02*
X107378332Y-106770795D01*
X107378332Y-106770795D02*
X107330713Y-106675557D01*
X107330713Y-106675557D02*
X107283094Y-106627938D01*
X107283094Y-106627938D02*
X107187856Y-106580319D01*
X107187856Y-106580319D02*
X106949761Y-106580319D01*
X106949761Y-106580319D02*
X106806904Y-106627938D01*
X106473570Y-106580319D02*
X106235475Y-107580319D01*
X106235475Y-107580319D02*
X106044999Y-106866033D01*
X106044999Y-106866033D02*
X105854523Y-107580319D01*
X105854523Y-107580319D02*
X105616428Y-106580319D01*
X105092618Y-107008890D02*
X105187856Y-106961271D01*
X105187856Y-106961271D02*
X105235475Y-106913652D01*
X105235475Y-106913652D02*
X105283094Y-106818414D01*
X105283094Y-106818414D02*
X105283094Y-106770795D01*
X105283094Y-106770795D02*
X105235475Y-106675557D01*
X105235475Y-106675557D02*
X105187856Y-106627938D01*
X105187856Y-106627938D02*
X105092618Y-106580319D01*
X105092618Y-106580319D02*
X104902142Y-106580319D01*
X104902142Y-106580319D02*
X104806904Y-106627938D01*
X104806904Y-106627938D02*
X104759285Y-106675557D01*
X104759285Y-106675557D02*
X104711666Y-106770795D01*
X104711666Y-106770795D02*
X104711666Y-106818414D01*
X104711666Y-106818414D02*
X104759285Y-106913652D01*
X104759285Y-106913652D02*
X104806904Y-106961271D01*
X104806904Y-106961271D02*
X104902142Y-107008890D01*
X104902142Y-107008890D02*
X105092618Y-107008890D01*
X105092618Y-107008890D02*
X105187856Y-107056509D01*
X105187856Y-107056509D02*
X105235475Y-107104128D01*
X105235475Y-107104128D02*
X105283094Y-107199366D01*
X105283094Y-107199366D02*
X105283094Y-107389842D01*
X105283094Y-107389842D02*
X105235475Y-107485080D01*
X105235475Y-107485080D02*
X105187856Y-107532700D01*
X105187856Y-107532700D02*
X105092618Y-107580319D01*
X105092618Y-107580319D02*
X104902142Y-107580319D01*
X104902142Y-107580319D02*
X104806904Y-107532700D01*
X104806904Y-107532700D02*
X104759285Y-107485080D01*
X104759285Y-107485080D02*
X104711666Y-107389842D01*
X104711666Y-107389842D02*
X104711666Y-107199366D01*
X104711666Y-107199366D02*
X104759285Y-107104128D01*
X104759285Y-107104128D02*
X104806904Y-107056509D01*
X104806904Y-107056509D02*
X104902142Y-107008890D01*
X126428332Y-45620200D02*
X126285475Y-45667819D01*
X126285475Y-45667819D02*
X126047380Y-45667819D01*
X126047380Y-45667819D02*
X125952142Y-45620200D01*
X125952142Y-45620200D02*
X125904523Y-45572580D01*
X125904523Y-45572580D02*
X125856904Y-45477342D01*
X125856904Y-45477342D02*
X125856904Y-45382104D01*
X125856904Y-45382104D02*
X125904523Y-45286866D01*
X125904523Y-45286866D02*
X125952142Y-45239247D01*
X125952142Y-45239247D02*
X126047380Y-45191628D01*
X126047380Y-45191628D02*
X126237856Y-45144009D01*
X126237856Y-45144009D02*
X126333094Y-45096390D01*
X126333094Y-45096390D02*
X126380713Y-45048771D01*
X126380713Y-45048771D02*
X126428332Y-44953533D01*
X126428332Y-44953533D02*
X126428332Y-44858295D01*
X126428332Y-44858295D02*
X126380713Y-44763057D01*
X126380713Y-44763057D02*
X126333094Y-44715438D01*
X126333094Y-44715438D02*
X126237856Y-44667819D01*
X126237856Y-44667819D02*
X125999761Y-44667819D01*
X125999761Y-44667819D02*
X125856904Y-44715438D01*
X125523570Y-44667819D02*
X125285475Y-45667819D01*
X125285475Y-45667819D02*
X125094999Y-44953533D01*
X125094999Y-44953533D02*
X124904523Y-45667819D01*
X124904523Y-45667819D02*
X124666428Y-44667819D01*
X124237856Y-45667819D02*
X124047380Y-45667819D01*
X124047380Y-45667819D02*
X123952142Y-45620200D01*
X123952142Y-45620200D02*
X123904523Y-45572580D01*
X123904523Y-45572580D02*
X123809285Y-45429723D01*
X123809285Y-45429723D02*
X123761666Y-45239247D01*
X123761666Y-45239247D02*
X123761666Y-44858295D01*
X123761666Y-44858295D02*
X123809285Y-44763057D01*
X123809285Y-44763057D02*
X123856904Y-44715438D01*
X123856904Y-44715438D02*
X123952142Y-44667819D01*
X123952142Y-44667819D02*
X124142618Y-44667819D01*
X124142618Y-44667819D02*
X124237856Y-44715438D01*
X124237856Y-44715438D02*
X124285475Y-44763057D01*
X124285475Y-44763057D02*
X124333094Y-44858295D01*
X124333094Y-44858295D02*
X124333094Y-45096390D01*
X124333094Y-45096390D02*
X124285475Y-45191628D01*
X124285475Y-45191628D02*
X124237856Y-45239247D01*
X124237856Y-45239247D02*
X124142618Y-45286866D01*
X124142618Y-45286866D02*
X123952142Y-45286866D01*
X123952142Y-45286866D02*
X123856904Y-45239247D01*
X123856904Y-45239247D02*
X123809285Y-45191628D01*
X123809285Y-45191628D02*
X123761666Y-45096390D01*
X126904523Y-64670200D02*
X126761666Y-64717819D01*
X126761666Y-64717819D02*
X126523571Y-64717819D01*
X126523571Y-64717819D02*
X126428333Y-64670200D01*
X126428333Y-64670200D02*
X126380714Y-64622580D01*
X126380714Y-64622580D02*
X126333095Y-64527342D01*
X126333095Y-64527342D02*
X126333095Y-64432104D01*
X126333095Y-64432104D02*
X126380714Y-64336866D01*
X126380714Y-64336866D02*
X126428333Y-64289247D01*
X126428333Y-64289247D02*
X126523571Y-64241628D01*
X126523571Y-64241628D02*
X126714047Y-64194009D01*
X126714047Y-64194009D02*
X126809285Y-64146390D01*
X126809285Y-64146390D02*
X126856904Y-64098771D01*
X126856904Y-64098771D02*
X126904523Y-64003533D01*
X126904523Y-64003533D02*
X126904523Y-63908295D01*
X126904523Y-63908295D02*
X126856904Y-63813057D01*
X126856904Y-63813057D02*
X126809285Y-63765438D01*
X126809285Y-63765438D02*
X126714047Y-63717819D01*
X126714047Y-63717819D02*
X126475952Y-63717819D01*
X126475952Y-63717819D02*
X126333095Y-63765438D01*
X125999761Y-63717819D02*
X125761666Y-64717819D01*
X125761666Y-64717819D02*
X125571190Y-64003533D01*
X125571190Y-64003533D02*
X125380714Y-64717819D01*
X125380714Y-64717819D02*
X125142619Y-63717819D01*
X124237857Y-64717819D02*
X124809285Y-64717819D01*
X124523571Y-64717819D02*
X124523571Y-63717819D01*
X124523571Y-63717819D02*
X124618809Y-63860676D01*
X124618809Y-63860676D02*
X124714047Y-63955914D01*
X124714047Y-63955914D02*
X124809285Y-64003533D01*
X123618809Y-63717819D02*
X123523571Y-63717819D01*
X123523571Y-63717819D02*
X123428333Y-63765438D01*
X123428333Y-63765438D02*
X123380714Y-63813057D01*
X123380714Y-63813057D02*
X123333095Y-63908295D01*
X123333095Y-63908295D02*
X123285476Y-64098771D01*
X123285476Y-64098771D02*
X123285476Y-64336866D01*
X123285476Y-64336866D02*
X123333095Y-64527342D01*
X123333095Y-64527342D02*
X123380714Y-64622580D01*
X123380714Y-64622580D02*
X123428333Y-64670200D01*
X123428333Y-64670200D02*
X123523571Y-64717819D01*
X123523571Y-64717819D02*
X123618809Y-64717819D01*
X123618809Y-64717819D02*
X123714047Y-64670200D01*
X123714047Y-64670200D02*
X123761666Y-64622580D01*
X123761666Y-64622580D02*
X123809285Y-64527342D01*
X123809285Y-64527342D02*
X123856904Y-64336866D01*
X123856904Y-64336866D02*
X123856904Y-64098771D01*
X123856904Y-64098771D02*
X123809285Y-63908295D01*
X123809285Y-63908295D02*
X123761666Y-63813057D01*
X123761666Y-63813057D02*
X123714047Y-63765438D01*
X123714047Y-63765438D02*
X123618809Y-63717819D01*
X126904523Y-83720200D02*
X126761666Y-83767819D01*
X126761666Y-83767819D02*
X126523571Y-83767819D01*
X126523571Y-83767819D02*
X126428333Y-83720200D01*
X126428333Y-83720200D02*
X126380714Y-83672580D01*
X126380714Y-83672580D02*
X126333095Y-83577342D01*
X126333095Y-83577342D02*
X126333095Y-83482104D01*
X126333095Y-83482104D02*
X126380714Y-83386866D01*
X126380714Y-83386866D02*
X126428333Y-83339247D01*
X126428333Y-83339247D02*
X126523571Y-83291628D01*
X126523571Y-83291628D02*
X126714047Y-83244009D01*
X126714047Y-83244009D02*
X126809285Y-83196390D01*
X126809285Y-83196390D02*
X126856904Y-83148771D01*
X126856904Y-83148771D02*
X126904523Y-83053533D01*
X126904523Y-83053533D02*
X126904523Y-82958295D01*
X126904523Y-82958295D02*
X126856904Y-82863057D01*
X126856904Y-82863057D02*
X126809285Y-82815438D01*
X126809285Y-82815438D02*
X126714047Y-82767819D01*
X126714047Y-82767819D02*
X126475952Y-82767819D01*
X126475952Y-82767819D02*
X126333095Y-82815438D01*
X125999761Y-82767819D02*
X125761666Y-83767819D01*
X125761666Y-83767819D02*
X125571190Y-83053533D01*
X125571190Y-83053533D02*
X125380714Y-83767819D01*
X125380714Y-83767819D02*
X125142619Y-82767819D01*
X124237857Y-83767819D02*
X124809285Y-83767819D01*
X124523571Y-83767819D02*
X124523571Y-82767819D01*
X124523571Y-82767819D02*
X124618809Y-82910676D01*
X124618809Y-82910676D02*
X124714047Y-83005914D01*
X124714047Y-83005914D02*
X124809285Y-83053533D01*
X123285476Y-83767819D02*
X123856904Y-83767819D01*
X123571190Y-83767819D02*
X123571190Y-82767819D01*
X123571190Y-82767819D02*
X123666428Y-82910676D01*
X123666428Y-82910676D02*
X123761666Y-83005914D01*
X123761666Y-83005914D02*
X123856904Y-83053533D01*
X126904523Y-102770200D02*
X126761666Y-102817819D01*
X126761666Y-102817819D02*
X126523571Y-102817819D01*
X126523571Y-102817819D02*
X126428333Y-102770200D01*
X126428333Y-102770200D02*
X126380714Y-102722580D01*
X126380714Y-102722580D02*
X126333095Y-102627342D01*
X126333095Y-102627342D02*
X126333095Y-102532104D01*
X126333095Y-102532104D02*
X126380714Y-102436866D01*
X126380714Y-102436866D02*
X126428333Y-102389247D01*
X126428333Y-102389247D02*
X126523571Y-102341628D01*
X126523571Y-102341628D02*
X126714047Y-102294009D01*
X126714047Y-102294009D02*
X126809285Y-102246390D01*
X126809285Y-102246390D02*
X126856904Y-102198771D01*
X126856904Y-102198771D02*
X126904523Y-102103533D01*
X126904523Y-102103533D02*
X126904523Y-102008295D01*
X126904523Y-102008295D02*
X126856904Y-101913057D01*
X126856904Y-101913057D02*
X126809285Y-101865438D01*
X126809285Y-101865438D02*
X126714047Y-101817819D01*
X126714047Y-101817819D02*
X126475952Y-101817819D01*
X126475952Y-101817819D02*
X126333095Y-101865438D01*
X125999761Y-101817819D02*
X125761666Y-102817819D01*
X125761666Y-102817819D02*
X125571190Y-102103533D01*
X125571190Y-102103533D02*
X125380714Y-102817819D01*
X125380714Y-102817819D02*
X125142619Y-101817819D01*
X124237857Y-102817819D02*
X124809285Y-102817819D01*
X124523571Y-102817819D02*
X124523571Y-101817819D01*
X124523571Y-101817819D02*
X124618809Y-101960676D01*
X124618809Y-101960676D02*
X124714047Y-102055914D01*
X124714047Y-102055914D02*
X124809285Y-102103533D01*
X123856904Y-101913057D02*
X123809285Y-101865438D01*
X123809285Y-101865438D02*
X123714047Y-101817819D01*
X123714047Y-101817819D02*
X123475952Y-101817819D01*
X123475952Y-101817819D02*
X123380714Y-101865438D01*
X123380714Y-101865438D02*
X123333095Y-101913057D01*
X123333095Y-101913057D02*
X123285476Y-102008295D01*
X123285476Y-102008295D02*
X123285476Y-102103533D01*
X123285476Y-102103533D02*
X123333095Y-102246390D01*
X123333095Y-102246390D02*
X123904523Y-102817819D01*
X123904523Y-102817819D02*
X123285476Y-102817819D01*
X152627950Y-48189226D02*
X152675569Y-48332083D01*
X152675569Y-48332083D02*
X152675569Y-48570178D01*
X152675569Y-48570178D02*
X152627950Y-48665416D01*
X152627950Y-48665416D02*
X152580330Y-48713035D01*
X152580330Y-48713035D02*
X152485092Y-48760654D01*
X152485092Y-48760654D02*
X152389854Y-48760654D01*
X152389854Y-48760654D02*
X152294616Y-48713035D01*
X152294616Y-48713035D02*
X152246997Y-48665416D01*
X152246997Y-48665416D02*
X152199378Y-48570178D01*
X152199378Y-48570178D02*
X152151759Y-48379702D01*
X152151759Y-48379702D02*
X152104140Y-48284464D01*
X152104140Y-48284464D02*
X152056521Y-48236845D01*
X152056521Y-48236845D02*
X151961283Y-48189226D01*
X151961283Y-48189226D02*
X151866045Y-48189226D01*
X151866045Y-48189226D02*
X151770807Y-48236845D01*
X151770807Y-48236845D02*
X151723188Y-48284464D01*
X151723188Y-48284464D02*
X151675569Y-48379702D01*
X151675569Y-48379702D02*
X151675569Y-48617797D01*
X151675569Y-48617797D02*
X151723188Y-48760654D01*
X151675569Y-49093988D02*
X152675569Y-49332083D01*
X152675569Y-49332083D02*
X151961283Y-49522559D01*
X151961283Y-49522559D02*
X152675569Y-49713035D01*
X152675569Y-49713035D02*
X151675569Y-49951131D01*
X152675569Y-50855892D02*
X152675569Y-50284464D01*
X152675569Y-50570178D02*
X151675569Y-50570178D01*
X151675569Y-50570178D02*
X151818426Y-50474940D01*
X151818426Y-50474940D02*
X151913664Y-50379702D01*
X151913664Y-50379702D02*
X151961283Y-50284464D01*
X151675569Y-51189226D02*
X151675569Y-51808273D01*
X151675569Y-51808273D02*
X152056521Y-51474940D01*
X152056521Y-51474940D02*
X152056521Y-51617797D01*
X152056521Y-51617797D02*
X152104140Y-51713035D01*
X152104140Y-51713035D02*
X152151759Y-51760654D01*
X152151759Y-51760654D02*
X152246997Y-51808273D01*
X152246997Y-51808273D02*
X152485092Y-51808273D01*
X152485092Y-51808273D02*
X152580330Y-51760654D01*
X152580330Y-51760654D02*
X152627950Y-51713035D01*
X152627950Y-51713035D02*
X152675569Y-51617797D01*
X152675569Y-51617797D02*
X152675569Y-51332083D01*
X152675569Y-51332083D02*
X152627950Y-51236845D01*
X152627950Y-51236845D02*
X152580330Y-51189226D01*
X152677950Y-67739226D02*
X152725569Y-67882083D01*
X152725569Y-67882083D02*
X152725569Y-68120178D01*
X152725569Y-68120178D02*
X152677950Y-68215416D01*
X152677950Y-68215416D02*
X152630330Y-68263035D01*
X152630330Y-68263035D02*
X152535092Y-68310654D01*
X152535092Y-68310654D02*
X152439854Y-68310654D01*
X152439854Y-68310654D02*
X152344616Y-68263035D01*
X152344616Y-68263035D02*
X152296997Y-68215416D01*
X152296997Y-68215416D02*
X152249378Y-68120178D01*
X152249378Y-68120178D02*
X152201759Y-67929702D01*
X152201759Y-67929702D02*
X152154140Y-67834464D01*
X152154140Y-67834464D02*
X152106521Y-67786845D01*
X152106521Y-67786845D02*
X152011283Y-67739226D01*
X152011283Y-67739226D02*
X151916045Y-67739226D01*
X151916045Y-67739226D02*
X151820807Y-67786845D01*
X151820807Y-67786845D02*
X151773188Y-67834464D01*
X151773188Y-67834464D02*
X151725569Y-67929702D01*
X151725569Y-67929702D02*
X151725569Y-68167797D01*
X151725569Y-68167797D02*
X151773188Y-68310654D01*
X151725569Y-68643988D02*
X152725569Y-68882083D01*
X152725569Y-68882083D02*
X152011283Y-69072559D01*
X152011283Y-69072559D02*
X152725569Y-69263035D01*
X152725569Y-69263035D02*
X151725569Y-69501131D01*
X152725569Y-70405892D02*
X152725569Y-69834464D01*
X152725569Y-70120178D02*
X151725569Y-70120178D01*
X151725569Y-70120178D02*
X151868426Y-70024940D01*
X151868426Y-70024940D02*
X151963664Y-69929702D01*
X151963664Y-69929702D02*
X152011283Y-69834464D01*
X152058902Y-71263035D02*
X152725569Y-71263035D01*
X151677950Y-71024940D02*
X152392235Y-70786845D01*
X152392235Y-70786845D02*
X152392235Y-71405892D01*
X146121523Y-81163200D02*
X145978666Y-81210819D01*
X145978666Y-81210819D02*
X145740571Y-81210819D01*
X145740571Y-81210819D02*
X145645333Y-81163200D01*
X145645333Y-81163200D02*
X145597714Y-81115580D01*
X145597714Y-81115580D02*
X145550095Y-81020342D01*
X145550095Y-81020342D02*
X145550095Y-80925104D01*
X145550095Y-80925104D02*
X145597714Y-80829866D01*
X145597714Y-80829866D02*
X145645333Y-80782247D01*
X145645333Y-80782247D02*
X145740571Y-80734628D01*
X145740571Y-80734628D02*
X145931047Y-80687009D01*
X145931047Y-80687009D02*
X146026285Y-80639390D01*
X146026285Y-80639390D02*
X146073904Y-80591771D01*
X146073904Y-80591771D02*
X146121523Y-80496533D01*
X146121523Y-80496533D02*
X146121523Y-80401295D01*
X146121523Y-80401295D02*
X146073904Y-80306057D01*
X146073904Y-80306057D02*
X146026285Y-80258438D01*
X146026285Y-80258438D02*
X145931047Y-80210819D01*
X145931047Y-80210819D02*
X145692952Y-80210819D01*
X145692952Y-80210819D02*
X145550095Y-80258438D01*
X145216761Y-80210819D02*
X144978666Y-81210819D01*
X144978666Y-81210819D02*
X144788190Y-80496533D01*
X144788190Y-80496533D02*
X144597714Y-81210819D01*
X144597714Y-81210819D02*
X144359619Y-80210819D01*
X143454857Y-81210819D02*
X144026285Y-81210819D01*
X143740571Y-81210819D02*
X143740571Y-80210819D01*
X143740571Y-80210819D02*
X143835809Y-80353676D01*
X143835809Y-80353676D02*
X143931047Y-80448914D01*
X143931047Y-80448914D02*
X144026285Y-80496533D01*
X142550095Y-80210819D02*
X143026285Y-80210819D01*
X143026285Y-80210819D02*
X143073904Y-80687009D01*
X143073904Y-80687009D02*
X143026285Y-80639390D01*
X143026285Y-80639390D02*
X142931047Y-80591771D01*
X142931047Y-80591771D02*
X142692952Y-80591771D01*
X142692952Y-80591771D02*
X142597714Y-80639390D01*
X142597714Y-80639390D02*
X142550095Y-80687009D01*
X142550095Y-80687009D02*
X142502476Y-80782247D01*
X142502476Y-80782247D02*
X142502476Y-81020342D01*
X142502476Y-81020342D02*
X142550095Y-81115580D01*
X142550095Y-81115580D02*
X142597714Y-81163200D01*
X142597714Y-81163200D02*
X142692952Y-81210819D01*
X142692952Y-81210819D02*
X142931047Y-81210819D01*
X142931047Y-81210819D02*
X143026285Y-81163200D01*
X143026285Y-81163200D02*
X143073904Y-81115580D01*
X146121523Y-100663200D02*
X145978666Y-100710819D01*
X145978666Y-100710819D02*
X145740571Y-100710819D01*
X145740571Y-100710819D02*
X145645333Y-100663200D01*
X145645333Y-100663200D02*
X145597714Y-100615580D01*
X145597714Y-100615580D02*
X145550095Y-100520342D01*
X145550095Y-100520342D02*
X145550095Y-100425104D01*
X145550095Y-100425104D02*
X145597714Y-100329866D01*
X145597714Y-100329866D02*
X145645333Y-100282247D01*
X145645333Y-100282247D02*
X145740571Y-100234628D01*
X145740571Y-100234628D02*
X145931047Y-100187009D01*
X145931047Y-100187009D02*
X146026285Y-100139390D01*
X146026285Y-100139390D02*
X146073904Y-100091771D01*
X146073904Y-100091771D02*
X146121523Y-99996533D01*
X146121523Y-99996533D02*
X146121523Y-99901295D01*
X146121523Y-99901295D02*
X146073904Y-99806057D01*
X146073904Y-99806057D02*
X146026285Y-99758438D01*
X146026285Y-99758438D02*
X145931047Y-99710819D01*
X145931047Y-99710819D02*
X145692952Y-99710819D01*
X145692952Y-99710819D02*
X145550095Y-99758438D01*
X145216761Y-99710819D02*
X144978666Y-100710819D01*
X144978666Y-100710819D02*
X144788190Y-99996533D01*
X144788190Y-99996533D02*
X144597714Y-100710819D01*
X144597714Y-100710819D02*
X144359619Y-99710819D01*
X143454857Y-100710819D02*
X144026285Y-100710819D01*
X143740571Y-100710819D02*
X143740571Y-99710819D01*
X143740571Y-99710819D02*
X143835809Y-99853676D01*
X143835809Y-99853676D02*
X143931047Y-99948914D01*
X143931047Y-99948914D02*
X144026285Y-99996533D01*
X142597714Y-99710819D02*
X142788190Y-99710819D01*
X142788190Y-99710819D02*
X142883428Y-99758438D01*
X142883428Y-99758438D02*
X142931047Y-99806057D01*
X142931047Y-99806057D02*
X143026285Y-99948914D01*
X143026285Y-99948914D02*
X143073904Y-100139390D01*
X143073904Y-100139390D02*
X143073904Y-100520342D01*
X143073904Y-100520342D02*
X143026285Y-100615580D01*
X143026285Y-100615580D02*
X142978666Y-100663200D01*
X142978666Y-100663200D02*
X142883428Y-100710819D01*
X142883428Y-100710819D02*
X142692952Y-100710819D01*
X142692952Y-100710819D02*
X142597714Y-100663200D01*
X142597714Y-100663200D02*
X142550095Y-100615580D01*
X142550095Y-100615580D02*
X142502476Y-100520342D01*
X142502476Y-100520342D02*
X142502476Y-100282247D01*
X142502476Y-100282247D02*
X142550095Y-100187009D01*
X142550095Y-100187009D02*
X142597714Y-100139390D01*
X142597714Y-100139390D02*
X142692952Y-100091771D01*
X142692952Y-100091771D02*
X142883428Y-100091771D01*
X142883428Y-100091771D02*
X142978666Y-100139390D01*
X142978666Y-100139390D02*
X143026285Y-100187009D01*
X143026285Y-100187009D02*
X143073904Y-100282247D01*
X155602200Y-51403476D02*
X155649819Y-51546333D01*
X155649819Y-51546333D02*
X155649819Y-51784428D01*
X155649819Y-51784428D02*
X155602200Y-51879666D01*
X155602200Y-51879666D02*
X155554580Y-51927285D01*
X155554580Y-51927285D02*
X155459342Y-51974904D01*
X155459342Y-51974904D02*
X155364104Y-51974904D01*
X155364104Y-51974904D02*
X155268866Y-51927285D01*
X155268866Y-51927285D02*
X155221247Y-51879666D01*
X155221247Y-51879666D02*
X155173628Y-51784428D01*
X155173628Y-51784428D02*
X155126009Y-51593952D01*
X155126009Y-51593952D02*
X155078390Y-51498714D01*
X155078390Y-51498714D02*
X155030771Y-51451095D01*
X155030771Y-51451095D02*
X154935533Y-51403476D01*
X154935533Y-51403476D02*
X154840295Y-51403476D01*
X154840295Y-51403476D02*
X154745057Y-51451095D01*
X154745057Y-51451095D02*
X154697438Y-51498714D01*
X154697438Y-51498714D02*
X154649819Y-51593952D01*
X154649819Y-51593952D02*
X154649819Y-51832047D01*
X154649819Y-51832047D02*
X154697438Y-51974904D01*
X154649819Y-52308238D02*
X155649819Y-52546333D01*
X155649819Y-52546333D02*
X154935533Y-52736809D01*
X154935533Y-52736809D02*
X155649819Y-52927285D01*
X155649819Y-52927285D02*
X154649819Y-53165381D01*
X155649819Y-54070142D02*
X155649819Y-53498714D01*
X155649819Y-53784428D02*
X154649819Y-53784428D01*
X154649819Y-53784428D02*
X154792676Y-53689190D01*
X154792676Y-53689190D02*
X154887914Y-53593952D01*
X154887914Y-53593952D02*
X154935533Y-53498714D01*
X154649819Y-54403476D02*
X154649819Y-55070142D01*
X154649819Y-55070142D02*
X155649819Y-54641571D01*
X155602200Y-70453476D02*
X155649819Y-70596333D01*
X155649819Y-70596333D02*
X155649819Y-70834428D01*
X155649819Y-70834428D02*
X155602200Y-70929666D01*
X155602200Y-70929666D02*
X155554580Y-70977285D01*
X155554580Y-70977285D02*
X155459342Y-71024904D01*
X155459342Y-71024904D02*
X155364104Y-71024904D01*
X155364104Y-71024904D02*
X155268866Y-70977285D01*
X155268866Y-70977285D02*
X155221247Y-70929666D01*
X155221247Y-70929666D02*
X155173628Y-70834428D01*
X155173628Y-70834428D02*
X155126009Y-70643952D01*
X155126009Y-70643952D02*
X155078390Y-70548714D01*
X155078390Y-70548714D02*
X155030771Y-70501095D01*
X155030771Y-70501095D02*
X154935533Y-70453476D01*
X154935533Y-70453476D02*
X154840295Y-70453476D01*
X154840295Y-70453476D02*
X154745057Y-70501095D01*
X154745057Y-70501095D02*
X154697438Y-70548714D01*
X154697438Y-70548714D02*
X154649819Y-70643952D01*
X154649819Y-70643952D02*
X154649819Y-70882047D01*
X154649819Y-70882047D02*
X154697438Y-71024904D01*
X154649819Y-71358238D02*
X155649819Y-71596333D01*
X155649819Y-71596333D02*
X154935533Y-71786809D01*
X154935533Y-71786809D02*
X155649819Y-71977285D01*
X155649819Y-71977285D02*
X154649819Y-72215381D01*
X155649819Y-73120142D02*
X155649819Y-72548714D01*
X155649819Y-72834428D02*
X154649819Y-72834428D01*
X154649819Y-72834428D02*
X154792676Y-72739190D01*
X154792676Y-72739190D02*
X154887914Y-72643952D01*
X154887914Y-72643952D02*
X154935533Y-72548714D01*
X155078390Y-73691571D02*
X155030771Y-73596333D01*
X155030771Y-73596333D02*
X154983152Y-73548714D01*
X154983152Y-73548714D02*
X154887914Y-73501095D01*
X154887914Y-73501095D02*
X154840295Y-73501095D01*
X154840295Y-73501095D02*
X154745057Y-73548714D01*
X154745057Y-73548714D02*
X154697438Y-73596333D01*
X154697438Y-73596333D02*
X154649819Y-73691571D01*
X154649819Y-73691571D02*
X154649819Y-73882047D01*
X154649819Y-73882047D02*
X154697438Y-73977285D01*
X154697438Y-73977285D02*
X154745057Y-74024904D01*
X154745057Y-74024904D02*
X154840295Y-74072523D01*
X154840295Y-74072523D02*
X154887914Y-74072523D01*
X154887914Y-74072523D02*
X154983152Y-74024904D01*
X154983152Y-74024904D02*
X155030771Y-73977285D01*
X155030771Y-73977285D02*
X155078390Y-73882047D01*
X155078390Y-73882047D02*
X155078390Y-73691571D01*
X155078390Y-73691571D02*
X155126009Y-73596333D01*
X155126009Y-73596333D02*
X155173628Y-73548714D01*
X155173628Y-73548714D02*
X155268866Y-73501095D01*
X155268866Y-73501095D02*
X155459342Y-73501095D01*
X155459342Y-73501095D02*
X155554580Y-73548714D01*
X155554580Y-73548714D02*
X155602200Y-73596333D01*
X155602200Y-73596333D02*
X155649819Y-73691571D01*
X155649819Y-73691571D02*
X155649819Y-73882047D01*
X155649819Y-73882047D02*
X155602200Y-73977285D01*
X155602200Y-73977285D02*
X155554580Y-74024904D01*
X155554580Y-74024904D02*
X155459342Y-74072523D01*
X155459342Y-74072523D02*
X155268866Y-74072523D01*
X155268866Y-74072523D02*
X155173628Y-74024904D01*
X155173628Y-74024904D02*
X155126009Y-73977285D01*
X155126009Y-73977285D02*
X155078390Y-73882047D01*
X165004523Y-83720200D02*
X164861666Y-83767819D01*
X164861666Y-83767819D02*
X164623571Y-83767819D01*
X164623571Y-83767819D02*
X164528333Y-83720200D01*
X164528333Y-83720200D02*
X164480714Y-83672580D01*
X164480714Y-83672580D02*
X164433095Y-83577342D01*
X164433095Y-83577342D02*
X164433095Y-83482104D01*
X164433095Y-83482104D02*
X164480714Y-83386866D01*
X164480714Y-83386866D02*
X164528333Y-83339247D01*
X164528333Y-83339247D02*
X164623571Y-83291628D01*
X164623571Y-83291628D02*
X164814047Y-83244009D01*
X164814047Y-83244009D02*
X164909285Y-83196390D01*
X164909285Y-83196390D02*
X164956904Y-83148771D01*
X164956904Y-83148771D02*
X165004523Y-83053533D01*
X165004523Y-83053533D02*
X165004523Y-82958295D01*
X165004523Y-82958295D02*
X164956904Y-82863057D01*
X164956904Y-82863057D02*
X164909285Y-82815438D01*
X164909285Y-82815438D02*
X164814047Y-82767819D01*
X164814047Y-82767819D02*
X164575952Y-82767819D01*
X164575952Y-82767819D02*
X164433095Y-82815438D01*
X164099761Y-82767819D02*
X163861666Y-83767819D01*
X163861666Y-83767819D02*
X163671190Y-83053533D01*
X163671190Y-83053533D02*
X163480714Y-83767819D01*
X163480714Y-83767819D02*
X163242619Y-82767819D01*
X162337857Y-83767819D02*
X162909285Y-83767819D01*
X162623571Y-83767819D02*
X162623571Y-82767819D01*
X162623571Y-82767819D02*
X162718809Y-82910676D01*
X162718809Y-82910676D02*
X162814047Y-83005914D01*
X162814047Y-83005914D02*
X162909285Y-83053533D01*
X161861666Y-83767819D02*
X161671190Y-83767819D01*
X161671190Y-83767819D02*
X161575952Y-83720200D01*
X161575952Y-83720200D02*
X161528333Y-83672580D01*
X161528333Y-83672580D02*
X161433095Y-83529723D01*
X161433095Y-83529723D02*
X161385476Y-83339247D01*
X161385476Y-83339247D02*
X161385476Y-82958295D01*
X161385476Y-82958295D02*
X161433095Y-82863057D01*
X161433095Y-82863057D02*
X161480714Y-82815438D01*
X161480714Y-82815438D02*
X161575952Y-82767819D01*
X161575952Y-82767819D02*
X161766428Y-82767819D01*
X161766428Y-82767819D02*
X161861666Y-82815438D01*
X161861666Y-82815438D02*
X161909285Y-82863057D01*
X161909285Y-82863057D02*
X161956904Y-82958295D01*
X161956904Y-82958295D02*
X161956904Y-83196390D01*
X161956904Y-83196390D02*
X161909285Y-83291628D01*
X161909285Y-83291628D02*
X161861666Y-83339247D01*
X161861666Y-83339247D02*
X161766428Y-83386866D01*
X161766428Y-83386866D02*
X161575952Y-83386866D01*
X161575952Y-83386866D02*
X161480714Y-83339247D01*
X161480714Y-83339247D02*
X161433095Y-83291628D01*
X161433095Y-83291628D02*
X161385476Y-83196390D01*
X165004523Y-102770200D02*
X164861666Y-102817819D01*
X164861666Y-102817819D02*
X164623571Y-102817819D01*
X164623571Y-102817819D02*
X164528333Y-102770200D01*
X164528333Y-102770200D02*
X164480714Y-102722580D01*
X164480714Y-102722580D02*
X164433095Y-102627342D01*
X164433095Y-102627342D02*
X164433095Y-102532104D01*
X164433095Y-102532104D02*
X164480714Y-102436866D01*
X164480714Y-102436866D02*
X164528333Y-102389247D01*
X164528333Y-102389247D02*
X164623571Y-102341628D01*
X164623571Y-102341628D02*
X164814047Y-102294009D01*
X164814047Y-102294009D02*
X164909285Y-102246390D01*
X164909285Y-102246390D02*
X164956904Y-102198771D01*
X164956904Y-102198771D02*
X165004523Y-102103533D01*
X165004523Y-102103533D02*
X165004523Y-102008295D01*
X165004523Y-102008295D02*
X164956904Y-101913057D01*
X164956904Y-101913057D02*
X164909285Y-101865438D01*
X164909285Y-101865438D02*
X164814047Y-101817819D01*
X164814047Y-101817819D02*
X164575952Y-101817819D01*
X164575952Y-101817819D02*
X164433095Y-101865438D01*
X164099761Y-101817819D02*
X163861666Y-102817819D01*
X163861666Y-102817819D02*
X163671190Y-102103533D01*
X163671190Y-102103533D02*
X163480714Y-102817819D01*
X163480714Y-102817819D02*
X163242619Y-101817819D01*
X162909285Y-101913057D02*
X162861666Y-101865438D01*
X162861666Y-101865438D02*
X162766428Y-101817819D01*
X162766428Y-101817819D02*
X162528333Y-101817819D01*
X162528333Y-101817819D02*
X162433095Y-101865438D01*
X162433095Y-101865438D02*
X162385476Y-101913057D01*
X162385476Y-101913057D02*
X162337857Y-102008295D01*
X162337857Y-102008295D02*
X162337857Y-102103533D01*
X162337857Y-102103533D02*
X162385476Y-102246390D01*
X162385476Y-102246390D02*
X162956904Y-102817819D01*
X162956904Y-102817819D02*
X162337857Y-102817819D01*
X161718809Y-101817819D02*
X161623571Y-101817819D01*
X161623571Y-101817819D02*
X161528333Y-101865438D01*
X161528333Y-101865438D02*
X161480714Y-101913057D01*
X161480714Y-101913057D02*
X161433095Y-102008295D01*
X161433095Y-102008295D02*
X161385476Y-102198771D01*
X161385476Y-102198771D02*
X161385476Y-102436866D01*
X161385476Y-102436866D02*
X161433095Y-102627342D01*
X161433095Y-102627342D02*
X161480714Y-102722580D01*
X161480714Y-102722580D02*
X161528333Y-102770200D01*
X161528333Y-102770200D02*
X161623571Y-102817819D01*
X161623571Y-102817819D02*
X161718809Y-102817819D01*
X161718809Y-102817819D02*
X161814047Y-102770200D01*
X161814047Y-102770200D02*
X161861666Y-102722580D01*
X161861666Y-102722580D02*
X161909285Y-102627342D01*
X161909285Y-102627342D02*
X161956904Y-102436866D01*
X161956904Y-102436866D02*
X161956904Y-102198771D01*
X161956904Y-102198771D02*
X161909285Y-102008295D01*
X161909285Y-102008295D02*
X161861666Y-101913057D01*
X161861666Y-101913057D02*
X161814047Y-101865438D01*
X161814047Y-101865438D02*
X161718809Y-101817819D01*
X184054523Y-48001450D02*
X183911666Y-48049069D01*
X183911666Y-48049069D02*
X183673571Y-48049069D01*
X183673571Y-48049069D02*
X183578333Y-48001450D01*
X183578333Y-48001450D02*
X183530714Y-47953830D01*
X183530714Y-47953830D02*
X183483095Y-47858592D01*
X183483095Y-47858592D02*
X183483095Y-47763354D01*
X183483095Y-47763354D02*
X183530714Y-47668116D01*
X183530714Y-47668116D02*
X183578333Y-47620497D01*
X183578333Y-47620497D02*
X183673571Y-47572878D01*
X183673571Y-47572878D02*
X183864047Y-47525259D01*
X183864047Y-47525259D02*
X183959285Y-47477640D01*
X183959285Y-47477640D02*
X184006904Y-47430021D01*
X184006904Y-47430021D02*
X184054523Y-47334783D01*
X184054523Y-47334783D02*
X184054523Y-47239545D01*
X184054523Y-47239545D02*
X184006904Y-47144307D01*
X184006904Y-47144307D02*
X183959285Y-47096688D01*
X183959285Y-47096688D02*
X183864047Y-47049069D01*
X183864047Y-47049069D02*
X183625952Y-47049069D01*
X183625952Y-47049069D02*
X183483095Y-47096688D01*
X183149761Y-47049069D02*
X182911666Y-48049069D01*
X182911666Y-48049069D02*
X182721190Y-47334783D01*
X182721190Y-47334783D02*
X182530714Y-48049069D01*
X182530714Y-48049069D02*
X182292619Y-47049069D01*
X181959285Y-47144307D02*
X181911666Y-47096688D01*
X181911666Y-47096688D02*
X181816428Y-47049069D01*
X181816428Y-47049069D02*
X181578333Y-47049069D01*
X181578333Y-47049069D02*
X181483095Y-47096688D01*
X181483095Y-47096688D02*
X181435476Y-47144307D01*
X181435476Y-47144307D02*
X181387857Y-47239545D01*
X181387857Y-47239545D02*
X181387857Y-47334783D01*
X181387857Y-47334783D02*
X181435476Y-47477640D01*
X181435476Y-47477640D02*
X182006904Y-48049069D01*
X182006904Y-48049069D02*
X181387857Y-48049069D01*
X180435476Y-48049069D02*
X181006904Y-48049069D01*
X180721190Y-48049069D02*
X180721190Y-47049069D01*
X180721190Y-47049069D02*
X180816428Y-47191926D01*
X180816428Y-47191926D02*
X180911666Y-47287164D01*
X180911666Y-47287164D02*
X181006904Y-47334783D01*
X184054523Y-67051450D02*
X183911666Y-67099069D01*
X183911666Y-67099069D02*
X183673571Y-67099069D01*
X183673571Y-67099069D02*
X183578333Y-67051450D01*
X183578333Y-67051450D02*
X183530714Y-67003830D01*
X183530714Y-67003830D02*
X183483095Y-66908592D01*
X183483095Y-66908592D02*
X183483095Y-66813354D01*
X183483095Y-66813354D02*
X183530714Y-66718116D01*
X183530714Y-66718116D02*
X183578333Y-66670497D01*
X183578333Y-66670497D02*
X183673571Y-66622878D01*
X183673571Y-66622878D02*
X183864047Y-66575259D01*
X183864047Y-66575259D02*
X183959285Y-66527640D01*
X183959285Y-66527640D02*
X184006904Y-66480021D01*
X184006904Y-66480021D02*
X184054523Y-66384783D01*
X184054523Y-66384783D02*
X184054523Y-66289545D01*
X184054523Y-66289545D02*
X184006904Y-66194307D01*
X184006904Y-66194307D02*
X183959285Y-66146688D01*
X183959285Y-66146688D02*
X183864047Y-66099069D01*
X183864047Y-66099069D02*
X183625952Y-66099069D01*
X183625952Y-66099069D02*
X183483095Y-66146688D01*
X183149761Y-66099069D02*
X182911666Y-67099069D01*
X182911666Y-67099069D02*
X182721190Y-66384783D01*
X182721190Y-66384783D02*
X182530714Y-67099069D01*
X182530714Y-67099069D02*
X182292619Y-66099069D01*
X181959285Y-66194307D02*
X181911666Y-66146688D01*
X181911666Y-66146688D02*
X181816428Y-66099069D01*
X181816428Y-66099069D02*
X181578333Y-66099069D01*
X181578333Y-66099069D02*
X181483095Y-66146688D01*
X181483095Y-66146688D02*
X181435476Y-66194307D01*
X181435476Y-66194307D02*
X181387857Y-66289545D01*
X181387857Y-66289545D02*
X181387857Y-66384783D01*
X181387857Y-66384783D02*
X181435476Y-66527640D01*
X181435476Y-66527640D02*
X182006904Y-67099069D01*
X182006904Y-67099069D02*
X181387857Y-67099069D01*
X181006904Y-66194307D02*
X180959285Y-66146688D01*
X180959285Y-66146688D02*
X180864047Y-66099069D01*
X180864047Y-66099069D02*
X180625952Y-66099069D01*
X180625952Y-66099069D02*
X180530714Y-66146688D01*
X180530714Y-66146688D02*
X180483095Y-66194307D01*
X180483095Y-66194307D02*
X180435476Y-66289545D01*
X180435476Y-66289545D02*
X180435476Y-66384783D01*
X180435476Y-66384783D02*
X180483095Y-66527640D01*
X180483095Y-66527640D02*
X181054523Y-67099069D01*
X181054523Y-67099069D02*
X180435476Y-67099069D01*
X184054523Y-86101450D02*
X183911666Y-86149069D01*
X183911666Y-86149069D02*
X183673571Y-86149069D01*
X183673571Y-86149069D02*
X183578333Y-86101450D01*
X183578333Y-86101450D02*
X183530714Y-86053830D01*
X183530714Y-86053830D02*
X183483095Y-85958592D01*
X183483095Y-85958592D02*
X183483095Y-85863354D01*
X183483095Y-85863354D02*
X183530714Y-85768116D01*
X183530714Y-85768116D02*
X183578333Y-85720497D01*
X183578333Y-85720497D02*
X183673571Y-85672878D01*
X183673571Y-85672878D02*
X183864047Y-85625259D01*
X183864047Y-85625259D02*
X183959285Y-85577640D01*
X183959285Y-85577640D02*
X184006904Y-85530021D01*
X184006904Y-85530021D02*
X184054523Y-85434783D01*
X184054523Y-85434783D02*
X184054523Y-85339545D01*
X184054523Y-85339545D02*
X184006904Y-85244307D01*
X184006904Y-85244307D02*
X183959285Y-85196688D01*
X183959285Y-85196688D02*
X183864047Y-85149069D01*
X183864047Y-85149069D02*
X183625952Y-85149069D01*
X183625952Y-85149069D02*
X183483095Y-85196688D01*
X183149761Y-85149069D02*
X182911666Y-86149069D01*
X182911666Y-86149069D02*
X182721190Y-85434783D01*
X182721190Y-85434783D02*
X182530714Y-86149069D01*
X182530714Y-86149069D02*
X182292619Y-85149069D01*
X181959285Y-85244307D02*
X181911666Y-85196688D01*
X181911666Y-85196688D02*
X181816428Y-85149069D01*
X181816428Y-85149069D02*
X181578333Y-85149069D01*
X181578333Y-85149069D02*
X181483095Y-85196688D01*
X181483095Y-85196688D02*
X181435476Y-85244307D01*
X181435476Y-85244307D02*
X181387857Y-85339545D01*
X181387857Y-85339545D02*
X181387857Y-85434783D01*
X181387857Y-85434783D02*
X181435476Y-85577640D01*
X181435476Y-85577640D02*
X182006904Y-86149069D01*
X182006904Y-86149069D02*
X181387857Y-86149069D01*
X181054523Y-85149069D02*
X180435476Y-85149069D01*
X180435476Y-85149069D02*
X180768809Y-85530021D01*
X180768809Y-85530021D02*
X180625952Y-85530021D01*
X180625952Y-85530021D02*
X180530714Y-85577640D01*
X180530714Y-85577640D02*
X180483095Y-85625259D01*
X180483095Y-85625259D02*
X180435476Y-85720497D01*
X180435476Y-85720497D02*
X180435476Y-85958592D01*
X180435476Y-85958592D02*
X180483095Y-86053830D01*
X180483095Y-86053830D02*
X180530714Y-86101450D01*
X180530714Y-86101450D02*
X180625952Y-86149069D01*
X180625952Y-86149069D02*
X180911666Y-86149069D01*
X180911666Y-86149069D02*
X181006904Y-86101450D01*
X181006904Y-86101450D02*
X181054523Y-86053830D01*
X184054523Y-105151450D02*
X183911666Y-105199069D01*
X183911666Y-105199069D02*
X183673571Y-105199069D01*
X183673571Y-105199069D02*
X183578333Y-105151450D01*
X183578333Y-105151450D02*
X183530714Y-105103830D01*
X183530714Y-105103830D02*
X183483095Y-105008592D01*
X183483095Y-105008592D02*
X183483095Y-104913354D01*
X183483095Y-104913354D02*
X183530714Y-104818116D01*
X183530714Y-104818116D02*
X183578333Y-104770497D01*
X183578333Y-104770497D02*
X183673571Y-104722878D01*
X183673571Y-104722878D02*
X183864047Y-104675259D01*
X183864047Y-104675259D02*
X183959285Y-104627640D01*
X183959285Y-104627640D02*
X184006904Y-104580021D01*
X184006904Y-104580021D02*
X184054523Y-104484783D01*
X184054523Y-104484783D02*
X184054523Y-104389545D01*
X184054523Y-104389545D02*
X184006904Y-104294307D01*
X184006904Y-104294307D02*
X183959285Y-104246688D01*
X183959285Y-104246688D02*
X183864047Y-104199069D01*
X183864047Y-104199069D02*
X183625952Y-104199069D01*
X183625952Y-104199069D02*
X183483095Y-104246688D01*
X183149761Y-104199069D02*
X182911666Y-105199069D01*
X182911666Y-105199069D02*
X182721190Y-104484783D01*
X182721190Y-104484783D02*
X182530714Y-105199069D01*
X182530714Y-105199069D02*
X182292619Y-104199069D01*
X181959285Y-104294307D02*
X181911666Y-104246688D01*
X181911666Y-104246688D02*
X181816428Y-104199069D01*
X181816428Y-104199069D02*
X181578333Y-104199069D01*
X181578333Y-104199069D02*
X181483095Y-104246688D01*
X181483095Y-104246688D02*
X181435476Y-104294307D01*
X181435476Y-104294307D02*
X181387857Y-104389545D01*
X181387857Y-104389545D02*
X181387857Y-104484783D01*
X181387857Y-104484783D02*
X181435476Y-104627640D01*
X181435476Y-104627640D02*
X182006904Y-105199069D01*
X182006904Y-105199069D02*
X181387857Y-105199069D01*
X180530714Y-104532402D02*
X180530714Y-105199069D01*
X180768809Y-104151450D02*
X181006904Y-104865735D01*
X181006904Y-104865735D02*
X180387857Y-104865735D01*
X203104523Y-57526450D02*
X202961666Y-57574069D01*
X202961666Y-57574069D02*
X202723571Y-57574069D01*
X202723571Y-57574069D02*
X202628333Y-57526450D01*
X202628333Y-57526450D02*
X202580714Y-57478830D01*
X202580714Y-57478830D02*
X202533095Y-57383592D01*
X202533095Y-57383592D02*
X202533095Y-57288354D01*
X202533095Y-57288354D02*
X202580714Y-57193116D01*
X202580714Y-57193116D02*
X202628333Y-57145497D01*
X202628333Y-57145497D02*
X202723571Y-57097878D01*
X202723571Y-57097878D02*
X202914047Y-57050259D01*
X202914047Y-57050259D02*
X203009285Y-57002640D01*
X203009285Y-57002640D02*
X203056904Y-56955021D01*
X203056904Y-56955021D02*
X203104523Y-56859783D01*
X203104523Y-56859783D02*
X203104523Y-56764545D01*
X203104523Y-56764545D02*
X203056904Y-56669307D01*
X203056904Y-56669307D02*
X203009285Y-56621688D01*
X203009285Y-56621688D02*
X202914047Y-56574069D01*
X202914047Y-56574069D02*
X202675952Y-56574069D01*
X202675952Y-56574069D02*
X202533095Y-56621688D01*
X202199761Y-56574069D02*
X201961666Y-57574069D01*
X201961666Y-57574069D02*
X201771190Y-56859783D01*
X201771190Y-56859783D02*
X201580714Y-57574069D01*
X201580714Y-57574069D02*
X201342619Y-56574069D01*
X201009285Y-56669307D02*
X200961666Y-56621688D01*
X200961666Y-56621688D02*
X200866428Y-56574069D01*
X200866428Y-56574069D02*
X200628333Y-56574069D01*
X200628333Y-56574069D02*
X200533095Y-56621688D01*
X200533095Y-56621688D02*
X200485476Y-56669307D01*
X200485476Y-56669307D02*
X200437857Y-56764545D01*
X200437857Y-56764545D02*
X200437857Y-56859783D01*
X200437857Y-56859783D02*
X200485476Y-57002640D01*
X200485476Y-57002640D02*
X201056904Y-57574069D01*
X201056904Y-57574069D02*
X200437857Y-57574069D01*
X199533095Y-56574069D02*
X200009285Y-56574069D01*
X200009285Y-56574069D02*
X200056904Y-57050259D01*
X200056904Y-57050259D02*
X200009285Y-57002640D01*
X200009285Y-57002640D02*
X199914047Y-56955021D01*
X199914047Y-56955021D02*
X199675952Y-56955021D01*
X199675952Y-56955021D02*
X199580714Y-57002640D01*
X199580714Y-57002640D02*
X199533095Y-57050259D01*
X199533095Y-57050259D02*
X199485476Y-57145497D01*
X199485476Y-57145497D02*
X199485476Y-57383592D01*
X199485476Y-57383592D02*
X199533095Y-57478830D01*
X199533095Y-57478830D02*
X199580714Y-57526450D01*
X199580714Y-57526450D02*
X199675952Y-57574069D01*
X199675952Y-57574069D02*
X199914047Y-57574069D01*
X199914047Y-57574069D02*
X200009285Y-57526450D01*
X200009285Y-57526450D02*
X200056904Y-57478830D01*
X203104523Y-76576450D02*
X202961666Y-76624069D01*
X202961666Y-76624069D02*
X202723571Y-76624069D01*
X202723571Y-76624069D02*
X202628333Y-76576450D01*
X202628333Y-76576450D02*
X202580714Y-76528830D01*
X202580714Y-76528830D02*
X202533095Y-76433592D01*
X202533095Y-76433592D02*
X202533095Y-76338354D01*
X202533095Y-76338354D02*
X202580714Y-76243116D01*
X202580714Y-76243116D02*
X202628333Y-76195497D01*
X202628333Y-76195497D02*
X202723571Y-76147878D01*
X202723571Y-76147878D02*
X202914047Y-76100259D01*
X202914047Y-76100259D02*
X203009285Y-76052640D01*
X203009285Y-76052640D02*
X203056904Y-76005021D01*
X203056904Y-76005021D02*
X203104523Y-75909783D01*
X203104523Y-75909783D02*
X203104523Y-75814545D01*
X203104523Y-75814545D02*
X203056904Y-75719307D01*
X203056904Y-75719307D02*
X203009285Y-75671688D01*
X203009285Y-75671688D02*
X202914047Y-75624069D01*
X202914047Y-75624069D02*
X202675952Y-75624069D01*
X202675952Y-75624069D02*
X202533095Y-75671688D01*
X202199761Y-75624069D02*
X201961666Y-76624069D01*
X201961666Y-76624069D02*
X201771190Y-75909783D01*
X201771190Y-75909783D02*
X201580714Y-76624069D01*
X201580714Y-76624069D02*
X201342619Y-75624069D01*
X201009285Y-75719307D02*
X200961666Y-75671688D01*
X200961666Y-75671688D02*
X200866428Y-75624069D01*
X200866428Y-75624069D02*
X200628333Y-75624069D01*
X200628333Y-75624069D02*
X200533095Y-75671688D01*
X200533095Y-75671688D02*
X200485476Y-75719307D01*
X200485476Y-75719307D02*
X200437857Y-75814545D01*
X200437857Y-75814545D02*
X200437857Y-75909783D01*
X200437857Y-75909783D02*
X200485476Y-76052640D01*
X200485476Y-76052640D02*
X201056904Y-76624069D01*
X201056904Y-76624069D02*
X200437857Y-76624069D01*
X199580714Y-75624069D02*
X199771190Y-75624069D01*
X199771190Y-75624069D02*
X199866428Y-75671688D01*
X199866428Y-75671688D02*
X199914047Y-75719307D01*
X199914047Y-75719307D02*
X200009285Y-75862164D01*
X200009285Y-75862164D02*
X200056904Y-76052640D01*
X200056904Y-76052640D02*
X200056904Y-76433592D01*
X200056904Y-76433592D02*
X200009285Y-76528830D01*
X200009285Y-76528830D02*
X199961666Y-76576450D01*
X199961666Y-76576450D02*
X199866428Y-76624069D01*
X199866428Y-76624069D02*
X199675952Y-76624069D01*
X199675952Y-76624069D02*
X199580714Y-76576450D01*
X199580714Y-76576450D02*
X199533095Y-76528830D01*
X199533095Y-76528830D02*
X199485476Y-76433592D01*
X199485476Y-76433592D02*
X199485476Y-76195497D01*
X199485476Y-76195497D02*
X199533095Y-76100259D01*
X199533095Y-76100259D02*
X199580714Y-76052640D01*
X199580714Y-76052640D02*
X199675952Y-76005021D01*
X199675952Y-76005021D02*
X199866428Y-76005021D01*
X199866428Y-76005021D02*
X199961666Y-76052640D01*
X199961666Y-76052640D02*
X200009285Y-76100259D01*
X200009285Y-76100259D02*
X200056904Y-76195497D01*
X203104523Y-95626450D02*
X202961666Y-95674069D01*
X202961666Y-95674069D02*
X202723571Y-95674069D01*
X202723571Y-95674069D02*
X202628333Y-95626450D01*
X202628333Y-95626450D02*
X202580714Y-95578830D01*
X202580714Y-95578830D02*
X202533095Y-95483592D01*
X202533095Y-95483592D02*
X202533095Y-95388354D01*
X202533095Y-95388354D02*
X202580714Y-95293116D01*
X202580714Y-95293116D02*
X202628333Y-95245497D01*
X202628333Y-95245497D02*
X202723571Y-95197878D01*
X202723571Y-95197878D02*
X202914047Y-95150259D01*
X202914047Y-95150259D02*
X203009285Y-95102640D01*
X203009285Y-95102640D02*
X203056904Y-95055021D01*
X203056904Y-95055021D02*
X203104523Y-94959783D01*
X203104523Y-94959783D02*
X203104523Y-94864545D01*
X203104523Y-94864545D02*
X203056904Y-94769307D01*
X203056904Y-94769307D02*
X203009285Y-94721688D01*
X203009285Y-94721688D02*
X202914047Y-94674069D01*
X202914047Y-94674069D02*
X202675952Y-94674069D01*
X202675952Y-94674069D02*
X202533095Y-94721688D01*
X202199761Y-94674069D02*
X201961666Y-95674069D01*
X201961666Y-95674069D02*
X201771190Y-94959783D01*
X201771190Y-94959783D02*
X201580714Y-95674069D01*
X201580714Y-95674069D02*
X201342619Y-94674069D01*
X201009285Y-94769307D02*
X200961666Y-94721688D01*
X200961666Y-94721688D02*
X200866428Y-94674069D01*
X200866428Y-94674069D02*
X200628333Y-94674069D01*
X200628333Y-94674069D02*
X200533095Y-94721688D01*
X200533095Y-94721688D02*
X200485476Y-94769307D01*
X200485476Y-94769307D02*
X200437857Y-94864545D01*
X200437857Y-94864545D02*
X200437857Y-94959783D01*
X200437857Y-94959783D02*
X200485476Y-95102640D01*
X200485476Y-95102640D02*
X201056904Y-95674069D01*
X201056904Y-95674069D02*
X200437857Y-95674069D01*
X200104523Y-94674069D02*
X199437857Y-94674069D01*
X199437857Y-94674069D02*
X199866428Y-95674069D01*
X193937273Y-123506966D02*
X193907084Y-123654493D01*
X193907084Y-123654493D02*
X193788036Y-123860690D01*
X193788036Y-123860690D02*
X193699178Y-123919359D01*
X193699178Y-123919359D02*
X193634129Y-123936789D01*
X193634129Y-123936789D02*
X193527841Y-123930409D01*
X193527841Y-123930409D02*
X193445362Y-123882790D01*
X193445362Y-123882790D02*
X193386693Y-123793932D01*
X193386693Y-123793932D02*
X193369263Y-123728883D01*
X193369263Y-123728883D02*
X193375643Y-123622595D01*
X193375643Y-123622595D02*
X193429642Y-123433828D01*
X193429642Y-123433828D02*
X193436022Y-123327540D01*
X193436022Y-123327540D02*
X193418592Y-123262491D01*
X193418592Y-123262491D02*
X193359923Y-123173633D01*
X193359923Y-123173633D02*
X193277444Y-123126014D01*
X193277444Y-123126014D02*
X193171156Y-123119634D01*
X193171156Y-123119634D02*
X193106107Y-123137064D01*
X193106107Y-123137064D02*
X193017249Y-123195733D01*
X193017249Y-123195733D02*
X192898201Y-123401929D01*
X192898201Y-123401929D02*
X192868012Y-123549457D01*
X192660106Y-123814322D02*
X193407084Y-124520519D01*
X193407084Y-124520519D02*
X192693256Y-124328333D01*
X192693256Y-124328333D02*
X193216607Y-124850433D01*
X193216607Y-124850433D02*
X192231534Y-124556630D01*
X192147346Y-124892924D02*
X192082298Y-124910354D01*
X192082298Y-124910354D02*
X191993439Y-124969023D01*
X191993439Y-124969023D02*
X191874392Y-125175219D01*
X191874392Y-125175219D02*
X191868012Y-125281507D01*
X191868012Y-125281507D02*
X191885442Y-125346556D01*
X191885442Y-125346556D02*
X191944111Y-125435415D01*
X191944111Y-125435415D02*
X192026589Y-125483034D01*
X192026589Y-125483034D02*
X192174117Y-125513223D01*
X192174117Y-125513223D02*
X192954703Y-125304065D01*
X192954703Y-125304065D02*
X192645179Y-125840176D01*
X191864593Y-126049334D02*
X191870973Y-125943046D01*
X191870973Y-125943046D02*
X191853543Y-125877997D01*
X191853543Y-125877997D02*
X191794874Y-125789139D01*
X191794874Y-125789139D02*
X191753635Y-125765329D01*
X191753635Y-125765329D02*
X191647346Y-125758949D01*
X191647346Y-125758949D02*
X191582298Y-125776379D01*
X191582298Y-125776379D02*
X191493439Y-125835048D01*
X191493439Y-125835048D02*
X191398201Y-126000005D01*
X191398201Y-126000005D02*
X191391821Y-126106293D01*
X191391821Y-126106293D02*
X191409251Y-126171342D01*
X191409251Y-126171342D02*
X191467920Y-126260201D01*
X191467920Y-126260201D02*
X191509160Y-126284010D01*
X191509160Y-126284010D02*
X191615448Y-126290390D01*
X191615448Y-126290390D02*
X191680497Y-126272960D01*
X191680497Y-126272960D02*
X191769355Y-126214291D01*
X191769355Y-126214291D02*
X191864593Y-126049334D01*
X191864593Y-126049334D02*
X191953451Y-125990665D01*
X191953451Y-125990665D02*
X192018500Y-125973235D01*
X192018500Y-125973235D02*
X192124788Y-125979615D01*
X192124788Y-125979615D02*
X192289746Y-126074853D01*
X192289746Y-126074853D02*
X192348415Y-126163711D01*
X192348415Y-126163711D02*
X192365844Y-126228760D01*
X192365844Y-126228760D02*
X192359465Y-126335048D01*
X192359465Y-126335048D02*
X192264227Y-126500005D01*
X192264227Y-126500005D02*
X192175368Y-126558674D01*
X192175368Y-126558674D02*
X192110319Y-126576104D01*
X192110319Y-126576104D02*
X192004031Y-126569724D01*
X192004031Y-126569724D02*
X191839074Y-126474486D01*
X191839074Y-126474486D02*
X191780405Y-126385628D01*
X191780405Y-126385628D02*
X191762975Y-126320579D01*
X191762975Y-126320579D02*
X191769355Y-126214291D01*
X88804523Y-126582700D02*
X88661666Y-126630319D01*
X88661666Y-126630319D02*
X88423571Y-126630319D01*
X88423571Y-126630319D02*
X88328333Y-126582700D01*
X88328333Y-126582700D02*
X88280714Y-126535080D01*
X88280714Y-126535080D02*
X88233095Y-126439842D01*
X88233095Y-126439842D02*
X88233095Y-126344604D01*
X88233095Y-126344604D02*
X88280714Y-126249366D01*
X88280714Y-126249366D02*
X88328333Y-126201747D01*
X88328333Y-126201747D02*
X88423571Y-126154128D01*
X88423571Y-126154128D02*
X88614047Y-126106509D01*
X88614047Y-126106509D02*
X88709285Y-126058890D01*
X88709285Y-126058890D02*
X88756904Y-126011271D01*
X88756904Y-126011271D02*
X88804523Y-125916033D01*
X88804523Y-125916033D02*
X88804523Y-125820795D01*
X88804523Y-125820795D02*
X88756904Y-125725557D01*
X88756904Y-125725557D02*
X88709285Y-125677938D01*
X88709285Y-125677938D02*
X88614047Y-125630319D01*
X88614047Y-125630319D02*
X88375952Y-125630319D01*
X88375952Y-125630319D02*
X88233095Y-125677938D01*
X87899761Y-125630319D02*
X87661666Y-126630319D01*
X87661666Y-126630319D02*
X87471190Y-125916033D01*
X87471190Y-125916033D02*
X87280714Y-126630319D01*
X87280714Y-126630319D02*
X87042619Y-125630319D01*
X86756904Y-125630319D02*
X86137857Y-125630319D01*
X86137857Y-125630319D02*
X86471190Y-126011271D01*
X86471190Y-126011271D02*
X86328333Y-126011271D01*
X86328333Y-126011271D02*
X86233095Y-126058890D01*
X86233095Y-126058890D02*
X86185476Y-126106509D01*
X86185476Y-126106509D02*
X86137857Y-126201747D01*
X86137857Y-126201747D02*
X86137857Y-126439842D01*
X86137857Y-126439842D02*
X86185476Y-126535080D01*
X86185476Y-126535080D02*
X86233095Y-126582700D01*
X86233095Y-126582700D02*
X86328333Y-126630319D01*
X86328333Y-126630319D02*
X86614047Y-126630319D01*
X86614047Y-126630319D02*
X86709285Y-126582700D01*
X86709285Y-126582700D02*
X86756904Y-126535080D01*
X85518809Y-125630319D02*
X85423571Y-125630319D01*
X85423571Y-125630319D02*
X85328333Y-125677938D01*
X85328333Y-125677938D02*
X85280714Y-125725557D01*
X85280714Y-125725557D02*
X85233095Y-125820795D01*
X85233095Y-125820795D02*
X85185476Y-126011271D01*
X85185476Y-126011271D02*
X85185476Y-126249366D01*
X85185476Y-126249366D02*
X85233095Y-126439842D01*
X85233095Y-126439842D02*
X85280714Y-126535080D01*
X85280714Y-126535080D02*
X85328333Y-126582700D01*
X85328333Y-126582700D02*
X85423571Y-126630319D01*
X85423571Y-126630319D02*
X85518809Y-126630319D01*
X85518809Y-126630319D02*
X85614047Y-126582700D01*
X85614047Y-126582700D02*
X85661666Y-126535080D01*
X85661666Y-126535080D02*
X85709285Y-126439842D01*
X85709285Y-126439842D02*
X85756904Y-126249366D01*
X85756904Y-126249366D02*
X85756904Y-126011271D01*
X85756904Y-126011271D02*
X85709285Y-125820795D01*
X85709285Y-125820795D02*
X85661666Y-125725557D01*
X85661666Y-125725557D02*
X85614047Y-125677938D01*
X85614047Y-125677938D02*
X85518809Y-125630319D01*
X107854523Y-126582700D02*
X107711666Y-126630319D01*
X107711666Y-126630319D02*
X107473571Y-126630319D01*
X107473571Y-126630319D02*
X107378333Y-126582700D01*
X107378333Y-126582700D02*
X107330714Y-126535080D01*
X107330714Y-126535080D02*
X107283095Y-126439842D01*
X107283095Y-126439842D02*
X107283095Y-126344604D01*
X107283095Y-126344604D02*
X107330714Y-126249366D01*
X107330714Y-126249366D02*
X107378333Y-126201747D01*
X107378333Y-126201747D02*
X107473571Y-126154128D01*
X107473571Y-126154128D02*
X107664047Y-126106509D01*
X107664047Y-126106509D02*
X107759285Y-126058890D01*
X107759285Y-126058890D02*
X107806904Y-126011271D01*
X107806904Y-126011271D02*
X107854523Y-125916033D01*
X107854523Y-125916033D02*
X107854523Y-125820795D01*
X107854523Y-125820795D02*
X107806904Y-125725557D01*
X107806904Y-125725557D02*
X107759285Y-125677938D01*
X107759285Y-125677938D02*
X107664047Y-125630319D01*
X107664047Y-125630319D02*
X107425952Y-125630319D01*
X107425952Y-125630319D02*
X107283095Y-125677938D01*
X106949761Y-125630319D02*
X106711666Y-126630319D01*
X106711666Y-126630319D02*
X106521190Y-125916033D01*
X106521190Y-125916033D02*
X106330714Y-126630319D01*
X106330714Y-126630319D02*
X106092619Y-125630319D01*
X105806904Y-125630319D02*
X105187857Y-125630319D01*
X105187857Y-125630319D02*
X105521190Y-126011271D01*
X105521190Y-126011271D02*
X105378333Y-126011271D01*
X105378333Y-126011271D02*
X105283095Y-126058890D01*
X105283095Y-126058890D02*
X105235476Y-126106509D01*
X105235476Y-126106509D02*
X105187857Y-126201747D01*
X105187857Y-126201747D02*
X105187857Y-126439842D01*
X105187857Y-126439842D02*
X105235476Y-126535080D01*
X105235476Y-126535080D02*
X105283095Y-126582700D01*
X105283095Y-126582700D02*
X105378333Y-126630319D01*
X105378333Y-126630319D02*
X105664047Y-126630319D01*
X105664047Y-126630319D02*
X105759285Y-126582700D01*
X105759285Y-126582700D02*
X105806904Y-126535080D01*
X104235476Y-126630319D02*
X104806904Y-126630319D01*
X104521190Y-126630319D02*
X104521190Y-125630319D01*
X104521190Y-125630319D02*
X104616428Y-125773176D01*
X104616428Y-125773176D02*
X104711666Y-125868414D01*
X104711666Y-125868414D02*
X104806904Y-125916033D01*
X126904523Y-121820200D02*
X126761666Y-121867819D01*
X126761666Y-121867819D02*
X126523571Y-121867819D01*
X126523571Y-121867819D02*
X126428333Y-121820200D01*
X126428333Y-121820200D02*
X126380714Y-121772580D01*
X126380714Y-121772580D02*
X126333095Y-121677342D01*
X126333095Y-121677342D02*
X126333095Y-121582104D01*
X126333095Y-121582104D02*
X126380714Y-121486866D01*
X126380714Y-121486866D02*
X126428333Y-121439247D01*
X126428333Y-121439247D02*
X126523571Y-121391628D01*
X126523571Y-121391628D02*
X126714047Y-121344009D01*
X126714047Y-121344009D02*
X126809285Y-121296390D01*
X126809285Y-121296390D02*
X126856904Y-121248771D01*
X126856904Y-121248771D02*
X126904523Y-121153533D01*
X126904523Y-121153533D02*
X126904523Y-121058295D01*
X126904523Y-121058295D02*
X126856904Y-120963057D01*
X126856904Y-120963057D02*
X126809285Y-120915438D01*
X126809285Y-120915438D02*
X126714047Y-120867819D01*
X126714047Y-120867819D02*
X126475952Y-120867819D01*
X126475952Y-120867819D02*
X126333095Y-120915438D01*
X125999761Y-120867819D02*
X125761666Y-121867819D01*
X125761666Y-121867819D02*
X125571190Y-121153533D01*
X125571190Y-121153533D02*
X125380714Y-121867819D01*
X125380714Y-121867819D02*
X125142619Y-120867819D01*
X124856904Y-120867819D02*
X124237857Y-120867819D01*
X124237857Y-120867819D02*
X124571190Y-121248771D01*
X124571190Y-121248771D02*
X124428333Y-121248771D01*
X124428333Y-121248771D02*
X124333095Y-121296390D01*
X124333095Y-121296390D02*
X124285476Y-121344009D01*
X124285476Y-121344009D02*
X124237857Y-121439247D01*
X124237857Y-121439247D02*
X124237857Y-121677342D01*
X124237857Y-121677342D02*
X124285476Y-121772580D01*
X124285476Y-121772580D02*
X124333095Y-121820200D01*
X124333095Y-121820200D02*
X124428333Y-121867819D01*
X124428333Y-121867819D02*
X124714047Y-121867819D01*
X124714047Y-121867819D02*
X124809285Y-121820200D01*
X124809285Y-121820200D02*
X124856904Y-121772580D01*
X123856904Y-120963057D02*
X123809285Y-120915438D01*
X123809285Y-120915438D02*
X123714047Y-120867819D01*
X123714047Y-120867819D02*
X123475952Y-120867819D01*
X123475952Y-120867819D02*
X123380714Y-120915438D01*
X123380714Y-120915438D02*
X123333095Y-120963057D01*
X123333095Y-120963057D02*
X123285476Y-121058295D01*
X123285476Y-121058295D02*
X123285476Y-121153533D01*
X123285476Y-121153533D02*
X123333095Y-121296390D01*
X123333095Y-121296390D02*
X123904523Y-121867819D01*
X123904523Y-121867819D02*
X123285476Y-121867819D01*
X145954523Y-119438950D02*
X145811666Y-119486569D01*
X145811666Y-119486569D02*
X145573571Y-119486569D01*
X145573571Y-119486569D02*
X145478333Y-119438950D01*
X145478333Y-119438950D02*
X145430714Y-119391330D01*
X145430714Y-119391330D02*
X145383095Y-119296092D01*
X145383095Y-119296092D02*
X145383095Y-119200854D01*
X145383095Y-119200854D02*
X145430714Y-119105616D01*
X145430714Y-119105616D02*
X145478333Y-119057997D01*
X145478333Y-119057997D02*
X145573571Y-119010378D01*
X145573571Y-119010378D02*
X145764047Y-118962759D01*
X145764047Y-118962759D02*
X145859285Y-118915140D01*
X145859285Y-118915140D02*
X145906904Y-118867521D01*
X145906904Y-118867521D02*
X145954523Y-118772283D01*
X145954523Y-118772283D02*
X145954523Y-118677045D01*
X145954523Y-118677045D02*
X145906904Y-118581807D01*
X145906904Y-118581807D02*
X145859285Y-118534188D01*
X145859285Y-118534188D02*
X145764047Y-118486569D01*
X145764047Y-118486569D02*
X145525952Y-118486569D01*
X145525952Y-118486569D02*
X145383095Y-118534188D01*
X145049761Y-118486569D02*
X144811666Y-119486569D01*
X144811666Y-119486569D02*
X144621190Y-118772283D01*
X144621190Y-118772283D02*
X144430714Y-119486569D01*
X144430714Y-119486569D02*
X144192619Y-118486569D01*
X143906904Y-118486569D02*
X143287857Y-118486569D01*
X143287857Y-118486569D02*
X143621190Y-118867521D01*
X143621190Y-118867521D02*
X143478333Y-118867521D01*
X143478333Y-118867521D02*
X143383095Y-118915140D01*
X143383095Y-118915140D02*
X143335476Y-118962759D01*
X143335476Y-118962759D02*
X143287857Y-119057997D01*
X143287857Y-119057997D02*
X143287857Y-119296092D01*
X143287857Y-119296092D02*
X143335476Y-119391330D01*
X143335476Y-119391330D02*
X143383095Y-119438950D01*
X143383095Y-119438950D02*
X143478333Y-119486569D01*
X143478333Y-119486569D02*
X143764047Y-119486569D01*
X143764047Y-119486569D02*
X143859285Y-119438950D01*
X143859285Y-119438950D02*
X143906904Y-119391330D01*
X142954523Y-118486569D02*
X142335476Y-118486569D01*
X142335476Y-118486569D02*
X142668809Y-118867521D01*
X142668809Y-118867521D02*
X142525952Y-118867521D01*
X142525952Y-118867521D02*
X142430714Y-118915140D01*
X142430714Y-118915140D02*
X142383095Y-118962759D01*
X142383095Y-118962759D02*
X142335476Y-119057997D01*
X142335476Y-119057997D02*
X142335476Y-119296092D01*
X142335476Y-119296092D02*
X142383095Y-119391330D01*
X142383095Y-119391330D02*
X142430714Y-119438950D01*
X142430714Y-119438950D02*
X142525952Y-119486569D01*
X142525952Y-119486569D02*
X142811666Y-119486569D01*
X142811666Y-119486569D02*
X142906904Y-119438950D01*
X142906904Y-119438950D02*
X142954523Y-119391330D01*
X179655493Y-128504454D02*
X179507966Y-128474265D01*
X179507966Y-128474265D02*
X179301769Y-128355217D01*
X179301769Y-128355217D02*
X179243100Y-128266359D01*
X179243100Y-128266359D02*
X179225670Y-128201310D01*
X179225670Y-128201310D02*
X179232050Y-128095022D01*
X179232050Y-128095022D02*
X179279669Y-128012543D01*
X179279669Y-128012543D02*
X179368527Y-127953874D01*
X179368527Y-127953874D02*
X179433576Y-127936444D01*
X179433576Y-127936444D02*
X179539864Y-127942824D01*
X179539864Y-127942824D02*
X179728631Y-127996823D01*
X179728631Y-127996823D02*
X179834919Y-128003203D01*
X179834919Y-128003203D02*
X179899968Y-127985773D01*
X179899968Y-127985773D02*
X179988826Y-127927104D01*
X179988826Y-127927104D02*
X180036445Y-127844625D01*
X180036445Y-127844625D02*
X180042825Y-127738337D01*
X180042825Y-127738337D02*
X180025395Y-127673288D01*
X180025395Y-127673288D02*
X179966726Y-127584430D01*
X179966726Y-127584430D02*
X179760530Y-127465382D01*
X179760530Y-127465382D02*
X179613002Y-127435193D01*
X179348137Y-127227287D02*
X178641940Y-127974265D01*
X178641940Y-127974265D02*
X178834126Y-127260437D01*
X178834126Y-127260437D02*
X178312026Y-127783788D01*
X178312026Y-127783788D02*
X178605829Y-126798715D01*
X178358394Y-126655858D02*
X177822283Y-126346335D01*
X177822283Y-126346335D02*
X177920482Y-126842916D01*
X177920482Y-126842916D02*
X177796764Y-126771487D01*
X177796764Y-126771487D02*
X177690475Y-126765107D01*
X177690475Y-126765107D02*
X177625427Y-126782537D01*
X177625427Y-126782537D02*
X177536568Y-126841206D01*
X177536568Y-126841206D02*
X177417521Y-127047403D01*
X177417521Y-127047403D02*
X177411141Y-127153691D01*
X177411141Y-127153691D02*
X177428571Y-127218740D01*
X177428571Y-127218740D02*
X177487240Y-127307598D01*
X177487240Y-127307598D02*
X177734676Y-127450455D01*
X177734676Y-127450455D02*
X177840964Y-127456835D01*
X177840964Y-127456835D02*
X177906013Y-127439405D01*
X176913308Y-126206438D02*
X176579975Y-126783789D01*
X177309981Y-125995571D02*
X177159035Y-126733209D01*
X177159035Y-126733209D02*
X176622924Y-126423685D01*
X188476278Y-152212584D02*
X188328751Y-152182395D01*
X188328751Y-152182395D02*
X188122554Y-152063347D01*
X188122554Y-152063347D02*
X188063885Y-151974489D01*
X188063885Y-151974489D02*
X188046455Y-151909440D01*
X188046455Y-151909440D02*
X188052835Y-151803152D01*
X188052835Y-151803152D02*
X188100454Y-151720673D01*
X188100454Y-151720673D02*
X188189312Y-151662004D01*
X188189312Y-151662004D02*
X188254361Y-151644574D01*
X188254361Y-151644574D02*
X188360649Y-151650954D01*
X188360649Y-151650954D02*
X188549416Y-151704953D01*
X188549416Y-151704953D02*
X188655704Y-151711333D01*
X188655704Y-151711333D02*
X188720753Y-151693903D01*
X188720753Y-151693903D02*
X188809611Y-151635234D01*
X188809611Y-151635234D02*
X188857230Y-151552755D01*
X188857230Y-151552755D02*
X188863610Y-151446467D01*
X188863610Y-151446467D02*
X188846180Y-151381418D01*
X188846180Y-151381418D02*
X188787511Y-151292560D01*
X188787511Y-151292560D02*
X188581315Y-151173512D01*
X188581315Y-151173512D02*
X188433787Y-151143323D01*
X188168922Y-150935417D02*
X187462725Y-151682395D01*
X187462725Y-151682395D02*
X187654911Y-150968567D01*
X187654911Y-150968567D02*
X187132811Y-151491918D01*
X187132811Y-151491918D02*
X187426614Y-150506845D01*
X187179179Y-150363988D02*
X186643068Y-150054465D01*
X186643068Y-150054465D02*
X186741267Y-150551046D01*
X186741267Y-150551046D02*
X186617549Y-150479617D01*
X186617549Y-150479617D02*
X186511260Y-150473237D01*
X186511260Y-150473237D02*
X186446212Y-150490667D01*
X186446212Y-150490667D02*
X186357353Y-150549336D01*
X186357353Y-150549336D02*
X186238306Y-150755533D01*
X186238306Y-150755533D02*
X186231926Y-150861821D01*
X186231926Y-150861821D02*
X186249356Y-150926870D01*
X186249356Y-150926870D02*
X186308025Y-151015728D01*
X186308025Y-151015728D02*
X186555461Y-151158585D01*
X186555461Y-151158585D02*
X186661749Y-151164965D01*
X186661749Y-151164965D02*
X186726798Y-151147535D01*
X185859521Y-149602084D02*
X186271914Y-149840179D01*
X186271914Y-149840179D02*
X186075058Y-150276381D01*
X186075058Y-150276381D02*
X186057628Y-150211333D01*
X186057628Y-150211333D02*
X185998959Y-150122474D01*
X185998959Y-150122474D02*
X185792762Y-150003427D01*
X185792762Y-150003427D02*
X185686474Y-149997047D01*
X185686474Y-149997047D02*
X185621425Y-150014477D01*
X185621425Y-150014477D02*
X185532567Y-150073146D01*
X185532567Y-150073146D02*
X185413520Y-150279342D01*
X185413520Y-150279342D02*
X185407140Y-150385630D01*
X185407140Y-150385630D02*
X185424570Y-150450679D01*
X185424570Y-150450679D02*
X185483239Y-150539538D01*
X185483239Y-150539538D02*
X185689435Y-150658585D01*
X185689435Y-150658585D02*
X185795723Y-150664965D01*
X185795723Y-150664965D02*
X185860772Y-150647535D01*
X220236110Y-147612806D02*
X220205921Y-147760333D01*
X220205921Y-147760333D02*
X220086873Y-147966530D01*
X220086873Y-147966530D02*
X219998015Y-148025199D01*
X219998015Y-148025199D02*
X219932966Y-148042629D01*
X219932966Y-148042629D02*
X219826678Y-148036249D01*
X219826678Y-148036249D02*
X219744199Y-147988630D01*
X219744199Y-147988630D02*
X219685530Y-147899772D01*
X219685530Y-147899772D02*
X219668100Y-147834723D01*
X219668100Y-147834723D02*
X219674480Y-147728435D01*
X219674480Y-147728435D02*
X219728479Y-147539668D01*
X219728479Y-147539668D02*
X219734859Y-147433380D01*
X219734859Y-147433380D02*
X219717429Y-147368331D01*
X219717429Y-147368331D02*
X219658760Y-147279473D01*
X219658760Y-147279473D02*
X219576281Y-147231854D01*
X219576281Y-147231854D02*
X219469993Y-147225474D01*
X219469993Y-147225474D02*
X219404944Y-147242904D01*
X219404944Y-147242904D02*
X219316086Y-147301573D01*
X219316086Y-147301573D02*
X219197038Y-147507769D01*
X219197038Y-147507769D02*
X219166849Y-147655297D01*
X218958943Y-147920162D02*
X219705921Y-148626359D01*
X219705921Y-148626359D02*
X218992093Y-148434173D01*
X218992093Y-148434173D02*
X219515444Y-148956273D01*
X219515444Y-148956273D02*
X218530371Y-148662470D01*
X218414285Y-149530204D02*
X218991635Y-149863538D01*
X218203418Y-149133532D02*
X218941055Y-149284478D01*
X218941055Y-149284478D02*
X218631531Y-149820589D01*
X217768467Y-149982127D02*
X217720848Y-150064606D01*
X217720848Y-150064606D02*
X217714468Y-150170894D01*
X217714468Y-150170894D02*
X217731898Y-150235943D01*
X217731898Y-150235943D02*
X217790567Y-150324801D01*
X217790567Y-150324801D02*
X217931715Y-150461279D01*
X217931715Y-150461279D02*
X218137911Y-150580326D01*
X218137911Y-150580326D02*
X218326678Y-150634325D01*
X218326678Y-150634325D02*
X218432966Y-150640705D01*
X218432966Y-150640705D02*
X218498015Y-150623275D01*
X218498015Y-150623275D02*
X218586873Y-150564606D01*
X218586873Y-150564606D02*
X218634492Y-150482127D01*
X218634492Y-150482127D02*
X218640872Y-150375839D01*
X218640872Y-150375839D02*
X218623442Y-150310790D01*
X218623442Y-150310790D02*
X218564773Y-150221932D01*
X218564773Y-150221932D02*
X218423625Y-150085455D01*
X218423625Y-150085455D02*
X218217429Y-149966407D01*
X218217429Y-149966407D02*
X218028662Y-149912408D01*
X218028662Y-149912408D02*
X217922374Y-149906029D01*
X217922374Y-149906029D02*
X217857325Y-149923458D01*
X217857325Y-149923458D02*
X217768467Y-149982127D01*
%TO.C,J1*%
X195072000Y-43434000D02*
X195072000Y-44704000D01*
%TO.C,D68*%
X200661123Y-155841000D02*
X201501168Y-156326000D01*
X203160347Y-158092218D02*
X203860347Y-156879782D01*
X203510347Y-157486000D02*
X204761013Y-157399782D01*
X204061013Y-158612218D02*
X203510347Y-157486000D01*
X204761013Y-157399782D02*
X204061013Y-158612218D01*
X206420192Y-159166000D02*
X207260237Y-159651000D01*
%TO.C,D1*%
X96266800Y-58432700D02*
X97676500Y-58432700D01*
X96279500Y-57391300D02*
X97676500Y-57391300D01*
X96978000Y-55079900D02*
X96978000Y-54102000D01*
X96978000Y-58432700D02*
X96279500Y-57391300D01*
X96978000Y-61722000D02*
X96978000Y-60756800D01*
X97676500Y-57391300D02*
X96990700Y-58420000D01*
%TO.C,D2*%
X96266800Y-77609700D02*
X97676500Y-77609700D01*
X96279500Y-76568300D02*
X97676500Y-76568300D01*
X96978000Y-74256900D02*
X96978000Y-73279000D01*
X96978000Y-77609700D02*
X96279500Y-76568300D01*
X96978000Y-80899000D02*
X96978000Y-79933800D01*
X97676500Y-76568300D02*
X96990700Y-77597000D01*
%TO.C,D3*%
X95766800Y-96796700D02*
X97176500Y-96796700D01*
X95779500Y-95755300D02*
X97176500Y-95755300D01*
X96478000Y-93443900D02*
X96478000Y-92466000D01*
X96478000Y-96796700D02*
X95779500Y-95755300D01*
X96478000Y-100086000D02*
X96478000Y-99120800D01*
X97176500Y-95755300D02*
X96490700Y-96784000D01*
%TO.C,D4*%
X96266800Y-115296700D02*
X97676500Y-115296700D01*
X96279500Y-114255300D02*
X97676500Y-114255300D01*
X96978000Y-111943900D02*
X96978000Y-110966000D01*
X96978000Y-115296700D02*
X96279500Y-114255300D01*
X96978000Y-118586000D02*
X96978000Y-117620800D01*
X97676500Y-114255300D02*
X96990700Y-115284000D01*
%TO.C,D5*%
X115266800Y-57796700D02*
X116676500Y-57796700D01*
X115279500Y-56755300D02*
X116676500Y-56755300D01*
X115978000Y-54443900D02*
X115978000Y-53466000D01*
X115978000Y-57796700D02*
X115279500Y-56755300D01*
X115978000Y-61086000D02*
X115978000Y-60120800D01*
X116676500Y-56755300D02*
X115990700Y-57784000D01*
%TO.C,D6*%
X115266800Y-77406700D02*
X116676500Y-77406700D01*
X115279500Y-76365300D02*
X116676500Y-76365300D01*
X115978000Y-74053900D02*
X115978000Y-73076000D01*
X115978000Y-77406700D02*
X115279500Y-76365300D01*
X115978000Y-80696000D02*
X115978000Y-79730800D01*
X116676500Y-76365300D02*
X115990700Y-77394000D01*
%TO.C,D7*%
X115766800Y-95796700D02*
X117176500Y-95796700D01*
X115779500Y-94755300D02*
X117176500Y-94755300D01*
X116478000Y-92443900D02*
X116478000Y-91466000D01*
X116478000Y-95796700D02*
X115779500Y-94755300D01*
X116478000Y-99086000D02*
X116478000Y-98120800D01*
X117176500Y-94755300D02*
X116490700Y-95784000D01*
%TO.C,D8*%
X115266800Y-115582700D02*
X116676500Y-115582700D01*
X115279500Y-114541300D02*
X116676500Y-114541300D01*
X115978000Y-112229900D02*
X115978000Y-111252000D01*
X115978000Y-115582700D02*
X115279500Y-114541300D01*
X115978000Y-118872000D02*
X115978000Y-117906800D01*
X116676500Y-114541300D02*
X115990700Y-115570000D01*
%TO.C,D9*%
X122165900Y-62256000D02*
X121188000Y-62256000D01*
X124477300Y-61557500D02*
X125506000Y-62243300D01*
X124477300Y-62954500D02*
X124477300Y-61557500D01*
X125518700Y-62256000D02*
X124477300Y-62954500D01*
X125518700Y-62967200D02*
X125518700Y-61557500D01*
X128808000Y-62256000D02*
X127842800Y-62256000D01*
%TO.C,D10*%
X121665900Y-80256000D02*
X120688000Y-80256000D01*
X123977300Y-79557500D02*
X125006000Y-80243300D01*
X123977300Y-80954500D02*
X123977300Y-79557500D01*
X125018700Y-80256000D02*
X123977300Y-80954500D01*
X125018700Y-80967200D02*
X125018700Y-79557500D01*
X128308000Y-80256000D02*
X127342800Y-80256000D01*
%TO.C,D11*%
X122165900Y-100256000D02*
X121188000Y-100256000D01*
X124477300Y-99557500D02*
X125506000Y-100243300D01*
X124477300Y-100954500D02*
X124477300Y-99557500D01*
X125518700Y-100256000D02*
X124477300Y-100954500D01*
X125518700Y-100967200D02*
X125518700Y-99557500D01*
X128808000Y-100256000D02*
X127842800Y-100256000D01*
%TO.C,D12*%
X134266800Y-107296700D02*
X135676500Y-107296700D01*
X134279500Y-106255300D02*
X135676500Y-106255300D01*
X134978000Y-103943900D02*
X134978000Y-102966000D01*
X134978000Y-107296700D02*
X134279500Y-106255300D01*
X134978000Y-110586000D02*
X134978000Y-109620800D01*
X135676500Y-106255300D02*
X134990700Y-107284000D01*
%TO.C,D13*%
X135266800Y-55796700D02*
X136676500Y-55796700D01*
X135279500Y-54755300D02*
X136676500Y-54755300D01*
X135978000Y-52443900D02*
X135978000Y-51466000D01*
X135978000Y-55796700D02*
X135279500Y-54755300D01*
X135978000Y-59086000D02*
X135978000Y-58120800D01*
X136676500Y-54755300D02*
X135990700Y-55784000D01*
%TO.C,D14*%
X153266800Y-76696700D02*
X154676500Y-76696700D01*
X153279500Y-75655300D02*
X154676500Y-75655300D01*
X153978000Y-73343900D02*
X153978000Y-72366000D01*
X153978000Y-76696700D02*
X153279500Y-75655300D01*
X153978000Y-79986000D02*
X153978000Y-79020800D01*
X154676500Y-75655300D02*
X153990700Y-76684000D01*
%TO.C,D16*%
X140665900Y-98756000D02*
X139688000Y-98756000D01*
X142977300Y-98057500D02*
X144006000Y-98743300D01*
X142977300Y-99454500D02*
X142977300Y-98057500D01*
X144018700Y-98756000D02*
X142977300Y-99454500D01*
X144018700Y-99467200D02*
X144018700Y-98057500D01*
X147308000Y-98756000D02*
X146342800Y-98756000D01*
%TO.C,D17*%
X173266800Y-59296700D02*
X174676500Y-59296700D01*
X173279500Y-58255300D02*
X174676500Y-58255300D01*
X173978000Y-55943900D02*
X173978000Y-54966000D01*
X173978000Y-59296700D02*
X173279500Y-58255300D01*
X173978000Y-62586000D02*
X173978000Y-61620800D01*
X174676500Y-58255300D02*
X173990700Y-59284000D01*
%TO.C,D19*%
X153266800Y-92574700D02*
X154676500Y-92574700D01*
X153279500Y-91533300D02*
X154676500Y-91533300D01*
X153978000Y-89221900D02*
X153978000Y-88244000D01*
X153978000Y-92574700D02*
X153279500Y-91533300D01*
X153978000Y-95864000D02*
X153978000Y-94898800D01*
X154676500Y-91533300D02*
X153990700Y-92562000D01*
%TO.C,D20*%
X172766800Y-110796700D02*
X174176500Y-110796700D01*
X172779500Y-109755300D02*
X174176500Y-109755300D01*
X173478000Y-107443900D02*
X173478000Y-106466000D01*
X173478000Y-110796700D02*
X172779500Y-109755300D01*
X173478000Y-114086000D02*
X173478000Y-113120800D01*
X174176500Y-109755300D02*
X173490700Y-110784000D01*
%TO.C,D21*%
X179565900Y-64256000D02*
X178588000Y-64256000D01*
X181877300Y-63557500D02*
X182906000Y-64243300D01*
X181877300Y-64954500D02*
X181877300Y-63557500D01*
X182918700Y-64256000D02*
X181877300Y-64954500D01*
X182918700Y-64967200D02*
X182918700Y-63557500D01*
X186208000Y-64256000D02*
X185242800Y-64256000D01*
%TO.C,D22*%
X171766800Y-76406700D02*
X173176500Y-76406700D01*
X171779500Y-75365300D02*
X173176500Y-75365300D01*
X172478000Y-73053900D02*
X172478000Y-72076000D01*
X172478000Y-76406700D02*
X171779500Y-75365300D01*
X172478000Y-79696000D02*
X172478000Y-78730800D01*
X173176500Y-75365300D02*
X172490700Y-76394000D01*
%TO.C,D23*%
X172766800Y-93406700D02*
X174176500Y-93406700D01*
X172779500Y-92365300D02*
X174176500Y-92365300D01*
X173478000Y-90053900D02*
X173478000Y-89076000D01*
X173478000Y-93406700D02*
X172779500Y-92365300D01*
X173478000Y-96696000D02*
X173478000Y-95730800D01*
X174176500Y-92365300D02*
X173490700Y-93394000D01*
%TO.C,D24*%
X179565900Y-103256000D02*
X178588000Y-103256000D01*
X181877300Y-102557500D02*
X182906000Y-103243300D01*
X181877300Y-103954500D02*
X181877300Y-102557500D01*
X182918700Y-103256000D02*
X181877300Y-103954500D01*
X182918700Y-103967200D02*
X182918700Y-102557500D01*
X186208000Y-103256000D02*
X185242800Y-103256000D01*
%TO.C,D25*%
X191766800Y-75796700D02*
X193176500Y-75796700D01*
X191779500Y-74755300D02*
X193176500Y-74755300D01*
X192478000Y-72443900D02*
X192478000Y-71466000D01*
X192478000Y-75796700D02*
X191779500Y-74755300D01*
X192478000Y-79086000D02*
X192478000Y-78120800D01*
X193176500Y-74755300D02*
X192490700Y-75784000D01*
%TO.C,D26*%
X191766800Y-89296700D02*
X193176500Y-89296700D01*
X191779500Y-88255300D02*
X193176500Y-88255300D01*
X192478000Y-85943900D02*
X192478000Y-84966000D01*
X192478000Y-89296700D02*
X191779500Y-88255300D01*
X192478000Y-92586000D02*
X192478000Y-91620800D01*
X193176500Y-88255300D02*
X192490700Y-89284000D01*
%TO.C,D27*%
X190766800Y-102296700D02*
X192176500Y-102296700D01*
X190779500Y-101255300D02*
X192176500Y-101255300D01*
X191478000Y-98943900D02*
X191478000Y-97966000D01*
X191478000Y-102296700D02*
X190779500Y-101255300D01*
X191478000Y-105586000D02*
X191478000Y-104620800D01*
X192176500Y-101255300D02*
X191490700Y-102284000D01*
%TO.C,D28*%
X189266800Y-118796700D02*
X190676500Y-118796700D01*
X189279500Y-117755300D02*
X190676500Y-117755300D01*
X189978000Y-115443900D02*
X189978000Y-114466000D01*
X189978000Y-118796700D02*
X189279500Y-117755300D01*
X189978000Y-122086000D02*
X189978000Y-121120800D01*
X190676500Y-117755300D02*
X189990700Y-118784000D01*
%TO.C,D29*%
X84165900Y-124756000D02*
X83188000Y-124756000D01*
X86477300Y-124057500D02*
X87506000Y-124743300D01*
X86477300Y-125454500D02*
X86477300Y-124057500D01*
X87518700Y-124756000D02*
X86477300Y-125454500D01*
X87518700Y-125467200D02*
X87518700Y-124057500D01*
X90808000Y-124756000D02*
X89842800Y-124756000D01*
%TO.C,D30*%
X115266800Y-130296700D02*
X116676500Y-130296700D01*
X115279500Y-129255300D02*
X116676500Y-129255300D01*
X115978000Y-126943900D02*
X115978000Y-125966000D01*
X115978000Y-130296700D02*
X115279500Y-129255300D01*
X115978000Y-133586000D02*
X115978000Y-132620800D01*
X116676500Y-129255300D02*
X115990700Y-130284000D01*
%TO.C,D31*%
X122165900Y-138256000D02*
X121188000Y-138256000D01*
X124477300Y-137557500D02*
X125506000Y-138243300D01*
X124477300Y-138954500D02*
X124477300Y-137557500D01*
X125518700Y-138256000D02*
X124477300Y-138954500D01*
X125518700Y-138967200D02*
X125518700Y-137557500D01*
X128808000Y-138256000D02*
X127842800Y-138256000D01*
%TO.C,D33*%
X174125920Y-120799950D02*
X173279034Y-120311000D01*
X175778402Y-122560569D02*
X176476902Y-121350731D01*
X176476902Y-121350731D02*
X177024882Y-122459001D01*
X176673930Y-123092267D02*
X177378780Y-121871431D01*
X177029530Y-122476350D02*
X175778402Y-122560569D01*
X179878148Y-124121000D02*
X179042260Y-123638400D01*
%TO.C,D34*%
X186063000Y-135072878D02*
X186545600Y-134236990D01*
X187091733Y-131868660D02*
X188312569Y-132573510D01*
X187623431Y-130973132D02*
X188833269Y-131671632D01*
X187707650Y-132224260D02*
X187623431Y-130973132D01*
X188833269Y-131671632D02*
X187724999Y-132219612D01*
X189384050Y-129320650D02*
X189873000Y-128473764D01*
%TO.C,D32*%
X134266800Y-128196700D02*
X135676500Y-128196700D01*
X134279500Y-127155300D02*
X135676500Y-127155300D01*
X134978000Y-124843900D02*
X134978000Y-123866000D01*
X134978000Y-128196700D02*
X134279500Y-127155300D01*
X134978000Y-131486000D02*
X134978000Y-130520800D01*
X135676500Y-127155300D02*
X134990700Y-128184000D01*
%TO.C,D15*%
X142165900Y-78756000D02*
X141188000Y-78756000D01*
X144477300Y-78057500D02*
X145506000Y-78743300D01*
X144477300Y-79454500D02*
X144477300Y-78057500D01*
X145518700Y-78756000D02*
X144477300Y-79454500D01*
X145518700Y-79467200D02*
X145518700Y-78057500D01*
X148808000Y-78756000D02*
X147842800Y-78756000D01*
%TO.C,D18*%
X160165900Y-81256000D02*
X159188000Y-81256000D01*
X162477300Y-80557500D02*
X163506000Y-81243300D01*
X162477300Y-81954500D02*
X162477300Y-80557500D01*
X163518700Y-81256000D02*
X162477300Y-81954500D01*
X163518700Y-81967200D02*
X163518700Y-80557500D01*
X166808000Y-81256000D02*
X165842800Y-81256000D01*
%TO.C,U3*%
X154305000Y-38100000D02*
X154305000Y-68580000D01*
X154305000Y-68580000D02*
X156845000Y-68580000D01*
X156845000Y-38100000D02*
X154305000Y-38100000D01*
X156845000Y-68580000D02*
X156845000Y-38100000D01*
X169545000Y-38100000D02*
X169545000Y-68580000D01*
X169545000Y-68580000D02*
X172085000Y-68580000D01*
X172085000Y-38100000D02*
X169545000Y-38100000D01*
X172085000Y-68580000D02*
X172085000Y-38100000D01*
%TO.C,SW1*%
D13*
X79895000Y-50875500D02*
X94095000Y-50875500D01*
X79895000Y-65075500D02*
X79895000Y-50875500D01*
X94095000Y-50875500D02*
X94095000Y-65075500D01*
X94095000Y-65075500D02*
X79895000Y-65075500D01*
%TO.C,SW2*%
X79895000Y-69925500D02*
X94095000Y-69925500D01*
X79895000Y-84125500D02*
X79895000Y-69925500D01*
X94095000Y-69925500D02*
X94095000Y-84125500D01*
X94095000Y-84125500D02*
X79895000Y-84125500D01*
%TO.C,SW3*%
X79895000Y-88975500D02*
X94095000Y-88975500D01*
X79895000Y-103175500D02*
X79895000Y-88975500D01*
X94095000Y-88975500D02*
X94095000Y-103175500D01*
X94095000Y-103175500D02*
X79895000Y-103175500D01*
%TO.C,SW4*%
X79895000Y-108025500D02*
X94095000Y-108025500D01*
X79895000Y-122225500D02*
X79895000Y-108025500D01*
X94095000Y-108025500D02*
X94095000Y-122225500D01*
X94095000Y-122225500D02*
X79895000Y-122225500D01*
%TO.C,SW5*%
X98945000Y-50875500D02*
X113145000Y-50875500D01*
X98945000Y-65075500D02*
X98945000Y-50875500D01*
X113145000Y-50875500D02*
X113145000Y-65075500D01*
X113145000Y-65075500D02*
X98945000Y-65075500D01*
%TO.C,SW6*%
X98945000Y-69925500D02*
X113145000Y-69925500D01*
X98945000Y-84125500D02*
X98945000Y-69925500D01*
X113145000Y-69925500D02*
X113145000Y-84125500D01*
X113145000Y-84125500D02*
X98945000Y-84125500D01*
%TO.C,SW7*%
X98945000Y-88975500D02*
X113145000Y-88975500D01*
X98945000Y-103175500D02*
X98945000Y-88975500D01*
X113145000Y-88975500D02*
X113145000Y-103175500D01*
X113145000Y-103175500D02*
X98945000Y-103175500D01*
%TO.C,SW8*%
X98945000Y-108025500D02*
X113145000Y-108025500D01*
X98945000Y-122225500D02*
X98945000Y-108025500D01*
X113145000Y-108025500D02*
X113145000Y-122225500D01*
X113145000Y-122225500D02*
X98945000Y-122225500D01*
%TO.C,SW9*%
X117995000Y-46113000D02*
X132195000Y-46113000D01*
X117995000Y-60313000D02*
X117995000Y-46113000D01*
X132195000Y-46113000D02*
X132195000Y-60313000D01*
X132195000Y-60313000D02*
X117995000Y-60313000D01*
%TO.C,SW10*%
X117995000Y-65163000D02*
X132195000Y-65163000D01*
X117995000Y-79363000D02*
X117995000Y-65163000D01*
X132195000Y-65163000D02*
X132195000Y-79363000D01*
X132195000Y-79363000D02*
X117995000Y-79363000D01*
%TO.C,SW11*%
X117995000Y-84213000D02*
X132195000Y-84213000D01*
X117995000Y-98413000D02*
X117995000Y-84213000D01*
X132195000Y-84213000D02*
X132195000Y-98413000D01*
X132195000Y-98413000D02*
X117995000Y-98413000D01*
%TO.C,SW12*%
X117995000Y-103263000D02*
X132195000Y-103263000D01*
X117995000Y-117463000D02*
X117995000Y-103263000D01*
X132195000Y-103263000D02*
X132195000Y-117463000D01*
X132195000Y-117463000D02*
X117995000Y-117463000D01*
%TO.C,SW13*%
X137045000Y-43731750D02*
X151245000Y-43731750D01*
X137045000Y-57931750D02*
X137045000Y-43731750D01*
X151245000Y-43731750D02*
X151245000Y-57931750D01*
X151245000Y-57931750D02*
X137045000Y-57931750D01*
%TO.C,SW14*%
X137045000Y-62781750D02*
X151245000Y-62781750D01*
X137045000Y-76981750D02*
X137045000Y-62781750D01*
X151245000Y-62781750D02*
X151245000Y-76981750D01*
X151245000Y-76981750D02*
X137045000Y-76981750D01*
%TO.C,SW15*%
X137045000Y-81831750D02*
X151245000Y-81831750D01*
X137045000Y-96031750D02*
X137045000Y-81831750D01*
X151245000Y-81831750D02*
X151245000Y-96031750D01*
X151245000Y-96031750D02*
X137045000Y-96031750D01*
%TO.C,SW16*%
X137045000Y-100881750D02*
X151245000Y-100881750D01*
X137045000Y-115081750D02*
X137045000Y-100881750D01*
X151245000Y-100881750D02*
X151245000Y-115081750D01*
X151245000Y-115081750D02*
X137045000Y-115081750D01*
%TO.C,SW17*%
X156095000Y-46113000D02*
X170295000Y-46113000D01*
X156095000Y-60313000D02*
X156095000Y-46113000D01*
X170295000Y-46113000D02*
X170295000Y-60313000D01*
X170295000Y-60313000D02*
X156095000Y-60313000D01*
%TO.C,SW18*%
X156095000Y-65163000D02*
X170295000Y-65163000D01*
X156095000Y-79363000D02*
X156095000Y-65163000D01*
X170295000Y-65163000D02*
X170295000Y-79363000D01*
X170295000Y-79363000D02*
X156095000Y-79363000D01*
%TO.C,SW19*%
X156095000Y-84213000D02*
X170295000Y-84213000D01*
X156095000Y-98413000D02*
X156095000Y-84213000D01*
X170295000Y-84213000D02*
X170295000Y-98413000D01*
X170295000Y-98413000D02*
X156095000Y-98413000D01*
%TO.C,SW20*%
X156095000Y-103263000D02*
X170295000Y-103263000D01*
X156095000Y-117463000D02*
X156095000Y-103263000D01*
X170295000Y-103263000D02*
X170295000Y-117463000D01*
X170295000Y-117463000D02*
X156095000Y-117463000D01*
%TO.C,SW21*%
X175145000Y-48494250D02*
X189345000Y-48494250D01*
X175145000Y-62694250D02*
X175145000Y-48494250D01*
X189345000Y-48494250D02*
X189345000Y-62694250D01*
X189345000Y-62694250D02*
X175145000Y-62694250D01*
%TO.C,SW22*%
X175145000Y-67544250D02*
X189345000Y-67544250D01*
X175145000Y-81744250D02*
X175145000Y-67544250D01*
X189345000Y-67544250D02*
X189345000Y-81744250D01*
X189345000Y-81744250D02*
X175145000Y-81744250D01*
%TO.C,SW23*%
X175145000Y-86594250D02*
X189345000Y-86594250D01*
X175145000Y-100794250D02*
X175145000Y-86594250D01*
X189345000Y-86594250D02*
X189345000Y-100794250D01*
X189345000Y-100794250D02*
X175145000Y-100794250D01*
%TO.C,SW24*%
X175145000Y-105644250D02*
X189345000Y-105644250D01*
X175145000Y-119844250D02*
X175145000Y-105644250D01*
X189345000Y-105644250D02*
X189345000Y-119844250D01*
X189345000Y-119844250D02*
X175145000Y-119844250D01*
%TO.C,SW25*%
X194195000Y-58019250D02*
X208395000Y-58019250D01*
X194195000Y-72219250D02*
X194195000Y-58019250D01*
X208395000Y-58019250D02*
X208395000Y-72219250D01*
X208395000Y-72219250D02*
X194195000Y-72219250D01*
%TO.C,SW26*%
X194195000Y-77069250D02*
X208395000Y-77069250D01*
X194195000Y-91269250D02*
X194195000Y-77069250D01*
X208395000Y-77069250D02*
X208395000Y-91269250D01*
X208395000Y-91269250D02*
X194195000Y-91269250D01*
%TO.C,SW27*%
X194195000Y-96119250D02*
X208395000Y-96119250D01*
X194195000Y-110319250D02*
X194195000Y-96119250D01*
X208395000Y-96119250D02*
X208395000Y-110319250D01*
X208395000Y-110319250D02*
X194195000Y-110319250D01*
%TO.C,SW28*%
X190616220Y-129801081D02*
X197716219Y-117503520D01*
X197716219Y-117503520D02*
X210013780Y-124603519D01*
X202913781Y-136901080D02*
X190616220Y-129801081D01*
X210013780Y-124603519D02*
X202913781Y-136901080D01*
%TO.C,SW30*%
X79895000Y-127075500D02*
X94095000Y-127075500D01*
X79895000Y-141275500D02*
X79895000Y-127075500D01*
X94095000Y-127075500D02*
X94095000Y-141275500D01*
X94095000Y-141275500D02*
X79895000Y-141275500D01*
%TO.C,SW31*%
X98945000Y-127075500D02*
X113145000Y-127075500D01*
X98945000Y-141275500D02*
X98945000Y-127075500D01*
X113145000Y-127075500D02*
X113145000Y-141275500D01*
X113145000Y-141275500D02*
X98945000Y-141275500D01*
%TO.C,SW32*%
X117995000Y-122313000D02*
X132195000Y-122313000D01*
X117995000Y-136513000D02*
X117995000Y-122313000D01*
X132195000Y-122313000D02*
X132195000Y-136513000D01*
X132195000Y-136513000D02*
X117995000Y-136513000D01*
%TO.C,SW33*%
X137045000Y-119931750D02*
X151245000Y-119931750D01*
X137045000Y-134131750D02*
X137045000Y-119931750D01*
X151245000Y-119931750D02*
X151245000Y-134131750D01*
X151245000Y-134131750D02*
X137045000Y-134131750D01*
%TO.C,SW34*%
X164593220Y-136774031D02*
X171693219Y-124476470D01*
X171693219Y-124476470D02*
X183990780Y-131576469D01*
X176890781Y-143874030D02*
X164593220Y-136774031D01*
X183990780Y-131576469D02*
X176890781Y-143874030D01*
%TO.C,SW35*%
X181091220Y-146299081D02*
X188191219Y-134001520D01*
X188191219Y-134001520D02*
X200488780Y-141101519D01*
X193388781Y-153399080D02*
X181091220Y-146299081D01*
X200488780Y-141101519D02*
X193388781Y-153399080D01*
%TO.C,SW40*%
X202351720Y-147575081D02*
X209451719Y-135277520D01*
X209451719Y-135277520D02*
X221749280Y-142377519D01*
X214649281Y-154675080D02*
X202351720Y-147575081D01*
X221749280Y-142377519D02*
X214649281Y-154675080D01*
D14*
%TO.C,*%
G36*
X164898302Y-125175353D02*
G01*
X164924232Y-125247790D01*
X164919846Y-125274819D01*
X164881686Y-125309098D01*
X164856498Y-125291983D01*
X164839140Y-125221495D01*
X164848198Y-125173214D01*
X164881686Y-125160187D01*
X164898302Y-125175353D01*
G37*
G36*
X158925578Y-125240569D02*
G01*
X158967783Y-125309098D01*
X158990048Y-125370485D01*
X158967783Y-125479282D01*
X158941620Y-125524931D01*
X158908558Y-125557545D01*
X158893022Y-125515664D01*
X158890373Y-125394190D01*
X158892487Y-125314427D01*
X158902464Y-125240163D01*
X158925578Y-125240569D01*
G37*
G36*
X159291939Y-125319892D02*
G01*
X159303957Y-125462920D01*
X159264415Y-125631324D01*
X159256458Y-125651570D01*
X159219253Y-125720249D01*
X159197825Y-125709087D01*
X159193332Y-125621508D01*
X159206928Y-125460939D01*
X159221999Y-125358160D01*
X159245917Y-125275822D01*
X159271174Y-125274105D01*
X159291939Y-125319892D01*
G37*
G36*
X165137115Y-125138915D02*
G01*
X165165453Y-125174926D01*
X165178563Y-125257036D01*
X165174456Y-125347450D01*
X165151144Y-125408372D01*
X165146303Y-125413126D01*
X165113009Y-125432577D01*
X165097947Y-125395557D01*
X165094416Y-125287825D01*
X165094784Y-125268282D01*
X165108841Y-125176315D01*
X165136962Y-125138914D01*
X165137115Y-125138915D01*
G37*
G36*
X161776876Y-125753062D02*
G01*
X161768498Y-125772657D01*
X161696835Y-125849031D01*
X161601148Y-125850035D01*
X161496904Y-125774487D01*
X161426279Y-125721342D01*
X161379687Y-125713286D01*
X161563093Y-125713286D01*
X161584366Y-125734559D01*
X161605639Y-125713286D01*
X161584366Y-125692013D01*
X161563093Y-125713286D01*
X161379687Y-125713286D01*
X161341441Y-125706673D01*
X161272509Y-125707600D01*
X161235210Y-125661299D01*
X161266817Y-125583784D01*
X161320612Y-125551390D01*
X161428997Y-125529393D01*
X161559517Y-125525386D01*
X161685622Y-125538150D01*
X161780757Y-125566466D01*
X161818369Y-125609113D01*
X161807774Y-125660154D01*
X161790104Y-125713286D01*
X161776876Y-125753062D01*
G37*
G36*
X162205172Y-126001330D02*
G01*
X162229755Y-126062554D01*
X162217596Y-126163928D01*
X162143257Y-126245933D01*
X162021140Y-126303007D01*
X161865646Y-126329587D01*
X161691177Y-126320111D01*
X161512134Y-126269016D01*
X161410232Y-126233489D01*
X161333296Y-126238444D01*
X161241025Y-126290008D01*
X161113739Y-126347998D01*
X160981349Y-126372469D01*
X160969643Y-126372198D01*
X160840040Y-126338048D01*
X160715381Y-126261058D01*
X160621693Y-126161716D01*
X160585005Y-126060509D01*
X160585203Y-126046465D01*
X160593455Y-126005340D01*
X160623988Y-126022048D01*
X160690716Y-126102060D01*
X160736317Y-126154867D01*
X160868347Y-126248956D01*
X161013274Y-126261831D01*
X161183148Y-126195784D01*
X161267230Y-126150519D01*
X161347300Y-126124170D01*
X161429701Y-126132553D01*
X161553075Y-126173321D01*
X161618240Y-126194897D01*
X161757946Y-126231107D01*
X161862085Y-126245322D01*
X161892763Y-126243670D01*
X162022497Y-126202452D01*
X162120476Y-126120930D01*
X162160032Y-126019332D01*
X162161081Y-125982882D01*
X162171799Y-125953476D01*
X162205172Y-126001330D01*
G37*
G36*
X162227606Y-120871652D02*
G01*
X162614986Y-120930266D01*
X162974787Y-121016195D01*
X163295797Y-121127103D01*
X163566801Y-121260651D01*
X163776588Y-121414501D01*
X163913943Y-121586317D01*
X163924320Y-121615235D01*
X163891908Y-121605463D01*
X163802346Y-121533056D01*
X163650825Y-121419212D01*
X163359719Y-121263082D01*
X163011348Y-121132741D01*
X162621171Y-121031912D01*
X162204645Y-120964314D01*
X161777226Y-120933671D01*
X161354373Y-120943702D01*
X161322271Y-120946672D01*
X161160811Y-120968756D01*
X160937051Y-121006438D01*
X160666961Y-121056508D01*
X160366511Y-121115759D01*
X160051672Y-121180982D01*
X159738412Y-121248969D01*
X159442703Y-121316512D01*
X159180513Y-121380403D01*
X159113718Y-121392351D01*
X159095421Y-121383448D01*
X159097654Y-121381579D01*
X159157550Y-121356950D01*
X159283161Y-121316353D01*
X159459633Y-121263867D01*
X159672111Y-121203572D01*
X159905743Y-121139547D01*
X160145673Y-121075872D01*
X160377048Y-121016626D01*
X160585014Y-120965888D01*
X160754718Y-120927739D01*
X161012131Y-120883078D01*
X161414966Y-120845720D01*
X161823862Y-120842691D01*
X162227606Y-120871652D01*
G37*
G36*
X154360428Y-127013761D02*
G01*
X154566961Y-127039892D01*
X154809316Y-127088109D01*
X155057246Y-127151884D01*
X155280504Y-127224689D01*
X155296754Y-127230899D01*
X155446218Y-127302687D01*
X155547875Y-127378540D01*
X155590836Y-127447885D01*
X155564213Y-127500149D01*
X155547492Y-127506665D01*
X155521552Y-127479066D01*
X155496808Y-127440132D01*
X155399737Y-127380651D01*
X155240394Y-127314669D01*
X155030813Y-127247019D01*
X154783029Y-127182532D01*
X154689492Y-127161311D01*
X154451083Y-127115258D01*
X154286396Y-127098707D01*
X154190903Y-127111444D01*
X154160078Y-127153258D01*
X154165253Y-127182798D01*
X154234388Y-127273959D01*
X154379048Y-127373369D01*
X154592861Y-127477756D01*
X154869455Y-127583849D01*
X155202456Y-127688376D01*
X155372392Y-127737474D01*
X155537427Y-127786309D01*
X155657046Y-127823028D01*
X155713009Y-127842138D01*
X155697293Y-127848874D01*
X155614859Y-127847368D01*
X155483533Y-127837908D01*
X155308497Y-127810382D01*
X155080134Y-127753620D01*
X154836802Y-127677274D01*
X154603203Y-127589886D01*
X154404036Y-127499997D01*
X154264002Y-127416151D01*
X154129387Y-127293559D01*
X154059322Y-127180371D01*
X154063060Y-127090891D01*
X154140150Y-127032090D01*
X154290144Y-127010941D01*
X154360428Y-127013761D01*
G37*
G36*
X159478675Y-122810639D02*
G01*
X159488642Y-122811311D01*
X159736447Y-122848231D01*
X159921574Y-122917282D01*
X160038750Y-123014171D01*
X160082704Y-123134605D01*
X160048164Y-123274293D01*
X159987820Y-123357611D01*
X159915011Y-123407632D01*
X159891288Y-123412360D01*
X159783415Y-123423155D01*
X159648520Y-123427706D01*
X159457063Y-123428212D01*
X159669793Y-123364070D01*
X159789042Y-123325162D01*
X159910016Y-123270056D01*
X159971658Y-123210282D01*
X159988889Y-123135132D01*
X159988888Y-123134692D01*
X159949699Y-123050664D01*
X159845523Y-122983288D01*
X159695230Y-122935317D01*
X159517692Y-122909501D01*
X159331781Y-122908591D01*
X159156370Y-122935338D01*
X159010329Y-122992492D01*
X158984466Y-123008863D01*
X158892026Y-123091105D01*
X158848149Y-123170816D01*
X158852764Y-123229394D01*
X158902907Y-123273617D01*
X159018334Y-123314109D01*
X159103850Y-123340387D01*
X159211549Y-123384022D01*
X159245070Y-123415663D01*
X159202023Y-123430988D01*
X159080019Y-123425672D01*
X158910175Y-123388526D01*
X158782480Y-123313224D01*
X158730044Y-123254320D01*
X158716577Y-123193742D01*
X158755732Y-123106441D01*
X158783466Y-123067374D01*
X158883972Y-122973595D01*
X159010725Y-122891512D01*
X159048115Y-122872772D01*
X159172953Y-122824673D01*
X159303501Y-122806203D01*
X159478675Y-122810639D01*
G37*
G36*
X164150655Y-123459471D02*
G01*
X164140688Y-123468904D01*
X164042723Y-123526511D01*
X163916652Y-123567323D01*
X163813794Y-123579893D01*
X163578501Y-123570407D01*
X163322269Y-123522210D01*
X163076994Y-123442329D01*
X162874571Y-123337788D01*
X162851372Y-123321537D01*
X162746391Y-123216448D01*
X162725805Y-123142608D01*
X162796929Y-123142608D01*
X162805180Y-123162663D01*
X162872849Y-123220179D01*
X162992093Y-123287999D01*
X163142727Y-123355420D01*
X163304567Y-123411742D01*
X163332606Y-123419574D01*
X163496667Y-123453403D01*
X163669072Y-123473347D01*
X163826923Y-123478468D01*
X163947323Y-123467829D01*
X164007376Y-123440495D01*
X164010160Y-123432909D01*
X163983842Y-123375685D01*
X163903622Y-123297386D01*
X163788111Y-123212071D01*
X163655918Y-123133795D01*
X163525652Y-123076617D01*
X163480835Y-123062630D01*
X163318245Y-123026211D01*
X163174266Y-123011611D01*
X163058243Y-123021844D01*
X162930915Y-123053167D01*
X162834887Y-123096519D01*
X162796929Y-123142608D01*
X162725805Y-123142608D01*
X162719217Y-123118977D01*
X162763528Y-123035673D01*
X162873003Y-122973086D01*
X163041319Y-122937766D01*
X163262154Y-122936262D01*
X163334319Y-122943098D01*
X163612603Y-123006091D01*
X163836989Y-123120480D01*
X163997407Y-123281536D01*
X164010242Y-123299588D01*
X164091530Y-123383640D01*
X164158403Y-123403948D01*
X164175639Y-123399215D01*
X164194226Y-123406829D01*
X164172640Y-123432909D01*
X164150655Y-123459471D01*
G37*
G36*
X165165307Y-121292821D02*
G01*
X165403416Y-121356908D01*
X165992951Y-121572599D01*
X166583894Y-121868265D01*
X167170817Y-122240610D01*
X167748291Y-122686340D01*
X168310887Y-123202158D01*
X168508237Y-123405211D01*
X168850386Y-123803159D01*
X169113606Y-124182707D01*
X169299809Y-124547289D01*
X169410906Y-124900335D01*
X169448808Y-125245279D01*
X169431067Y-125484905D01*
X169354169Y-125730086D01*
X169211832Y-125927959D01*
X168999053Y-126085048D01*
X168710832Y-126207877D01*
X168644044Y-126221007D01*
X168505633Y-126230562D01*
X168347487Y-126228349D01*
X168338582Y-126227802D01*
X168060526Y-126173296D01*
X167752538Y-126047378D01*
X167422450Y-125854600D01*
X167078094Y-125599512D01*
X166727301Y-125286667D01*
X166624256Y-125185947D01*
X166523748Y-125083541D01*
X166482908Y-125033987D01*
X166502788Y-125037716D01*
X166584437Y-125095159D01*
X166728907Y-125206749D01*
X166937246Y-125372917D01*
X167207814Y-125578301D01*
X167496925Y-125772951D01*
X167772295Y-125934258D01*
X168018500Y-126053229D01*
X168220114Y-126120871D01*
X168336657Y-126138446D01*
X168605006Y-126121871D01*
X168864879Y-126033239D01*
X169093132Y-125878963D01*
X169204430Y-125760856D01*
X169297658Y-125594263D01*
X169340182Y-125392677D01*
X169338886Y-125135267D01*
X169317999Y-124981415D01*
X169224546Y-124663932D01*
X169063355Y-124316270D01*
X168838031Y-123946978D01*
X168822872Y-123924858D01*
X168536363Y-123560427D01*
X168181909Y-123190620D01*
X167774094Y-122826135D01*
X167327503Y-122477670D01*
X166856718Y-122155924D01*
X166376323Y-121871594D01*
X165900902Y-121635379D01*
X165445039Y-121457976D01*
X165309216Y-121410565D01*
X165177804Y-121357692D01*
X165088413Y-121313994D01*
X165050338Y-121284959D01*
X165072871Y-121276072D01*
X165165307Y-121292821D01*
G37*
G36*
X163516674Y-127890160D02*
G01*
X163551188Y-127983429D01*
X163576455Y-128161243D01*
X163592474Y-128423613D01*
X163599247Y-128770549D01*
X163596774Y-129202063D01*
X163593101Y-129399905D01*
X163581655Y-129717875D01*
X163561366Y-129961390D01*
X163528608Y-130137396D01*
X163479757Y-130252840D01*
X163411185Y-130314670D01*
X163319267Y-130329830D01*
X163200378Y-130305269D01*
X163050892Y-130247933D01*
X162967216Y-130217591D01*
X162741015Y-130171001D01*
X162502615Y-130159530D01*
X162295089Y-130186668D01*
X162277722Y-130193109D01*
X162191878Y-130262503D01*
X162114232Y-130375921D01*
X162099023Y-130404388D01*
X162018199Y-130530450D01*
X161937948Y-130625733D01*
X161884636Y-130665523D01*
X161729608Y-130710662D01*
X161546341Y-130685928D01*
X161348056Y-130592076D01*
X161310530Y-130567493D01*
X161196828Y-130484278D01*
X161108594Y-130407594D01*
X161060687Y-130351370D01*
X161067964Y-130329534D01*
X161096356Y-130340472D01*
X161181000Y-130385662D01*
X161296541Y-130453946D01*
X161303874Y-130458434D01*
X161506552Y-130567425D01*
X161664853Y-130612852D01*
X161792878Y-130592610D01*
X161904723Y-130504592D01*
X162014488Y-130346691D01*
X162059674Y-130277893D01*
X162150625Y-130172092D01*
X162231323Y-130113471D01*
X162319937Y-130090304D01*
X162507507Y-130073720D01*
X162720788Y-130081091D01*
X162925849Y-130110563D01*
X163088761Y-130160284D01*
X163147509Y-130185817D01*
X163258875Y-130227844D01*
X163326571Y-130244441D01*
X163377218Y-130218533D01*
X163430037Y-130113747D01*
X163469837Y-129932596D01*
X163496201Y-129679461D01*
X163508709Y-129358721D01*
X163506943Y-128974756D01*
X163490481Y-128531946D01*
X163489485Y-128512165D01*
X163478040Y-128230490D01*
X163475797Y-128029759D01*
X163482742Y-127911190D01*
X163498859Y-127876001D01*
X163516674Y-127890160D01*
G37*
G36*
X157238474Y-121589058D02*
G01*
X157300401Y-121623817D01*
X157311431Y-121635136D01*
X157345263Y-121692981D01*
X157311981Y-121745561D01*
X157264269Y-121777594D01*
X157235804Y-121745865D01*
X157205332Y-121707387D01*
X157130481Y-121698187D01*
X157005134Y-121733102D01*
X156819207Y-121813778D01*
X156657251Y-121895055D01*
X156253128Y-122135404D01*
X155856225Y-122421595D01*
X155474305Y-122744527D01*
X155115127Y-123095099D01*
X154786454Y-123464210D01*
X154496046Y-123842760D01*
X154251665Y-124221649D01*
X154061072Y-124591774D01*
X153932027Y-124944036D01*
X153872293Y-125269333D01*
X153869577Y-125317055D01*
X153886401Y-125554934D01*
X153962079Y-125745127D01*
X154102522Y-125894343D01*
X154313640Y-126009289D01*
X154601344Y-126096672D01*
X154809437Y-126130577D01*
X155079516Y-126134057D01*
X155370282Y-126092863D01*
X155688531Y-126004634D01*
X156041061Y-125867009D01*
X156434668Y-125677627D01*
X156876151Y-125434128D01*
X157372306Y-125134149D01*
X157378232Y-125130440D01*
X157612157Y-124984503D01*
X157780647Y-124880876D01*
X157889987Y-124816364D01*
X157946465Y-124787777D01*
X157956367Y-124791919D01*
X157925978Y-124825599D01*
X157861585Y-124885623D01*
X157777382Y-124957074D01*
X157572321Y-125109558D01*
X157317892Y-125280017D01*
X157032432Y-125457574D01*
X156734277Y-125631353D01*
X156441764Y-125790478D01*
X156173231Y-125924071D01*
X155947012Y-126021258D01*
X155806825Y-126070574D01*
X155598616Y-126134721D01*
X155415187Y-126182177D01*
X155384818Y-126188640D01*
X155048759Y-126231272D01*
X154729601Y-126221710D01*
X154437958Y-126164094D01*
X154184442Y-126062565D01*
X153979665Y-125921264D01*
X153834241Y-125744330D01*
X153758780Y-125535906D01*
X153749562Y-125410945D01*
X153776026Y-125158527D01*
X153850625Y-124868034D01*
X153967924Y-124555359D01*
X154122488Y-124236396D01*
X154308884Y-123927039D01*
X154560356Y-123579931D01*
X154930536Y-123143171D01*
X155337404Y-122733033D01*
X155765921Y-122363311D01*
X156201049Y-122047797D01*
X156627750Y-121800283D01*
X156831949Y-121701736D01*
X157015307Y-121625117D01*
X157147129Y-121588525D01*
X157238474Y-121589058D01*
G37*
G36*
X165176430Y-123584228D02*
G01*
X165273005Y-123651774D01*
X165396409Y-123761489D01*
X165535267Y-123901424D01*
X165678205Y-124059632D01*
X165813848Y-124224163D01*
X165930823Y-124383070D01*
X166017754Y-124524404D01*
X166111904Y-124717343D01*
X166232869Y-125017425D01*
X166328282Y-125318865D01*
X166390866Y-125597650D01*
X166413344Y-125829768D01*
X166403740Y-125980722D01*
X166321917Y-126284771D01*
X166156407Y-126574833D01*
X165907027Y-126851280D01*
X165896119Y-126861309D01*
X165570087Y-127110274D01*
X165171746Y-127327297D01*
X164699866Y-127512729D01*
X164153218Y-127666916D01*
X163530573Y-127790210D01*
X162830701Y-127882958D01*
X162052373Y-127945510D01*
X161723843Y-127960633D01*
X161111504Y-127966831D01*
X160531668Y-127943896D01*
X159992611Y-127892995D01*
X159502610Y-127815290D01*
X159069941Y-127711947D01*
X158702880Y-127584129D01*
X158409702Y-127433002D01*
X158296713Y-127350328D01*
X158129772Y-127207327D01*
X157952135Y-127038585D01*
X157787099Y-126866412D01*
X157657962Y-126713118D01*
X157596054Y-126623347D01*
X157510540Y-126483177D01*
X157419095Y-126320843D01*
X157329863Y-126152283D01*
X157250988Y-125993436D01*
X157190614Y-125860241D01*
X157156885Y-125768636D01*
X157157946Y-125734559D01*
X157158783Y-125734850D01*
X157189493Y-125775230D01*
X157253234Y-125874002D01*
X157341203Y-126017156D01*
X157444595Y-126190686D01*
X157551147Y-126363009D01*
X157804663Y-126714227D01*
X158075577Y-127018025D01*
X158352514Y-127262399D01*
X158624098Y-127435345D01*
X158955813Y-127574556D01*
X159405039Y-127700545D01*
X159927989Y-127790296D01*
X160525843Y-127844003D01*
X161199781Y-127861862D01*
X161470241Y-127859567D01*
X162203885Y-127830536D01*
X162914927Y-127769725D01*
X163583881Y-127679097D01*
X164191264Y-127560613D01*
X164507390Y-127476801D01*
X164946199Y-127320425D01*
X165336118Y-127131609D01*
X165669983Y-126915232D01*
X165940629Y-126676173D01*
X166140893Y-126419308D01*
X166263610Y-126149518D01*
X166293606Y-126041093D01*
X166319791Y-125898508D01*
X166321060Y-125760628D01*
X166296766Y-125598971D01*
X166246264Y-125385053D01*
X166198732Y-125218661D01*
X166008965Y-124748899D01*
X165750081Y-124314168D01*
X165431503Y-123931279D01*
X165312669Y-123808138D01*
X165204785Y-123691320D01*
X165134531Y-123609120D01*
X165113239Y-123574251D01*
X165118057Y-123570799D01*
X165176430Y-123584228D01*
G37*
G36*
X160208275Y-124296352D02*
G01*
X160227059Y-124333000D01*
X160241647Y-124361460D01*
X160276494Y-124444815D01*
X160305017Y-124513044D01*
X160341471Y-124627151D01*
X160352267Y-124660943D01*
X160371163Y-124769607D01*
X160348900Y-124845517D01*
X160288514Y-124960145D01*
X160208495Y-125082685D01*
X160127418Y-125184812D01*
X160063857Y-125238204D01*
X160022496Y-125252271D01*
X159956438Y-125261318D01*
X159935119Y-125246959D01*
X159978252Y-125214625D01*
X160010635Y-125197920D01*
X160067562Y-125150582D01*
X160041196Y-125119241D01*
X159931925Y-125104815D01*
X159752655Y-125079383D01*
X159585554Y-125001939D01*
X159419385Y-124858742D01*
X159334461Y-124761507D01*
X159294934Y-124685195D01*
X159490108Y-124685195D01*
X159543695Y-124800247D01*
X159610607Y-124858767D01*
X159674782Y-124885628D01*
X159706296Y-124868166D01*
X159685624Y-124805641D01*
X159679992Y-124795991D01*
X159665981Y-124738656D01*
X159759283Y-124738656D01*
X159817492Y-124797896D01*
X159900082Y-124832936D01*
X159985260Y-124825473D01*
X160078235Y-124751745D01*
X160124553Y-124692632D01*
X160129449Y-124627151D01*
X160063184Y-124595001D01*
X159932355Y-124602914D01*
X159859541Y-124622814D01*
X159776047Y-124675631D01*
X159759283Y-124738656D01*
X159665981Y-124738656D01*
X159664402Y-124732193D01*
X159685222Y-124643981D01*
X159734419Y-124536117D01*
X159780201Y-124536117D01*
X159785819Y-124534583D01*
X159851077Y-124524661D01*
X159959616Y-124512118D01*
X159980636Y-124509629D01*
X160079177Y-124483729D01*
X160105195Y-124444815D01*
X160094200Y-124423136D01*
X160025265Y-124385517D01*
X159930347Y-124397041D01*
X159841672Y-124456304D01*
X159791843Y-124514725D01*
X159780201Y-124536117D01*
X159734419Y-124536117D01*
X159747326Y-124507819D01*
X159792721Y-124415011D01*
X159825113Y-124333000D01*
X159821211Y-124296383D01*
X159783869Y-124287993D01*
X159776994Y-124288100D01*
X159653290Y-124328421D01*
X159556506Y-124424539D01*
X159498246Y-124551712D01*
X159490108Y-124685195D01*
X159294934Y-124685195D01*
X159280011Y-124656384D01*
X159265605Y-124534629D01*
X159266367Y-124504228D01*
X159273551Y-124466072D01*
X159356309Y-124466072D01*
X159359518Y-124571813D01*
X159365391Y-124593623D01*
X159383558Y-124597880D01*
X159408986Y-124521996D01*
X159488784Y-124346733D01*
X159618264Y-124239175D01*
X159794211Y-124202249D01*
X159870352Y-124199881D01*
X159923298Y-124186976D01*
X159903796Y-124160354D01*
X159852875Y-124134351D01*
X159705965Y-124115688D01*
X159559963Y-124161023D01*
X159438837Y-124259630D01*
X159366556Y-124400782D01*
X159356309Y-124466072D01*
X159273551Y-124466072D01*
X159300073Y-124325200D01*
X159374298Y-124173151D01*
X159475979Y-124076523D01*
X159563003Y-124044231D01*
X159742649Y-124034660D01*
X159929205Y-124079231D01*
X160093977Y-124169333D01*
X160109853Y-124186976D01*
X160208275Y-124296352D01*
G37*
G36*
X163995017Y-124337976D02*
G01*
X164050429Y-124496573D01*
X164051368Y-124574083D01*
X164052657Y-124680452D01*
X164006015Y-124869165D01*
X163981220Y-124911375D01*
X163919094Y-125017138D01*
X163916553Y-125019893D01*
X163799803Y-125086901D01*
X163641073Y-125102245D01*
X163462128Y-125069796D01*
X163284732Y-124993421D01*
X163130649Y-124876990D01*
X163088316Y-124833656D01*
X163043184Y-124777272D01*
X163137297Y-124777272D01*
X163158570Y-124798545D01*
X163179843Y-124777272D01*
X163158570Y-124755999D01*
X163137297Y-124777272D01*
X163043184Y-124777272D01*
X163009966Y-124735773D01*
X162975296Y-124640725D01*
X162967754Y-124511359D01*
X162968301Y-124482995D01*
X163052857Y-124482995D01*
X163063369Y-124581911D01*
X163092548Y-124668798D01*
X163104045Y-124683577D01*
X163120825Y-124667962D01*
X163120245Y-124637470D01*
X163246807Y-124637470D01*
X163248603Y-124667962D01*
X163250117Y-124693658D01*
X163270756Y-124724786D01*
X163324596Y-124777272D01*
X163348741Y-124800810D01*
X163458541Y-124885116D01*
X163548866Y-124944386D01*
X163656936Y-124996964D01*
X163741850Y-125002132D01*
X163828671Y-124965322D01*
X163894445Y-124911375D01*
X163881393Y-124871356D01*
X163786125Y-124850059D01*
X163747422Y-124845948D01*
X163583193Y-124810565D01*
X163439351Y-124754646D01*
X163348221Y-124690004D01*
X163287489Y-124637310D01*
X163246807Y-124637470D01*
X163120245Y-124637470D01*
X163118995Y-124571804D01*
X163116745Y-124546822D01*
X163099239Y-124440386D01*
X163095995Y-124432384D01*
X163277141Y-124432384D01*
X163330346Y-124502481D01*
X163412180Y-124576605D01*
X163528635Y-124653990D01*
X163534534Y-124657003D01*
X163673937Y-124705735D01*
X163783982Y-124703190D01*
X163845195Y-124649634D01*
X163857099Y-124574083D01*
X163805611Y-124474672D01*
X163671088Y-124392437D01*
X163567844Y-124354891D01*
X163422453Y-124334201D01*
X163309173Y-124371139D01*
X163283706Y-124390669D01*
X163277141Y-124432384D01*
X163095995Y-124432384D01*
X163077896Y-124387744D01*
X163060005Y-124398684D01*
X163052857Y-124482995D01*
X162968301Y-124482995D01*
X162968386Y-124478609D01*
X162994745Y-124267733D01*
X163014104Y-124203246D01*
X163232255Y-124203246D01*
X163239721Y-124239412D01*
X163297457Y-124261199D01*
X163423345Y-124267065D01*
X163480427Y-124268262D01*
X163623199Y-124280949D01*
X163727339Y-124303094D01*
X163729391Y-124303827D01*
X163799081Y-124313350D01*
X163811734Y-124282745D01*
X163772627Y-124229361D01*
X163687036Y-124170550D01*
X163632610Y-124149017D01*
X163508438Y-124128077D01*
X163381158Y-124131513D01*
X163279515Y-124157258D01*
X163232255Y-124203246D01*
X163014104Y-124203246D01*
X163052859Y-124074153D01*
X163133195Y-123931293D01*
X163174342Y-123894817D01*
X163293199Y-123861287D01*
X163439503Y-123883210D01*
X163598044Y-123951213D01*
X163753616Y-124055923D01*
X163891010Y-124187968D01*
X163956723Y-124282745D01*
X163995017Y-124337976D01*
G37*
G36*
X157010664Y-126919620D02*
G01*
X157048244Y-126936755D01*
X157058005Y-126953676D01*
X157001879Y-126962274D01*
X156870277Y-126965698D01*
X156797785Y-126967959D01*
X156593178Y-127000760D01*
X156424279Y-127083498D01*
X156257553Y-127230677D01*
X156144451Y-127379108D01*
X156017926Y-127615798D01*
X155900979Y-127904338D01*
X155797992Y-128226859D01*
X155713350Y-128565494D01*
X155651437Y-128902375D01*
X155616635Y-129219633D01*
X155613329Y-129499401D01*
X155645902Y-129723811D01*
X155681525Y-129824055D01*
X155793855Y-130010447D01*
X155943550Y-130157817D01*
X156110060Y-130243171D01*
X156242907Y-130268712D01*
X156490429Y-130282627D01*
X156779046Y-130268674D01*
X157085487Y-130227234D01*
X157210607Y-130206423D01*
X157340851Y-130193321D01*
X157430689Y-130200959D01*
X157505175Y-130229472D01*
X157595363Y-130268423D01*
X157672877Y-130286988D01*
X157701208Y-130292854D01*
X157763743Y-130344789D01*
X157768640Y-130351753D01*
X157838726Y-130403904D01*
X157946882Y-130451011D01*
X158024379Y-130474124D01*
X158203085Y-130513362D01*
X158412102Y-130540329D01*
X158662273Y-130555528D01*
X158964443Y-130559463D01*
X159329456Y-130552638D01*
X159768155Y-130535554D01*
X160102382Y-130521577D01*
X160413517Y-130512392D01*
X160641291Y-130510789D01*
X160785241Y-130516770D01*
X160844902Y-130530338D01*
X160836734Y-130548837D01*
X160758802Y-130570490D01*
X160616847Y-130590529D01*
X160422497Y-130608568D01*
X160187377Y-130624220D01*
X159923113Y-130637099D01*
X159641333Y-130646819D01*
X159353661Y-130652992D01*
X159071726Y-130655233D01*
X158807152Y-130653154D01*
X158571566Y-130646370D01*
X158376594Y-130634493D01*
X158233863Y-130617138D01*
X158190276Y-130609567D01*
X158044558Y-130588342D01*
X157942551Y-130579963D01*
X157904131Y-130586288D01*
X157911834Y-130606693D01*
X157956865Y-130682166D01*
X158028764Y-130786639D01*
X158122994Y-130904254D01*
X158258018Y-131028966D01*
X158378213Y-131088729D01*
X158475300Y-131080100D01*
X158540997Y-130999634D01*
X158561166Y-130951276D01*
X158577394Y-130933332D01*
X158582172Y-130991125D01*
X158575490Y-131046359D01*
X158533813Y-131129400D01*
X158513356Y-131147096D01*
X158402763Y-131178766D01*
X158264358Y-131133321D01*
X158102268Y-131011885D01*
X158032558Y-130941407D01*
X157917750Y-130800653D01*
X157837306Y-130671086D01*
X157822689Y-130643139D01*
X157718242Y-130502491D01*
X157589703Y-130388368D01*
X157568343Y-130374142D01*
X157492940Y-130327975D01*
X157425008Y-130302940D01*
X157341604Y-130296649D01*
X157219783Y-130306711D01*
X157036604Y-130330734D01*
X156993106Y-130336325D01*
X156766528Y-130357364D01*
X156536244Y-130368041D01*
X156345999Y-130366114D01*
X156145954Y-130340882D01*
X155914539Y-130258673D01*
X155736903Y-130117161D01*
X155604240Y-129910943D01*
X155595617Y-129892415D01*
X155557929Y-129800076D01*
X155535153Y-129708373D01*
X155525123Y-129595932D01*
X155525677Y-129441377D01*
X155534653Y-129223336D01*
X155537686Y-129168185D01*
X155578778Y-128776824D01*
X155650953Y-128392947D01*
X155749591Y-128029476D01*
X155870067Y-127699337D01*
X156007759Y-127415452D01*
X156158044Y-127190746D01*
X156316299Y-127038142D01*
X156430939Y-126973153D01*
X156633126Y-126906958D01*
X156837119Y-126887279D01*
X157010664Y-126919620D01*
G37*
%TD*%
D15*
%TO.C,U3*%
X170815000Y-39370000D03*
X170815000Y-41910000D03*
X170815000Y-44450000D03*
X170815000Y-46990000D03*
X170815000Y-49530000D03*
X170815000Y-52070000D03*
X170815000Y-54610000D03*
X170815000Y-57150000D03*
X170815000Y-59690000D03*
X170815000Y-62230000D03*
X170815000Y-64770000D03*
X170815000Y-67310000D03*
X155575000Y-67310000D03*
X155575000Y-64770000D03*
X155575000Y-62230000D03*
X155575000Y-59690000D03*
X155575000Y-57150000D03*
X155575000Y-54610000D03*
X155575000Y-52070000D03*
X155575000Y-49530000D03*
X155575000Y-46990000D03*
X155575000Y-44450000D03*
X155575000Y-41910000D03*
X155575000Y-39370000D03*
%TD*%
M02*
