G04 #@! TF.GenerationSoftware,KiCad,Pcbnew,10.0.3*
G04 #@! TF.CreationDate,2026-06-13T18:59:16+09:00*
G04 #@! TF.ProjectId,ergodash,6572676f-6461-4736-982e-6b696361645f,2.0*
G04 #@! TF.SameCoordinates,Original*
G04 #@! TF.FileFunction,Legend,Bot*
G04 #@! TF.FilePolarity,Positive*
%FSLAX46Y46*%
G04 Gerber Fmt 4.6, Leading zero omitted, Abs format (unit mm)*
G04 Created by KiCad (PCBNEW 10.0.3) date 2026-06-13 18:59:16*
%MOMM*%
%LPD*%
G01*
G04 APERTURE LIST*
G04 Aperture macros list*
%AMHorizOval*
0 Thick line with rounded ends*
0 $1 width*
0 $2 $3 position (X,Y) of the first rounded end (center of the circle)*
0 $4 $5 position (X,Y) of the second rounded end (center of the circle)*
0 Add line between two ends*
20,1,$1,$2,$3,$4,$5,0*
0 Add two circle primitives to create the rounded ends*
1,1,$1,$2,$3*
1,1,$1,$4,$5*%
%AMRotRect*
0 Rectangle, with rotation*
0 The origin of the aperture is its center*
0 $1 length*
0 $2 width*
0 $3 Rotation angle, in degrees counterclockwise*
0 Add horizontal line*
21,1,$1,$2,0,0,$3*%
G04 Aperture macros list end*
%ADD10C,0.270000*%
%ADD11C,0.300000*%
%ADD12C,0.150000*%
%ADD13C,0.120000*%
%ADD14C,0.000000*%
%ADD15C,1.210000*%
%ADD16O,1.300000X2.200000*%
%ADD17C,1.524000*%
%ADD18C,1.800000*%
%ADD19C,5.000000*%
%ADD20RotRect,1.600000X1.600000X210.000000*%
%ADD21RotRect,1.600000X1.200000X210.000000*%
%ADD22HorizOval,1.600000X0.000000X0.000000X0.000000X0.000000X0*%
%ADD23C,1.750000*%
%ADD24C,4.000000*%
%ADD25C,3.600000*%
%ADD26R,1.600000X1.600000*%
%ADD27R,1.200000X1.600000*%
%ADD28O,1.600000X1.600000*%
%ADD29R,1.600000X1.200000*%
%ADD30RotRect,1.600000X1.600000X30.000000*%
%ADD31RotRect,1.600000X1.200000X30.000000*%
%ADD32HorizOval,1.600000X0.000000X0.000000X0.000000X0.000000X0*%
%ADD33RotRect,1.600000X1.600000X120.000000*%
%ADD34RotRect,1.600000X1.200000X120.000000*%
%ADD35HorizOval,1.600000X0.000000X0.000000X0.000000X0.000000X0*%
%ADD36C,3.987800*%
%ADD37C,3.048000*%
G04 APERTURE END LIST*
D10*
X166840803Y-138126868D02*
X166240803Y-138126868D01*
X165983660Y-139069725D02*
X166840803Y-139069725D01*
X166840803Y-139069725D02*
X166840803Y-137269725D01*
X166840803Y-137269725D02*
X165983660Y-137269725D01*
X165212232Y-139069725D02*
X165212232Y-137869725D01*
X165212232Y-138212582D02*
X165126518Y-138041153D01*
X165126518Y-138041153D02*
X165040804Y-137955439D01*
X165040804Y-137955439D02*
X164869375Y-137869725D01*
X164869375Y-137869725D02*
X164697946Y-137869725D01*
X163326518Y-137869725D02*
X163326518Y-139326868D01*
X163326518Y-139326868D02*
X163412232Y-139498296D01*
X163412232Y-139498296D02*
X163497946Y-139584011D01*
X163497946Y-139584011D02*
X163669375Y-139669725D01*
X163669375Y-139669725D02*
X163926518Y-139669725D01*
X163926518Y-139669725D02*
X164097946Y-139584011D01*
X163326518Y-138984011D02*
X163497946Y-139069725D01*
X163497946Y-139069725D02*
X163840803Y-139069725D01*
X163840803Y-139069725D02*
X164012232Y-138984011D01*
X164012232Y-138984011D02*
X164097946Y-138898296D01*
X164097946Y-138898296D02*
X164183660Y-138726868D01*
X164183660Y-138726868D02*
X164183660Y-138212582D01*
X164183660Y-138212582D02*
X164097946Y-138041153D01*
X164097946Y-138041153D02*
X164012232Y-137955439D01*
X164012232Y-137955439D02*
X163840803Y-137869725D01*
X163840803Y-137869725D02*
X163497946Y-137869725D01*
X163497946Y-137869725D02*
X163326518Y-137955439D01*
X162212232Y-139069725D02*
X162383661Y-138984011D01*
X162383661Y-138984011D02*
X162469375Y-138898296D01*
X162469375Y-138898296D02*
X162555089Y-138726868D01*
X162555089Y-138726868D02*
X162555089Y-138212582D01*
X162555089Y-138212582D02*
X162469375Y-138041153D01*
X162469375Y-138041153D02*
X162383661Y-137955439D01*
X162383661Y-137955439D02*
X162212232Y-137869725D01*
X162212232Y-137869725D02*
X161955089Y-137869725D01*
X161955089Y-137869725D02*
X161783661Y-137955439D01*
X161783661Y-137955439D02*
X161697947Y-138041153D01*
X161697947Y-138041153D02*
X161612232Y-138212582D01*
X161612232Y-138212582D02*
X161612232Y-138726868D01*
X161612232Y-138726868D02*
X161697947Y-138898296D01*
X161697947Y-138898296D02*
X161783661Y-138984011D01*
X161783661Y-138984011D02*
X161955089Y-139069725D01*
X161955089Y-139069725D02*
X162212232Y-139069725D01*
X160840804Y-139069725D02*
X160840804Y-137269725D01*
X160840804Y-137269725D02*
X160412233Y-137269725D01*
X160412233Y-137269725D02*
X160155090Y-137355439D01*
X160155090Y-137355439D02*
X159983661Y-137526868D01*
X159983661Y-137526868D02*
X159897947Y-137698296D01*
X159897947Y-137698296D02*
X159812233Y-138041153D01*
X159812233Y-138041153D02*
X159812233Y-138298296D01*
X159812233Y-138298296D02*
X159897947Y-138641153D01*
X159897947Y-138641153D02*
X159983661Y-138812582D01*
X159983661Y-138812582D02*
X160155090Y-138984011D01*
X160155090Y-138984011D02*
X160412233Y-139069725D01*
X160412233Y-139069725D02*
X160840804Y-139069725D01*
X158269376Y-139069725D02*
X158269376Y-138126868D01*
X158269376Y-138126868D02*
X158355090Y-137955439D01*
X158355090Y-137955439D02*
X158526518Y-137869725D01*
X158526518Y-137869725D02*
X158869376Y-137869725D01*
X158869376Y-137869725D02*
X159040804Y-137955439D01*
X158269376Y-138984011D02*
X158440804Y-139069725D01*
X158440804Y-139069725D02*
X158869376Y-139069725D01*
X158869376Y-139069725D02*
X159040804Y-138984011D01*
X159040804Y-138984011D02*
X159126518Y-138812582D01*
X159126518Y-138812582D02*
X159126518Y-138641153D01*
X159126518Y-138641153D02*
X159040804Y-138469725D01*
X159040804Y-138469725D02*
X158869376Y-138384011D01*
X158869376Y-138384011D02*
X158440804Y-138384011D01*
X158440804Y-138384011D02*
X158269376Y-138298296D01*
X157497947Y-138984011D02*
X157326519Y-139069725D01*
X157326519Y-139069725D02*
X156983662Y-139069725D01*
X156983662Y-139069725D02*
X156812233Y-138984011D01*
X156812233Y-138984011D02*
X156726519Y-138812582D01*
X156726519Y-138812582D02*
X156726519Y-138726868D01*
X156726519Y-138726868D02*
X156812233Y-138555439D01*
X156812233Y-138555439D02*
X156983662Y-138469725D01*
X156983662Y-138469725D02*
X157240805Y-138469725D01*
X157240805Y-138469725D02*
X157412233Y-138384011D01*
X157412233Y-138384011D02*
X157497947Y-138212582D01*
X157497947Y-138212582D02*
X157497947Y-138126868D01*
X157497947Y-138126868D02*
X157412233Y-137955439D01*
X157412233Y-137955439D02*
X157240805Y-137869725D01*
X157240805Y-137869725D02*
X156983662Y-137869725D01*
X156983662Y-137869725D02*
X156812233Y-137955439D01*
X155955090Y-139069725D02*
X155955090Y-137269725D01*
X155183662Y-139069725D02*
X155183662Y-138126868D01*
X155183662Y-138126868D02*
X155269376Y-137955439D01*
X155269376Y-137955439D02*
X155440804Y-137869725D01*
X155440804Y-137869725D02*
X155697947Y-137869725D01*
X155697947Y-137869725D02*
X155869376Y-137955439D01*
X155869376Y-137955439D02*
X155955090Y-138041153D01*
X151926519Y-139069725D02*
X152526519Y-138212582D01*
X152955090Y-139069725D02*
X152955090Y-137269725D01*
X152955090Y-137269725D02*
X152269376Y-137269725D01*
X152269376Y-137269725D02*
X152097947Y-137355439D01*
X152097947Y-137355439D02*
X152012233Y-137441153D01*
X152012233Y-137441153D02*
X151926519Y-137612582D01*
X151926519Y-137612582D02*
X151926519Y-137869725D01*
X151926519Y-137869725D02*
X152012233Y-138041153D01*
X152012233Y-138041153D02*
X152097947Y-138126868D01*
X152097947Y-138126868D02*
X152269376Y-138212582D01*
X152269376Y-138212582D02*
X152955090Y-138212582D01*
X150469376Y-138984011D02*
X150640804Y-139069725D01*
X150640804Y-139069725D02*
X150983662Y-139069725D01*
X150983662Y-139069725D02*
X151155090Y-138984011D01*
X151155090Y-138984011D02*
X151240804Y-138812582D01*
X151240804Y-138812582D02*
X151240804Y-138126868D01*
X151240804Y-138126868D02*
X151155090Y-137955439D01*
X151155090Y-137955439D02*
X150983662Y-137869725D01*
X150983662Y-137869725D02*
X150640804Y-137869725D01*
X150640804Y-137869725D02*
X150469376Y-137955439D01*
X150469376Y-137955439D02*
X150383662Y-138126868D01*
X150383662Y-138126868D02*
X150383662Y-138298296D01*
X150383662Y-138298296D02*
X151240804Y-138469725D01*
X149783662Y-137869725D02*
X149355090Y-139069725D01*
X149355090Y-139069725D02*
X148926519Y-137869725D01*
X148240804Y-138898296D02*
X148155090Y-138984011D01*
X148155090Y-138984011D02*
X148240804Y-139069725D01*
X148240804Y-139069725D02*
X148326518Y-138984011D01*
X148326518Y-138984011D02*
X148240804Y-138898296D01*
X148240804Y-138898296D02*
X148240804Y-139069725D01*
X145069375Y-139069725D02*
X146097946Y-139069725D01*
X145583661Y-139069725D02*
X145583661Y-137269725D01*
X145583661Y-137269725D02*
X145755089Y-137526868D01*
X145755089Y-137526868D02*
X145926518Y-137698296D01*
X145926518Y-137698296D02*
X146097946Y-137784011D01*
X144297946Y-138898296D02*
X144212232Y-138984011D01*
X144212232Y-138984011D02*
X144297946Y-139069725D01*
X144297946Y-139069725D02*
X144383660Y-138984011D01*
X144383660Y-138984011D02*
X144297946Y-138898296D01*
X144297946Y-138898296D02*
X144297946Y-139069725D01*
X143526517Y-137441153D02*
X143440803Y-137355439D01*
X143440803Y-137355439D02*
X143269375Y-137269725D01*
X143269375Y-137269725D02*
X142840803Y-137269725D01*
X142840803Y-137269725D02*
X142669375Y-137355439D01*
X142669375Y-137355439D02*
X142583660Y-137441153D01*
X142583660Y-137441153D02*
X142497946Y-137612582D01*
X142497946Y-137612582D02*
X142497946Y-137784011D01*
X142497946Y-137784011D02*
X142583660Y-138041153D01*
X142583660Y-138041153D02*
X143612232Y-139069725D01*
X143612232Y-139069725D02*
X142497946Y-139069725D01*
X166969373Y-141881910D02*
X166712231Y-141967624D01*
X166712231Y-141967624D02*
X166283659Y-141967624D01*
X166283659Y-141967624D02*
X166112231Y-141881910D01*
X166112231Y-141881910D02*
X166026516Y-141796195D01*
X166026516Y-141796195D02*
X165940802Y-141624767D01*
X165940802Y-141624767D02*
X165940802Y-141453338D01*
X165940802Y-141453338D02*
X166026516Y-141281910D01*
X166026516Y-141281910D02*
X166112231Y-141196195D01*
X166112231Y-141196195D02*
X166283659Y-141110481D01*
X166283659Y-141110481D02*
X166626516Y-141024767D01*
X166626516Y-141024767D02*
X166797945Y-140939052D01*
X166797945Y-140939052D02*
X166883659Y-140853338D01*
X166883659Y-140853338D02*
X166969373Y-140681910D01*
X166969373Y-140681910D02*
X166969373Y-140510481D01*
X166969373Y-140510481D02*
X166883659Y-140339052D01*
X166883659Y-140339052D02*
X166797945Y-140253338D01*
X166797945Y-140253338D02*
X166626516Y-140167624D01*
X166626516Y-140167624D02*
X166197945Y-140167624D01*
X166197945Y-140167624D02*
X165940802Y-140253338D01*
X164912230Y-141967624D02*
X165083659Y-141881910D01*
X165083659Y-141881910D02*
X165169373Y-141796195D01*
X165169373Y-141796195D02*
X165255087Y-141624767D01*
X165255087Y-141624767D02*
X165255087Y-141110481D01*
X165255087Y-141110481D02*
X165169373Y-140939052D01*
X165169373Y-140939052D02*
X165083659Y-140853338D01*
X165083659Y-140853338D02*
X164912230Y-140767624D01*
X164912230Y-140767624D02*
X164655087Y-140767624D01*
X164655087Y-140767624D02*
X164483659Y-140853338D01*
X164483659Y-140853338D02*
X164397945Y-140939052D01*
X164397945Y-140939052D02*
X164312230Y-141110481D01*
X164312230Y-141110481D02*
X164312230Y-141624767D01*
X164312230Y-141624767D02*
X164397945Y-141796195D01*
X164397945Y-141796195D02*
X164483659Y-141881910D01*
X164483659Y-141881910D02*
X164655087Y-141967624D01*
X164655087Y-141967624D02*
X164912230Y-141967624D01*
X162769374Y-141881910D02*
X162940802Y-141967624D01*
X162940802Y-141967624D02*
X163283659Y-141967624D01*
X163283659Y-141967624D02*
X163455088Y-141881910D01*
X163455088Y-141881910D02*
X163540802Y-141796195D01*
X163540802Y-141796195D02*
X163626516Y-141624767D01*
X163626516Y-141624767D02*
X163626516Y-141110481D01*
X163626516Y-141110481D02*
X163540802Y-140939052D01*
X163540802Y-140939052D02*
X163455088Y-140853338D01*
X163455088Y-140853338D02*
X163283659Y-140767624D01*
X163283659Y-140767624D02*
X162940802Y-140767624D01*
X162940802Y-140767624D02*
X162769374Y-140853338D01*
X161997945Y-141967624D02*
X161997945Y-140167624D01*
X161826517Y-141281910D02*
X161312231Y-141967624D01*
X161312231Y-140767624D02*
X161997945Y-141453338D01*
X159855088Y-141881910D02*
X160026516Y-141967624D01*
X160026516Y-141967624D02*
X160369374Y-141967624D01*
X160369374Y-141967624D02*
X160540802Y-141881910D01*
X160540802Y-141881910D02*
X160626516Y-141710481D01*
X160626516Y-141710481D02*
X160626516Y-141024767D01*
X160626516Y-141024767D02*
X160540802Y-140853338D01*
X160540802Y-140853338D02*
X160369374Y-140767624D01*
X160369374Y-140767624D02*
X160026516Y-140767624D01*
X160026516Y-140767624D02*
X159855088Y-140853338D01*
X159855088Y-140853338D02*
X159769374Y-141024767D01*
X159769374Y-141024767D02*
X159769374Y-141196195D01*
X159769374Y-141196195D02*
X160626516Y-141367624D01*
X159255088Y-140767624D02*
X158569374Y-140767624D01*
X158997945Y-140167624D02*
X158997945Y-141710481D01*
X158997945Y-141710481D02*
X158912231Y-141881910D01*
X158912231Y-141881910D02*
X158740802Y-141967624D01*
X158740802Y-141967624D02*
X158569374Y-141967624D01*
X157283660Y-141881910D02*
X157455088Y-141967624D01*
X157455088Y-141967624D02*
X157797946Y-141967624D01*
X157797946Y-141967624D02*
X157969374Y-141881910D01*
X157969374Y-141881910D02*
X158055088Y-141710481D01*
X158055088Y-141710481D02*
X158055088Y-141024767D01*
X158055088Y-141024767D02*
X157969374Y-140853338D01*
X157969374Y-140853338D02*
X157797946Y-140767624D01*
X157797946Y-140767624D02*
X157455088Y-140767624D01*
X157455088Y-140767624D02*
X157283660Y-140853338D01*
X157283660Y-140853338D02*
X157197946Y-141024767D01*
X157197946Y-141024767D02*
X157197946Y-141196195D01*
X157197946Y-141196195D02*
X158055088Y-141367624D01*
X155655089Y-141967624D02*
X155655089Y-140167624D01*
X155655089Y-141881910D02*
X155826517Y-141967624D01*
X155826517Y-141967624D02*
X156169374Y-141967624D01*
X156169374Y-141967624D02*
X156340803Y-141881910D01*
X156340803Y-141881910D02*
X156426517Y-141796195D01*
X156426517Y-141796195D02*
X156512231Y-141624767D01*
X156512231Y-141624767D02*
X156512231Y-141110481D01*
X156512231Y-141110481D02*
X156426517Y-140939052D01*
X156426517Y-140939052D02*
X156340803Y-140853338D01*
X156340803Y-140853338D02*
X156169374Y-140767624D01*
X156169374Y-140767624D02*
X155826517Y-140767624D01*
X155826517Y-140767624D02*
X155655089Y-140853338D01*
X153426517Y-141967624D02*
X153426517Y-140167624D01*
X153426517Y-140853338D02*
X153255089Y-140767624D01*
X153255089Y-140767624D02*
X152912231Y-140767624D01*
X152912231Y-140767624D02*
X152740803Y-140853338D01*
X152740803Y-140853338D02*
X152655089Y-140939052D01*
X152655089Y-140939052D02*
X152569374Y-141110481D01*
X152569374Y-141110481D02*
X152569374Y-141624767D01*
X152569374Y-141624767D02*
X152655089Y-141796195D01*
X152655089Y-141796195D02*
X152740803Y-141881910D01*
X152740803Y-141881910D02*
X152912231Y-141967624D01*
X152912231Y-141967624D02*
X153255089Y-141967624D01*
X153255089Y-141967624D02*
X153426517Y-141881910D01*
X151969375Y-140767624D02*
X151540803Y-141967624D01*
X151112232Y-140767624D02*
X151540803Y-141967624D01*
X151540803Y-141967624D02*
X151712232Y-142396195D01*
X151712232Y-142396195D02*
X151797946Y-142481910D01*
X151797946Y-142481910D02*
X151969375Y-142567624D01*
X149312231Y-140767624D02*
X148626517Y-140767624D01*
X149055088Y-140167624D02*
X149055088Y-141710481D01*
X149055088Y-141710481D02*
X148969374Y-141881910D01*
X148969374Y-141881910D02*
X148797945Y-141967624D01*
X148797945Y-141967624D02*
X148626517Y-141967624D01*
X148112231Y-141881910D02*
X147940803Y-141967624D01*
X147940803Y-141967624D02*
X147597946Y-141967624D01*
X147597946Y-141967624D02*
X147426517Y-141881910D01*
X147426517Y-141881910D02*
X147340803Y-141710481D01*
X147340803Y-141710481D02*
X147340803Y-141624767D01*
X147340803Y-141624767D02*
X147426517Y-141453338D01*
X147426517Y-141453338D02*
X147597946Y-141367624D01*
X147597946Y-141367624D02*
X147855089Y-141367624D01*
X147855089Y-141367624D02*
X148026517Y-141281910D01*
X148026517Y-141281910D02*
X148112231Y-141110481D01*
X148112231Y-141110481D02*
X148112231Y-141024767D01*
X148112231Y-141024767D02*
X148026517Y-140853338D01*
X148026517Y-140853338D02*
X147855089Y-140767624D01*
X147855089Y-140767624D02*
X147597946Y-140767624D01*
X147597946Y-140767624D02*
X147426517Y-140853338D01*
X145797946Y-140767624D02*
X145797946Y-141967624D01*
X146569374Y-140767624D02*
X146569374Y-141710481D01*
X146569374Y-141710481D02*
X146483660Y-141881910D01*
X146483660Y-141881910D02*
X146312231Y-141967624D01*
X146312231Y-141967624D02*
X146055088Y-141967624D01*
X146055088Y-141967624D02*
X145883660Y-141881910D01*
X145883660Y-141881910D02*
X145797946Y-141796195D01*
X144940803Y-141967624D02*
X144940803Y-140167624D01*
X144940803Y-140853338D02*
X144769375Y-140767624D01*
X144769375Y-140767624D02*
X144426517Y-140767624D01*
X144426517Y-140767624D02*
X144255089Y-140853338D01*
X144255089Y-140853338D02*
X144169375Y-140939052D01*
X144169375Y-140939052D02*
X144083660Y-141110481D01*
X144083660Y-141110481D02*
X144083660Y-141624767D01*
X144083660Y-141624767D02*
X144169375Y-141796195D01*
X144169375Y-141796195D02*
X144255089Y-141881910D01*
X144255089Y-141881910D02*
X144426517Y-141967624D01*
X144426517Y-141967624D02*
X144769375Y-141967624D01*
X144769375Y-141967624D02*
X144940803Y-141881910D01*
X142540804Y-140767624D02*
X142540804Y-141967624D01*
X143312232Y-140767624D02*
X143312232Y-141710481D01*
X143312232Y-141710481D02*
X143226518Y-141881910D01*
X143226518Y-141881910D02*
X143055089Y-141967624D01*
X143055089Y-141967624D02*
X142797946Y-141967624D01*
X142797946Y-141967624D02*
X142626518Y-141881910D01*
X142626518Y-141881910D02*
X142540804Y-141796195D01*
D11*
X201110327Y-138618694D02*
X201110327Y-136618694D01*
X201110327Y-136618694D02*
X200634137Y-136618694D01*
X200634137Y-136618694D02*
X200348422Y-136713932D01*
X200348422Y-136713932D02*
X200157946Y-136904408D01*
X200157946Y-136904408D02*
X200062708Y-137094884D01*
X200062708Y-137094884D02*
X199967470Y-137475836D01*
X199967470Y-137475836D02*
X199967470Y-137761551D01*
X199967470Y-137761551D02*
X200062708Y-138142503D01*
X200062708Y-138142503D02*
X200157946Y-138332979D01*
X200157946Y-138332979D02*
X200348422Y-138523456D01*
X200348422Y-138523456D02*
X200634137Y-138618694D01*
X200634137Y-138618694D02*
X201110327Y-138618694D01*
X198348422Y-138523456D02*
X198538898Y-138618694D01*
X198538898Y-138618694D02*
X198919851Y-138618694D01*
X198919851Y-138618694D02*
X199110327Y-138523456D01*
X199110327Y-138523456D02*
X199205565Y-138332979D01*
X199205565Y-138332979D02*
X199205565Y-137571075D01*
X199205565Y-137571075D02*
X199110327Y-137380598D01*
X199110327Y-137380598D02*
X198919851Y-137285360D01*
X198919851Y-137285360D02*
X198538898Y-137285360D01*
X198538898Y-137285360D02*
X198348422Y-137380598D01*
X198348422Y-137380598D02*
X198253184Y-137571075D01*
X198253184Y-137571075D02*
X198253184Y-137761551D01*
X198253184Y-137761551D02*
X199205565Y-137952027D01*
X197491279Y-138523456D02*
X197300803Y-138618694D01*
X197300803Y-138618694D02*
X196919851Y-138618694D01*
X196919851Y-138618694D02*
X196729374Y-138523456D01*
X196729374Y-138523456D02*
X196634136Y-138332979D01*
X196634136Y-138332979D02*
X196634136Y-138237741D01*
X196634136Y-138237741D02*
X196729374Y-138047265D01*
X196729374Y-138047265D02*
X196919851Y-137952027D01*
X196919851Y-137952027D02*
X197205565Y-137952027D01*
X197205565Y-137952027D02*
X197396041Y-137856789D01*
X197396041Y-137856789D02*
X197491279Y-137666313D01*
X197491279Y-137666313D02*
X197491279Y-137571075D01*
X197491279Y-137571075D02*
X197396041Y-137380598D01*
X197396041Y-137380598D02*
X197205565Y-137285360D01*
X197205565Y-137285360D02*
X196919851Y-137285360D01*
X196919851Y-137285360D02*
X196729374Y-137380598D01*
X195776993Y-138618694D02*
X195776993Y-137285360D01*
X195776993Y-136618694D02*
X195872231Y-136713932D01*
X195872231Y-136713932D02*
X195776993Y-136809170D01*
X195776993Y-136809170D02*
X195681755Y-136713932D01*
X195681755Y-136713932D02*
X195776993Y-136618694D01*
X195776993Y-136618694D02*
X195776993Y-136809170D01*
X193967469Y-137285360D02*
X193967469Y-138904408D01*
X193967469Y-138904408D02*
X194062707Y-139094884D01*
X194062707Y-139094884D02*
X194157945Y-139190122D01*
X194157945Y-139190122D02*
X194348422Y-139285360D01*
X194348422Y-139285360D02*
X194634136Y-139285360D01*
X194634136Y-139285360D02*
X194824612Y-139190122D01*
X193967469Y-138523456D02*
X194157945Y-138618694D01*
X194157945Y-138618694D02*
X194538898Y-138618694D01*
X194538898Y-138618694D02*
X194729374Y-138523456D01*
X194729374Y-138523456D02*
X194824612Y-138428217D01*
X194824612Y-138428217D02*
X194919850Y-138237741D01*
X194919850Y-138237741D02*
X194919850Y-137666313D01*
X194919850Y-137666313D02*
X194824612Y-137475836D01*
X194824612Y-137475836D02*
X194729374Y-137380598D01*
X194729374Y-137380598D02*
X194538898Y-137285360D01*
X194538898Y-137285360D02*
X194157945Y-137285360D01*
X194157945Y-137285360D02*
X193967469Y-137380598D01*
X193015088Y-137285360D02*
X193015088Y-138618694D01*
X193015088Y-137475836D02*
X192919850Y-137380598D01*
X192919850Y-137380598D02*
X192729374Y-137285360D01*
X192729374Y-137285360D02*
X192443659Y-137285360D01*
X192443659Y-137285360D02*
X192253183Y-137380598D01*
X192253183Y-137380598D02*
X192157945Y-137571075D01*
X192157945Y-137571075D02*
X192157945Y-138618694D01*
X190443659Y-138523456D02*
X190634135Y-138618694D01*
X190634135Y-138618694D02*
X191015088Y-138618694D01*
X191015088Y-138618694D02*
X191205564Y-138523456D01*
X191205564Y-138523456D02*
X191300802Y-138332979D01*
X191300802Y-138332979D02*
X191300802Y-137571075D01*
X191300802Y-137571075D02*
X191205564Y-137380598D01*
X191205564Y-137380598D02*
X191015088Y-137285360D01*
X191015088Y-137285360D02*
X190634135Y-137285360D01*
X190634135Y-137285360D02*
X190443659Y-137380598D01*
X190443659Y-137380598D02*
X190348421Y-137571075D01*
X190348421Y-137571075D02*
X190348421Y-137761551D01*
X190348421Y-137761551D02*
X191300802Y-137952027D01*
X188634135Y-138618694D02*
X188634135Y-136618694D01*
X188634135Y-138523456D02*
X188824611Y-138618694D01*
X188824611Y-138618694D02*
X189205564Y-138618694D01*
X189205564Y-138618694D02*
X189396040Y-138523456D01*
X189396040Y-138523456D02*
X189491278Y-138428217D01*
X189491278Y-138428217D02*
X189586516Y-138237741D01*
X189586516Y-138237741D02*
X189586516Y-137666313D01*
X189586516Y-137666313D02*
X189491278Y-137475836D01*
X189491278Y-137475836D02*
X189396040Y-137380598D01*
X189396040Y-137380598D02*
X189205564Y-137285360D01*
X189205564Y-137285360D02*
X188824611Y-137285360D01*
X188824611Y-137285360D02*
X188634135Y-137380598D01*
X201681756Y-141838582D02*
X201681756Y-139838582D01*
X201681756Y-140600486D02*
X201491280Y-140505248D01*
X201491280Y-140505248D02*
X201110327Y-140505248D01*
X201110327Y-140505248D02*
X200919851Y-140600486D01*
X200919851Y-140600486D02*
X200824613Y-140695724D01*
X200824613Y-140695724D02*
X200729375Y-140886201D01*
X200729375Y-140886201D02*
X200729375Y-141457629D01*
X200729375Y-141457629D02*
X200824613Y-141648105D01*
X200824613Y-141648105D02*
X200919851Y-141743344D01*
X200919851Y-141743344D02*
X201110327Y-141838582D01*
X201110327Y-141838582D02*
X201491280Y-141838582D01*
X201491280Y-141838582D02*
X201681756Y-141743344D01*
X200062708Y-140505248D02*
X199586518Y-141838582D01*
X199110327Y-140505248D02*
X199586518Y-141838582D01*
X199586518Y-141838582D02*
X199776994Y-142314772D01*
X199776994Y-142314772D02*
X199872232Y-142410010D01*
X199872232Y-142410010D02*
X200062708Y-142505248D01*
X196538898Y-141838582D02*
X196729374Y-141743344D01*
X196729374Y-141743344D02*
X196824612Y-141648105D01*
X196824612Y-141648105D02*
X196919850Y-141457629D01*
X196919850Y-141457629D02*
X196919850Y-140886201D01*
X196919850Y-140886201D02*
X196824612Y-140695724D01*
X196824612Y-140695724D02*
X196729374Y-140600486D01*
X196729374Y-140600486D02*
X196538898Y-140505248D01*
X196538898Y-140505248D02*
X196253183Y-140505248D01*
X196253183Y-140505248D02*
X196062707Y-140600486D01*
X196062707Y-140600486D02*
X195967469Y-140695724D01*
X195967469Y-140695724D02*
X195872231Y-140886201D01*
X195872231Y-140886201D02*
X195872231Y-141457629D01*
X195872231Y-141457629D02*
X195967469Y-141648105D01*
X195967469Y-141648105D02*
X196062707Y-141743344D01*
X196062707Y-141743344D02*
X196253183Y-141838582D01*
X196253183Y-141838582D02*
X196538898Y-141838582D01*
X195015088Y-141838582D02*
X195015088Y-140505248D01*
X195015088Y-140695724D02*
X194919850Y-140600486D01*
X194919850Y-140600486D02*
X194729374Y-140505248D01*
X194729374Y-140505248D02*
X194443659Y-140505248D01*
X194443659Y-140505248D02*
X194253183Y-140600486D01*
X194253183Y-140600486D02*
X194157945Y-140790963D01*
X194157945Y-140790963D02*
X194157945Y-141838582D01*
X194157945Y-140790963D02*
X194062707Y-140600486D01*
X194062707Y-140600486D02*
X193872231Y-140505248D01*
X193872231Y-140505248D02*
X193586517Y-140505248D01*
X193586517Y-140505248D02*
X193396040Y-140600486D01*
X193396040Y-140600486D02*
X193300802Y-140790963D01*
X193300802Y-140790963D02*
X193300802Y-141838582D01*
X192348421Y-141838582D02*
X192348421Y-139838582D01*
X192157945Y-141076677D02*
X191586516Y-141838582D01*
X191586516Y-140505248D02*
X192348421Y-141267153D01*
X190729373Y-141838582D02*
X190729373Y-139838582D01*
X190729373Y-140600486D02*
X190538897Y-140505248D01*
X190538897Y-140505248D02*
X190157944Y-140505248D01*
X190157944Y-140505248D02*
X189967468Y-140600486D01*
X189967468Y-140600486D02*
X189872230Y-140695724D01*
X189872230Y-140695724D02*
X189776992Y-140886201D01*
X189776992Y-140886201D02*
X189776992Y-141457629D01*
X189776992Y-141457629D02*
X189872230Y-141648105D01*
X189872230Y-141648105D02*
X189967468Y-141743344D01*
X189967468Y-141743344D02*
X190157944Y-141838582D01*
X190157944Y-141838582D02*
X190538897Y-141838582D01*
X190538897Y-141838582D02*
X190729373Y-141743344D01*
X188062706Y-141838582D02*
X188062706Y-139838582D01*
X188062706Y-141743344D02*
X188253182Y-141838582D01*
X188253182Y-141838582D02*
X188634135Y-141838582D01*
X188634135Y-141838582D02*
X188824611Y-141743344D01*
X188824611Y-141743344D02*
X188919849Y-141648105D01*
X188919849Y-141648105D02*
X189015087Y-141457629D01*
X189015087Y-141457629D02*
X189015087Y-140886201D01*
X189015087Y-140886201D02*
X188919849Y-140695724D01*
X188919849Y-140695724D02*
X188824611Y-140600486D01*
X188824611Y-140600486D02*
X188634135Y-140505248D01*
X188634135Y-140505248D02*
X188253182Y-140505248D01*
X188253182Y-140505248D02*
X188062706Y-140600486D01*
D12*
X172492136Y-79242819D02*
X172492136Y-80052342D01*
X172492136Y-80052342D02*
X172444517Y-80147580D01*
X172444517Y-80147580D02*
X172396898Y-80195200D01*
X172396898Y-80195200D02*
X172301660Y-80242819D01*
X172301660Y-80242819D02*
X172111184Y-80242819D01*
X172111184Y-80242819D02*
X172015946Y-80195200D01*
X172015946Y-80195200D02*
X171968327Y-80147580D01*
X171968327Y-80147580D02*
X171920708Y-80052342D01*
X171920708Y-80052342D02*
X171920708Y-79242819D01*
X170920708Y-80242819D02*
X171492136Y-80242819D01*
X171206422Y-80242819D02*
X171206422Y-79242819D01*
X171206422Y-79242819D02*
X171301660Y-79385676D01*
X171301660Y-79385676D02*
X171396898Y-79480914D01*
X171396898Y-79480914D02*
X171492136Y-79528533D01*
X115342136Y-62478819D02*
X115342136Y-63288342D01*
X115342136Y-63288342D02*
X115294517Y-63383580D01*
X115294517Y-63383580D02*
X115246898Y-63431200D01*
X115246898Y-63431200D02*
X115151660Y-63478819D01*
X115151660Y-63478819D02*
X114961184Y-63478819D01*
X114961184Y-63478819D02*
X114865946Y-63431200D01*
X114865946Y-63431200D02*
X114818327Y-63383580D01*
X114818327Y-63383580D02*
X114770708Y-63288342D01*
X114770708Y-63288342D02*
X114770708Y-62478819D01*
X114342136Y-62574057D02*
X114294517Y-62526438D01*
X114294517Y-62526438D02*
X114199279Y-62478819D01*
X114199279Y-62478819D02*
X113961184Y-62478819D01*
X113961184Y-62478819D02*
X113865946Y-62526438D01*
X113865946Y-62526438D02*
X113818327Y-62574057D01*
X113818327Y-62574057D02*
X113770708Y-62669295D01*
X113770708Y-62669295D02*
X113770708Y-62764533D01*
X113770708Y-62764533D02*
X113818327Y-62907390D01*
X113818327Y-62907390D02*
X114389755Y-63478819D01*
X114389755Y-63478819D02*
X113770708Y-63478819D01*
X121311136Y-122168819D02*
X121311136Y-122978342D01*
X121311136Y-122978342D02*
X121263517Y-123073580D01*
X121263517Y-123073580D02*
X121215898Y-123121200D01*
X121215898Y-123121200D02*
X121120660Y-123168819D01*
X121120660Y-123168819D02*
X120930184Y-123168819D01*
X120930184Y-123168819D02*
X120834946Y-123121200D01*
X120834946Y-123121200D02*
X120787327Y-123073580D01*
X120787327Y-123073580D02*
X120739708Y-122978342D01*
X120739708Y-122978342D02*
X120739708Y-122168819D01*
X119834946Y-122502152D02*
X119834946Y-123168819D01*
X120073041Y-122121200D02*
X120311136Y-122835485D01*
X120311136Y-122835485D02*
X119692089Y-122835485D01*
X210592136Y-65018819D02*
X210592136Y-65828342D01*
X210592136Y-65828342D02*
X210544517Y-65923580D01*
X210544517Y-65923580D02*
X210496898Y-65971200D01*
X210496898Y-65971200D02*
X210401660Y-66018819D01*
X210401660Y-66018819D02*
X210211184Y-66018819D01*
X210211184Y-66018819D02*
X210115946Y-65971200D01*
X210115946Y-65971200D02*
X210068327Y-65923580D01*
X210068327Y-65923580D02*
X210020708Y-65828342D01*
X210020708Y-65828342D02*
X210020708Y-65018819D01*
X209068327Y-65018819D02*
X209544517Y-65018819D01*
X209544517Y-65018819D02*
X209592136Y-65495009D01*
X209592136Y-65495009D02*
X209544517Y-65447390D01*
X209544517Y-65447390D02*
X209449279Y-65399771D01*
X209449279Y-65399771D02*
X209211184Y-65399771D01*
X209211184Y-65399771D02*
X209115946Y-65447390D01*
X209115946Y-65447390D02*
X209068327Y-65495009D01*
X209068327Y-65495009D02*
X209020708Y-65590247D01*
X209020708Y-65590247D02*
X209020708Y-65828342D01*
X209020708Y-65828342D02*
X209068327Y-65923580D01*
X209068327Y-65923580D02*
X209115946Y-65971200D01*
X209115946Y-65971200D02*
X209211184Y-66018819D01*
X209211184Y-66018819D02*
X209449279Y-66018819D01*
X209449279Y-66018819D02*
X209544517Y-65971200D01*
X209544517Y-65971200D02*
X209592136Y-65923580D01*
X210592136Y-122422819D02*
X210592136Y-123232342D01*
X210592136Y-123232342D02*
X210544517Y-123327580D01*
X210544517Y-123327580D02*
X210496898Y-123375200D01*
X210496898Y-123375200D02*
X210401660Y-123422819D01*
X210401660Y-123422819D02*
X210211184Y-123422819D01*
X210211184Y-123422819D02*
X210115946Y-123375200D01*
X210115946Y-123375200D02*
X210068327Y-123327580D01*
X210068327Y-123327580D02*
X210020708Y-123232342D01*
X210020708Y-123232342D02*
X210020708Y-122422819D01*
X209639755Y-122422819D02*
X208973089Y-122422819D01*
X208973089Y-122422819D02*
X209401660Y-123422819D01*
X171984136Y-114802819D02*
X171984136Y-115612342D01*
X171984136Y-115612342D02*
X171936517Y-115707580D01*
X171936517Y-115707580D02*
X171888898Y-115755200D01*
X171888898Y-115755200D02*
X171793660Y-115802819D01*
X171793660Y-115802819D02*
X171603184Y-115802819D01*
X171603184Y-115802819D02*
X171507946Y-115755200D01*
X171507946Y-115755200D02*
X171460327Y-115707580D01*
X171460327Y-115707580D02*
X171412708Y-115612342D01*
X171412708Y-115612342D02*
X171412708Y-114802819D01*
X170793660Y-115231390D02*
X170888898Y-115183771D01*
X170888898Y-115183771D02*
X170936517Y-115136152D01*
X170936517Y-115136152D02*
X170984136Y-115040914D01*
X170984136Y-115040914D02*
X170984136Y-114993295D01*
X170984136Y-114993295D02*
X170936517Y-114898057D01*
X170936517Y-114898057D02*
X170888898Y-114850438D01*
X170888898Y-114850438D02*
X170793660Y-114802819D01*
X170793660Y-114802819D02*
X170603184Y-114802819D01*
X170603184Y-114802819D02*
X170507946Y-114850438D01*
X170507946Y-114850438D02*
X170460327Y-114898057D01*
X170460327Y-114898057D02*
X170412708Y-114993295D01*
X170412708Y-114993295D02*
X170412708Y-115040914D01*
X170412708Y-115040914D02*
X170460327Y-115136152D01*
X170460327Y-115136152D02*
X170507946Y-115183771D01*
X170507946Y-115183771D02*
X170603184Y-115231390D01*
X170603184Y-115231390D02*
X170793660Y-115231390D01*
X170793660Y-115231390D02*
X170888898Y-115279009D01*
X170888898Y-115279009D02*
X170936517Y-115326628D01*
X170936517Y-115326628D02*
X170984136Y-115421866D01*
X170984136Y-115421866D02*
X170984136Y-115612342D01*
X170984136Y-115612342D02*
X170936517Y-115707580D01*
X170936517Y-115707580D02*
X170888898Y-115755200D01*
X170888898Y-115755200D02*
X170793660Y-115802819D01*
X170793660Y-115802819D02*
X170603184Y-115802819D01*
X170603184Y-115802819D02*
X170507946Y-115755200D01*
X170507946Y-115755200D02*
X170460327Y-115707580D01*
X170460327Y-115707580D02*
X170412708Y-115612342D01*
X170412708Y-115612342D02*
X170412708Y-115421866D01*
X170412708Y-115421866D02*
X170460327Y-115326628D01*
X170460327Y-115326628D02*
X170507946Y-115279009D01*
X170507946Y-115279009D02*
X170603184Y-115231390D01*
X178715136Y-40126819D02*
X178715136Y-40936342D01*
X178715136Y-40936342D02*
X178667517Y-41031580D01*
X178667517Y-41031580D02*
X178619898Y-41079200D01*
X178619898Y-41079200D02*
X178524660Y-41126819D01*
X178524660Y-41126819D02*
X178334184Y-41126819D01*
X178334184Y-41126819D02*
X178238946Y-41079200D01*
X178238946Y-41079200D02*
X178191327Y-41031580D01*
X178191327Y-41031580D02*
X178143708Y-40936342D01*
X178143708Y-40936342D02*
X178143708Y-40126819D01*
X177619898Y-41126819D02*
X177429422Y-41126819D01*
X177429422Y-41126819D02*
X177334184Y-41079200D01*
X177334184Y-41079200D02*
X177286565Y-41031580D01*
X177286565Y-41031580D02*
X177191327Y-40888723D01*
X177191327Y-40888723D02*
X177143708Y-40698247D01*
X177143708Y-40698247D02*
X177143708Y-40317295D01*
X177143708Y-40317295D02*
X177191327Y-40222057D01*
X177191327Y-40222057D02*
X177238946Y-40174438D01*
X177238946Y-40174438D02*
X177334184Y-40126819D01*
X177334184Y-40126819D02*
X177524660Y-40126819D01*
X177524660Y-40126819D02*
X177619898Y-40174438D01*
X177619898Y-40174438D02*
X177667517Y-40222057D01*
X177667517Y-40222057D02*
X177715136Y-40317295D01*
X177715136Y-40317295D02*
X177715136Y-40555390D01*
X177715136Y-40555390D02*
X177667517Y-40650628D01*
X177667517Y-40650628D02*
X177619898Y-40698247D01*
X177619898Y-40698247D02*
X177524660Y-40745866D01*
X177524660Y-40745866D02*
X177334184Y-40745866D01*
X177334184Y-40745866D02*
X177238946Y-40698247D01*
X177238946Y-40698247D02*
X177191327Y-40650628D01*
X177191327Y-40650628D02*
X177143708Y-40555390D01*
X220688564Y-50382700D02*
X220545707Y-50430319D01*
X220545707Y-50430319D02*
X220307612Y-50430319D01*
X220307612Y-50430319D02*
X220212374Y-50382700D01*
X220212374Y-50382700D02*
X220164755Y-50335080D01*
X220164755Y-50335080D02*
X220117136Y-50239842D01*
X220117136Y-50239842D02*
X220117136Y-50144604D01*
X220117136Y-50144604D02*
X220164755Y-50049366D01*
X220164755Y-50049366D02*
X220212374Y-50001747D01*
X220212374Y-50001747D02*
X220307612Y-49954128D01*
X220307612Y-49954128D02*
X220498088Y-49906509D01*
X220498088Y-49906509D02*
X220593326Y-49858890D01*
X220593326Y-49858890D02*
X220640945Y-49811271D01*
X220640945Y-49811271D02*
X220688564Y-49716033D01*
X220688564Y-49716033D02*
X220688564Y-49620795D01*
X220688564Y-49620795D02*
X220640945Y-49525557D01*
X220640945Y-49525557D02*
X220593326Y-49477938D01*
X220593326Y-49477938D02*
X220498088Y-49430319D01*
X220498088Y-49430319D02*
X220259993Y-49430319D01*
X220259993Y-49430319D02*
X220117136Y-49477938D01*
X219783802Y-49430319D02*
X219545707Y-50430319D01*
X219545707Y-50430319D02*
X219355231Y-49716033D01*
X219355231Y-49716033D02*
X219164755Y-50430319D01*
X219164755Y-50430319D02*
X218926660Y-49430319D01*
X218021898Y-50430319D02*
X218593326Y-50430319D01*
X218307612Y-50430319D02*
X218307612Y-49430319D01*
X218307612Y-49430319D02*
X218402850Y-49573176D01*
X218402850Y-49573176D02*
X218498088Y-49668414D01*
X218498088Y-49668414D02*
X218593326Y-49716033D01*
X220688564Y-69432700D02*
X220545707Y-69480319D01*
X220545707Y-69480319D02*
X220307612Y-69480319D01*
X220307612Y-69480319D02*
X220212374Y-69432700D01*
X220212374Y-69432700D02*
X220164755Y-69385080D01*
X220164755Y-69385080D02*
X220117136Y-69289842D01*
X220117136Y-69289842D02*
X220117136Y-69194604D01*
X220117136Y-69194604D02*
X220164755Y-69099366D01*
X220164755Y-69099366D02*
X220212374Y-69051747D01*
X220212374Y-69051747D02*
X220307612Y-69004128D01*
X220307612Y-69004128D02*
X220498088Y-68956509D01*
X220498088Y-68956509D02*
X220593326Y-68908890D01*
X220593326Y-68908890D02*
X220640945Y-68861271D01*
X220640945Y-68861271D02*
X220688564Y-68766033D01*
X220688564Y-68766033D02*
X220688564Y-68670795D01*
X220688564Y-68670795D02*
X220640945Y-68575557D01*
X220640945Y-68575557D02*
X220593326Y-68527938D01*
X220593326Y-68527938D02*
X220498088Y-68480319D01*
X220498088Y-68480319D02*
X220259993Y-68480319D01*
X220259993Y-68480319D02*
X220117136Y-68527938D01*
X219783802Y-68480319D02*
X219545707Y-69480319D01*
X219545707Y-69480319D02*
X219355231Y-68766033D01*
X219355231Y-68766033D02*
X219164755Y-69480319D01*
X219164755Y-69480319D02*
X218926660Y-68480319D01*
X218593326Y-68575557D02*
X218545707Y-68527938D01*
X218545707Y-68527938D02*
X218450469Y-68480319D01*
X218450469Y-68480319D02*
X218212374Y-68480319D01*
X218212374Y-68480319D02*
X218117136Y-68527938D01*
X218117136Y-68527938D02*
X218069517Y-68575557D01*
X218069517Y-68575557D02*
X218021898Y-68670795D01*
X218021898Y-68670795D02*
X218021898Y-68766033D01*
X218021898Y-68766033D02*
X218069517Y-68908890D01*
X218069517Y-68908890D02*
X218640945Y-69480319D01*
X218640945Y-69480319D02*
X218021898Y-69480319D01*
X220688564Y-88482700D02*
X220545707Y-88530319D01*
X220545707Y-88530319D02*
X220307612Y-88530319D01*
X220307612Y-88530319D02*
X220212374Y-88482700D01*
X220212374Y-88482700D02*
X220164755Y-88435080D01*
X220164755Y-88435080D02*
X220117136Y-88339842D01*
X220117136Y-88339842D02*
X220117136Y-88244604D01*
X220117136Y-88244604D02*
X220164755Y-88149366D01*
X220164755Y-88149366D02*
X220212374Y-88101747D01*
X220212374Y-88101747D02*
X220307612Y-88054128D01*
X220307612Y-88054128D02*
X220498088Y-88006509D01*
X220498088Y-88006509D02*
X220593326Y-87958890D01*
X220593326Y-87958890D02*
X220640945Y-87911271D01*
X220640945Y-87911271D02*
X220688564Y-87816033D01*
X220688564Y-87816033D02*
X220688564Y-87720795D01*
X220688564Y-87720795D02*
X220640945Y-87625557D01*
X220640945Y-87625557D02*
X220593326Y-87577938D01*
X220593326Y-87577938D02*
X220498088Y-87530319D01*
X220498088Y-87530319D02*
X220259993Y-87530319D01*
X220259993Y-87530319D02*
X220117136Y-87577938D01*
X219783802Y-87530319D02*
X219545707Y-88530319D01*
X219545707Y-88530319D02*
X219355231Y-87816033D01*
X219355231Y-87816033D02*
X219164755Y-88530319D01*
X219164755Y-88530319D02*
X218926660Y-87530319D01*
X218640945Y-87530319D02*
X218021898Y-87530319D01*
X218021898Y-87530319D02*
X218355231Y-87911271D01*
X218355231Y-87911271D02*
X218212374Y-87911271D01*
X218212374Y-87911271D02*
X218117136Y-87958890D01*
X218117136Y-87958890D02*
X218069517Y-88006509D01*
X218069517Y-88006509D02*
X218021898Y-88101747D01*
X218021898Y-88101747D02*
X218021898Y-88339842D01*
X218021898Y-88339842D02*
X218069517Y-88435080D01*
X218069517Y-88435080D02*
X218117136Y-88482700D01*
X218117136Y-88482700D02*
X218212374Y-88530319D01*
X218212374Y-88530319D02*
X218498088Y-88530319D01*
X218498088Y-88530319D02*
X218593326Y-88482700D01*
X218593326Y-88482700D02*
X218640945Y-88435080D01*
X220688564Y-107532700D02*
X220545707Y-107580319D01*
X220545707Y-107580319D02*
X220307612Y-107580319D01*
X220307612Y-107580319D02*
X220212374Y-107532700D01*
X220212374Y-107532700D02*
X220164755Y-107485080D01*
X220164755Y-107485080D02*
X220117136Y-107389842D01*
X220117136Y-107389842D02*
X220117136Y-107294604D01*
X220117136Y-107294604D02*
X220164755Y-107199366D01*
X220164755Y-107199366D02*
X220212374Y-107151747D01*
X220212374Y-107151747D02*
X220307612Y-107104128D01*
X220307612Y-107104128D02*
X220498088Y-107056509D01*
X220498088Y-107056509D02*
X220593326Y-107008890D01*
X220593326Y-107008890D02*
X220640945Y-106961271D01*
X220640945Y-106961271D02*
X220688564Y-106866033D01*
X220688564Y-106866033D02*
X220688564Y-106770795D01*
X220688564Y-106770795D02*
X220640945Y-106675557D01*
X220640945Y-106675557D02*
X220593326Y-106627938D01*
X220593326Y-106627938D02*
X220498088Y-106580319D01*
X220498088Y-106580319D02*
X220259993Y-106580319D01*
X220259993Y-106580319D02*
X220117136Y-106627938D01*
X219783802Y-106580319D02*
X219545707Y-107580319D01*
X219545707Y-107580319D02*
X219355231Y-106866033D01*
X219355231Y-106866033D02*
X219164755Y-107580319D01*
X219164755Y-107580319D02*
X218926660Y-106580319D01*
X218117136Y-106913652D02*
X218117136Y-107580319D01*
X218355231Y-106532700D02*
X218593326Y-107246985D01*
X218593326Y-107246985D02*
X217974279Y-107246985D01*
X201638564Y-50382700D02*
X201495707Y-50430319D01*
X201495707Y-50430319D02*
X201257612Y-50430319D01*
X201257612Y-50430319D02*
X201162374Y-50382700D01*
X201162374Y-50382700D02*
X201114755Y-50335080D01*
X201114755Y-50335080D02*
X201067136Y-50239842D01*
X201067136Y-50239842D02*
X201067136Y-50144604D01*
X201067136Y-50144604D02*
X201114755Y-50049366D01*
X201114755Y-50049366D02*
X201162374Y-50001747D01*
X201162374Y-50001747D02*
X201257612Y-49954128D01*
X201257612Y-49954128D02*
X201448088Y-49906509D01*
X201448088Y-49906509D02*
X201543326Y-49858890D01*
X201543326Y-49858890D02*
X201590945Y-49811271D01*
X201590945Y-49811271D02*
X201638564Y-49716033D01*
X201638564Y-49716033D02*
X201638564Y-49620795D01*
X201638564Y-49620795D02*
X201590945Y-49525557D01*
X201590945Y-49525557D02*
X201543326Y-49477938D01*
X201543326Y-49477938D02*
X201448088Y-49430319D01*
X201448088Y-49430319D02*
X201209993Y-49430319D01*
X201209993Y-49430319D02*
X201067136Y-49477938D01*
X200733802Y-49430319D02*
X200495707Y-50430319D01*
X200495707Y-50430319D02*
X200305231Y-49716033D01*
X200305231Y-49716033D02*
X200114755Y-50430319D01*
X200114755Y-50430319D02*
X199876660Y-49430319D01*
X199019517Y-49430319D02*
X199495707Y-49430319D01*
X199495707Y-49430319D02*
X199543326Y-49906509D01*
X199543326Y-49906509D02*
X199495707Y-49858890D01*
X199495707Y-49858890D02*
X199400469Y-49811271D01*
X199400469Y-49811271D02*
X199162374Y-49811271D01*
X199162374Y-49811271D02*
X199067136Y-49858890D01*
X199067136Y-49858890D02*
X199019517Y-49906509D01*
X199019517Y-49906509D02*
X198971898Y-50001747D01*
X198971898Y-50001747D02*
X198971898Y-50239842D01*
X198971898Y-50239842D02*
X199019517Y-50335080D01*
X199019517Y-50335080D02*
X199067136Y-50382700D01*
X199067136Y-50382700D02*
X199162374Y-50430319D01*
X199162374Y-50430319D02*
X199400469Y-50430319D01*
X199400469Y-50430319D02*
X199495707Y-50382700D01*
X199495707Y-50382700D02*
X199543326Y-50335080D01*
X201638564Y-69432700D02*
X201495707Y-69480319D01*
X201495707Y-69480319D02*
X201257612Y-69480319D01*
X201257612Y-69480319D02*
X201162374Y-69432700D01*
X201162374Y-69432700D02*
X201114755Y-69385080D01*
X201114755Y-69385080D02*
X201067136Y-69289842D01*
X201067136Y-69289842D02*
X201067136Y-69194604D01*
X201067136Y-69194604D02*
X201114755Y-69099366D01*
X201114755Y-69099366D02*
X201162374Y-69051747D01*
X201162374Y-69051747D02*
X201257612Y-69004128D01*
X201257612Y-69004128D02*
X201448088Y-68956509D01*
X201448088Y-68956509D02*
X201543326Y-68908890D01*
X201543326Y-68908890D02*
X201590945Y-68861271D01*
X201590945Y-68861271D02*
X201638564Y-68766033D01*
X201638564Y-68766033D02*
X201638564Y-68670795D01*
X201638564Y-68670795D02*
X201590945Y-68575557D01*
X201590945Y-68575557D02*
X201543326Y-68527938D01*
X201543326Y-68527938D02*
X201448088Y-68480319D01*
X201448088Y-68480319D02*
X201209993Y-68480319D01*
X201209993Y-68480319D02*
X201067136Y-68527938D01*
X200733802Y-68480319D02*
X200495707Y-69480319D01*
X200495707Y-69480319D02*
X200305231Y-68766033D01*
X200305231Y-68766033D02*
X200114755Y-69480319D01*
X200114755Y-69480319D02*
X199876660Y-68480319D01*
X199067136Y-68480319D02*
X199257612Y-68480319D01*
X199257612Y-68480319D02*
X199352850Y-68527938D01*
X199352850Y-68527938D02*
X199400469Y-68575557D01*
X199400469Y-68575557D02*
X199495707Y-68718414D01*
X199495707Y-68718414D02*
X199543326Y-68908890D01*
X199543326Y-68908890D02*
X199543326Y-69289842D01*
X199543326Y-69289842D02*
X199495707Y-69385080D01*
X199495707Y-69385080D02*
X199448088Y-69432700D01*
X199448088Y-69432700D02*
X199352850Y-69480319D01*
X199352850Y-69480319D02*
X199162374Y-69480319D01*
X199162374Y-69480319D02*
X199067136Y-69432700D01*
X199067136Y-69432700D02*
X199019517Y-69385080D01*
X199019517Y-69385080D02*
X198971898Y-69289842D01*
X198971898Y-69289842D02*
X198971898Y-69051747D01*
X198971898Y-69051747D02*
X199019517Y-68956509D01*
X199019517Y-68956509D02*
X199067136Y-68908890D01*
X199067136Y-68908890D02*
X199162374Y-68861271D01*
X199162374Y-68861271D02*
X199352850Y-68861271D01*
X199352850Y-68861271D02*
X199448088Y-68908890D01*
X199448088Y-68908890D02*
X199495707Y-68956509D01*
X199495707Y-68956509D02*
X199543326Y-69051747D01*
X201638564Y-88482700D02*
X201495707Y-88530319D01*
X201495707Y-88530319D02*
X201257612Y-88530319D01*
X201257612Y-88530319D02*
X201162374Y-88482700D01*
X201162374Y-88482700D02*
X201114755Y-88435080D01*
X201114755Y-88435080D02*
X201067136Y-88339842D01*
X201067136Y-88339842D02*
X201067136Y-88244604D01*
X201067136Y-88244604D02*
X201114755Y-88149366D01*
X201114755Y-88149366D02*
X201162374Y-88101747D01*
X201162374Y-88101747D02*
X201257612Y-88054128D01*
X201257612Y-88054128D02*
X201448088Y-88006509D01*
X201448088Y-88006509D02*
X201543326Y-87958890D01*
X201543326Y-87958890D02*
X201590945Y-87911271D01*
X201590945Y-87911271D02*
X201638564Y-87816033D01*
X201638564Y-87816033D02*
X201638564Y-87720795D01*
X201638564Y-87720795D02*
X201590945Y-87625557D01*
X201590945Y-87625557D02*
X201543326Y-87577938D01*
X201543326Y-87577938D02*
X201448088Y-87530319D01*
X201448088Y-87530319D02*
X201209993Y-87530319D01*
X201209993Y-87530319D02*
X201067136Y-87577938D01*
X200733802Y-87530319D02*
X200495707Y-88530319D01*
X200495707Y-88530319D02*
X200305231Y-87816033D01*
X200305231Y-87816033D02*
X200114755Y-88530319D01*
X200114755Y-88530319D02*
X199876660Y-87530319D01*
X199590945Y-87530319D02*
X198924279Y-87530319D01*
X198924279Y-87530319D02*
X199352850Y-88530319D01*
X201638564Y-107532700D02*
X201495707Y-107580319D01*
X201495707Y-107580319D02*
X201257612Y-107580319D01*
X201257612Y-107580319D02*
X201162374Y-107532700D01*
X201162374Y-107532700D02*
X201114755Y-107485080D01*
X201114755Y-107485080D02*
X201067136Y-107389842D01*
X201067136Y-107389842D02*
X201067136Y-107294604D01*
X201067136Y-107294604D02*
X201114755Y-107199366D01*
X201114755Y-107199366D02*
X201162374Y-107151747D01*
X201162374Y-107151747D02*
X201257612Y-107104128D01*
X201257612Y-107104128D02*
X201448088Y-107056509D01*
X201448088Y-107056509D02*
X201543326Y-107008890D01*
X201543326Y-107008890D02*
X201590945Y-106961271D01*
X201590945Y-106961271D02*
X201638564Y-106866033D01*
X201638564Y-106866033D02*
X201638564Y-106770795D01*
X201638564Y-106770795D02*
X201590945Y-106675557D01*
X201590945Y-106675557D02*
X201543326Y-106627938D01*
X201543326Y-106627938D02*
X201448088Y-106580319D01*
X201448088Y-106580319D02*
X201209993Y-106580319D01*
X201209993Y-106580319D02*
X201067136Y-106627938D01*
X200733802Y-106580319D02*
X200495707Y-107580319D01*
X200495707Y-107580319D02*
X200305231Y-106866033D01*
X200305231Y-106866033D02*
X200114755Y-107580319D01*
X200114755Y-107580319D02*
X199876660Y-106580319D01*
X199352850Y-107008890D02*
X199448088Y-106961271D01*
X199448088Y-106961271D02*
X199495707Y-106913652D01*
X199495707Y-106913652D02*
X199543326Y-106818414D01*
X199543326Y-106818414D02*
X199543326Y-106770795D01*
X199543326Y-106770795D02*
X199495707Y-106675557D01*
X199495707Y-106675557D02*
X199448088Y-106627938D01*
X199448088Y-106627938D02*
X199352850Y-106580319D01*
X199352850Y-106580319D02*
X199162374Y-106580319D01*
X199162374Y-106580319D02*
X199067136Y-106627938D01*
X199067136Y-106627938D02*
X199019517Y-106675557D01*
X199019517Y-106675557D02*
X198971898Y-106770795D01*
X198971898Y-106770795D02*
X198971898Y-106818414D01*
X198971898Y-106818414D02*
X199019517Y-106913652D01*
X199019517Y-106913652D02*
X199067136Y-106961271D01*
X199067136Y-106961271D02*
X199162374Y-107008890D01*
X199162374Y-107008890D02*
X199352850Y-107008890D01*
X199352850Y-107008890D02*
X199448088Y-107056509D01*
X199448088Y-107056509D02*
X199495707Y-107104128D01*
X199495707Y-107104128D02*
X199543326Y-107199366D01*
X199543326Y-107199366D02*
X199543326Y-107389842D01*
X199543326Y-107389842D02*
X199495707Y-107485080D01*
X199495707Y-107485080D02*
X199448088Y-107532700D01*
X199448088Y-107532700D02*
X199352850Y-107580319D01*
X199352850Y-107580319D02*
X199162374Y-107580319D01*
X199162374Y-107580319D02*
X199067136Y-107532700D01*
X199067136Y-107532700D02*
X199019517Y-107485080D01*
X199019517Y-107485080D02*
X198971898Y-107389842D01*
X198971898Y-107389842D02*
X198971898Y-107199366D01*
X198971898Y-107199366D02*
X199019517Y-107104128D01*
X199019517Y-107104128D02*
X199067136Y-107056509D01*
X199067136Y-107056509D02*
X199162374Y-107008890D01*
X182588564Y-45620200D02*
X182445707Y-45667819D01*
X182445707Y-45667819D02*
X182207612Y-45667819D01*
X182207612Y-45667819D02*
X182112374Y-45620200D01*
X182112374Y-45620200D02*
X182064755Y-45572580D01*
X182064755Y-45572580D02*
X182017136Y-45477342D01*
X182017136Y-45477342D02*
X182017136Y-45382104D01*
X182017136Y-45382104D02*
X182064755Y-45286866D01*
X182064755Y-45286866D02*
X182112374Y-45239247D01*
X182112374Y-45239247D02*
X182207612Y-45191628D01*
X182207612Y-45191628D02*
X182398088Y-45144009D01*
X182398088Y-45144009D02*
X182493326Y-45096390D01*
X182493326Y-45096390D02*
X182540945Y-45048771D01*
X182540945Y-45048771D02*
X182588564Y-44953533D01*
X182588564Y-44953533D02*
X182588564Y-44858295D01*
X182588564Y-44858295D02*
X182540945Y-44763057D01*
X182540945Y-44763057D02*
X182493326Y-44715438D01*
X182493326Y-44715438D02*
X182398088Y-44667819D01*
X182398088Y-44667819D02*
X182159993Y-44667819D01*
X182159993Y-44667819D02*
X182017136Y-44715438D01*
X181683802Y-44667819D02*
X181445707Y-45667819D01*
X181445707Y-45667819D02*
X181255231Y-44953533D01*
X181255231Y-44953533D02*
X181064755Y-45667819D01*
X181064755Y-45667819D02*
X180826660Y-44667819D01*
X180398088Y-45667819D02*
X180207612Y-45667819D01*
X180207612Y-45667819D02*
X180112374Y-45620200D01*
X180112374Y-45620200D02*
X180064755Y-45572580D01*
X180064755Y-45572580D02*
X179969517Y-45429723D01*
X179969517Y-45429723D02*
X179921898Y-45239247D01*
X179921898Y-45239247D02*
X179921898Y-44858295D01*
X179921898Y-44858295D02*
X179969517Y-44763057D01*
X179969517Y-44763057D02*
X180017136Y-44715438D01*
X180017136Y-44715438D02*
X180112374Y-44667819D01*
X180112374Y-44667819D02*
X180302850Y-44667819D01*
X180302850Y-44667819D02*
X180398088Y-44715438D01*
X180398088Y-44715438D02*
X180445707Y-44763057D01*
X180445707Y-44763057D02*
X180493326Y-44858295D01*
X180493326Y-44858295D02*
X180493326Y-45096390D01*
X180493326Y-45096390D02*
X180445707Y-45191628D01*
X180445707Y-45191628D02*
X180398088Y-45239247D01*
X180398088Y-45239247D02*
X180302850Y-45286866D01*
X180302850Y-45286866D02*
X180112374Y-45286866D01*
X180112374Y-45286866D02*
X180017136Y-45239247D01*
X180017136Y-45239247D02*
X179969517Y-45191628D01*
X179969517Y-45191628D02*
X179921898Y-45096390D01*
X183064755Y-64670200D02*
X182921898Y-64717819D01*
X182921898Y-64717819D02*
X182683803Y-64717819D01*
X182683803Y-64717819D02*
X182588565Y-64670200D01*
X182588565Y-64670200D02*
X182540946Y-64622580D01*
X182540946Y-64622580D02*
X182493327Y-64527342D01*
X182493327Y-64527342D02*
X182493327Y-64432104D01*
X182493327Y-64432104D02*
X182540946Y-64336866D01*
X182540946Y-64336866D02*
X182588565Y-64289247D01*
X182588565Y-64289247D02*
X182683803Y-64241628D01*
X182683803Y-64241628D02*
X182874279Y-64194009D01*
X182874279Y-64194009D02*
X182969517Y-64146390D01*
X182969517Y-64146390D02*
X183017136Y-64098771D01*
X183017136Y-64098771D02*
X183064755Y-64003533D01*
X183064755Y-64003533D02*
X183064755Y-63908295D01*
X183064755Y-63908295D02*
X183017136Y-63813057D01*
X183017136Y-63813057D02*
X182969517Y-63765438D01*
X182969517Y-63765438D02*
X182874279Y-63717819D01*
X182874279Y-63717819D02*
X182636184Y-63717819D01*
X182636184Y-63717819D02*
X182493327Y-63765438D01*
X182159993Y-63717819D02*
X181921898Y-64717819D01*
X181921898Y-64717819D02*
X181731422Y-64003533D01*
X181731422Y-64003533D02*
X181540946Y-64717819D01*
X181540946Y-64717819D02*
X181302851Y-63717819D01*
X180398089Y-64717819D02*
X180969517Y-64717819D01*
X180683803Y-64717819D02*
X180683803Y-63717819D01*
X180683803Y-63717819D02*
X180779041Y-63860676D01*
X180779041Y-63860676D02*
X180874279Y-63955914D01*
X180874279Y-63955914D02*
X180969517Y-64003533D01*
X179779041Y-63717819D02*
X179683803Y-63717819D01*
X179683803Y-63717819D02*
X179588565Y-63765438D01*
X179588565Y-63765438D02*
X179540946Y-63813057D01*
X179540946Y-63813057D02*
X179493327Y-63908295D01*
X179493327Y-63908295D02*
X179445708Y-64098771D01*
X179445708Y-64098771D02*
X179445708Y-64336866D01*
X179445708Y-64336866D02*
X179493327Y-64527342D01*
X179493327Y-64527342D02*
X179540946Y-64622580D01*
X179540946Y-64622580D02*
X179588565Y-64670200D01*
X179588565Y-64670200D02*
X179683803Y-64717819D01*
X179683803Y-64717819D02*
X179779041Y-64717819D01*
X179779041Y-64717819D02*
X179874279Y-64670200D01*
X179874279Y-64670200D02*
X179921898Y-64622580D01*
X179921898Y-64622580D02*
X179969517Y-64527342D01*
X179969517Y-64527342D02*
X180017136Y-64336866D01*
X180017136Y-64336866D02*
X180017136Y-64098771D01*
X180017136Y-64098771D02*
X179969517Y-63908295D01*
X179969517Y-63908295D02*
X179921898Y-63813057D01*
X179921898Y-63813057D02*
X179874279Y-63765438D01*
X179874279Y-63765438D02*
X179779041Y-63717819D01*
X183064755Y-83720200D02*
X182921898Y-83767819D01*
X182921898Y-83767819D02*
X182683803Y-83767819D01*
X182683803Y-83767819D02*
X182588565Y-83720200D01*
X182588565Y-83720200D02*
X182540946Y-83672580D01*
X182540946Y-83672580D02*
X182493327Y-83577342D01*
X182493327Y-83577342D02*
X182493327Y-83482104D01*
X182493327Y-83482104D02*
X182540946Y-83386866D01*
X182540946Y-83386866D02*
X182588565Y-83339247D01*
X182588565Y-83339247D02*
X182683803Y-83291628D01*
X182683803Y-83291628D02*
X182874279Y-83244009D01*
X182874279Y-83244009D02*
X182969517Y-83196390D01*
X182969517Y-83196390D02*
X183017136Y-83148771D01*
X183017136Y-83148771D02*
X183064755Y-83053533D01*
X183064755Y-83053533D02*
X183064755Y-82958295D01*
X183064755Y-82958295D02*
X183017136Y-82863057D01*
X183017136Y-82863057D02*
X182969517Y-82815438D01*
X182969517Y-82815438D02*
X182874279Y-82767819D01*
X182874279Y-82767819D02*
X182636184Y-82767819D01*
X182636184Y-82767819D02*
X182493327Y-82815438D01*
X182159993Y-82767819D02*
X181921898Y-83767819D01*
X181921898Y-83767819D02*
X181731422Y-83053533D01*
X181731422Y-83053533D02*
X181540946Y-83767819D01*
X181540946Y-83767819D02*
X181302851Y-82767819D01*
X180398089Y-83767819D02*
X180969517Y-83767819D01*
X180683803Y-83767819D02*
X180683803Y-82767819D01*
X180683803Y-82767819D02*
X180779041Y-82910676D01*
X180779041Y-82910676D02*
X180874279Y-83005914D01*
X180874279Y-83005914D02*
X180969517Y-83053533D01*
X179445708Y-83767819D02*
X180017136Y-83767819D01*
X179731422Y-83767819D02*
X179731422Y-82767819D01*
X179731422Y-82767819D02*
X179826660Y-82910676D01*
X179826660Y-82910676D02*
X179921898Y-83005914D01*
X179921898Y-83005914D02*
X180017136Y-83053533D01*
X183064755Y-102770200D02*
X182921898Y-102817819D01*
X182921898Y-102817819D02*
X182683803Y-102817819D01*
X182683803Y-102817819D02*
X182588565Y-102770200D01*
X182588565Y-102770200D02*
X182540946Y-102722580D01*
X182540946Y-102722580D02*
X182493327Y-102627342D01*
X182493327Y-102627342D02*
X182493327Y-102532104D01*
X182493327Y-102532104D02*
X182540946Y-102436866D01*
X182540946Y-102436866D02*
X182588565Y-102389247D01*
X182588565Y-102389247D02*
X182683803Y-102341628D01*
X182683803Y-102341628D02*
X182874279Y-102294009D01*
X182874279Y-102294009D02*
X182969517Y-102246390D01*
X182969517Y-102246390D02*
X183017136Y-102198771D01*
X183017136Y-102198771D02*
X183064755Y-102103533D01*
X183064755Y-102103533D02*
X183064755Y-102008295D01*
X183064755Y-102008295D02*
X183017136Y-101913057D01*
X183017136Y-101913057D02*
X182969517Y-101865438D01*
X182969517Y-101865438D02*
X182874279Y-101817819D01*
X182874279Y-101817819D02*
X182636184Y-101817819D01*
X182636184Y-101817819D02*
X182493327Y-101865438D01*
X182159993Y-101817819D02*
X181921898Y-102817819D01*
X181921898Y-102817819D02*
X181731422Y-102103533D01*
X181731422Y-102103533D02*
X181540946Y-102817819D01*
X181540946Y-102817819D02*
X181302851Y-101817819D01*
X180398089Y-102817819D02*
X180969517Y-102817819D01*
X180683803Y-102817819D02*
X180683803Y-101817819D01*
X180683803Y-101817819D02*
X180779041Y-101960676D01*
X180779041Y-101960676D02*
X180874279Y-102055914D01*
X180874279Y-102055914D02*
X180969517Y-102103533D01*
X180017136Y-101913057D02*
X179969517Y-101865438D01*
X179969517Y-101865438D02*
X179874279Y-101817819D01*
X179874279Y-101817819D02*
X179636184Y-101817819D01*
X179636184Y-101817819D02*
X179540946Y-101865438D01*
X179540946Y-101865438D02*
X179493327Y-101913057D01*
X179493327Y-101913057D02*
X179445708Y-102008295D01*
X179445708Y-102008295D02*
X179445708Y-102103533D01*
X179445708Y-102103533D02*
X179493327Y-102246390D01*
X179493327Y-102246390D02*
X180064755Y-102817819D01*
X180064755Y-102817819D02*
X179445708Y-102817819D01*
X163181755Y-43163200D02*
X163038898Y-43210819D01*
X163038898Y-43210819D02*
X162800803Y-43210819D01*
X162800803Y-43210819D02*
X162705565Y-43163200D01*
X162705565Y-43163200D02*
X162657946Y-43115580D01*
X162657946Y-43115580D02*
X162610327Y-43020342D01*
X162610327Y-43020342D02*
X162610327Y-42925104D01*
X162610327Y-42925104D02*
X162657946Y-42829866D01*
X162657946Y-42829866D02*
X162705565Y-42782247D01*
X162705565Y-42782247D02*
X162800803Y-42734628D01*
X162800803Y-42734628D02*
X162991279Y-42687009D01*
X162991279Y-42687009D02*
X163086517Y-42639390D01*
X163086517Y-42639390D02*
X163134136Y-42591771D01*
X163134136Y-42591771D02*
X163181755Y-42496533D01*
X163181755Y-42496533D02*
X163181755Y-42401295D01*
X163181755Y-42401295D02*
X163134136Y-42306057D01*
X163134136Y-42306057D02*
X163086517Y-42258438D01*
X163086517Y-42258438D02*
X162991279Y-42210819D01*
X162991279Y-42210819D02*
X162753184Y-42210819D01*
X162753184Y-42210819D02*
X162610327Y-42258438D01*
X162276993Y-42210819D02*
X162038898Y-43210819D01*
X162038898Y-43210819D02*
X161848422Y-42496533D01*
X161848422Y-42496533D02*
X161657946Y-43210819D01*
X161657946Y-43210819D02*
X161419851Y-42210819D01*
X160515089Y-43210819D02*
X161086517Y-43210819D01*
X160800803Y-43210819D02*
X160800803Y-42210819D01*
X160800803Y-42210819D02*
X160896041Y-42353676D01*
X160896041Y-42353676D02*
X160991279Y-42448914D01*
X160991279Y-42448914D02*
X161086517Y-42496533D01*
X160181755Y-42210819D02*
X159562708Y-42210819D01*
X159562708Y-42210819D02*
X159896041Y-42591771D01*
X159896041Y-42591771D02*
X159753184Y-42591771D01*
X159753184Y-42591771D02*
X159657946Y-42639390D01*
X159657946Y-42639390D02*
X159610327Y-42687009D01*
X159610327Y-42687009D02*
X159562708Y-42782247D01*
X159562708Y-42782247D02*
X159562708Y-43020342D01*
X159562708Y-43020342D02*
X159610327Y-43115580D01*
X159610327Y-43115580D02*
X159657946Y-43163200D01*
X159657946Y-43163200D02*
X159753184Y-43210819D01*
X159753184Y-43210819D02*
X160038898Y-43210819D01*
X160038898Y-43210819D02*
X160134136Y-43163200D01*
X160134136Y-43163200D02*
X160181755Y-43115580D01*
X163681755Y-62163200D02*
X163538898Y-62210819D01*
X163538898Y-62210819D02*
X163300803Y-62210819D01*
X163300803Y-62210819D02*
X163205565Y-62163200D01*
X163205565Y-62163200D02*
X163157946Y-62115580D01*
X163157946Y-62115580D02*
X163110327Y-62020342D01*
X163110327Y-62020342D02*
X163110327Y-61925104D01*
X163110327Y-61925104D02*
X163157946Y-61829866D01*
X163157946Y-61829866D02*
X163205565Y-61782247D01*
X163205565Y-61782247D02*
X163300803Y-61734628D01*
X163300803Y-61734628D02*
X163491279Y-61687009D01*
X163491279Y-61687009D02*
X163586517Y-61639390D01*
X163586517Y-61639390D02*
X163634136Y-61591771D01*
X163634136Y-61591771D02*
X163681755Y-61496533D01*
X163681755Y-61496533D02*
X163681755Y-61401295D01*
X163681755Y-61401295D02*
X163634136Y-61306057D01*
X163634136Y-61306057D02*
X163586517Y-61258438D01*
X163586517Y-61258438D02*
X163491279Y-61210819D01*
X163491279Y-61210819D02*
X163253184Y-61210819D01*
X163253184Y-61210819D02*
X163110327Y-61258438D01*
X162776993Y-61210819D02*
X162538898Y-62210819D01*
X162538898Y-62210819D02*
X162348422Y-61496533D01*
X162348422Y-61496533D02*
X162157946Y-62210819D01*
X162157946Y-62210819D02*
X161919851Y-61210819D01*
X161015089Y-62210819D02*
X161586517Y-62210819D01*
X161300803Y-62210819D02*
X161300803Y-61210819D01*
X161300803Y-61210819D02*
X161396041Y-61353676D01*
X161396041Y-61353676D02*
X161491279Y-61448914D01*
X161491279Y-61448914D02*
X161586517Y-61496533D01*
X160157946Y-61544152D02*
X160157946Y-62210819D01*
X160396041Y-61163200D02*
X160634136Y-61877485D01*
X160634136Y-61877485D02*
X160015089Y-61877485D01*
X164181755Y-81163200D02*
X164038898Y-81210819D01*
X164038898Y-81210819D02*
X163800803Y-81210819D01*
X163800803Y-81210819D02*
X163705565Y-81163200D01*
X163705565Y-81163200D02*
X163657946Y-81115580D01*
X163657946Y-81115580D02*
X163610327Y-81020342D01*
X163610327Y-81020342D02*
X163610327Y-80925104D01*
X163610327Y-80925104D02*
X163657946Y-80829866D01*
X163657946Y-80829866D02*
X163705565Y-80782247D01*
X163705565Y-80782247D02*
X163800803Y-80734628D01*
X163800803Y-80734628D02*
X163991279Y-80687009D01*
X163991279Y-80687009D02*
X164086517Y-80639390D01*
X164086517Y-80639390D02*
X164134136Y-80591771D01*
X164134136Y-80591771D02*
X164181755Y-80496533D01*
X164181755Y-80496533D02*
X164181755Y-80401295D01*
X164181755Y-80401295D02*
X164134136Y-80306057D01*
X164134136Y-80306057D02*
X164086517Y-80258438D01*
X164086517Y-80258438D02*
X163991279Y-80210819D01*
X163991279Y-80210819D02*
X163753184Y-80210819D01*
X163753184Y-80210819D02*
X163610327Y-80258438D01*
X163276993Y-80210819D02*
X163038898Y-81210819D01*
X163038898Y-81210819D02*
X162848422Y-80496533D01*
X162848422Y-80496533D02*
X162657946Y-81210819D01*
X162657946Y-81210819D02*
X162419851Y-80210819D01*
X161515089Y-81210819D02*
X162086517Y-81210819D01*
X161800803Y-81210819D02*
X161800803Y-80210819D01*
X161800803Y-80210819D02*
X161896041Y-80353676D01*
X161896041Y-80353676D02*
X161991279Y-80448914D01*
X161991279Y-80448914D02*
X162086517Y-80496533D01*
X160610327Y-80210819D02*
X161086517Y-80210819D01*
X161086517Y-80210819D02*
X161134136Y-80687009D01*
X161134136Y-80687009D02*
X161086517Y-80639390D01*
X161086517Y-80639390D02*
X160991279Y-80591771D01*
X160991279Y-80591771D02*
X160753184Y-80591771D01*
X160753184Y-80591771D02*
X160657946Y-80639390D01*
X160657946Y-80639390D02*
X160610327Y-80687009D01*
X160610327Y-80687009D02*
X160562708Y-80782247D01*
X160562708Y-80782247D02*
X160562708Y-81020342D01*
X160562708Y-81020342D02*
X160610327Y-81115580D01*
X160610327Y-81115580D02*
X160657946Y-81163200D01*
X160657946Y-81163200D02*
X160753184Y-81210819D01*
X160753184Y-81210819D02*
X160991279Y-81210819D01*
X160991279Y-81210819D02*
X161086517Y-81163200D01*
X161086517Y-81163200D02*
X161134136Y-81115580D01*
X164181755Y-100663200D02*
X164038898Y-100710819D01*
X164038898Y-100710819D02*
X163800803Y-100710819D01*
X163800803Y-100710819D02*
X163705565Y-100663200D01*
X163705565Y-100663200D02*
X163657946Y-100615580D01*
X163657946Y-100615580D02*
X163610327Y-100520342D01*
X163610327Y-100520342D02*
X163610327Y-100425104D01*
X163610327Y-100425104D02*
X163657946Y-100329866D01*
X163657946Y-100329866D02*
X163705565Y-100282247D01*
X163705565Y-100282247D02*
X163800803Y-100234628D01*
X163800803Y-100234628D02*
X163991279Y-100187009D01*
X163991279Y-100187009D02*
X164086517Y-100139390D01*
X164086517Y-100139390D02*
X164134136Y-100091771D01*
X164134136Y-100091771D02*
X164181755Y-99996533D01*
X164181755Y-99996533D02*
X164181755Y-99901295D01*
X164181755Y-99901295D02*
X164134136Y-99806057D01*
X164134136Y-99806057D02*
X164086517Y-99758438D01*
X164086517Y-99758438D02*
X163991279Y-99710819D01*
X163991279Y-99710819D02*
X163753184Y-99710819D01*
X163753184Y-99710819D02*
X163610327Y-99758438D01*
X163276993Y-99710819D02*
X163038898Y-100710819D01*
X163038898Y-100710819D02*
X162848422Y-99996533D01*
X162848422Y-99996533D02*
X162657946Y-100710819D01*
X162657946Y-100710819D02*
X162419851Y-99710819D01*
X161515089Y-100710819D02*
X162086517Y-100710819D01*
X161800803Y-100710819D02*
X161800803Y-99710819D01*
X161800803Y-99710819D02*
X161896041Y-99853676D01*
X161896041Y-99853676D02*
X161991279Y-99948914D01*
X161991279Y-99948914D02*
X162086517Y-99996533D01*
X160657946Y-99710819D02*
X160848422Y-99710819D01*
X160848422Y-99710819D02*
X160943660Y-99758438D01*
X160943660Y-99758438D02*
X160991279Y-99806057D01*
X160991279Y-99806057D02*
X161086517Y-99948914D01*
X161086517Y-99948914D02*
X161134136Y-100139390D01*
X161134136Y-100139390D02*
X161134136Y-100520342D01*
X161134136Y-100520342D02*
X161086517Y-100615580D01*
X161086517Y-100615580D02*
X161038898Y-100663200D01*
X161038898Y-100663200D02*
X160943660Y-100710819D01*
X160943660Y-100710819D02*
X160753184Y-100710819D01*
X160753184Y-100710819D02*
X160657946Y-100663200D01*
X160657946Y-100663200D02*
X160610327Y-100615580D01*
X160610327Y-100615580D02*
X160562708Y-100520342D01*
X160562708Y-100520342D02*
X160562708Y-100282247D01*
X160562708Y-100282247D02*
X160610327Y-100187009D01*
X160610327Y-100187009D02*
X160657946Y-100139390D01*
X160657946Y-100139390D02*
X160753184Y-100091771D01*
X160753184Y-100091771D02*
X160943660Y-100091771D01*
X160943660Y-100091771D02*
X161038898Y-100139390D01*
X161038898Y-100139390D02*
X161086517Y-100187009D01*
X161086517Y-100187009D02*
X161134136Y-100282247D01*
X144964755Y-45620200D02*
X144821898Y-45667819D01*
X144821898Y-45667819D02*
X144583803Y-45667819D01*
X144583803Y-45667819D02*
X144488565Y-45620200D01*
X144488565Y-45620200D02*
X144440946Y-45572580D01*
X144440946Y-45572580D02*
X144393327Y-45477342D01*
X144393327Y-45477342D02*
X144393327Y-45382104D01*
X144393327Y-45382104D02*
X144440946Y-45286866D01*
X144440946Y-45286866D02*
X144488565Y-45239247D01*
X144488565Y-45239247D02*
X144583803Y-45191628D01*
X144583803Y-45191628D02*
X144774279Y-45144009D01*
X144774279Y-45144009D02*
X144869517Y-45096390D01*
X144869517Y-45096390D02*
X144917136Y-45048771D01*
X144917136Y-45048771D02*
X144964755Y-44953533D01*
X144964755Y-44953533D02*
X144964755Y-44858295D01*
X144964755Y-44858295D02*
X144917136Y-44763057D01*
X144917136Y-44763057D02*
X144869517Y-44715438D01*
X144869517Y-44715438D02*
X144774279Y-44667819D01*
X144774279Y-44667819D02*
X144536184Y-44667819D01*
X144536184Y-44667819D02*
X144393327Y-44715438D01*
X144059993Y-44667819D02*
X143821898Y-45667819D01*
X143821898Y-45667819D02*
X143631422Y-44953533D01*
X143631422Y-44953533D02*
X143440946Y-45667819D01*
X143440946Y-45667819D02*
X143202851Y-44667819D01*
X142298089Y-45667819D02*
X142869517Y-45667819D01*
X142583803Y-45667819D02*
X142583803Y-44667819D01*
X142583803Y-44667819D02*
X142679041Y-44810676D01*
X142679041Y-44810676D02*
X142774279Y-44905914D01*
X142774279Y-44905914D02*
X142869517Y-44953533D01*
X141964755Y-44667819D02*
X141298089Y-44667819D01*
X141298089Y-44667819D02*
X141726660Y-45667819D01*
X144964755Y-64670200D02*
X144821898Y-64717819D01*
X144821898Y-64717819D02*
X144583803Y-64717819D01*
X144583803Y-64717819D02*
X144488565Y-64670200D01*
X144488565Y-64670200D02*
X144440946Y-64622580D01*
X144440946Y-64622580D02*
X144393327Y-64527342D01*
X144393327Y-64527342D02*
X144393327Y-64432104D01*
X144393327Y-64432104D02*
X144440946Y-64336866D01*
X144440946Y-64336866D02*
X144488565Y-64289247D01*
X144488565Y-64289247D02*
X144583803Y-64241628D01*
X144583803Y-64241628D02*
X144774279Y-64194009D01*
X144774279Y-64194009D02*
X144869517Y-64146390D01*
X144869517Y-64146390D02*
X144917136Y-64098771D01*
X144917136Y-64098771D02*
X144964755Y-64003533D01*
X144964755Y-64003533D02*
X144964755Y-63908295D01*
X144964755Y-63908295D02*
X144917136Y-63813057D01*
X144917136Y-63813057D02*
X144869517Y-63765438D01*
X144869517Y-63765438D02*
X144774279Y-63717819D01*
X144774279Y-63717819D02*
X144536184Y-63717819D01*
X144536184Y-63717819D02*
X144393327Y-63765438D01*
X144059993Y-63717819D02*
X143821898Y-64717819D01*
X143821898Y-64717819D02*
X143631422Y-64003533D01*
X143631422Y-64003533D02*
X143440946Y-64717819D01*
X143440946Y-64717819D02*
X143202851Y-63717819D01*
X142298089Y-64717819D02*
X142869517Y-64717819D01*
X142583803Y-64717819D02*
X142583803Y-63717819D01*
X142583803Y-63717819D02*
X142679041Y-63860676D01*
X142679041Y-63860676D02*
X142774279Y-63955914D01*
X142774279Y-63955914D02*
X142869517Y-64003533D01*
X141726660Y-64146390D02*
X141821898Y-64098771D01*
X141821898Y-64098771D02*
X141869517Y-64051152D01*
X141869517Y-64051152D02*
X141917136Y-63955914D01*
X141917136Y-63955914D02*
X141917136Y-63908295D01*
X141917136Y-63908295D02*
X141869517Y-63813057D01*
X141869517Y-63813057D02*
X141821898Y-63765438D01*
X141821898Y-63765438D02*
X141726660Y-63717819D01*
X141726660Y-63717819D02*
X141536184Y-63717819D01*
X141536184Y-63717819D02*
X141440946Y-63765438D01*
X141440946Y-63765438D02*
X141393327Y-63813057D01*
X141393327Y-63813057D02*
X141345708Y-63908295D01*
X141345708Y-63908295D02*
X141345708Y-63955914D01*
X141345708Y-63955914D02*
X141393327Y-64051152D01*
X141393327Y-64051152D02*
X141440946Y-64098771D01*
X141440946Y-64098771D02*
X141536184Y-64146390D01*
X141536184Y-64146390D02*
X141726660Y-64146390D01*
X141726660Y-64146390D02*
X141821898Y-64194009D01*
X141821898Y-64194009D02*
X141869517Y-64241628D01*
X141869517Y-64241628D02*
X141917136Y-64336866D01*
X141917136Y-64336866D02*
X141917136Y-64527342D01*
X141917136Y-64527342D02*
X141869517Y-64622580D01*
X141869517Y-64622580D02*
X141821898Y-64670200D01*
X141821898Y-64670200D02*
X141726660Y-64717819D01*
X141726660Y-64717819D02*
X141536184Y-64717819D01*
X141536184Y-64717819D02*
X141440946Y-64670200D01*
X141440946Y-64670200D02*
X141393327Y-64622580D01*
X141393327Y-64622580D02*
X141345708Y-64527342D01*
X141345708Y-64527342D02*
X141345708Y-64336866D01*
X141345708Y-64336866D02*
X141393327Y-64241628D01*
X141393327Y-64241628D02*
X141440946Y-64194009D01*
X141440946Y-64194009D02*
X141536184Y-64146390D01*
X144964755Y-83720200D02*
X144821898Y-83767819D01*
X144821898Y-83767819D02*
X144583803Y-83767819D01*
X144583803Y-83767819D02*
X144488565Y-83720200D01*
X144488565Y-83720200D02*
X144440946Y-83672580D01*
X144440946Y-83672580D02*
X144393327Y-83577342D01*
X144393327Y-83577342D02*
X144393327Y-83482104D01*
X144393327Y-83482104D02*
X144440946Y-83386866D01*
X144440946Y-83386866D02*
X144488565Y-83339247D01*
X144488565Y-83339247D02*
X144583803Y-83291628D01*
X144583803Y-83291628D02*
X144774279Y-83244009D01*
X144774279Y-83244009D02*
X144869517Y-83196390D01*
X144869517Y-83196390D02*
X144917136Y-83148771D01*
X144917136Y-83148771D02*
X144964755Y-83053533D01*
X144964755Y-83053533D02*
X144964755Y-82958295D01*
X144964755Y-82958295D02*
X144917136Y-82863057D01*
X144917136Y-82863057D02*
X144869517Y-82815438D01*
X144869517Y-82815438D02*
X144774279Y-82767819D01*
X144774279Y-82767819D02*
X144536184Y-82767819D01*
X144536184Y-82767819D02*
X144393327Y-82815438D01*
X144059993Y-82767819D02*
X143821898Y-83767819D01*
X143821898Y-83767819D02*
X143631422Y-83053533D01*
X143631422Y-83053533D02*
X143440946Y-83767819D01*
X143440946Y-83767819D02*
X143202851Y-82767819D01*
X142298089Y-83767819D02*
X142869517Y-83767819D01*
X142583803Y-83767819D02*
X142583803Y-82767819D01*
X142583803Y-82767819D02*
X142679041Y-82910676D01*
X142679041Y-82910676D02*
X142774279Y-83005914D01*
X142774279Y-83005914D02*
X142869517Y-83053533D01*
X141821898Y-83767819D02*
X141631422Y-83767819D01*
X141631422Y-83767819D02*
X141536184Y-83720200D01*
X141536184Y-83720200D02*
X141488565Y-83672580D01*
X141488565Y-83672580D02*
X141393327Y-83529723D01*
X141393327Y-83529723D02*
X141345708Y-83339247D01*
X141345708Y-83339247D02*
X141345708Y-82958295D01*
X141345708Y-82958295D02*
X141393327Y-82863057D01*
X141393327Y-82863057D02*
X141440946Y-82815438D01*
X141440946Y-82815438D02*
X141536184Y-82767819D01*
X141536184Y-82767819D02*
X141726660Y-82767819D01*
X141726660Y-82767819D02*
X141821898Y-82815438D01*
X141821898Y-82815438D02*
X141869517Y-82863057D01*
X141869517Y-82863057D02*
X141917136Y-82958295D01*
X141917136Y-82958295D02*
X141917136Y-83196390D01*
X141917136Y-83196390D02*
X141869517Y-83291628D01*
X141869517Y-83291628D02*
X141821898Y-83339247D01*
X141821898Y-83339247D02*
X141726660Y-83386866D01*
X141726660Y-83386866D02*
X141536184Y-83386866D01*
X141536184Y-83386866D02*
X141440946Y-83339247D01*
X141440946Y-83339247D02*
X141393327Y-83291628D01*
X141393327Y-83291628D02*
X141345708Y-83196390D01*
X144964755Y-102770200D02*
X144821898Y-102817819D01*
X144821898Y-102817819D02*
X144583803Y-102817819D01*
X144583803Y-102817819D02*
X144488565Y-102770200D01*
X144488565Y-102770200D02*
X144440946Y-102722580D01*
X144440946Y-102722580D02*
X144393327Y-102627342D01*
X144393327Y-102627342D02*
X144393327Y-102532104D01*
X144393327Y-102532104D02*
X144440946Y-102436866D01*
X144440946Y-102436866D02*
X144488565Y-102389247D01*
X144488565Y-102389247D02*
X144583803Y-102341628D01*
X144583803Y-102341628D02*
X144774279Y-102294009D01*
X144774279Y-102294009D02*
X144869517Y-102246390D01*
X144869517Y-102246390D02*
X144917136Y-102198771D01*
X144917136Y-102198771D02*
X144964755Y-102103533D01*
X144964755Y-102103533D02*
X144964755Y-102008295D01*
X144964755Y-102008295D02*
X144917136Y-101913057D01*
X144917136Y-101913057D02*
X144869517Y-101865438D01*
X144869517Y-101865438D02*
X144774279Y-101817819D01*
X144774279Y-101817819D02*
X144536184Y-101817819D01*
X144536184Y-101817819D02*
X144393327Y-101865438D01*
X144059993Y-101817819D02*
X143821898Y-102817819D01*
X143821898Y-102817819D02*
X143631422Y-102103533D01*
X143631422Y-102103533D02*
X143440946Y-102817819D01*
X143440946Y-102817819D02*
X143202851Y-101817819D01*
X142869517Y-101913057D02*
X142821898Y-101865438D01*
X142821898Y-101865438D02*
X142726660Y-101817819D01*
X142726660Y-101817819D02*
X142488565Y-101817819D01*
X142488565Y-101817819D02*
X142393327Y-101865438D01*
X142393327Y-101865438D02*
X142345708Y-101913057D01*
X142345708Y-101913057D02*
X142298089Y-102008295D01*
X142298089Y-102008295D02*
X142298089Y-102103533D01*
X142298089Y-102103533D02*
X142345708Y-102246390D01*
X142345708Y-102246390D02*
X142917136Y-102817819D01*
X142917136Y-102817819D02*
X142298089Y-102817819D01*
X141679041Y-101817819D02*
X141583803Y-101817819D01*
X141583803Y-101817819D02*
X141488565Y-101865438D01*
X141488565Y-101865438D02*
X141440946Y-101913057D01*
X141440946Y-101913057D02*
X141393327Y-102008295D01*
X141393327Y-102008295D02*
X141345708Y-102198771D01*
X141345708Y-102198771D02*
X141345708Y-102436866D01*
X141345708Y-102436866D02*
X141393327Y-102627342D01*
X141393327Y-102627342D02*
X141440946Y-102722580D01*
X141440946Y-102722580D02*
X141488565Y-102770200D01*
X141488565Y-102770200D02*
X141583803Y-102817819D01*
X141583803Y-102817819D02*
X141679041Y-102817819D01*
X141679041Y-102817819D02*
X141774279Y-102770200D01*
X141774279Y-102770200D02*
X141821898Y-102722580D01*
X141821898Y-102722580D02*
X141869517Y-102627342D01*
X141869517Y-102627342D02*
X141917136Y-102436866D01*
X141917136Y-102436866D02*
X141917136Y-102198771D01*
X141917136Y-102198771D02*
X141869517Y-102008295D01*
X141869517Y-102008295D02*
X141821898Y-101913057D01*
X141821898Y-101913057D02*
X141774279Y-101865438D01*
X141774279Y-101865438D02*
X141679041Y-101817819D01*
X125914755Y-48001450D02*
X125771898Y-48049069D01*
X125771898Y-48049069D02*
X125533803Y-48049069D01*
X125533803Y-48049069D02*
X125438565Y-48001450D01*
X125438565Y-48001450D02*
X125390946Y-47953830D01*
X125390946Y-47953830D02*
X125343327Y-47858592D01*
X125343327Y-47858592D02*
X125343327Y-47763354D01*
X125343327Y-47763354D02*
X125390946Y-47668116D01*
X125390946Y-47668116D02*
X125438565Y-47620497D01*
X125438565Y-47620497D02*
X125533803Y-47572878D01*
X125533803Y-47572878D02*
X125724279Y-47525259D01*
X125724279Y-47525259D02*
X125819517Y-47477640D01*
X125819517Y-47477640D02*
X125867136Y-47430021D01*
X125867136Y-47430021D02*
X125914755Y-47334783D01*
X125914755Y-47334783D02*
X125914755Y-47239545D01*
X125914755Y-47239545D02*
X125867136Y-47144307D01*
X125867136Y-47144307D02*
X125819517Y-47096688D01*
X125819517Y-47096688D02*
X125724279Y-47049069D01*
X125724279Y-47049069D02*
X125486184Y-47049069D01*
X125486184Y-47049069D02*
X125343327Y-47096688D01*
X125009993Y-47049069D02*
X124771898Y-48049069D01*
X124771898Y-48049069D02*
X124581422Y-47334783D01*
X124581422Y-47334783D02*
X124390946Y-48049069D01*
X124390946Y-48049069D02*
X124152851Y-47049069D01*
X123819517Y-47144307D02*
X123771898Y-47096688D01*
X123771898Y-47096688D02*
X123676660Y-47049069D01*
X123676660Y-47049069D02*
X123438565Y-47049069D01*
X123438565Y-47049069D02*
X123343327Y-47096688D01*
X123343327Y-47096688D02*
X123295708Y-47144307D01*
X123295708Y-47144307D02*
X123248089Y-47239545D01*
X123248089Y-47239545D02*
X123248089Y-47334783D01*
X123248089Y-47334783D02*
X123295708Y-47477640D01*
X123295708Y-47477640D02*
X123867136Y-48049069D01*
X123867136Y-48049069D02*
X123248089Y-48049069D01*
X122295708Y-48049069D02*
X122867136Y-48049069D01*
X122581422Y-48049069D02*
X122581422Y-47049069D01*
X122581422Y-47049069D02*
X122676660Y-47191926D01*
X122676660Y-47191926D02*
X122771898Y-47287164D01*
X122771898Y-47287164D02*
X122867136Y-47334783D01*
X125914755Y-67051450D02*
X125771898Y-67099069D01*
X125771898Y-67099069D02*
X125533803Y-67099069D01*
X125533803Y-67099069D02*
X125438565Y-67051450D01*
X125438565Y-67051450D02*
X125390946Y-67003830D01*
X125390946Y-67003830D02*
X125343327Y-66908592D01*
X125343327Y-66908592D02*
X125343327Y-66813354D01*
X125343327Y-66813354D02*
X125390946Y-66718116D01*
X125390946Y-66718116D02*
X125438565Y-66670497D01*
X125438565Y-66670497D02*
X125533803Y-66622878D01*
X125533803Y-66622878D02*
X125724279Y-66575259D01*
X125724279Y-66575259D02*
X125819517Y-66527640D01*
X125819517Y-66527640D02*
X125867136Y-66480021D01*
X125867136Y-66480021D02*
X125914755Y-66384783D01*
X125914755Y-66384783D02*
X125914755Y-66289545D01*
X125914755Y-66289545D02*
X125867136Y-66194307D01*
X125867136Y-66194307D02*
X125819517Y-66146688D01*
X125819517Y-66146688D02*
X125724279Y-66099069D01*
X125724279Y-66099069D02*
X125486184Y-66099069D01*
X125486184Y-66099069D02*
X125343327Y-66146688D01*
X125009993Y-66099069D02*
X124771898Y-67099069D01*
X124771898Y-67099069D02*
X124581422Y-66384783D01*
X124581422Y-66384783D02*
X124390946Y-67099069D01*
X124390946Y-67099069D02*
X124152851Y-66099069D01*
X123819517Y-66194307D02*
X123771898Y-66146688D01*
X123771898Y-66146688D02*
X123676660Y-66099069D01*
X123676660Y-66099069D02*
X123438565Y-66099069D01*
X123438565Y-66099069D02*
X123343327Y-66146688D01*
X123343327Y-66146688D02*
X123295708Y-66194307D01*
X123295708Y-66194307D02*
X123248089Y-66289545D01*
X123248089Y-66289545D02*
X123248089Y-66384783D01*
X123248089Y-66384783D02*
X123295708Y-66527640D01*
X123295708Y-66527640D02*
X123867136Y-67099069D01*
X123867136Y-67099069D02*
X123248089Y-67099069D01*
X122867136Y-66194307D02*
X122819517Y-66146688D01*
X122819517Y-66146688D02*
X122724279Y-66099069D01*
X122724279Y-66099069D02*
X122486184Y-66099069D01*
X122486184Y-66099069D02*
X122390946Y-66146688D01*
X122390946Y-66146688D02*
X122343327Y-66194307D01*
X122343327Y-66194307D02*
X122295708Y-66289545D01*
X122295708Y-66289545D02*
X122295708Y-66384783D01*
X122295708Y-66384783D02*
X122343327Y-66527640D01*
X122343327Y-66527640D02*
X122914755Y-67099069D01*
X122914755Y-67099069D02*
X122295708Y-67099069D01*
X125914755Y-86101450D02*
X125771898Y-86149069D01*
X125771898Y-86149069D02*
X125533803Y-86149069D01*
X125533803Y-86149069D02*
X125438565Y-86101450D01*
X125438565Y-86101450D02*
X125390946Y-86053830D01*
X125390946Y-86053830D02*
X125343327Y-85958592D01*
X125343327Y-85958592D02*
X125343327Y-85863354D01*
X125343327Y-85863354D02*
X125390946Y-85768116D01*
X125390946Y-85768116D02*
X125438565Y-85720497D01*
X125438565Y-85720497D02*
X125533803Y-85672878D01*
X125533803Y-85672878D02*
X125724279Y-85625259D01*
X125724279Y-85625259D02*
X125819517Y-85577640D01*
X125819517Y-85577640D02*
X125867136Y-85530021D01*
X125867136Y-85530021D02*
X125914755Y-85434783D01*
X125914755Y-85434783D02*
X125914755Y-85339545D01*
X125914755Y-85339545D02*
X125867136Y-85244307D01*
X125867136Y-85244307D02*
X125819517Y-85196688D01*
X125819517Y-85196688D02*
X125724279Y-85149069D01*
X125724279Y-85149069D02*
X125486184Y-85149069D01*
X125486184Y-85149069D02*
X125343327Y-85196688D01*
X125009993Y-85149069D02*
X124771898Y-86149069D01*
X124771898Y-86149069D02*
X124581422Y-85434783D01*
X124581422Y-85434783D02*
X124390946Y-86149069D01*
X124390946Y-86149069D02*
X124152851Y-85149069D01*
X123819517Y-85244307D02*
X123771898Y-85196688D01*
X123771898Y-85196688D02*
X123676660Y-85149069D01*
X123676660Y-85149069D02*
X123438565Y-85149069D01*
X123438565Y-85149069D02*
X123343327Y-85196688D01*
X123343327Y-85196688D02*
X123295708Y-85244307D01*
X123295708Y-85244307D02*
X123248089Y-85339545D01*
X123248089Y-85339545D02*
X123248089Y-85434783D01*
X123248089Y-85434783D02*
X123295708Y-85577640D01*
X123295708Y-85577640D02*
X123867136Y-86149069D01*
X123867136Y-86149069D02*
X123248089Y-86149069D01*
X122914755Y-85149069D02*
X122295708Y-85149069D01*
X122295708Y-85149069D02*
X122629041Y-85530021D01*
X122629041Y-85530021D02*
X122486184Y-85530021D01*
X122486184Y-85530021D02*
X122390946Y-85577640D01*
X122390946Y-85577640D02*
X122343327Y-85625259D01*
X122343327Y-85625259D02*
X122295708Y-85720497D01*
X122295708Y-85720497D02*
X122295708Y-85958592D01*
X122295708Y-85958592D02*
X122343327Y-86053830D01*
X122343327Y-86053830D02*
X122390946Y-86101450D01*
X122390946Y-86101450D02*
X122486184Y-86149069D01*
X122486184Y-86149069D02*
X122771898Y-86149069D01*
X122771898Y-86149069D02*
X122867136Y-86101450D01*
X122867136Y-86101450D02*
X122914755Y-86053830D01*
X125914755Y-105151450D02*
X125771898Y-105199069D01*
X125771898Y-105199069D02*
X125533803Y-105199069D01*
X125533803Y-105199069D02*
X125438565Y-105151450D01*
X125438565Y-105151450D02*
X125390946Y-105103830D01*
X125390946Y-105103830D02*
X125343327Y-105008592D01*
X125343327Y-105008592D02*
X125343327Y-104913354D01*
X125343327Y-104913354D02*
X125390946Y-104818116D01*
X125390946Y-104818116D02*
X125438565Y-104770497D01*
X125438565Y-104770497D02*
X125533803Y-104722878D01*
X125533803Y-104722878D02*
X125724279Y-104675259D01*
X125724279Y-104675259D02*
X125819517Y-104627640D01*
X125819517Y-104627640D02*
X125867136Y-104580021D01*
X125867136Y-104580021D02*
X125914755Y-104484783D01*
X125914755Y-104484783D02*
X125914755Y-104389545D01*
X125914755Y-104389545D02*
X125867136Y-104294307D01*
X125867136Y-104294307D02*
X125819517Y-104246688D01*
X125819517Y-104246688D02*
X125724279Y-104199069D01*
X125724279Y-104199069D02*
X125486184Y-104199069D01*
X125486184Y-104199069D02*
X125343327Y-104246688D01*
X125009993Y-104199069D02*
X124771898Y-105199069D01*
X124771898Y-105199069D02*
X124581422Y-104484783D01*
X124581422Y-104484783D02*
X124390946Y-105199069D01*
X124390946Y-105199069D02*
X124152851Y-104199069D01*
X123819517Y-104294307D02*
X123771898Y-104246688D01*
X123771898Y-104246688D02*
X123676660Y-104199069D01*
X123676660Y-104199069D02*
X123438565Y-104199069D01*
X123438565Y-104199069D02*
X123343327Y-104246688D01*
X123343327Y-104246688D02*
X123295708Y-104294307D01*
X123295708Y-104294307D02*
X123248089Y-104389545D01*
X123248089Y-104389545D02*
X123248089Y-104484783D01*
X123248089Y-104484783D02*
X123295708Y-104627640D01*
X123295708Y-104627640D02*
X123867136Y-105199069D01*
X123867136Y-105199069D02*
X123248089Y-105199069D01*
X122390946Y-104532402D02*
X122390946Y-105199069D01*
X122629041Y-104151450D02*
X122867136Y-104865735D01*
X122867136Y-104865735D02*
X122248089Y-104865735D01*
X106864755Y-57526450D02*
X106721898Y-57574069D01*
X106721898Y-57574069D02*
X106483803Y-57574069D01*
X106483803Y-57574069D02*
X106388565Y-57526450D01*
X106388565Y-57526450D02*
X106340946Y-57478830D01*
X106340946Y-57478830D02*
X106293327Y-57383592D01*
X106293327Y-57383592D02*
X106293327Y-57288354D01*
X106293327Y-57288354D02*
X106340946Y-57193116D01*
X106340946Y-57193116D02*
X106388565Y-57145497D01*
X106388565Y-57145497D02*
X106483803Y-57097878D01*
X106483803Y-57097878D02*
X106674279Y-57050259D01*
X106674279Y-57050259D02*
X106769517Y-57002640D01*
X106769517Y-57002640D02*
X106817136Y-56955021D01*
X106817136Y-56955021D02*
X106864755Y-56859783D01*
X106864755Y-56859783D02*
X106864755Y-56764545D01*
X106864755Y-56764545D02*
X106817136Y-56669307D01*
X106817136Y-56669307D02*
X106769517Y-56621688D01*
X106769517Y-56621688D02*
X106674279Y-56574069D01*
X106674279Y-56574069D02*
X106436184Y-56574069D01*
X106436184Y-56574069D02*
X106293327Y-56621688D01*
X105959993Y-56574069D02*
X105721898Y-57574069D01*
X105721898Y-57574069D02*
X105531422Y-56859783D01*
X105531422Y-56859783D02*
X105340946Y-57574069D01*
X105340946Y-57574069D02*
X105102851Y-56574069D01*
X104769517Y-56669307D02*
X104721898Y-56621688D01*
X104721898Y-56621688D02*
X104626660Y-56574069D01*
X104626660Y-56574069D02*
X104388565Y-56574069D01*
X104388565Y-56574069D02*
X104293327Y-56621688D01*
X104293327Y-56621688D02*
X104245708Y-56669307D01*
X104245708Y-56669307D02*
X104198089Y-56764545D01*
X104198089Y-56764545D02*
X104198089Y-56859783D01*
X104198089Y-56859783D02*
X104245708Y-57002640D01*
X104245708Y-57002640D02*
X104817136Y-57574069D01*
X104817136Y-57574069D02*
X104198089Y-57574069D01*
X103293327Y-56574069D02*
X103769517Y-56574069D01*
X103769517Y-56574069D02*
X103817136Y-57050259D01*
X103817136Y-57050259D02*
X103769517Y-57002640D01*
X103769517Y-57002640D02*
X103674279Y-56955021D01*
X103674279Y-56955021D02*
X103436184Y-56955021D01*
X103436184Y-56955021D02*
X103340946Y-57002640D01*
X103340946Y-57002640D02*
X103293327Y-57050259D01*
X103293327Y-57050259D02*
X103245708Y-57145497D01*
X103245708Y-57145497D02*
X103245708Y-57383592D01*
X103245708Y-57383592D02*
X103293327Y-57478830D01*
X103293327Y-57478830D02*
X103340946Y-57526450D01*
X103340946Y-57526450D02*
X103436184Y-57574069D01*
X103436184Y-57574069D02*
X103674279Y-57574069D01*
X103674279Y-57574069D02*
X103769517Y-57526450D01*
X103769517Y-57526450D02*
X103817136Y-57478830D01*
X106864755Y-76576450D02*
X106721898Y-76624069D01*
X106721898Y-76624069D02*
X106483803Y-76624069D01*
X106483803Y-76624069D02*
X106388565Y-76576450D01*
X106388565Y-76576450D02*
X106340946Y-76528830D01*
X106340946Y-76528830D02*
X106293327Y-76433592D01*
X106293327Y-76433592D02*
X106293327Y-76338354D01*
X106293327Y-76338354D02*
X106340946Y-76243116D01*
X106340946Y-76243116D02*
X106388565Y-76195497D01*
X106388565Y-76195497D02*
X106483803Y-76147878D01*
X106483803Y-76147878D02*
X106674279Y-76100259D01*
X106674279Y-76100259D02*
X106769517Y-76052640D01*
X106769517Y-76052640D02*
X106817136Y-76005021D01*
X106817136Y-76005021D02*
X106864755Y-75909783D01*
X106864755Y-75909783D02*
X106864755Y-75814545D01*
X106864755Y-75814545D02*
X106817136Y-75719307D01*
X106817136Y-75719307D02*
X106769517Y-75671688D01*
X106769517Y-75671688D02*
X106674279Y-75624069D01*
X106674279Y-75624069D02*
X106436184Y-75624069D01*
X106436184Y-75624069D02*
X106293327Y-75671688D01*
X105959993Y-75624069D02*
X105721898Y-76624069D01*
X105721898Y-76624069D02*
X105531422Y-75909783D01*
X105531422Y-75909783D02*
X105340946Y-76624069D01*
X105340946Y-76624069D02*
X105102851Y-75624069D01*
X104769517Y-75719307D02*
X104721898Y-75671688D01*
X104721898Y-75671688D02*
X104626660Y-75624069D01*
X104626660Y-75624069D02*
X104388565Y-75624069D01*
X104388565Y-75624069D02*
X104293327Y-75671688D01*
X104293327Y-75671688D02*
X104245708Y-75719307D01*
X104245708Y-75719307D02*
X104198089Y-75814545D01*
X104198089Y-75814545D02*
X104198089Y-75909783D01*
X104198089Y-75909783D02*
X104245708Y-76052640D01*
X104245708Y-76052640D02*
X104817136Y-76624069D01*
X104817136Y-76624069D02*
X104198089Y-76624069D01*
X103340946Y-75624069D02*
X103531422Y-75624069D01*
X103531422Y-75624069D02*
X103626660Y-75671688D01*
X103626660Y-75671688D02*
X103674279Y-75719307D01*
X103674279Y-75719307D02*
X103769517Y-75862164D01*
X103769517Y-75862164D02*
X103817136Y-76052640D01*
X103817136Y-76052640D02*
X103817136Y-76433592D01*
X103817136Y-76433592D02*
X103769517Y-76528830D01*
X103769517Y-76528830D02*
X103721898Y-76576450D01*
X103721898Y-76576450D02*
X103626660Y-76624069D01*
X103626660Y-76624069D02*
X103436184Y-76624069D01*
X103436184Y-76624069D02*
X103340946Y-76576450D01*
X103340946Y-76576450D02*
X103293327Y-76528830D01*
X103293327Y-76528830D02*
X103245708Y-76433592D01*
X103245708Y-76433592D02*
X103245708Y-76195497D01*
X103245708Y-76195497D02*
X103293327Y-76100259D01*
X103293327Y-76100259D02*
X103340946Y-76052640D01*
X103340946Y-76052640D02*
X103436184Y-76005021D01*
X103436184Y-76005021D02*
X103626660Y-76005021D01*
X103626660Y-76005021D02*
X103721898Y-76052640D01*
X103721898Y-76052640D02*
X103769517Y-76100259D01*
X103769517Y-76100259D02*
X103817136Y-76195497D01*
X106864755Y-95626450D02*
X106721898Y-95674069D01*
X106721898Y-95674069D02*
X106483803Y-95674069D01*
X106483803Y-95674069D02*
X106388565Y-95626450D01*
X106388565Y-95626450D02*
X106340946Y-95578830D01*
X106340946Y-95578830D02*
X106293327Y-95483592D01*
X106293327Y-95483592D02*
X106293327Y-95388354D01*
X106293327Y-95388354D02*
X106340946Y-95293116D01*
X106340946Y-95293116D02*
X106388565Y-95245497D01*
X106388565Y-95245497D02*
X106483803Y-95197878D01*
X106483803Y-95197878D02*
X106674279Y-95150259D01*
X106674279Y-95150259D02*
X106769517Y-95102640D01*
X106769517Y-95102640D02*
X106817136Y-95055021D01*
X106817136Y-95055021D02*
X106864755Y-94959783D01*
X106864755Y-94959783D02*
X106864755Y-94864545D01*
X106864755Y-94864545D02*
X106817136Y-94769307D01*
X106817136Y-94769307D02*
X106769517Y-94721688D01*
X106769517Y-94721688D02*
X106674279Y-94674069D01*
X106674279Y-94674069D02*
X106436184Y-94674069D01*
X106436184Y-94674069D02*
X106293327Y-94721688D01*
X105959993Y-94674069D02*
X105721898Y-95674069D01*
X105721898Y-95674069D02*
X105531422Y-94959783D01*
X105531422Y-94959783D02*
X105340946Y-95674069D01*
X105340946Y-95674069D02*
X105102851Y-94674069D01*
X104769517Y-94769307D02*
X104721898Y-94721688D01*
X104721898Y-94721688D02*
X104626660Y-94674069D01*
X104626660Y-94674069D02*
X104388565Y-94674069D01*
X104388565Y-94674069D02*
X104293327Y-94721688D01*
X104293327Y-94721688D02*
X104245708Y-94769307D01*
X104245708Y-94769307D02*
X104198089Y-94864545D01*
X104198089Y-94864545D02*
X104198089Y-94959783D01*
X104198089Y-94959783D02*
X104245708Y-95102640D01*
X104245708Y-95102640D02*
X104817136Y-95674069D01*
X104817136Y-95674069D02*
X104198089Y-95674069D01*
X103864755Y-94674069D02*
X103198089Y-94674069D01*
X103198089Y-94674069D02*
X103626660Y-95674069D01*
X112424348Y-123526693D02*
X112311680Y-123426785D01*
X112311680Y-123426785D02*
X112192632Y-123220588D01*
X112192632Y-123220588D02*
X112186253Y-123114300D01*
X112186253Y-123114300D02*
X112203682Y-123049251D01*
X112203682Y-123049251D02*
X112262351Y-122960393D01*
X112262351Y-122960393D02*
X112344830Y-122912774D01*
X112344830Y-122912774D02*
X112451118Y-122906394D01*
X112451118Y-122906394D02*
X112516167Y-122923824D01*
X112516167Y-122923824D02*
X112605025Y-122982493D01*
X112605025Y-122982493D02*
X112741503Y-123123641D01*
X112741503Y-123123641D02*
X112830361Y-123182310D01*
X112830361Y-123182310D02*
X112895410Y-123199739D01*
X112895410Y-123199739D02*
X113001698Y-123193360D01*
X113001698Y-123193360D02*
X113084177Y-123145741D01*
X113084177Y-123145741D02*
X113142846Y-123056882D01*
X113142846Y-123056882D02*
X113160276Y-122991834D01*
X113160276Y-122991834D02*
X113153896Y-122885545D01*
X113153896Y-122885545D02*
X113034848Y-122679349D01*
X113034848Y-122679349D02*
X112922180Y-122579440D01*
X112796753Y-122266956D02*
X111811680Y-122560759D01*
X111811680Y-122560759D02*
X112335031Y-122038659D01*
X112335031Y-122038659D02*
X111621204Y-122230845D01*
X111621204Y-122230845D02*
X112368182Y-121524648D01*
X112119036Y-121283592D02*
X112136466Y-121218543D01*
X112136466Y-121218543D02*
X112130086Y-121112255D01*
X112130086Y-121112255D02*
X112011039Y-120906059D01*
X112011039Y-120906059D02*
X111922180Y-120847390D01*
X111922180Y-120847390D02*
X111857132Y-120829960D01*
X111857132Y-120829960D02*
X111750843Y-120836340D01*
X111750843Y-120836340D02*
X111668365Y-120883959D01*
X111668365Y-120883959D02*
X111568456Y-120996627D01*
X111568456Y-120996627D02*
X111359299Y-121777213D01*
X111359299Y-121777213D02*
X111049775Y-121241102D01*
X111258933Y-120460516D02*
X111347791Y-120519185D01*
X111347791Y-120519185D02*
X111412840Y-120536614D01*
X111412840Y-120536614D02*
X111519128Y-120530235D01*
X111519128Y-120530235D02*
X111560367Y-120506425D01*
X111560367Y-120506425D02*
X111619036Y-120417567D01*
X111619036Y-120417567D02*
X111636466Y-120352518D01*
X111636466Y-120352518D02*
X111630086Y-120246230D01*
X111630086Y-120246230D02*
X111534848Y-120081273D01*
X111534848Y-120081273D02*
X111445990Y-120022604D01*
X111445990Y-120022604D02*
X111380941Y-120005174D01*
X111380941Y-120005174D02*
X111274653Y-120011554D01*
X111274653Y-120011554D02*
X111233414Y-120035363D01*
X111233414Y-120035363D02*
X111174745Y-120124221D01*
X111174745Y-120124221D02*
X111157315Y-120189270D01*
X111157315Y-120189270D02*
X111163695Y-120295558D01*
X111163695Y-120295558D02*
X111258933Y-120460516D01*
X111258933Y-120460516D02*
X111265312Y-120566804D01*
X111265312Y-120566804D02*
X111247883Y-120631853D01*
X111247883Y-120631853D02*
X111189213Y-120720711D01*
X111189213Y-120720711D02*
X111024256Y-120815949D01*
X111024256Y-120815949D02*
X110917968Y-120822329D01*
X110917968Y-120822329D02*
X110852919Y-120804899D01*
X110852919Y-120804899D02*
X110764061Y-120746230D01*
X110764061Y-120746230D02*
X110668823Y-120581273D01*
X110668823Y-120581273D02*
X110662443Y-120474985D01*
X110662443Y-120474985D02*
X110679873Y-120409936D01*
X110679873Y-120409936D02*
X110738542Y-120321077D01*
X110738542Y-120321077D02*
X110903499Y-120225839D01*
X110903499Y-120225839D02*
X111009787Y-120219460D01*
X111009787Y-120219460D02*
X111074836Y-120236889D01*
X111074836Y-120236889D02*
X111163695Y-120295558D01*
X221164755Y-126582700D02*
X221021898Y-126630319D01*
X221021898Y-126630319D02*
X220783803Y-126630319D01*
X220783803Y-126630319D02*
X220688565Y-126582700D01*
X220688565Y-126582700D02*
X220640946Y-126535080D01*
X220640946Y-126535080D02*
X220593327Y-126439842D01*
X220593327Y-126439842D02*
X220593327Y-126344604D01*
X220593327Y-126344604D02*
X220640946Y-126249366D01*
X220640946Y-126249366D02*
X220688565Y-126201747D01*
X220688565Y-126201747D02*
X220783803Y-126154128D01*
X220783803Y-126154128D02*
X220974279Y-126106509D01*
X220974279Y-126106509D02*
X221069517Y-126058890D01*
X221069517Y-126058890D02*
X221117136Y-126011271D01*
X221117136Y-126011271D02*
X221164755Y-125916033D01*
X221164755Y-125916033D02*
X221164755Y-125820795D01*
X221164755Y-125820795D02*
X221117136Y-125725557D01*
X221117136Y-125725557D02*
X221069517Y-125677938D01*
X221069517Y-125677938D02*
X220974279Y-125630319D01*
X220974279Y-125630319D02*
X220736184Y-125630319D01*
X220736184Y-125630319D02*
X220593327Y-125677938D01*
X220259993Y-125630319D02*
X220021898Y-126630319D01*
X220021898Y-126630319D02*
X219831422Y-125916033D01*
X219831422Y-125916033D02*
X219640946Y-126630319D01*
X219640946Y-126630319D02*
X219402851Y-125630319D01*
X219117136Y-125630319D02*
X218498089Y-125630319D01*
X218498089Y-125630319D02*
X218831422Y-126011271D01*
X218831422Y-126011271D02*
X218688565Y-126011271D01*
X218688565Y-126011271D02*
X218593327Y-126058890D01*
X218593327Y-126058890D02*
X218545708Y-126106509D01*
X218545708Y-126106509D02*
X218498089Y-126201747D01*
X218498089Y-126201747D02*
X218498089Y-126439842D01*
X218498089Y-126439842D02*
X218545708Y-126535080D01*
X218545708Y-126535080D02*
X218593327Y-126582700D01*
X218593327Y-126582700D02*
X218688565Y-126630319D01*
X218688565Y-126630319D02*
X218974279Y-126630319D01*
X218974279Y-126630319D02*
X219069517Y-126582700D01*
X219069517Y-126582700D02*
X219117136Y-126535080D01*
X217879041Y-125630319D02*
X217783803Y-125630319D01*
X217783803Y-125630319D02*
X217688565Y-125677938D01*
X217688565Y-125677938D02*
X217640946Y-125725557D01*
X217640946Y-125725557D02*
X217593327Y-125820795D01*
X217593327Y-125820795D02*
X217545708Y-126011271D01*
X217545708Y-126011271D02*
X217545708Y-126249366D01*
X217545708Y-126249366D02*
X217593327Y-126439842D01*
X217593327Y-126439842D02*
X217640946Y-126535080D01*
X217640946Y-126535080D02*
X217688565Y-126582700D01*
X217688565Y-126582700D02*
X217783803Y-126630319D01*
X217783803Y-126630319D02*
X217879041Y-126630319D01*
X217879041Y-126630319D02*
X217974279Y-126582700D01*
X217974279Y-126582700D02*
X218021898Y-126535080D01*
X218021898Y-126535080D02*
X218069517Y-126439842D01*
X218069517Y-126439842D02*
X218117136Y-126249366D01*
X218117136Y-126249366D02*
X218117136Y-126011271D01*
X218117136Y-126011271D02*
X218069517Y-125820795D01*
X218069517Y-125820795D02*
X218021898Y-125725557D01*
X218021898Y-125725557D02*
X217974279Y-125677938D01*
X217974279Y-125677938D02*
X217879041Y-125630319D01*
X202114755Y-126582700D02*
X201971898Y-126630319D01*
X201971898Y-126630319D02*
X201733803Y-126630319D01*
X201733803Y-126630319D02*
X201638565Y-126582700D01*
X201638565Y-126582700D02*
X201590946Y-126535080D01*
X201590946Y-126535080D02*
X201543327Y-126439842D01*
X201543327Y-126439842D02*
X201543327Y-126344604D01*
X201543327Y-126344604D02*
X201590946Y-126249366D01*
X201590946Y-126249366D02*
X201638565Y-126201747D01*
X201638565Y-126201747D02*
X201733803Y-126154128D01*
X201733803Y-126154128D02*
X201924279Y-126106509D01*
X201924279Y-126106509D02*
X202019517Y-126058890D01*
X202019517Y-126058890D02*
X202067136Y-126011271D01*
X202067136Y-126011271D02*
X202114755Y-125916033D01*
X202114755Y-125916033D02*
X202114755Y-125820795D01*
X202114755Y-125820795D02*
X202067136Y-125725557D01*
X202067136Y-125725557D02*
X202019517Y-125677938D01*
X202019517Y-125677938D02*
X201924279Y-125630319D01*
X201924279Y-125630319D02*
X201686184Y-125630319D01*
X201686184Y-125630319D02*
X201543327Y-125677938D01*
X201209993Y-125630319D02*
X200971898Y-126630319D01*
X200971898Y-126630319D02*
X200781422Y-125916033D01*
X200781422Y-125916033D02*
X200590946Y-126630319D01*
X200590946Y-126630319D02*
X200352851Y-125630319D01*
X200067136Y-125630319D02*
X199448089Y-125630319D01*
X199448089Y-125630319D02*
X199781422Y-126011271D01*
X199781422Y-126011271D02*
X199638565Y-126011271D01*
X199638565Y-126011271D02*
X199543327Y-126058890D01*
X199543327Y-126058890D02*
X199495708Y-126106509D01*
X199495708Y-126106509D02*
X199448089Y-126201747D01*
X199448089Y-126201747D02*
X199448089Y-126439842D01*
X199448089Y-126439842D02*
X199495708Y-126535080D01*
X199495708Y-126535080D02*
X199543327Y-126582700D01*
X199543327Y-126582700D02*
X199638565Y-126630319D01*
X199638565Y-126630319D02*
X199924279Y-126630319D01*
X199924279Y-126630319D02*
X200019517Y-126582700D01*
X200019517Y-126582700D02*
X200067136Y-126535080D01*
X198495708Y-126630319D02*
X199067136Y-126630319D01*
X198781422Y-126630319D02*
X198781422Y-125630319D01*
X198781422Y-125630319D02*
X198876660Y-125773176D01*
X198876660Y-125773176D02*
X198971898Y-125868414D01*
X198971898Y-125868414D02*
X199067136Y-125916033D01*
X183064755Y-121820200D02*
X182921898Y-121867819D01*
X182921898Y-121867819D02*
X182683803Y-121867819D01*
X182683803Y-121867819D02*
X182588565Y-121820200D01*
X182588565Y-121820200D02*
X182540946Y-121772580D01*
X182540946Y-121772580D02*
X182493327Y-121677342D01*
X182493327Y-121677342D02*
X182493327Y-121582104D01*
X182493327Y-121582104D02*
X182540946Y-121486866D01*
X182540946Y-121486866D02*
X182588565Y-121439247D01*
X182588565Y-121439247D02*
X182683803Y-121391628D01*
X182683803Y-121391628D02*
X182874279Y-121344009D01*
X182874279Y-121344009D02*
X182969517Y-121296390D01*
X182969517Y-121296390D02*
X183017136Y-121248771D01*
X183017136Y-121248771D02*
X183064755Y-121153533D01*
X183064755Y-121153533D02*
X183064755Y-121058295D01*
X183064755Y-121058295D02*
X183017136Y-120963057D01*
X183017136Y-120963057D02*
X182969517Y-120915438D01*
X182969517Y-120915438D02*
X182874279Y-120867819D01*
X182874279Y-120867819D02*
X182636184Y-120867819D01*
X182636184Y-120867819D02*
X182493327Y-120915438D01*
X182159993Y-120867819D02*
X181921898Y-121867819D01*
X181921898Y-121867819D02*
X181731422Y-121153533D01*
X181731422Y-121153533D02*
X181540946Y-121867819D01*
X181540946Y-121867819D02*
X181302851Y-120867819D01*
X181017136Y-120867819D02*
X180398089Y-120867819D01*
X180398089Y-120867819D02*
X180731422Y-121248771D01*
X180731422Y-121248771D02*
X180588565Y-121248771D01*
X180588565Y-121248771D02*
X180493327Y-121296390D01*
X180493327Y-121296390D02*
X180445708Y-121344009D01*
X180445708Y-121344009D02*
X180398089Y-121439247D01*
X180398089Y-121439247D02*
X180398089Y-121677342D01*
X180398089Y-121677342D02*
X180445708Y-121772580D01*
X180445708Y-121772580D02*
X180493327Y-121820200D01*
X180493327Y-121820200D02*
X180588565Y-121867819D01*
X180588565Y-121867819D02*
X180874279Y-121867819D01*
X180874279Y-121867819D02*
X180969517Y-121820200D01*
X180969517Y-121820200D02*
X181017136Y-121772580D01*
X180017136Y-120963057D02*
X179969517Y-120915438D01*
X179969517Y-120915438D02*
X179874279Y-120867819D01*
X179874279Y-120867819D02*
X179636184Y-120867819D01*
X179636184Y-120867819D02*
X179540946Y-120915438D01*
X179540946Y-120915438D02*
X179493327Y-120963057D01*
X179493327Y-120963057D02*
X179445708Y-121058295D01*
X179445708Y-121058295D02*
X179445708Y-121153533D01*
X179445708Y-121153533D02*
X179493327Y-121296390D01*
X179493327Y-121296390D02*
X180064755Y-121867819D01*
X180064755Y-121867819D02*
X179445708Y-121867819D01*
X164014755Y-119438950D02*
X163871898Y-119486569D01*
X163871898Y-119486569D02*
X163633803Y-119486569D01*
X163633803Y-119486569D02*
X163538565Y-119438950D01*
X163538565Y-119438950D02*
X163490946Y-119391330D01*
X163490946Y-119391330D02*
X163443327Y-119296092D01*
X163443327Y-119296092D02*
X163443327Y-119200854D01*
X163443327Y-119200854D02*
X163490946Y-119105616D01*
X163490946Y-119105616D02*
X163538565Y-119057997D01*
X163538565Y-119057997D02*
X163633803Y-119010378D01*
X163633803Y-119010378D02*
X163824279Y-118962759D01*
X163824279Y-118962759D02*
X163919517Y-118915140D01*
X163919517Y-118915140D02*
X163967136Y-118867521D01*
X163967136Y-118867521D02*
X164014755Y-118772283D01*
X164014755Y-118772283D02*
X164014755Y-118677045D01*
X164014755Y-118677045D02*
X163967136Y-118581807D01*
X163967136Y-118581807D02*
X163919517Y-118534188D01*
X163919517Y-118534188D02*
X163824279Y-118486569D01*
X163824279Y-118486569D02*
X163586184Y-118486569D01*
X163586184Y-118486569D02*
X163443327Y-118534188D01*
X163109993Y-118486569D02*
X162871898Y-119486569D01*
X162871898Y-119486569D02*
X162681422Y-118772283D01*
X162681422Y-118772283D02*
X162490946Y-119486569D01*
X162490946Y-119486569D02*
X162252851Y-118486569D01*
X161967136Y-118486569D02*
X161348089Y-118486569D01*
X161348089Y-118486569D02*
X161681422Y-118867521D01*
X161681422Y-118867521D02*
X161538565Y-118867521D01*
X161538565Y-118867521D02*
X161443327Y-118915140D01*
X161443327Y-118915140D02*
X161395708Y-118962759D01*
X161395708Y-118962759D02*
X161348089Y-119057997D01*
X161348089Y-119057997D02*
X161348089Y-119296092D01*
X161348089Y-119296092D02*
X161395708Y-119391330D01*
X161395708Y-119391330D02*
X161443327Y-119438950D01*
X161443327Y-119438950D02*
X161538565Y-119486569D01*
X161538565Y-119486569D02*
X161824279Y-119486569D01*
X161824279Y-119486569D02*
X161919517Y-119438950D01*
X161919517Y-119438950D02*
X161967136Y-119391330D01*
X161014755Y-118486569D02*
X160395708Y-118486569D01*
X160395708Y-118486569D02*
X160729041Y-118867521D01*
X160729041Y-118867521D02*
X160586184Y-118867521D01*
X160586184Y-118867521D02*
X160490946Y-118915140D01*
X160490946Y-118915140D02*
X160443327Y-118962759D01*
X160443327Y-118962759D02*
X160395708Y-119057997D01*
X160395708Y-119057997D02*
X160395708Y-119296092D01*
X160395708Y-119296092D02*
X160443327Y-119391330D01*
X160443327Y-119391330D02*
X160490946Y-119438950D01*
X160490946Y-119438950D02*
X160586184Y-119486569D01*
X160586184Y-119486569D02*
X160871898Y-119486569D01*
X160871898Y-119486569D02*
X160967136Y-119438950D01*
X160967136Y-119438950D02*
X161014755Y-119391330D01*
X139538551Y-131945943D02*
X139425883Y-131846035D01*
X139425883Y-131846035D02*
X139306835Y-131639838D01*
X139306835Y-131639838D02*
X139300456Y-131533550D01*
X139300456Y-131533550D02*
X139317885Y-131468501D01*
X139317885Y-131468501D02*
X139376554Y-131379643D01*
X139376554Y-131379643D02*
X139459033Y-131332024D01*
X139459033Y-131332024D02*
X139565321Y-131325644D01*
X139565321Y-131325644D02*
X139630370Y-131343074D01*
X139630370Y-131343074D02*
X139719228Y-131401743D01*
X139719228Y-131401743D02*
X139855706Y-131542891D01*
X139855706Y-131542891D02*
X139944564Y-131601560D01*
X139944564Y-131601560D02*
X140009613Y-131618989D01*
X140009613Y-131618989D02*
X140115901Y-131612610D01*
X140115901Y-131612610D02*
X140198380Y-131564991D01*
X140198380Y-131564991D02*
X140257049Y-131476132D01*
X140257049Y-131476132D02*
X140274479Y-131411084D01*
X140274479Y-131411084D02*
X140268099Y-131304795D01*
X140268099Y-131304795D02*
X140149051Y-131098599D01*
X140149051Y-131098599D02*
X140036383Y-130998690D01*
X139910956Y-130686206D02*
X138925883Y-130980009D01*
X138925883Y-130980009D02*
X139449234Y-130457909D01*
X139449234Y-130457909D02*
X138735407Y-130650095D01*
X138735407Y-130650095D02*
X139482385Y-129943898D01*
X139339527Y-129696463D02*
X139030004Y-129160352D01*
X139030004Y-129160352D02*
X138866756Y-129639503D01*
X138866756Y-129639503D02*
X138795327Y-129515785D01*
X138795327Y-129515785D02*
X138706469Y-129457116D01*
X138706469Y-129457116D02*
X138641420Y-129439686D01*
X138641420Y-129439686D02*
X138535132Y-129446066D01*
X138535132Y-129446066D02*
X138328935Y-129565114D01*
X138328935Y-129565114D02*
X138270266Y-129653972D01*
X138270266Y-129653972D02*
X138252837Y-129719021D01*
X138252837Y-129719021D02*
X138259216Y-129825309D01*
X138259216Y-129825309D02*
X138402074Y-130072745D01*
X138402074Y-130072745D02*
X138490932Y-130131414D01*
X138490932Y-130131414D02*
X138555981Y-130148844D01*
X138312757Y-128584711D02*
X137735407Y-128918044D01*
X138761719Y-128600431D02*
X138262177Y-129163770D01*
X138262177Y-129163770D02*
X137952653Y-128627660D01*
X122924348Y-141026693D02*
X122811680Y-140926785D01*
X122811680Y-140926785D02*
X122692632Y-140720588D01*
X122692632Y-140720588D02*
X122686253Y-140614300D01*
X122686253Y-140614300D02*
X122703682Y-140549251D01*
X122703682Y-140549251D02*
X122762351Y-140460393D01*
X122762351Y-140460393D02*
X122844830Y-140412774D01*
X122844830Y-140412774D02*
X122951118Y-140406394D01*
X122951118Y-140406394D02*
X123016167Y-140423824D01*
X123016167Y-140423824D02*
X123105025Y-140482493D01*
X123105025Y-140482493D02*
X123241503Y-140623641D01*
X123241503Y-140623641D02*
X123330361Y-140682310D01*
X123330361Y-140682310D02*
X123395410Y-140699739D01*
X123395410Y-140699739D02*
X123501698Y-140693360D01*
X123501698Y-140693360D02*
X123584177Y-140645741D01*
X123584177Y-140645741D02*
X123642846Y-140556882D01*
X123642846Y-140556882D02*
X123660276Y-140491834D01*
X123660276Y-140491834D02*
X123653896Y-140385545D01*
X123653896Y-140385545D02*
X123534848Y-140179349D01*
X123534848Y-140179349D02*
X123422180Y-140079440D01*
X123296753Y-139766956D02*
X122311680Y-140060759D01*
X122311680Y-140060759D02*
X122835031Y-139538659D01*
X122835031Y-139538659D02*
X122121204Y-139730845D01*
X122121204Y-139730845D02*
X122868182Y-139024648D01*
X122725324Y-138777213D02*
X122415801Y-138241102D01*
X122415801Y-138241102D02*
X122252553Y-138720253D01*
X122252553Y-138720253D02*
X122181124Y-138596535D01*
X122181124Y-138596535D02*
X122092266Y-138537866D01*
X122092266Y-138537866D02*
X122027217Y-138520436D01*
X122027217Y-138520436D02*
X121920929Y-138526816D01*
X121920929Y-138526816D02*
X121714732Y-138645864D01*
X121714732Y-138645864D02*
X121656063Y-138734722D01*
X121656063Y-138734722D02*
X121638634Y-138799771D01*
X121638634Y-138799771D02*
X121645013Y-138906059D01*
X121645013Y-138906059D02*
X121787871Y-139153495D01*
X121787871Y-139153495D02*
X121876729Y-139212164D01*
X121876729Y-139212164D02*
X121941778Y-139229594D01*
X121963420Y-137457555D02*
X122201515Y-137869948D01*
X122201515Y-137869948D02*
X121812931Y-138149282D01*
X121812931Y-138149282D02*
X121830361Y-138084234D01*
X121830361Y-138084234D02*
X121823981Y-137977945D01*
X121823981Y-137977945D02*
X121704934Y-137771749D01*
X121704934Y-137771749D02*
X121616075Y-137713080D01*
X121616075Y-137713080D02*
X121551027Y-137695650D01*
X121551027Y-137695650D02*
X121444739Y-137702030D01*
X121444739Y-137702030D02*
X121238542Y-137821077D01*
X121238542Y-137821077D02*
X121179873Y-137909936D01*
X121179873Y-137909936D02*
X121162443Y-137974985D01*
X121162443Y-137974985D02*
X121168823Y-138081273D01*
X121168823Y-138081273D02*
X121287870Y-138287469D01*
X121287870Y-138287469D02*
X121376729Y-138346138D01*
X121376729Y-138346138D02*
X121441778Y-138363568D01*
X101780051Y-142746993D02*
X101667383Y-142647085D01*
X101667383Y-142647085D02*
X101548335Y-142440888D01*
X101548335Y-142440888D02*
X101541956Y-142334600D01*
X101541956Y-142334600D02*
X101559385Y-142269551D01*
X101559385Y-142269551D02*
X101618054Y-142180693D01*
X101618054Y-142180693D02*
X101700533Y-142133074D01*
X101700533Y-142133074D02*
X101806821Y-142126694D01*
X101806821Y-142126694D02*
X101871870Y-142144124D01*
X101871870Y-142144124D02*
X101960728Y-142202793D01*
X101960728Y-142202793D02*
X102097206Y-142343941D01*
X102097206Y-142343941D02*
X102186064Y-142402610D01*
X102186064Y-142402610D02*
X102251113Y-142420039D01*
X102251113Y-142420039D02*
X102357401Y-142413660D01*
X102357401Y-142413660D02*
X102439880Y-142366041D01*
X102439880Y-142366041D02*
X102498549Y-142277182D01*
X102498549Y-142277182D02*
X102515979Y-142212134D01*
X102515979Y-142212134D02*
X102509599Y-142105845D01*
X102509599Y-142105845D02*
X102390551Y-141899649D01*
X102390551Y-141899649D02*
X102277883Y-141799740D01*
X102152456Y-141487256D02*
X101167383Y-141781059D01*
X101167383Y-141781059D02*
X101690734Y-141258959D01*
X101690734Y-141258959D02*
X100976907Y-141451145D01*
X100976907Y-141451145D02*
X101723885Y-140744948D01*
X101030448Y-140210547D02*
X100453097Y-140543880D01*
X101479410Y-140226267D02*
X100979868Y-140789607D01*
X100979868Y-140789607D02*
X100670344Y-140253496D01*
X100961980Y-139425291D02*
X100914361Y-139342812D01*
X100914361Y-139342812D02*
X100825502Y-139284143D01*
X100825502Y-139284143D02*
X100760454Y-139266713D01*
X100760454Y-139266713D02*
X100654165Y-139273093D01*
X100654165Y-139273093D02*
X100465399Y-139327092D01*
X100465399Y-139327092D02*
X100259202Y-139446139D01*
X100259202Y-139446139D02*
X100118055Y-139582617D01*
X100118055Y-139582617D02*
X100059385Y-139671475D01*
X100059385Y-139671475D02*
X100041956Y-139736524D01*
X100041956Y-139736524D02*
X100048335Y-139842812D01*
X100048335Y-139842812D02*
X100095954Y-139925291D01*
X100095954Y-139925291D02*
X100184813Y-139983960D01*
X100184813Y-139983960D02*
X100249862Y-140001389D01*
X100249862Y-140001389D02*
X100356150Y-139995010D01*
X100356150Y-139995010D02*
X100544916Y-139941011D01*
X100544916Y-139941011D02*
X100751113Y-139821963D01*
X100751113Y-139821963D02*
X100892261Y-139685486D01*
X100892261Y-139685486D02*
X100950930Y-139596628D01*
X100950930Y-139596628D02*
X100968360Y-139531579D01*
X100968360Y-139531579D02*
X100961980Y-139425291D01*
X174558659Y-81788000D02*
G75*
G02*
X168901805Y-81788000I-2828427J0D01*
G01*
X168901805Y-81788000D02*
G75*
G02*
X174558659Y-81788000I2828427J0D01*
G01*
X117408659Y-65024000D02*
G75*
G02*
X111751805Y-65024000I-2828427J0D01*
G01*
X111751805Y-65024000D02*
G75*
G02*
X117408659Y-65024000I2828427J0D01*
G01*
X123377659Y-124714000D02*
G75*
G02*
X117720805Y-124714000I-2828427J0D01*
G01*
X117720805Y-124714000D02*
G75*
G02*
X123377659Y-124714000I2828427J0D01*
G01*
X212658659Y-67564000D02*
G75*
G02*
X207001805Y-67564000I-2828427J0D01*
G01*
X207001805Y-67564000D02*
G75*
G02*
X212658659Y-67564000I2828427J0D01*
G01*
X212658659Y-124968000D02*
G75*
G02*
X207001805Y-124968000I-2828427J0D01*
G01*
X207001805Y-124968000D02*
G75*
G02*
X212658659Y-124968000I2828427J0D01*
G01*
X110008232Y-44704000D02*
X111278232Y-44704000D01*
X110008232Y-57404000D02*
X110008232Y-44704000D01*
X111278232Y-43434000D02*
X115088232Y-43434000D01*
X111278232Y-44704000D02*
X111278232Y-43434000D01*
X115088232Y-43434000D02*
X115088232Y-44704000D01*
X115088232Y-44704000D02*
X116358232Y-44704000D01*
X116358232Y-44704000D02*
X116358232Y-57404000D01*
X116358232Y-57404000D02*
X110008232Y-57404000D01*
X174050659Y-117348000D02*
G75*
G02*
X168393805Y-117348000I-2828427J0D01*
G01*
X168393805Y-117348000D02*
G75*
G02*
X174050659Y-117348000I2828427J0D01*
G01*
X180781659Y-42672000D02*
G75*
G02*
X175124805Y-42672000I-2828427J0D01*
G01*
X175124805Y-42672000D02*
G75*
G02*
X180781659Y-42672000I2828427J0D01*
G01*
X97013311Y-155216000D02*
X96173266Y-155701000D01*
X98672490Y-153449782D02*
X99372490Y-154662218D01*
X99372490Y-154662218D02*
X99923156Y-153536000D01*
X99923156Y-153536000D02*
X98672490Y-153449782D01*
X100273156Y-154142218D02*
X99573156Y-152929782D01*
X102772380Y-151891000D02*
X101932335Y-152376000D01*
D13*
X212255232Y-50875500D02*
X226455232Y-50875500D01*
X212255232Y-65075500D02*
X212255232Y-50875500D01*
X226455232Y-50875500D02*
X226455232Y-65075500D01*
X226455232Y-65075500D02*
X212255232Y-65075500D01*
X212255232Y-69925500D02*
X226455232Y-69925500D01*
X212255232Y-84125500D02*
X212255232Y-69925500D01*
X226455232Y-69925500D02*
X226455232Y-84125500D01*
X226455232Y-84125500D02*
X212255232Y-84125500D01*
X212255232Y-88975500D02*
X226455232Y-88975500D01*
X212255232Y-103175500D02*
X212255232Y-88975500D01*
X226455232Y-88975500D02*
X226455232Y-103175500D01*
X226455232Y-103175500D02*
X212255232Y-103175500D01*
X212255232Y-108025500D02*
X226455232Y-108025500D01*
X212255232Y-122225500D02*
X212255232Y-108025500D01*
X226455232Y-108025500D02*
X226455232Y-122225500D01*
X226455232Y-122225500D02*
X212255232Y-122225500D01*
X193205232Y-50875500D02*
X207405232Y-50875500D01*
X193205232Y-65075500D02*
X193205232Y-50875500D01*
X207405232Y-50875500D02*
X207405232Y-65075500D01*
X207405232Y-65075500D02*
X193205232Y-65075500D01*
X193205232Y-69925500D02*
X207405232Y-69925500D01*
X193205232Y-84125500D02*
X193205232Y-69925500D01*
X207405232Y-69925500D02*
X207405232Y-84125500D01*
X207405232Y-84125500D02*
X193205232Y-84125500D01*
X193205232Y-88975500D02*
X207405232Y-88975500D01*
X193205232Y-103175500D02*
X193205232Y-88975500D01*
X207405232Y-88975500D02*
X207405232Y-103175500D01*
X207405232Y-103175500D02*
X193205232Y-103175500D01*
X193205232Y-108025500D02*
X207405232Y-108025500D01*
X193205232Y-122225500D02*
X193205232Y-108025500D01*
X207405232Y-108025500D02*
X207405232Y-122225500D01*
X207405232Y-122225500D02*
X193205232Y-122225500D01*
X174155232Y-46113000D02*
X188355232Y-46113000D01*
X174155232Y-60313000D02*
X174155232Y-46113000D01*
X188355232Y-46113000D02*
X188355232Y-60313000D01*
X188355232Y-60313000D02*
X174155232Y-60313000D01*
X174155232Y-65163000D02*
X188355232Y-65163000D01*
X174155232Y-79363000D02*
X174155232Y-65163000D01*
X188355232Y-65163000D02*
X188355232Y-79363000D01*
X188355232Y-79363000D02*
X174155232Y-79363000D01*
X174155232Y-84213000D02*
X188355232Y-84213000D01*
X174155232Y-98413000D02*
X174155232Y-84213000D01*
X188355232Y-84213000D02*
X188355232Y-98413000D01*
X188355232Y-98413000D02*
X174155232Y-98413000D01*
X174155232Y-103263000D02*
X188355232Y-103263000D01*
X174155232Y-117463000D02*
X174155232Y-103263000D01*
X188355232Y-103263000D02*
X188355232Y-117463000D01*
X188355232Y-117463000D02*
X174155232Y-117463000D01*
X155105232Y-43731750D02*
X169305232Y-43731750D01*
X155105232Y-57931750D02*
X155105232Y-43731750D01*
X169305232Y-43731750D02*
X169305232Y-57931750D01*
X169305232Y-57931750D02*
X155105232Y-57931750D01*
X155105232Y-62781750D02*
X169305232Y-62781750D01*
X155105232Y-76981750D02*
X155105232Y-62781750D01*
X169305232Y-62781750D02*
X169305232Y-76981750D01*
X169305232Y-76981750D02*
X155105232Y-76981750D01*
X155105232Y-81831750D02*
X169305232Y-81831750D01*
X155105232Y-96031750D02*
X155105232Y-81831750D01*
X169305232Y-81831750D02*
X169305232Y-96031750D01*
X169305232Y-96031750D02*
X155105232Y-96031750D01*
X155105232Y-100881750D02*
X169305232Y-100881750D01*
X155105232Y-115081750D02*
X155105232Y-100881750D01*
X169305232Y-100881750D02*
X169305232Y-115081750D01*
X169305232Y-115081750D02*
X155105232Y-115081750D01*
X136055232Y-46113000D02*
X150255232Y-46113000D01*
X136055232Y-60313000D02*
X136055232Y-46113000D01*
X150255232Y-46113000D02*
X150255232Y-60313000D01*
X150255232Y-60313000D02*
X136055232Y-60313000D01*
X136055232Y-65163000D02*
X150255232Y-65163000D01*
X136055232Y-79363000D02*
X136055232Y-65163000D01*
X150255232Y-65163000D02*
X150255232Y-79363000D01*
X150255232Y-79363000D02*
X136055232Y-79363000D01*
X136055232Y-84213000D02*
X150255232Y-84213000D01*
X136055232Y-98413000D02*
X136055232Y-84213000D01*
X150255232Y-84213000D02*
X150255232Y-98413000D01*
X150255232Y-98413000D02*
X136055232Y-98413000D01*
X136055232Y-103263000D02*
X150255232Y-103263000D01*
X136055232Y-117463000D02*
X136055232Y-103263000D01*
X150255232Y-103263000D02*
X150255232Y-117463000D01*
X150255232Y-117463000D02*
X136055232Y-117463000D01*
X117005232Y-48494250D02*
X131205232Y-48494250D01*
X117005232Y-62694250D02*
X117005232Y-48494250D01*
X131205232Y-48494250D02*
X131205232Y-62694250D01*
X131205232Y-62694250D02*
X117005232Y-62694250D01*
X117005232Y-67544250D02*
X131205232Y-67544250D01*
X117005232Y-81744250D02*
X117005232Y-67544250D01*
X131205232Y-67544250D02*
X131205232Y-81744250D01*
X131205232Y-81744250D02*
X117005232Y-81744250D01*
X117005232Y-86594250D02*
X131205232Y-86594250D01*
X117005232Y-100794250D02*
X117005232Y-86594250D01*
X131205232Y-86594250D02*
X131205232Y-100794250D01*
X131205232Y-100794250D02*
X117005232Y-100794250D01*
X117005232Y-105644250D02*
X131205232Y-105644250D01*
X117005232Y-119844250D02*
X117005232Y-105644250D01*
X131205232Y-105644250D02*
X131205232Y-119844250D01*
X131205232Y-119844250D02*
X117005232Y-119844250D01*
X97955232Y-58019250D02*
X112155232Y-58019250D01*
X97955232Y-72219250D02*
X97955232Y-58019250D01*
X112155232Y-58019250D02*
X112155232Y-72219250D01*
X112155232Y-72219250D02*
X97955232Y-72219250D01*
X97955232Y-77069250D02*
X112155232Y-77069250D01*
X97955232Y-91269250D02*
X97955232Y-77069250D01*
X112155232Y-77069250D02*
X112155232Y-91269250D01*
X112155232Y-91269250D02*
X97955232Y-91269250D01*
X97955232Y-96119250D02*
X112155232Y-96119250D01*
X97955232Y-110319250D02*
X97955232Y-96119250D01*
X112155232Y-96119250D02*
X112155232Y-110319250D01*
X112155232Y-110319250D02*
X97955232Y-110319250D01*
X96336452Y-124603520D02*
X108634012Y-117503520D01*
X103436452Y-136901080D02*
X96336452Y-124603520D01*
X108634012Y-117503520D02*
X115734012Y-129801080D01*
X115734012Y-129801080D02*
X103436452Y-136901080D01*
X212255232Y-127075500D02*
X226455232Y-127075500D01*
X212255232Y-141275500D02*
X212255232Y-127075500D01*
X226455232Y-127075500D02*
X226455232Y-141275500D01*
X226455232Y-141275500D02*
X212255232Y-141275500D01*
X193205232Y-127075500D02*
X207405232Y-127075500D01*
X193205232Y-141275500D02*
X193205232Y-127075500D01*
X207405232Y-127075500D02*
X207405232Y-141275500D01*
X207405232Y-141275500D02*
X193205232Y-141275500D01*
X174155232Y-122313000D02*
X188355232Y-122313000D01*
X174155232Y-136513000D02*
X174155232Y-122313000D01*
X188355232Y-122313000D02*
X188355232Y-136513000D01*
X188355232Y-136513000D02*
X174155232Y-136513000D01*
X155105232Y-119931750D02*
X169305232Y-119931750D01*
X155105232Y-134131750D02*
X155105232Y-119931750D01*
X169305232Y-119931750D02*
X169305232Y-134131750D01*
X169305232Y-134131750D02*
X155105232Y-134131750D01*
X122359452Y-131576470D02*
X134657012Y-124476470D01*
X129459452Y-143874030D02*
X122359452Y-131576470D01*
X134657012Y-124476470D02*
X141757012Y-136774030D01*
X141757012Y-136774030D02*
X129459452Y-143874030D01*
X105861452Y-141101520D02*
X118159012Y-134001520D01*
X112961452Y-153399080D02*
X105861452Y-141101520D01*
X118159012Y-134001520D02*
X125259012Y-146299080D01*
X125259012Y-146299080D02*
X112961452Y-153399080D01*
X84600952Y-142377520D02*
X96898512Y-135277520D01*
X91700952Y-154675080D02*
X84600952Y-142377520D01*
X96898512Y-135277520D02*
X103998512Y-147575080D01*
X103998512Y-147575080D02*
X91700952Y-154675080D01*
D12*
X209672232Y-57392000D02*
X210372232Y-58432000D01*
X209672232Y-58432000D02*
X211072232Y-58432000D01*
X210372232Y-55072000D02*
X210372232Y-54102000D01*
X210372232Y-58432000D02*
X211072232Y-57392000D01*
X210372232Y-61722000D02*
X210372232Y-60752000D01*
X211072232Y-57392000D02*
X209672232Y-57392000D01*
X209672232Y-76569000D02*
X210372232Y-77609000D01*
X209672232Y-77609000D02*
X211072232Y-77609000D01*
X210372232Y-74249000D02*
X210372232Y-73279000D01*
X210372232Y-77609000D02*
X211072232Y-76569000D01*
X210372232Y-80899000D02*
X210372232Y-79929000D01*
X211072232Y-76569000D02*
X209672232Y-76569000D01*
X209672232Y-95492000D02*
X210372232Y-96532000D01*
X209672232Y-96532000D02*
X211072232Y-96532000D01*
X210372232Y-93172000D02*
X210372232Y-92202000D01*
X210372232Y-96532000D02*
X211072232Y-95492000D01*
X210372232Y-99822000D02*
X210372232Y-98852000D01*
X211072232Y-95492000D02*
X209672232Y-95492000D01*
X209672232Y-114521000D02*
X210372232Y-115561000D01*
X209672232Y-115561000D02*
X211072232Y-115561000D01*
X210372232Y-112201000D02*
X210372232Y-111231000D01*
X210372232Y-115561000D02*
X211072232Y-114521000D01*
X210372232Y-118851000D02*
X210372232Y-117881000D01*
X211072232Y-114521000D02*
X209672232Y-114521000D01*
X190172232Y-56866000D02*
X190872232Y-57906000D01*
X190172232Y-57906000D02*
X191572232Y-57906000D01*
X190872232Y-54546000D02*
X190872232Y-53576000D01*
X190872232Y-57906000D02*
X191572232Y-56866000D01*
X190872232Y-61196000D02*
X190872232Y-60226000D01*
X191572232Y-56866000D02*
X190172232Y-56866000D01*
X190672232Y-76366000D02*
X191372232Y-77406000D01*
X190672232Y-77406000D02*
X192072232Y-77406000D01*
X191372232Y-74046000D02*
X191372232Y-73076000D01*
X191372232Y-77406000D02*
X192072232Y-76366000D01*
X191372232Y-80696000D02*
X191372232Y-79726000D01*
X192072232Y-76366000D02*
X190672232Y-76366000D01*
X190672232Y-95492000D02*
X191372232Y-96532000D01*
X190672232Y-96532000D02*
X192072232Y-96532000D01*
X191372232Y-93172000D02*
X191372232Y-92202000D01*
X191372232Y-96532000D02*
X192072232Y-95492000D01*
X191372232Y-99822000D02*
X191372232Y-98852000D01*
X192072232Y-95492000D02*
X190672232Y-95492000D01*
X190672232Y-114542000D02*
X191372232Y-115582000D01*
X190672232Y-115582000D02*
X192072232Y-115582000D01*
X191372232Y-112222000D02*
X191372232Y-111252000D01*
X191372232Y-115582000D02*
X192072232Y-114542000D01*
X191372232Y-118872000D02*
X191372232Y-117902000D01*
X192072232Y-114542000D02*
X190672232Y-114542000D01*
X178612232Y-62256000D02*
X177642232Y-62256000D01*
X180932232Y-61556000D02*
X180932232Y-62956000D01*
X180932232Y-62956000D02*
X181972232Y-62256000D01*
X181972232Y-62256000D02*
X180932232Y-61556000D01*
X181972232Y-62956000D02*
X181972232Y-61556000D01*
X185262232Y-62256000D02*
X184292232Y-62256000D01*
X178402232Y-81256000D02*
X177432232Y-81256000D01*
X180722232Y-80556000D02*
X180722232Y-81956000D01*
X180722232Y-81956000D02*
X181762232Y-81256000D01*
X181762232Y-81256000D02*
X180722232Y-80556000D01*
X181762232Y-81956000D02*
X181762232Y-80556000D01*
X185052232Y-81256000D02*
X184082232Y-81256000D01*
X178162232Y-100256000D02*
X177192232Y-100256000D01*
X180482232Y-99556000D02*
X180482232Y-100956000D01*
X180482232Y-100956000D02*
X181522232Y-100256000D01*
X181522232Y-100256000D02*
X180482232Y-99556000D01*
X181522232Y-100956000D02*
X181522232Y-99556000D01*
X184812232Y-100256000D02*
X183842232Y-100256000D01*
X171672232Y-107049000D02*
X172372232Y-108089000D01*
X171672232Y-108089000D02*
X173072232Y-108089000D01*
X172372232Y-104729000D02*
X172372232Y-103759000D01*
X172372232Y-108089000D02*
X173072232Y-107049000D01*
X172372232Y-111379000D02*
X172372232Y-110409000D01*
X173072232Y-107049000D02*
X171672232Y-107049000D01*
X171672232Y-71756000D02*
X172372232Y-72796000D01*
X171672232Y-72796000D02*
X173072232Y-72796000D01*
X172372232Y-69436000D02*
X172372232Y-68466000D01*
X172372232Y-72796000D02*
X173072232Y-71756000D01*
X172372232Y-76086000D02*
X172372232Y-75116000D01*
X173072232Y-71756000D02*
X171672232Y-71756000D01*
X152672232Y-75172000D02*
X153372232Y-76212000D01*
X152672232Y-76212000D02*
X154072232Y-76212000D01*
X153372232Y-72852000D02*
X153372232Y-71882000D01*
X153372232Y-76212000D02*
X154072232Y-75172000D01*
X153372232Y-79502000D02*
X153372232Y-78532000D01*
X154072232Y-75172000D02*
X152672232Y-75172000D01*
X159162232Y-98256000D02*
X158192232Y-98256000D01*
X161482232Y-97556000D02*
X161482232Y-98956000D01*
X161482232Y-98956000D02*
X162522232Y-98256000D01*
X162522232Y-98256000D02*
X161482232Y-97556000D01*
X162522232Y-98956000D02*
X162522232Y-97556000D01*
X165812232Y-98256000D02*
X164842232Y-98256000D01*
X133172232Y-55487000D02*
X133872232Y-56527000D01*
X133172232Y-56527000D02*
X134572232Y-56527000D01*
X133872232Y-53167000D02*
X133872232Y-52197000D01*
X133872232Y-56527000D02*
X134572232Y-55487000D01*
X133872232Y-59817000D02*
X133872232Y-58847000D01*
X134572232Y-55487000D02*
X133172232Y-55487000D01*
X152672232Y-91534000D02*
X153372232Y-92574000D01*
X152672232Y-92574000D02*
X154072232Y-92574000D01*
X153372232Y-89214000D02*
X153372232Y-88244000D01*
X153372232Y-92574000D02*
X154072232Y-91534000D01*
X153372232Y-95864000D02*
X153372232Y-94894000D01*
X154072232Y-91534000D02*
X152672232Y-91534000D01*
X133172232Y-109866000D02*
X133872232Y-110906000D01*
X133172232Y-110906000D02*
X134572232Y-110906000D01*
X133872232Y-107546000D02*
X133872232Y-106576000D01*
X133872232Y-110906000D02*
X134572232Y-109866000D01*
X133872232Y-114196000D02*
X133872232Y-113226000D01*
X134572232Y-109866000D02*
X133172232Y-109866000D01*
X121162232Y-64256000D02*
X120192232Y-64256000D01*
X123482232Y-63556000D02*
X123482232Y-64956000D01*
X123482232Y-64956000D02*
X124522232Y-64256000D01*
X124522232Y-64256000D02*
X123482232Y-63556000D01*
X124522232Y-64956000D02*
X124522232Y-63556000D01*
X127812232Y-64256000D02*
X126842232Y-64256000D01*
X133172232Y-75366000D02*
X133872232Y-76406000D01*
X133172232Y-76406000D02*
X134572232Y-76406000D01*
X133872232Y-73046000D02*
X133872232Y-72076000D01*
X133872232Y-76406000D02*
X134572232Y-75366000D01*
X133872232Y-79696000D02*
X133872232Y-78726000D01*
X134572232Y-75366000D02*
X133172232Y-75366000D01*
X133172232Y-92366000D02*
X133872232Y-93406000D01*
X133172232Y-93406000D02*
X134572232Y-93406000D01*
X133872232Y-90046000D02*
X133872232Y-89076000D01*
X133872232Y-93406000D02*
X134572232Y-92366000D01*
X133872232Y-96696000D02*
X133872232Y-95726000D01*
X134572232Y-92366000D02*
X133172232Y-92366000D01*
X121162232Y-103256000D02*
X120192232Y-103256000D01*
X123482232Y-102556000D02*
X123482232Y-103956000D01*
X123482232Y-103956000D02*
X124522232Y-103256000D01*
X124522232Y-103256000D02*
X123482232Y-102556000D01*
X124522232Y-103956000D02*
X124522232Y-102556000D01*
X127812232Y-103256000D02*
X126842232Y-103256000D01*
X114672232Y-74283000D02*
X115372232Y-75323000D01*
X114672232Y-75323000D02*
X116072232Y-75323000D01*
X115372232Y-71963000D02*
X115372232Y-70993000D01*
X115372232Y-75323000D02*
X116072232Y-74283000D01*
X115372232Y-78613000D02*
X115372232Y-77643000D01*
X116072232Y-74283000D02*
X114672232Y-74283000D01*
X114672232Y-89366000D02*
X115372232Y-90406000D01*
X114672232Y-90406000D02*
X116072232Y-90406000D01*
X115372232Y-87046000D02*
X115372232Y-86076000D01*
X115372232Y-90406000D02*
X116072232Y-89366000D01*
X115372232Y-93696000D02*
X115372232Y-92726000D01*
X116072232Y-89366000D02*
X114672232Y-89366000D01*
X114672232Y-102858000D02*
X115372232Y-103898000D01*
X114672232Y-103898000D02*
X116072232Y-103898000D01*
X115372232Y-100538000D02*
X115372232Y-99568000D01*
X115372232Y-103898000D02*
X116072232Y-102858000D01*
X115372232Y-107188000D02*
X115372232Y-106218000D01*
X116072232Y-102858000D02*
X114672232Y-102858000D01*
X114172232Y-118106000D02*
X114872232Y-119146000D01*
X114172232Y-119146000D02*
X115572232Y-119146000D01*
X114872232Y-115786000D02*
X114872232Y-114816000D01*
X114872232Y-119146000D02*
X115572232Y-118106000D01*
X114872232Y-122436000D02*
X114872232Y-121466000D01*
X115572232Y-118106000D02*
X114172232Y-118106000D01*
X216902232Y-124256000D02*
X215932232Y-124256000D01*
X219222232Y-123556000D02*
X219222232Y-124956000D01*
X219222232Y-124956000D02*
X220262232Y-124256000D01*
X220262232Y-124256000D02*
X219222232Y-123556000D01*
X220262232Y-124956000D02*
X220262232Y-123556000D01*
X223552232Y-124256000D02*
X222582232Y-124256000D01*
X190672232Y-129366000D02*
X191372232Y-130406000D01*
X190672232Y-130406000D02*
X192072232Y-130406000D01*
X191372232Y-127046000D02*
X191372232Y-126076000D01*
X191372232Y-130406000D02*
X192072232Y-129366000D01*
X191372232Y-133696000D02*
X191372232Y-132726000D01*
X192072232Y-129366000D02*
X190672232Y-129366000D01*
X177902232Y-138256000D02*
X176932232Y-138256000D01*
X180222232Y-137556000D02*
X180222232Y-138956000D01*
X180222232Y-138956000D02*
X181262232Y-138256000D01*
X181262232Y-138256000D02*
X180222232Y-137556000D01*
X181262232Y-138956000D02*
X181262232Y-137556000D01*
X184552232Y-138256000D02*
X183582232Y-138256000D01*
X123984296Y-128346000D02*
X124824341Y-127861000D01*
X126483520Y-126094782D02*
X127183520Y-127307218D01*
X126833520Y-126701000D02*
X128084186Y-126787218D01*
X127384186Y-125574782D02*
X126833520Y-126701000D01*
X128084186Y-126787218D02*
X127384186Y-125574782D01*
X129743365Y-125021000D02*
X130583410Y-124536000D01*
X120267232Y-131208109D02*
X119782232Y-130368064D01*
X120821014Y-133567288D02*
X121947232Y-134117954D01*
X121341014Y-134467954D02*
X122553450Y-133767954D01*
X121947232Y-134117954D02*
X122033450Y-132867288D01*
X122033450Y-132867288D02*
X120821014Y-133567288D01*
X123592232Y-136967178D02*
X123107232Y-136127133D01*
X171672232Y-126840000D02*
X172372232Y-127880000D01*
X171672232Y-127880000D02*
X173072232Y-127880000D01*
X172372232Y-124520000D02*
X172372232Y-123550000D01*
X172372232Y-127880000D02*
X173072232Y-126840000D01*
X172372232Y-131170000D02*
X172372232Y-130200000D01*
X173072232Y-126840000D02*
X171672232Y-126840000D01*
X159162232Y-78756000D02*
X158192232Y-78756000D01*
X161482232Y-78056000D02*
X161482232Y-79456000D01*
X161482232Y-79456000D02*
X162522232Y-78756000D01*
X162522232Y-78756000D02*
X161482232Y-78056000D01*
X162522232Y-79456000D02*
X162522232Y-78056000D01*
X165812232Y-78756000D02*
X164842232Y-78756000D01*
X140662232Y-81256000D02*
X139692232Y-81256000D01*
X142982232Y-80556000D02*
X142982232Y-81956000D01*
X142982232Y-81956000D02*
X144022232Y-81256000D01*
X144022232Y-81256000D02*
X142982232Y-80556000D01*
X144022232Y-81956000D02*
X144022232Y-80556000D01*
X147312232Y-81256000D02*
X146342232Y-81256000D01*
D14*
G36*
X149671349Y-123420625D02*
G01*
X149697279Y-123493062D01*
X149692893Y-123520091D01*
X149654733Y-123554370D01*
X149629545Y-123537255D01*
X149612187Y-123466767D01*
X149621245Y-123418486D01*
X149654733Y-123405459D01*
X149671349Y-123420625D01*
G37*
G36*
X143698625Y-123485841D02*
G01*
X143740830Y-123554370D01*
X143763095Y-123615757D01*
X143740830Y-123724554D01*
X143714667Y-123770203D01*
X143681605Y-123802817D01*
X143666069Y-123760936D01*
X143663420Y-123639462D01*
X143665534Y-123559699D01*
X143675511Y-123485435D01*
X143698625Y-123485841D01*
G37*
G36*
X144064986Y-123565164D02*
G01*
X144077004Y-123708192D01*
X144037462Y-123876596D01*
X144029505Y-123896842D01*
X143992300Y-123965521D01*
X143970872Y-123954359D01*
X143966379Y-123866780D01*
X143979975Y-123706211D01*
X143995046Y-123603432D01*
X144018964Y-123521094D01*
X144044221Y-123519377D01*
X144064986Y-123565164D01*
G37*
G36*
X149910162Y-123384187D02*
G01*
X149938500Y-123420198D01*
X149951610Y-123502308D01*
X149947503Y-123592722D01*
X149924191Y-123653644D01*
X149919350Y-123658398D01*
X149886056Y-123677849D01*
X149870994Y-123640829D01*
X149867463Y-123533097D01*
X149867831Y-123513554D01*
X149881888Y-123421587D01*
X149910009Y-123384186D01*
X149910162Y-123384187D01*
G37*
G36*
X146549923Y-123998334D02*
G01*
X146541545Y-124017929D01*
X146469882Y-124094303D01*
X146374195Y-124095307D01*
X146269951Y-124019759D01*
X146199326Y-123966614D01*
X146152734Y-123958558D01*
X146336140Y-123958558D01*
X146357413Y-123979831D01*
X146378686Y-123958558D01*
X146357413Y-123937285D01*
X146336140Y-123958558D01*
X146152734Y-123958558D01*
X146114488Y-123951945D01*
X146045556Y-123952872D01*
X146008257Y-123906571D01*
X146039864Y-123829056D01*
X146093659Y-123796662D01*
X146202044Y-123774665D01*
X146332564Y-123770658D01*
X146458669Y-123783422D01*
X146553804Y-123811738D01*
X146591416Y-123854385D01*
X146580821Y-123905426D01*
X146563151Y-123958558D01*
X146549923Y-123998334D01*
G37*
G36*
X146978219Y-124246602D02*
G01*
X147002802Y-124307826D01*
X146990643Y-124409200D01*
X146916304Y-124491205D01*
X146794187Y-124548279D01*
X146638693Y-124574859D01*
X146464224Y-124565383D01*
X146285181Y-124514288D01*
X146183279Y-124478761D01*
X146106343Y-124483716D01*
X146014072Y-124535280D01*
X145886786Y-124593270D01*
X145754396Y-124617741D01*
X145742690Y-124617470D01*
X145613087Y-124583320D01*
X145488428Y-124506330D01*
X145394740Y-124406988D01*
X145358052Y-124305781D01*
X145358250Y-124291737D01*
X145366502Y-124250612D01*
X145397035Y-124267320D01*
X145463763Y-124347332D01*
X145509364Y-124400139D01*
X145641394Y-124494228D01*
X145786321Y-124507103D01*
X145956195Y-124441056D01*
X146040277Y-124395791D01*
X146120347Y-124369442D01*
X146202748Y-124377825D01*
X146326122Y-124418593D01*
X146391287Y-124440169D01*
X146530993Y-124476379D01*
X146635132Y-124490594D01*
X146665810Y-124488942D01*
X146795544Y-124447724D01*
X146893523Y-124366202D01*
X146933079Y-124264604D01*
X146934128Y-124228154D01*
X146944846Y-124198748D01*
X146978219Y-124246602D01*
G37*
G36*
X147000653Y-119116924D02*
G01*
X147388033Y-119175538D01*
X147747834Y-119261467D01*
X148068844Y-119372375D01*
X148339848Y-119505923D01*
X148549635Y-119659773D01*
X148686990Y-119831589D01*
X148697367Y-119860507D01*
X148664955Y-119850735D01*
X148575393Y-119778328D01*
X148423872Y-119664484D01*
X148132766Y-119508354D01*
X147784395Y-119378013D01*
X147394218Y-119277184D01*
X146977692Y-119209586D01*
X146550273Y-119178943D01*
X146127420Y-119188974D01*
X146095318Y-119191944D01*
X145933858Y-119214028D01*
X145710098Y-119251710D01*
X145440008Y-119301780D01*
X145139558Y-119361031D01*
X144824719Y-119426254D01*
X144511459Y-119494241D01*
X144215750Y-119561784D01*
X143953560Y-119625675D01*
X143886765Y-119637623D01*
X143868468Y-119628720D01*
X143870701Y-119626851D01*
X143930597Y-119602222D01*
X144056208Y-119561625D01*
X144232680Y-119509139D01*
X144445158Y-119448844D01*
X144678790Y-119384819D01*
X144918720Y-119321144D01*
X145150095Y-119261898D01*
X145358061Y-119211160D01*
X145527765Y-119173011D01*
X145785178Y-119128350D01*
X146188013Y-119090992D01*
X146596909Y-119087963D01*
X147000653Y-119116924D01*
G37*
G36*
X139133475Y-125259033D02*
G01*
X139340008Y-125285164D01*
X139582363Y-125333381D01*
X139830293Y-125397156D01*
X140053551Y-125469961D01*
X140069801Y-125476171D01*
X140219265Y-125547959D01*
X140320922Y-125623812D01*
X140363883Y-125693157D01*
X140337260Y-125745421D01*
X140320539Y-125751937D01*
X140294599Y-125724338D01*
X140269855Y-125685404D01*
X140172784Y-125625923D01*
X140013441Y-125559941D01*
X139803860Y-125492291D01*
X139556076Y-125427804D01*
X139462539Y-125406583D01*
X139224130Y-125360530D01*
X139059443Y-125343979D01*
X138963950Y-125356716D01*
X138933125Y-125398530D01*
X138938300Y-125428070D01*
X139007435Y-125519231D01*
X139152095Y-125618641D01*
X139365908Y-125723028D01*
X139642502Y-125829121D01*
X139975503Y-125933648D01*
X140145439Y-125982746D01*
X140310474Y-126031581D01*
X140430093Y-126068300D01*
X140486056Y-126087410D01*
X140470340Y-126094146D01*
X140387906Y-126092640D01*
X140256580Y-126083180D01*
X140081544Y-126055654D01*
X139853181Y-125998892D01*
X139609849Y-125922546D01*
X139376250Y-125835158D01*
X139177083Y-125745269D01*
X139037049Y-125661423D01*
X138902434Y-125538831D01*
X138832369Y-125425643D01*
X138836107Y-125336163D01*
X138913197Y-125277362D01*
X139063191Y-125256213D01*
X139133475Y-125259033D01*
G37*
G36*
X144251722Y-121055911D02*
G01*
X144261689Y-121056583D01*
X144509494Y-121093503D01*
X144694621Y-121162554D01*
X144811797Y-121259443D01*
X144855751Y-121379877D01*
X144821211Y-121519565D01*
X144760867Y-121602883D01*
X144688058Y-121652904D01*
X144664335Y-121657632D01*
X144556462Y-121668427D01*
X144421567Y-121672978D01*
X144230110Y-121673484D01*
X144442840Y-121609342D01*
X144562089Y-121570434D01*
X144683063Y-121515328D01*
X144744705Y-121455554D01*
X144761936Y-121380404D01*
X144761935Y-121379964D01*
X144722746Y-121295936D01*
X144618570Y-121228560D01*
X144468277Y-121180589D01*
X144290739Y-121154773D01*
X144104828Y-121153863D01*
X143929417Y-121180610D01*
X143783376Y-121237764D01*
X143757513Y-121254135D01*
X143665073Y-121336377D01*
X143621196Y-121416088D01*
X143625811Y-121474666D01*
X143675954Y-121518889D01*
X143791381Y-121559381D01*
X143876897Y-121585659D01*
X143984596Y-121629294D01*
X144018117Y-121660935D01*
X143975070Y-121676260D01*
X143853066Y-121670944D01*
X143683222Y-121633798D01*
X143555527Y-121558496D01*
X143503091Y-121499592D01*
X143489624Y-121439014D01*
X143528779Y-121351713D01*
X143556513Y-121312646D01*
X143657019Y-121218867D01*
X143783772Y-121136784D01*
X143821162Y-121118044D01*
X143946000Y-121069945D01*
X144076548Y-121051475D01*
X144251722Y-121055911D01*
G37*
G36*
X148923702Y-121704743D02*
G01*
X148913735Y-121714176D01*
X148815770Y-121771783D01*
X148689699Y-121812595D01*
X148586841Y-121825165D01*
X148351548Y-121815679D01*
X148095316Y-121767482D01*
X147850041Y-121687601D01*
X147647618Y-121583060D01*
X147624419Y-121566809D01*
X147519438Y-121461720D01*
X147498852Y-121387880D01*
X147569976Y-121387880D01*
X147578227Y-121407935D01*
X147645896Y-121465451D01*
X147765140Y-121533271D01*
X147915774Y-121600692D01*
X148077614Y-121657014D01*
X148105653Y-121664846D01*
X148269714Y-121698675D01*
X148442119Y-121718619D01*
X148599970Y-121723740D01*
X148720370Y-121713101D01*
X148780423Y-121685767D01*
X148783207Y-121678181D01*
X148756889Y-121620957D01*
X148676669Y-121542658D01*
X148561158Y-121457343D01*
X148428965Y-121379067D01*
X148298699Y-121321889D01*
X148253882Y-121307902D01*
X148091292Y-121271483D01*
X147947313Y-121256883D01*
X147831290Y-121267116D01*
X147703962Y-121298439D01*
X147607934Y-121341791D01*
X147569976Y-121387880D01*
X147498852Y-121387880D01*
X147492264Y-121364249D01*
X147536575Y-121280945D01*
X147646050Y-121218358D01*
X147814366Y-121183038D01*
X148035201Y-121181534D01*
X148107366Y-121188370D01*
X148385650Y-121251363D01*
X148610036Y-121365752D01*
X148770454Y-121526808D01*
X148783289Y-121544860D01*
X148864577Y-121628912D01*
X148931450Y-121649220D01*
X148948686Y-121644487D01*
X148967273Y-121652101D01*
X148945687Y-121678181D01*
X148923702Y-121704743D01*
G37*
G36*
X149938354Y-119538093D02*
G01*
X150176463Y-119602180D01*
X150765998Y-119817871D01*
X151356941Y-120113537D01*
X151943864Y-120485882D01*
X152521338Y-120931612D01*
X153083934Y-121447430D01*
X153281284Y-121650483D01*
X153623433Y-122048431D01*
X153886653Y-122427979D01*
X154072856Y-122792561D01*
X154183953Y-123145607D01*
X154221855Y-123490551D01*
X154204114Y-123730177D01*
X154127216Y-123975358D01*
X153984879Y-124173231D01*
X153772100Y-124330320D01*
X153483879Y-124453149D01*
X153417091Y-124466279D01*
X153278680Y-124475834D01*
X153120534Y-124473621D01*
X153111629Y-124473074D01*
X152833573Y-124418568D01*
X152525585Y-124292650D01*
X152195497Y-124099872D01*
X151851141Y-123844784D01*
X151500348Y-123531939D01*
X151397303Y-123431219D01*
X151296795Y-123328813D01*
X151255955Y-123279259D01*
X151275835Y-123282988D01*
X151357484Y-123340431D01*
X151501954Y-123452021D01*
X151710293Y-123618189D01*
X151980861Y-123823573D01*
X152269972Y-124018223D01*
X152545342Y-124179530D01*
X152791547Y-124298501D01*
X152993161Y-124366143D01*
X153109704Y-124383718D01*
X153378053Y-124367143D01*
X153637926Y-124278511D01*
X153866179Y-124124235D01*
X153977477Y-124006128D01*
X154070705Y-123839535D01*
X154113229Y-123637949D01*
X154111933Y-123380539D01*
X154091046Y-123226687D01*
X153997593Y-122909204D01*
X153836402Y-122561542D01*
X153611078Y-122192250D01*
X153595919Y-122170130D01*
X153309410Y-121805699D01*
X152954956Y-121435892D01*
X152547141Y-121071407D01*
X152100550Y-120722942D01*
X151629765Y-120401196D01*
X151149370Y-120116866D01*
X150673949Y-119880651D01*
X150218086Y-119703248D01*
X150082263Y-119655837D01*
X149950851Y-119602964D01*
X149861460Y-119559266D01*
X149823385Y-119530231D01*
X149845918Y-119521344D01*
X149938354Y-119538093D01*
G37*
G36*
X148289721Y-126135432D02*
G01*
X148324235Y-126228701D01*
X148349502Y-126406515D01*
X148365521Y-126668885D01*
X148372294Y-127015821D01*
X148369821Y-127447335D01*
X148366148Y-127645177D01*
X148354702Y-127963147D01*
X148334413Y-128206662D01*
X148301655Y-128382668D01*
X148252804Y-128498112D01*
X148184232Y-128559942D01*
X148092314Y-128575102D01*
X147973425Y-128550541D01*
X147823939Y-128493205D01*
X147740263Y-128462863D01*
X147514062Y-128416273D01*
X147275662Y-128404802D01*
X147068136Y-128431940D01*
X147050769Y-128438381D01*
X146964925Y-128507775D01*
X146887279Y-128621193D01*
X146872070Y-128649660D01*
X146791246Y-128775722D01*
X146710995Y-128871005D01*
X146657683Y-128910795D01*
X146502655Y-128955934D01*
X146319388Y-128931200D01*
X146121103Y-128837348D01*
X146083577Y-128812765D01*
X145969875Y-128729550D01*
X145881641Y-128652866D01*
X145833734Y-128596642D01*
X145841011Y-128574806D01*
X145869403Y-128585744D01*
X145954047Y-128630934D01*
X146069588Y-128699218D01*
X146076921Y-128703706D01*
X146279599Y-128812697D01*
X146437900Y-128858124D01*
X146565925Y-128837882D01*
X146677770Y-128749864D01*
X146787535Y-128591963D01*
X146832721Y-128523165D01*
X146923672Y-128417364D01*
X147004370Y-128358743D01*
X147092984Y-128335576D01*
X147280554Y-128318992D01*
X147493835Y-128326363D01*
X147698896Y-128355835D01*
X147861808Y-128405556D01*
X147920556Y-128431089D01*
X148031922Y-128473116D01*
X148099618Y-128489713D01*
X148150265Y-128463805D01*
X148203084Y-128359019D01*
X148242884Y-128177868D01*
X148269248Y-127924733D01*
X148281756Y-127603993D01*
X148279990Y-127220028D01*
X148263528Y-126777218D01*
X148262532Y-126757437D01*
X148251087Y-126475762D01*
X148248844Y-126275031D01*
X148255789Y-126156462D01*
X148271906Y-126121273D01*
X148289721Y-126135432D01*
G37*
G36*
X142011521Y-119834330D02*
G01*
X142073448Y-119869089D01*
X142084478Y-119880408D01*
X142118310Y-119938253D01*
X142085028Y-119990833D01*
X142037316Y-120022866D01*
X142008851Y-119991137D01*
X141978379Y-119952659D01*
X141903528Y-119943459D01*
X141778181Y-119978374D01*
X141592254Y-120059050D01*
X141430298Y-120140327D01*
X141026175Y-120380676D01*
X140629272Y-120666867D01*
X140247352Y-120989799D01*
X139888174Y-121340371D01*
X139559501Y-121709482D01*
X139269093Y-122088032D01*
X139024712Y-122466921D01*
X138834119Y-122837046D01*
X138705074Y-123189308D01*
X138645340Y-123514605D01*
X138642624Y-123562327D01*
X138659448Y-123800206D01*
X138735126Y-123990399D01*
X138875569Y-124139615D01*
X139086687Y-124254561D01*
X139374391Y-124341944D01*
X139582484Y-124375849D01*
X139852563Y-124379329D01*
X140143329Y-124338135D01*
X140461578Y-124249906D01*
X140814108Y-124112281D01*
X141207715Y-123922899D01*
X141649198Y-123679400D01*
X142145353Y-123379421D01*
X142151279Y-123375712D01*
X142385204Y-123229775D01*
X142553694Y-123126148D01*
X142663034Y-123061636D01*
X142719512Y-123033049D01*
X142729414Y-123037191D01*
X142699025Y-123070871D01*
X142634632Y-123130895D01*
X142550429Y-123202346D01*
X142345368Y-123354830D01*
X142090939Y-123525289D01*
X141805479Y-123702846D01*
X141507324Y-123876625D01*
X141214811Y-124035750D01*
X140946278Y-124169343D01*
X140720059Y-124266530D01*
X140579872Y-124315846D01*
X140371663Y-124379993D01*
X140188234Y-124427449D01*
X140157865Y-124433912D01*
X139821806Y-124476544D01*
X139502648Y-124466982D01*
X139211005Y-124409366D01*
X138957489Y-124307837D01*
X138752712Y-124166536D01*
X138607288Y-123989602D01*
X138531827Y-123781178D01*
X138522609Y-123656217D01*
X138549073Y-123403799D01*
X138623672Y-123113306D01*
X138740971Y-122800631D01*
X138895535Y-122481668D01*
X139081931Y-122172311D01*
X139333403Y-121825203D01*
X139703583Y-121388443D01*
X140110451Y-120978305D01*
X140538968Y-120608583D01*
X140974096Y-120293069D01*
X141400797Y-120045555D01*
X141604996Y-119947008D01*
X141788354Y-119870389D01*
X141920176Y-119833797D01*
X142011521Y-119834330D01*
G37*
G36*
X149949477Y-121829500D02*
G01*
X150046052Y-121897046D01*
X150169456Y-122006761D01*
X150308314Y-122146696D01*
X150451252Y-122304904D01*
X150586895Y-122469435D01*
X150703870Y-122628342D01*
X150790801Y-122769676D01*
X150884951Y-122962615D01*
X151005916Y-123262697D01*
X151101329Y-123564137D01*
X151163913Y-123842922D01*
X151186391Y-124075040D01*
X151176787Y-124225994D01*
X151094964Y-124530043D01*
X150929454Y-124820105D01*
X150680074Y-125096552D01*
X150669166Y-125106581D01*
X150343134Y-125355546D01*
X149944793Y-125572569D01*
X149472913Y-125758001D01*
X148926265Y-125912188D01*
X148303620Y-126035482D01*
X147603748Y-126128230D01*
X146825420Y-126190782D01*
X146496890Y-126205905D01*
X145884551Y-126212103D01*
X145304715Y-126189168D01*
X144765658Y-126138267D01*
X144275657Y-126060562D01*
X143842988Y-125957219D01*
X143475927Y-125829401D01*
X143182749Y-125678274D01*
X143069760Y-125595600D01*
X142902819Y-125452599D01*
X142725182Y-125283857D01*
X142560146Y-125111684D01*
X142431009Y-124958390D01*
X142369101Y-124868619D01*
X142283587Y-124728449D01*
X142192142Y-124566115D01*
X142102910Y-124397555D01*
X142024035Y-124238708D01*
X141963661Y-124105513D01*
X141929932Y-124013908D01*
X141930993Y-123979831D01*
X141931830Y-123980122D01*
X141962540Y-124020502D01*
X142026281Y-124119274D01*
X142114250Y-124262428D01*
X142217642Y-124435958D01*
X142324194Y-124608281D01*
X142577710Y-124959499D01*
X142848624Y-125263297D01*
X143125561Y-125507671D01*
X143397145Y-125680617D01*
X143728860Y-125819828D01*
X144178086Y-125945817D01*
X144701036Y-126035568D01*
X145298890Y-126089275D01*
X145972828Y-126107134D01*
X146243288Y-126104839D01*
X146976932Y-126075808D01*
X147687974Y-126014997D01*
X148356928Y-125924369D01*
X148964311Y-125805885D01*
X149280437Y-125722073D01*
X149719246Y-125565697D01*
X150109165Y-125376881D01*
X150443030Y-125160504D01*
X150713676Y-124921445D01*
X150913940Y-124664580D01*
X151036657Y-124394790D01*
X151066653Y-124286365D01*
X151092838Y-124143780D01*
X151094107Y-124005900D01*
X151069813Y-123844243D01*
X151019311Y-123630325D01*
X150971779Y-123463933D01*
X150782012Y-122994171D01*
X150523128Y-122559440D01*
X150204550Y-122176551D01*
X150085716Y-122053410D01*
X149977832Y-121936592D01*
X149907578Y-121854392D01*
X149886286Y-121819523D01*
X149891104Y-121816071D01*
X149949477Y-121829500D01*
G37*
G36*
X144981322Y-122541624D02*
G01*
X145000106Y-122578272D01*
X145014694Y-122606732D01*
X145049541Y-122690087D01*
X145078064Y-122758316D01*
X145114518Y-122872423D01*
X145125314Y-122906215D01*
X145144210Y-123014879D01*
X145121947Y-123090789D01*
X145061561Y-123205417D01*
X144981542Y-123327957D01*
X144900465Y-123430084D01*
X144836904Y-123483476D01*
X144795543Y-123497543D01*
X144729485Y-123506590D01*
X144708166Y-123492231D01*
X144751299Y-123459897D01*
X144783682Y-123443192D01*
X144840609Y-123395854D01*
X144814243Y-123364513D01*
X144704972Y-123350087D01*
X144525702Y-123324655D01*
X144358601Y-123247211D01*
X144192432Y-123104014D01*
X144107508Y-123006779D01*
X144067981Y-122930467D01*
X144263155Y-122930467D01*
X144316742Y-123045519D01*
X144383654Y-123104039D01*
X144447829Y-123130900D01*
X144479343Y-123113438D01*
X144458671Y-123050913D01*
X144453039Y-123041263D01*
X144439028Y-122983928D01*
X144532330Y-122983928D01*
X144590539Y-123043168D01*
X144673129Y-123078208D01*
X144758307Y-123070745D01*
X144851282Y-122997017D01*
X144897600Y-122937904D01*
X144902496Y-122872423D01*
X144836231Y-122840273D01*
X144705402Y-122848186D01*
X144632588Y-122868086D01*
X144549094Y-122920903D01*
X144532330Y-122983928D01*
X144439028Y-122983928D01*
X144437449Y-122977465D01*
X144458269Y-122889253D01*
X144507466Y-122781389D01*
X144553248Y-122781389D01*
X144558866Y-122779855D01*
X144624124Y-122769933D01*
X144732663Y-122757390D01*
X144753683Y-122754901D01*
X144852224Y-122729001D01*
X144878242Y-122690087D01*
X144867247Y-122668408D01*
X144798312Y-122630789D01*
X144703394Y-122642313D01*
X144614719Y-122701576D01*
X144564890Y-122759997D01*
X144553248Y-122781389D01*
X144507466Y-122781389D01*
X144520373Y-122753091D01*
X144565768Y-122660283D01*
X144598160Y-122578272D01*
X144594258Y-122541655D01*
X144556916Y-122533265D01*
X144550041Y-122533372D01*
X144426337Y-122573693D01*
X144329553Y-122669811D01*
X144271293Y-122796984D01*
X144263155Y-122930467D01*
X144067981Y-122930467D01*
X144053058Y-122901656D01*
X144038652Y-122779901D01*
X144039414Y-122749500D01*
X144046598Y-122711344D01*
X144129356Y-122711344D01*
X144132565Y-122817085D01*
X144138438Y-122838895D01*
X144156605Y-122843152D01*
X144182033Y-122767268D01*
X144261831Y-122592005D01*
X144391311Y-122484447D01*
X144567258Y-122447521D01*
X144643399Y-122445153D01*
X144696345Y-122432248D01*
X144676843Y-122405626D01*
X144625922Y-122379623D01*
X144479012Y-122360960D01*
X144333010Y-122406295D01*
X144211884Y-122504902D01*
X144139603Y-122646054D01*
X144129356Y-122711344D01*
X144046598Y-122711344D01*
X144073120Y-122570472D01*
X144147345Y-122418423D01*
X144249026Y-122321795D01*
X144336050Y-122289503D01*
X144515696Y-122279932D01*
X144702252Y-122324503D01*
X144867024Y-122414605D01*
X144882900Y-122432248D01*
X144981322Y-122541624D01*
G37*
G36*
X148768064Y-122583248D02*
G01*
X148823476Y-122741845D01*
X148824415Y-122819355D01*
X148825704Y-122925724D01*
X148779062Y-123114437D01*
X148754267Y-123156647D01*
X148692141Y-123262410D01*
X148689600Y-123265165D01*
X148572850Y-123332173D01*
X148414120Y-123347517D01*
X148235175Y-123315068D01*
X148057779Y-123238693D01*
X147903696Y-123122262D01*
X147861363Y-123078928D01*
X147816231Y-123022544D01*
X147910344Y-123022544D01*
X147931617Y-123043817D01*
X147952890Y-123022544D01*
X147931617Y-123001271D01*
X147910344Y-123022544D01*
X147816231Y-123022544D01*
X147783013Y-122981045D01*
X147748343Y-122885997D01*
X147740801Y-122756631D01*
X147741348Y-122728267D01*
X147825904Y-122728267D01*
X147836416Y-122827183D01*
X147865595Y-122914070D01*
X147877092Y-122928849D01*
X147893872Y-122913234D01*
X147893292Y-122882742D01*
X148019854Y-122882742D01*
X148021650Y-122913234D01*
X148023164Y-122938930D01*
X148043803Y-122970058D01*
X148097643Y-123022544D01*
X148121788Y-123046082D01*
X148231588Y-123130388D01*
X148321913Y-123189658D01*
X148429983Y-123242236D01*
X148514897Y-123247404D01*
X148601718Y-123210594D01*
X148667492Y-123156647D01*
X148654440Y-123116628D01*
X148559172Y-123095331D01*
X148520469Y-123091220D01*
X148356240Y-123055837D01*
X148212398Y-122999918D01*
X148121268Y-122935276D01*
X148060536Y-122882582D01*
X148019854Y-122882742D01*
X147893292Y-122882742D01*
X147892042Y-122817076D01*
X147889792Y-122792094D01*
X147872286Y-122685658D01*
X147869042Y-122677656D01*
X148050188Y-122677656D01*
X148103393Y-122747753D01*
X148185227Y-122821877D01*
X148301682Y-122899262D01*
X148307581Y-122902275D01*
X148446984Y-122951007D01*
X148557029Y-122948462D01*
X148618242Y-122894906D01*
X148630146Y-122819355D01*
X148578658Y-122719944D01*
X148444135Y-122637709D01*
X148340891Y-122600163D01*
X148195500Y-122579473D01*
X148082220Y-122616411D01*
X148056753Y-122635941D01*
X148050188Y-122677656D01*
X147869042Y-122677656D01*
X147850943Y-122633016D01*
X147833052Y-122643956D01*
X147825904Y-122728267D01*
X147741348Y-122728267D01*
X147741433Y-122723881D01*
X147767792Y-122513005D01*
X147787151Y-122448518D01*
X148005302Y-122448518D01*
X148012768Y-122484684D01*
X148070504Y-122506471D01*
X148196392Y-122512337D01*
X148253474Y-122513534D01*
X148396246Y-122526221D01*
X148500386Y-122548366D01*
X148502438Y-122549099D01*
X148572128Y-122558622D01*
X148584781Y-122528017D01*
X148545674Y-122474633D01*
X148460083Y-122415822D01*
X148405657Y-122394289D01*
X148281485Y-122373349D01*
X148154205Y-122376785D01*
X148052562Y-122402530D01*
X148005302Y-122448518D01*
X147787151Y-122448518D01*
X147825906Y-122319425D01*
X147906242Y-122176565D01*
X147947389Y-122140089D01*
X148066246Y-122106559D01*
X148212550Y-122128482D01*
X148371091Y-122196485D01*
X148526663Y-122301195D01*
X148664057Y-122433240D01*
X148729770Y-122528017D01*
X148768064Y-122583248D01*
G37*
G36*
X141783711Y-125164892D02*
G01*
X141821291Y-125182027D01*
X141831052Y-125198948D01*
X141774926Y-125207546D01*
X141643324Y-125210970D01*
X141570832Y-125213231D01*
X141366225Y-125246032D01*
X141197326Y-125328770D01*
X141030600Y-125475949D01*
X140917498Y-125624380D01*
X140790973Y-125861070D01*
X140674026Y-126149610D01*
X140571039Y-126472131D01*
X140486397Y-126810766D01*
X140424484Y-127147647D01*
X140389682Y-127464905D01*
X140386376Y-127744673D01*
X140418949Y-127969083D01*
X140454572Y-128069327D01*
X140566902Y-128255719D01*
X140716597Y-128403089D01*
X140883107Y-128488443D01*
X141015954Y-128513984D01*
X141263476Y-128527899D01*
X141552093Y-128513946D01*
X141858534Y-128472506D01*
X141983654Y-128451695D01*
X142113898Y-128438593D01*
X142203736Y-128446231D01*
X142278222Y-128474744D01*
X142368410Y-128513695D01*
X142445924Y-128532260D01*
X142474255Y-128538126D01*
X142536790Y-128590061D01*
X142541687Y-128597025D01*
X142611773Y-128649176D01*
X142719929Y-128696283D01*
X142797426Y-128719396D01*
X142976132Y-128758634D01*
X143185149Y-128785601D01*
X143435320Y-128800800D01*
X143737490Y-128804735D01*
X144102503Y-128797910D01*
X144541202Y-128780826D01*
X144875429Y-128766849D01*
X145186564Y-128757664D01*
X145414338Y-128756061D01*
X145558288Y-128762042D01*
X145617949Y-128775610D01*
X145609781Y-128794109D01*
X145531849Y-128815762D01*
X145389894Y-128835801D01*
X145195544Y-128853840D01*
X144960424Y-128869492D01*
X144696160Y-128882371D01*
X144414380Y-128892091D01*
X144126708Y-128898264D01*
X143844773Y-128900505D01*
X143580199Y-128898426D01*
X143344613Y-128891642D01*
X143149641Y-128879765D01*
X143006910Y-128862410D01*
X142963323Y-128854839D01*
X142817605Y-128833614D01*
X142715598Y-128825235D01*
X142677178Y-128831560D01*
X142684881Y-128851965D01*
X142729912Y-128927438D01*
X142801811Y-129031911D01*
X142896041Y-129149526D01*
X143031065Y-129274238D01*
X143151260Y-129334001D01*
X143248347Y-129325372D01*
X143314044Y-129244906D01*
X143334213Y-129196548D01*
X143350441Y-129178604D01*
X143355219Y-129236397D01*
X143348537Y-129291631D01*
X143306860Y-129374672D01*
X143286403Y-129392368D01*
X143175810Y-129424038D01*
X143037405Y-129378593D01*
X142875315Y-129257157D01*
X142805605Y-129186679D01*
X142690797Y-129045925D01*
X142610353Y-128916358D01*
X142595736Y-128888411D01*
X142491289Y-128747763D01*
X142362750Y-128633640D01*
X142341390Y-128619414D01*
X142265987Y-128573247D01*
X142198055Y-128548212D01*
X142114651Y-128541921D01*
X141992830Y-128551983D01*
X141809651Y-128576006D01*
X141766153Y-128581597D01*
X141539575Y-128602636D01*
X141309291Y-128613313D01*
X141119046Y-128611386D01*
X140919001Y-128586154D01*
X140687586Y-128503945D01*
X140509950Y-128362433D01*
X140377287Y-128156215D01*
X140368664Y-128137687D01*
X140330976Y-128045348D01*
X140308200Y-127953645D01*
X140298170Y-127841204D01*
X140298724Y-127686649D01*
X140307700Y-127468608D01*
X140310733Y-127413457D01*
X140351825Y-127022096D01*
X140424000Y-126638219D01*
X140522638Y-126274748D01*
X140643114Y-125944609D01*
X140780806Y-125660724D01*
X140931091Y-125436018D01*
X141089346Y-125283414D01*
X141203986Y-125218425D01*
X141406173Y-125152230D01*
X141610166Y-125132551D01*
X141783711Y-125164892D01*
G37*
D15*
X113278232Y-46204000D03*
X109278232Y-46204000D03*
X113278232Y-53204000D03*
X109278232Y-53204000D03*
D16*
X111278232Y-55004000D03*
X111278232Y-48004000D03*
X111278232Y-51004000D03*
X115278232Y-56504000D03*
X107278232Y-56504000D03*
D17*
X169825232Y-39370000D03*
X169825232Y-41910000D03*
X169825232Y-44450000D03*
X169825232Y-46990000D03*
X169825232Y-49530000D03*
X169825232Y-52070000D03*
X169825232Y-54610000D03*
X169825232Y-57150000D03*
X169825232Y-59690000D03*
X169825232Y-62230000D03*
X169825232Y-64770000D03*
X169825232Y-67310000D03*
X154585232Y-67310000D03*
X154585232Y-64770000D03*
X154585232Y-62230000D03*
X154585232Y-59690000D03*
X154585232Y-57150000D03*
X154585232Y-54610000D03*
X154585232Y-52070000D03*
X154585232Y-49530000D03*
X154585232Y-46990000D03*
X154585232Y-44450000D03*
X154585232Y-41910000D03*
X154585232Y-39370000D03*
%LPC*%
X146036232Y-39624000D03*
X141036232Y-39624000D03*
D18*
X147036232Y-42124000D03*
X140036232Y-42124000D03*
D19*
X171730232Y-81788000D03*
X114580232Y-65024000D03*
X120549232Y-124714000D03*
X209830232Y-67564000D03*
X209830232Y-124968000D03*
D15*
X113278232Y-46204000D03*
X109278232Y-46204000D03*
X113278232Y-53204000D03*
X109278232Y-53204000D03*
D16*
X111278232Y-55004000D03*
X111278232Y-48004000D03*
X111278232Y-51004000D03*
X115278232Y-56504000D03*
X107278232Y-56504000D03*
D19*
X171222232Y-117348000D03*
X177953232Y-42672000D03*
D17*
X169825232Y-39370000D03*
X169825232Y-41910000D03*
X169825232Y-44450000D03*
X169825232Y-46990000D03*
X169825232Y-49530000D03*
X169825232Y-52070000D03*
X169825232Y-54610000D03*
X169825232Y-57150000D03*
X169825232Y-59690000D03*
X169825232Y-62230000D03*
X169825232Y-64770000D03*
X169825232Y-67310000D03*
X154585232Y-67310000D03*
X154585232Y-64770000D03*
X154585232Y-62230000D03*
X154585232Y-59690000D03*
X154585232Y-57150000D03*
X154585232Y-54610000D03*
X154585232Y-52070000D03*
X154585232Y-49530000D03*
X154585232Y-46990000D03*
X154585232Y-44450000D03*
X154585232Y-41910000D03*
X154585232Y-39370000D03*
D20*
X103872232Y-151256000D03*
D21*
X100884444Y-152981000D03*
X98061202Y-154611000D03*
D22*
X95073414Y-156336000D03*
D23*
X224435232Y-57975500D03*
D24*
X219355232Y-57975500D03*
D23*
X214275232Y-57975500D03*
D25*
X223165232Y-55435500D03*
X216815232Y-52895500D03*
D23*
X224435232Y-77025500D03*
D24*
X219355232Y-77025500D03*
D23*
X214275232Y-77025500D03*
D25*
X223165232Y-74485500D03*
X216815232Y-71945500D03*
D23*
X224435232Y-96075500D03*
D24*
X219355232Y-96075500D03*
D23*
X214275232Y-96075500D03*
D25*
X223165232Y-93535500D03*
X216815232Y-90995500D03*
D23*
X224435232Y-115125500D03*
D24*
X219355232Y-115125500D03*
D23*
X214275232Y-115125500D03*
D25*
X223165232Y-112585500D03*
X216815232Y-110045500D03*
D23*
X205385232Y-57975500D03*
D24*
X200305232Y-57975500D03*
D23*
X195225232Y-57975500D03*
D25*
X204115232Y-55435500D03*
X197765232Y-52895500D03*
D23*
X205385232Y-77025500D03*
D24*
X200305232Y-77025500D03*
D23*
X195225232Y-77025500D03*
D25*
X204115232Y-74485500D03*
X197765232Y-71945500D03*
D23*
X205385232Y-96075500D03*
D24*
X200305232Y-96075500D03*
D23*
X195225232Y-96075500D03*
D25*
X204115232Y-93535500D03*
X197765232Y-90995500D03*
D23*
X205385232Y-115125500D03*
D24*
X200305232Y-115125500D03*
D23*
X195225232Y-115125500D03*
D25*
X204115232Y-112585500D03*
X197765232Y-110045500D03*
D23*
X186335232Y-53213000D03*
D24*
X181255232Y-53213000D03*
D23*
X176175232Y-53213000D03*
D25*
X185065232Y-50673000D03*
X178715232Y-48133000D03*
D23*
X186335232Y-72263000D03*
D24*
X181255232Y-72263000D03*
D23*
X176175232Y-72263000D03*
D25*
X185065232Y-69723000D03*
X178715232Y-67183000D03*
D23*
X186335232Y-91313000D03*
D24*
X181255232Y-91313000D03*
D23*
X176175232Y-91313000D03*
D25*
X185065232Y-88773000D03*
X178715232Y-86233000D03*
D23*
X186335232Y-110363000D03*
D24*
X181255232Y-110363000D03*
D23*
X176175232Y-110363000D03*
D25*
X185065232Y-107823000D03*
X178715232Y-105283000D03*
D23*
X162205232Y-45751750D03*
D24*
X162205232Y-50831750D03*
D23*
X162205232Y-55911750D03*
D25*
X159665232Y-47021750D03*
X157125232Y-53371750D03*
D23*
X162205232Y-64801750D03*
D24*
X162205232Y-69881750D03*
D23*
X162205232Y-74961750D03*
D25*
X159665232Y-66071750D03*
X157125232Y-72421750D03*
D23*
X167285232Y-88931750D03*
D24*
X162205232Y-88931750D03*
D23*
X157125232Y-88931750D03*
D25*
X166015232Y-86391750D03*
X159665232Y-83851750D03*
D23*
X167285232Y-107981750D03*
D24*
X162205232Y-107981750D03*
D23*
X157125232Y-107981750D03*
D25*
X166015232Y-105441750D03*
X159665232Y-102901750D03*
D23*
X148235232Y-53213000D03*
D24*
X143155232Y-53213000D03*
D23*
X138075232Y-53213000D03*
D25*
X146965232Y-50673000D03*
X140615232Y-48133000D03*
D23*
X148235232Y-72263000D03*
D24*
X143155232Y-72263000D03*
D23*
X138075232Y-72263000D03*
D25*
X146965232Y-69723000D03*
X140615232Y-67183000D03*
D23*
X148235232Y-91313000D03*
D24*
X143155232Y-91313000D03*
D23*
X138075232Y-91313000D03*
D25*
X146965232Y-88773000D03*
X140615232Y-86233000D03*
D23*
X148235232Y-110363000D03*
D24*
X143155232Y-110363000D03*
D23*
X138075232Y-110363000D03*
D25*
X146965232Y-107823000D03*
X140615232Y-105283000D03*
D23*
X129185232Y-55594250D03*
D24*
X124105232Y-55594250D03*
D23*
X119025232Y-55594250D03*
D25*
X127915232Y-53054250D03*
X121565232Y-50514250D03*
D23*
X129185232Y-74644250D03*
D24*
X124105232Y-74644250D03*
D23*
X119025232Y-74644250D03*
D25*
X127915232Y-72104250D03*
X121565232Y-69564250D03*
D23*
X129185232Y-93694250D03*
D24*
X124105232Y-93694250D03*
D23*
X119025232Y-93694250D03*
D25*
X127915232Y-91154250D03*
X121565232Y-88614250D03*
D23*
X129185232Y-112744250D03*
D24*
X124105232Y-112744250D03*
D23*
X119025232Y-112744250D03*
D25*
X127915232Y-110204250D03*
X121565232Y-107664250D03*
D23*
X110135232Y-65119250D03*
D24*
X105055232Y-65119250D03*
D23*
X99975232Y-65119250D03*
D25*
X108865232Y-62579250D03*
X102515232Y-60039250D03*
D23*
X110135232Y-84169250D03*
D24*
X105055232Y-84169250D03*
D23*
X99975232Y-84169250D03*
D25*
X108865232Y-81629250D03*
X102515232Y-79089250D03*
D23*
X110135232Y-103219250D03*
D24*
X105055232Y-103219250D03*
D23*
X99975232Y-103219250D03*
D25*
X108865232Y-100679250D03*
X102515232Y-98139250D03*
D23*
X103495232Y-122802891D03*
D24*
X106035232Y-127202300D03*
D23*
X108575232Y-131601709D03*
D25*
X101930527Y-125172743D03*
X102905823Y-131942005D03*
D23*
X224435232Y-134175500D03*
D24*
X219355232Y-134175500D03*
D23*
X214275232Y-134175500D03*
D25*
X223165232Y-131635500D03*
X216815232Y-129095500D03*
D23*
X205385232Y-134175500D03*
D24*
X200305232Y-134175500D03*
D23*
X195225232Y-134175500D03*
D25*
X204115232Y-131635500D03*
X197765232Y-129095500D03*
D23*
X186335232Y-129413000D03*
D24*
X181255232Y-129413000D03*
D23*
X176175232Y-129413000D03*
D25*
X185065232Y-126873000D03*
X178715232Y-124333000D03*
D23*
X167285232Y-127031750D03*
D24*
X162205232Y-127031750D03*
D23*
X157125232Y-127031750D03*
D25*
X166015232Y-124491750D03*
X159665232Y-121951750D03*
D23*
X134598232Y-138574659D03*
D24*
X132058232Y-134175250D03*
D23*
X129518232Y-129775841D03*
D25*
X136162937Y-136204807D03*
X135187641Y-129435545D03*
D23*
X113020232Y-139300891D03*
D24*
X115560232Y-143700300D03*
D23*
X118100232Y-148099709D03*
D25*
X111455527Y-141670743D03*
X112430823Y-148440005D03*
D23*
X96839732Y-149375709D03*
D24*
X94299732Y-144976300D03*
D23*
X91759732Y-140576891D03*
D25*
X98404437Y-147005857D03*
X97429141Y-140236595D03*
D26*
X210372232Y-62992000D03*
D27*
X210372232Y-59542000D03*
X210372232Y-56282000D03*
D28*
X210372232Y-52832000D03*
D26*
X210372232Y-82169000D03*
D27*
X210372232Y-78719000D03*
X210372232Y-75459000D03*
D28*
X210372232Y-72009000D03*
D26*
X210372232Y-101092000D03*
D27*
X210372232Y-97642000D03*
X210372232Y-94382000D03*
D28*
X210372232Y-90932000D03*
D26*
X210372232Y-120121000D03*
D27*
X210372232Y-116671000D03*
X210372232Y-113411000D03*
D28*
X210372232Y-109961000D03*
D26*
X190872232Y-62466000D03*
D27*
X190872232Y-59016000D03*
X190872232Y-55756000D03*
D28*
X190872232Y-52306000D03*
D26*
X191372232Y-81966000D03*
D27*
X191372232Y-78516000D03*
X191372232Y-75256000D03*
D28*
X191372232Y-71806000D03*
D26*
X191372232Y-101092000D03*
D27*
X191372232Y-97642000D03*
X191372232Y-94382000D03*
D28*
X191372232Y-90932000D03*
D26*
X191372232Y-120142000D03*
D27*
X191372232Y-116692000D03*
X191372232Y-113432000D03*
D28*
X191372232Y-109982000D03*
D26*
X186532232Y-62256000D03*
D29*
X183082232Y-62256000D03*
X179822232Y-62256000D03*
D28*
X176372232Y-62256000D03*
D26*
X186322232Y-81256000D03*
D29*
X182872232Y-81256000D03*
X179612232Y-81256000D03*
D28*
X176162232Y-81256000D03*
D26*
X186082232Y-100256000D03*
D29*
X182632232Y-100256000D03*
X179372232Y-100256000D03*
D28*
X175922232Y-100256000D03*
D26*
X172372232Y-112649000D03*
D27*
X172372232Y-109199000D03*
X172372232Y-105939000D03*
D28*
X172372232Y-102489000D03*
D26*
X172372232Y-77356000D03*
D27*
X172372232Y-73906000D03*
X172372232Y-70646000D03*
D28*
X172372232Y-67196000D03*
D26*
X153372232Y-80772000D03*
D27*
X153372232Y-77322000D03*
X153372232Y-74062000D03*
D28*
X153372232Y-70612000D03*
D26*
X167082232Y-98256000D03*
D29*
X163632232Y-98256000D03*
X160372232Y-98256000D03*
D28*
X156922232Y-98256000D03*
D26*
X133872232Y-61087000D03*
D27*
X133872232Y-57637000D03*
X133872232Y-54377000D03*
D28*
X133872232Y-50927000D03*
D26*
X153372232Y-97134000D03*
D27*
X153372232Y-93684000D03*
X153372232Y-90424000D03*
D28*
X153372232Y-86974000D03*
D26*
X133872232Y-115466000D03*
D27*
X133872232Y-112016000D03*
X133872232Y-108756000D03*
D28*
X133872232Y-105306000D03*
D26*
X129082232Y-64256000D03*
D29*
X125632232Y-64256000D03*
X122372232Y-64256000D03*
D28*
X118922232Y-64256000D03*
D26*
X133872232Y-80966000D03*
D27*
X133872232Y-77516000D03*
X133872232Y-74256000D03*
D28*
X133872232Y-70806000D03*
D26*
X133872232Y-97966000D03*
D27*
X133872232Y-94516000D03*
X133872232Y-91256000D03*
D28*
X133872232Y-87806000D03*
D26*
X129082232Y-103256000D03*
D29*
X125632232Y-103256000D03*
X122372232Y-103256000D03*
D28*
X118922232Y-103256000D03*
D26*
X115372232Y-79883000D03*
D27*
X115372232Y-76433000D03*
X115372232Y-73173000D03*
D28*
X115372232Y-69723000D03*
D26*
X115372232Y-94966000D03*
D27*
X115372232Y-91516000D03*
X115372232Y-88256000D03*
D28*
X115372232Y-84806000D03*
D26*
X115372232Y-108458000D03*
D27*
X115372232Y-105008000D03*
X115372232Y-101748000D03*
D28*
X115372232Y-98298000D03*
D26*
X114872232Y-123706000D03*
D27*
X114872232Y-120256000D03*
X114872232Y-116996000D03*
D28*
X114872232Y-113546000D03*
D26*
X224822232Y-124256000D03*
D29*
X221372232Y-124256000D03*
X218112232Y-124256000D03*
D28*
X214662232Y-124256000D03*
D26*
X191372232Y-134966000D03*
D27*
X191372232Y-131516000D03*
X191372232Y-128256000D03*
D28*
X191372232Y-124806000D03*
D26*
X185822232Y-138256000D03*
D29*
X182372232Y-138256000D03*
X179112232Y-138256000D03*
D28*
X175662232Y-138256000D03*
D30*
X122884444Y-128981000D03*
D31*
X125872232Y-127256000D03*
X128695474Y-125626000D03*
D32*
X131683262Y-123901000D03*
D33*
X124227232Y-138067030D03*
D34*
X122502232Y-135079242D03*
X120872232Y-132256000D03*
D35*
X119147232Y-129268212D03*
D36*
X95479772Y-130510189D03*
D37*
X82281545Y-138130189D03*
D36*
X107417772Y-151187411D03*
D37*
X94219545Y-158807411D03*
D26*
X172372232Y-132440000D03*
D27*
X172372232Y-128990000D03*
X172372232Y-125730000D03*
D28*
X172372232Y-122280000D03*
D26*
X167082232Y-78756000D03*
D29*
X163632232Y-78756000D03*
X160372232Y-78756000D03*
D28*
X156922232Y-78756000D03*
D26*
X148582232Y-81256000D03*
D29*
X145132232Y-81256000D03*
X141872232Y-81256000D03*
D28*
X138422232Y-81256000D03*
%LPD*%
M02*
