G04 #@! TF.GenerationSoftware,KiCad,Pcbnew,10.0.3*
G04 #@! TF.CreationDate,2026-07-01T15:31:38+09:00*
G04 #@! TF.ProjectId,ergodash,6572676f-6461-4736-982e-6b696361645f,2.1*
G04 #@! TF.SameCoordinates,Original*
G04 #@! TF.FileFunction,Soldermask,Bot*
G04 #@! TF.FilePolarity,Negative*
%FSLAX46Y46*%
G04 Gerber Fmt 4.6, Leading zero omitted, Abs format (unit mm)*
G04 Created by KiCad (PCBNEW 10.0.3) date 2026-07-01 15:31:38*
%MOMM*%
%LPD*%
G01*
G04 APERTURE LIST*
G04 Aperture macros list*
%AMHorizOval*
0 Thick line with rounded ends*
0 $1 width*
0 $2 $3 position (X,Y) of the first rounded end (center of the circle)*
0 $4 $5 position (X,Y) of the second rounded end (center of the circle)*
0 Add line between two ends*
20,1,$1,$2,$3,$4,$5,0*
0 Add two circle primitives to create the rounded ends*
1,1,$1,$2,$3*
1,1,$1,$4,$5*%
%AMRotRect*
0 Rectangle, with rotation*
0 The origin of the aperture is its center*
0 $1 length*
0 $2 width*
0 $3 Rotation angle, in degrees counterclockwise*
0 Add horizontal line*
21,1,$1,$2,0,0,$3*%
G04 Aperture macros list end*
%ADD10C,1.524000*%
%ADD11C,1.800000*%
%ADD12C,5.000000*%
%ADD13C,1.210000*%
%ADD14O,1.300000X2.200000*%
%ADD15RotRect,1.600000X1.600000X330.000000*%
%ADD16RotRect,1.600000X1.200000X330.000000*%
%ADD17HorizOval,1.600000X0.000000X0.000000X0.000000X0.000000X0*%
%ADD18R,1.600000X1.600000*%
%ADD19R,1.200000X1.600000*%
%ADD20O,1.600000X1.600000*%
%ADD21R,1.600000X1.200000*%
%ADD22RotRect,1.600000X1.600000X150.000000*%
%ADD23RotRect,1.600000X1.200000X150.000000*%
%ADD24HorizOval,1.600000X0.000000X0.000000X0.000000X0.000000X0*%
%ADD25RotRect,1.600000X1.600000X60.000000*%
%ADD26RotRect,1.600000X1.200000X60.000000*%
%ADD27HorizOval,1.600000X0.000000X0.000000X0.000000X0.000000X0*%
%ADD28C,3.048000*%
%ADD29C,3.987800*%
%ADD30C,1.750000*%
%ADD31C,4.000000*%
%ADD32C,3.600000*%
G04 APERTURE END LIST*
D10*
X141518000Y-39624000D03*
X146518000Y-39624000D03*
D11*
X140518000Y-42124000D03*
X147518000Y-42124000D03*
D12*
X134620000Y-81788000D03*
X191770000Y-65024000D03*
X185801000Y-124714000D03*
X96520000Y-67564000D03*
X96520000Y-124968000D03*
D13*
X197072000Y-46204000D03*
X193072000Y-46204000D03*
X197072000Y-53204000D03*
X193072000Y-53204000D03*
D14*
X195072000Y-55004000D03*
X195072000Y-48004000D03*
X195072000Y-51004000D03*
X191072000Y-56504000D03*
X199072000Y-56504000D03*
D12*
X135128000Y-117348000D03*
X128397000Y-42672000D03*
D15*
X199561271Y-155206000D03*
D16*
X202549059Y-156931000D03*
X205372301Y-158561000D03*
D17*
X208360089Y-160286000D03*
D18*
X96978000Y-62992000D03*
D19*
X96978000Y-59542000D03*
X96978000Y-56282000D03*
D20*
X96978000Y-52832000D03*
D18*
X96978000Y-82169000D03*
D19*
X96978000Y-78719000D03*
X96978000Y-75459000D03*
D20*
X96978000Y-72009000D03*
D18*
X96478000Y-101356000D03*
D19*
X96478000Y-97906000D03*
X96478000Y-94646000D03*
D20*
X96478000Y-91196000D03*
D18*
X96978000Y-119856000D03*
D19*
X96978000Y-116406000D03*
X96978000Y-113146000D03*
D20*
X96978000Y-109696000D03*
D18*
X115978000Y-62356000D03*
D19*
X115978000Y-58906000D03*
X115978000Y-55646000D03*
D20*
X115978000Y-52196000D03*
D18*
X115978000Y-81966000D03*
D19*
X115978000Y-78516000D03*
X115978000Y-75256000D03*
D20*
X115978000Y-71806000D03*
D18*
X116478000Y-100356000D03*
D19*
X116478000Y-96906000D03*
X116478000Y-93646000D03*
D20*
X116478000Y-90196000D03*
D18*
X115978000Y-120142000D03*
D19*
X115978000Y-116692000D03*
X115978000Y-113432000D03*
D20*
X115978000Y-109982000D03*
D18*
X130078000Y-62256000D03*
D21*
X126628000Y-62256000D03*
X123368000Y-62256000D03*
D20*
X119918000Y-62256000D03*
D18*
X129578000Y-80256000D03*
D21*
X126128000Y-80256000D03*
X122868000Y-80256000D03*
D20*
X119418000Y-80256000D03*
D18*
X130078000Y-100256000D03*
D21*
X126628000Y-100256000D03*
X123368000Y-100256000D03*
D20*
X119918000Y-100256000D03*
D18*
X134978000Y-111856000D03*
D19*
X134978000Y-108406000D03*
X134978000Y-105146000D03*
D20*
X134978000Y-101696000D03*
D18*
X135978000Y-60356000D03*
D19*
X135978000Y-56906000D03*
X135978000Y-53646000D03*
D20*
X135978000Y-50196000D03*
D18*
X153978000Y-81256000D03*
D19*
X153978000Y-77806000D03*
X153978000Y-74546000D03*
D20*
X153978000Y-71096000D03*
D18*
X148578000Y-98756000D03*
D21*
X145128000Y-98756000D03*
X141868000Y-98756000D03*
D20*
X138418000Y-98756000D03*
D18*
X173978000Y-63856000D03*
D19*
X173978000Y-60406000D03*
X173978000Y-57146000D03*
D20*
X173978000Y-53696000D03*
D18*
X153978000Y-97134000D03*
D19*
X153978000Y-93684000D03*
X153978000Y-90424000D03*
D20*
X153978000Y-86974000D03*
D18*
X173478000Y-115356000D03*
D19*
X173478000Y-111906000D03*
X173478000Y-108646000D03*
D20*
X173478000Y-105196000D03*
D18*
X187478000Y-64256000D03*
D21*
X184028000Y-64256000D03*
X180768000Y-64256000D03*
D20*
X177318000Y-64256000D03*
D18*
X172478000Y-80966000D03*
D19*
X172478000Y-77516000D03*
X172478000Y-74256000D03*
D20*
X172478000Y-70806000D03*
D18*
X173478000Y-97966000D03*
D19*
X173478000Y-94516000D03*
X173478000Y-91256000D03*
D20*
X173478000Y-87806000D03*
D18*
X187478000Y-103256000D03*
D21*
X184028000Y-103256000D03*
X180768000Y-103256000D03*
D20*
X177318000Y-103256000D03*
D18*
X192478000Y-80356000D03*
D19*
X192478000Y-76906000D03*
X192478000Y-73646000D03*
D20*
X192478000Y-70196000D03*
D18*
X192478000Y-93856000D03*
D19*
X192478000Y-90406000D03*
X192478000Y-87146000D03*
D20*
X192478000Y-83696000D03*
D18*
X191478000Y-106856000D03*
D19*
X191478000Y-103406000D03*
X191478000Y-100146000D03*
D20*
X191478000Y-96696000D03*
D18*
X189978000Y-123356000D03*
D19*
X189978000Y-119906000D03*
X189978000Y-116646000D03*
D20*
X189978000Y-113196000D03*
D18*
X92078000Y-124756000D03*
D21*
X88628000Y-124756000D03*
X85368000Y-124756000D03*
D20*
X81918000Y-124756000D03*
D18*
X115978000Y-134856000D03*
D19*
X115978000Y-131406000D03*
X115978000Y-128146000D03*
D20*
X115978000Y-124696000D03*
D18*
X130078000Y-138256000D03*
D21*
X126628000Y-138256000D03*
X123368000Y-138256000D03*
D20*
X119918000Y-138256000D03*
D22*
X180978000Y-124756000D03*
D23*
X177990212Y-123031000D03*
X175166970Y-121401000D03*
D24*
X172179182Y-119676000D03*
D25*
X185428000Y-136172730D03*
D26*
X187153000Y-133184942D03*
X188783000Y-130361700D03*
D27*
X190508000Y-127373912D03*
D28*
X224068687Y-138130189D03*
D29*
X210870460Y-130510189D03*
D28*
X212130687Y-158807411D03*
D29*
X198932460Y-151187411D03*
D18*
X134978000Y-132756000D03*
D19*
X134978000Y-129306000D03*
X134978000Y-126046000D03*
D20*
X134978000Y-122596000D03*
D18*
X150078000Y-78756000D03*
D21*
X146628000Y-78756000D03*
X143368000Y-78756000D03*
D20*
X139918000Y-78756000D03*
D18*
X168078000Y-81256000D03*
D21*
X164628000Y-81256000D03*
X161368000Y-81256000D03*
D20*
X157918000Y-81256000D03*
D10*
X170815000Y-39370000D03*
X170815000Y-41910000D03*
X170815000Y-44450000D03*
X170815000Y-46990000D03*
X170815000Y-49530000D03*
X170815000Y-52070000D03*
X170815000Y-54610000D03*
X170815000Y-57150000D03*
X170815000Y-59690000D03*
X170815000Y-62230000D03*
X170815000Y-64770000D03*
X170815000Y-67310000D03*
X155575000Y-67310000D03*
X155575000Y-64770000D03*
X155575000Y-62230000D03*
X155575000Y-59690000D03*
X155575000Y-57150000D03*
X155575000Y-54610000D03*
X155575000Y-52070000D03*
X155575000Y-49530000D03*
X155575000Y-46990000D03*
X155575000Y-44450000D03*
X155575000Y-41910000D03*
X155575000Y-39370000D03*
D30*
X92075000Y-57975500D03*
D31*
X86995000Y-57975500D03*
D30*
X81915000Y-57975500D03*
D32*
X90805000Y-55435500D03*
X84455000Y-52895500D03*
D30*
X92075000Y-77025500D03*
D31*
X86995000Y-77025500D03*
D30*
X81915000Y-77025500D03*
D32*
X90805000Y-74485500D03*
X84455000Y-71945500D03*
D30*
X92075000Y-96075500D03*
D31*
X86995000Y-96075500D03*
D30*
X81915000Y-96075500D03*
D32*
X90805000Y-93535500D03*
X84455000Y-90995500D03*
D30*
X92075000Y-115125500D03*
D31*
X86995000Y-115125500D03*
D30*
X81915000Y-115125500D03*
D32*
X90805000Y-112585500D03*
X84455000Y-110045500D03*
D30*
X111125000Y-57975500D03*
D31*
X106045000Y-57975500D03*
D30*
X100965000Y-57975500D03*
D32*
X109855000Y-55435500D03*
X103505000Y-52895500D03*
D30*
X111125000Y-77025500D03*
D31*
X106045000Y-77025500D03*
D30*
X100965000Y-77025500D03*
D32*
X109855000Y-74485500D03*
X103505000Y-71945500D03*
D30*
X111125000Y-96075500D03*
D31*
X106045000Y-96075500D03*
D30*
X100965000Y-96075500D03*
D32*
X109855000Y-93535500D03*
X103505000Y-90995500D03*
D30*
X111125000Y-115125500D03*
D31*
X106045000Y-115125500D03*
D30*
X100965000Y-115125500D03*
D32*
X109855000Y-112585500D03*
X103505000Y-110045500D03*
D30*
X130175000Y-53213000D03*
D31*
X125095000Y-53213000D03*
D30*
X120015000Y-53213000D03*
D32*
X128905000Y-50673000D03*
X122555000Y-48133000D03*
D30*
X130175000Y-72263000D03*
D31*
X125095000Y-72263000D03*
D30*
X120015000Y-72263000D03*
D32*
X128905000Y-69723000D03*
X122555000Y-67183000D03*
D30*
X130175000Y-91313000D03*
D31*
X125095000Y-91313000D03*
D30*
X120015000Y-91313000D03*
D32*
X128905000Y-88773000D03*
X122555000Y-86233000D03*
D30*
X130175000Y-110363000D03*
D31*
X125095000Y-110363000D03*
D30*
X120015000Y-110363000D03*
D32*
X128905000Y-107823000D03*
X122555000Y-105283000D03*
D30*
X149225000Y-50831750D03*
D31*
X144145000Y-50831750D03*
D30*
X139065000Y-50831750D03*
D32*
X147955000Y-48291750D03*
X141605000Y-45751750D03*
D30*
X149225000Y-69881750D03*
D31*
X144145000Y-69881750D03*
D30*
X139065000Y-69881750D03*
D32*
X147955000Y-67341750D03*
X141605000Y-64801750D03*
D30*
X149225000Y-88931750D03*
D31*
X144145000Y-88931750D03*
D30*
X139065000Y-88931750D03*
D32*
X147955000Y-86391750D03*
X141605000Y-83851750D03*
D30*
X149225000Y-107981750D03*
D31*
X144145000Y-107981750D03*
D30*
X139065000Y-107981750D03*
D32*
X147955000Y-105441750D03*
X141605000Y-102901750D03*
D30*
X163195000Y-48133000D03*
D31*
X163195000Y-53213000D03*
D30*
X163195000Y-58293000D03*
D32*
X160655000Y-49403000D03*
X158115000Y-55753000D03*
D30*
X163195000Y-67183000D03*
D31*
X163195000Y-72263000D03*
D30*
X163195000Y-77343000D03*
D32*
X160655000Y-68453000D03*
X158115000Y-74803000D03*
D30*
X168275000Y-91313000D03*
D31*
X163195000Y-91313000D03*
D30*
X158115000Y-91313000D03*
D32*
X167005000Y-88773000D03*
X160655000Y-86233000D03*
D30*
X168275000Y-110363000D03*
D31*
X163195000Y-110363000D03*
D30*
X158115000Y-110363000D03*
D32*
X167005000Y-107823000D03*
X160655000Y-105283000D03*
D30*
X187325000Y-55594250D03*
D31*
X182245000Y-55594250D03*
D30*
X177165000Y-55594250D03*
D32*
X186055000Y-53054250D03*
X179705000Y-50514250D03*
D30*
X187325000Y-74644250D03*
D31*
X182245000Y-74644250D03*
D30*
X177165000Y-74644250D03*
D32*
X186055000Y-72104250D03*
X179705000Y-69564250D03*
D30*
X187325000Y-93694250D03*
D31*
X182245000Y-93694250D03*
D30*
X177165000Y-93694250D03*
D32*
X186055000Y-91154250D03*
X179705000Y-88614250D03*
D30*
X187325000Y-112744250D03*
D31*
X182245000Y-112744250D03*
D30*
X177165000Y-112744250D03*
D32*
X186055000Y-110204250D03*
X179705000Y-107664250D03*
D30*
X206375000Y-65119250D03*
D31*
X201295000Y-65119250D03*
D30*
X196215000Y-65119250D03*
D32*
X205105000Y-62579250D03*
X198755000Y-60039250D03*
D30*
X206375000Y-84169250D03*
D31*
X201295000Y-84169250D03*
D30*
X196215000Y-84169250D03*
D32*
X205105000Y-81629250D03*
X198755000Y-79089250D03*
D30*
X206375000Y-103219250D03*
D31*
X201295000Y-103219250D03*
D30*
X196215000Y-103219250D03*
D32*
X205105000Y-100679250D03*
X198755000Y-98139250D03*
D30*
X197775000Y-131601709D03*
D31*
X200315000Y-127202300D03*
D30*
X202855000Y-122802891D03*
D32*
X200609705Y-131771857D03*
X205984409Y-127542595D03*
D30*
X92075000Y-134175500D03*
D31*
X86995000Y-134175500D03*
D30*
X81915000Y-134175500D03*
D32*
X90805000Y-131635500D03*
X84455000Y-129095500D03*
D30*
X111125000Y-134175500D03*
D31*
X106045000Y-134175500D03*
D30*
X100965000Y-134175500D03*
D32*
X109855000Y-131635500D03*
X103505000Y-129095500D03*
D30*
X130175000Y-129413000D03*
D31*
X125095000Y-129413000D03*
D30*
X120015000Y-129413000D03*
D32*
X128905000Y-126873000D03*
X122555000Y-124333000D03*
D30*
X149225000Y-127031750D03*
D31*
X144145000Y-127031750D03*
D30*
X139065000Y-127031750D03*
D32*
X147955000Y-124491750D03*
X141605000Y-121951750D03*
D30*
X178691409Y-136715250D03*
D31*
X174292000Y-134175250D03*
D30*
X169892591Y-131635250D03*
D32*
X178861557Y-133880545D03*
X174632295Y-128505841D03*
D30*
X195189409Y-146240300D03*
D31*
X190790000Y-143700300D03*
D30*
X186390591Y-141160300D03*
D32*
X195359557Y-143405595D03*
X191130295Y-138030891D03*
D30*
X209510500Y-149375709D03*
D31*
X212050500Y-144976300D03*
D30*
X214590500Y-140576891D03*
D32*
X212345205Y-149545857D03*
X217719909Y-145316595D03*
M02*
