M48
; DRILL file KiCad 10.0.3 date 2026-06-20T23:32:22
; FORMAT={-:-/ absolute / metric / decimal}
; #@! TF.CreationDate,2026-06-20T23:32:22+09:00
; #@! TF.GenerationSoftware,Kicad,Pcbnew,10.0.3
; #@! TF.FileFunction,NonPlated,1,2,NPTH
FMAT,2
METRIC
; #@! TA.AperFunction,NonPlated,NPTH,ComponentDrill
T1C1.200
; #@! TA.AperFunction,NonPlated,NPTH,ComponentDrill
T2C1.750
; #@! TA.AperFunction,NonPlated,NPTH,ComponentDrill
T3C3.048
; #@! TA.AperFunction,NonPlated,NPTH,ComponentDrill
T4C3.988
; #@! TA.AperFunction,NonPlated,NPTH,ComponentDrill
T5C4.000
; #@! TA.AperFunction,NonPlated,NPTH,ComponentDrill
T6C5.000
%
G90
G05
T1
X193.072Y-46.204
X193.072Y-53.204
X197.072Y-46.204
X197.072Y-53.204
T2
X81.915Y-57.975
X81.915Y-77.025
X81.915Y-96.075
X81.915Y-115.125
X81.915Y-134.175
X92.075Y-57.975
X92.075Y-77.025
X92.075Y-96.075
X92.075Y-115.125
X92.075Y-134.175
X100.965Y-57.975
X100.965Y-77.025
X100.965Y-96.075
X100.965Y-115.125
X100.965Y-134.175
X111.125Y-57.975
X111.125Y-77.025
X111.125Y-96.075
X111.125Y-115.125
X111.125Y-134.175
X120.015Y-53.213
X120.015Y-72.263
X120.015Y-91.313
X120.015Y-110.363
X120.015Y-129.413
X130.175Y-53.213
X130.175Y-72.263
X130.175Y-91.313
X130.175Y-110.363
X130.175Y-129.413
X139.065Y-50.832
X139.065Y-69.882
X139.065Y-88.932
X139.065Y-107.982
X139.065Y-127.032
X149.225Y-50.832
X149.225Y-69.882
X149.225Y-88.932
X149.225Y-107.982
X149.225Y-127.032
X158.115Y-91.313
X158.115Y-110.363
X163.195Y-48.133
X163.195Y-58.293
X163.195Y-67.183
X163.195Y-77.343
X168.275Y-91.313
X168.275Y-110.363
X171.752Y-129.776
X176.832Y-138.575
X177.165Y-55.594
X177.165Y-74.644
X177.165Y-93.694
X177.165Y-112.744
X186.391Y-146.24
X187.325Y-55.594
X187.325Y-74.644
X187.325Y-93.694
X187.325Y-112.744
X195.189Y-141.16
X196.215Y-65.119
X196.215Y-84.169
X196.215Y-103.219
X197.775Y-122.803
X202.855Y-131.602
X206.375Y-65.119
X206.375Y-84.169
X206.375Y-103.219
X209.51Y-140.577
X214.59Y-149.376
T3
X212.131Y-158.807
X224.069Y-138.13
T4
X198.932Y-151.187
X210.87Y-130.51
T5
X86.995Y-57.975
X86.995Y-77.025
X86.995Y-96.075
X86.995Y-115.125
X86.995Y-134.175
X106.045Y-57.975
X106.045Y-77.025
X106.045Y-96.075
X106.045Y-115.125
X106.045Y-134.175
X125.095Y-53.213
X125.095Y-72.263
X125.095Y-91.313
X125.095Y-110.363
X125.095Y-129.413
X144.145Y-50.832
X144.145Y-69.882
X144.145Y-88.932
X144.145Y-107.982
X144.145Y-127.032
X163.195Y-53.213
X163.195Y-72.263
X163.195Y-91.313
X163.195Y-110.363
X174.292Y-134.175
X182.245Y-55.594
X182.245Y-74.644
X182.245Y-93.694
X182.245Y-112.744
X190.79Y-143.7
X200.315Y-127.202
X201.295Y-65.119
X201.295Y-84.169
X201.295Y-103.219
X212.05Y-144.976
T6
X96.52Y-67.564
X96.52Y-124.968
X128.397Y-42.672
X134.62Y-81.788
X135.128Y-117.348
X185.801Y-124.714
X191.77Y-65.024
M30
