G04 #@! TF.GenerationSoftware,KiCad,Pcbnew,10.0.3*
G04 #@! TF.CreationDate,2026-06-14T14:45:17+09:00*
G04 #@! TF.ProjectId,ergodash,6572676f-6461-4736-982e-6b696361645f,2.1*
G04 #@! TF.SameCoordinates,Original*
G04 #@! TF.FileFunction,Soldermask,Bot*
G04 #@! TF.FilePolarity,Negative*
%FSLAX46Y46*%
G04 Gerber Fmt 4.6, Leading zero omitted, Abs format (unit mm)*
G04 Created by KiCad (PCBNEW 10.0.3) date 2026-06-14 14:45:17*
%MOMM*%
%LPD*%
G01*
G04 APERTURE LIST*
G04 Aperture macros list*
%AMHorizOval*
0 Thick line with rounded ends*
0 $1 width*
0 $2 $3 position (X,Y) of the first rounded end (center of the circle)*
0 $4 $5 position (X,Y) of the second rounded end (center of the circle)*
0 Add line between two ends*
20,1,$1,$2,$3,$4,$5,0*
0 Add two circle primitives to create the rounded ends*
1,1,$1,$2,$3*
1,1,$1,$4,$5*%
%AMRotRect*
0 Rectangle, with rotation*
0 The origin of the aperture is its center*
0 $1 length*
0 $2 width*
0 $3 Rotation angle, in degrees counterclockwise*
0 Add horizontal line*
21,1,$1,$2,0,0,$3*%
G04 Aperture macros list end*
%ADD10C,1.524000*%
%ADD11C,1.800000*%
%ADD12C,5.000000*%
%ADD13C,1.210000*%
%ADD14O,1.300000X2.200000*%
%ADD15RotRect,1.600000X1.600000X210.000000*%
%ADD16RotRect,1.600000X1.200000X210.000000*%
%ADD17HorizOval,1.600000X0.000000X0.000000X0.000000X0.000000X0*%
%ADD18C,1.750000*%
%ADD19C,4.000000*%
%ADD20C,3.600000*%
%ADD21R,1.600000X1.600000*%
%ADD22R,1.200000X1.600000*%
%ADD23O,1.600000X1.600000*%
%ADD24R,1.600000X1.200000*%
%ADD25RotRect,1.600000X1.600000X30.000000*%
%ADD26RotRect,1.600000X1.200000X30.000000*%
%ADD27HorizOval,1.600000X0.000000X0.000000X0.000000X0.000000X0*%
%ADD28RotRect,1.600000X1.600000X120.000000*%
%ADD29RotRect,1.600000X1.200000X120.000000*%
%ADD30HorizOval,1.600000X0.000000X0.000000X0.000000X0.000000X0*%
%ADD31C,3.987800*%
%ADD32C,3.048000*%
G04 APERTURE END LIST*
D10*
X146036232Y-39624000D03*
X141036232Y-39624000D03*
D11*
X147036232Y-42124000D03*
X140036232Y-42124000D03*
D12*
X171730232Y-81788000D03*
X114580232Y-65024000D03*
X120549232Y-124714000D03*
X209830232Y-67564000D03*
X209830232Y-124968000D03*
D13*
X113278232Y-46204000D03*
X109278232Y-46204000D03*
X113278232Y-53204000D03*
X109278232Y-53204000D03*
D14*
X111278232Y-55004000D03*
X111278232Y-48004000D03*
X111278232Y-51004000D03*
X115278232Y-56504000D03*
X107278232Y-56504000D03*
D12*
X171222232Y-117348000D03*
X177953232Y-42672000D03*
D10*
X169825232Y-39370000D03*
X169825232Y-41910000D03*
X169825232Y-44450000D03*
X169825232Y-46990000D03*
X169825232Y-49530000D03*
X169825232Y-52070000D03*
X169825232Y-54610000D03*
X169825232Y-57150000D03*
X169825232Y-59690000D03*
X169825232Y-62230000D03*
X169825232Y-64770000D03*
X169825232Y-67310000D03*
X154585232Y-67310000D03*
X154585232Y-64770000D03*
X154585232Y-62230000D03*
X154585232Y-59690000D03*
X154585232Y-57150000D03*
X154585232Y-54610000D03*
X154585232Y-52070000D03*
X154585232Y-49530000D03*
X154585232Y-46990000D03*
X154585232Y-44450000D03*
X154585232Y-41910000D03*
X154585232Y-39370000D03*
D15*
X103872232Y-151256000D03*
D16*
X100884444Y-152981000D03*
X98061202Y-154611000D03*
D17*
X95073414Y-156336000D03*
D18*
X224435232Y-57975500D03*
D19*
X219355232Y-57975500D03*
D18*
X214275232Y-57975500D03*
D20*
X223165232Y-55435500D03*
X216815232Y-52895500D03*
D18*
X224435232Y-77025500D03*
D19*
X219355232Y-77025500D03*
D18*
X214275232Y-77025500D03*
D20*
X223165232Y-74485500D03*
X216815232Y-71945500D03*
D18*
X224435232Y-96075500D03*
D19*
X219355232Y-96075500D03*
D18*
X214275232Y-96075500D03*
D20*
X223165232Y-93535500D03*
X216815232Y-90995500D03*
D18*
X224435232Y-115125500D03*
D19*
X219355232Y-115125500D03*
D18*
X214275232Y-115125500D03*
D20*
X223165232Y-112585500D03*
X216815232Y-110045500D03*
D18*
X205385232Y-57975500D03*
D19*
X200305232Y-57975500D03*
D18*
X195225232Y-57975500D03*
D20*
X204115232Y-55435500D03*
X197765232Y-52895500D03*
D18*
X205385232Y-77025500D03*
D19*
X200305232Y-77025500D03*
D18*
X195225232Y-77025500D03*
D20*
X204115232Y-74485500D03*
X197765232Y-71945500D03*
D18*
X205385232Y-96075500D03*
D19*
X200305232Y-96075500D03*
D18*
X195225232Y-96075500D03*
D20*
X204115232Y-93535500D03*
X197765232Y-90995500D03*
D18*
X205385232Y-115125500D03*
D19*
X200305232Y-115125500D03*
D18*
X195225232Y-115125500D03*
D20*
X204115232Y-112585500D03*
X197765232Y-110045500D03*
D18*
X186335232Y-53213000D03*
D19*
X181255232Y-53213000D03*
D18*
X176175232Y-53213000D03*
D20*
X185065232Y-50673000D03*
X178715232Y-48133000D03*
D18*
X186335232Y-72263000D03*
D19*
X181255232Y-72263000D03*
D18*
X176175232Y-72263000D03*
D20*
X185065232Y-69723000D03*
X178715232Y-67183000D03*
D18*
X186335232Y-91313000D03*
D19*
X181255232Y-91313000D03*
D18*
X176175232Y-91313000D03*
D20*
X185065232Y-88773000D03*
X178715232Y-86233000D03*
D18*
X186335232Y-110363000D03*
D19*
X181255232Y-110363000D03*
D18*
X176175232Y-110363000D03*
D20*
X185065232Y-107823000D03*
X178715232Y-105283000D03*
D18*
X162205232Y-45751750D03*
D19*
X162205232Y-50831750D03*
D18*
X162205232Y-55911750D03*
D20*
X159665232Y-47021750D03*
X157125232Y-53371750D03*
D18*
X162205232Y-64801750D03*
D19*
X162205232Y-69881750D03*
D18*
X162205232Y-74961750D03*
D20*
X159665232Y-66071750D03*
X157125232Y-72421750D03*
D18*
X167285232Y-88931750D03*
D19*
X162205232Y-88931750D03*
D18*
X157125232Y-88931750D03*
D20*
X166015232Y-86391750D03*
X159665232Y-83851750D03*
D18*
X167285232Y-107981750D03*
D19*
X162205232Y-107981750D03*
D18*
X157125232Y-107981750D03*
D20*
X166015232Y-105441750D03*
X159665232Y-102901750D03*
D18*
X148235232Y-53213000D03*
D19*
X143155232Y-53213000D03*
D18*
X138075232Y-53213000D03*
D20*
X146965232Y-50673000D03*
X140615232Y-48133000D03*
D18*
X148235232Y-72263000D03*
D19*
X143155232Y-72263000D03*
D18*
X138075232Y-72263000D03*
D20*
X146965232Y-69723000D03*
X140615232Y-67183000D03*
D18*
X148235232Y-91313000D03*
D19*
X143155232Y-91313000D03*
D18*
X138075232Y-91313000D03*
D20*
X146965232Y-88773000D03*
X140615232Y-86233000D03*
D18*
X148235232Y-110363000D03*
D19*
X143155232Y-110363000D03*
D18*
X138075232Y-110363000D03*
D20*
X146965232Y-107823000D03*
X140615232Y-105283000D03*
D18*
X129185232Y-55594250D03*
D19*
X124105232Y-55594250D03*
D18*
X119025232Y-55594250D03*
D20*
X127915232Y-53054250D03*
X121565232Y-50514250D03*
D18*
X129185232Y-74644250D03*
D19*
X124105232Y-74644250D03*
D18*
X119025232Y-74644250D03*
D20*
X127915232Y-72104250D03*
X121565232Y-69564250D03*
D18*
X129185232Y-93694250D03*
D19*
X124105232Y-93694250D03*
D18*
X119025232Y-93694250D03*
D20*
X127915232Y-91154250D03*
X121565232Y-88614250D03*
D18*
X129185232Y-112744250D03*
D19*
X124105232Y-112744250D03*
D18*
X119025232Y-112744250D03*
D20*
X127915232Y-110204250D03*
X121565232Y-107664250D03*
D18*
X110135232Y-65119250D03*
D19*
X105055232Y-65119250D03*
D18*
X99975232Y-65119250D03*
D20*
X108865232Y-62579250D03*
X102515232Y-60039250D03*
D18*
X110135232Y-84169250D03*
D19*
X105055232Y-84169250D03*
D18*
X99975232Y-84169250D03*
D20*
X108865232Y-81629250D03*
X102515232Y-79089250D03*
D18*
X110135232Y-103219250D03*
D19*
X105055232Y-103219250D03*
D18*
X99975232Y-103219250D03*
D20*
X108865232Y-100679250D03*
X102515232Y-98139250D03*
D18*
X103495232Y-122802891D03*
D19*
X106035232Y-127202300D03*
D18*
X108575232Y-131601709D03*
D20*
X101930527Y-125172743D03*
X102905823Y-131942005D03*
D18*
X224435232Y-134175500D03*
D19*
X219355232Y-134175500D03*
D18*
X214275232Y-134175500D03*
D20*
X223165232Y-131635500D03*
X216815232Y-129095500D03*
D18*
X205385232Y-134175500D03*
D19*
X200305232Y-134175500D03*
D18*
X195225232Y-134175500D03*
D20*
X204115232Y-131635500D03*
X197765232Y-129095500D03*
D18*
X186335232Y-129413000D03*
D19*
X181255232Y-129413000D03*
D18*
X176175232Y-129413000D03*
D20*
X185065232Y-126873000D03*
X178715232Y-124333000D03*
D18*
X167285232Y-127031750D03*
D19*
X162205232Y-127031750D03*
D18*
X157125232Y-127031750D03*
D20*
X166015232Y-124491750D03*
X159665232Y-121951750D03*
D18*
X134598232Y-138574659D03*
D19*
X132058232Y-134175250D03*
D18*
X129518232Y-129775841D03*
D20*
X136162937Y-136204807D03*
X135187641Y-129435545D03*
D18*
X113020232Y-139300891D03*
D19*
X115560232Y-143700300D03*
D18*
X118100232Y-148099709D03*
D20*
X111455527Y-141670743D03*
X112430823Y-148440005D03*
D18*
X96839732Y-149375709D03*
D19*
X94299732Y-144976300D03*
D18*
X91759732Y-140576891D03*
D20*
X98404437Y-147005857D03*
X97429141Y-140236595D03*
D21*
X210372232Y-62992000D03*
D22*
X210372232Y-59542000D03*
X210372232Y-56282000D03*
D23*
X210372232Y-52832000D03*
D21*
X210372232Y-82169000D03*
D22*
X210372232Y-78719000D03*
X210372232Y-75459000D03*
D23*
X210372232Y-72009000D03*
D21*
X210372232Y-101092000D03*
D22*
X210372232Y-97642000D03*
X210372232Y-94382000D03*
D23*
X210372232Y-90932000D03*
D21*
X210372232Y-120121000D03*
D22*
X210372232Y-116671000D03*
X210372232Y-113411000D03*
D23*
X210372232Y-109961000D03*
D21*
X190872232Y-62466000D03*
D22*
X190872232Y-59016000D03*
X190872232Y-55756000D03*
D23*
X190872232Y-52306000D03*
D21*
X191372232Y-81966000D03*
D22*
X191372232Y-78516000D03*
X191372232Y-75256000D03*
D23*
X191372232Y-71806000D03*
D21*
X191372232Y-101092000D03*
D22*
X191372232Y-97642000D03*
X191372232Y-94382000D03*
D23*
X191372232Y-90932000D03*
D21*
X191372232Y-120142000D03*
D22*
X191372232Y-116692000D03*
X191372232Y-113432000D03*
D23*
X191372232Y-109982000D03*
D21*
X186532232Y-62256000D03*
D24*
X183082232Y-62256000D03*
X179822232Y-62256000D03*
D23*
X176372232Y-62256000D03*
D21*
X186322232Y-81256000D03*
D24*
X182872232Y-81256000D03*
X179612232Y-81256000D03*
D23*
X176162232Y-81256000D03*
D21*
X186082232Y-100256000D03*
D24*
X182632232Y-100256000D03*
X179372232Y-100256000D03*
D23*
X175922232Y-100256000D03*
D21*
X172372232Y-112649000D03*
D22*
X172372232Y-109199000D03*
X172372232Y-105939000D03*
D23*
X172372232Y-102489000D03*
D21*
X172372232Y-77356000D03*
D22*
X172372232Y-73906000D03*
X172372232Y-70646000D03*
D23*
X172372232Y-67196000D03*
D21*
X153372232Y-80772000D03*
D22*
X153372232Y-77322000D03*
X153372232Y-74062000D03*
D23*
X153372232Y-70612000D03*
D21*
X167082232Y-98256000D03*
D24*
X163632232Y-98256000D03*
X160372232Y-98256000D03*
D23*
X156922232Y-98256000D03*
D21*
X133872232Y-61087000D03*
D22*
X133872232Y-57637000D03*
X133872232Y-54377000D03*
D23*
X133872232Y-50927000D03*
D21*
X153372232Y-97134000D03*
D22*
X153372232Y-93684000D03*
X153372232Y-90424000D03*
D23*
X153372232Y-86974000D03*
D21*
X133872232Y-115466000D03*
D22*
X133872232Y-112016000D03*
X133872232Y-108756000D03*
D23*
X133872232Y-105306000D03*
D21*
X129082232Y-64256000D03*
D24*
X125632232Y-64256000D03*
X122372232Y-64256000D03*
D23*
X118922232Y-64256000D03*
D21*
X133872232Y-80966000D03*
D22*
X133872232Y-77516000D03*
X133872232Y-74256000D03*
D23*
X133872232Y-70806000D03*
D21*
X133872232Y-97966000D03*
D22*
X133872232Y-94516000D03*
X133872232Y-91256000D03*
D23*
X133872232Y-87806000D03*
D21*
X129082232Y-103256000D03*
D24*
X125632232Y-103256000D03*
X122372232Y-103256000D03*
D23*
X118922232Y-103256000D03*
D21*
X115372232Y-79883000D03*
D22*
X115372232Y-76433000D03*
X115372232Y-73173000D03*
D23*
X115372232Y-69723000D03*
D21*
X115372232Y-94966000D03*
D22*
X115372232Y-91516000D03*
X115372232Y-88256000D03*
D23*
X115372232Y-84806000D03*
D21*
X115372232Y-108458000D03*
D22*
X115372232Y-105008000D03*
X115372232Y-101748000D03*
D23*
X115372232Y-98298000D03*
D21*
X114872232Y-123706000D03*
D22*
X114872232Y-120256000D03*
X114872232Y-116996000D03*
D23*
X114872232Y-113546000D03*
D21*
X224822232Y-124256000D03*
D24*
X221372232Y-124256000D03*
X218112232Y-124256000D03*
D23*
X214662232Y-124256000D03*
D21*
X191372232Y-134966000D03*
D22*
X191372232Y-131516000D03*
X191372232Y-128256000D03*
D23*
X191372232Y-124806000D03*
D21*
X185822232Y-138256000D03*
D24*
X182372232Y-138256000D03*
X179112232Y-138256000D03*
D23*
X175662232Y-138256000D03*
D25*
X122884444Y-128981000D03*
D26*
X125872232Y-127256000D03*
X128695474Y-125626000D03*
D27*
X131683262Y-123901000D03*
D28*
X124227232Y-138067030D03*
D29*
X122502232Y-135079242D03*
X120872232Y-132256000D03*
D30*
X119147232Y-129268212D03*
D31*
X95479772Y-130510189D03*
D32*
X82281545Y-138130189D03*
D31*
X107417772Y-151187411D03*
D32*
X94219545Y-158807411D03*
D21*
X172372232Y-132440000D03*
D22*
X172372232Y-128990000D03*
X172372232Y-125730000D03*
D23*
X172372232Y-122280000D03*
D21*
X167082232Y-78756000D03*
D24*
X163632232Y-78756000D03*
X160372232Y-78756000D03*
D23*
X156922232Y-78756000D03*
D21*
X148582232Y-81256000D03*
D24*
X145132232Y-81256000D03*
X141872232Y-81256000D03*
D23*
X138422232Y-81256000D03*
M02*
