M48
; DRILL file KiCad 10.0.3 date 2026-06-13T18:49:48
; FORMAT={-:-/ absolute / metric / decimal}
; #@! TF.CreationDate,2026-06-13T18:49:48+09:00
; #@! TF.GenerationSoftware,Kicad,Pcbnew,10.0.3
; #@! TF.FileFunction,Plated,1,2,PTH
FMAT,2
METRIC
; #@! TA.AperFunction,Plated,PTH,ViaDrill
T1C0.400
; #@! TA.AperFunction,Plated,PTH,ComponentDrill
T2C0.400
; #@! TA.AperFunction,Plated,PTH,ComponentDrill
T3C0.600
; #@! TA.AperFunction,Plated,PTH,ComponentDrill
T4C0.762
; #@! TA.AperFunction,Plated,PTH,ComponentDrill
T5C0.800
; #@! TA.AperFunction,Plated,PTH,ComponentDrill
T6C0.813
; #@! TA.AperFunction,Plated,PTH,ComponentDrill
T7C1.300
; #@! TA.AperFunction,Plated,PTH,ComponentDrill
T8C3.050
%
G90
G05
T1
X133.477Y-93.218
X135.884Y-78.678
X138.478Y-61.756
X138.62Y-75.12
X139.478Y-59.256
X139.478Y-59.256
X140.97Y-66.256
X146.478Y-55.756
X153.162Y-55.88
X175.279Y-68.156
X178.435Y-68.256
X188.478Y-81.256
T2
X84.978Y-124.256
X88.238Y-124.256
X95.978Y-56.282
X95.978Y-59.542
X95.978Y-75.459
X95.978Y-78.719
X95.978Y-94.382
X95.978Y-97.642
X95.978Y-113.411
X95.978Y-116.671
X114.978Y-75.256
X114.978Y-78.516
X114.978Y-94.382
X114.978Y-97.642
X114.978Y-113.432
X114.978Y-116.692
X114.978Y-128.256
X114.978Y-131.516
X115.478Y-55.756
X115.478Y-59.016
X123.268Y-62.256
X123.478Y-81.256
X123.718Y-100.256
X123.978Y-138.256
X126.528Y-62.256
X126.738Y-81.256
X126.978Y-100.256
X127.238Y-138.256
X133.978Y-70.646
X133.978Y-73.906
X133.978Y-105.939
X133.978Y-109.199
X133.978Y-125.73
X133.978Y-128.99
X142.718Y-78.756
X142.718Y-98.256
X145.978Y-78.756
X145.978Y-98.256
X152.978Y-74.062
X152.978Y-77.322
X152.978Y-90.424
X152.978Y-93.684
X161.218Y-81.256
X164.478Y-81.256
X172.478Y-54.377
X172.478Y-57.637
X172.478Y-74.256
X172.478Y-77.516
X172.478Y-91.256
X172.478Y-94.516
X172.478Y-108.756
X172.478Y-112.016
X177.655Y-125.626
X180.478Y-127.256
X180.718Y-64.256
X180.718Y-103.256
X183.848Y-135.079
X183.978Y-64.256
X183.978Y-103.256
X185.478Y-132.256
X190.978Y-73.173
X190.978Y-76.433
X190.978Y-88.256
X190.978Y-91.516
X190.978Y-101.748
X190.978Y-105.008
X191.478Y-116.996
X191.478Y-120.256
X205.466Y-152.981
X208.289Y-154.611
T4
X160.314Y-39.624
X165.314Y-39.624
T5
X81.528Y-124.256
X91.688Y-124.256
X95.978Y-52.832
X95.978Y-62.992
X95.978Y-72.009
X95.978Y-82.169
X95.978Y-90.932
X95.978Y-101.092
X95.978Y-109.961
X95.978Y-120.121
X114.978Y-71.806
X114.978Y-81.966
X114.978Y-90.932
X114.978Y-101.092
X114.978Y-109.982
X114.978Y-120.142
X114.978Y-124.806
X114.978Y-134.966
X115.478Y-52.306
X115.478Y-62.466
X119.818Y-62.256
X120.028Y-81.256
X120.268Y-100.256
X120.528Y-138.256
X129.978Y-62.256
X130.188Y-81.256
X130.428Y-100.256
X130.688Y-138.256
X133.978Y-67.196
X133.978Y-77.356
X133.978Y-102.489
X133.978Y-112.649
X133.978Y-122.28
X133.978Y-132.44
X139.268Y-78.756
X139.268Y-98.256
X149.428Y-78.756
X149.428Y-98.256
X152.978Y-70.612
X152.978Y-80.772
X152.978Y-86.974
X152.978Y-97.134
X157.768Y-81.256
X167.928Y-81.256
X172.478Y-50.927
X172.478Y-61.087
X172.478Y-70.806
X172.478Y-80.966
X172.478Y-87.806
X172.478Y-97.966
X172.478Y-105.306
X172.478Y-115.466
X174.667Y-123.901
X177.268Y-64.256
X177.268Y-103.256
X182.123Y-138.067
X183.466Y-128.981
X187.203Y-129.268
X187.428Y-64.256
X187.428Y-103.256
X190.978Y-69.723
X190.978Y-79.883
X190.978Y-84.806
X190.978Y-94.966
X190.978Y-98.298
X190.978Y-108.458
X191.478Y-113.546
X191.478Y-123.706
X202.478Y-151.256
X211.277Y-156.336
T6
X136.525Y-39.37
X136.525Y-41.91
X136.525Y-44.45
X136.525Y-46.99
X136.525Y-49.53
X136.525Y-52.07
X136.525Y-54.61
X136.525Y-57.15
X136.525Y-59.69
X136.525Y-62.23
X136.525Y-64.77
X136.525Y-67.31
X151.765Y-39.37
X151.765Y-41.91
X151.765Y-44.45
X151.765Y-46.99
X151.765Y-49.53
X151.765Y-52.07
X151.765Y-54.61
X151.765Y-57.15
X151.765Y-59.69
X151.765Y-62.23
X151.765Y-64.77
X151.765Y-67.31
T7
X159.314Y-42.124
X166.314Y-42.124
T8
X83.185Y-55.435
X83.185Y-74.486
X83.185Y-93.535
X83.185Y-112.585
X83.185Y-131.636
X89.535Y-52.895
X89.535Y-71.945
X89.535Y-90.995
X89.535Y-110.045
X89.535Y-129.095
X102.235Y-55.435
X102.235Y-74.486
X102.235Y-93.535
X102.235Y-112.585
X102.235Y-131.636
X108.585Y-52.895
X108.585Y-71.945
X108.585Y-90.995
X108.585Y-110.045
X108.585Y-129.095
X121.285Y-50.673
X121.285Y-69.723
X121.285Y-88.773
X121.285Y-107.823
X121.285Y-126.873
X127.635Y-48.133
X127.635Y-67.183
X127.635Y-86.233
X127.635Y-105.283
X127.635Y-124.333
X140.335Y-86.392
X140.335Y-105.442
X140.335Y-124.492
X146.685Y-47.022
X146.685Y-66.072
X146.685Y-83.852
X146.685Y-102.902
X146.685Y-121.952
X149.225Y-53.372
X149.225Y-72.422
X159.385Y-50.673
X159.385Y-69.723
X159.385Y-88.773
X159.385Y-107.823
X165.735Y-48.133
X165.735Y-67.183
X165.735Y-86.233
X165.735Y-105.283
X170.187Y-136.205
X171.163Y-129.436
X178.435Y-53.054
X178.435Y-72.104
X178.435Y-91.154
X178.435Y-110.204
X184.785Y-50.514
X184.785Y-69.564
X184.785Y-88.614
X184.785Y-107.664
X193.919Y-148.44
X194.895Y-141.671
X197.485Y-62.579
X197.485Y-81.629
X197.485Y-100.679
X203.444Y-131.942
X203.835Y-60.039
X203.835Y-79.089
X203.835Y-98.139
X204.42Y-125.173
X207.946Y-147.006
X208.921Y-140.237
T3
X191.072Y-56.054G85X191.072Y-56.954
G05
X195.072Y-47.554G85X195.072Y-48.454
G05
X195.072Y-50.554G85X195.072Y-51.454
G05
X195.072Y-54.554G85X195.072Y-55.454
G05
X199.072Y-56.054G85X199.072Y-56.954
G05
M30
