M48
; DRILL file KiCad 10.0.3 date 2026-06-14T14:45:18
; FORMAT={-:-/ absolute / metric / decimal}
; #@! TF.CreationDate,2026-06-14T14:45:18+09:00
; #@! TF.GenerationSoftware,Kicad,Pcbnew,10.0.3
; #@! TF.FileFunction,NonPlated,1,2,NPTH
FMAT,2
METRIC
; #@! TA.AperFunction,NonPlated,NPTH,ComponentDrill
T1C1.200
; #@! TA.AperFunction,NonPlated,NPTH,ComponentDrill
T2C1.750
; #@! TA.AperFunction,NonPlated,NPTH,ComponentDrill
T3C3.048
; #@! TA.AperFunction,NonPlated,NPTH,ComponentDrill
T4C3.988
; #@! TA.AperFunction,NonPlated,NPTH,ComponentDrill
T5C4.000
; #@! TA.AperFunction,NonPlated,NPTH,ComponentDrill
T6C5.000
%
G90
G05
T1
X109.278Y-46.204
X109.278Y-53.204
X113.278Y-46.204
X113.278Y-53.204
T2
X91.76Y-140.577
X96.84Y-149.376
X99.975Y-65.119
X99.975Y-84.169
X99.975Y-103.219
X103.495Y-122.803
X108.575Y-131.602
X110.135Y-65.119
X110.135Y-84.169
X110.135Y-103.219
X113.02Y-139.301
X118.1Y-148.1
X119.025Y-55.594
X119.025Y-74.644
X119.025Y-93.694
X119.025Y-112.744
X129.185Y-55.594
X129.185Y-74.644
X129.185Y-93.694
X129.185Y-112.744
X129.518Y-129.776
X134.598Y-138.575
X138.075Y-53.213
X138.075Y-72.263
X138.075Y-91.313
X138.075Y-110.363
X148.235Y-53.213
X148.235Y-72.263
X148.235Y-91.313
X148.235Y-110.363
X157.125Y-88.932
X157.125Y-107.982
X157.125Y-127.032
X162.205Y-45.752
X162.205Y-55.912
X162.205Y-64.802
X162.205Y-74.962
X167.285Y-88.932
X167.285Y-107.982
X167.285Y-127.032
X176.175Y-53.213
X176.175Y-72.263
X176.175Y-91.313
X176.175Y-110.363
X176.175Y-129.413
X186.335Y-53.213
X186.335Y-72.263
X186.335Y-91.313
X186.335Y-110.363
X186.335Y-129.413
X195.225Y-57.975
X195.225Y-77.025
X195.225Y-96.075
X195.225Y-115.125
X195.225Y-134.175
X205.385Y-57.975
X205.385Y-77.025
X205.385Y-96.075
X205.385Y-115.125
X205.385Y-134.175
X214.275Y-57.975
X214.275Y-77.025
X214.275Y-96.075
X214.275Y-115.125
X214.275Y-134.175
X224.435Y-57.975
X224.435Y-77.025
X224.435Y-96.075
X224.435Y-115.125
X224.435Y-134.175
T3
X82.282Y-138.13
X94.22Y-158.807
T4
X95.48Y-130.51
X107.418Y-151.187
T5
X94.3Y-144.976
X105.055Y-65.119
X105.055Y-84.169
X105.055Y-103.219
X106.035Y-127.202
X115.56Y-143.7
X124.105Y-55.594
X124.105Y-74.644
X124.105Y-93.694
X124.105Y-112.744
X132.058Y-134.175
X143.155Y-53.213
X143.155Y-72.263
X143.155Y-91.313
X143.155Y-110.363
X162.205Y-50.832
X162.205Y-69.882
X162.205Y-88.932
X162.205Y-107.982
X162.205Y-127.032
X181.255Y-53.213
X181.255Y-72.263
X181.255Y-91.313
X181.255Y-110.363
X181.255Y-129.413
X200.305Y-57.975
X200.305Y-77.025
X200.305Y-96.075
X200.305Y-115.125
X200.305Y-134.175
X219.355Y-57.975
X219.355Y-77.025
X219.355Y-96.075
X219.355Y-115.125
X219.355Y-134.175
T6
X114.58Y-65.024
X120.549Y-124.714
X171.222Y-117.348
X171.73Y-81.788
X177.953Y-42.672
X209.83Y-67.564
X209.83Y-124.968
M30
