G04 #@! TF.GenerationSoftware,KiCad,Pcbnew,10.0.3*
G04 #@! TF.CreationDate,2026-06-13T18:49:47+09:00*
G04 #@! TF.ProjectId,ergodash,6572676f-6461-4736-982e-6b696361645f,2.0*
G04 #@! TF.SameCoordinates,Original*
G04 #@! TF.FileFunction,Legend,Top*
G04 #@! TF.FilePolarity,Positive*
%FSLAX46Y46*%
G04 Gerber Fmt 4.6, Leading zero omitted, Abs format (unit mm)*
G04 Created by KiCad (PCBNEW 10.0.3) date 2026-06-13 18:49:47*
%MOMM*%
%LPD*%
G01*
G04 APERTURE LIST*
G04 Aperture macros list*
%AMHorizOval*
0 Thick line with rounded ends*
0 $1 width*
0 $2 $3 position (X,Y) of the first rounded end (center of the circle)*
0 $4 $5 position (X,Y) of the second rounded end (center of the circle)*
0 Add line between two ends*
20,1,$1,$2,$3,$4,$5,0*
0 Add two circle primitives to create the rounded ends*
1,1,$1,$2,$3*
1,1,$1,$4,$5*%
%AMRotRect*
0 Rectangle, with rotation*
0 The origin of the aperture is its center*
0 $1 length*
0 $2 width*
0 $3 Rotation angle, in degrees counterclockwise*
0 Add horizontal line*
21,1,$1,$2,0,0,$3*%
G04 Aperture macros list end*
%ADD10C,0.270000*%
%ADD11C,0.300000*%
%ADD12C,0.150000*%
%ADD13C,0.120000*%
%ADD14C,0.000000*%
%ADD15C,1.210000*%
%ADD16O,1.300000X2.200000*%
%ADD17C,1.524000*%
%ADD18C,1.800000*%
%ADD19C,5.000000*%
%ADD20RotRect,1.600000X1.600000X330.000000*%
%ADD21RotRect,1.600000X1.200000X330.000000*%
%ADD22HorizOval,1.600000X0.000000X0.000000X0.000000X0.000000X0*%
%ADD23C,1.750000*%
%ADD24C,4.000000*%
%ADD25C,3.600000*%
%ADD26R,1.600000X1.600000*%
%ADD27R,1.200000X1.600000*%
%ADD28O,1.600000X1.600000*%
%ADD29R,1.600000X1.200000*%
%ADD30RotRect,1.600000X1.600000X150.000000*%
%ADD31RotRect,1.600000X1.200000X150.000000*%
%ADD32HorizOval,1.600000X0.000000X0.000000X0.000000X0.000000X0*%
%ADD33RotRect,1.600000X1.600000X60.000000*%
%ADD34RotRect,1.600000X1.200000X60.000000*%
%ADD35HorizOval,1.600000X0.000000X0.000000X0.000000X0.000000X0*%
%ADD36C,3.048000*%
%ADD37C,3.987800*%
G04 APERTURE END LIST*
D10*
X139509428Y-138126868D02*
X140109428Y-138126868D01*
X140366571Y-139069725D02*
X139509428Y-139069725D01*
X139509428Y-139069725D02*
X139509428Y-137269725D01*
X139509428Y-137269725D02*
X140366571Y-137269725D01*
X141137999Y-139069725D02*
X141137999Y-137869725D01*
X141137999Y-138212582D02*
X141223713Y-138041153D01*
X141223713Y-138041153D02*
X141309428Y-137955439D01*
X141309428Y-137955439D02*
X141480856Y-137869725D01*
X141480856Y-137869725D02*
X141652285Y-137869725D01*
X143023714Y-137869725D02*
X143023714Y-139326868D01*
X143023714Y-139326868D02*
X142937999Y-139498296D01*
X142937999Y-139498296D02*
X142852285Y-139584011D01*
X142852285Y-139584011D02*
X142680856Y-139669725D01*
X142680856Y-139669725D02*
X142423714Y-139669725D01*
X142423714Y-139669725D02*
X142252285Y-139584011D01*
X143023714Y-138984011D02*
X142852285Y-139069725D01*
X142852285Y-139069725D02*
X142509428Y-139069725D01*
X142509428Y-139069725D02*
X142337999Y-138984011D01*
X142337999Y-138984011D02*
X142252285Y-138898296D01*
X142252285Y-138898296D02*
X142166571Y-138726868D01*
X142166571Y-138726868D02*
X142166571Y-138212582D01*
X142166571Y-138212582D02*
X142252285Y-138041153D01*
X142252285Y-138041153D02*
X142337999Y-137955439D01*
X142337999Y-137955439D02*
X142509428Y-137869725D01*
X142509428Y-137869725D02*
X142852285Y-137869725D01*
X142852285Y-137869725D02*
X143023714Y-137955439D01*
X144137999Y-139069725D02*
X143966570Y-138984011D01*
X143966570Y-138984011D02*
X143880856Y-138898296D01*
X143880856Y-138898296D02*
X143795142Y-138726868D01*
X143795142Y-138726868D02*
X143795142Y-138212582D01*
X143795142Y-138212582D02*
X143880856Y-138041153D01*
X143880856Y-138041153D02*
X143966570Y-137955439D01*
X143966570Y-137955439D02*
X144137999Y-137869725D01*
X144137999Y-137869725D02*
X144395142Y-137869725D01*
X144395142Y-137869725D02*
X144566570Y-137955439D01*
X144566570Y-137955439D02*
X144652285Y-138041153D01*
X144652285Y-138041153D02*
X144737999Y-138212582D01*
X144737999Y-138212582D02*
X144737999Y-138726868D01*
X144737999Y-138726868D02*
X144652285Y-138898296D01*
X144652285Y-138898296D02*
X144566570Y-138984011D01*
X144566570Y-138984011D02*
X144395142Y-139069725D01*
X144395142Y-139069725D02*
X144137999Y-139069725D01*
X145509427Y-139069725D02*
X145509427Y-137269725D01*
X145509427Y-137269725D02*
X145937998Y-137269725D01*
X145937998Y-137269725D02*
X146195141Y-137355439D01*
X146195141Y-137355439D02*
X146366570Y-137526868D01*
X146366570Y-137526868D02*
X146452284Y-137698296D01*
X146452284Y-137698296D02*
X146537998Y-138041153D01*
X146537998Y-138041153D02*
X146537998Y-138298296D01*
X146537998Y-138298296D02*
X146452284Y-138641153D01*
X146452284Y-138641153D02*
X146366570Y-138812582D01*
X146366570Y-138812582D02*
X146195141Y-138984011D01*
X146195141Y-138984011D02*
X145937998Y-139069725D01*
X145937998Y-139069725D02*
X145509427Y-139069725D01*
X148080856Y-139069725D02*
X148080856Y-138126868D01*
X148080856Y-138126868D02*
X147995141Y-137955439D01*
X147995141Y-137955439D02*
X147823713Y-137869725D01*
X147823713Y-137869725D02*
X147480856Y-137869725D01*
X147480856Y-137869725D02*
X147309427Y-137955439D01*
X148080856Y-138984011D02*
X147909427Y-139069725D01*
X147909427Y-139069725D02*
X147480856Y-139069725D01*
X147480856Y-139069725D02*
X147309427Y-138984011D01*
X147309427Y-138984011D02*
X147223713Y-138812582D01*
X147223713Y-138812582D02*
X147223713Y-138641153D01*
X147223713Y-138641153D02*
X147309427Y-138469725D01*
X147309427Y-138469725D02*
X147480856Y-138384011D01*
X147480856Y-138384011D02*
X147909427Y-138384011D01*
X147909427Y-138384011D02*
X148080856Y-138298296D01*
X148852284Y-138984011D02*
X149023712Y-139069725D01*
X149023712Y-139069725D02*
X149366569Y-139069725D01*
X149366569Y-139069725D02*
X149537998Y-138984011D01*
X149537998Y-138984011D02*
X149623712Y-138812582D01*
X149623712Y-138812582D02*
X149623712Y-138726868D01*
X149623712Y-138726868D02*
X149537998Y-138555439D01*
X149537998Y-138555439D02*
X149366569Y-138469725D01*
X149366569Y-138469725D02*
X149109427Y-138469725D01*
X149109427Y-138469725D02*
X148937998Y-138384011D01*
X148937998Y-138384011D02*
X148852284Y-138212582D01*
X148852284Y-138212582D02*
X148852284Y-138126868D01*
X148852284Y-138126868D02*
X148937998Y-137955439D01*
X148937998Y-137955439D02*
X149109427Y-137869725D01*
X149109427Y-137869725D02*
X149366569Y-137869725D01*
X149366569Y-137869725D02*
X149537998Y-137955439D01*
X150395141Y-139069725D02*
X150395141Y-137269725D01*
X151166570Y-139069725D02*
X151166570Y-138126868D01*
X151166570Y-138126868D02*
X151080855Y-137955439D01*
X151080855Y-137955439D02*
X150909427Y-137869725D01*
X150909427Y-137869725D02*
X150652284Y-137869725D01*
X150652284Y-137869725D02*
X150480855Y-137955439D01*
X150480855Y-137955439D02*
X150395141Y-138041153D01*
X154423712Y-139069725D02*
X153823712Y-138212582D01*
X153395141Y-139069725D02*
X153395141Y-137269725D01*
X153395141Y-137269725D02*
X154080855Y-137269725D01*
X154080855Y-137269725D02*
X154252284Y-137355439D01*
X154252284Y-137355439D02*
X154337998Y-137441153D01*
X154337998Y-137441153D02*
X154423712Y-137612582D01*
X154423712Y-137612582D02*
X154423712Y-137869725D01*
X154423712Y-137869725D02*
X154337998Y-138041153D01*
X154337998Y-138041153D02*
X154252284Y-138126868D01*
X154252284Y-138126868D02*
X154080855Y-138212582D01*
X154080855Y-138212582D02*
X153395141Y-138212582D01*
X155880855Y-138984011D02*
X155709427Y-139069725D01*
X155709427Y-139069725D02*
X155366570Y-139069725D01*
X155366570Y-139069725D02*
X155195141Y-138984011D01*
X155195141Y-138984011D02*
X155109427Y-138812582D01*
X155109427Y-138812582D02*
X155109427Y-138126868D01*
X155109427Y-138126868D02*
X155195141Y-137955439D01*
X155195141Y-137955439D02*
X155366570Y-137869725D01*
X155366570Y-137869725D02*
X155709427Y-137869725D01*
X155709427Y-137869725D02*
X155880855Y-137955439D01*
X155880855Y-137955439D02*
X155966570Y-138126868D01*
X155966570Y-138126868D02*
X155966570Y-138298296D01*
X155966570Y-138298296D02*
X155109427Y-138469725D01*
X156566569Y-137869725D02*
X156995141Y-139069725D01*
X156995141Y-139069725D02*
X157423712Y-137869725D01*
X158109427Y-138898296D02*
X158195141Y-138984011D01*
X158195141Y-138984011D02*
X158109427Y-139069725D01*
X158109427Y-139069725D02*
X158023713Y-138984011D01*
X158023713Y-138984011D02*
X158109427Y-138898296D01*
X158109427Y-138898296D02*
X158109427Y-139069725D01*
X161280856Y-139069725D02*
X160252285Y-139069725D01*
X160766570Y-139069725D02*
X160766570Y-137269725D01*
X160766570Y-137269725D02*
X160595142Y-137526868D01*
X160595142Y-137526868D02*
X160423713Y-137698296D01*
X160423713Y-137698296D02*
X160252285Y-137784011D01*
X162052285Y-138898296D02*
X162137999Y-138984011D01*
X162137999Y-138984011D02*
X162052285Y-139069725D01*
X162052285Y-139069725D02*
X161966571Y-138984011D01*
X161966571Y-138984011D02*
X162052285Y-138898296D01*
X162052285Y-138898296D02*
X162052285Y-139069725D01*
X162823714Y-137441153D02*
X162909428Y-137355439D01*
X162909428Y-137355439D02*
X163080857Y-137269725D01*
X163080857Y-137269725D02*
X163509428Y-137269725D01*
X163509428Y-137269725D02*
X163680857Y-137355439D01*
X163680857Y-137355439D02*
X163766571Y-137441153D01*
X163766571Y-137441153D02*
X163852285Y-137612582D01*
X163852285Y-137612582D02*
X163852285Y-137784011D01*
X163852285Y-137784011D02*
X163766571Y-138041153D01*
X163766571Y-138041153D02*
X162737999Y-139069725D01*
X162737999Y-139069725D02*
X163852285Y-139069725D01*
X139380858Y-141881910D02*
X139638001Y-141967624D01*
X139638001Y-141967624D02*
X140066572Y-141967624D01*
X140066572Y-141967624D02*
X140238001Y-141881910D01*
X140238001Y-141881910D02*
X140323715Y-141796195D01*
X140323715Y-141796195D02*
X140409429Y-141624767D01*
X140409429Y-141624767D02*
X140409429Y-141453338D01*
X140409429Y-141453338D02*
X140323715Y-141281910D01*
X140323715Y-141281910D02*
X140238001Y-141196195D01*
X140238001Y-141196195D02*
X140066572Y-141110481D01*
X140066572Y-141110481D02*
X139723715Y-141024767D01*
X139723715Y-141024767D02*
X139552286Y-140939052D01*
X139552286Y-140939052D02*
X139466572Y-140853338D01*
X139466572Y-140853338D02*
X139380858Y-140681910D01*
X139380858Y-140681910D02*
X139380858Y-140510481D01*
X139380858Y-140510481D02*
X139466572Y-140339052D01*
X139466572Y-140339052D02*
X139552286Y-140253338D01*
X139552286Y-140253338D02*
X139723715Y-140167624D01*
X139723715Y-140167624D02*
X140152286Y-140167624D01*
X140152286Y-140167624D02*
X140409429Y-140253338D01*
X141438001Y-141967624D02*
X141266572Y-141881910D01*
X141266572Y-141881910D02*
X141180858Y-141796195D01*
X141180858Y-141796195D02*
X141095144Y-141624767D01*
X141095144Y-141624767D02*
X141095144Y-141110481D01*
X141095144Y-141110481D02*
X141180858Y-140939052D01*
X141180858Y-140939052D02*
X141266572Y-140853338D01*
X141266572Y-140853338D02*
X141438001Y-140767624D01*
X141438001Y-140767624D02*
X141695144Y-140767624D01*
X141695144Y-140767624D02*
X141866572Y-140853338D01*
X141866572Y-140853338D02*
X141952287Y-140939052D01*
X141952287Y-140939052D02*
X142038001Y-141110481D01*
X142038001Y-141110481D02*
X142038001Y-141624767D01*
X142038001Y-141624767D02*
X141952287Y-141796195D01*
X141952287Y-141796195D02*
X141866572Y-141881910D01*
X141866572Y-141881910D02*
X141695144Y-141967624D01*
X141695144Y-141967624D02*
X141438001Y-141967624D01*
X143580858Y-141881910D02*
X143409429Y-141967624D01*
X143409429Y-141967624D02*
X143066572Y-141967624D01*
X143066572Y-141967624D02*
X142895143Y-141881910D01*
X142895143Y-141881910D02*
X142809429Y-141796195D01*
X142809429Y-141796195D02*
X142723715Y-141624767D01*
X142723715Y-141624767D02*
X142723715Y-141110481D01*
X142723715Y-141110481D02*
X142809429Y-140939052D01*
X142809429Y-140939052D02*
X142895143Y-140853338D01*
X142895143Y-140853338D02*
X143066572Y-140767624D01*
X143066572Y-140767624D02*
X143409429Y-140767624D01*
X143409429Y-140767624D02*
X143580858Y-140853338D01*
X144352286Y-141967624D02*
X144352286Y-140167624D01*
X144523715Y-141281910D02*
X145038000Y-141967624D01*
X145038000Y-140767624D02*
X144352286Y-141453338D01*
X146495143Y-141881910D02*
X146323715Y-141967624D01*
X146323715Y-141967624D02*
X145980858Y-141967624D01*
X145980858Y-141967624D02*
X145809429Y-141881910D01*
X145809429Y-141881910D02*
X145723715Y-141710481D01*
X145723715Y-141710481D02*
X145723715Y-141024767D01*
X145723715Y-141024767D02*
X145809429Y-140853338D01*
X145809429Y-140853338D02*
X145980858Y-140767624D01*
X145980858Y-140767624D02*
X146323715Y-140767624D01*
X146323715Y-140767624D02*
X146495143Y-140853338D01*
X146495143Y-140853338D02*
X146580858Y-141024767D01*
X146580858Y-141024767D02*
X146580858Y-141196195D01*
X146580858Y-141196195D02*
X145723715Y-141367624D01*
X147095143Y-140767624D02*
X147780857Y-140767624D01*
X147352286Y-140167624D02*
X147352286Y-141710481D01*
X147352286Y-141710481D02*
X147438000Y-141881910D01*
X147438000Y-141881910D02*
X147609429Y-141967624D01*
X147609429Y-141967624D02*
X147780857Y-141967624D01*
X149066571Y-141881910D02*
X148895143Y-141967624D01*
X148895143Y-141967624D02*
X148552286Y-141967624D01*
X148552286Y-141967624D02*
X148380857Y-141881910D01*
X148380857Y-141881910D02*
X148295143Y-141710481D01*
X148295143Y-141710481D02*
X148295143Y-141024767D01*
X148295143Y-141024767D02*
X148380857Y-140853338D01*
X148380857Y-140853338D02*
X148552286Y-140767624D01*
X148552286Y-140767624D02*
X148895143Y-140767624D01*
X148895143Y-140767624D02*
X149066571Y-140853338D01*
X149066571Y-140853338D02*
X149152286Y-141024767D01*
X149152286Y-141024767D02*
X149152286Y-141196195D01*
X149152286Y-141196195D02*
X148295143Y-141367624D01*
X150695143Y-141967624D02*
X150695143Y-140167624D01*
X150695143Y-141881910D02*
X150523714Y-141967624D01*
X150523714Y-141967624D02*
X150180857Y-141967624D01*
X150180857Y-141967624D02*
X150009428Y-141881910D01*
X150009428Y-141881910D02*
X149923714Y-141796195D01*
X149923714Y-141796195D02*
X149838000Y-141624767D01*
X149838000Y-141624767D02*
X149838000Y-141110481D01*
X149838000Y-141110481D02*
X149923714Y-140939052D01*
X149923714Y-140939052D02*
X150009428Y-140853338D01*
X150009428Y-140853338D02*
X150180857Y-140767624D01*
X150180857Y-140767624D02*
X150523714Y-140767624D01*
X150523714Y-140767624D02*
X150695143Y-140853338D01*
X152923714Y-141967624D02*
X152923714Y-140167624D01*
X152923714Y-140853338D02*
X153095143Y-140767624D01*
X153095143Y-140767624D02*
X153438000Y-140767624D01*
X153438000Y-140767624D02*
X153609428Y-140853338D01*
X153609428Y-140853338D02*
X153695143Y-140939052D01*
X153695143Y-140939052D02*
X153780857Y-141110481D01*
X153780857Y-141110481D02*
X153780857Y-141624767D01*
X153780857Y-141624767D02*
X153695143Y-141796195D01*
X153695143Y-141796195D02*
X153609428Y-141881910D01*
X153609428Y-141881910D02*
X153438000Y-141967624D01*
X153438000Y-141967624D02*
X153095143Y-141967624D01*
X153095143Y-141967624D02*
X152923714Y-141881910D01*
X154380856Y-140767624D02*
X154809428Y-141967624D01*
X155237999Y-140767624D02*
X154809428Y-141967624D01*
X154809428Y-141967624D02*
X154637999Y-142396195D01*
X154637999Y-142396195D02*
X154552285Y-142481910D01*
X154552285Y-142481910D02*
X154380856Y-142567624D01*
X157038000Y-140767624D02*
X157723714Y-140767624D01*
X157295143Y-140167624D02*
X157295143Y-141710481D01*
X157295143Y-141710481D02*
X157380857Y-141881910D01*
X157380857Y-141881910D02*
X157552286Y-141967624D01*
X157552286Y-141967624D02*
X157723714Y-141967624D01*
X158238000Y-141881910D02*
X158409428Y-141967624D01*
X158409428Y-141967624D02*
X158752285Y-141967624D01*
X158752285Y-141967624D02*
X158923714Y-141881910D01*
X158923714Y-141881910D02*
X159009428Y-141710481D01*
X159009428Y-141710481D02*
X159009428Y-141624767D01*
X159009428Y-141624767D02*
X158923714Y-141453338D01*
X158923714Y-141453338D02*
X158752285Y-141367624D01*
X158752285Y-141367624D02*
X158495143Y-141367624D01*
X158495143Y-141367624D02*
X158323714Y-141281910D01*
X158323714Y-141281910D02*
X158238000Y-141110481D01*
X158238000Y-141110481D02*
X158238000Y-141024767D01*
X158238000Y-141024767D02*
X158323714Y-140853338D01*
X158323714Y-140853338D02*
X158495143Y-140767624D01*
X158495143Y-140767624D02*
X158752285Y-140767624D01*
X158752285Y-140767624D02*
X158923714Y-140853338D01*
X160552286Y-140767624D02*
X160552286Y-141967624D01*
X159780857Y-140767624D02*
X159780857Y-141710481D01*
X159780857Y-141710481D02*
X159866571Y-141881910D01*
X159866571Y-141881910D02*
X160038000Y-141967624D01*
X160038000Y-141967624D02*
X160295143Y-141967624D01*
X160295143Y-141967624D02*
X160466571Y-141881910D01*
X160466571Y-141881910D02*
X160552286Y-141796195D01*
X161409428Y-141967624D02*
X161409428Y-140167624D01*
X161409428Y-140853338D02*
X161580857Y-140767624D01*
X161580857Y-140767624D02*
X161923714Y-140767624D01*
X161923714Y-140767624D02*
X162095142Y-140853338D01*
X162095142Y-140853338D02*
X162180857Y-140939052D01*
X162180857Y-140939052D02*
X162266571Y-141110481D01*
X162266571Y-141110481D02*
X162266571Y-141624767D01*
X162266571Y-141624767D02*
X162180857Y-141796195D01*
X162180857Y-141796195D02*
X162095142Y-141881910D01*
X162095142Y-141881910D02*
X161923714Y-141967624D01*
X161923714Y-141967624D02*
X161580857Y-141967624D01*
X161580857Y-141967624D02*
X161409428Y-141881910D01*
X163809428Y-140767624D02*
X163809428Y-141967624D01*
X163037999Y-140767624D02*
X163037999Y-141710481D01*
X163037999Y-141710481D02*
X163123713Y-141881910D01*
X163123713Y-141881910D02*
X163295142Y-141967624D01*
X163295142Y-141967624D02*
X163552285Y-141967624D01*
X163552285Y-141967624D02*
X163723713Y-141881910D01*
X163723713Y-141881910D02*
X163809428Y-141796195D01*
D11*
X105239904Y-138618694D02*
X105239904Y-136618694D01*
X105239904Y-136618694D02*
X105716094Y-136618694D01*
X105716094Y-136618694D02*
X106001809Y-136713932D01*
X106001809Y-136713932D02*
X106192285Y-136904408D01*
X106192285Y-136904408D02*
X106287523Y-137094884D01*
X106287523Y-137094884D02*
X106382761Y-137475836D01*
X106382761Y-137475836D02*
X106382761Y-137761551D01*
X106382761Y-137761551D02*
X106287523Y-138142503D01*
X106287523Y-138142503D02*
X106192285Y-138332979D01*
X106192285Y-138332979D02*
X106001809Y-138523456D01*
X106001809Y-138523456D02*
X105716094Y-138618694D01*
X105716094Y-138618694D02*
X105239904Y-138618694D01*
X108001809Y-138523456D02*
X107811333Y-138618694D01*
X107811333Y-138618694D02*
X107430380Y-138618694D01*
X107430380Y-138618694D02*
X107239904Y-138523456D01*
X107239904Y-138523456D02*
X107144666Y-138332979D01*
X107144666Y-138332979D02*
X107144666Y-137571075D01*
X107144666Y-137571075D02*
X107239904Y-137380598D01*
X107239904Y-137380598D02*
X107430380Y-137285360D01*
X107430380Y-137285360D02*
X107811333Y-137285360D01*
X107811333Y-137285360D02*
X108001809Y-137380598D01*
X108001809Y-137380598D02*
X108097047Y-137571075D01*
X108097047Y-137571075D02*
X108097047Y-137761551D01*
X108097047Y-137761551D02*
X107144666Y-137952027D01*
X108858952Y-138523456D02*
X109049428Y-138618694D01*
X109049428Y-138618694D02*
X109430380Y-138618694D01*
X109430380Y-138618694D02*
X109620857Y-138523456D01*
X109620857Y-138523456D02*
X109716095Y-138332979D01*
X109716095Y-138332979D02*
X109716095Y-138237741D01*
X109716095Y-138237741D02*
X109620857Y-138047265D01*
X109620857Y-138047265D02*
X109430380Y-137952027D01*
X109430380Y-137952027D02*
X109144666Y-137952027D01*
X109144666Y-137952027D02*
X108954190Y-137856789D01*
X108954190Y-137856789D02*
X108858952Y-137666313D01*
X108858952Y-137666313D02*
X108858952Y-137571075D01*
X108858952Y-137571075D02*
X108954190Y-137380598D01*
X108954190Y-137380598D02*
X109144666Y-137285360D01*
X109144666Y-137285360D02*
X109430380Y-137285360D01*
X109430380Y-137285360D02*
X109620857Y-137380598D01*
X110573238Y-138618694D02*
X110573238Y-137285360D01*
X110573238Y-136618694D02*
X110478000Y-136713932D01*
X110478000Y-136713932D02*
X110573238Y-136809170D01*
X110573238Y-136809170D02*
X110668476Y-136713932D01*
X110668476Y-136713932D02*
X110573238Y-136618694D01*
X110573238Y-136618694D02*
X110573238Y-136809170D01*
X112382762Y-137285360D02*
X112382762Y-138904408D01*
X112382762Y-138904408D02*
X112287524Y-139094884D01*
X112287524Y-139094884D02*
X112192286Y-139190122D01*
X112192286Y-139190122D02*
X112001809Y-139285360D01*
X112001809Y-139285360D02*
X111716095Y-139285360D01*
X111716095Y-139285360D02*
X111525619Y-139190122D01*
X112382762Y-138523456D02*
X112192286Y-138618694D01*
X112192286Y-138618694D02*
X111811333Y-138618694D01*
X111811333Y-138618694D02*
X111620857Y-138523456D01*
X111620857Y-138523456D02*
X111525619Y-138428217D01*
X111525619Y-138428217D02*
X111430381Y-138237741D01*
X111430381Y-138237741D02*
X111430381Y-137666313D01*
X111430381Y-137666313D02*
X111525619Y-137475836D01*
X111525619Y-137475836D02*
X111620857Y-137380598D01*
X111620857Y-137380598D02*
X111811333Y-137285360D01*
X111811333Y-137285360D02*
X112192286Y-137285360D01*
X112192286Y-137285360D02*
X112382762Y-137380598D01*
X113335143Y-137285360D02*
X113335143Y-138618694D01*
X113335143Y-137475836D02*
X113430381Y-137380598D01*
X113430381Y-137380598D02*
X113620857Y-137285360D01*
X113620857Y-137285360D02*
X113906572Y-137285360D01*
X113906572Y-137285360D02*
X114097048Y-137380598D01*
X114097048Y-137380598D02*
X114192286Y-137571075D01*
X114192286Y-137571075D02*
X114192286Y-138618694D01*
X115906572Y-138523456D02*
X115716096Y-138618694D01*
X115716096Y-138618694D02*
X115335143Y-138618694D01*
X115335143Y-138618694D02*
X115144667Y-138523456D01*
X115144667Y-138523456D02*
X115049429Y-138332979D01*
X115049429Y-138332979D02*
X115049429Y-137571075D01*
X115049429Y-137571075D02*
X115144667Y-137380598D01*
X115144667Y-137380598D02*
X115335143Y-137285360D01*
X115335143Y-137285360D02*
X115716096Y-137285360D01*
X115716096Y-137285360D02*
X115906572Y-137380598D01*
X115906572Y-137380598D02*
X116001810Y-137571075D01*
X116001810Y-137571075D02*
X116001810Y-137761551D01*
X116001810Y-137761551D02*
X115049429Y-137952027D01*
X117716096Y-138618694D02*
X117716096Y-136618694D01*
X117716096Y-138523456D02*
X117525620Y-138618694D01*
X117525620Y-138618694D02*
X117144667Y-138618694D01*
X117144667Y-138618694D02*
X116954191Y-138523456D01*
X116954191Y-138523456D02*
X116858953Y-138428217D01*
X116858953Y-138428217D02*
X116763715Y-138237741D01*
X116763715Y-138237741D02*
X116763715Y-137666313D01*
X116763715Y-137666313D02*
X116858953Y-137475836D01*
X116858953Y-137475836D02*
X116954191Y-137380598D01*
X116954191Y-137380598D02*
X117144667Y-137285360D01*
X117144667Y-137285360D02*
X117525620Y-137285360D01*
X117525620Y-137285360D02*
X117716096Y-137380598D01*
X104668475Y-141838582D02*
X104668475Y-139838582D01*
X104668475Y-140600486D02*
X104858951Y-140505248D01*
X104858951Y-140505248D02*
X105239904Y-140505248D01*
X105239904Y-140505248D02*
X105430380Y-140600486D01*
X105430380Y-140600486D02*
X105525618Y-140695724D01*
X105525618Y-140695724D02*
X105620856Y-140886201D01*
X105620856Y-140886201D02*
X105620856Y-141457629D01*
X105620856Y-141457629D02*
X105525618Y-141648105D01*
X105525618Y-141648105D02*
X105430380Y-141743344D01*
X105430380Y-141743344D02*
X105239904Y-141838582D01*
X105239904Y-141838582D02*
X104858951Y-141838582D01*
X104858951Y-141838582D02*
X104668475Y-141743344D01*
X106287523Y-140505248D02*
X106763713Y-141838582D01*
X107239904Y-140505248D02*
X106763713Y-141838582D01*
X106763713Y-141838582D02*
X106573237Y-142314772D01*
X106573237Y-142314772D02*
X106477999Y-142410010D01*
X106477999Y-142410010D02*
X106287523Y-142505248D01*
X109811333Y-141838582D02*
X109620857Y-141743344D01*
X109620857Y-141743344D02*
X109525619Y-141648105D01*
X109525619Y-141648105D02*
X109430381Y-141457629D01*
X109430381Y-141457629D02*
X109430381Y-140886201D01*
X109430381Y-140886201D02*
X109525619Y-140695724D01*
X109525619Y-140695724D02*
X109620857Y-140600486D01*
X109620857Y-140600486D02*
X109811333Y-140505248D01*
X109811333Y-140505248D02*
X110097048Y-140505248D01*
X110097048Y-140505248D02*
X110287524Y-140600486D01*
X110287524Y-140600486D02*
X110382762Y-140695724D01*
X110382762Y-140695724D02*
X110478000Y-140886201D01*
X110478000Y-140886201D02*
X110478000Y-141457629D01*
X110478000Y-141457629D02*
X110382762Y-141648105D01*
X110382762Y-141648105D02*
X110287524Y-141743344D01*
X110287524Y-141743344D02*
X110097048Y-141838582D01*
X110097048Y-141838582D02*
X109811333Y-141838582D01*
X111335143Y-141838582D02*
X111335143Y-140505248D01*
X111335143Y-140695724D02*
X111430381Y-140600486D01*
X111430381Y-140600486D02*
X111620857Y-140505248D01*
X111620857Y-140505248D02*
X111906572Y-140505248D01*
X111906572Y-140505248D02*
X112097048Y-140600486D01*
X112097048Y-140600486D02*
X112192286Y-140790963D01*
X112192286Y-140790963D02*
X112192286Y-141838582D01*
X112192286Y-140790963D02*
X112287524Y-140600486D01*
X112287524Y-140600486D02*
X112478000Y-140505248D01*
X112478000Y-140505248D02*
X112763714Y-140505248D01*
X112763714Y-140505248D02*
X112954191Y-140600486D01*
X112954191Y-140600486D02*
X113049429Y-140790963D01*
X113049429Y-140790963D02*
X113049429Y-141838582D01*
X114001810Y-141838582D02*
X114001810Y-139838582D01*
X114192286Y-141076677D02*
X114763715Y-141838582D01*
X114763715Y-140505248D02*
X114001810Y-141267153D01*
X115620858Y-141838582D02*
X115620858Y-139838582D01*
X115620858Y-140600486D02*
X115811334Y-140505248D01*
X115811334Y-140505248D02*
X116192287Y-140505248D01*
X116192287Y-140505248D02*
X116382763Y-140600486D01*
X116382763Y-140600486D02*
X116478001Y-140695724D01*
X116478001Y-140695724D02*
X116573239Y-140886201D01*
X116573239Y-140886201D02*
X116573239Y-141457629D01*
X116573239Y-141457629D02*
X116478001Y-141648105D01*
X116478001Y-141648105D02*
X116382763Y-141743344D01*
X116382763Y-141743344D02*
X116192287Y-141838582D01*
X116192287Y-141838582D02*
X115811334Y-141838582D01*
X115811334Y-141838582D02*
X115620858Y-141743344D01*
X118287525Y-141838582D02*
X118287525Y-139838582D01*
X118287525Y-141743344D02*
X118097049Y-141838582D01*
X118097049Y-141838582D02*
X117716096Y-141838582D01*
X117716096Y-141838582D02*
X117525620Y-141743344D01*
X117525620Y-141743344D02*
X117430382Y-141648105D01*
X117430382Y-141648105D02*
X117335144Y-141457629D01*
X117335144Y-141457629D02*
X117335144Y-140886201D01*
X117335144Y-140886201D02*
X117430382Y-140695724D01*
X117430382Y-140695724D02*
X117525620Y-140600486D01*
X117525620Y-140600486D02*
X117716096Y-140505248D01*
X117716096Y-140505248D02*
X118097049Y-140505248D01*
X118097049Y-140505248D02*
X118287525Y-140600486D01*
D12*
X133858095Y-79242819D02*
X133858095Y-80052342D01*
X133858095Y-80052342D02*
X133905714Y-80147580D01*
X133905714Y-80147580D02*
X133953333Y-80195200D01*
X133953333Y-80195200D02*
X134048571Y-80242819D01*
X134048571Y-80242819D02*
X134239047Y-80242819D01*
X134239047Y-80242819D02*
X134334285Y-80195200D01*
X134334285Y-80195200D02*
X134381904Y-80147580D01*
X134381904Y-80147580D02*
X134429523Y-80052342D01*
X134429523Y-80052342D02*
X134429523Y-79242819D01*
X135429523Y-80242819D02*
X134858095Y-80242819D01*
X135143809Y-80242819D02*
X135143809Y-79242819D01*
X135143809Y-79242819D02*
X135048571Y-79385676D01*
X135048571Y-79385676D02*
X134953333Y-79480914D01*
X134953333Y-79480914D02*
X134858095Y-79528533D01*
X191008095Y-62478819D02*
X191008095Y-63288342D01*
X191008095Y-63288342D02*
X191055714Y-63383580D01*
X191055714Y-63383580D02*
X191103333Y-63431200D01*
X191103333Y-63431200D02*
X191198571Y-63478819D01*
X191198571Y-63478819D02*
X191389047Y-63478819D01*
X191389047Y-63478819D02*
X191484285Y-63431200D01*
X191484285Y-63431200D02*
X191531904Y-63383580D01*
X191531904Y-63383580D02*
X191579523Y-63288342D01*
X191579523Y-63288342D02*
X191579523Y-62478819D01*
X192008095Y-62574057D02*
X192055714Y-62526438D01*
X192055714Y-62526438D02*
X192150952Y-62478819D01*
X192150952Y-62478819D02*
X192389047Y-62478819D01*
X192389047Y-62478819D02*
X192484285Y-62526438D01*
X192484285Y-62526438D02*
X192531904Y-62574057D01*
X192531904Y-62574057D02*
X192579523Y-62669295D01*
X192579523Y-62669295D02*
X192579523Y-62764533D01*
X192579523Y-62764533D02*
X192531904Y-62907390D01*
X192531904Y-62907390D02*
X191960476Y-63478819D01*
X191960476Y-63478819D02*
X192579523Y-63478819D01*
X185039095Y-122168819D02*
X185039095Y-122978342D01*
X185039095Y-122978342D02*
X185086714Y-123073580D01*
X185086714Y-123073580D02*
X185134333Y-123121200D01*
X185134333Y-123121200D02*
X185229571Y-123168819D01*
X185229571Y-123168819D02*
X185420047Y-123168819D01*
X185420047Y-123168819D02*
X185515285Y-123121200D01*
X185515285Y-123121200D02*
X185562904Y-123073580D01*
X185562904Y-123073580D02*
X185610523Y-122978342D01*
X185610523Y-122978342D02*
X185610523Y-122168819D01*
X186515285Y-122502152D02*
X186515285Y-123168819D01*
X186277190Y-122121200D02*
X186039095Y-122835485D01*
X186039095Y-122835485D02*
X186658142Y-122835485D01*
X95758095Y-65018819D02*
X95758095Y-65828342D01*
X95758095Y-65828342D02*
X95805714Y-65923580D01*
X95805714Y-65923580D02*
X95853333Y-65971200D01*
X95853333Y-65971200D02*
X95948571Y-66018819D01*
X95948571Y-66018819D02*
X96139047Y-66018819D01*
X96139047Y-66018819D02*
X96234285Y-65971200D01*
X96234285Y-65971200D02*
X96281904Y-65923580D01*
X96281904Y-65923580D02*
X96329523Y-65828342D01*
X96329523Y-65828342D02*
X96329523Y-65018819D01*
X97281904Y-65018819D02*
X96805714Y-65018819D01*
X96805714Y-65018819D02*
X96758095Y-65495009D01*
X96758095Y-65495009D02*
X96805714Y-65447390D01*
X96805714Y-65447390D02*
X96900952Y-65399771D01*
X96900952Y-65399771D02*
X97139047Y-65399771D01*
X97139047Y-65399771D02*
X97234285Y-65447390D01*
X97234285Y-65447390D02*
X97281904Y-65495009D01*
X97281904Y-65495009D02*
X97329523Y-65590247D01*
X97329523Y-65590247D02*
X97329523Y-65828342D01*
X97329523Y-65828342D02*
X97281904Y-65923580D01*
X97281904Y-65923580D02*
X97234285Y-65971200D01*
X97234285Y-65971200D02*
X97139047Y-66018819D01*
X97139047Y-66018819D02*
X96900952Y-66018819D01*
X96900952Y-66018819D02*
X96805714Y-65971200D01*
X96805714Y-65971200D02*
X96758095Y-65923580D01*
X95758095Y-122422819D02*
X95758095Y-123232342D01*
X95758095Y-123232342D02*
X95805714Y-123327580D01*
X95805714Y-123327580D02*
X95853333Y-123375200D01*
X95853333Y-123375200D02*
X95948571Y-123422819D01*
X95948571Y-123422819D02*
X96139047Y-123422819D01*
X96139047Y-123422819D02*
X96234285Y-123375200D01*
X96234285Y-123375200D02*
X96281904Y-123327580D01*
X96281904Y-123327580D02*
X96329523Y-123232342D01*
X96329523Y-123232342D02*
X96329523Y-122422819D01*
X96710476Y-122422819D02*
X97377142Y-122422819D01*
X97377142Y-122422819D02*
X96948571Y-123422819D01*
X134366095Y-114802819D02*
X134366095Y-115612342D01*
X134366095Y-115612342D02*
X134413714Y-115707580D01*
X134413714Y-115707580D02*
X134461333Y-115755200D01*
X134461333Y-115755200D02*
X134556571Y-115802819D01*
X134556571Y-115802819D02*
X134747047Y-115802819D01*
X134747047Y-115802819D02*
X134842285Y-115755200D01*
X134842285Y-115755200D02*
X134889904Y-115707580D01*
X134889904Y-115707580D02*
X134937523Y-115612342D01*
X134937523Y-115612342D02*
X134937523Y-114802819D01*
X135556571Y-115231390D02*
X135461333Y-115183771D01*
X135461333Y-115183771D02*
X135413714Y-115136152D01*
X135413714Y-115136152D02*
X135366095Y-115040914D01*
X135366095Y-115040914D02*
X135366095Y-114993295D01*
X135366095Y-114993295D02*
X135413714Y-114898057D01*
X135413714Y-114898057D02*
X135461333Y-114850438D01*
X135461333Y-114850438D02*
X135556571Y-114802819D01*
X135556571Y-114802819D02*
X135747047Y-114802819D01*
X135747047Y-114802819D02*
X135842285Y-114850438D01*
X135842285Y-114850438D02*
X135889904Y-114898057D01*
X135889904Y-114898057D02*
X135937523Y-114993295D01*
X135937523Y-114993295D02*
X135937523Y-115040914D01*
X135937523Y-115040914D02*
X135889904Y-115136152D01*
X135889904Y-115136152D02*
X135842285Y-115183771D01*
X135842285Y-115183771D02*
X135747047Y-115231390D01*
X135747047Y-115231390D02*
X135556571Y-115231390D01*
X135556571Y-115231390D02*
X135461333Y-115279009D01*
X135461333Y-115279009D02*
X135413714Y-115326628D01*
X135413714Y-115326628D02*
X135366095Y-115421866D01*
X135366095Y-115421866D02*
X135366095Y-115612342D01*
X135366095Y-115612342D02*
X135413714Y-115707580D01*
X135413714Y-115707580D02*
X135461333Y-115755200D01*
X135461333Y-115755200D02*
X135556571Y-115802819D01*
X135556571Y-115802819D02*
X135747047Y-115802819D01*
X135747047Y-115802819D02*
X135842285Y-115755200D01*
X135842285Y-115755200D02*
X135889904Y-115707580D01*
X135889904Y-115707580D02*
X135937523Y-115612342D01*
X135937523Y-115612342D02*
X135937523Y-115421866D01*
X135937523Y-115421866D02*
X135889904Y-115326628D01*
X135889904Y-115326628D02*
X135842285Y-115279009D01*
X135842285Y-115279009D02*
X135747047Y-115231390D01*
X127635095Y-40126819D02*
X127635095Y-40936342D01*
X127635095Y-40936342D02*
X127682714Y-41031580D01*
X127682714Y-41031580D02*
X127730333Y-41079200D01*
X127730333Y-41079200D02*
X127825571Y-41126819D01*
X127825571Y-41126819D02*
X128016047Y-41126819D01*
X128016047Y-41126819D02*
X128111285Y-41079200D01*
X128111285Y-41079200D02*
X128158904Y-41031580D01*
X128158904Y-41031580D02*
X128206523Y-40936342D01*
X128206523Y-40936342D02*
X128206523Y-40126819D01*
X128730333Y-41126819D02*
X128920809Y-41126819D01*
X128920809Y-41126819D02*
X129016047Y-41079200D01*
X129016047Y-41079200D02*
X129063666Y-41031580D01*
X129063666Y-41031580D02*
X129158904Y-40888723D01*
X129158904Y-40888723D02*
X129206523Y-40698247D01*
X129206523Y-40698247D02*
X129206523Y-40317295D01*
X129206523Y-40317295D02*
X129158904Y-40222057D01*
X129158904Y-40222057D02*
X129111285Y-40174438D01*
X129111285Y-40174438D02*
X129016047Y-40126819D01*
X129016047Y-40126819D02*
X128825571Y-40126819D01*
X128825571Y-40126819D02*
X128730333Y-40174438D01*
X128730333Y-40174438D02*
X128682714Y-40222057D01*
X128682714Y-40222057D02*
X128635095Y-40317295D01*
X128635095Y-40317295D02*
X128635095Y-40555390D01*
X128635095Y-40555390D02*
X128682714Y-40650628D01*
X128682714Y-40650628D02*
X128730333Y-40698247D01*
X128730333Y-40698247D02*
X128825571Y-40745866D01*
X128825571Y-40745866D02*
X129016047Y-40745866D01*
X129016047Y-40745866D02*
X129111285Y-40698247D01*
X129111285Y-40698247D02*
X129158904Y-40650628D01*
X129158904Y-40650628D02*
X129206523Y-40555390D01*
X85661667Y-50382700D02*
X85804524Y-50430319D01*
X85804524Y-50430319D02*
X86042619Y-50430319D01*
X86042619Y-50430319D02*
X86137857Y-50382700D01*
X86137857Y-50382700D02*
X86185476Y-50335080D01*
X86185476Y-50335080D02*
X86233095Y-50239842D01*
X86233095Y-50239842D02*
X86233095Y-50144604D01*
X86233095Y-50144604D02*
X86185476Y-50049366D01*
X86185476Y-50049366D02*
X86137857Y-50001747D01*
X86137857Y-50001747D02*
X86042619Y-49954128D01*
X86042619Y-49954128D02*
X85852143Y-49906509D01*
X85852143Y-49906509D02*
X85756905Y-49858890D01*
X85756905Y-49858890D02*
X85709286Y-49811271D01*
X85709286Y-49811271D02*
X85661667Y-49716033D01*
X85661667Y-49716033D02*
X85661667Y-49620795D01*
X85661667Y-49620795D02*
X85709286Y-49525557D01*
X85709286Y-49525557D02*
X85756905Y-49477938D01*
X85756905Y-49477938D02*
X85852143Y-49430319D01*
X85852143Y-49430319D02*
X86090238Y-49430319D01*
X86090238Y-49430319D02*
X86233095Y-49477938D01*
X86566429Y-49430319D02*
X86804524Y-50430319D01*
X86804524Y-50430319D02*
X86995000Y-49716033D01*
X86995000Y-49716033D02*
X87185476Y-50430319D01*
X87185476Y-50430319D02*
X87423572Y-49430319D01*
X88328333Y-50430319D02*
X87756905Y-50430319D01*
X88042619Y-50430319D02*
X88042619Y-49430319D01*
X88042619Y-49430319D02*
X87947381Y-49573176D01*
X87947381Y-49573176D02*
X87852143Y-49668414D01*
X87852143Y-49668414D02*
X87756905Y-49716033D01*
X85661667Y-69432700D02*
X85804524Y-69480319D01*
X85804524Y-69480319D02*
X86042619Y-69480319D01*
X86042619Y-69480319D02*
X86137857Y-69432700D01*
X86137857Y-69432700D02*
X86185476Y-69385080D01*
X86185476Y-69385080D02*
X86233095Y-69289842D01*
X86233095Y-69289842D02*
X86233095Y-69194604D01*
X86233095Y-69194604D02*
X86185476Y-69099366D01*
X86185476Y-69099366D02*
X86137857Y-69051747D01*
X86137857Y-69051747D02*
X86042619Y-69004128D01*
X86042619Y-69004128D02*
X85852143Y-68956509D01*
X85852143Y-68956509D02*
X85756905Y-68908890D01*
X85756905Y-68908890D02*
X85709286Y-68861271D01*
X85709286Y-68861271D02*
X85661667Y-68766033D01*
X85661667Y-68766033D02*
X85661667Y-68670795D01*
X85661667Y-68670795D02*
X85709286Y-68575557D01*
X85709286Y-68575557D02*
X85756905Y-68527938D01*
X85756905Y-68527938D02*
X85852143Y-68480319D01*
X85852143Y-68480319D02*
X86090238Y-68480319D01*
X86090238Y-68480319D02*
X86233095Y-68527938D01*
X86566429Y-68480319D02*
X86804524Y-69480319D01*
X86804524Y-69480319D02*
X86995000Y-68766033D01*
X86995000Y-68766033D02*
X87185476Y-69480319D01*
X87185476Y-69480319D02*
X87423572Y-68480319D01*
X87756905Y-68575557D02*
X87804524Y-68527938D01*
X87804524Y-68527938D02*
X87899762Y-68480319D01*
X87899762Y-68480319D02*
X88137857Y-68480319D01*
X88137857Y-68480319D02*
X88233095Y-68527938D01*
X88233095Y-68527938D02*
X88280714Y-68575557D01*
X88280714Y-68575557D02*
X88328333Y-68670795D01*
X88328333Y-68670795D02*
X88328333Y-68766033D01*
X88328333Y-68766033D02*
X88280714Y-68908890D01*
X88280714Y-68908890D02*
X87709286Y-69480319D01*
X87709286Y-69480319D02*
X88328333Y-69480319D01*
X85661667Y-88482700D02*
X85804524Y-88530319D01*
X85804524Y-88530319D02*
X86042619Y-88530319D01*
X86042619Y-88530319D02*
X86137857Y-88482700D01*
X86137857Y-88482700D02*
X86185476Y-88435080D01*
X86185476Y-88435080D02*
X86233095Y-88339842D01*
X86233095Y-88339842D02*
X86233095Y-88244604D01*
X86233095Y-88244604D02*
X86185476Y-88149366D01*
X86185476Y-88149366D02*
X86137857Y-88101747D01*
X86137857Y-88101747D02*
X86042619Y-88054128D01*
X86042619Y-88054128D02*
X85852143Y-88006509D01*
X85852143Y-88006509D02*
X85756905Y-87958890D01*
X85756905Y-87958890D02*
X85709286Y-87911271D01*
X85709286Y-87911271D02*
X85661667Y-87816033D01*
X85661667Y-87816033D02*
X85661667Y-87720795D01*
X85661667Y-87720795D02*
X85709286Y-87625557D01*
X85709286Y-87625557D02*
X85756905Y-87577938D01*
X85756905Y-87577938D02*
X85852143Y-87530319D01*
X85852143Y-87530319D02*
X86090238Y-87530319D01*
X86090238Y-87530319D02*
X86233095Y-87577938D01*
X86566429Y-87530319D02*
X86804524Y-88530319D01*
X86804524Y-88530319D02*
X86995000Y-87816033D01*
X86995000Y-87816033D02*
X87185476Y-88530319D01*
X87185476Y-88530319D02*
X87423572Y-87530319D01*
X87709286Y-87530319D02*
X88328333Y-87530319D01*
X88328333Y-87530319D02*
X87995000Y-87911271D01*
X87995000Y-87911271D02*
X88137857Y-87911271D01*
X88137857Y-87911271D02*
X88233095Y-87958890D01*
X88233095Y-87958890D02*
X88280714Y-88006509D01*
X88280714Y-88006509D02*
X88328333Y-88101747D01*
X88328333Y-88101747D02*
X88328333Y-88339842D01*
X88328333Y-88339842D02*
X88280714Y-88435080D01*
X88280714Y-88435080D02*
X88233095Y-88482700D01*
X88233095Y-88482700D02*
X88137857Y-88530319D01*
X88137857Y-88530319D02*
X87852143Y-88530319D01*
X87852143Y-88530319D02*
X87756905Y-88482700D01*
X87756905Y-88482700D02*
X87709286Y-88435080D01*
X85661667Y-107532700D02*
X85804524Y-107580319D01*
X85804524Y-107580319D02*
X86042619Y-107580319D01*
X86042619Y-107580319D02*
X86137857Y-107532700D01*
X86137857Y-107532700D02*
X86185476Y-107485080D01*
X86185476Y-107485080D02*
X86233095Y-107389842D01*
X86233095Y-107389842D02*
X86233095Y-107294604D01*
X86233095Y-107294604D02*
X86185476Y-107199366D01*
X86185476Y-107199366D02*
X86137857Y-107151747D01*
X86137857Y-107151747D02*
X86042619Y-107104128D01*
X86042619Y-107104128D02*
X85852143Y-107056509D01*
X85852143Y-107056509D02*
X85756905Y-107008890D01*
X85756905Y-107008890D02*
X85709286Y-106961271D01*
X85709286Y-106961271D02*
X85661667Y-106866033D01*
X85661667Y-106866033D02*
X85661667Y-106770795D01*
X85661667Y-106770795D02*
X85709286Y-106675557D01*
X85709286Y-106675557D02*
X85756905Y-106627938D01*
X85756905Y-106627938D02*
X85852143Y-106580319D01*
X85852143Y-106580319D02*
X86090238Y-106580319D01*
X86090238Y-106580319D02*
X86233095Y-106627938D01*
X86566429Y-106580319D02*
X86804524Y-107580319D01*
X86804524Y-107580319D02*
X86995000Y-106866033D01*
X86995000Y-106866033D02*
X87185476Y-107580319D01*
X87185476Y-107580319D02*
X87423572Y-106580319D01*
X88233095Y-106913652D02*
X88233095Y-107580319D01*
X87995000Y-106532700D02*
X87756905Y-107246985D01*
X87756905Y-107246985D02*
X88375952Y-107246985D01*
X104711667Y-50382700D02*
X104854524Y-50430319D01*
X104854524Y-50430319D02*
X105092619Y-50430319D01*
X105092619Y-50430319D02*
X105187857Y-50382700D01*
X105187857Y-50382700D02*
X105235476Y-50335080D01*
X105235476Y-50335080D02*
X105283095Y-50239842D01*
X105283095Y-50239842D02*
X105283095Y-50144604D01*
X105283095Y-50144604D02*
X105235476Y-50049366D01*
X105235476Y-50049366D02*
X105187857Y-50001747D01*
X105187857Y-50001747D02*
X105092619Y-49954128D01*
X105092619Y-49954128D02*
X104902143Y-49906509D01*
X104902143Y-49906509D02*
X104806905Y-49858890D01*
X104806905Y-49858890D02*
X104759286Y-49811271D01*
X104759286Y-49811271D02*
X104711667Y-49716033D01*
X104711667Y-49716033D02*
X104711667Y-49620795D01*
X104711667Y-49620795D02*
X104759286Y-49525557D01*
X104759286Y-49525557D02*
X104806905Y-49477938D01*
X104806905Y-49477938D02*
X104902143Y-49430319D01*
X104902143Y-49430319D02*
X105140238Y-49430319D01*
X105140238Y-49430319D02*
X105283095Y-49477938D01*
X105616429Y-49430319D02*
X105854524Y-50430319D01*
X105854524Y-50430319D02*
X106045000Y-49716033D01*
X106045000Y-49716033D02*
X106235476Y-50430319D01*
X106235476Y-50430319D02*
X106473572Y-49430319D01*
X107330714Y-49430319D02*
X106854524Y-49430319D01*
X106854524Y-49430319D02*
X106806905Y-49906509D01*
X106806905Y-49906509D02*
X106854524Y-49858890D01*
X106854524Y-49858890D02*
X106949762Y-49811271D01*
X106949762Y-49811271D02*
X107187857Y-49811271D01*
X107187857Y-49811271D02*
X107283095Y-49858890D01*
X107283095Y-49858890D02*
X107330714Y-49906509D01*
X107330714Y-49906509D02*
X107378333Y-50001747D01*
X107378333Y-50001747D02*
X107378333Y-50239842D01*
X107378333Y-50239842D02*
X107330714Y-50335080D01*
X107330714Y-50335080D02*
X107283095Y-50382700D01*
X107283095Y-50382700D02*
X107187857Y-50430319D01*
X107187857Y-50430319D02*
X106949762Y-50430319D01*
X106949762Y-50430319D02*
X106854524Y-50382700D01*
X106854524Y-50382700D02*
X106806905Y-50335080D01*
X104711667Y-69432700D02*
X104854524Y-69480319D01*
X104854524Y-69480319D02*
X105092619Y-69480319D01*
X105092619Y-69480319D02*
X105187857Y-69432700D01*
X105187857Y-69432700D02*
X105235476Y-69385080D01*
X105235476Y-69385080D02*
X105283095Y-69289842D01*
X105283095Y-69289842D02*
X105283095Y-69194604D01*
X105283095Y-69194604D02*
X105235476Y-69099366D01*
X105235476Y-69099366D02*
X105187857Y-69051747D01*
X105187857Y-69051747D02*
X105092619Y-69004128D01*
X105092619Y-69004128D02*
X104902143Y-68956509D01*
X104902143Y-68956509D02*
X104806905Y-68908890D01*
X104806905Y-68908890D02*
X104759286Y-68861271D01*
X104759286Y-68861271D02*
X104711667Y-68766033D01*
X104711667Y-68766033D02*
X104711667Y-68670795D01*
X104711667Y-68670795D02*
X104759286Y-68575557D01*
X104759286Y-68575557D02*
X104806905Y-68527938D01*
X104806905Y-68527938D02*
X104902143Y-68480319D01*
X104902143Y-68480319D02*
X105140238Y-68480319D01*
X105140238Y-68480319D02*
X105283095Y-68527938D01*
X105616429Y-68480319D02*
X105854524Y-69480319D01*
X105854524Y-69480319D02*
X106045000Y-68766033D01*
X106045000Y-68766033D02*
X106235476Y-69480319D01*
X106235476Y-69480319D02*
X106473572Y-68480319D01*
X107283095Y-68480319D02*
X107092619Y-68480319D01*
X107092619Y-68480319D02*
X106997381Y-68527938D01*
X106997381Y-68527938D02*
X106949762Y-68575557D01*
X106949762Y-68575557D02*
X106854524Y-68718414D01*
X106854524Y-68718414D02*
X106806905Y-68908890D01*
X106806905Y-68908890D02*
X106806905Y-69289842D01*
X106806905Y-69289842D02*
X106854524Y-69385080D01*
X106854524Y-69385080D02*
X106902143Y-69432700D01*
X106902143Y-69432700D02*
X106997381Y-69480319D01*
X106997381Y-69480319D02*
X107187857Y-69480319D01*
X107187857Y-69480319D02*
X107283095Y-69432700D01*
X107283095Y-69432700D02*
X107330714Y-69385080D01*
X107330714Y-69385080D02*
X107378333Y-69289842D01*
X107378333Y-69289842D02*
X107378333Y-69051747D01*
X107378333Y-69051747D02*
X107330714Y-68956509D01*
X107330714Y-68956509D02*
X107283095Y-68908890D01*
X107283095Y-68908890D02*
X107187857Y-68861271D01*
X107187857Y-68861271D02*
X106997381Y-68861271D01*
X106997381Y-68861271D02*
X106902143Y-68908890D01*
X106902143Y-68908890D02*
X106854524Y-68956509D01*
X106854524Y-68956509D02*
X106806905Y-69051747D01*
X104711667Y-88482700D02*
X104854524Y-88530319D01*
X104854524Y-88530319D02*
X105092619Y-88530319D01*
X105092619Y-88530319D02*
X105187857Y-88482700D01*
X105187857Y-88482700D02*
X105235476Y-88435080D01*
X105235476Y-88435080D02*
X105283095Y-88339842D01*
X105283095Y-88339842D02*
X105283095Y-88244604D01*
X105283095Y-88244604D02*
X105235476Y-88149366D01*
X105235476Y-88149366D02*
X105187857Y-88101747D01*
X105187857Y-88101747D02*
X105092619Y-88054128D01*
X105092619Y-88054128D02*
X104902143Y-88006509D01*
X104902143Y-88006509D02*
X104806905Y-87958890D01*
X104806905Y-87958890D02*
X104759286Y-87911271D01*
X104759286Y-87911271D02*
X104711667Y-87816033D01*
X104711667Y-87816033D02*
X104711667Y-87720795D01*
X104711667Y-87720795D02*
X104759286Y-87625557D01*
X104759286Y-87625557D02*
X104806905Y-87577938D01*
X104806905Y-87577938D02*
X104902143Y-87530319D01*
X104902143Y-87530319D02*
X105140238Y-87530319D01*
X105140238Y-87530319D02*
X105283095Y-87577938D01*
X105616429Y-87530319D02*
X105854524Y-88530319D01*
X105854524Y-88530319D02*
X106045000Y-87816033D01*
X106045000Y-87816033D02*
X106235476Y-88530319D01*
X106235476Y-88530319D02*
X106473572Y-87530319D01*
X106759286Y-87530319D02*
X107425952Y-87530319D01*
X107425952Y-87530319D02*
X106997381Y-88530319D01*
X104711667Y-107532700D02*
X104854524Y-107580319D01*
X104854524Y-107580319D02*
X105092619Y-107580319D01*
X105092619Y-107580319D02*
X105187857Y-107532700D01*
X105187857Y-107532700D02*
X105235476Y-107485080D01*
X105235476Y-107485080D02*
X105283095Y-107389842D01*
X105283095Y-107389842D02*
X105283095Y-107294604D01*
X105283095Y-107294604D02*
X105235476Y-107199366D01*
X105235476Y-107199366D02*
X105187857Y-107151747D01*
X105187857Y-107151747D02*
X105092619Y-107104128D01*
X105092619Y-107104128D02*
X104902143Y-107056509D01*
X104902143Y-107056509D02*
X104806905Y-107008890D01*
X104806905Y-107008890D02*
X104759286Y-106961271D01*
X104759286Y-106961271D02*
X104711667Y-106866033D01*
X104711667Y-106866033D02*
X104711667Y-106770795D01*
X104711667Y-106770795D02*
X104759286Y-106675557D01*
X104759286Y-106675557D02*
X104806905Y-106627938D01*
X104806905Y-106627938D02*
X104902143Y-106580319D01*
X104902143Y-106580319D02*
X105140238Y-106580319D01*
X105140238Y-106580319D02*
X105283095Y-106627938D01*
X105616429Y-106580319D02*
X105854524Y-107580319D01*
X105854524Y-107580319D02*
X106045000Y-106866033D01*
X106045000Y-106866033D02*
X106235476Y-107580319D01*
X106235476Y-107580319D02*
X106473572Y-106580319D01*
X106997381Y-107008890D02*
X106902143Y-106961271D01*
X106902143Y-106961271D02*
X106854524Y-106913652D01*
X106854524Y-106913652D02*
X106806905Y-106818414D01*
X106806905Y-106818414D02*
X106806905Y-106770795D01*
X106806905Y-106770795D02*
X106854524Y-106675557D01*
X106854524Y-106675557D02*
X106902143Y-106627938D01*
X106902143Y-106627938D02*
X106997381Y-106580319D01*
X106997381Y-106580319D02*
X107187857Y-106580319D01*
X107187857Y-106580319D02*
X107283095Y-106627938D01*
X107283095Y-106627938D02*
X107330714Y-106675557D01*
X107330714Y-106675557D02*
X107378333Y-106770795D01*
X107378333Y-106770795D02*
X107378333Y-106818414D01*
X107378333Y-106818414D02*
X107330714Y-106913652D01*
X107330714Y-106913652D02*
X107283095Y-106961271D01*
X107283095Y-106961271D02*
X107187857Y-107008890D01*
X107187857Y-107008890D02*
X106997381Y-107008890D01*
X106997381Y-107008890D02*
X106902143Y-107056509D01*
X106902143Y-107056509D02*
X106854524Y-107104128D01*
X106854524Y-107104128D02*
X106806905Y-107199366D01*
X106806905Y-107199366D02*
X106806905Y-107389842D01*
X106806905Y-107389842D02*
X106854524Y-107485080D01*
X106854524Y-107485080D02*
X106902143Y-107532700D01*
X106902143Y-107532700D02*
X106997381Y-107580319D01*
X106997381Y-107580319D02*
X107187857Y-107580319D01*
X107187857Y-107580319D02*
X107283095Y-107532700D01*
X107283095Y-107532700D02*
X107330714Y-107485080D01*
X107330714Y-107485080D02*
X107378333Y-107389842D01*
X107378333Y-107389842D02*
X107378333Y-107199366D01*
X107378333Y-107199366D02*
X107330714Y-107104128D01*
X107330714Y-107104128D02*
X107283095Y-107056509D01*
X107283095Y-107056509D02*
X107187857Y-107008890D01*
X123761667Y-45620200D02*
X123904524Y-45667819D01*
X123904524Y-45667819D02*
X124142619Y-45667819D01*
X124142619Y-45667819D02*
X124237857Y-45620200D01*
X124237857Y-45620200D02*
X124285476Y-45572580D01*
X124285476Y-45572580D02*
X124333095Y-45477342D01*
X124333095Y-45477342D02*
X124333095Y-45382104D01*
X124333095Y-45382104D02*
X124285476Y-45286866D01*
X124285476Y-45286866D02*
X124237857Y-45239247D01*
X124237857Y-45239247D02*
X124142619Y-45191628D01*
X124142619Y-45191628D02*
X123952143Y-45144009D01*
X123952143Y-45144009D02*
X123856905Y-45096390D01*
X123856905Y-45096390D02*
X123809286Y-45048771D01*
X123809286Y-45048771D02*
X123761667Y-44953533D01*
X123761667Y-44953533D02*
X123761667Y-44858295D01*
X123761667Y-44858295D02*
X123809286Y-44763057D01*
X123809286Y-44763057D02*
X123856905Y-44715438D01*
X123856905Y-44715438D02*
X123952143Y-44667819D01*
X123952143Y-44667819D02*
X124190238Y-44667819D01*
X124190238Y-44667819D02*
X124333095Y-44715438D01*
X124666429Y-44667819D02*
X124904524Y-45667819D01*
X124904524Y-45667819D02*
X125095000Y-44953533D01*
X125095000Y-44953533D02*
X125285476Y-45667819D01*
X125285476Y-45667819D02*
X125523572Y-44667819D01*
X125952143Y-45667819D02*
X126142619Y-45667819D01*
X126142619Y-45667819D02*
X126237857Y-45620200D01*
X126237857Y-45620200D02*
X126285476Y-45572580D01*
X126285476Y-45572580D02*
X126380714Y-45429723D01*
X126380714Y-45429723D02*
X126428333Y-45239247D01*
X126428333Y-45239247D02*
X126428333Y-44858295D01*
X126428333Y-44858295D02*
X126380714Y-44763057D01*
X126380714Y-44763057D02*
X126333095Y-44715438D01*
X126333095Y-44715438D02*
X126237857Y-44667819D01*
X126237857Y-44667819D02*
X126047381Y-44667819D01*
X126047381Y-44667819D02*
X125952143Y-44715438D01*
X125952143Y-44715438D02*
X125904524Y-44763057D01*
X125904524Y-44763057D02*
X125856905Y-44858295D01*
X125856905Y-44858295D02*
X125856905Y-45096390D01*
X125856905Y-45096390D02*
X125904524Y-45191628D01*
X125904524Y-45191628D02*
X125952143Y-45239247D01*
X125952143Y-45239247D02*
X126047381Y-45286866D01*
X126047381Y-45286866D02*
X126237857Y-45286866D01*
X126237857Y-45286866D02*
X126333095Y-45239247D01*
X126333095Y-45239247D02*
X126380714Y-45191628D01*
X126380714Y-45191628D02*
X126428333Y-45096390D01*
X123285476Y-64670200D02*
X123428333Y-64717819D01*
X123428333Y-64717819D02*
X123666428Y-64717819D01*
X123666428Y-64717819D02*
X123761666Y-64670200D01*
X123761666Y-64670200D02*
X123809285Y-64622580D01*
X123809285Y-64622580D02*
X123856904Y-64527342D01*
X123856904Y-64527342D02*
X123856904Y-64432104D01*
X123856904Y-64432104D02*
X123809285Y-64336866D01*
X123809285Y-64336866D02*
X123761666Y-64289247D01*
X123761666Y-64289247D02*
X123666428Y-64241628D01*
X123666428Y-64241628D02*
X123475952Y-64194009D01*
X123475952Y-64194009D02*
X123380714Y-64146390D01*
X123380714Y-64146390D02*
X123333095Y-64098771D01*
X123333095Y-64098771D02*
X123285476Y-64003533D01*
X123285476Y-64003533D02*
X123285476Y-63908295D01*
X123285476Y-63908295D02*
X123333095Y-63813057D01*
X123333095Y-63813057D02*
X123380714Y-63765438D01*
X123380714Y-63765438D02*
X123475952Y-63717819D01*
X123475952Y-63717819D02*
X123714047Y-63717819D01*
X123714047Y-63717819D02*
X123856904Y-63765438D01*
X124190238Y-63717819D02*
X124428333Y-64717819D01*
X124428333Y-64717819D02*
X124618809Y-64003533D01*
X124618809Y-64003533D02*
X124809285Y-64717819D01*
X124809285Y-64717819D02*
X125047381Y-63717819D01*
X125952142Y-64717819D02*
X125380714Y-64717819D01*
X125666428Y-64717819D02*
X125666428Y-63717819D01*
X125666428Y-63717819D02*
X125571190Y-63860676D01*
X125571190Y-63860676D02*
X125475952Y-63955914D01*
X125475952Y-63955914D02*
X125380714Y-64003533D01*
X126571190Y-63717819D02*
X126666428Y-63717819D01*
X126666428Y-63717819D02*
X126761666Y-63765438D01*
X126761666Y-63765438D02*
X126809285Y-63813057D01*
X126809285Y-63813057D02*
X126856904Y-63908295D01*
X126856904Y-63908295D02*
X126904523Y-64098771D01*
X126904523Y-64098771D02*
X126904523Y-64336866D01*
X126904523Y-64336866D02*
X126856904Y-64527342D01*
X126856904Y-64527342D02*
X126809285Y-64622580D01*
X126809285Y-64622580D02*
X126761666Y-64670200D01*
X126761666Y-64670200D02*
X126666428Y-64717819D01*
X126666428Y-64717819D02*
X126571190Y-64717819D01*
X126571190Y-64717819D02*
X126475952Y-64670200D01*
X126475952Y-64670200D02*
X126428333Y-64622580D01*
X126428333Y-64622580D02*
X126380714Y-64527342D01*
X126380714Y-64527342D02*
X126333095Y-64336866D01*
X126333095Y-64336866D02*
X126333095Y-64098771D01*
X126333095Y-64098771D02*
X126380714Y-63908295D01*
X126380714Y-63908295D02*
X126428333Y-63813057D01*
X126428333Y-63813057D02*
X126475952Y-63765438D01*
X126475952Y-63765438D02*
X126571190Y-63717819D01*
X123285476Y-83720200D02*
X123428333Y-83767819D01*
X123428333Y-83767819D02*
X123666428Y-83767819D01*
X123666428Y-83767819D02*
X123761666Y-83720200D01*
X123761666Y-83720200D02*
X123809285Y-83672580D01*
X123809285Y-83672580D02*
X123856904Y-83577342D01*
X123856904Y-83577342D02*
X123856904Y-83482104D01*
X123856904Y-83482104D02*
X123809285Y-83386866D01*
X123809285Y-83386866D02*
X123761666Y-83339247D01*
X123761666Y-83339247D02*
X123666428Y-83291628D01*
X123666428Y-83291628D02*
X123475952Y-83244009D01*
X123475952Y-83244009D02*
X123380714Y-83196390D01*
X123380714Y-83196390D02*
X123333095Y-83148771D01*
X123333095Y-83148771D02*
X123285476Y-83053533D01*
X123285476Y-83053533D02*
X123285476Y-82958295D01*
X123285476Y-82958295D02*
X123333095Y-82863057D01*
X123333095Y-82863057D02*
X123380714Y-82815438D01*
X123380714Y-82815438D02*
X123475952Y-82767819D01*
X123475952Y-82767819D02*
X123714047Y-82767819D01*
X123714047Y-82767819D02*
X123856904Y-82815438D01*
X124190238Y-82767819D02*
X124428333Y-83767819D01*
X124428333Y-83767819D02*
X124618809Y-83053533D01*
X124618809Y-83053533D02*
X124809285Y-83767819D01*
X124809285Y-83767819D02*
X125047381Y-82767819D01*
X125952142Y-83767819D02*
X125380714Y-83767819D01*
X125666428Y-83767819D02*
X125666428Y-82767819D01*
X125666428Y-82767819D02*
X125571190Y-82910676D01*
X125571190Y-82910676D02*
X125475952Y-83005914D01*
X125475952Y-83005914D02*
X125380714Y-83053533D01*
X126904523Y-83767819D02*
X126333095Y-83767819D01*
X126618809Y-83767819D02*
X126618809Y-82767819D01*
X126618809Y-82767819D02*
X126523571Y-82910676D01*
X126523571Y-82910676D02*
X126428333Y-83005914D01*
X126428333Y-83005914D02*
X126333095Y-83053533D01*
X123285476Y-102770200D02*
X123428333Y-102817819D01*
X123428333Y-102817819D02*
X123666428Y-102817819D01*
X123666428Y-102817819D02*
X123761666Y-102770200D01*
X123761666Y-102770200D02*
X123809285Y-102722580D01*
X123809285Y-102722580D02*
X123856904Y-102627342D01*
X123856904Y-102627342D02*
X123856904Y-102532104D01*
X123856904Y-102532104D02*
X123809285Y-102436866D01*
X123809285Y-102436866D02*
X123761666Y-102389247D01*
X123761666Y-102389247D02*
X123666428Y-102341628D01*
X123666428Y-102341628D02*
X123475952Y-102294009D01*
X123475952Y-102294009D02*
X123380714Y-102246390D01*
X123380714Y-102246390D02*
X123333095Y-102198771D01*
X123333095Y-102198771D02*
X123285476Y-102103533D01*
X123285476Y-102103533D02*
X123285476Y-102008295D01*
X123285476Y-102008295D02*
X123333095Y-101913057D01*
X123333095Y-101913057D02*
X123380714Y-101865438D01*
X123380714Y-101865438D02*
X123475952Y-101817819D01*
X123475952Y-101817819D02*
X123714047Y-101817819D01*
X123714047Y-101817819D02*
X123856904Y-101865438D01*
X124190238Y-101817819D02*
X124428333Y-102817819D01*
X124428333Y-102817819D02*
X124618809Y-102103533D01*
X124618809Y-102103533D02*
X124809285Y-102817819D01*
X124809285Y-102817819D02*
X125047381Y-101817819D01*
X125952142Y-102817819D02*
X125380714Y-102817819D01*
X125666428Y-102817819D02*
X125666428Y-101817819D01*
X125666428Y-101817819D02*
X125571190Y-101960676D01*
X125571190Y-101960676D02*
X125475952Y-102055914D01*
X125475952Y-102055914D02*
X125380714Y-102103533D01*
X126333095Y-101913057D02*
X126380714Y-101865438D01*
X126380714Y-101865438D02*
X126475952Y-101817819D01*
X126475952Y-101817819D02*
X126714047Y-101817819D01*
X126714047Y-101817819D02*
X126809285Y-101865438D01*
X126809285Y-101865438D02*
X126856904Y-101913057D01*
X126856904Y-101913057D02*
X126904523Y-102008295D01*
X126904523Y-102008295D02*
X126904523Y-102103533D01*
X126904523Y-102103533D02*
X126856904Y-102246390D01*
X126856904Y-102246390D02*
X126285476Y-102817819D01*
X126285476Y-102817819D02*
X126904523Y-102817819D01*
X143168476Y-43163200D02*
X143311333Y-43210819D01*
X143311333Y-43210819D02*
X143549428Y-43210819D01*
X143549428Y-43210819D02*
X143644666Y-43163200D01*
X143644666Y-43163200D02*
X143692285Y-43115580D01*
X143692285Y-43115580D02*
X143739904Y-43020342D01*
X143739904Y-43020342D02*
X143739904Y-42925104D01*
X143739904Y-42925104D02*
X143692285Y-42829866D01*
X143692285Y-42829866D02*
X143644666Y-42782247D01*
X143644666Y-42782247D02*
X143549428Y-42734628D01*
X143549428Y-42734628D02*
X143358952Y-42687009D01*
X143358952Y-42687009D02*
X143263714Y-42639390D01*
X143263714Y-42639390D02*
X143216095Y-42591771D01*
X143216095Y-42591771D02*
X143168476Y-42496533D01*
X143168476Y-42496533D02*
X143168476Y-42401295D01*
X143168476Y-42401295D02*
X143216095Y-42306057D01*
X143216095Y-42306057D02*
X143263714Y-42258438D01*
X143263714Y-42258438D02*
X143358952Y-42210819D01*
X143358952Y-42210819D02*
X143597047Y-42210819D01*
X143597047Y-42210819D02*
X143739904Y-42258438D01*
X144073238Y-42210819D02*
X144311333Y-43210819D01*
X144311333Y-43210819D02*
X144501809Y-42496533D01*
X144501809Y-42496533D02*
X144692285Y-43210819D01*
X144692285Y-43210819D02*
X144930381Y-42210819D01*
X145835142Y-43210819D02*
X145263714Y-43210819D01*
X145549428Y-43210819D02*
X145549428Y-42210819D01*
X145549428Y-42210819D02*
X145454190Y-42353676D01*
X145454190Y-42353676D02*
X145358952Y-42448914D01*
X145358952Y-42448914D02*
X145263714Y-42496533D01*
X146168476Y-42210819D02*
X146787523Y-42210819D01*
X146787523Y-42210819D02*
X146454190Y-42591771D01*
X146454190Y-42591771D02*
X146597047Y-42591771D01*
X146597047Y-42591771D02*
X146692285Y-42639390D01*
X146692285Y-42639390D02*
X146739904Y-42687009D01*
X146739904Y-42687009D02*
X146787523Y-42782247D01*
X146787523Y-42782247D02*
X146787523Y-43020342D01*
X146787523Y-43020342D02*
X146739904Y-43115580D01*
X146739904Y-43115580D02*
X146692285Y-43163200D01*
X146692285Y-43163200D02*
X146597047Y-43210819D01*
X146597047Y-43210819D02*
X146311333Y-43210819D01*
X146311333Y-43210819D02*
X146216095Y-43163200D01*
X146216095Y-43163200D02*
X146168476Y-43115580D01*
X142668476Y-62163200D02*
X142811333Y-62210819D01*
X142811333Y-62210819D02*
X143049428Y-62210819D01*
X143049428Y-62210819D02*
X143144666Y-62163200D01*
X143144666Y-62163200D02*
X143192285Y-62115580D01*
X143192285Y-62115580D02*
X143239904Y-62020342D01*
X143239904Y-62020342D02*
X143239904Y-61925104D01*
X143239904Y-61925104D02*
X143192285Y-61829866D01*
X143192285Y-61829866D02*
X143144666Y-61782247D01*
X143144666Y-61782247D02*
X143049428Y-61734628D01*
X143049428Y-61734628D02*
X142858952Y-61687009D01*
X142858952Y-61687009D02*
X142763714Y-61639390D01*
X142763714Y-61639390D02*
X142716095Y-61591771D01*
X142716095Y-61591771D02*
X142668476Y-61496533D01*
X142668476Y-61496533D02*
X142668476Y-61401295D01*
X142668476Y-61401295D02*
X142716095Y-61306057D01*
X142716095Y-61306057D02*
X142763714Y-61258438D01*
X142763714Y-61258438D02*
X142858952Y-61210819D01*
X142858952Y-61210819D02*
X143097047Y-61210819D01*
X143097047Y-61210819D02*
X143239904Y-61258438D01*
X143573238Y-61210819D02*
X143811333Y-62210819D01*
X143811333Y-62210819D02*
X144001809Y-61496533D01*
X144001809Y-61496533D02*
X144192285Y-62210819D01*
X144192285Y-62210819D02*
X144430381Y-61210819D01*
X145335142Y-62210819D02*
X144763714Y-62210819D01*
X145049428Y-62210819D02*
X145049428Y-61210819D01*
X145049428Y-61210819D02*
X144954190Y-61353676D01*
X144954190Y-61353676D02*
X144858952Y-61448914D01*
X144858952Y-61448914D02*
X144763714Y-61496533D01*
X146192285Y-61544152D02*
X146192285Y-62210819D01*
X145954190Y-61163200D02*
X145716095Y-61877485D01*
X145716095Y-61877485D02*
X146335142Y-61877485D01*
X142168476Y-81163200D02*
X142311333Y-81210819D01*
X142311333Y-81210819D02*
X142549428Y-81210819D01*
X142549428Y-81210819D02*
X142644666Y-81163200D01*
X142644666Y-81163200D02*
X142692285Y-81115580D01*
X142692285Y-81115580D02*
X142739904Y-81020342D01*
X142739904Y-81020342D02*
X142739904Y-80925104D01*
X142739904Y-80925104D02*
X142692285Y-80829866D01*
X142692285Y-80829866D02*
X142644666Y-80782247D01*
X142644666Y-80782247D02*
X142549428Y-80734628D01*
X142549428Y-80734628D02*
X142358952Y-80687009D01*
X142358952Y-80687009D02*
X142263714Y-80639390D01*
X142263714Y-80639390D02*
X142216095Y-80591771D01*
X142216095Y-80591771D02*
X142168476Y-80496533D01*
X142168476Y-80496533D02*
X142168476Y-80401295D01*
X142168476Y-80401295D02*
X142216095Y-80306057D01*
X142216095Y-80306057D02*
X142263714Y-80258438D01*
X142263714Y-80258438D02*
X142358952Y-80210819D01*
X142358952Y-80210819D02*
X142597047Y-80210819D01*
X142597047Y-80210819D02*
X142739904Y-80258438D01*
X143073238Y-80210819D02*
X143311333Y-81210819D01*
X143311333Y-81210819D02*
X143501809Y-80496533D01*
X143501809Y-80496533D02*
X143692285Y-81210819D01*
X143692285Y-81210819D02*
X143930381Y-80210819D01*
X144835142Y-81210819D02*
X144263714Y-81210819D01*
X144549428Y-81210819D02*
X144549428Y-80210819D01*
X144549428Y-80210819D02*
X144454190Y-80353676D01*
X144454190Y-80353676D02*
X144358952Y-80448914D01*
X144358952Y-80448914D02*
X144263714Y-80496533D01*
X145739904Y-80210819D02*
X145263714Y-80210819D01*
X145263714Y-80210819D02*
X145216095Y-80687009D01*
X145216095Y-80687009D02*
X145263714Y-80639390D01*
X145263714Y-80639390D02*
X145358952Y-80591771D01*
X145358952Y-80591771D02*
X145597047Y-80591771D01*
X145597047Y-80591771D02*
X145692285Y-80639390D01*
X145692285Y-80639390D02*
X145739904Y-80687009D01*
X145739904Y-80687009D02*
X145787523Y-80782247D01*
X145787523Y-80782247D02*
X145787523Y-81020342D01*
X145787523Y-81020342D02*
X145739904Y-81115580D01*
X145739904Y-81115580D02*
X145692285Y-81163200D01*
X145692285Y-81163200D02*
X145597047Y-81210819D01*
X145597047Y-81210819D02*
X145358952Y-81210819D01*
X145358952Y-81210819D02*
X145263714Y-81163200D01*
X145263714Y-81163200D02*
X145216095Y-81115580D01*
X142168476Y-100663200D02*
X142311333Y-100710819D01*
X142311333Y-100710819D02*
X142549428Y-100710819D01*
X142549428Y-100710819D02*
X142644666Y-100663200D01*
X142644666Y-100663200D02*
X142692285Y-100615580D01*
X142692285Y-100615580D02*
X142739904Y-100520342D01*
X142739904Y-100520342D02*
X142739904Y-100425104D01*
X142739904Y-100425104D02*
X142692285Y-100329866D01*
X142692285Y-100329866D02*
X142644666Y-100282247D01*
X142644666Y-100282247D02*
X142549428Y-100234628D01*
X142549428Y-100234628D02*
X142358952Y-100187009D01*
X142358952Y-100187009D02*
X142263714Y-100139390D01*
X142263714Y-100139390D02*
X142216095Y-100091771D01*
X142216095Y-100091771D02*
X142168476Y-99996533D01*
X142168476Y-99996533D02*
X142168476Y-99901295D01*
X142168476Y-99901295D02*
X142216095Y-99806057D01*
X142216095Y-99806057D02*
X142263714Y-99758438D01*
X142263714Y-99758438D02*
X142358952Y-99710819D01*
X142358952Y-99710819D02*
X142597047Y-99710819D01*
X142597047Y-99710819D02*
X142739904Y-99758438D01*
X143073238Y-99710819D02*
X143311333Y-100710819D01*
X143311333Y-100710819D02*
X143501809Y-99996533D01*
X143501809Y-99996533D02*
X143692285Y-100710819D01*
X143692285Y-100710819D02*
X143930381Y-99710819D01*
X144835142Y-100710819D02*
X144263714Y-100710819D01*
X144549428Y-100710819D02*
X144549428Y-99710819D01*
X144549428Y-99710819D02*
X144454190Y-99853676D01*
X144454190Y-99853676D02*
X144358952Y-99948914D01*
X144358952Y-99948914D02*
X144263714Y-99996533D01*
X145692285Y-99710819D02*
X145501809Y-99710819D01*
X145501809Y-99710819D02*
X145406571Y-99758438D01*
X145406571Y-99758438D02*
X145358952Y-99806057D01*
X145358952Y-99806057D02*
X145263714Y-99948914D01*
X145263714Y-99948914D02*
X145216095Y-100139390D01*
X145216095Y-100139390D02*
X145216095Y-100520342D01*
X145216095Y-100520342D02*
X145263714Y-100615580D01*
X145263714Y-100615580D02*
X145311333Y-100663200D01*
X145311333Y-100663200D02*
X145406571Y-100710819D01*
X145406571Y-100710819D02*
X145597047Y-100710819D01*
X145597047Y-100710819D02*
X145692285Y-100663200D01*
X145692285Y-100663200D02*
X145739904Y-100615580D01*
X145739904Y-100615580D02*
X145787523Y-100520342D01*
X145787523Y-100520342D02*
X145787523Y-100282247D01*
X145787523Y-100282247D02*
X145739904Y-100187009D01*
X145739904Y-100187009D02*
X145692285Y-100139390D01*
X145692285Y-100139390D02*
X145597047Y-100091771D01*
X145597047Y-100091771D02*
X145406571Y-100091771D01*
X145406571Y-100091771D02*
X145311333Y-100139390D01*
X145311333Y-100139390D02*
X145263714Y-100187009D01*
X145263714Y-100187009D02*
X145216095Y-100282247D01*
X161385476Y-45620200D02*
X161528333Y-45667819D01*
X161528333Y-45667819D02*
X161766428Y-45667819D01*
X161766428Y-45667819D02*
X161861666Y-45620200D01*
X161861666Y-45620200D02*
X161909285Y-45572580D01*
X161909285Y-45572580D02*
X161956904Y-45477342D01*
X161956904Y-45477342D02*
X161956904Y-45382104D01*
X161956904Y-45382104D02*
X161909285Y-45286866D01*
X161909285Y-45286866D02*
X161861666Y-45239247D01*
X161861666Y-45239247D02*
X161766428Y-45191628D01*
X161766428Y-45191628D02*
X161575952Y-45144009D01*
X161575952Y-45144009D02*
X161480714Y-45096390D01*
X161480714Y-45096390D02*
X161433095Y-45048771D01*
X161433095Y-45048771D02*
X161385476Y-44953533D01*
X161385476Y-44953533D02*
X161385476Y-44858295D01*
X161385476Y-44858295D02*
X161433095Y-44763057D01*
X161433095Y-44763057D02*
X161480714Y-44715438D01*
X161480714Y-44715438D02*
X161575952Y-44667819D01*
X161575952Y-44667819D02*
X161814047Y-44667819D01*
X161814047Y-44667819D02*
X161956904Y-44715438D01*
X162290238Y-44667819D02*
X162528333Y-45667819D01*
X162528333Y-45667819D02*
X162718809Y-44953533D01*
X162718809Y-44953533D02*
X162909285Y-45667819D01*
X162909285Y-45667819D02*
X163147381Y-44667819D01*
X164052142Y-45667819D02*
X163480714Y-45667819D01*
X163766428Y-45667819D02*
X163766428Y-44667819D01*
X163766428Y-44667819D02*
X163671190Y-44810676D01*
X163671190Y-44810676D02*
X163575952Y-44905914D01*
X163575952Y-44905914D02*
X163480714Y-44953533D01*
X164385476Y-44667819D02*
X165052142Y-44667819D01*
X165052142Y-44667819D02*
X164623571Y-45667819D01*
X161385476Y-64670200D02*
X161528333Y-64717819D01*
X161528333Y-64717819D02*
X161766428Y-64717819D01*
X161766428Y-64717819D02*
X161861666Y-64670200D01*
X161861666Y-64670200D02*
X161909285Y-64622580D01*
X161909285Y-64622580D02*
X161956904Y-64527342D01*
X161956904Y-64527342D02*
X161956904Y-64432104D01*
X161956904Y-64432104D02*
X161909285Y-64336866D01*
X161909285Y-64336866D02*
X161861666Y-64289247D01*
X161861666Y-64289247D02*
X161766428Y-64241628D01*
X161766428Y-64241628D02*
X161575952Y-64194009D01*
X161575952Y-64194009D02*
X161480714Y-64146390D01*
X161480714Y-64146390D02*
X161433095Y-64098771D01*
X161433095Y-64098771D02*
X161385476Y-64003533D01*
X161385476Y-64003533D02*
X161385476Y-63908295D01*
X161385476Y-63908295D02*
X161433095Y-63813057D01*
X161433095Y-63813057D02*
X161480714Y-63765438D01*
X161480714Y-63765438D02*
X161575952Y-63717819D01*
X161575952Y-63717819D02*
X161814047Y-63717819D01*
X161814047Y-63717819D02*
X161956904Y-63765438D01*
X162290238Y-63717819D02*
X162528333Y-64717819D01*
X162528333Y-64717819D02*
X162718809Y-64003533D01*
X162718809Y-64003533D02*
X162909285Y-64717819D01*
X162909285Y-64717819D02*
X163147381Y-63717819D01*
X164052142Y-64717819D02*
X163480714Y-64717819D01*
X163766428Y-64717819D02*
X163766428Y-63717819D01*
X163766428Y-63717819D02*
X163671190Y-63860676D01*
X163671190Y-63860676D02*
X163575952Y-63955914D01*
X163575952Y-63955914D02*
X163480714Y-64003533D01*
X164623571Y-64146390D02*
X164528333Y-64098771D01*
X164528333Y-64098771D02*
X164480714Y-64051152D01*
X164480714Y-64051152D02*
X164433095Y-63955914D01*
X164433095Y-63955914D02*
X164433095Y-63908295D01*
X164433095Y-63908295D02*
X164480714Y-63813057D01*
X164480714Y-63813057D02*
X164528333Y-63765438D01*
X164528333Y-63765438D02*
X164623571Y-63717819D01*
X164623571Y-63717819D02*
X164814047Y-63717819D01*
X164814047Y-63717819D02*
X164909285Y-63765438D01*
X164909285Y-63765438D02*
X164956904Y-63813057D01*
X164956904Y-63813057D02*
X165004523Y-63908295D01*
X165004523Y-63908295D02*
X165004523Y-63955914D01*
X165004523Y-63955914D02*
X164956904Y-64051152D01*
X164956904Y-64051152D02*
X164909285Y-64098771D01*
X164909285Y-64098771D02*
X164814047Y-64146390D01*
X164814047Y-64146390D02*
X164623571Y-64146390D01*
X164623571Y-64146390D02*
X164528333Y-64194009D01*
X164528333Y-64194009D02*
X164480714Y-64241628D01*
X164480714Y-64241628D02*
X164433095Y-64336866D01*
X164433095Y-64336866D02*
X164433095Y-64527342D01*
X164433095Y-64527342D02*
X164480714Y-64622580D01*
X164480714Y-64622580D02*
X164528333Y-64670200D01*
X164528333Y-64670200D02*
X164623571Y-64717819D01*
X164623571Y-64717819D02*
X164814047Y-64717819D01*
X164814047Y-64717819D02*
X164909285Y-64670200D01*
X164909285Y-64670200D02*
X164956904Y-64622580D01*
X164956904Y-64622580D02*
X165004523Y-64527342D01*
X165004523Y-64527342D02*
X165004523Y-64336866D01*
X165004523Y-64336866D02*
X164956904Y-64241628D01*
X164956904Y-64241628D02*
X164909285Y-64194009D01*
X164909285Y-64194009D02*
X164814047Y-64146390D01*
X161385476Y-83720200D02*
X161528333Y-83767819D01*
X161528333Y-83767819D02*
X161766428Y-83767819D01*
X161766428Y-83767819D02*
X161861666Y-83720200D01*
X161861666Y-83720200D02*
X161909285Y-83672580D01*
X161909285Y-83672580D02*
X161956904Y-83577342D01*
X161956904Y-83577342D02*
X161956904Y-83482104D01*
X161956904Y-83482104D02*
X161909285Y-83386866D01*
X161909285Y-83386866D02*
X161861666Y-83339247D01*
X161861666Y-83339247D02*
X161766428Y-83291628D01*
X161766428Y-83291628D02*
X161575952Y-83244009D01*
X161575952Y-83244009D02*
X161480714Y-83196390D01*
X161480714Y-83196390D02*
X161433095Y-83148771D01*
X161433095Y-83148771D02*
X161385476Y-83053533D01*
X161385476Y-83053533D02*
X161385476Y-82958295D01*
X161385476Y-82958295D02*
X161433095Y-82863057D01*
X161433095Y-82863057D02*
X161480714Y-82815438D01*
X161480714Y-82815438D02*
X161575952Y-82767819D01*
X161575952Y-82767819D02*
X161814047Y-82767819D01*
X161814047Y-82767819D02*
X161956904Y-82815438D01*
X162290238Y-82767819D02*
X162528333Y-83767819D01*
X162528333Y-83767819D02*
X162718809Y-83053533D01*
X162718809Y-83053533D02*
X162909285Y-83767819D01*
X162909285Y-83767819D02*
X163147381Y-82767819D01*
X164052142Y-83767819D02*
X163480714Y-83767819D01*
X163766428Y-83767819D02*
X163766428Y-82767819D01*
X163766428Y-82767819D02*
X163671190Y-82910676D01*
X163671190Y-82910676D02*
X163575952Y-83005914D01*
X163575952Y-83005914D02*
X163480714Y-83053533D01*
X164528333Y-83767819D02*
X164718809Y-83767819D01*
X164718809Y-83767819D02*
X164814047Y-83720200D01*
X164814047Y-83720200D02*
X164861666Y-83672580D01*
X164861666Y-83672580D02*
X164956904Y-83529723D01*
X164956904Y-83529723D02*
X165004523Y-83339247D01*
X165004523Y-83339247D02*
X165004523Y-82958295D01*
X165004523Y-82958295D02*
X164956904Y-82863057D01*
X164956904Y-82863057D02*
X164909285Y-82815438D01*
X164909285Y-82815438D02*
X164814047Y-82767819D01*
X164814047Y-82767819D02*
X164623571Y-82767819D01*
X164623571Y-82767819D02*
X164528333Y-82815438D01*
X164528333Y-82815438D02*
X164480714Y-82863057D01*
X164480714Y-82863057D02*
X164433095Y-82958295D01*
X164433095Y-82958295D02*
X164433095Y-83196390D01*
X164433095Y-83196390D02*
X164480714Y-83291628D01*
X164480714Y-83291628D02*
X164528333Y-83339247D01*
X164528333Y-83339247D02*
X164623571Y-83386866D01*
X164623571Y-83386866D02*
X164814047Y-83386866D01*
X164814047Y-83386866D02*
X164909285Y-83339247D01*
X164909285Y-83339247D02*
X164956904Y-83291628D01*
X164956904Y-83291628D02*
X165004523Y-83196390D01*
X161385476Y-102770200D02*
X161528333Y-102817819D01*
X161528333Y-102817819D02*
X161766428Y-102817819D01*
X161766428Y-102817819D02*
X161861666Y-102770200D01*
X161861666Y-102770200D02*
X161909285Y-102722580D01*
X161909285Y-102722580D02*
X161956904Y-102627342D01*
X161956904Y-102627342D02*
X161956904Y-102532104D01*
X161956904Y-102532104D02*
X161909285Y-102436866D01*
X161909285Y-102436866D02*
X161861666Y-102389247D01*
X161861666Y-102389247D02*
X161766428Y-102341628D01*
X161766428Y-102341628D02*
X161575952Y-102294009D01*
X161575952Y-102294009D02*
X161480714Y-102246390D01*
X161480714Y-102246390D02*
X161433095Y-102198771D01*
X161433095Y-102198771D02*
X161385476Y-102103533D01*
X161385476Y-102103533D02*
X161385476Y-102008295D01*
X161385476Y-102008295D02*
X161433095Y-101913057D01*
X161433095Y-101913057D02*
X161480714Y-101865438D01*
X161480714Y-101865438D02*
X161575952Y-101817819D01*
X161575952Y-101817819D02*
X161814047Y-101817819D01*
X161814047Y-101817819D02*
X161956904Y-101865438D01*
X162290238Y-101817819D02*
X162528333Y-102817819D01*
X162528333Y-102817819D02*
X162718809Y-102103533D01*
X162718809Y-102103533D02*
X162909285Y-102817819D01*
X162909285Y-102817819D02*
X163147381Y-101817819D01*
X163480714Y-101913057D02*
X163528333Y-101865438D01*
X163528333Y-101865438D02*
X163623571Y-101817819D01*
X163623571Y-101817819D02*
X163861666Y-101817819D01*
X163861666Y-101817819D02*
X163956904Y-101865438D01*
X163956904Y-101865438D02*
X164004523Y-101913057D01*
X164004523Y-101913057D02*
X164052142Y-102008295D01*
X164052142Y-102008295D02*
X164052142Y-102103533D01*
X164052142Y-102103533D02*
X164004523Y-102246390D01*
X164004523Y-102246390D02*
X163433095Y-102817819D01*
X163433095Y-102817819D02*
X164052142Y-102817819D01*
X164671190Y-101817819D02*
X164766428Y-101817819D01*
X164766428Y-101817819D02*
X164861666Y-101865438D01*
X164861666Y-101865438D02*
X164909285Y-101913057D01*
X164909285Y-101913057D02*
X164956904Y-102008295D01*
X164956904Y-102008295D02*
X165004523Y-102198771D01*
X165004523Y-102198771D02*
X165004523Y-102436866D01*
X165004523Y-102436866D02*
X164956904Y-102627342D01*
X164956904Y-102627342D02*
X164909285Y-102722580D01*
X164909285Y-102722580D02*
X164861666Y-102770200D01*
X164861666Y-102770200D02*
X164766428Y-102817819D01*
X164766428Y-102817819D02*
X164671190Y-102817819D01*
X164671190Y-102817819D02*
X164575952Y-102770200D01*
X164575952Y-102770200D02*
X164528333Y-102722580D01*
X164528333Y-102722580D02*
X164480714Y-102627342D01*
X164480714Y-102627342D02*
X164433095Y-102436866D01*
X164433095Y-102436866D02*
X164433095Y-102198771D01*
X164433095Y-102198771D02*
X164480714Y-102008295D01*
X164480714Y-102008295D02*
X164528333Y-101913057D01*
X164528333Y-101913057D02*
X164575952Y-101865438D01*
X164575952Y-101865438D02*
X164671190Y-101817819D01*
X180435476Y-48001450D02*
X180578333Y-48049069D01*
X180578333Y-48049069D02*
X180816428Y-48049069D01*
X180816428Y-48049069D02*
X180911666Y-48001450D01*
X180911666Y-48001450D02*
X180959285Y-47953830D01*
X180959285Y-47953830D02*
X181006904Y-47858592D01*
X181006904Y-47858592D02*
X181006904Y-47763354D01*
X181006904Y-47763354D02*
X180959285Y-47668116D01*
X180959285Y-47668116D02*
X180911666Y-47620497D01*
X180911666Y-47620497D02*
X180816428Y-47572878D01*
X180816428Y-47572878D02*
X180625952Y-47525259D01*
X180625952Y-47525259D02*
X180530714Y-47477640D01*
X180530714Y-47477640D02*
X180483095Y-47430021D01*
X180483095Y-47430021D02*
X180435476Y-47334783D01*
X180435476Y-47334783D02*
X180435476Y-47239545D01*
X180435476Y-47239545D02*
X180483095Y-47144307D01*
X180483095Y-47144307D02*
X180530714Y-47096688D01*
X180530714Y-47096688D02*
X180625952Y-47049069D01*
X180625952Y-47049069D02*
X180864047Y-47049069D01*
X180864047Y-47049069D02*
X181006904Y-47096688D01*
X181340238Y-47049069D02*
X181578333Y-48049069D01*
X181578333Y-48049069D02*
X181768809Y-47334783D01*
X181768809Y-47334783D02*
X181959285Y-48049069D01*
X181959285Y-48049069D02*
X182197381Y-47049069D01*
X182530714Y-47144307D02*
X182578333Y-47096688D01*
X182578333Y-47096688D02*
X182673571Y-47049069D01*
X182673571Y-47049069D02*
X182911666Y-47049069D01*
X182911666Y-47049069D02*
X183006904Y-47096688D01*
X183006904Y-47096688D02*
X183054523Y-47144307D01*
X183054523Y-47144307D02*
X183102142Y-47239545D01*
X183102142Y-47239545D02*
X183102142Y-47334783D01*
X183102142Y-47334783D02*
X183054523Y-47477640D01*
X183054523Y-47477640D02*
X182483095Y-48049069D01*
X182483095Y-48049069D02*
X183102142Y-48049069D01*
X184054523Y-48049069D02*
X183483095Y-48049069D01*
X183768809Y-48049069D02*
X183768809Y-47049069D01*
X183768809Y-47049069D02*
X183673571Y-47191926D01*
X183673571Y-47191926D02*
X183578333Y-47287164D01*
X183578333Y-47287164D02*
X183483095Y-47334783D01*
X180435476Y-67051450D02*
X180578333Y-67099069D01*
X180578333Y-67099069D02*
X180816428Y-67099069D01*
X180816428Y-67099069D02*
X180911666Y-67051450D01*
X180911666Y-67051450D02*
X180959285Y-67003830D01*
X180959285Y-67003830D02*
X181006904Y-66908592D01*
X181006904Y-66908592D02*
X181006904Y-66813354D01*
X181006904Y-66813354D02*
X180959285Y-66718116D01*
X180959285Y-66718116D02*
X180911666Y-66670497D01*
X180911666Y-66670497D02*
X180816428Y-66622878D01*
X180816428Y-66622878D02*
X180625952Y-66575259D01*
X180625952Y-66575259D02*
X180530714Y-66527640D01*
X180530714Y-66527640D02*
X180483095Y-66480021D01*
X180483095Y-66480021D02*
X180435476Y-66384783D01*
X180435476Y-66384783D02*
X180435476Y-66289545D01*
X180435476Y-66289545D02*
X180483095Y-66194307D01*
X180483095Y-66194307D02*
X180530714Y-66146688D01*
X180530714Y-66146688D02*
X180625952Y-66099069D01*
X180625952Y-66099069D02*
X180864047Y-66099069D01*
X180864047Y-66099069D02*
X181006904Y-66146688D01*
X181340238Y-66099069D02*
X181578333Y-67099069D01*
X181578333Y-67099069D02*
X181768809Y-66384783D01*
X181768809Y-66384783D02*
X181959285Y-67099069D01*
X181959285Y-67099069D02*
X182197381Y-66099069D01*
X182530714Y-66194307D02*
X182578333Y-66146688D01*
X182578333Y-66146688D02*
X182673571Y-66099069D01*
X182673571Y-66099069D02*
X182911666Y-66099069D01*
X182911666Y-66099069D02*
X183006904Y-66146688D01*
X183006904Y-66146688D02*
X183054523Y-66194307D01*
X183054523Y-66194307D02*
X183102142Y-66289545D01*
X183102142Y-66289545D02*
X183102142Y-66384783D01*
X183102142Y-66384783D02*
X183054523Y-66527640D01*
X183054523Y-66527640D02*
X182483095Y-67099069D01*
X182483095Y-67099069D02*
X183102142Y-67099069D01*
X183483095Y-66194307D02*
X183530714Y-66146688D01*
X183530714Y-66146688D02*
X183625952Y-66099069D01*
X183625952Y-66099069D02*
X183864047Y-66099069D01*
X183864047Y-66099069D02*
X183959285Y-66146688D01*
X183959285Y-66146688D02*
X184006904Y-66194307D01*
X184006904Y-66194307D02*
X184054523Y-66289545D01*
X184054523Y-66289545D02*
X184054523Y-66384783D01*
X184054523Y-66384783D02*
X184006904Y-66527640D01*
X184006904Y-66527640D02*
X183435476Y-67099069D01*
X183435476Y-67099069D02*
X184054523Y-67099069D01*
X180435476Y-86101450D02*
X180578333Y-86149069D01*
X180578333Y-86149069D02*
X180816428Y-86149069D01*
X180816428Y-86149069D02*
X180911666Y-86101450D01*
X180911666Y-86101450D02*
X180959285Y-86053830D01*
X180959285Y-86053830D02*
X181006904Y-85958592D01*
X181006904Y-85958592D02*
X181006904Y-85863354D01*
X181006904Y-85863354D02*
X180959285Y-85768116D01*
X180959285Y-85768116D02*
X180911666Y-85720497D01*
X180911666Y-85720497D02*
X180816428Y-85672878D01*
X180816428Y-85672878D02*
X180625952Y-85625259D01*
X180625952Y-85625259D02*
X180530714Y-85577640D01*
X180530714Y-85577640D02*
X180483095Y-85530021D01*
X180483095Y-85530021D02*
X180435476Y-85434783D01*
X180435476Y-85434783D02*
X180435476Y-85339545D01*
X180435476Y-85339545D02*
X180483095Y-85244307D01*
X180483095Y-85244307D02*
X180530714Y-85196688D01*
X180530714Y-85196688D02*
X180625952Y-85149069D01*
X180625952Y-85149069D02*
X180864047Y-85149069D01*
X180864047Y-85149069D02*
X181006904Y-85196688D01*
X181340238Y-85149069D02*
X181578333Y-86149069D01*
X181578333Y-86149069D02*
X181768809Y-85434783D01*
X181768809Y-85434783D02*
X181959285Y-86149069D01*
X181959285Y-86149069D02*
X182197381Y-85149069D01*
X182530714Y-85244307D02*
X182578333Y-85196688D01*
X182578333Y-85196688D02*
X182673571Y-85149069D01*
X182673571Y-85149069D02*
X182911666Y-85149069D01*
X182911666Y-85149069D02*
X183006904Y-85196688D01*
X183006904Y-85196688D02*
X183054523Y-85244307D01*
X183054523Y-85244307D02*
X183102142Y-85339545D01*
X183102142Y-85339545D02*
X183102142Y-85434783D01*
X183102142Y-85434783D02*
X183054523Y-85577640D01*
X183054523Y-85577640D02*
X182483095Y-86149069D01*
X182483095Y-86149069D02*
X183102142Y-86149069D01*
X183435476Y-85149069D02*
X184054523Y-85149069D01*
X184054523Y-85149069D02*
X183721190Y-85530021D01*
X183721190Y-85530021D02*
X183864047Y-85530021D01*
X183864047Y-85530021D02*
X183959285Y-85577640D01*
X183959285Y-85577640D02*
X184006904Y-85625259D01*
X184006904Y-85625259D02*
X184054523Y-85720497D01*
X184054523Y-85720497D02*
X184054523Y-85958592D01*
X184054523Y-85958592D02*
X184006904Y-86053830D01*
X184006904Y-86053830D02*
X183959285Y-86101450D01*
X183959285Y-86101450D02*
X183864047Y-86149069D01*
X183864047Y-86149069D02*
X183578333Y-86149069D01*
X183578333Y-86149069D02*
X183483095Y-86101450D01*
X183483095Y-86101450D02*
X183435476Y-86053830D01*
X180435476Y-105151450D02*
X180578333Y-105199069D01*
X180578333Y-105199069D02*
X180816428Y-105199069D01*
X180816428Y-105199069D02*
X180911666Y-105151450D01*
X180911666Y-105151450D02*
X180959285Y-105103830D01*
X180959285Y-105103830D02*
X181006904Y-105008592D01*
X181006904Y-105008592D02*
X181006904Y-104913354D01*
X181006904Y-104913354D02*
X180959285Y-104818116D01*
X180959285Y-104818116D02*
X180911666Y-104770497D01*
X180911666Y-104770497D02*
X180816428Y-104722878D01*
X180816428Y-104722878D02*
X180625952Y-104675259D01*
X180625952Y-104675259D02*
X180530714Y-104627640D01*
X180530714Y-104627640D02*
X180483095Y-104580021D01*
X180483095Y-104580021D02*
X180435476Y-104484783D01*
X180435476Y-104484783D02*
X180435476Y-104389545D01*
X180435476Y-104389545D02*
X180483095Y-104294307D01*
X180483095Y-104294307D02*
X180530714Y-104246688D01*
X180530714Y-104246688D02*
X180625952Y-104199069D01*
X180625952Y-104199069D02*
X180864047Y-104199069D01*
X180864047Y-104199069D02*
X181006904Y-104246688D01*
X181340238Y-104199069D02*
X181578333Y-105199069D01*
X181578333Y-105199069D02*
X181768809Y-104484783D01*
X181768809Y-104484783D02*
X181959285Y-105199069D01*
X181959285Y-105199069D02*
X182197381Y-104199069D01*
X182530714Y-104294307D02*
X182578333Y-104246688D01*
X182578333Y-104246688D02*
X182673571Y-104199069D01*
X182673571Y-104199069D02*
X182911666Y-104199069D01*
X182911666Y-104199069D02*
X183006904Y-104246688D01*
X183006904Y-104246688D02*
X183054523Y-104294307D01*
X183054523Y-104294307D02*
X183102142Y-104389545D01*
X183102142Y-104389545D02*
X183102142Y-104484783D01*
X183102142Y-104484783D02*
X183054523Y-104627640D01*
X183054523Y-104627640D02*
X182483095Y-105199069D01*
X182483095Y-105199069D02*
X183102142Y-105199069D01*
X183959285Y-104532402D02*
X183959285Y-105199069D01*
X183721190Y-104151450D02*
X183483095Y-104865735D01*
X183483095Y-104865735D02*
X184102142Y-104865735D01*
X199485476Y-57526450D02*
X199628333Y-57574069D01*
X199628333Y-57574069D02*
X199866428Y-57574069D01*
X199866428Y-57574069D02*
X199961666Y-57526450D01*
X199961666Y-57526450D02*
X200009285Y-57478830D01*
X200009285Y-57478830D02*
X200056904Y-57383592D01*
X200056904Y-57383592D02*
X200056904Y-57288354D01*
X200056904Y-57288354D02*
X200009285Y-57193116D01*
X200009285Y-57193116D02*
X199961666Y-57145497D01*
X199961666Y-57145497D02*
X199866428Y-57097878D01*
X199866428Y-57097878D02*
X199675952Y-57050259D01*
X199675952Y-57050259D02*
X199580714Y-57002640D01*
X199580714Y-57002640D02*
X199533095Y-56955021D01*
X199533095Y-56955021D02*
X199485476Y-56859783D01*
X199485476Y-56859783D02*
X199485476Y-56764545D01*
X199485476Y-56764545D02*
X199533095Y-56669307D01*
X199533095Y-56669307D02*
X199580714Y-56621688D01*
X199580714Y-56621688D02*
X199675952Y-56574069D01*
X199675952Y-56574069D02*
X199914047Y-56574069D01*
X199914047Y-56574069D02*
X200056904Y-56621688D01*
X200390238Y-56574069D02*
X200628333Y-57574069D01*
X200628333Y-57574069D02*
X200818809Y-56859783D01*
X200818809Y-56859783D02*
X201009285Y-57574069D01*
X201009285Y-57574069D02*
X201247381Y-56574069D01*
X201580714Y-56669307D02*
X201628333Y-56621688D01*
X201628333Y-56621688D02*
X201723571Y-56574069D01*
X201723571Y-56574069D02*
X201961666Y-56574069D01*
X201961666Y-56574069D02*
X202056904Y-56621688D01*
X202056904Y-56621688D02*
X202104523Y-56669307D01*
X202104523Y-56669307D02*
X202152142Y-56764545D01*
X202152142Y-56764545D02*
X202152142Y-56859783D01*
X202152142Y-56859783D02*
X202104523Y-57002640D01*
X202104523Y-57002640D02*
X201533095Y-57574069D01*
X201533095Y-57574069D02*
X202152142Y-57574069D01*
X203056904Y-56574069D02*
X202580714Y-56574069D01*
X202580714Y-56574069D02*
X202533095Y-57050259D01*
X202533095Y-57050259D02*
X202580714Y-57002640D01*
X202580714Y-57002640D02*
X202675952Y-56955021D01*
X202675952Y-56955021D02*
X202914047Y-56955021D01*
X202914047Y-56955021D02*
X203009285Y-57002640D01*
X203009285Y-57002640D02*
X203056904Y-57050259D01*
X203056904Y-57050259D02*
X203104523Y-57145497D01*
X203104523Y-57145497D02*
X203104523Y-57383592D01*
X203104523Y-57383592D02*
X203056904Y-57478830D01*
X203056904Y-57478830D02*
X203009285Y-57526450D01*
X203009285Y-57526450D02*
X202914047Y-57574069D01*
X202914047Y-57574069D02*
X202675952Y-57574069D01*
X202675952Y-57574069D02*
X202580714Y-57526450D01*
X202580714Y-57526450D02*
X202533095Y-57478830D01*
X199485476Y-76576450D02*
X199628333Y-76624069D01*
X199628333Y-76624069D02*
X199866428Y-76624069D01*
X199866428Y-76624069D02*
X199961666Y-76576450D01*
X199961666Y-76576450D02*
X200009285Y-76528830D01*
X200009285Y-76528830D02*
X200056904Y-76433592D01*
X200056904Y-76433592D02*
X200056904Y-76338354D01*
X200056904Y-76338354D02*
X200009285Y-76243116D01*
X200009285Y-76243116D02*
X199961666Y-76195497D01*
X199961666Y-76195497D02*
X199866428Y-76147878D01*
X199866428Y-76147878D02*
X199675952Y-76100259D01*
X199675952Y-76100259D02*
X199580714Y-76052640D01*
X199580714Y-76052640D02*
X199533095Y-76005021D01*
X199533095Y-76005021D02*
X199485476Y-75909783D01*
X199485476Y-75909783D02*
X199485476Y-75814545D01*
X199485476Y-75814545D02*
X199533095Y-75719307D01*
X199533095Y-75719307D02*
X199580714Y-75671688D01*
X199580714Y-75671688D02*
X199675952Y-75624069D01*
X199675952Y-75624069D02*
X199914047Y-75624069D01*
X199914047Y-75624069D02*
X200056904Y-75671688D01*
X200390238Y-75624069D02*
X200628333Y-76624069D01*
X200628333Y-76624069D02*
X200818809Y-75909783D01*
X200818809Y-75909783D02*
X201009285Y-76624069D01*
X201009285Y-76624069D02*
X201247381Y-75624069D01*
X201580714Y-75719307D02*
X201628333Y-75671688D01*
X201628333Y-75671688D02*
X201723571Y-75624069D01*
X201723571Y-75624069D02*
X201961666Y-75624069D01*
X201961666Y-75624069D02*
X202056904Y-75671688D01*
X202056904Y-75671688D02*
X202104523Y-75719307D01*
X202104523Y-75719307D02*
X202152142Y-75814545D01*
X202152142Y-75814545D02*
X202152142Y-75909783D01*
X202152142Y-75909783D02*
X202104523Y-76052640D01*
X202104523Y-76052640D02*
X201533095Y-76624069D01*
X201533095Y-76624069D02*
X202152142Y-76624069D01*
X203009285Y-75624069D02*
X202818809Y-75624069D01*
X202818809Y-75624069D02*
X202723571Y-75671688D01*
X202723571Y-75671688D02*
X202675952Y-75719307D01*
X202675952Y-75719307D02*
X202580714Y-75862164D01*
X202580714Y-75862164D02*
X202533095Y-76052640D01*
X202533095Y-76052640D02*
X202533095Y-76433592D01*
X202533095Y-76433592D02*
X202580714Y-76528830D01*
X202580714Y-76528830D02*
X202628333Y-76576450D01*
X202628333Y-76576450D02*
X202723571Y-76624069D01*
X202723571Y-76624069D02*
X202914047Y-76624069D01*
X202914047Y-76624069D02*
X203009285Y-76576450D01*
X203009285Y-76576450D02*
X203056904Y-76528830D01*
X203056904Y-76528830D02*
X203104523Y-76433592D01*
X203104523Y-76433592D02*
X203104523Y-76195497D01*
X203104523Y-76195497D02*
X203056904Y-76100259D01*
X203056904Y-76100259D02*
X203009285Y-76052640D01*
X203009285Y-76052640D02*
X202914047Y-76005021D01*
X202914047Y-76005021D02*
X202723571Y-76005021D01*
X202723571Y-76005021D02*
X202628333Y-76052640D01*
X202628333Y-76052640D02*
X202580714Y-76100259D01*
X202580714Y-76100259D02*
X202533095Y-76195497D01*
X199485476Y-95626450D02*
X199628333Y-95674069D01*
X199628333Y-95674069D02*
X199866428Y-95674069D01*
X199866428Y-95674069D02*
X199961666Y-95626450D01*
X199961666Y-95626450D02*
X200009285Y-95578830D01*
X200009285Y-95578830D02*
X200056904Y-95483592D01*
X200056904Y-95483592D02*
X200056904Y-95388354D01*
X200056904Y-95388354D02*
X200009285Y-95293116D01*
X200009285Y-95293116D02*
X199961666Y-95245497D01*
X199961666Y-95245497D02*
X199866428Y-95197878D01*
X199866428Y-95197878D02*
X199675952Y-95150259D01*
X199675952Y-95150259D02*
X199580714Y-95102640D01*
X199580714Y-95102640D02*
X199533095Y-95055021D01*
X199533095Y-95055021D02*
X199485476Y-94959783D01*
X199485476Y-94959783D02*
X199485476Y-94864545D01*
X199485476Y-94864545D02*
X199533095Y-94769307D01*
X199533095Y-94769307D02*
X199580714Y-94721688D01*
X199580714Y-94721688D02*
X199675952Y-94674069D01*
X199675952Y-94674069D02*
X199914047Y-94674069D01*
X199914047Y-94674069D02*
X200056904Y-94721688D01*
X200390238Y-94674069D02*
X200628333Y-95674069D01*
X200628333Y-95674069D02*
X200818809Y-94959783D01*
X200818809Y-94959783D02*
X201009285Y-95674069D01*
X201009285Y-95674069D02*
X201247381Y-94674069D01*
X201580714Y-94769307D02*
X201628333Y-94721688D01*
X201628333Y-94721688D02*
X201723571Y-94674069D01*
X201723571Y-94674069D02*
X201961666Y-94674069D01*
X201961666Y-94674069D02*
X202056904Y-94721688D01*
X202056904Y-94721688D02*
X202104523Y-94769307D01*
X202104523Y-94769307D02*
X202152142Y-94864545D01*
X202152142Y-94864545D02*
X202152142Y-94959783D01*
X202152142Y-94959783D02*
X202104523Y-95102640D01*
X202104523Y-95102640D02*
X201533095Y-95674069D01*
X201533095Y-95674069D02*
X202152142Y-95674069D01*
X202485476Y-94674069D02*
X203152142Y-94674069D01*
X203152142Y-94674069D02*
X202723571Y-95674069D01*
X193925883Y-123526693D02*
X194038551Y-123426785D01*
X194038551Y-123426785D02*
X194157599Y-123220588D01*
X194157599Y-123220588D02*
X194163978Y-123114300D01*
X194163978Y-123114300D02*
X194146549Y-123049251D01*
X194146549Y-123049251D02*
X194087880Y-122960393D01*
X194087880Y-122960393D02*
X194005401Y-122912774D01*
X194005401Y-122912774D02*
X193899113Y-122906394D01*
X193899113Y-122906394D02*
X193834064Y-122923824D01*
X193834064Y-122923824D02*
X193745206Y-122982493D01*
X193745206Y-122982493D02*
X193608728Y-123123641D01*
X193608728Y-123123641D02*
X193519870Y-123182310D01*
X193519870Y-123182310D02*
X193454821Y-123199739D01*
X193454821Y-123199739D02*
X193348533Y-123193360D01*
X193348533Y-123193360D02*
X193266054Y-123145741D01*
X193266054Y-123145741D02*
X193207385Y-123056882D01*
X193207385Y-123056882D02*
X193189955Y-122991834D01*
X193189955Y-122991834D02*
X193196335Y-122885545D01*
X193196335Y-122885545D02*
X193315383Y-122679349D01*
X193315383Y-122679349D02*
X193428051Y-122579440D01*
X193553478Y-122266956D02*
X194538551Y-122560759D01*
X194538551Y-122560759D02*
X194015200Y-122038659D01*
X194015200Y-122038659D02*
X194729027Y-122230845D01*
X194729027Y-122230845D02*
X193982049Y-121524648D01*
X194231195Y-121283592D02*
X194213765Y-121218543D01*
X194213765Y-121218543D02*
X194220145Y-121112255D01*
X194220145Y-121112255D02*
X194339192Y-120906059D01*
X194339192Y-120906059D02*
X194428051Y-120847390D01*
X194428051Y-120847390D02*
X194493099Y-120829960D01*
X194493099Y-120829960D02*
X194599388Y-120836340D01*
X194599388Y-120836340D02*
X194681866Y-120883959D01*
X194681866Y-120883959D02*
X194781775Y-120996627D01*
X194781775Y-120996627D02*
X194990932Y-121777213D01*
X194990932Y-121777213D02*
X195300456Y-121241102D01*
X195091298Y-120460516D02*
X195002440Y-120519185D01*
X195002440Y-120519185D02*
X194937391Y-120536614D01*
X194937391Y-120536614D02*
X194831103Y-120530235D01*
X194831103Y-120530235D02*
X194789864Y-120506425D01*
X194789864Y-120506425D02*
X194731195Y-120417567D01*
X194731195Y-120417567D02*
X194713765Y-120352518D01*
X194713765Y-120352518D02*
X194720145Y-120246230D01*
X194720145Y-120246230D02*
X194815383Y-120081273D01*
X194815383Y-120081273D02*
X194904241Y-120022604D01*
X194904241Y-120022604D02*
X194969290Y-120005174D01*
X194969290Y-120005174D02*
X195075578Y-120011554D01*
X195075578Y-120011554D02*
X195116817Y-120035363D01*
X195116817Y-120035363D02*
X195175486Y-120124221D01*
X195175486Y-120124221D02*
X195192916Y-120189270D01*
X195192916Y-120189270D02*
X195186536Y-120295558D01*
X195186536Y-120295558D02*
X195091298Y-120460516D01*
X195091298Y-120460516D02*
X195084919Y-120566804D01*
X195084919Y-120566804D02*
X195102348Y-120631853D01*
X195102348Y-120631853D02*
X195161018Y-120720711D01*
X195161018Y-120720711D02*
X195325975Y-120815949D01*
X195325975Y-120815949D02*
X195432263Y-120822329D01*
X195432263Y-120822329D02*
X195497312Y-120804899D01*
X195497312Y-120804899D02*
X195586170Y-120746230D01*
X195586170Y-120746230D02*
X195681408Y-120581273D01*
X195681408Y-120581273D02*
X195687788Y-120474985D01*
X195687788Y-120474985D02*
X195670358Y-120409936D01*
X195670358Y-120409936D02*
X195611689Y-120321077D01*
X195611689Y-120321077D02*
X195446732Y-120225839D01*
X195446732Y-120225839D02*
X195340444Y-120219460D01*
X195340444Y-120219460D02*
X195275395Y-120236889D01*
X195275395Y-120236889D02*
X195186536Y-120295558D01*
X85185476Y-126582700D02*
X85328333Y-126630319D01*
X85328333Y-126630319D02*
X85566428Y-126630319D01*
X85566428Y-126630319D02*
X85661666Y-126582700D01*
X85661666Y-126582700D02*
X85709285Y-126535080D01*
X85709285Y-126535080D02*
X85756904Y-126439842D01*
X85756904Y-126439842D02*
X85756904Y-126344604D01*
X85756904Y-126344604D02*
X85709285Y-126249366D01*
X85709285Y-126249366D02*
X85661666Y-126201747D01*
X85661666Y-126201747D02*
X85566428Y-126154128D01*
X85566428Y-126154128D02*
X85375952Y-126106509D01*
X85375952Y-126106509D02*
X85280714Y-126058890D01*
X85280714Y-126058890D02*
X85233095Y-126011271D01*
X85233095Y-126011271D02*
X85185476Y-125916033D01*
X85185476Y-125916033D02*
X85185476Y-125820795D01*
X85185476Y-125820795D02*
X85233095Y-125725557D01*
X85233095Y-125725557D02*
X85280714Y-125677938D01*
X85280714Y-125677938D02*
X85375952Y-125630319D01*
X85375952Y-125630319D02*
X85614047Y-125630319D01*
X85614047Y-125630319D02*
X85756904Y-125677938D01*
X86090238Y-125630319D02*
X86328333Y-126630319D01*
X86328333Y-126630319D02*
X86518809Y-125916033D01*
X86518809Y-125916033D02*
X86709285Y-126630319D01*
X86709285Y-126630319D02*
X86947381Y-125630319D01*
X87233095Y-125630319D02*
X87852142Y-125630319D01*
X87852142Y-125630319D02*
X87518809Y-126011271D01*
X87518809Y-126011271D02*
X87661666Y-126011271D01*
X87661666Y-126011271D02*
X87756904Y-126058890D01*
X87756904Y-126058890D02*
X87804523Y-126106509D01*
X87804523Y-126106509D02*
X87852142Y-126201747D01*
X87852142Y-126201747D02*
X87852142Y-126439842D01*
X87852142Y-126439842D02*
X87804523Y-126535080D01*
X87804523Y-126535080D02*
X87756904Y-126582700D01*
X87756904Y-126582700D02*
X87661666Y-126630319D01*
X87661666Y-126630319D02*
X87375952Y-126630319D01*
X87375952Y-126630319D02*
X87280714Y-126582700D01*
X87280714Y-126582700D02*
X87233095Y-126535080D01*
X88471190Y-125630319D02*
X88566428Y-125630319D01*
X88566428Y-125630319D02*
X88661666Y-125677938D01*
X88661666Y-125677938D02*
X88709285Y-125725557D01*
X88709285Y-125725557D02*
X88756904Y-125820795D01*
X88756904Y-125820795D02*
X88804523Y-126011271D01*
X88804523Y-126011271D02*
X88804523Y-126249366D01*
X88804523Y-126249366D02*
X88756904Y-126439842D01*
X88756904Y-126439842D02*
X88709285Y-126535080D01*
X88709285Y-126535080D02*
X88661666Y-126582700D01*
X88661666Y-126582700D02*
X88566428Y-126630319D01*
X88566428Y-126630319D02*
X88471190Y-126630319D01*
X88471190Y-126630319D02*
X88375952Y-126582700D01*
X88375952Y-126582700D02*
X88328333Y-126535080D01*
X88328333Y-126535080D02*
X88280714Y-126439842D01*
X88280714Y-126439842D02*
X88233095Y-126249366D01*
X88233095Y-126249366D02*
X88233095Y-126011271D01*
X88233095Y-126011271D02*
X88280714Y-125820795D01*
X88280714Y-125820795D02*
X88328333Y-125725557D01*
X88328333Y-125725557D02*
X88375952Y-125677938D01*
X88375952Y-125677938D02*
X88471190Y-125630319D01*
X104235476Y-126582700D02*
X104378333Y-126630319D01*
X104378333Y-126630319D02*
X104616428Y-126630319D01*
X104616428Y-126630319D02*
X104711666Y-126582700D01*
X104711666Y-126582700D02*
X104759285Y-126535080D01*
X104759285Y-126535080D02*
X104806904Y-126439842D01*
X104806904Y-126439842D02*
X104806904Y-126344604D01*
X104806904Y-126344604D02*
X104759285Y-126249366D01*
X104759285Y-126249366D02*
X104711666Y-126201747D01*
X104711666Y-126201747D02*
X104616428Y-126154128D01*
X104616428Y-126154128D02*
X104425952Y-126106509D01*
X104425952Y-126106509D02*
X104330714Y-126058890D01*
X104330714Y-126058890D02*
X104283095Y-126011271D01*
X104283095Y-126011271D02*
X104235476Y-125916033D01*
X104235476Y-125916033D02*
X104235476Y-125820795D01*
X104235476Y-125820795D02*
X104283095Y-125725557D01*
X104283095Y-125725557D02*
X104330714Y-125677938D01*
X104330714Y-125677938D02*
X104425952Y-125630319D01*
X104425952Y-125630319D02*
X104664047Y-125630319D01*
X104664047Y-125630319D02*
X104806904Y-125677938D01*
X105140238Y-125630319D02*
X105378333Y-126630319D01*
X105378333Y-126630319D02*
X105568809Y-125916033D01*
X105568809Y-125916033D02*
X105759285Y-126630319D01*
X105759285Y-126630319D02*
X105997381Y-125630319D01*
X106283095Y-125630319D02*
X106902142Y-125630319D01*
X106902142Y-125630319D02*
X106568809Y-126011271D01*
X106568809Y-126011271D02*
X106711666Y-126011271D01*
X106711666Y-126011271D02*
X106806904Y-126058890D01*
X106806904Y-126058890D02*
X106854523Y-126106509D01*
X106854523Y-126106509D02*
X106902142Y-126201747D01*
X106902142Y-126201747D02*
X106902142Y-126439842D01*
X106902142Y-126439842D02*
X106854523Y-126535080D01*
X106854523Y-126535080D02*
X106806904Y-126582700D01*
X106806904Y-126582700D02*
X106711666Y-126630319D01*
X106711666Y-126630319D02*
X106425952Y-126630319D01*
X106425952Y-126630319D02*
X106330714Y-126582700D01*
X106330714Y-126582700D02*
X106283095Y-126535080D01*
X107854523Y-126630319D02*
X107283095Y-126630319D01*
X107568809Y-126630319D02*
X107568809Y-125630319D01*
X107568809Y-125630319D02*
X107473571Y-125773176D01*
X107473571Y-125773176D02*
X107378333Y-125868414D01*
X107378333Y-125868414D02*
X107283095Y-125916033D01*
X123285476Y-121820200D02*
X123428333Y-121867819D01*
X123428333Y-121867819D02*
X123666428Y-121867819D01*
X123666428Y-121867819D02*
X123761666Y-121820200D01*
X123761666Y-121820200D02*
X123809285Y-121772580D01*
X123809285Y-121772580D02*
X123856904Y-121677342D01*
X123856904Y-121677342D02*
X123856904Y-121582104D01*
X123856904Y-121582104D02*
X123809285Y-121486866D01*
X123809285Y-121486866D02*
X123761666Y-121439247D01*
X123761666Y-121439247D02*
X123666428Y-121391628D01*
X123666428Y-121391628D02*
X123475952Y-121344009D01*
X123475952Y-121344009D02*
X123380714Y-121296390D01*
X123380714Y-121296390D02*
X123333095Y-121248771D01*
X123333095Y-121248771D02*
X123285476Y-121153533D01*
X123285476Y-121153533D02*
X123285476Y-121058295D01*
X123285476Y-121058295D02*
X123333095Y-120963057D01*
X123333095Y-120963057D02*
X123380714Y-120915438D01*
X123380714Y-120915438D02*
X123475952Y-120867819D01*
X123475952Y-120867819D02*
X123714047Y-120867819D01*
X123714047Y-120867819D02*
X123856904Y-120915438D01*
X124190238Y-120867819D02*
X124428333Y-121867819D01*
X124428333Y-121867819D02*
X124618809Y-121153533D01*
X124618809Y-121153533D02*
X124809285Y-121867819D01*
X124809285Y-121867819D02*
X125047381Y-120867819D01*
X125333095Y-120867819D02*
X125952142Y-120867819D01*
X125952142Y-120867819D02*
X125618809Y-121248771D01*
X125618809Y-121248771D02*
X125761666Y-121248771D01*
X125761666Y-121248771D02*
X125856904Y-121296390D01*
X125856904Y-121296390D02*
X125904523Y-121344009D01*
X125904523Y-121344009D02*
X125952142Y-121439247D01*
X125952142Y-121439247D02*
X125952142Y-121677342D01*
X125952142Y-121677342D02*
X125904523Y-121772580D01*
X125904523Y-121772580D02*
X125856904Y-121820200D01*
X125856904Y-121820200D02*
X125761666Y-121867819D01*
X125761666Y-121867819D02*
X125475952Y-121867819D01*
X125475952Y-121867819D02*
X125380714Y-121820200D01*
X125380714Y-121820200D02*
X125333095Y-121772580D01*
X126333095Y-120963057D02*
X126380714Y-120915438D01*
X126380714Y-120915438D02*
X126475952Y-120867819D01*
X126475952Y-120867819D02*
X126714047Y-120867819D01*
X126714047Y-120867819D02*
X126809285Y-120915438D01*
X126809285Y-120915438D02*
X126856904Y-120963057D01*
X126856904Y-120963057D02*
X126904523Y-121058295D01*
X126904523Y-121058295D02*
X126904523Y-121153533D01*
X126904523Y-121153533D02*
X126856904Y-121296390D01*
X126856904Y-121296390D02*
X126285476Y-121867819D01*
X126285476Y-121867819D02*
X126904523Y-121867819D01*
X142335476Y-119438950D02*
X142478333Y-119486569D01*
X142478333Y-119486569D02*
X142716428Y-119486569D01*
X142716428Y-119486569D02*
X142811666Y-119438950D01*
X142811666Y-119438950D02*
X142859285Y-119391330D01*
X142859285Y-119391330D02*
X142906904Y-119296092D01*
X142906904Y-119296092D02*
X142906904Y-119200854D01*
X142906904Y-119200854D02*
X142859285Y-119105616D01*
X142859285Y-119105616D02*
X142811666Y-119057997D01*
X142811666Y-119057997D02*
X142716428Y-119010378D01*
X142716428Y-119010378D02*
X142525952Y-118962759D01*
X142525952Y-118962759D02*
X142430714Y-118915140D01*
X142430714Y-118915140D02*
X142383095Y-118867521D01*
X142383095Y-118867521D02*
X142335476Y-118772283D01*
X142335476Y-118772283D02*
X142335476Y-118677045D01*
X142335476Y-118677045D02*
X142383095Y-118581807D01*
X142383095Y-118581807D02*
X142430714Y-118534188D01*
X142430714Y-118534188D02*
X142525952Y-118486569D01*
X142525952Y-118486569D02*
X142764047Y-118486569D01*
X142764047Y-118486569D02*
X142906904Y-118534188D01*
X143240238Y-118486569D02*
X143478333Y-119486569D01*
X143478333Y-119486569D02*
X143668809Y-118772283D01*
X143668809Y-118772283D02*
X143859285Y-119486569D01*
X143859285Y-119486569D02*
X144097381Y-118486569D01*
X144383095Y-118486569D02*
X145002142Y-118486569D01*
X145002142Y-118486569D02*
X144668809Y-118867521D01*
X144668809Y-118867521D02*
X144811666Y-118867521D01*
X144811666Y-118867521D02*
X144906904Y-118915140D01*
X144906904Y-118915140D02*
X144954523Y-118962759D01*
X144954523Y-118962759D02*
X145002142Y-119057997D01*
X145002142Y-119057997D02*
X145002142Y-119296092D01*
X145002142Y-119296092D02*
X144954523Y-119391330D01*
X144954523Y-119391330D02*
X144906904Y-119438950D01*
X144906904Y-119438950D02*
X144811666Y-119486569D01*
X144811666Y-119486569D02*
X144525952Y-119486569D01*
X144525952Y-119486569D02*
X144430714Y-119438950D01*
X144430714Y-119438950D02*
X144383095Y-119391330D01*
X145335476Y-118486569D02*
X145954523Y-118486569D01*
X145954523Y-118486569D02*
X145621190Y-118867521D01*
X145621190Y-118867521D02*
X145764047Y-118867521D01*
X145764047Y-118867521D02*
X145859285Y-118915140D01*
X145859285Y-118915140D02*
X145906904Y-118962759D01*
X145906904Y-118962759D02*
X145954523Y-119057997D01*
X145954523Y-119057997D02*
X145954523Y-119296092D01*
X145954523Y-119296092D02*
X145906904Y-119391330D01*
X145906904Y-119391330D02*
X145859285Y-119438950D01*
X145859285Y-119438950D02*
X145764047Y-119486569D01*
X145764047Y-119486569D02*
X145478333Y-119486569D01*
X145478333Y-119486569D02*
X145383095Y-119438950D01*
X145383095Y-119438950D02*
X145335476Y-119391330D01*
X166811680Y-131945943D02*
X166924348Y-131846035D01*
X166924348Y-131846035D02*
X167043396Y-131639838D01*
X167043396Y-131639838D02*
X167049775Y-131533550D01*
X167049775Y-131533550D02*
X167032346Y-131468501D01*
X167032346Y-131468501D02*
X166973677Y-131379643D01*
X166973677Y-131379643D02*
X166891198Y-131332024D01*
X166891198Y-131332024D02*
X166784910Y-131325644D01*
X166784910Y-131325644D02*
X166719861Y-131343074D01*
X166719861Y-131343074D02*
X166631003Y-131401743D01*
X166631003Y-131401743D02*
X166494525Y-131542891D01*
X166494525Y-131542891D02*
X166405667Y-131601560D01*
X166405667Y-131601560D02*
X166340618Y-131618989D01*
X166340618Y-131618989D02*
X166234330Y-131612610D01*
X166234330Y-131612610D02*
X166151851Y-131564991D01*
X166151851Y-131564991D02*
X166093182Y-131476132D01*
X166093182Y-131476132D02*
X166075752Y-131411084D01*
X166075752Y-131411084D02*
X166082132Y-131304795D01*
X166082132Y-131304795D02*
X166201180Y-131098599D01*
X166201180Y-131098599D02*
X166313848Y-130998690D01*
X166439275Y-130686206D02*
X167424348Y-130980009D01*
X167424348Y-130980009D02*
X166900997Y-130457909D01*
X166900997Y-130457909D02*
X167614824Y-130650095D01*
X167614824Y-130650095D02*
X166867846Y-129943898D01*
X167010704Y-129696463D02*
X167320227Y-129160352D01*
X167320227Y-129160352D02*
X167483475Y-129639503D01*
X167483475Y-129639503D02*
X167554904Y-129515785D01*
X167554904Y-129515785D02*
X167643762Y-129457116D01*
X167643762Y-129457116D02*
X167708811Y-129439686D01*
X167708811Y-129439686D02*
X167815099Y-129446066D01*
X167815099Y-129446066D02*
X168021296Y-129565114D01*
X168021296Y-129565114D02*
X168079965Y-129653972D01*
X168079965Y-129653972D02*
X168097394Y-129719021D01*
X168097394Y-129719021D02*
X168091015Y-129825309D01*
X168091015Y-129825309D02*
X167948157Y-130072745D01*
X167948157Y-130072745D02*
X167859299Y-130131414D01*
X167859299Y-130131414D02*
X167794250Y-130148844D01*
X168037474Y-128584711D02*
X168614824Y-128918044D01*
X167588512Y-128600431D02*
X168088054Y-129163770D01*
X168088054Y-129163770D02*
X168397578Y-128627660D01*
X183425883Y-141026693D02*
X183538551Y-140926785D01*
X183538551Y-140926785D02*
X183657599Y-140720588D01*
X183657599Y-140720588D02*
X183663978Y-140614300D01*
X183663978Y-140614300D02*
X183646549Y-140549251D01*
X183646549Y-140549251D02*
X183587880Y-140460393D01*
X183587880Y-140460393D02*
X183505401Y-140412774D01*
X183505401Y-140412774D02*
X183399113Y-140406394D01*
X183399113Y-140406394D02*
X183334064Y-140423824D01*
X183334064Y-140423824D02*
X183245206Y-140482493D01*
X183245206Y-140482493D02*
X183108728Y-140623641D01*
X183108728Y-140623641D02*
X183019870Y-140682310D01*
X183019870Y-140682310D02*
X182954821Y-140699739D01*
X182954821Y-140699739D02*
X182848533Y-140693360D01*
X182848533Y-140693360D02*
X182766054Y-140645741D01*
X182766054Y-140645741D02*
X182707385Y-140556882D01*
X182707385Y-140556882D02*
X182689955Y-140491834D01*
X182689955Y-140491834D02*
X182696335Y-140385545D01*
X182696335Y-140385545D02*
X182815383Y-140179349D01*
X182815383Y-140179349D02*
X182928051Y-140079440D01*
X183053478Y-139766956D02*
X184038551Y-140060759D01*
X184038551Y-140060759D02*
X183515200Y-139538659D01*
X183515200Y-139538659D02*
X184229027Y-139730845D01*
X184229027Y-139730845D02*
X183482049Y-139024648D01*
X183624907Y-138777213D02*
X183934430Y-138241102D01*
X183934430Y-138241102D02*
X184097678Y-138720253D01*
X184097678Y-138720253D02*
X184169107Y-138596535D01*
X184169107Y-138596535D02*
X184257965Y-138537866D01*
X184257965Y-138537866D02*
X184323014Y-138520436D01*
X184323014Y-138520436D02*
X184429302Y-138526816D01*
X184429302Y-138526816D02*
X184635499Y-138645864D01*
X184635499Y-138645864D02*
X184694168Y-138734722D01*
X184694168Y-138734722D02*
X184711597Y-138799771D01*
X184711597Y-138799771D02*
X184705218Y-138906059D01*
X184705218Y-138906059D02*
X184562360Y-139153495D01*
X184562360Y-139153495D02*
X184473502Y-139212164D01*
X184473502Y-139212164D02*
X184408453Y-139229594D01*
X184386811Y-137457555D02*
X184148716Y-137869948D01*
X184148716Y-137869948D02*
X184537300Y-138149282D01*
X184537300Y-138149282D02*
X184519870Y-138084234D01*
X184519870Y-138084234D02*
X184526250Y-137977945D01*
X184526250Y-137977945D02*
X184645297Y-137771749D01*
X184645297Y-137771749D02*
X184734156Y-137713080D01*
X184734156Y-137713080D02*
X184799204Y-137695650D01*
X184799204Y-137695650D02*
X184905492Y-137702030D01*
X184905492Y-137702030D02*
X185111689Y-137821077D01*
X185111689Y-137821077D02*
X185170358Y-137909936D01*
X185170358Y-137909936D02*
X185187788Y-137974985D01*
X185187788Y-137974985D02*
X185181408Y-138081273D01*
X185181408Y-138081273D02*
X185062361Y-138287469D01*
X185062361Y-138287469D02*
X184973502Y-138346138D01*
X184973502Y-138346138D02*
X184908453Y-138363568D01*
X204570180Y-142746993D02*
X204682848Y-142647085D01*
X204682848Y-142647085D02*
X204801896Y-142440888D01*
X204801896Y-142440888D02*
X204808275Y-142334600D01*
X204808275Y-142334600D02*
X204790846Y-142269551D01*
X204790846Y-142269551D02*
X204732177Y-142180693D01*
X204732177Y-142180693D02*
X204649698Y-142133074D01*
X204649698Y-142133074D02*
X204543410Y-142126694D01*
X204543410Y-142126694D02*
X204478361Y-142144124D01*
X204478361Y-142144124D02*
X204389503Y-142202793D01*
X204389503Y-142202793D02*
X204253025Y-142343941D01*
X204253025Y-142343941D02*
X204164167Y-142402610D01*
X204164167Y-142402610D02*
X204099118Y-142420039D01*
X204099118Y-142420039D02*
X203992830Y-142413660D01*
X203992830Y-142413660D02*
X203910351Y-142366041D01*
X203910351Y-142366041D02*
X203851682Y-142277182D01*
X203851682Y-142277182D02*
X203834252Y-142212134D01*
X203834252Y-142212134D02*
X203840632Y-142105845D01*
X203840632Y-142105845D02*
X203959680Y-141899649D01*
X203959680Y-141899649D02*
X204072348Y-141799740D01*
X204197775Y-141487256D02*
X205182848Y-141781059D01*
X205182848Y-141781059D02*
X204659497Y-141258959D01*
X204659497Y-141258959D02*
X205373324Y-141451145D01*
X205373324Y-141451145D02*
X204626346Y-140744948D01*
X205319783Y-140210547D02*
X205897134Y-140543880D01*
X204870821Y-140226267D02*
X205370363Y-140789607D01*
X205370363Y-140789607D02*
X205679887Y-140253496D01*
X205388251Y-139425291D02*
X205435870Y-139342812D01*
X205435870Y-139342812D02*
X205524729Y-139284143D01*
X205524729Y-139284143D02*
X205589777Y-139266713D01*
X205589777Y-139266713D02*
X205696066Y-139273093D01*
X205696066Y-139273093D02*
X205884832Y-139327092D01*
X205884832Y-139327092D02*
X206091029Y-139446139D01*
X206091029Y-139446139D02*
X206232176Y-139582617D01*
X206232176Y-139582617D02*
X206290846Y-139671475D01*
X206290846Y-139671475D02*
X206308275Y-139736524D01*
X206308275Y-139736524D02*
X206301896Y-139842812D01*
X206301896Y-139842812D02*
X206254277Y-139925291D01*
X206254277Y-139925291D02*
X206165418Y-139983960D01*
X206165418Y-139983960D02*
X206100369Y-140001389D01*
X206100369Y-140001389D02*
X205994081Y-139995010D01*
X205994081Y-139995010D02*
X205805315Y-139941011D01*
X205805315Y-139941011D02*
X205599118Y-139821963D01*
X205599118Y-139821963D02*
X205457970Y-139685486D01*
X205457970Y-139685486D02*
X205399301Y-139596628D01*
X205399301Y-139596628D02*
X205381871Y-139531579D01*
X205381871Y-139531579D02*
X205388251Y-139425291D01*
X137448427Y-81788000D02*
G75*
G02*
X131791573Y-81788000I-2828427J0D01*
G01*
X131791573Y-81788000D02*
G75*
G02*
X137448427Y-81788000I2828427J0D01*
G01*
X194598427Y-65024000D02*
G75*
G02*
X188941573Y-65024000I-2828427J0D01*
G01*
X188941573Y-65024000D02*
G75*
G02*
X194598427Y-65024000I2828427J0D01*
G01*
X188629427Y-124714000D02*
G75*
G02*
X182972573Y-124714000I-2828427J0D01*
G01*
X182972573Y-124714000D02*
G75*
G02*
X188629427Y-124714000I2828427J0D01*
G01*
X99348427Y-67564000D02*
G75*
G02*
X93691573Y-67564000I-2828427J0D01*
G01*
X93691573Y-67564000D02*
G75*
G02*
X99348427Y-67564000I2828427J0D01*
G01*
X99348427Y-124968000D02*
G75*
G02*
X93691573Y-124968000I-2828427J0D01*
G01*
X93691573Y-124968000D02*
G75*
G02*
X99348427Y-124968000I2828427J0D01*
G01*
X189992000Y-44704000D02*
X189992000Y-57404000D01*
X189992000Y-57404000D02*
X196342000Y-57404000D01*
X191262000Y-43434000D02*
X191262000Y-44704000D01*
X191262000Y-44704000D02*
X189992000Y-44704000D01*
X195072000Y-43434000D02*
X191262000Y-43434000D01*
X195072000Y-44704000D02*
X195072000Y-43434000D01*
X196342000Y-44704000D02*
X195072000Y-44704000D01*
X196342000Y-57404000D02*
X196342000Y-44704000D01*
X137956427Y-117348000D02*
G75*
G02*
X132299573Y-117348000I-2828427J0D01*
G01*
X132299573Y-117348000D02*
G75*
G02*
X137956427Y-117348000I2828427J0D01*
G01*
X131225427Y-42672000D02*
G75*
G02*
X125568573Y-42672000I-2828427J0D01*
G01*
X125568573Y-42672000D02*
G75*
G02*
X131225427Y-42672000I2828427J0D01*
G01*
X203577852Y-151891000D02*
X204417897Y-152376000D01*
X206077076Y-154142218D02*
X206777076Y-152929782D01*
X206427076Y-153536000D02*
X207677742Y-153449782D01*
X206977742Y-154662218D02*
X206427076Y-153536000D01*
X207677742Y-153449782D02*
X206977742Y-154662218D01*
X209336921Y-155216000D02*
X210176966Y-155701000D01*
D13*
X79895000Y-50875500D02*
X79895000Y-65075500D01*
X79895000Y-65075500D02*
X94095000Y-65075500D01*
X94095000Y-50875500D02*
X79895000Y-50875500D01*
X94095000Y-65075500D02*
X94095000Y-50875500D01*
X79895000Y-69925500D02*
X79895000Y-84125500D01*
X79895000Y-84125500D02*
X94095000Y-84125500D01*
X94095000Y-69925500D02*
X79895000Y-69925500D01*
X94095000Y-84125500D02*
X94095000Y-69925500D01*
X79895000Y-88975500D02*
X79895000Y-103175500D01*
X79895000Y-103175500D02*
X94095000Y-103175500D01*
X94095000Y-88975500D02*
X79895000Y-88975500D01*
X94095000Y-103175500D02*
X94095000Y-88975500D01*
X79895000Y-108025500D02*
X79895000Y-122225500D01*
X79895000Y-122225500D02*
X94095000Y-122225500D01*
X94095000Y-108025500D02*
X79895000Y-108025500D01*
X94095000Y-122225500D02*
X94095000Y-108025500D01*
X98945000Y-50875500D02*
X98945000Y-65075500D01*
X98945000Y-65075500D02*
X113145000Y-65075500D01*
X113145000Y-50875500D02*
X98945000Y-50875500D01*
X113145000Y-65075500D02*
X113145000Y-50875500D01*
X98945000Y-69925500D02*
X98945000Y-84125500D01*
X98945000Y-84125500D02*
X113145000Y-84125500D01*
X113145000Y-69925500D02*
X98945000Y-69925500D01*
X113145000Y-84125500D02*
X113145000Y-69925500D01*
X98945000Y-88975500D02*
X98945000Y-103175500D01*
X98945000Y-103175500D02*
X113145000Y-103175500D01*
X113145000Y-88975500D02*
X98945000Y-88975500D01*
X113145000Y-103175500D02*
X113145000Y-88975500D01*
X98945000Y-108025500D02*
X98945000Y-122225500D01*
X98945000Y-122225500D02*
X113145000Y-122225500D01*
X113145000Y-108025500D02*
X98945000Y-108025500D01*
X113145000Y-122225500D02*
X113145000Y-108025500D01*
X117995000Y-46113000D02*
X117995000Y-60313000D01*
X117995000Y-60313000D02*
X132195000Y-60313000D01*
X132195000Y-46113000D02*
X117995000Y-46113000D01*
X132195000Y-60313000D02*
X132195000Y-46113000D01*
X117995000Y-65163000D02*
X117995000Y-79363000D01*
X117995000Y-79363000D02*
X132195000Y-79363000D01*
X132195000Y-65163000D02*
X117995000Y-65163000D01*
X132195000Y-79363000D02*
X132195000Y-65163000D01*
X117995000Y-84213000D02*
X117995000Y-98413000D01*
X117995000Y-98413000D02*
X132195000Y-98413000D01*
X132195000Y-84213000D02*
X117995000Y-84213000D01*
X132195000Y-98413000D02*
X132195000Y-84213000D01*
X117995000Y-103263000D02*
X117995000Y-117463000D01*
X117995000Y-117463000D02*
X132195000Y-117463000D01*
X132195000Y-103263000D02*
X117995000Y-103263000D01*
X132195000Y-117463000D02*
X132195000Y-103263000D01*
X137045000Y-43731750D02*
X137045000Y-57931750D01*
X137045000Y-57931750D02*
X151245000Y-57931750D01*
X151245000Y-43731750D02*
X137045000Y-43731750D01*
X151245000Y-57931750D02*
X151245000Y-43731750D01*
X137045000Y-62781750D02*
X137045000Y-76981750D01*
X137045000Y-76981750D02*
X151245000Y-76981750D01*
X151245000Y-62781750D02*
X137045000Y-62781750D01*
X151245000Y-76981750D02*
X151245000Y-62781750D01*
X137045000Y-81831750D02*
X137045000Y-96031750D01*
X137045000Y-96031750D02*
X151245000Y-96031750D01*
X151245000Y-81831750D02*
X137045000Y-81831750D01*
X151245000Y-96031750D02*
X151245000Y-81831750D01*
X137045000Y-100881750D02*
X137045000Y-115081750D01*
X137045000Y-115081750D02*
X151245000Y-115081750D01*
X151245000Y-100881750D02*
X137045000Y-100881750D01*
X151245000Y-115081750D02*
X151245000Y-100881750D01*
X156095000Y-46113000D02*
X156095000Y-60313000D01*
X156095000Y-60313000D02*
X170295000Y-60313000D01*
X170295000Y-46113000D02*
X156095000Y-46113000D01*
X170295000Y-60313000D02*
X170295000Y-46113000D01*
X156095000Y-65163000D02*
X156095000Y-79363000D01*
X156095000Y-79363000D02*
X170295000Y-79363000D01*
X170295000Y-65163000D02*
X156095000Y-65163000D01*
X170295000Y-79363000D02*
X170295000Y-65163000D01*
X156095000Y-84213000D02*
X156095000Y-98413000D01*
X156095000Y-98413000D02*
X170295000Y-98413000D01*
X170295000Y-84213000D02*
X156095000Y-84213000D01*
X170295000Y-98413000D02*
X170295000Y-84213000D01*
X156095000Y-103263000D02*
X156095000Y-117463000D01*
X156095000Y-117463000D02*
X170295000Y-117463000D01*
X170295000Y-103263000D02*
X156095000Y-103263000D01*
X170295000Y-117463000D02*
X170295000Y-103263000D01*
X175145000Y-48494250D02*
X175145000Y-62694250D01*
X175145000Y-62694250D02*
X189345000Y-62694250D01*
X189345000Y-48494250D02*
X175145000Y-48494250D01*
X189345000Y-62694250D02*
X189345000Y-48494250D01*
X175145000Y-67544250D02*
X175145000Y-81744250D01*
X175145000Y-81744250D02*
X189345000Y-81744250D01*
X189345000Y-67544250D02*
X175145000Y-67544250D01*
X189345000Y-81744250D02*
X189345000Y-67544250D01*
X175145000Y-86594250D02*
X175145000Y-100794250D01*
X175145000Y-100794250D02*
X189345000Y-100794250D01*
X189345000Y-86594250D02*
X175145000Y-86594250D01*
X189345000Y-100794250D02*
X189345000Y-86594250D01*
X175145000Y-105644250D02*
X175145000Y-119844250D01*
X175145000Y-119844250D02*
X189345000Y-119844250D01*
X189345000Y-105644250D02*
X175145000Y-105644250D01*
X189345000Y-119844250D02*
X189345000Y-105644250D01*
X194195000Y-58019250D02*
X194195000Y-72219250D01*
X194195000Y-72219250D02*
X208395000Y-72219250D01*
X208395000Y-58019250D02*
X194195000Y-58019250D01*
X208395000Y-72219250D02*
X208395000Y-58019250D01*
X194195000Y-77069250D02*
X194195000Y-91269250D01*
X194195000Y-91269250D02*
X208395000Y-91269250D01*
X208395000Y-77069250D02*
X194195000Y-77069250D01*
X208395000Y-91269250D02*
X208395000Y-77069250D01*
X194195000Y-96119250D02*
X194195000Y-110319250D01*
X194195000Y-110319250D02*
X208395000Y-110319250D01*
X208395000Y-96119250D02*
X194195000Y-96119250D01*
X208395000Y-110319250D02*
X208395000Y-96119250D01*
X190616220Y-129801080D02*
X202913780Y-136901080D01*
X197716220Y-117503520D02*
X190616220Y-129801080D01*
X202913780Y-136901080D02*
X210013780Y-124603520D01*
X210013780Y-124603520D02*
X197716220Y-117503520D01*
X79895000Y-127075500D02*
X79895000Y-141275500D01*
X79895000Y-141275500D02*
X94095000Y-141275500D01*
X94095000Y-127075500D02*
X79895000Y-127075500D01*
X94095000Y-141275500D02*
X94095000Y-127075500D01*
X98945000Y-127075500D02*
X98945000Y-141275500D01*
X98945000Y-141275500D02*
X113145000Y-141275500D01*
X113145000Y-127075500D02*
X98945000Y-127075500D01*
X113145000Y-141275500D02*
X113145000Y-127075500D01*
X117995000Y-122313000D02*
X117995000Y-136513000D01*
X117995000Y-136513000D02*
X132195000Y-136513000D01*
X132195000Y-122313000D02*
X117995000Y-122313000D01*
X132195000Y-136513000D02*
X132195000Y-122313000D01*
X137045000Y-119931750D02*
X137045000Y-134131750D01*
X137045000Y-134131750D02*
X151245000Y-134131750D01*
X151245000Y-119931750D02*
X137045000Y-119931750D01*
X151245000Y-134131750D02*
X151245000Y-119931750D01*
X164593220Y-136774030D02*
X176890780Y-143874030D01*
X171693220Y-124476470D02*
X164593220Y-136774030D01*
X176890780Y-143874030D02*
X183990780Y-131576470D01*
X183990780Y-131576470D02*
X171693220Y-124476470D01*
X181091220Y-146299080D02*
X193388780Y-153399080D01*
X188191220Y-134001520D02*
X181091220Y-146299080D01*
X193388780Y-153399080D02*
X200488780Y-141101520D01*
X200488780Y-141101520D02*
X188191220Y-134001520D01*
X202351720Y-147575080D02*
X214649280Y-154675080D01*
X209451720Y-135277520D02*
X202351720Y-147575080D01*
X214649280Y-154675080D02*
X221749280Y-142377520D01*
X221749280Y-142377520D02*
X209451720Y-135277520D01*
D12*
X95278000Y-57392000D02*
X96678000Y-57392000D01*
X95978000Y-55072000D02*
X95978000Y-54102000D01*
X95978000Y-58432000D02*
X95278000Y-57392000D01*
X95978000Y-61722000D02*
X95978000Y-60752000D01*
X96678000Y-57392000D02*
X95978000Y-58432000D01*
X96678000Y-58432000D02*
X95278000Y-58432000D01*
X95278000Y-76569000D02*
X96678000Y-76569000D01*
X95978000Y-74249000D02*
X95978000Y-73279000D01*
X95978000Y-77609000D02*
X95278000Y-76569000D01*
X95978000Y-80899000D02*
X95978000Y-79929000D01*
X96678000Y-76569000D02*
X95978000Y-77609000D01*
X96678000Y-77609000D02*
X95278000Y-77609000D01*
X95278000Y-95492000D02*
X96678000Y-95492000D01*
X95978000Y-93172000D02*
X95978000Y-92202000D01*
X95978000Y-96532000D02*
X95278000Y-95492000D01*
X95978000Y-99822000D02*
X95978000Y-98852000D01*
X96678000Y-95492000D02*
X95978000Y-96532000D01*
X96678000Y-96532000D02*
X95278000Y-96532000D01*
X95278000Y-114521000D02*
X96678000Y-114521000D01*
X95978000Y-112201000D02*
X95978000Y-111231000D01*
X95978000Y-115561000D02*
X95278000Y-114521000D01*
X95978000Y-118851000D02*
X95978000Y-117881000D01*
X96678000Y-114521000D02*
X95978000Y-115561000D01*
X96678000Y-115561000D02*
X95278000Y-115561000D01*
X114778000Y-56866000D02*
X116178000Y-56866000D01*
X115478000Y-54546000D02*
X115478000Y-53576000D01*
X115478000Y-57906000D02*
X114778000Y-56866000D01*
X115478000Y-61196000D02*
X115478000Y-60226000D01*
X116178000Y-56866000D02*
X115478000Y-57906000D01*
X116178000Y-57906000D02*
X114778000Y-57906000D01*
X114278000Y-76366000D02*
X115678000Y-76366000D01*
X114978000Y-74046000D02*
X114978000Y-73076000D01*
X114978000Y-77406000D02*
X114278000Y-76366000D01*
X114978000Y-80696000D02*
X114978000Y-79726000D01*
X115678000Y-76366000D02*
X114978000Y-77406000D01*
X115678000Y-77406000D02*
X114278000Y-77406000D01*
X114278000Y-95492000D02*
X115678000Y-95492000D01*
X114978000Y-93172000D02*
X114978000Y-92202000D01*
X114978000Y-96532000D02*
X114278000Y-95492000D01*
X114978000Y-99822000D02*
X114978000Y-98852000D01*
X115678000Y-95492000D02*
X114978000Y-96532000D01*
X115678000Y-96532000D02*
X114278000Y-96532000D01*
X114278000Y-114542000D02*
X115678000Y-114542000D01*
X114978000Y-112222000D02*
X114978000Y-111252000D01*
X114978000Y-115582000D02*
X114278000Y-114542000D01*
X114978000Y-118872000D02*
X114978000Y-117902000D01*
X115678000Y-114542000D02*
X114978000Y-115582000D01*
X115678000Y-115582000D02*
X114278000Y-115582000D01*
X121088000Y-62256000D02*
X122058000Y-62256000D01*
X124378000Y-62256000D02*
X125418000Y-61556000D01*
X124378000Y-62956000D02*
X124378000Y-61556000D01*
X125418000Y-61556000D02*
X125418000Y-62956000D01*
X125418000Y-62956000D02*
X124378000Y-62256000D01*
X127738000Y-62256000D02*
X128708000Y-62256000D01*
X121298000Y-81256000D02*
X122268000Y-81256000D01*
X124588000Y-81256000D02*
X125628000Y-80556000D01*
X124588000Y-81956000D02*
X124588000Y-80556000D01*
X125628000Y-80556000D02*
X125628000Y-81956000D01*
X125628000Y-81956000D02*
X124588000Y-81256000D01*
X127948000Y-81256000D02*
X128918000Y-81256000D01*
X121538000Y-100256000D02*
X122508000Y-100256000D01*
X124828000Y-100256000D02*
X125868000Y-99556000D01*
X124828000Y-100956000D02*
X124828000Y-99556000D01*
X125868000Y-99556000D02*
X125868000Y-100956000D01*
X125868000Y-100956000D02*
X124828000Y-100256000D01*
X128188000Y-100256000D02*
X129158000Y-100256000D01*
X133278000Y-107049000D02*
X134678000Y-107049000D01*
X133978000Y-104729000D02*
X133978000Y-103759000D01*
X133978000Y-108089000D02*
X133278000Y-107049000D01*
X133978000Y-111379000D02*
X133978000Y-110409000D01*
X134678000Y-107049000D02*
X133978000Y-108089000D01*
X134678000Y-108089000D02*
X133278000Y-108089000D01*
X133278000Y-71756000D02*
X134678000Y-71756000D01*
X133978000Y-69436000D02*
X133978000Y-68466000D01*
X133978000Y-72796000D02*
X133278000Y-71756000D01*
X133978000Y-76086000D02*
X133978000Y-75116000D01*
X134678000Y-71756000D02*
X133978000Y-72796000D01*
X134678000Y-72796000D02*
X133278000Y-72796000D01*
X152278000Y-75172000D02*
X153678000Y-75172000D01*
X152978000Y-72852000D02*
X152978000Y-71882000D01*
X152978000Y-76212000D02*
X152278000Y-75172000D01*
X152978000Y-79502000D02*
X152978000Y-78532000D01*
X153678000Y-75172000D02*
X152978000Y-76212000D01*
X153678000Y-76212000D02*
X152278000Y-76212000D01*
X140538000Y-98256000D02*
X141508000Y-98256000D01*
X143828000Y-98256000D02*
X144868000Y-97556000D01*
X143828000Y-98956000D02*
X143828000Y-97556000D01*
X144868000Y-97556000D02*
X144868000Y-98956000D01*
X144868000Y-98956000D02*
X143828000Y-98256000D01*
X147188000Y-98256000D02*
X148158000Y-98256000D01*
X171778000Y-55487000D02*
X173178000Y-55487000D01*
X172478000Y-53167000D02*
X172478000Y-52197000D01*
X172478000Y-56527000D02*
X171778000Y-55487000D01*
X172478000Y-59817000D02*
X172478000Y-58847000D01*
X173178000Y-55487000D02*
X172478000Y-56527000D01*
X173178000Y-56527000D02*
X171778000Y-56527000D01*
X152278000Y-91534000D02*
X153678000Y-91534000D01*
X152978000Y-89214000D02*
X152978000Y-88244000D01*
X152978000Y-92574000D02*
X152278000Y-91534000D01*
X152978000Y-95864000D02*
X152978000Y-94894000D01*
X153678000Y-91534000D02*
X152978000Y-92574000D01*
X153678000Y-92574000D02*
X152278000Y-92574000D01*
X171778000Y-109866000D02*
X173178000Y-109866000D01*
X172478000Y-107546000D02*
X172478000Y-106576000D01*
X172478000Y-110906000D02*
X171778000Y-109866000D01*
X172478000Y-114196000D02*
X172478000Y-113226000D01*
X173178000Y-109866000D02*
X172478000Y-110906000D01*
X173178000Y-110906000D02*
X171778000Y-110906000D01*
X178538000Y-64256000D02*
X179508000Y-64256000D01*
X181828000Y-64256000D02*
X182868000Y-63556000D01*
X181828000Y-64956000D02*
X181828000Y-63556000D01*
X182868000Y-63556000D02*
X182868000Y-64956000D01*
X182868000Y-64956000D02*
X181828000Y-64256000D01*
X185188000Y-64256000D02*
X186158000Y-64256000D01*
X171778000Y-75366000D02*
X173178000Y-75366000D01*
X172478000Y-73046000D02*
X172478000Y-72076000D01*
X172478000Y-76406000D02*
X171778000Y-75366000D01*
X172478000Y-79696000D02*
X172478000Y-78726000D01*
X173178000Y-75366000D02*
X172478000Y-76406000D01*
X173178000Y-76406000D02*
X171778000Y-76406000D01*
X171778000Y-92366000D02*
X173178000Y-92366000D01*
X172478000Y-90046000D02*
X172478000Y-89076000D01*
X172478000Y-93406000D02*
X171778000Y-92366000D01*
X172478000Y-96696000D02*
X172478000Y-95726000D01*
X173178000Y-92366000D02*
X172478000Y-93406000D01*
X173178000Y-93406000D02*
X171778000Y-93406000D01*
X178538000Y-103256000D02*
X179508000Y-103256000D01*
X181828000Y-103256000D02*
X182868000Y-102556000D01*
X181828000Y-103956000D02*
X181828000Y-102556000D01*
X182868000Y-102556000D02*
X182868000Y-103956000D01*
X182868000Y-103956000D02*
X181828000Y-103256000D01*
X185188000Y-103256000D02*
X186158000Y-103256000D01*
X190278000Y-74283000D02*
X191678000Y-74283000D01*
X190978000Y-71963000D02*
X190978000Y-70993000D01*
X190978000Y-75323000D02*
X190278000Y-74283000D01*
X190978000Y-78613000D02*
X190978000Y-77643000D01*
X191678000Y-74283000D02*
X190978000Y-75323000D01*
X191678000Y-75323000D02*
X190278000Y-75323000D01*
X190278000Y-89366000D02*
X191678000Y-89366000D01*
X190978000Y-87046000D02*
X190978000Y-86076000D01*
X190978000Y-90406000D02*
X190278000Y-89366000D01*
X190978000Y-93696000D02*
X190978000Y-92726000D01*
X191678000Y-89366000D02*
X190978000Y-90406000D01*
X191678000Y-90406000D02*
X190278000Y-90406000D01*
X190278000Y-102858000D02*
X191678000Y-102858000D01*
X190978000Y-100538000D02*
X190978000Y-99568000D01*
X190978000Y-103898000D02*
X190278000Y-102858000D01*
X190978000Y-107188000D02*
X190978000Y-106218000D01*
X191678000Y-102858000D02*
X190978000Y-103898000D01*
X191678000Y-103898000D02*
X190278000Y-103898000D01*
X190778000Y-118106000D02*
X192178000Y-118106000D01*
X191478000Y-115786000D02*
X191478000Y-114816000D01*
X191478000Y-119146000D02*
X190778000Y-118106000D01*
X191478000Y-122436000D02*
X191478000Y-121466000D01*
X192178000Y-118106000D02*
X191478000Y-119146000D01*
X192178000Y-119146000D02*
X190778000Y-119146000D01*
X82798000Y-124256000D02*
X83768000Y-124256000D01*
X86088000Y-124256000D02*
X87128000Y-123556000D01*
X86088000Y-124956000D02*
X86088000Y-123556000D01*
X87128000Y-123556000D02*
X87128000Y-124956000D01*
X87128000Y-124956000D02*
X86088000Y-124256000D01*
X89448000Y-124256000D02*
X90418000Y-124256000D01*
X114278000Y-129366000D02*
X115678000Y-129366000D01*
X114978000Y-127046000D02*
X114978000Y-126076000D01*
X114978000Y-130406000D02*
X114278000Y-129366000D01*
X114978000Y-133696000D02*
X114978000Y-132726000D01*
X115678000Y-129366000D02*
X114978000Y-130406000D01*
X115678000Y-130406000D02*
X114278000Y-130406000D01*
X121798000Y-138256000D02*
X122768000Y-138256000D01*
X125088000Y-138256000D02*
X126128000Y-137556000D01*
X125088000Y-138956000D02*
X125088000Y-137556000D01*
X126128000Y-137556000D02*
X126128000Y-138956000D01*
X126128000Y-138956000D02*
X125088000Y-138256000D01*
X128448000Y-138256000D02*
X129418000Y-138256000D01*
X176606867Y-125021000D02*
X175766822Y-124536000D01*
X178266046Y-126787218D02*
X178966046Y-125574782D01*
X178966046Y-125574782D02*
X179516712Y-126701000D01*
X179516712Y-126701000D02*
X178266046Y-126787218D01*
X179866712Y-126094782D02*
X179166712Y-127307218D01*
X182365936Y-128346000D02*
X181525891Y-127861000D01*
X182758000Y-136967178D02*
X183243000Y-136127133D01*
X184316782Y-132867288D02*
X185529218Y-133567288D01*
X184403000Y-134117954D02*
X184316782Y-132867288D01*
X185009218Y-134467954D02*
X183796782Y-133767954D01*
X185529218Y-133567288D02*
X184403000Y-134117954D01*
X186083000Y-131208109D02*
X186568000Y-130368064D01*
X133278000Y-126840000D02*
X134678000Y-126840000D01*
X133978000Y-124520000D02*
X133978000Y-123550000D01*
X133978000Y-127880000D02*
X133278000Y-126840000D01*
X133978000Y-131170000D02*
X133978000Y-130200000D01*
X134678000Y-126840000D02*
X133978000Y-127880000D01*
X134678000Y-127880000D02*
X133278000Y-127880000D01*
X140538000Y-78756000D02*
X141508000Y-78756000D01*
X143828000Y-78756000D02*
X144868000Y-78056000D01*
X143828000Y-79456000D02*
X143828000Y-78056000D01*
X144868000Y-78056000D02*
X144868000Y-79456000D01*
X144868000Y-79456000D02*
X143828000Y-78756000D01*
X147188000Y-78756000D02*
X148158000Y-78756000D01*
X159038000Y-81256000D02*
X160008000Y-81256000D01*
X162328000Y-81256000D02*
X163368000Y-80556000D01*
X162328000Y-81956000D02*
X162328000Y-80556000D01*
X163368000Y-80556000D02*
X163368000Y-81956000D01*
X163368000Y-81956000D02*
X162328000Y-81256000D01*
X165688000Y-81256000D02*
X166658000Y-81256000D01*
D14*
G36*
X156728987Y-123418486D02*
G01*
X156738045Y-123466767D01*
X156720687Y-123537255D01*
X156695499Y-123554370D01*
X156657339Y-123520091D01*
X156652953Y-123493062D01*
X156678883Y-123420625D01*
X156695499Y-123405459D01*
X156728987Y-123418486D01*
G37*
G36*
X162684698Y-123559699D02*
G01*
X162686812Y-123639462D01*
X162684163Y-123760936D01*
X162668627Y-123802817D01*
X162635565Y-123770203D01*
X162609402Y-123724554D01*
X162587137Y-123615757D01*
X162609402Y-123554370D01*
X162651607Y-123485841D01*
X162674721Y-123485435D01*
X162684698Y-123559699D01*
G37*
G36*
X162331268Y-123521094D02*
G01*
X162355186Y-123603432D01*
X162370257Y-123706211D01*
X162383853Y-123866780D01*
X162379360Y-123954359D01*
X162357932Y-123965521D01*
X162320727Y-123896842D01*
X162312770Y-123876596D01*
X162273228Y-123708192D01*
X162285246Y-123565164D01*
X162306011Y-123519377D01*
X162331268Y-123521094D01*
G37*
G36*
X156468344Y-123421587D02*
G01*
X156482401Y-123513554D01*
X156482769Y-123533097D01*
X156479238Y-123640829D01*
X156464176Y-123677849D01*
X156430882Y-123658398D01*
X156426041Y-123653644D01*
X156402729Y-123592722D01*
X156398622Y-123502308D01*
X156411732Y-123420198D01*
X156440070Y-123384187D01*
X156440223Y-123384186D01*
X156468344Y-123421587D01*
G37*
G36*
X160148188Y-123774665D02*
G01*
X160256573Y-123796662D01*
X160310368Y-123829056D01*
X160341975Y-123906571D01*
X160304676Y-123952872D01*
X160235744Y-123951945D01*
X160150906Y-123966614D01*
X160080281Y-124019759D01*
X159976037Y-124095307D01*
X159880350Y-124094303D01*
X159808687Y-124017929D01*
X159800309Y-123998334D01*
X159787081Y-123958558D01*
X159971546Y-123958558D01*
X159992819Y-123979831D01*
X160014092Y-123958558D01*
X159992819Y-123937285D01*
X159971546Y-123958558D01*
X159787081Y-123958558D01*
X159769411Y-123905426D01*
X159758816Y-123854385D01*
X159796428Y-123811738D01*
X159891563Y-123783422D01*
X160017668Y-123770658D01*
X160148188Y-123774665D01*
G37*
G36*
X159416104Y-124228154D02*
G01*
X159417153Y-124264604D01*
X159456709Y-124366202D01*
X159554688Y-124447724D01*
X159684422Y-124488942D01*
X159715100Y-124490594D01*
X159819239Y-124476379D01*
X159958945Y-124440169D01*
X160024110Y-124418593D01*
X160147484Y-124377825D01*
X160229885Y-124369442D01*
X160309955Y-124395791D01*
X160394037Y-124441056D01*
X160563911Y-124507103D01*
X160708838Y-124494228D01*
X160840868Y-124400139D01*
X160886469Y-124347332D01*
X160953197Y-124267320D01*
X160983730Y-124250612D01*
X160991982Y-124291737D01*
X160992180Y-124305781D01*
X160955492Y-124406988D01*
X160861804Y-124506330D01*
X160737145Y-124583320D01*
X160607542Y-124617470D01*
X160595836Y-124617741D01*
X160463446Y-124593270D01*
X160336160Y-124535280D01*
X160243889Y-124483716D01*
X160166953Y-124478761D01*
X160065051Y-124514288D01*
X159886008Y-124565383D01*
X159711539Y-124574859D01*
X159556045Y-124548279D01*
X159433928Y-124491205D01*
X159359589Y-124409200D01*
X159347430Y-124307826D01*
X159372013Y-124246602D01*
X159405386Y-124198748D01*
X159416104Y-124228154D01*
G37*
G36*
X160162219Y-119090992D02*
G01*
X160565054Y-119128350D01*
X160822467Y-119173011D01*
X160992171Y-119211160D01*
X161200137Y-119261898D01*
X161431512Y-119321144D01*
X161671442Y-119384819D01*
X161905074Y-119448844D01*
X162117552Y-119509139D01*
X162294024Y-119561625D01*
X162419635Y-119602222D01*
X162479531Y-119626851D01*
X162481764Y-119628720D01*
X162463467Y-119637623D01*
X162396672Y-119625675D01*
X162134482Y-119561784D01*
X161838773Y-119494241D01*
X161525513Y-119426254D01*
X161210674Y-119361031D01*
X160910224Y-119301780D01*
X160640134Y-119251710D01*
X160416374Y-119214028D01*
X160254914Y-119191944D01*
X160222812Y-119188974D01*
X159799959Y-119178943D01*
X159372540Y-119209586D01*
X158956014Y-119277184D01*
X158565837Y-119378013D01*
X158217466Y-119508354D01*
X157926360Y-119664484D01*
X157774839Y-119778328D01*
X157685277Y-119850735D01*
X157652865Y-119860507D01*
X157663242Y-119831589D01*
X157800597Y-119659773D01*
X158010384Y-119505923D01*
X158281388Y-119372375D01*
X158602398Y-119261467D01*
X158962199Y-119175538D01*
X159349579Y-119116924D01*
X159753323Y-119087963D01*
X160162219Y-119090992D01*
G37*
G36*
X167437035Y-125277362D02*
G01*
X167514125Y-125336163D01*
X167517863Y-125425643D01*
X167447798Y-125538831D01*
X167313183Y-125661423D01*
X167173149Y-125745269D01*
X166973982Y-125835158D01*
X166740383Y-125922546D01*
X166497051Y-125998892D01*
X166268688Y-126055654D01*
X166093652Y-126083180D01*
X165962326Y-126092640D01*
X165879892Y-126094146D01*
X165864176Y-126087410D01*
X165920139Y-126068300D01*
X166039758Y-126031581D01*
X166204793Y-125982746D01*
X166374729Y-125933648D01*
X166707730Y-125829121D01*
X166984324Y-125723028D01*
X167198137Y-125618641D01*
X167342797Y-125519231D01*
X167411932Y-125428070D01*
X167417107Y-125398530D01*
X167386282Y-125356716D01*
X167290789Y-125343979D01*
X167126102Y-125360530D01*
X166887693Y-125406583D01*
X166794156Y-125427804D01*
X166546372Y-125492291D01*
X166336791Y-125559941D01*
X166177448Y-125625923D01*
X166080377Y-125685404D01*
X166055633Y-125724338D01*
X166029693Y-125751937D01*
X166012972Y-125745421D01*
X165986349Y-125693157D01*
X166029310Y-125623812D01*
X166130967Y-125547959D01*
X166280431Y-125476171D01*
X166296681Y-125469961D01*
X166519939Y-125397156D01*
X166767869Y-125333381D01*
X167010224Y-125285164D01*
X167216757Y-125259033D01*
X167287041Y-125256213D01*
X167437035Y-125277362D01*
G37*
G36*
X162404232Y-121069945D02*
G01*
X162529070Y-121118044D01*
X162566460Y-121136784D01*
X162693213Y-121218867D01*
X162793719Y-121312646D01*
X162821453Y-121351713D01*
X162860608Y-121439014D01*
X162847141Y-121499592D01*
X162794705Y-121558496D01*
X162667010Y-121633798D01*
X162497166Y-121670944D01*
X162375162Y-121676260D01*
X162332115Y-121660935D01*
X162365636Y-121629294D01*
X162473335Y-121585659D01*
X162558851Y-121559381D01*
X162674278Y-121518889D01*
X162724421Y-121474666D01*
X162729036Y-121416088D01*
X162685159Y-121336377D01*
X162592719Y-121254135D01*
X162566856Y-121237764D01*
X162420815Y-121180610D01*
X162245404Y-121153863D01*
X162059493Y-121154773D01*
X161881955Y-121180589D01*
X161731662Y-121228560D01*
X161627486Y-121295936D01*
X161588297Y-121379964D01*
X161588296Y-121380404D01*
X161605527Y-121455554D01*
X161667169Y-121515328D01*
X161788143Y-121570434D01*
X161907392Y-121609342D01*
X162120122Y-121673484D01*
X161928665Y-121672978D01*
X161793770Y-121668427D01*
X161685897Y-121657632D01*
X161662174Y-121652904D01*
X161589365Y-121602883D01*
X161529021Y-121519565D01*
X161494481Y-121379877D01*
X161538435Y-121259443D01*
X161655611Y-121162554D01*
X161840738Y-121093503D01*
X162088543Y-121056583D01*
X162098510Y-121055911D01*
X162273684Y-121051475D01*
X162404232Y-121069945D01*
G37*
G36*
X158535866Y-121183038D02*
G01*
X158704182Y-121218358D01*
X158813657Y-121280945D01*
X158857968Y-121364249D01*
X158830794Y-121461720D01*
X158725813Y-121566809D01*
X158702614Y-121583060D01*
X158500191Y-121687601D01*
X158254916Y-121767482D01*
X157998684Y-121815679D01*
X157763391Y-121825165D01*
X157660533Y-121812595D01*
X157534462Y-121771783D01*
X157436497Y-121714176D01*
X157426530Y-121704743D01*
X157404545Y-121678181D01*
X157567025Y-121678181D01*
X157569809Y-121685767D01*
X157629862Y-121713101D01*
X157750262Y-121723740D01*
X157908113Y-121718619D01*
X158080518Y-121698675D01*
X158244579Y-121664846D01*
X158272618Y-121657014D01*
X158434458Y-121600692D01*
X158585092Y-121533271D01*
X158704336Y-121465451D01*
X158772005Y-121407935D01*
X158780256Y-121387880D01*
X158742298Y-121341791D01*
X158646270Y-121298439D01*
X158518942Y-121267116D01*
X158402919Y-121256883D01*
X158258940Y-121271483D01*
X158096350Y-121307902D01*
X158051533Y-121321889D01*
X157921267Y-121379067D01*
X157789074Y-121457343D01*
X157673563Y-121542658D01*
X157593343Y-121620957D01*
X157567025Y-121678181D01*
X157404545Y-121678181D01*
X157382959Y-121652101D01*
X157401546Y-121644487D01*
X157418782Y-121649220D01*
X157485655Y-121628912D01*
X157566943Y-121544860D01*
X157579778Y-121526808D01*
X157740196Y-121365752D01*
X157964582Y-121251363D01*
X158242866Y-121188370D01*
X158315031Y-121181534D01*
X158535866Y-121183038D01*
G37*
G36*
X156526847Y-119530231D02*
G01*
X156488772Y-119559266D01*
X156399381Y-119602964D01*
X156267969Y-119655837D01*
X156132146Y-119703248D01*
X155676283Y-119880651D01*
X155200862Y-120116866D01*
X154720467Y-120401196D01*
X154249682Y-120722942D01*
X153803091Y-121071407D01*
X153395276Y-121435892D01*
X153040822Y-121805699D01*
X152754313Y-122170130D01*
X152739154Y-122192250D01*
X152513830Y-122561542D01*
X152352639Y-122909204D01*
X152259186Y-123226687D01*
X152238299Y-123380539D01*
X152237003Y-123637949D01*
X152279527Y-123839535D01*
X152372755Y-124006128D01*
X152484053Y-124124235D01*
X152712306Y-124278511D01*
X152972179Y-124367143D01*
X153240528Y-124383718D01*
X153357071Y-124366143D01*
X153558685Y-124298501D01*
X153804890Y-124179530D01*
X154080260Y-124018223D01*
X154369371Y-123823573D01*
X154639939Y-123618189D01*
X154848278Y-123452021D01*
X154992748Y-123340431D01*
X155074397Y-123282988D01*
X155094277Y-123279259D01*
X155053437Y-123328813D01*
X154952929Y-123431219D01*
X154849884Y-123531939D01*
X154499091Y-123844784D01*
X154154735Y-124099872D01*
X153824647Y-124292650D01*
X153516659Y-124418568D01*
X153238603Y-124473074D01*
X153229698Y-124473621D01*
X153071552Y-124475834D01*
X152933141Y-124466279D01*
X152866353Y-124453149D01*
X152578132Y-124330320D01*
X152365353Y-124173231D01*
X152223016Y-123975358D01*
X152146118Y-123730177D01*
X152128377Y-123490551D01*
X152166279Y-123145607D01*
X152277376Y-122792561D01*
X152463579Y-122427979D01*
X152726799Y-122048431D01*
X153068948Y-121650483D01*
X153266298Y-121447430D01*
X153828894Y-120931612D01*
X154406368Y-120485882D01*
X154993291Y-120113537D01*
X155584234Y-119817871D01*
X156173769Y-119602180D01*
X156411878Y-119538093D01*
X156504314Y-119521344D01*
X156526847Y-119530231D01*
G37*
G36*
X158094443Y-126156462D02*
G01*
X158101388Y-126275031D01*
X158099145Y-126475762D01*
X158087700Y-126757437D01*
X158086704Y-126777218D01*
X158070242Y-127220028D01*
X158068476Y-127603993D01*
X158080984Y-127924733D01*
X158107348Y-128177868D01*
X158147148Y-128359019D01*
X158199967Y-128463805D01*
X158250614Y-128489713D01*
X158318310Y-128473116D01*
X158429676Y-128431089D01*
X158488424Y-128405556D01*
X158651336Y-128355835D01*
X158856397Y-128326363D01*
X159069678Y-128318992D01*
X159257248Y-128335576D01*
X159345862Y-128358743D01*
X159426560Y-128417364D01*
X159517511Y-128523165D01*
X159562697Y-128591963D01*
X159672462Y-128749864D01*
X159784307Y-128837882D01*
X159912332Y-128858124D01*
X160070633Y-128812697D01*
X160273311Y-128703706D01*
X160280644Y-128699218D01*
X160396185Y-128630934D01*
X160480829Y-128585744D01*
X160509221Y-128574806D01*
X160516498Y-128596642D01*
X160468591Y-128652866D01*
X160380357Y-128729550D01*
X160266655Y-128812765D01*
X160229129Y-128837348D01*
X160030844Y-128931200D01*
X159847577Y-128955934D01*
X159692549Y-128910795D01*
X159639237Y-128871005D01*
X159558986Y-128775722D01*
X159478162Y-128649660D01*
X159462953Y-128621193D01*
X159385307Y-128507775D01*
X159299463Y-128438381D01*
X159282096Y-128431940D01*
X159074570Y-128404802D01*
X158836170Y-128416273D01*
X158609969Y-128462863D01*
X158526293Y-128493205D01*
X158376807Y-128550541D01*
X158257918Y-128575102D01*
X158166000Y-128559942D01*
X158097428Y-128498112D01*
X158048577Y-128382668D01*
X158015819Y-128206662D01*
X157995530Y-127963147D01*
X157984084Y-127645177D01*
X157980411Y-127447335D01*
X157977938Y-127015821D01*
X157984711Y-126668885D01*
X158000730Y-126406515D01*
X158025997Y-126228701D01*
X158060511Y-126135432D01*
X158078326Y-126121273D01*
X158094443Y-126156462D01*
G37*
G36*
X164561878Y-119870389D02*
G01*
X164745236Y-119947008D01*
X164949435Y-120045555D01*
X165376136Y-120293069D01*
X165811264Y-120608583D01*
X166239781Y-120978305D01*
X166646649Y-121388443D01*
X167016829Y-121825203D01*
X167268301Y-122172311D01*
X167454697Y-122481668D01*
X167609261Y-122800631D01*
X167726560Y-123113306D01*
X167801159Y-123403799D01*
X167827623Y-123656217D01*
X167818405Y-123781178D01*
X167742944Y-123989602D01*
X167597520Y-124166536D01*
X167392743Y-124307837D01*
X167139227Y-124409366D01*
X166847584Y-124466982D01*
X166528426Y-124476544D01*
X166192367Y-124433912D01*
X166161998Y-124427449D01*
X165978569Y-124379993D01*
X165770360Y-124315846D01*
X165630173Y-124266530D01*
X165403954Y-124169343D01*
X165135421Y-124035750D01*
X164842908Y-123876625D01*
X164544753Y-123702846D01*
X164259293Y-123525289D01*
X164004864Y-123354830D01*
X163799803Y-123202346D01*
X163715600Y-123130895D01*
X163651207Y-123070871D01*
X163620818Y-123037191D01*
X163630720Y-123033049D01*
X163687198Y-123061636D01*
X163796538Y-123126148D01*
X163965028Y-123229775D01*
X164198953Y-123375712D01*
X164204879Y-123379421D01*
X164701034Y-123679400D01*
X165142517Y-123922899D01*
X165536124Y-124112281D01*
X165888654Y-124249906D01*
X166206903Y-124338135D01*
X166497669Y-124379329D01*
X166767748Y-124375849D01*
X166975841Y-124341944D01*
X167263545Y-124254561D01*
X167474663Y-124139615D01*
X167615106Y-123990399D01*
X167690784Y-123800206D01*
X167707608Y-123562327D01*
X167704892Y-123514605D01*
X167645158Y-123189308D01*
X167516113Y-122837046D01*
X167325520Y-122466921D01*
X167081139Y-122088032D01*
X166790731Y-121709482D01*
X166462058Y-121340371D01*
X166102880Y-120989799D01*
X165720960Y-120666867D01*
X165324057Y-120380676D01*
X164919934Y-120140327D01*
X164757978Y-120059050D01*
X164572051Y-119978374D01*
X164446704Y-119943459D01*
X164371853Y-119952659D01*
X164341381Y-119991137D01*
X164312916Y-120022866D01*
X164265204Y-119990833D01*
X164231922Y-119938253D01*
X164265754Y-119880408D01*
X164276784Y-119869089D01*
X164338711Y-119834330D01*
X164430056Y-119833797D01*
X164561878Y-119870389D01*
G37*
G36*
X156463946Y-121819523D02*
G01*
X156442654Y-121854392D01*
X156372400Y-121936592D01*
X156264516Y-122053410D01*
X156145682Y-122176551D01*
X155827104Y-122559440D01*
X155568220Y-122994171D01*
X155378453Y-123463933D01*
X155330921Y-123630325D01*
X155280419Y-123844243D01*
X155256125Y-124005900D01*
X155257394Y-124143780D01*
X155283579Y-124286365D01*
X155313575Y-124394790D01*
X155436292Y-124664580D01*
X155636556Y-124921445D01*
X155907202Y-125160504D01*
X156241067Y-125376881D01*
X156630986Y-125565697D01*
X157069795Y-125722073D01*
X157385921Y-125805885D01*
X157993304Y-125924369D01*
X158662258Y-126014997D01*
X159373300Y-126075808D01*
X160106944Y-126104839D01*
X160377404Y-126107134D01*
X161051342Y-126089275D01*
X161649196Y-126035568D01*
X162172146Y-125945817D01*
X162621372Y-125819828D01*
X162953087Y-125680617D01*
X163224671Y-125507671D01*
X163501608Y-125263297D01*
X163772522Y-124959499D01*
X164026038Y-124608281D01*
X164132590Y-124435958D01*
X164235982Y-124262428D01*
X164323951Y-124119274D01*
X164387692Y-124020502D01*
X164418402Y-123980122D01*
X164419239Y-123979831D01*
X164420300Y-124013908D01*
X164386571Y-124105513D01*
X164326197Y-124238708D01*
X164247322Y-124397555D01*
X164158090Y-124566115D01*
X164066645Y-124728449D01*
X163981131Y-124868619D01*
X163919223Y-124958390D01*
X163790086Y-125111684D01*
X163625050Y-125283857D01*
X163447413Y-125452599D01*
X163280472Y-125595600D01*
X163167483Y-125678274D01*
X162874305Y-125829401D01*
X162507244Y-125957219D01*
X162074575Y-126060562D01*
X161584574Y-126138267D01*
X161045517Y-126189168D01*
X160465681Y-126212103D01*
X159853342Y-126205905D01*
X159524812Y-126190782D01*
X158746484Y-126128230D01*
X158046612Y-126035482D01*
X157423967Y-125912188D01*
X156877319Y-125758001D01*
X156405439Y-125572569D01*
X156007098Y-125355546D01*
X155681066Y-125106581D01*
X155670158Y-125096552D01*
X155420778Y-124820105D01*
X155255268Y-124530043D01*
X155173445Y-124225994D01*
X155163841Y-124075040D01*
X155186319Y-123842922D01*
X155248903Y-123564137D01*
X155344316Y-123262697D01*
X155465281Y-122962615D01*
X155559431Y-122769676D01*
X155646362Y-122628342D01*
X155763337Y-122469435D01*
X155898980Y-122304904D01*
X156041918Y-122146696D01*
X156180776Y-122006761D01*
X156304180Y-121897046D01*
X156400755Y-121829500D01*
X156459128Y-121816071D01*
X156463946Y-121819523D01*
G37*
G36*
X162014182Y-122289503D02*
G01*
X162101206Y-122321795D01*
X162202887Y-122418423D01*
X162277112Y-122570472D01*
X162310818Y-122749500D01*
X162311580Y-122779901D01*
X162297174Y-122901656D01*
X162242724Y-123006779D01*
X162157800Y-123104014D01*
X161991631Y-123247211D01*
X161824530Y-123324655D01*
X161645260Y-123350087D01*
X161535989Y-123364513D01*
X161509623Y-123395854D01*
X161566550Y-123443192D01*
X161598933Y-123459897D01*
X161642066Y-123492231D01*
X161620747Y-123506590D01*
X161554689Y-123497543D01*
X161513328Y-123483476D01*
X161449767Y-123430084D01*
X161368690Y-123327957D01*
X161288671Y-123205417D01*
X161228285Y-123090789D01*
X161206022Y-123014879D01*
X161224918Y-122906215D01*
X161235714Y-122872423D01*
X161447736Y-122872423D01*
X161452632Y-122937904D01*
X161498950Y-122997017D01*
X161591925Y-123070745D01*
X161677103Y-123078208D01*
X161759693Y-123043168D01*
X161817902Y-122983928D01*
X161801138Y-122920903D01*
X161717644Y-122868086D01*
X161644830Y-122848186D01*
X161514001Y-122840273D01*
X161447736Y-122872423D01*
X161235714Y-122872423D01*
X161272168Y-122758316D01*
X161300691Y-122690087D01*
X161471990Y-122690087D01*
X161498008Y-122729001D01*
X161596549Y-122754901D01*
X161617569Y-122757390D01*
X161726108Y-122769933D01*
X161791366Y-122779855D01*
X161796984Y-122781389D01*
X161785342Y-122759997D01*
X161735513Y-122701576D01*
X161646838Y-122642313D01*
X161551920Y-122630789D01*
X161482985Y-122668408D01*
X161471990Y-122690087D01*
X161300691Y-122690087D01*
X161335538Y-122606732D01*
X161350126Y-122578272D01*
X161752072Y-122578272D01*
X161784464Y-122660283D01*
X161829859Y-122753091D01*
X161891963Y-122889253D01*
X161912783Y-122977465D01*
X161897193Y-123041263D01*
X161891561Y-123050913D01*
X161870889Y-123113438D01*
X161902403Y-123130900D01*
X161966578Y-123104039D01*
X162033490Y-123045519D01*
X162087077Y-122930467D01*
X162078939Y-122796984D01*
X162020679Y-122669811D01*
X161923895Y-122573693D01*
X161800191Y-122533372D01*
X161793316Y-122533265D01*
X161755974Y-122541655D01*
X161752072Y-122578272D01*
X161350126Y-122578272D01*
X161368910Y-122541624D01*
X161467332Y-122432248D01*
X161653887Y-122432248D01*
X161706833Y-122445153D01*
X161782974Y-122447521D01*
X161958921Y-122484447D01*
X162088401Y-122592005D01*
X162168199Y-122767268D01*
X162193627Y-122843152D01*
X162211794Y-122838895D01*
X162217667Y-122817085D01*
X162220876Y-122711344D01*
X162210629Y-122646054D01*
X162138348Y-122504902D01*
X162017222Y-122406295D01*
X161871220Y-122360960D01*
X161724310Y-122379623D01*
X161673389Y-122405626D01*
X161653887Y-122432248D01*
X161467332Y-122432248D01*
X161483208Y-122414605D01*
X161647980Y-122324503D01*
X161834536Y-122279932D01*
X162014182Y-122289503D01*
G37*
G36*
X158402843Y-122140089D02*
G01*
X158443990Y-122176565D01*
X158524326Y-122319425D01*
X158582440Y-122513005D01*
X158608799Y-122723881D01*
X158609431Y-122756631D01*
X158601889Y-122885997D01*
X158567219Y-122981045D01*
X158488869Y-123078928D01*
X158446536Y-123122262D01*
X158292453Y-123238693D01*
X158115057Y-123315068D01*
X157936112Y-123347517D01*
X157777382Y-123332173D01*
X157660632Y-123265165D01*
X157658091Y-123262410D01*
X157595965Y-123156647D01*
X157682740Y-123156647D01*
X157748514Y-123210594D01*
X157835335Y-123247404D01*
X157920249Y-123242236D01*
X158028319Y-123189658D01*
X158118644Y-123130388D01*
X158228444Y-123046082D01*
X158252589Y-123022544D01*
X158397342Y-123022544D01*
X158418615Y-123043817D01*
X158439888Y-123022544D01*
X158418615Y-123001271D01*
X158397342Y-123022544D01*
X158252589Y-123022544D01*
X158306429Y-122970058D01*
X158327068Y-122938930D01*
X158328582Y-122913234D01*
X158456360Y-122913234D01*
X158473140Y-122928849D01*
X158484637Y-122914070D01*
X158513816Y-122827183D01*
X158524328Y-122728267D01*
X158517180Y-122643956D01*
X158499289Y-122633016D01*
X158477946Y-122685658D01*
X158460440Y-122792094D01*
X158458190Y-122817076D01*
X158456360Y-122913234D01*
X158328582Y-122913234D01*
X158330378Y-122882742D01*
X158289696Y-122882582D01*
X158228964Y-122935276D01*
X158137834Y-122999918D01*
X157993992Y-123055837D01*
X157829763Y-123091220D01*
X157791060Y-123095331D01*
X157695792Y-123116628D01*
X157682740Y-123156647D01*
X157595965Y-123156647D01*
X157571170Y-123114437D01*
X157524528Y-122925724D01*
X157525817Y-122819355D01*
X157720086Y-122819355D01*
X157731990Y-122894906D01*
X157793203Y-122948462D01*
X157903248Y-122951007D01*
X158042651Y-122902275D01*
X158048550Y-122899262D01*
X158165005Y-122821877D01*
X158246839Y-122747753D01*
X158300044Y-122677656D01*
X158293479Y-122635941D01*
X158268012Y-122616411D01*
X158154732Y-122579473D01*
X158009341Y-122600163D01*
X157906097Y-122637709D01*
X157771574Y-122719944D01*
X157720086Y-122819355D01*
X157525817Y-122819355D01*
X157526756Y-122741845D01*
X157582168Y-122583248D01*
X157620462Y-122528017D01*
X157765451Y-122528017D01*
X157778104Y-122558622D01*
X157847794Y-122549099D01*
X157849846Y-122548366D01*
X157953986Y-122526221D01*
X158096758Y-122513534D01*
X158153840Y-122512337D01*
X158279728Y-122506471D01*
X158337464Y-122484684D01*
X158344930Y-122448518D01*
X158297670Y-122402530D01*
X158196027Y-122376785D01*
X158068747Y-122373349D01*
X157944575Y-122394289D01*
X157890149Y-122415822D01*
X157804558Y-122474633D01*
X157765451Y-122528017D01*
X157620462Y-122528017D01*
X157686175Y-122433240D01*
X157823569Y-122301195D01*
X157979141Y-122196485D01*
X158137682Y-122128482D01*
X158283986Y-122106559D01*
X158402843Y-122140089D01*
G37*
G36*
X164944059Y-125152230D02*
G01*
X165146246Y-125218425D01*
X165260886Y-125283414D01*
X165419141Y-125436018D01*
X165569426Y-125660724D01*
X165707118Y-125944609D01*
X165827594Y-126274748D01*
X165926232Y-126638219D01*
X165998407Y-127022096D01*
X166039499Y-127413457D01*
X166042532Y-127468608D01*
X166051508Y-127686649D01*
X166052062Y-127841204D01*
X166042032Y-127953645D01*
X166019256Y-128045348D01*
X165981568Y-128137687D01*
X165972945Y-128156215D01*
X165840282Y-128362433D01*
X165662646Y-128503945D01*
X165431231Y-128586154D01*
X165231186Y-128611386D01*
X165040941Y-128613313D01*
X164810657Y-128602636D01*
X164584079Y-128581597D01*
X164540581Y-128576006D01*
X164357402Y-128551983D01*
X164235581Y-128541921D01*
X164152177Y-128548212D01*
X164084245Y-128573247D01*
X164008842Y-128619414D01*
X163987482Y-128633640D01*
X163858943Y-128747763D01*
X163754496Y-128888411D01*
X163739879Y-128916358D01*
X163659435Y-129045925D01*
X163544627Y-129186679D01*
X163474917Y-129257157D01*
X163312827Y-129378593D01*
X163174422Y-129424038D01*
X163063829Y-129392368D01*
X163043372Y-129374672D01*
X163001695Y-129291631D01*
X162995013Y-129236397D01*
X162999791Y-129178604D01*
X163016019Y-129196548D01*
X163036188Y-129244906D01*
X163101885Y-129325372D01*
X163198972Y-129334001D01*
X163319167Y-129274238D01*
X163454191Y-129149526D01*
X163548421Y-129031911D01*
X163620320Y-128927438D01*
X163665351Y-128851965D01*
X163673054Y-128831560D01*
X163634634Y-128825235D01*
X163532627Y-128833614D01*
X163386909Y-128854839D01*
X163343322Y-128862410D01*
X163200591Y-128879765D01*
X163005619Y-128891642D01*
X162770033Y-128898426D01*
X162505459Y-128900505D01*
X162223524Y-128898264D01*
X161935852Y-128892091D01*
X161654072Y-128882371D01*
X161389808Y-128869492D01*
X161154688Y-128853840D01*
X160960338Y-128835801D01*
X160818383Y-128815762D01*
X160740451Y-128794109D01*
X160732283Y-128775610D01*
X160791944Y-128762042D01*
X160935894Y-128756061D01*
X161163668Y-128757664D01*
X161474803Y-128766849D01*
X161809030Y-128780826D01*
X162247729Y-128797910D01*
X162612742Y-128804735D01*
X162914912Y-128800800D01*
X163165083Y-128785601D01*
X163374100Y-128758634D01*
X163552806Y-128719396D01*
X163630303Y-128696283D01*
X163738459Y-128649176D01*
X163808545Y-128597025D01*
X163813442Y-128590061D01*
X163875977Y-128538126D01*
X163904308Y-128532260D01*
X163981822Y-128513695D01*
X164072010Y-128474744D01*
X164146496Y-128446231D01*
X164236334Y-128438593D01*
X164366578Y-128451695D01*
X164491698Y-128472506D01*
X164798139Y-128513946D01*
X165086756Y-128527899D01*
X165334278Y-128513984D01*
X165467125Y-128488443D01*
X165633635Y-128403089D01*
X165783330Y-128255719D01*
X165895660Y-128069327D01*
X165931283Y-127969083D01*
X165963856Y-127744673D01*
X165960550Y-127464905D01*
X165925748Y-127147647D01*
X165863835Y-126810766D01*
X165779193Y-126472131D01*
X165676206Y-126149610D01*
X165559259Y-125861070D01*
X165432734Y-125624380D01*
X165319632Y-125475949D01*
X165152906Y-125328770D01*
X164984007Y-125246032D01*
X164779400Y-125213231D01*
X164706908Y-125210970D01*
X164575306Y-125207546D01*
X164519180Y-125198948D01*
X164528941Y-125182027D01*
X164566521Y-125164892D01*
X164740066Y-125132551D01*
X164944059Y-125152230D01*
G37*
D15*
X197072000Y-46204000D03*
X193072000Y-46204000D03*
X197072000Y-53204000D03*
X193072000Y-53204000D03*
D16*
X195072000Y-55004000D03*
X195072000Y-48004000D03*
X195072000Y-51004000D03*
X191072000Y-56504000D03*
X199072000Y-56504000D03*
D17*
X136525000Y-39370000D03*
X136525000Y-41910000D03*
X136525000Y-44450000D03*
X136525000Y-46990000D03*
X136525000Y-49530000D03*
X136525000Y-52070000D03*
X136525000Y-54610000D03*
X136525000Y-57150000D03*
X136525000Y-59690000D03*
X136525000Y-62230000D03*
X136525000Y-64770000D03*
X136525000Y-67310000D03*
X151765000Y-67310000D03*
X151765000Y-64770000D03*
X151765000Y-62230000D03*
X151765000Y-59690000D03*
X151765000Y-57150000D03*
X151765000Y-54610000D03*
X151765000Y-52070000D03*
X151765000Y-49530000D03*
X151765000Y-46990000D03*
X151765000Y-44450000D03*
X151765000Y-41910000D03*
X151765000Y-39370000D03*
%LPC*%
X160314000Y-39624000D03*
X165314000Y-39624000D03*
D18*
X159314000Y-42124000D03*
X166314000Y-42124000D03*
D19*
X134620000Y-81788000D03*
X191770000Y-65024000D03*
X185801000Y-124714000D03*
X96520000Y-67564000D03*
X96520000Y-124968000D03*
D15*
X197072000Y-46204000D03*
X193072000Y-46204000D03*
X197072000Y-53204000D03*
X193072000Y-53204000D03*
D16*
X195072000Y-55004000D03*
X195072000Y-48004000D03*
X195072000Y-51004000D03*
X191072000Y-56504000D03*
X199072000Y-56504000D03*
D19*
X135128000Y-117348000D03*
X128397000Y-42672000D03*
D17*
X136525000Y-39370000D03*
X136525000Y-41910000D03*
X136525000Y-44450000D03*
X136525000Y-46990000D03*
X136525000Y-49530000D03*
X136525000Y-52070000D03*
X136525000Y-54610000D03*
X136525000Y-57150000D03*
X136525000Y-59690000D03*
X136525000Y-62230000D03*
X136525000Y-64770000D03*
X136525000Y-67310000D03*
X151765000Y-67310000D03*
X151765000Y-64770000D03*
X151765000Y-62230000D03*
X151765000Y-59690000D03*
X151765000Y-57150000D03*
X151765000Y-54610000D03*
X151765000Y-52070000D03*
X151765000Y-49530000D03*
X151765000Y-46990000D03*
X151765000Y-44450000D03*
X151765000Y-41910000D03*
X151765000Y-39370000D03*
D20*
X202478000Y-151256000D03*
D21*
X205465788Y-152981000D03*
X208289030Y-154611000D03*
D22*
X211276818Y-156336000D03*
D23*
X81915000Y-57975500D03*
D24*
X86995000Y-57975500D03*
D23*
X92075000Y-57975500D03*
D25*
X83185000Y-55435500D03*
X89535000Y-52895500D03*
D23*
X81915000Y-77025500D03*
D24*
X86995000Y-77025500D03*
D23*
X92075000Y-77025500D03*
D25*
X83185000Y-74485500D03*
X89535000Y-71945500D03*
D23*
X81915000Y-96075500D03*
D24*
X86995000Y-96075500D03*
D23*
X92075000Y-96075500D03*
D25*
X83185000Y-93535500D03*
X89535000Y-90995500D03*
D23*
X81915000Y-115125500D03*
D24*
X86995000Y-115125500D03*
D23*
X92075000Y-115125500D03*
D25*
X83185000Y-112585500D03*
X89535000Y-110045500D03*
D23*
X100965000Y-57975500D03*
D24*
X106045000Y-57975500D03*
D23*
X111125000Y-57975500D03*
D25*
X102235000Y-55435500D03*
X108585000Y-52895500D03*
D23*
X100965000Y-77025500D03*
D24*
X106045000Y-77025500D03*
D23*
X111125000Y-77025500D03*
D25*
X102235000Y-74485500D03*
X108585000Y-71945500D03*
D23*
X100965000Y-96075500D03*
D24*
X106045000Y-96075500D03*
D23*
X111125000Y-96075500D03*
D25*
X102235000Y-93535500D03*
X108585000Y-90995500D03*
D23*
X100965000Y-115125500D03*
D24*
X106045000Y-115125500D03*
D23*
X111125000Y-115125500D03*
D25*
X102235000Y-112585500D03*
X108585000Y-110045500D03*
D23*
X120015000Y-53213000D03*
D24*
X125095000Y-53213000D03*
D23*
X130175000Y-53213000D03*
D25*
X121285000Y-50673000D03*
X127635000Y-48133000D03*
D23*
X120015000Y-72263000D03*
D24*
X125095000Y-72263000D03*
D23*
X130175000Y-72263000D03*
D25*
X121285000Y-69723000D03*
X127635000Y-67183000D03*
D23*
X120015000Y-91313000D03*
D24*
X125095000Y-91313000D03*
D23*
X130175000Y-91313000D03*
D25*
X121285000Y-88773000D03*
X127635000Y-86233000D03*
D23*
X120015000Y-110363000D03*
D24*
X125095000Y-110363000D03*
D23*
X130175000Y-110363000D03*
D25*
X121285000Y-107823000D03*
X127635000Y-105283000D03*
D23*
X144145000Y-45751750D03*
D24*
X144145000Y-50831750D03*
D23*
X144145000Y-55911750D03*
D25*
X146685000Y-47021750D03*
X149225000Y-53371750D03*
D23*
X144145000Y-64801750D03*
D24*
X144145000Y-69881750D03*
D23*
X144145000Y-74961750D03*
D25*
X146685000Y-66071750D03*
X149225000Y-72421750D03*
D23*
X139065000Y-88931750D03*
D24*
X144145000Y-88931750D03*
D23*
X149225000Y-88931750D03*
D25*
X140335000Y-86391750D03*
X146685000Y-83851750D03*
D23*
X139065000Y-107981750D03*
D24*
X144145000Y-107981750D03*
D23*
X149225000Y-107981750D03*
D25*
X140335000Y-105441750D03*
X146685000Y-102901750D03*
D23*
X158115000Y-53213000D03*
D24*
X163195000Y-53213000D03*
D23*
X168275000Y-53213000D03*
D25*
X159385000Y-50673000D03*
X165735000Y-48133000D03*
D23*
X158115000Y-72263000D03*
D24*
X163195000Y-72263000D03*
D23*
X168275000Y-72263000D03*
D25*
X159385000Y-69723000D03*
X165735000Y-67183000D03*
D23*
X158115000Y-91313000D03*
D24*
X163195000Y-91313000D03*
D23*
X168275000Y-91313000D03*
D25*
X159385000Y-88773000D03*
X165735000Y-86233000D03*
D23*
X158115000Y-110363000D03*
D24*
X163195000Y-110363000D03*
D23*
X168275000Y-110363000D03*
D25*
X159385000Y-107823000D03*
X165735000Y-105283000D03*
D23*
X177165000Y-55594250D03*
D24*
X182245000Y-55594250D03*
D23*
X187325000Y-55594250D03*
D25*
X178435000Y-53054250D03*
X184785000Y-50514250D03*
D23*
X177165000Y-74644250D03*
D24*
X182245000Y-74644250D03*
D23*
X187325000Y-74644250D03*
D25*
X178435000Y-72104250D03*
X184785000Y-69564250D03*
D23*
X177165000Y-93694250D03*
D24*
X182245000Y-93694250D03*
D23*
X187325000Y-93694250D03*
D25*
X178435000Y-91154250D03*
X184785000Y-88614250D03*
D23*
X177165000Y-112744250D03*
D24*
X182245000Y-112744250D03*
D23*
X187325000Y-112744250D03*
D25*
X178435000Y-110204250D03*
X184785000Y-107664250D03*
D23*
X196215000Y-65119250D03*
D24*
X201295000Y-65119250D03*
D23*
X206375000Y-65119250D03*
D25*
X197485000Y-62579250D03*
X203835000Y-60039250D03*
D23*
X196215000Y-84169250D03*
D24*
X201295000Y-84169250D03*
D23*
X206375000Y-84169250D03*
D25*
X197485000Y-81629250D03*
X203835000Y-79089250D03*
D23*
X196215000Y-103219250D03*
D24*
X201295000Y-103219250D03*
D23*
X206375000Y-103219250D03*
D25*
X197485000Y-100679250D03*
X203835000Y-98139250D03*
D23*
X202855000Y-122802891D03*
D24*
X200315000Y-127202300D03*
D23*
X197775000Y-131601709D03*
D25*
X204419705Y-125172743D03*
X203444409Y-131942005D03*
D23*
X81915000Y-134175500D03*
D24*
X86995000Y-134175500D03*
D23*
X92075000Y-134175500D03*
D25*
X83185000Y-131635500D03*
X89535000Y-129095500D03*
D23*
X100965000Y-134175500D03*
D24*
X106045000Y-134175500D03*
D23*
X111125000Y-134175500D03*
D25*
X102235000Y-131635500D03*
X108585000Y-129095500D03*
D23*
X120015000Y-129413000D03*
D24*
X125095000Y-129413000D03*
D23*
X130175000Y-129413000D03*
D25*
X121285000Y-126873000D03*
X127635000Y-124333000D03*
D23*
X139065000Y-127031750D03*
D24*
X144145000Y-127031750D03*
D23*
X149225000Y-127031750D03*
D25*
X140335000Y-124491750D03*
X146685000Y-121951750D03*
D23*
X171752000Y-138574659D03*
D24*
X174292000Y-134175250D03*
D23*
X176832000Y-129775841D03*
D25*
X170187295Y-136204807D03*
X171162591Y-129435545D03*
D23*
X193330000Y-139300891D03*
D24*
X190790000Y-143700300D03*
D23*
X188250000Y-148099709D03*
D25*
X194894705Y-141670743D03*
X193919409Y-148440005D03*
D23*
X209510500Y-149375709D03*
D24*
X212050500Y-144976300D03*
D23*
X214590500Y-140576891D03*
D25*
X207945795Y-147005857D03*
X208921091Y-140236595D03*
D26*
X95978000Y-62992000D03*
D27*
X95978000Y-59542000D03*
X95978000Y-56282000D03*
D28*
X95978000Y-52832000D03*
D26*
X95978000Y-82169000D03*
D27*
X95978000Y-78719000D03*
X95978000Y-75459000D03*
D28*
X95978000Y-72009000D03*
D26*
X95978000Y-101092000D03*
D27*
X95978000Y-97642000D03*
X95978000Y-94382000D03*
D28*
X95978000Y-90932000D03*
D26*
X95978000Y-120121000D03*
D27*
X95978000Y-116671000D03*
X95978000Y-113411000D03*
D28*
X95978000Y-109961000D03*
D26*
X115478000Y-62466000D03*
D27*
X115478000Y-59016000D03*
X115478000Y-55756000D03*
D28*
X115478000Y-52306000D03*
D26*
X114978000Y-81966000D03*
D27*
X114978000Y-78516000D03*
X114978000Y-75256000D03*
D28*
X114978000Y-71806000D03*
D26*
X114978000Y-101092000D03*
D27*
X114978000Y-97642000D03*
X114978000Y-94382000D03*
D28*
X114978000Y-90932000D03*
D26*
X114978000Y-120142000D03*
D27*
X114978000Y-116692000D03*
X114978000Y-113432000D03*
D28*
X114978000Y-109982000D03*
D26*
X119818000Y-62256000D03*
D29*
X123268000Y-62256000D03*
X126528000Y-62256000D03*
D28*
X129978000Y-62256000D03*
D26*
X120028000Y-81256000D03*
D29*
X123478000Y-81256000D03*
X126738000Y-81256000D03*
D28*
X130188000Y-81256000D03*
D26*
X120268000Y-100256000D03*
D29*
X123718000Y-100256000D03*
X126978000Y-100256000D03*
D28*
X130428000Y-100256000D03*
D26*
X133978000Y-112649000D03*
D27*
X133978000Y-109199000D03*
X133978000Y-105939000D03*
D28*
X133978000Y-102489000D03*
D26*
X133978000Y-77356000D03*
D27*
X133978000Y-73906000D03*
X133978000Y-70646000D03*
D28*
X133978000Y-67196000D03*
D26*
X152978000Y-80772000D03*
D27*
X152978000Y-77322000D03*
X152978000Y-74062000D03*
D28*
X152978000Y-70612000D03*
D26*
X139268000Y-98256000D03*
D29*
X142718000Y-98256000D03*
X145978000Y-98256000D03*
D28*
X149428000Y-98256000D03*
D26*
X172478000Y-61087000D03*
D27*
X172478000Y-57637000D03*
X172478000Y-54377000D03*
D28*
X172478000Y-50927000D03*
D26*
X152978000Y-97134000D03*
D27*
X152978000Y-93684000D03*
X152978000Y-90424000D03*
D28*
X152978000Y-86974000D03*
D26*
X172478000Y-115466000D03*
D27*
X172478000Y-112016000D03*
X172478000Y-108756000D03*
D28*
X172478000Y-105306000D03*
D26*
X177268000Y-64256000D03*
D29*
X180718000Y-64256000D03*
X183978000Y-64256000D03*
D28*
X187428000Y-64256000D03*
D26*
X172478000Y-80966000D03*
D27*
X172478000Y-77516000D03*
X172478000Y-74256000D03*
D28*
X172478000Y-70806000D03*
D26*
X172478000Y-97966000D03*
D27*
X172478000Y-94516000D03*
X172478000Y-91256000D03*
D28*
X172478000Y-87806000D03*
D26*
X177268000Y-103256000D03*
D29*
X180718000Y-103256000D03*
X183978000Y-103256000D03*
D28*
X187428000Y-103256000D03*
D26*
X190978000Y-79883000D03*
D27*
X190978000Y-76433000D03*
X190978000Y-73173000D03*
D28*
X190978000Y-69723000D03*
D26*
X190978000Y-94966000D03*
D27*
X190978000Y-91516000D03*
X190978000Y-88256000D03*
D28*
X190978000Y-84806000D03*
D26*
X190978000Y-108458000D03*
D27*
X190978000Y-105008000D03*
X190978000Y-101748000D03*
D28*
X190978000Y-98298000D03*
D26*
X191478000Y-123706000D03*
D27*
X191478000Y-120256000D03*
X191478000Y-116996000D03*
D28*
X191478000Y-113546000D03*
D26*
X81528000Y-124256000D03*
D29*
X84978000Y-124256000D03*
X88238000Y-124256000D03*
D28*
X91688000Y-124256000D03*
D26*
X114978000Y-134966000D03*
D27*
X114978000Y-131516000D03*
X114978000Y-128256000D03*
D28*
X114978000Y-124806000D03*
D26*
X120528000Y-138256000D03*
D29*
X123978000Y-138256000D03*
X127238000Y-138256000D03*
D28*
X130688000Y-138256000D03*
D30*
X183465788Y-128981000D03*
D31*
X180478000Y-127256000D03*
X177654758Y-125626000D03*
D32*
X174666970Y-123901000D03*
D33*
X182123000Y-138067030D03*
D34*
X183848000Y-135079242D03*
X185478000Y-132256000D03*
D35*
X187203000Y-129268212D03*
D36*
X224068687Y-138130189D03*
D37*
X210870460Y-130510189D03*
D36*
X212130687Y-158807411D03*
D37*
X198932460Y-151187411D03*
D26*
X133978000Y-132440000D03*
D27*
X133978000Y-128990000D03*
X133978000Y-125730000D03*
D28*
X133978000Y-122280000D03*
D26*
X139268000Y-78756000D03*
D29*
X142718000Y-78756000D03*
X145978000Y-78756000D03*
D28*
X149428000Y-78756000D03*
D26*
X157768000Y-81256000D03*
D29*
X161218000Y-81256000D03*
X164478000Y-81256000D03*
D28*
X167928000Y-81256000D03*
%LPD*%
M02*
