G04 #@! TF.GenerationSoftware,KiCad,Pcbnew,10.0.3*
G04 #@! TF.CreationDate,2026-06-14T14:45:17+09:00*
G04 #@! TF.ProjectId,ergodash,6572676f-6461-4736-982e-6b696361645f,2.1*
G04 #@! TF.SameCoordinates,Original*
G04 #@! TF.FileFunction,Profile,NP*
%FSLAX46Y46*%
G04 Gerber Fmt 4.6, Leading zero omitted, Abs format (unit mm)*
G04 Created by KiCad (PCBNEW 10.0.3) date 2026-06-14 14:45:17*
%MOMM*%
%LPD*%
G01*
G04 APERTURE LIST*
G04 #@! TA.AperFunction,Profile*
%ADD10C,0.150000*%
G04 #@! TD*
G04 APERTURE END LIST*
D10*
X78512232Y-135001000D02*
G75*
G02*
X78893237Y-132842006I1269968J889000D01*
G01*
X92101232Y-125222000D02*
X78893232Y-132842000D01*
X92101232Y-125222000D02*
G75*
G02*
X94260195Y-125603026I888968J-1270000D01*
G01*
X94260232Y-125603000D02*
X97054232Y-130429000D01*
X95276232Y-163957000D02*
X78512232Y-135001000D01*
X96038232Y-58928000D02*
X96038232Y-110236000D01*
X96038232Y-58928000D02*
G75*
G02*
X98324232Y-56642032I2285968J0D01*
G01*
X96038232Y-110236000D02*
X96038232Y-122174000D01*
X96038232Y-122174000D02*
X96038232Y-126619000D01*
X96038232Y-126619000D02*
X97943232Y-129921000D01*
X97308232Y-164211000D02*
G75*
G02*
X95276197Y-163957028I-889032J1143000D01*
G01*
X97943232Y-129921000D02*
X97054232Y-130429000D01*
X99340232Y-132334000D02*
X98451232Y-132842000D01*
X102642232Y-56642000D02*
X98324232Y-56642000D01*
X104928232Y-46990000D02*
X104928232Y-54356000D01*
X104928232Y-46990000D02*
G75*
G02*
X107214232Y-44704032I2285968J0D01*
G01*
X104928232Y-54356000D02*
G75*
G02*
X102642232Y-56642032I-2286032J0D01*
G01*
X106579232Y-147193000D02*
X98451232Y-132842000D01*
X107468232Y-146685000D02*
X99340232Y-132334000D01*
X107468232Y-146685000D02*
X106579232Y-147193000D01*
X107849232Y-149352000D02*
X110897232Y-154559000D01*
X108738232Y-148844000D02*
X107849232Y-149352000D01*
X110389232Y-156591000D02*
X97308232Y-164211000D01*
X110897232Y-154559000D02*
G75*
G02*
X110389238Y-156591009I-1270032J-762000D01*
G01*
X111405232Y-153543000D02*
X108738232Y-148844000D01*
X114326232Y-154432000D02*
G75*
G02*
X111405194Y-153543020I-1016032J1905000D01*
G01*
X115088232Y-44704000D02*
X107214232Y-44704000D01*
X115088232Y-44704000D02*
G75*
G02*
X117374200Y-46990000I-32J-2286000D01*
G01*
X117374232Y-46990000D02*
X118644232Y-46990000D01*
X134138232Y-37084000D02*
X118644232Y-46990000D01*
X134138232Y-143002000D02*
X114326232Y-154432000D01*
X142774232Y-37084000D02*
X134138232Y-37084000D01*
X171730232Y-37084000D02*
X142774232Y-37084000D01*
X171730232Y-37084000D02*
X225832232Y-48260000D01*
X191542232Y-143002000D02*
X134138232Y-143002000D01*
X225832232Y-48260000D02*
G75*
G02*
X228118200Y-50546000I-32J-2286000D01*
G01*
X225832232Y-143002000D02*
X191542232Y-143002000D01*
X228118232Y-140716000D02*
G75*
G02*
X225832232Y-143002032I-2286032J0D01*
G01*
X228118232Y-140716000D02*
X228118232Y-50546000D01*
X230038898Y-143256000D02*
G75*
G02*
X226705566Y-143256000I-1666666J0D01*
G01*
X226705566Y-143256000D02*
G75*
G02*
X230038898Y-143256000I1666666J0D01*
G01*
X225872232Y-143256000D02*
X230872232Y-143256000D01*
X228372232Y-140756000D02*
X228372232Y-145756000D01*
M02*
