G04 #@! TF.GenerationSoftware,KiCad,Pcbnew,10.0.3*
G04 #@! TF.CreationDate,2026-06-13T18:59:15+09:00*
G04 #@! TF.ProjectId,ergodash,6572676f-6461-4736-982e-6b696361645f,2.0*
G04 #@! TF.SameCoordinates,Original*
G04 #@! TF.FileFunction,Soldermask,Top*
G04 #@! TF.FilePolarity,Negative*
%FSLAX46Y46*%
G04 Gerber Fmt 4.6, Leading zero omitted, Abs format (unit mm)*
G04 Created by KiCad (PCBNEW 10.0.3) date 2026-06-13 18:59:15*
%MOMM*%
%LPD*%
G01*
G04 APERTURE LIST*
G04 Aperture macros list*
%AMHorizOval*
0 Thick line with rounded ends*
0 $1 width*
0 $2 $3 position (X,Y) of the first rounded end (center of the circle)*
0 $4 $5 position (X,Y) of the second rounded end (center of the circle)*
0 Add line between two ends*
20,1,$1,$2,$3,$4,$5,0*
0 Add two circle primitives to create the rounded ends*
1,1,$1,$2,$3*
1,1,$1,$4,$5*%
%AMRotRect*
0 Rectangle, with rotation*
0 The origin of the aperture is its center*
0 $1 length*
0 $2 width*
0 $3 Rotation angle, in degrees counterclockwise*
0 Add horizontal line*
21,1,$1,$2,0,0,$3*%
G04 Aperture macros list end*
%ADD10C,1.524000*%
%ADD11C,1.800000*%
%ADD12C,5.000000*%
%ADD13C,1.210000*%
%ADD14O,1.300000X2.200000*%
%ADD15RotRect,1.600000X1.600000X330.000000*%
%ADD16RotRect,1.600000X1.200000X330.000000*%
%ADD17HorizOval,1.600000X0.000000X0.000000X0.000000X0.000000X0*%
%ADD18C,1.750000*%
%ADD19C,4.000000*%
%ADD20C,3.600000*%
%ADD21R,1.600000X1.600000*%
%ADD22R,1.200000X1.600000*%
%ADD23O,1.600000X1.600000*%
%ADD24R,1.600000X1.200000*%
%ADD25RotRect,1.600000X1.600000X150.000000*%
%ADD26RotRect,1.600000X1.200000X150.000000*%
%ADD27HorizOval,1.600000X0.000000X0.000000X0.000000X0.000000X0*%
%ADD28RotRect,1.600000X1.600000X60.000000*%
%ADD29RotRect,1.600000X1.200000X60.000000*%
%ADD30HorizOval,1.600000X0.000000X0.000000X0.000000X0.000000X0*%
%ADD31C,3.048000*%
%ADD32C,3.987800*%
G04 APERTURE END LIST*
D10*
X160314000Y-39624000D03*
X165314000Y-39624000D03*
D11*
X159314000Y-42124000D03*
X166314000Y-42124000D03*
D12*
X134620000Y-81788000D03*
X191770000Y-65024000D03*
X185801000Y-124714000D03*
X96520000Y-67564000D03*
X96520000Y-124968000D03*
D13*
X197072000Y-46204000D03*
X193072000Y-46204000D03*
X197072000Y-53204000D03*
X193072000Y-53204000D03*
D14*
X195072000Y-55004000D03*
X195072000Y-48004000D03*
X195072000Y-51004000D03*
X191072000Y-56504000D03*
X199072000Y-56504000D03*
D12*
X135128000Y-117348000D03*
X128397000Y-42672000D03*
D10*
X136525000Y-39370000D03*
X136525000Y-41910000D03*
X136525000Y-44450000D03*
X136525000Y-46990000D03*
X136525000Y-49530000D03*
X136525000Y-52070000D03*
X136525000Y-54610000D03*
X136525000Y-57150000D03*
X136525000Y-59690000D03*
X136525000Y-62230000D03*
X136525000Y-64770000D03*
X136525000Y-67310000D03*
X151765000Y-67310000D03*
X151765000Y-64770000D03*
X151765000Y-62230000D03*
X151765000Y-59690000D03*
X151765000Y-57150000D03*
X151765000Y-54610000D03*
X151765000Y-52070000D03*
X151765000Y-49530000D03*
X151765000Y-46990000D03*
X151765000Y-44450000D03*
X151765000Y-41910000D03*
X151765000Y-39370000D03*
D15*
X202478000Y-151256000D03*
D16*
X205465788Y-152981000D03*
X208289030Y-154611000D03*
D17*
X211276818Y-156336000D03*
D18*
X81915000Y-57975500D03*
D19*
X86995000Y-57975500D03*
D18*
X92075000Y-57975500D03*
D20*
X83185000Y-55435500D03*
X89535000Y-52895500D03*
D18*
X81915000Y-77025500D03*
D19*
X86995000Y-77025500D03*
D18*
X92075000Y-77025500D03*
D20*
X83185000Y-74485500D03*
X89535000Y-71945500D03*
D18*
X81915000Y-96075500D03*
D19*
X86995000Y-96075500D03*
D18*
X92075000Y-96075500D03*
D20*
X83185000Y-93535500D03*
X89535000Y-90995500D03*
D18*
X81915000Y-115125500D03*
D19*
X86995000Y-115125500D03*
D18*
X92075000Y-115125500D03*
D20*
X83185000Y-112585500D03*
X89535000Y-110045500D03*
D18*
X100965000Y-57975500D03*
D19*
X106045000Y-57975500D03*
D18*
X111125000Y-57975500D03*
D20*
X102235000Y-55435500D03*
X108585000Y-52895500D03*
D18*
X100965000Y-77025500D03*
D19*
X106045000Y-77025500D03*
D18*
X111125000Y-77025500D03*
D20*
X102235000Y-74485500D03*
X108585000Y-71945500D03*
D18*
X100965000Y-96075500D03*
D19*
X106045000Y-96075500D03*
D18*
X111125000Y-96075500D03*
D20*
X102235000Y-93535500D03*
X108585000Y-90995500D03*
D18*
X100965000Y-115125500D03*
D19*
X106045000Y-115125500D03*
D18*
X111125000Y-115125500D03*
D20*
X102235000Y-112585500D03*
X108585000Y-110045500D03*
D18*
X120015000Y-53213000D03*
D19*
X125095000Y-53213000D03*
D18*
X130175000Y-53213000D03*
D20*
X121285000Y-50673000D03*
X127635000Y-48133000D03*
D18*
X120015000Y-72263000D03*
D19*
X125095000Y-72263000D03*
D18*
X130175000Y-72263000D03*
D20*
X121285000Y-69723000D03*
X127635000Y-67183000D03*
D18*
X120015000Y-91313000D03*
D19*
X125095000Y-91313000D03*
D18*
X130175000Y-91313000D03*
D20*
X121285000Y-88773000D03*
X127635000Y-86233000D03*
D18*
X120015000Y-110363000D03*
D19*
X125095000Y-110363000D03*
D18*
X130175000Y-110363000D03*
D20*
X121285000Y-107823000D03*
X127635000Y-105283000D03*
D18*
X144145000Y-45751750D03*
D19*
X144145000Y-50831750D03*
D18*
X144145000Y-55911750D03*
D20*
X146685000Y-47021750D03*
X149225000Y-53371750D03*
D18*
X144145000Y-64801750D03*
D19*
X144145000Y-69881750D03*
D18*
X144145000Y-74961750D03*
D20*
X146685000Y-66071750D03*
X149225000Y-72421750D03*
D18*
X139065000Y-88931750D03*
D19*
X144145000Y-88931750D03*
D18*
X149225000Y-88931750D03*
D20*
X140335000Y-86391750D03*
X146685000Y-83851750D03*
D18*
X139065000Y-107981750D03*
D19*
X144145000Y-107981750D03*
D18*
X149225000Y-107981750D03*
D20*
X140335000Y-105441750D03*
X146685000Y-102901750D03*
D18*
X158115000Y-53213000D03*
D19*
X163195000Y-53213000D03*
D18*
X168275000Y-53213000D03*
D20*
X159385000Y-50673000D03*
X165735000Y-48133000D03*
D18*
X158115000Y-72263000D03*
D19*
X163195000Y-72263000D03*
D18*
X168275000Y-72263000D03*
D20*
X159385000Y-69723000D03*
X165735000Y-67183000D03*
D18*
X158115000Y-91313000D03*
D19*
X163195000Y-91313000D03*
D18*
X168275000Y-91313000D03*
D20*
X159385000Y-88773000D03*
X165735000Y-86233000D03*
D18*
X158115000Y-110363000D03*
D19*
X163195000Y-110363000D03*
D18*
X168275000Y-110363000D03*
D20*
X159385000Y-107823000D03*
X165735000Y-105283000D03*
D18*
X177165000Y-55594250D03*
D19*
X182245000Y-55594250D03*
D18*
X187325000Y-55594250D03*
D20*
X178435000Y-53054250D03*
X184785000Y-50514250D03*
D18*
X177165000Y-74644250D03*
D19*
X182245000Y-74644250D03*
D18*
X187325000Y-74644250D03*
D20*
X178435000Y-72104250D03*
X184785000Y-69564250D03*
D18*
X177165000Y-93694250D03*
D19*
X182245000Y-93694250D03*
D18*
X187325000Y-93694250D03*
D20*
X178435000Y-91154250D03*
X184785000Y-88614250D03*
D18*
X177165000Y-112744250D03*
D19*
X182245000Y-112744250D03*
D18*
X187325000Y-112744250D03*
D20*
X178435000Y-110204250D03*
X184785000Y-107664250D03*
D18*
X196215000Y-65119250D03*
D19*
X201295000Y-65119250D03*
D18*
X206375000Y-65119250D03*
D20*
X197485000Y-62579250D03*
X203835000Y-60039250D03*
D18*
X196215000Y-84169250D03*
D19*
X201295000Y-84169250D03*
D18*
X206375000Y-84169250D03*
D20*
X197485000Y-81629250D03*
X203835000Y-79089250D03*
D18*
X196215000Y-103219250D03*
D19*
X201295000Y-103219250D03*
D18*
X206375000Y-103219250D03*
D20*
X197485000Y-100679250D03*
X203835000Y-98139250D03*
D18*
X202855000Y-122802891D03*
D19*
X200315000Y-127202300D03*
D18*
X197775000Y-131601709D03*
D20*
X204419705Y-125172743D03*
X203444409Y-131942005D03*
D18*
X81915000Y-134175500D03*
D19*
X86995000Y-134175500D03*
D18*
X92075000Y-134175500D03*
D20*
X83185000Y-131635500D03*
X89535000Y-129095500D03*
D18*
X100965000Y-134175500D03*
D19*
X106045000Y-134175500D03*
D18*
X111125000Y-134175500D03*
D20*
X102235000Y-131635500D03*
X108585000Y-129095500D03*
D18*
X120015000Y-129413000D03*
D19*
X125095000Y-129413000D03*
D18*
X130175000Y-129413000D03*
D20*
X121285000Y-126873000D03*
X127635000Y-124333000D03*
D18*
X139065000Y-127031750D03*
D19*
X144145000Y-127031750D03*
D18*
X149225000Y-127031750D03*
D20*
X140335000Y-124491750D03*
X146685000Y-121951750D03*
D18*
X171752000Y-138574659D03*
D19*
X174292000Y-134175250D03*
D18*
X176832000Y-129775841D03*
D20*
X170187295Y-136204807D03*
X171162591Y-129435545D03*
D18*
X193330000Y-139300891D03*
D19*
X190790000Y-143700300D03*
D18*
X188250000Y-148099709D03*
D20*
X194894705Y-141670743D03*
X193919409Y-148440005D03*
D18*
X209510500Y-149375709D03*
D19*
X212050500Y-144976300D03*
D18*
X214590500Y-140576891D03*
D20*
X207945795Y-147005857D03*
X208921091Y-140236595D03*
D21*
X95978000Y-62992000D03*
D22*
X95978000Y-59542000D03*
X95978000Y-56282000D03*
D23*
X95978000Y-52832000D03*
D21*
X95978000Y-82169000D03*
D22*
X95978000Y-78719000D03*
X95978000Y-75459000D03*
D23*
X95978000Y-72009000D03*
D21*
X95978000Y-101092000D03*
D22*
X95978000Y-97642000D03*
X95978000Y-94382000D03*
D23*
X95978000Y-90932000D03*
D21*
X95978000Y-120121000D03*
D22*
X95978000Y-116671000D03*
X95978000Y-113411000D03*
D23*
X95978000Y-109961000D03*
D21*
X115478000Y-62466000D03*
D22*
X115478000Y-59016000D03*
X115478000Y-55756000D03*
D23*
X115478000Y-52306000D03*
D21*
X114978000Y-81966000D03*
D22*
X114978000Y-78516000D03*
X114978000Y-75256000D03*
D23*
X114978000Y-71806000D03*
D21*
X114978000Y-101092000D03*
D22*
X114978000Y-97642000D03*
X114978000Y-94382000D03*
D23*
X114978000Y-90932000D03*
D21*
X114978000Y-120142000D03*
D22*
X114978000Y-116692000D03*
X114978000Y-113432000D03*
D23*
X114978000Y-109982000D03*
D21*
X119818000Y-62256000D03*
D24*
X123268000Y-62256000D03*
X126528000Y-62256000D03*
D23*
X129978000Y-62256000D03*
D21*
X120028000Y-81256000D03*
D24*
X123478000Y-81256000D03*
X126738000Y-81256000D03*
D23*
X130188000Y-81256000D03*
D21*
X120268000Y-100256000D03*
D24*
X123718000Y-100256000D03*
X126978000Y-100256000D03*
D23*
X130428000Y-100256000D03*
D21*
X133978000Y-112649000D03*
D22*
X133978000Y-109199000D03*
X133978000Y-105939000D03*
D23*
X133978000Y-102489000D03*
D21*
X133978000Y-77356000D03*
D22*
X133978000Y-73906000D03*
X133978000Y-70646000D03*
D23*
X133978000Y-67196000D03*
D21*
X152978000Y-80772000D03*
D22*
X152978000Y-77322000D03*
X152978000Y-74062000D03*
D23*
X152978000Y-70612000D03*
D21*
X139268000Y-98256000D03*
D24*
X142718000Y-98256000D03*
X145978000Y-98256000D03*
D23*
X149428000Y-98256000D03*
D21*
X172478000Y-61087000D03*
D22*
X172478000Y-57637000D03*
X172478000Y-54377000D03*
D23*
X172478000Y-50927000D03*
D21*
X152978000Y-97134000D03*
D22*
X152978000Y-93684000D03*
X152978000Y-90424000D03*
D23*
X152978000Y-86974000D03*
D21*
X172478000Y-115466000D03*
D22*
X172478000Y-112016000D03*
X172478000Y-108756000D03*
D23*
X172478000Y-105306000D03*
D21*
X177268000Y-64256000D03*
D24*
X180718000Y-64256000D03*
X183978000Y-64256000D03*
D23*
X187428000Y-64256000D03*
D21*
X172478000Y-80966000D03*
D22*
X172478000Y-77516000D03*
X172478000Y-74256000D03*
D23*
X172478000Y-70806000D03*
D21*
X172478000Y-97966000D03*
D22*
X172478000Y-94516000D03*
X172478000Y-91256000D03*
D23*
X172478000Y-87806000D03*
D21*
X177268000Y-103256000D03*
D24*
X180718000Y-103256000D03*
X183978000Y-103256000D03*
D23*
X187428000Y-103256000D03*
D21*
X190978000Y-79883000D03*
D22*
X190978000Y-76433000D03*
X190978000Y-73173000D03*
D23*
X190978000Y-69723000D03*
D21*
X190978000Y-94966000D03*
D22*
X190978000Y-91516000D03*
X190978000Y-88256000D03*
D23*
X190978000Y-84806000D03*
D21*
X190978000Y-108458000D03*
D22*
X190978000Y-105008000D03*
X190978000Y-101748000D03*
D23*
X190978000Y-98298000D03*
D21*
X191478000Y-123706000D03*
D22*
X191478000Y-120256000D03*
X191478000Y-116996000D03*
D23*
X191478000Y-113546000D03*
D21*
X81528000Y-124256000D03*
D24*
X84978000Y-124256000D03*
X88238000Y-124256000D03*
D23*
X91688000Y-124256000D03*
D21*
X114978000Y-134966000D03*
D22*
X114978000Y-131516000D03*
X114978000Y-128256000D03*
D23*
X114978000Y-124806000D03*
D21*
X120528000Y-138256000D03*
D24*
X123978000Y-138256000D03*
X127238000Y-138256000D03*
D23*
X130688000Y-138256000D03*
D25*
X183465788Y-128981000D03*
D26*
X180478000Y-127256000D03*
X177654758Y-125626000D03*
D27*
X174666970Y-123901000D03*
D28*
X182123000Y-138067030D03*
D29*
X183848000Y-135079242D03*
X185478000Y-132256000D03*
D30*
X187203000Y-129268212D03*
D31*
X224068687Y-138130189D03*
D32*
X210870460Y-130510189D03*
D31*
X212130687Y-158807411D03*
D32*
X198932460Y-151187411D03*
D21*
X133978000Y-132440000D03*
D22*
X133978000Y-128990000D03*
X133978000Y-125730000D03*
D23*
X133978000Y-122280000D03*
D21*
X139268000Y-78756000D03*
D24*
X142718000Y-78756000D03*
X145978000Y-78756000D03*
D23*
X149428000Y-78756000D03*
D21*
X157768000Y-81256000D03*
D24*
X161218000Y-81256000D03*
X164478000Y-81256000D03*
D23*
X167928000Y-81256000D03*
M02*
